%TF.GenerationSoftware,KiCad,Pcbnew,5.1.6-1.fc32*%
%TF.CreationDate,2020-07-03T14:53:20+01:00*%
%TF.ProjectId,4dc,3464632e-6b69-4636-9164-5f7063625858,rev?*%
%TF.SameCoordinates,Original*%
%TF.FileFunction,Soldermask,Top*%
%TF.FilePolarity,Negative*%
%FSLAX46Y46*%
G04 Gerber Fmt 4.6, Leading zero omitted, Abs format (unit mm)*
G04 Created by KiCad (PCBNEW 5.1.6-1.fc32) date 2020-07-03 14:53:20*
%MOMM*%
%LPD*%
G01*
G04 APERTURE LIST*
%ADD10R,1.300000X2.100000*%
%ADD11R,0.550000X1.850000*%
%ADD12R,2.250000X1.400000*%
%ADD13R,1.300000X0.900000*%
%ADD14R,1.400000X2.250000*%
%ADD15R,0.900000X1.300000*%
%ADD16O,1.800000X1.800000*%
%ADD17R,1.800000X1.800000*%
%ADD18R,0.950000X0.600000*%
%ADD19C,5.600000*%
G04 APERTURE END LIST*
%TO.C,C3*%
G36*
G01*
X117937000Y-94841750D02*
X117937000Y-95404250D01*
G75*
G02*
X117693250Y-95648000I-243750J0D01*
G01*
X117205750Y-95648000D01*
G75*
G02*
X116962000Y-95404250I0J243750D01*
G01*
X116962000Y-94841750D01*
G75*
G02*
X117205750Y-94598000I243750J0D01*
G01*
X117693250Y-94598000D01*
G75*
G02*
X117937000Y-94841750I0J-243750D01*
G01*
G37*
G36*
G01*
X119512000Y-94841750D02*
X119512000Y-95404250D01*
G75*
G02*
X119268250Y-95648000I-243750J0D01*
G01*
X118780750Y-95648000D01*
G75*
G02*
X118537000Y-95404250I0J243750D01*
G01*
X118537000Y-94841750D01*
G75*
G02*
X118780750Y-94598000I243750J0D01*
G01*
X119268250Y-94598000D01*
G75*
G02*
X119512000Y-94841750I0J-243750D01*
G01*
G37*
%TD*%
%TO.C,C2*%
G36*
G01*
X121493000Y-97508750D02*
X121493000Y-98071250D01*
G75*
G02*
X121249250Y-98315000I-243750J0D01*
G01*
X120761750Y-98315000D01*
G75*
G02*
X120518000Y-98071250I0J243750D01*
G01*
X120518000Y-97508750D01*
G75*
G02*
X120761750Y-97265000I243750J0D01*
G01*
X121249250Y-97265000D01*
G75*
G02*
X121493000Y-97508750I0J-243750D01*
G01*
G37*
G36*
G01*
X123068000Y-97508750D02*
X123068000Y-98071250D01*
G75*
G02*
X122824250Y-98315000I-243750J0D01*
G01*
X122336750Y-98315000D01*
G75*
G02*
X122093000Y-98071250I0J243750D01*
G01*
X122093000Y-97508750D01*
G75*
G02*
X122336750Y-97265000I243750J0D01*
G01*
X122824250Y-97265000D01*
G75*
G02*
X123068000Y-97508750I0J-243750D01*
G01*
G37*
%TD*%
D10*
%TO.C,U3*%
X144780000Y-94869000D03*
G36*
G01*
X145730000Y-93956500D02*
X145730000Y-93781500D01*
G75*
G02*
X145817500Y-93694000I87500J0D01*
G01*
X146617500Y-93694000D01*
G75*
G02*
X146705000Y-93781500I0J-87500D01*
G01*
X146705000Y-93956500D01*
G75*
G02*
X146617500Y-94044000I-87500J0D01*
G01*
X145817500Y-94044000D01*
G75*
G02*
X145730000Y-93956500I0J87500D01*
G01*
G37*
G36*
G01*
X145730000Y-94456500D02*
X145730000Y-94281500D01*
G75*
G02*
X145817500Y-94194000I87500J0D01*
G01*
X146617500Y-94194000D01*
G75*
G02*
X146705000Y-94281500I0J-87500D01*
G01*
X146705000Y-94456500D01*
G75*
G02*
X146617500Y-94544000I-87500J0D01*
G01*
X145817500Y-94544000D01*
G75*
G02*
X145730000Y-94456500I0J87500D01*
G01*
G37*
G36*
G01*
X145730000Y-94956500D02*
X145730000Y-94781500D01*
G75*
G02*
X145817500Y-94694000I87500J0D01*
G01*
X146617500Y-94694000D01*
G75*
G02*
X146705000Y-94781500I0J-87500D01*
G01*
X146705000Y-94956500D01*
G75*
G02*
X146617500Y-95044000I-87500J0D01*
G01*
X145817500Y-95044000D01*
G75*
G02*
X145730000Y-94956500I0J87500D01*
G01*
G37*
G36*
G01*
X145730000Y-95456500D02*
X145730000Y-95281500D01*
G75*
G02*
X145817500Y-95194000I87500J0D01*
G01*
X146617500Y-95194000D01*
G75*
G02*
X146705000Y-95281500I0J-87500D01*
G01*
X146705000Y-95456500D01*
G75*
G02*
X146617500Y-95544000I-87500J0D01*
G01*
X145817500Y-95544000D01*
G75*
G02*
X145730000Y-95456500I0J87500D01*
G01*
G37*
G36*
G01*
X145730000Y-95956500D02*
X145730000Y-95781500D01*
G75*
G02*
X145817500Y-95694000I87500J0D01*
G01*
X146617500Y-95694000D01*
G75*
G02*
X146705000Y-95781500I0J-87500D01*
G01*
X146705000Y-95956500D01*
G75*
G02*
X146617500Y-96044000I-87500J0D01*
G01*
X145817500Y-96044000D01*
G75*
G02*
X145730000Y-95956500I0J87500D01*
G01*
G37*
G36*
G01*
X142855000Y-95956500D02*
X142855000Y-95781500D01*
G75*
G02*
X142942500Y-95694000I87500J0D01*
G01*
X143742500Y-95694000D01*
G75*
G02*
X143830000Y-95781500I0J-87500D01*
G01*
X143830000Y-95956500D01*
G75*
G02*
X143742500Y-96044000I-87500J0D01*
G01*
X142942500Y-96044000D01*
G75*
G02*
X142855000Y-95956500I0J87500D01*
G01*
G37*
G36*
G01*
X142855000Y-95456500D02*
X142855000Y-95281500D01*
G75*
G02*
X142942500Y-95194000I87500J0D01*
G01*
X143742500Y-95194000D01*
G75*
G02*
X143830000Y-95281500I0J-87500D01*
G01*
X143830000Y-95456500D01*
G75*
G02*
X143742500Y-95544000I-87500J0D01*
G01*
X142942500Y-95544000D01*
G75*
G02*
X142855000Y-95456500I0J87500D01*
G01*
G37*
G36*
G01*
X142855000Y-94956500D02*
X142855000Y-94781500D01*
G75*
G02*
X142942500Y-94694000I87500J0D01*
G01*
X143742500Y-94694000D01*
G75*
G02*
X143830000Y-94781500I0J-87500D01*
G01*
X143830000Y-94956500D01*
G75*
G02*
X143742500Y-95044000I-87500J0D01*
G01*
X142942500Y-95044000D01*
G75*
G02*
X142855000Y-94956500I0J87500D01*
G01*
G37*
G36*
G01*
X142855000Y-94456500D02*
X142855000Y-94281500D01*
G75*
G02*
X142942500Y-94194000I87500J0D01*
G01*
X143742500Y-94194000D01*
G75*
G02*
X143830000Y-94281500I0J-87500D01*
G01*
X143830000Y-94456500D01*
G75*
G02*
X143742500Y-94544000I-87500J0D01*
G01*
X142942500Y-94544000D01*
G75*
G02*
X142855000Y-94456500I0J87500D01*
G01*
G37*
G36*
G01*
X142855000Y-93956500D02*
X142855000Y-93781500D01*
G75*
G02*
X142942500Y-93694000I87500J0D01*
G01*
X143742500Y-93694000D01*
G75*
G02*
X143830000Y-93781500I0J-87500D01*
G01*
X143830000Y-93956500D01*
G75*
G02*
X143742500Y-94044000I-87500J0D01*
G01*
X142942500Y-94044000D01*
G75*
G02*
X142855000Y-93956500I0J87500D01*
G01*
G37*
%TD*%
%TO.C,U4*%
X152400000Y-94869000D03*
G36*
G01*
X153350000Y-93956500D02*
X153350000Y-93781500D01*
G75*
G02*
X153437500Y-93694000I87500J0D01*
G01*
X154237500Y-93694000D01*
G75*
G02*
X154325000Y-93781500I0J-87500D01*
G01*
X154325000Y-93956500D01*
G75*
G02*
X154237500Y-94044000I-87500J0D01*
G01*
X153437500Y-94044000D01*
G75*
G02*
X153350000Y-93956500I0J87500D01*
G01*
G37*
G36*
G01*
X153350000Y-94456500D02*
X153350000Y-94281500D01*
G75*
G02*
X153437500Y-94194000I87500J0D01*
G01*
X154237500Y-94194000D01*
G75*
G02*
X154325000Y-94281500I0J-87500D01*
G01*
X154325000Y-94456500D01*
G75*
G02*
X154237500Y-94544000I-87500J0D01*
G01*
X153437500Y-94544000D01*
G75*
G02*
X153350000Y-94456500I0J87500D01*
G01*
G37*
G36*
G01*
X153350000Y-94956500D02*
X153350000Y-94781500D01*
G75*
G02*
X153437500Y-94694000I87500J0D01*
G01*
X154237500Y-94694000D01*
G75*
G02*
X154325000Y-94781500I0J-87500D01*
G01*
X154325000Y-94956500D01*
G75*
G02*
X154237500Y-95044000I-87500J0D01*
G01*
X153437500Y-95044000D01*
G75*
G02*
X153350000Y-94956500I0J87500D01*
G01*
G37*
G36*
G01*
X153350000Y-95456500D02*
X153350000Y-95281500D01*
G75*
G02*
X153437500Y-95194000I87500J0D01*
G01*
X154237500Y-95194000D01*
G75*
G02*
X154325000Y-95281500I0J-87500D01*
G01*
X154325000Y-95456500D01*
G75*
G02*
X154237500Y-95544000I-87500J0D01*
G01*
X153437500Y-95544000D01*
G75*
G02*
X153350000Y-95456500I0J87500D01*
G01*
G37*
G36*
G01*
X153350000Y-95956500D02*
X153350000Y-95781500D01*
G75*
G02*
X153437500Y-95694000I87500J0D01*
G01*
X154237500Y-95694000D01*
G75*
G02*
X154325000Y-95781500I0J-87500D01*
G01*
X154325000Y-95956500D01*
G75*
G02*
X154237500Y-96044000I-87500J0D01*
G01*
X153437500Y-96044000D01*
G75*
G02*
X153350000Y-95956500I0J87500D01*
G01*
G37*
G36*
G01*
X150475000Y-95956500D02*
X150475000Y-95781500D01*
G75*
G02*
X150562500Y-95694000I87500J0D01*
G01*
X151362500Y-95694000D01*
G75*
G02*
X151450000Y-95781500I0J-87500D01*
G01*
X151450000Y-95956500D01*
G75*
G02*
X151362500Y-96044000I-87500J0D01*
G01*
X150562500Y-96044000D01*
G75*
G02*
X150475000Y-95956500I0J87500D01*
G01*
G37*
G36*
G01*
X150475000Y-95456500D02*
X150475000Y-95281500D01*
G75*
G02*
X150562500Y-95194000I87500J0D01*
G01*
X151362500Y-95194000D01*
G75*
G02*
X151450000Y-95281500I0J-87500D01*
G01*
X151450000Y-95456500D01*
G75*
G02*
X151362500Y-95544000I-87500J0D01*
G01*
X150562500Y-95544000D01*
G75*
G02*
X150475000Y-95456500I0J87500D01*
G01*
G37*
G36*
G01*
X150475000Y-94956500D02*
X150475000Y-94781500D01*
G75*
G02*
X150562500Y-94694000I87500J0D01*
G01*
X151362500Y-94694000D01*
G75*
G02*
X151450000Y-94781500I0J-87500D01*
G01*
X151450000Y-94956500D01*
G75*
G02*
X151362500Y-95044000I-87500J0D01*
G01*
X150562500Y-95044000D01*
G75*
G02*
X150475000Y-94956500I0J87500D01*
G01*
G37*
G36*
G01*
X150475000Y-94456500D02*
X150475000Y-94281500D01*
G75*
G02*
X150562500Y-94194000I87500J0D01*
G01*
X151362500Y-94194000D01*
G75*
G02*
X151450000Y-94281500I0J-87500D01*
G01*
X151450000Y-94456500D01*
G75*
G02*
X151362500Y-94544000I-87500J0D01*
G01*
X150562500Y-94544000D01*
G75*
G02*
X150475000Y-94456500I0J87500D01*
G01*
G37*
G36*
G01*
X150475000Y-93956500D02*
X150475000Y-93781500D01*
G75*
G02*
X150562500Y-93694000I87500J0D01*
G01*
X151362500Y-93694000D01*
G75*
G02*
X151450000Y-93781500I0J-87500D01*
G01*
X151450000Y-93956500D01*
G75*
G02*
X151362500Y-94044000I-87500J0D01*
G01*
X150562500Y-94044000D01*
G75*
G02*
X150475000Y-93956500I0J87500D01*
G01*
G37*
%TD*%
%TO.C,U5*%
X160020000Y-94869000D03*
G36*
G01*
X160970000Y-93956500D02*
X160970000Y-93781500D01*
G75*
G02*
X161057500Y-93694000I87500J0D01*
G01*
X161857500Y-93694000D01*
G75*
G02*
X161945000Y-93781500I0J-87500D01*
G01*
X161945000Y-93956500D01*
G75*
G02*
X161857500Y-94044000I-87500J0D01*
G01*
X161057500Y-94044000D01*
G75*
G02*
X160970000Y-93956500I0J87500D01*
G01*
G37*
G36*
G01*
X160970000Y-94456500D02*
X160970000Y-94281500D01*
G75*
G02*
X161057500Y-94194000I87500J0D01*
G01*
X161857500Y-94194000D01*
G75*
G02*
X161945000Y-94281500I0J-87500D01*
G01*
X161945000Y-94456500D01*
G75*
G02*
X161857500Y-94544000I-87500J0D01*
G01*
X161057500Y-94544000D01*
G75*
G02*
X160970000Y-94456500I0J87500D01*
G01*
G37*
G36*
G01*
X160970000Y-94956500D02*
X160970000Y-94781500D01*
G75*
G02*
X161057500Y-94694000I87500J0D01*
G01*
X161857500Y-94694000D01*
G75*
G02*
X161945000Y-94781500I0J-87500D01*
G01*
X161945000Y-94956500D01*
G75*
G02*
X161857500Y-95044000I-87500J0D01*
G01*
X161057500Y-95044000D01*
G75*
G02*
X160970000Y-94956500I0J87500D01*
G01*
G37*
G36*
G01*
X160970000Y-95456500D02*
X160970000Y-95281500D01*
G75*
G02*
X161057500Y-95194000I87500J0D01*
G01*
X161857500Y-95194000D01*
G75*
G02*
X161945000Y-95281500I0J-87500D01*
G01*
X161945000Y-95456500D01*
G75*
G02*
X161857500Y-95544000I-87500J0D01*
G01*
X161057500Y-95544000D01*
G75*
G02*
X160970000Y-95456500I0J87500D01*
G01*
G37*
G36*
G01*
X160970000Y-95956500D02*
X160970000Y-95781500D01*
G75*
G02*
X161057500Y-95694000I87500J0D01*
G01*
X161857500Y-95694000D01*
G75*
G02*
X161945000Y-95781500I0J-87500D01*
G01*
X161945000Y-95956500D01*
G75*
G02*
X161857500Y-96044000I-87500J0D01*
G01*
X161057500Y-96044000D01*
G75*
G02*
X160970000Y-95956500I0J87500D01*
G01*
G37*
G36*
G01*
X158095000Y-95956500D02*
X158095000Y-95781500D01*
G75*
G02*
X158182500Y-95694000I87500J0D01*
G01*
X158982500Y-95694000D01*
G75*
G02*
X159070000Y-95781500I0J-87500D01*
G01*
X159070000Y-95956500D01*
G75*
G02*
X158982500Y-96044000I-87500J0D01*
G01*
X158182500Y-96044000D01*
G75*
G02*
X158095000Y-95956500I0J87500D01*
G01*
G37*
G36*
G01*
X158095000Y-95456500D02*
X158095000Y-95281500D01*
G75*
G02*
X158182500Y-95194000I87500J0D01*
G01*
X158982500Y-95194000D01*
G75*
G02*
X159070000Y-95281500I0J-87500D01*
G01*
X159070000Y-95456500D01*
G75*
G02*
X158982500Y-95544000I-87500J0D01*
G01*
X158182500Y-95544000D01*
G75*
G02*
X158095000Y-95456500I0J87500D01*
G01*
G37*
G36*
G01*
X158095000Y-94956500D02*
X158095000Y-94781500D01*
G75*
G02*
X158182500Y-94694000I87500J0D01*
G01*
X158982500Y-94694000D01*
G75*
G02*
X159070000Y-94781500I0J-87500D01*
G01*
X159070000Y-94956500D01*
G75*
G02*
X158982500Y-95044000I-87500J0D01*
G01*
X158182500Y-95044000D01*
G75*
G02*
X158095000Y-94956500I0J87500D01*
G01*
G37*
G36*
G01*
X158095000Y-94456500D02*
X158095000Y-94281500D01*
G75*
G02*
X158182500Y-94194000I87500J0D01*
G01*
X158982500Y-94194000D01*
G75*
G02*
X159070000Y-94281500I0J-87500D01*
G01*
X159070000Y-94456500D01*
G75*
G02*
X158982500Y-94544000I-87500J0D01*
G01*
X158182500Y-94544000D01*
G75*
G02*
X158095000Y-94456500I0J87500D01*
G01*
G37*
G36*
G01*
X158095000Y-93956500D02*
X158095000Y-93781500D01*
G75*
G02*
X158182500Y-93694000I87500J0D01*
G01*
X158982500Y-93694000D01*
G75*
G02*
X159070000Y-93781500I0J-87500D01*
G01*
X159070000Y-93956500D01*
G75*
G02*
X158982500Y-94044000I-87500J0D01*
G01*
X158182500Y-94044000D01*
G75*
G02*
X158095000Y-93956500I0J87500D01*
G01*
G37*
%TD*%
%TO.C,U2*%
X137160000Y-94869000D03*
G36*
G01*
X138110000Y-93956500D02*
X138110000Y-93781500D01*
G75*
G02*
X138197500Y-93694000I87500J0D01*
G01*
X138997500Y-93694000D01*
G75*
G02*
X139085000Y-93781500I0J-87500D01*
G01*
X139085000Y-93956500D01*
G75*
G02*
X138997500Y-94044000I-87500J0D01*
G01*
X138197500Y-94044000D01*
G75*
G02*
X138110000Y-93956500I0J87500D01*
G01*
G37*
G36*
G01*
X138110000Y-94456500D02*
X138110000Y-94281500D01*
G75*
G02*
X138197500Y-94194000I87500J0D01*
G01*
X138997500Y-94194000D01*
G75*
G02*
X139085000Y-94281500I0J-87500D01*
G01*
X139085000Y-94456500D01*
G75*
G02*
X138997500Y-94544000I-87500J0D01*
G01*
X138197500Y-94544000D01*
G75*
G02*
X138110000Y-94456500I0J87500D01*
G01*
G37*
G36*
G01*
X138110000Y-94956500D02*
X138110000Y-94781500D01*
G75*
G02*
X138197500Y-94694000I87500J0D01*
G01*
X138997500Y-94694000D01*
G75*
G02*
X139085000Y-94781500I0J-87500D01*
G01*
X139085000Y-94956500D01*
G75*
G02*
X138997500Y-95044000I-87500J0D01*
G01*
X138197500Y-95044000D01*
G75*
G02*
X138110000Y-94956500I0J87500D01*
G01*
G37*
G36*
G01*
X138110000Y-95456500D02*
X138110000Y-95281500D01*
G75*
G02*
X138197500Y-95194000I87500J0D01*
G01*
X138997500Y-95194000D01*
G75*
G02*
X139085000Y-95281500I0J-87500D01*
G01*
X139085000Y-95456500D01*
G75*
G02*
X138997500Y-95544000I-87500J0D01*
G01*
X138197500Y-95544000D01*
G75*
G02*
X138110000Y-95456500I0J87500D01*
G01*
G37*
G36*
G01*
X138110000Y-95956500D02*
X138110000Y-95781500D01*
G75*
G02*
X138197500Y-95694000I87500J0D01*
G01*
X138997500Y-95694000D01*
G75*
G02*
X139085000Y-95781500I0J-87500D01*
G01*
X139085000Y-95956500D01*
G75*
G02*
X138997500Y-96044000I-87500J0D01*
G01*
X138197500Y-96044000D01*
G75*
G02*
X138110000Y-95956500I0J87500D01*
G01*
G37*
G36*
G01*
X135235000Y-95956500D02*
X135235000Y-95781500D01*
G75*
G02*
X135322500Y-95694000I87500J0D01*
G01*
X136122500Y-95694000D01*
G75*
G02*
X136210000Y-95781500I0J-87500D01*
G01*
X136210000Y-95956500D01*
G75*
G02*
X136122500Y-96044000I-87500J0D01*
G01*
X135322500Y-96044000D01*
G75*
G02*
X135235000Y-95956500I0J87500D01*
G01*
G37*
G36*
G01*
X135235000Y-95456500D02*
X135235000Y-95281500D01*
G75*
G02*
X135322500Y-95194000I87500J0D01*
G01*
X136122500Y-95194000D01*
G75*
G02*
X136210000Y-95281500I0J-87500D01*
G01*
X136210000Y-95456500D01*
G75*
G02*
X136122500Y-95544000I-87500J0D01*
G01*
X135322500Y-95544000D01*
G75*
G02*
X135235000Y-95456500I0J87500D01*
G01*
G37*
G36*
G01*
X135235000Y-94956500D02*
X135235000Y-94781500D01*
G75*
G02*
X135322500Y-94694000I87500J0D01*
G01*
X136122500Y-94694000D01*
G75*
G02*
X136210000Y-94781500I0J-87500D01*
G01*
X136210000Y-94956500D01*
G75*
G02*
X136122500Y-95044000I-87500J0D01*
G01*
X135322500Y-95044000D01*
G75*
G02*
X135235000Y-94956500I0J87500D01*
G01*
G37*
G36*
G01*
X135235000Y-94456500D02*
X135235000Y-94281500D01*
G75*
G02*
X135322500Y-94194000I87500J0D01*
G01*
X136122500Y-94194000D01*
G75*
G02*
X136210000Y-94281500I0J-87500D01*
G01*
X136210000Y-94456500D01*
G75*
G02*
X136122500Y-94544000I-87500J0D01*
G01*
X135322500Y-94544000D01*
G75*
G02*
X135235000Y-94456500I0J87500D01*
G01*
G37*
G36*
G01*
X135235000Y-93956500D02*
X135235000Y-93781500D01*
G75*
G02*
X135322500Y-93694000I87500J0D01*
G01*
X136122500Y-93694000D01*
G75*
G02*
X136210000Y-93781500I0J-87500D01*
G01*
X136210000Y-93956500D01*
G75*
G02*
X136122500Y-94044000I-87500J0D01*
G01*
X135322500Y-94044000D01*
G75*
G02*
X135235000Y-93956500I0J87500D01*
G01*
G37*
%TD*%
D11*
%TO.C,U1*%
X129701000Y-95675000D03*
X129051000Y-95675000D03*
X128401000Y-95675000D03*
X127751000Y-95675000D03*
X127101000Y-95675000D03*
X126451000Y-95675000D03*
X125801000Y-95675000D03*
X125151000Y-95675000D03*
X124501000Y-95675000D03*
X123851000Y-95675000D03*
X123201000Y-95675000D03*
X122551000Y-95675000D03*
X121901000Y-95675000D03*
X121251000Y-95675000D03*
X121251000Y-88475000D03*
X121901000Y-88475000D03*
X122551000Y-88475000D03*
X123201000Y-88475000D03*
X123851000Y-88475000D03*
X124501000Y-88475000D03*
X125151000Y-88475000D03*
X125801000Y-88475000D03*
X126451000Y-88475000D03*
X127101000Y-88475000D03*
X127751000Y-88475000D03*
X128401000Y-88475000D03*
X129051000Y-88475000D03*
X129701000Y-88475000D03*
%TD*%
%TO.C,R2*%
G36*
G01*
X114272750Y-88539500D02*
X114835250Y-88539500D01*
G75*
G02*
X115079000Y-88783250I0J-243750D01*
G01*
X115079000Y-89270750D01*
G75*
G02*
X114835250Y-89514500I-243750J0D01*
G01*
X114272750Y-89514500D01*
G75*
G02*
X114029000Y-89270750I0J243750D01*
G01*
X114029000Y-88783250D01*
G75*
G02*
X114272750Y-88539500I243750J0D01*
G01*
G37*
G36*
G01*
X114272750Y-86964500D02*
X114835250Y-86964500D01*
G75*
G02*
X115079000Y-87208250I0J-243750D01*
G01*
X115079000Y-87695750D01*
G75*
G02*
X114835250Y-87939500I-243750J0D01*
G01*
X114272750Y-87939500D01*
G75*
G02*
X114029000Y-87695750I0J243750D01*
G01*
X114029000Y-87208250D01*
G75*
G02*
X114272750Y-86964500I243750J0D01*
G01*
G37*
%TD*%
%TO.C,R1*%
G36*
G01*
X116050750Y-88539500D02*
X116613250Y-88539500D01*
G75*
G02*
X116857000Y-88783250I0J-243750D01*
G01*
X116857000Y-89270750D01*
G75*
G02*
X116613250Y-89514500I-243750J0D01*
G01*
X116050750Y-89514500D01*
G75*
G02*
X115807000Y-89270750I0J243750D01*
G01*
X115807000Y-88783250D01*
G75*
G02*
X116050750Y-88539500I243750J0D01*
G01*
G37*
G36*
G01*
X116050750Y-86964500D02*
X116613250Y-86964500D01*
G75*
G02*
X116857000Y-87208250I0J-243750D01*
G01*
X116857000Y-87695750D01*
G75*
G02*
X116613250Y-87939500I-243750J0D01*
G01*
X116050750Y-87939500D01*
G75*
G02*
X115807000Y-87695750I0J243750D01*
G01*
X115807000Y-87208250D01*
G75*
G02*
X116050750Y-86964500I243750J0D01*
G01*
G37*
%TD*%
%TO.C,J6*%
G36*
G01*
X156180000Y-109599130D02*
X156180000Y-106720870D01*
G75*
G02*
X156440870Y-106460000I260870J0D01*
G01*
X158319130Y-106460000D01*
G75*
G02*
X158580000Y-106720870I0J-260870D01*
G01*
X158580000Y-109599130D01*
G75*
G02*
X158319130Y-109860000I-260870J0D01*
G01*
X156440870Y-109860000D01*
G75*
G02*
X156180000Y-109599130I0J260870D01*
G01*
G37*
G36*
G01*
X141140000Y-109599130D02*
X141140000Y-106720870D01*
G75*
G02*
X141400870Y-106460000I260870J0D01*
G01*
X143279130Y-106460000D01*
G75*
G02*
X143540000Y-106720870I0J-260870D01*
G01*
X143540000Y-109599130D01*
G75*
G02*
X143279130Y-109860000I-260870J0D01*
G01*
X141400870Y-109860000D01*
G75*
G02*
X141140000Y-109599130I0J260870D01*
G01*
G37*
G36*
G01*
X152210000Y-103889168D02*
X152210000Y-101230832D01*
G75*
G02*
X152480832Y-100960000I270832J0D01*
G01*
X153239168Y-100960000D01*
G75*
G02*
X153510000Y-101230832I0J-270832D01*
G01*
X153510000Y-103889168D01*
G75*
G02*
X153239168Y-104160000I-270832J0D01*
G01*
X152480832Y-104160000D01*
G75*
G02*
X152210000Y-103889168I0J270832D01*
G01*
G37*
G36*
G01*
X150210000Y-103889168D02*
X150210000Y-101230832D01*
G75*
G02*
X150480832Y-100960000I270832J0D01*
G01*
X151239168Y-100960000D01*
G75*
G02*
X151510000Y-101230832I0J-270832D01*
G01*
X151510000Y-103889168D01*
G75*
G02*
X151239168Y-104160000I-270832J0D01*
G01*
X150480832Y-104160000D01*
G75*
G02*
X150210000Y-103889168I0J270832D01*
G01*
G37*
G36*
G01*
X148210000Y-103889168D02*
X148210000Y-101230832D01*
G75*
G02*
X148480832Y-100960000I270832J0D01*
G01*
X149239168Y-100960000D01*
G75*
G02*
X149510000Y-101230832I0J-270832D01*
G01*
X149510000Y-103889168D01*
G75*
G02*
X149239168Y-104160000I-270832J0D01*
G01*
X148480832Y-104160000D01*
G75*
G02*
X148210000Y-103889168I0J270832D01*
G01*
G37*
G36*
G01*
X146210000Y-103889168D02*
X146210000Y-101230832D01*
G75*
G02*
X146480832Y-100960000I270832J0D01*
G01*
X147239168Y-100960000D01*
G75*
G02*
X147510000Y-101230832I0J-270832D01*
G01*
X147510000Y-103889168D01*
G75*
G02*
X147239168Y-104160000I-270832J0D01*
G01*
X146480832Y-104160000D01*
G75*
G02*
X146210000Y-103889168I0J270832D01*
G01*
G37*
%TD*%
%TO.C,J5*%
G36*
G01*
X135733000Y-109599130D02*
X135733000Y-106720870D01*
G75*
G02*
X135993870Y-106460000I260870J0D01*
G01*
X137872130Y-106460000D01*
G75*
G02*
X138133000Y-106720870I0J-260870D01*
G01*
X138133000Y-109599130D01*
G75*
G02*
X137872130Y-109860000I-260870J0D01*
G01*
X135993870Y-109860000D01*
G75*
G02*
X135733000Y-109599130I0J260870D01*
G01*
G37*
G36*
G01*
X120693000Y-109599130D02*
X120693000Y-106720870D01*
G75*
G02*
X120953870Y-106460000I260870J0D01*
G01*
X122832130Y-106460000D01*
G75*
G02*
X123093000Y-106720870I0J-260870D01*
G01*
X123093000Y-109599130D01*
G75*
G02*
X122832130Y-109860000I-260870J0D01*
G01*
X120953870Y-109860000D01*
G75*
G02*
X120693000Y-109599130I0J260870D01*
G01*
G37*
G36*
G01*
X131763000Y-103889168D02*
X131763000Y-101230832D01*
G75*
G02*
X132033832Y-100960000I270832J0D01*
G01*
X132792168Y-100960000D01*
G75*
G02*
X133063000Y-101230832I0J-270832D01*
G01*
X133063000Y-103889168D01*
G75*
G02*
X132792168Y-104160000I-270832J0D01*
G01*
X132033832Y-104160000D01*
G75*
G02*
X131763000Y-103889168I0J270832D01*
G01*
G37*
G36*
G01*
X129763000Y-103889168D02*
X129763000Y-101230832D01*
G75*
G02*
X130033832Y-100960000I270832J0D01*
G01*
X130792168Y-100960000D01*
G75*
G02*
X131063000Y-101230832I0J-270832D01*
G01*
X131063000Y-103889168D01*
G75*
G02*
X130792168Y-104160000I-270832J0D01*
G01*
X130033832Y-104160000D01*
G75*
G02*
X129763000Y-103889168I0J270832D01*
G01*
G37*
G36*
G01*
X127763000Y-103889168D02*
X127763000Y-101230832D01*
G75*
G02*
X128033832Y-100960000I270832J0D01*
G01*
X128792168Y-100960000D01*
G75*
G02*
X129063000Y-101230832I0J-270832D01*
G01*
X129063000Y-103889168D01*
G75*
G02*
X128792168Y-104160000I-270832J0D01*
G01*
X128033832Y-104160000D01*
G75*
G02*
X127763000Y-103889168I0J270832D01*
G01*
G37*
G36*
G01*
X125763000Y-103889168D02*
X125763000Y-101230832D01*
G75*
G02*
X126033832Y-100960000I270832J0D01*
G01*
X126792168Y-100960000D01*
G75*
G02*
X127063000Y-101230832I0J-270832D01*
G01*
X127063000Y-103889168D01*
G75*
G02*
X126792168Y-104160000I-270832J0D01*
G01*
X126033832Y-104160000D01*
G75*
G02*
X125763000Y-103889168I0J270832D01*
G01*
G37*
%TD*%
D12*
%TO.C,J4*%
X108957000Y-89209000D03*
X108957000Y-99259000D03*
D13*
X111252000Y-97359000D03*
X111252000Y-96109000D03*
X111252000Y-94859000D03*
X111252000Y-93609000D03*
X111252000Y-92359000D03*
X111252000Y-91109000D03*
%TD*%
D14*
%TO.C,J3*%
X146757000Y-79493000D03*
X136707000Y-79493000D03*
D15*
X138607000Y-81788000D03*
X139857000Y-81788000D03*
X141107000Y-81788000D03*
X142357000Y-81788000D03*
X143607000Y-81788000D03*
X144857000Y-81788000D03*
%TD*%
D16*
%TO.C,J1*%
X114554000Y-98806000D03*
X114554000Y-101346000D03*
X114554000Y-103886000D03*
X114554000Y-106426000D03*
D17*
X114554000Y-108966000D03*
%TD*%
D18*
%TO.C,D1*%
X116304000Y-91440000D03*
X116304000Y-90440000D03*
X114554000Y-90440000D03*
X114554000Y-91440000D03*
%TD*%
%TO.C,C18*%
G36*
G01*
X150721750Y-98725000D02*
X151284250Y-98725000D01*
G75*
G02*
X151528000Y-98968750I0J-243750D01*
G01*
X151528000Y-99456250D01*
G75*
G02*
X151284250Y-99700000I-243750J0D01*
G01*
X150721750Y-99700000D01*
G75*
G02*
X150478000Y-99456250I0J243750D01*
G01*
X150478000Y-98968750D01*
G75*
G02*
X150721750Y-98725000I243750J0D01*
G01*
G37*
G36*
G01*
X150721750Y-97150000D02*
X151284250Y-97150000D01*
G75*
G02*
X151528000Y-97393750I0J-243750D01*
G01*
X151528000Y-97881250D01*
G75*
G02*
X151284250Y-98125000I-243750J0D01*
G01*
X150721750Y-98125000D01*
G75*
G02*
X150478000Y-97881250I0J243750D01*
G01*
X150478000Y-97393750D01*
G75*
G02*
X150721750Y-97150000I243750J0D01*
G01*
G37*
%TD*%
%TO.C,C17*%
G36*
G01*
X135481750Y-98725000D02*
X136044250Y-98725000D01*
G75*
G02*
X136288000Y-98968750I0J-243750D01*
G01*
X136288000Y-99456250D01*
G75*
G02*
X136044250Y-99700000I-243750J0D01*
G01*
X135481750Y-99700000D01*
G75*
G02*
X135238000Y-99456250I0J243750D01*
G01*
X135238000Y-98968750D01*
G75*
G02*
X135481750Y-98725000I243750J0D01*
G01*
G37*
G36*
G01*
X135481750Y-97150000D02*
X136044250Y-97150000D01*
G75*
G02*
X136288000Y-97393750I0J-243750D01*
G01*
X136288000Y-97881250D01*
G75*
G02*
X136044250Y-98125000I-243750J0D01*
G01*
X135481750Y-98125000D01*
G75*
G02*
X135238000Y-97881250I0J243750D01*
G01*
X135238000Y-97393750D01*
G75*
G02*
X135481750Y-97150000I243750J0D01*
G01*
G37*
%TD*%
%TO.C,C16*%
G36*
G01*
X153515750Y-98725000D02*
X154078250Y-98725000D01*
G75*
G02*
X154322000Y-98968750I0J-243750D01*
G01*
X154322000Y-99456250D01*
G75*
G02*
X154078250Y-99700000I-243750J0D01*
G01*
X153515750Y-99700000D01*
G75*
G02*
X153272000Y-99456250I0J243750D01*
G01*
X153272000Y-98968750D01*
G75*
G02*
X153515750Y-98725000I243750J0D01*
G01*
G37*
G36*
G01*
X153515750Y-97150000D02*
X154078250Y-97150000D01*
G75*
G02*
X154322000Y-97393750I0J-243750D01*
G01*
X154322000Y-97881250D01*
G75*
G02*
X154078250Y-98125000I-243750J0D01*
G01*
X153515750Y-98125000D01*
G75*
G02*
X153272000Y-97881250I0J243750D01*
G01*
X153272000Y-97393750D01*
G75*
G02*
X153515750Y-97150000I243750J0D01*
G01*
G37*
%TD*%
%TO.C,C15*%
G36*
G01*
X138275750Y-98725000D02*
X138838250Y-98725000D01*
G75*
G02*
X139082000Y-98968750I0J-243750D01*
G01*
X139082000Y-99456250D01*
G75*
G02*
X138838250Y-99700000I-243750J0D01*
G01*
X138275750Y-99700000D01*
G75*
G02*
X138032000Y-99456250I0J243750D01*
G01*
X138032000Y-98968750D01*
G75*
G02*
X138275750Y-98725000I243750J0D01*
G01*
G37*
G36*
G01*
X138275750Y-97150000D02*
X138838250Y-97150000D01*
G75*
G02*
X139082000Y-97393750I0J-243750D01*
G01*
X139082000Y-97881250D01*
G75*
G02*
X138838250Y-98125000I-243750J0D01*
G01*
X138275750Y-98125000D01*
G75*
G02*
X138032000Y-97881250I0J243750D01*
G01*
X138032000Y-97393750D01*
G75*
G02*
X138275750Y-97150000I243750J0D01*
G01*
G37*
%TD*%
%TO.C,C14*%
G36*
G01*
X158341750Y-98598000D02*
X158904250Y-98598000D01*
G75*
G02*
X159148000Y-98841750I0J-243750D01*
G01*
X159148000Y-99329250D01*
G75*
G02*
X158904250Y-99573000I-243750J0D01*
G01*
X158341750Y-99573000D01*
G75*
G02*
X158098000Y-99329250I0J243750D01*
G01*
X158098000Y-98841750D01*
G75*
G02*
X158341750Y-98598000I243750J0D01*
G01*
G37*
G36*
G01*
X158341750Y-97023000D02*
X158904250Y-97023000D01*
G75*
G02*
X159148000Y-97266750I0J-243750D01*
G01*
X159148000Y-97754250D01*
G75*
G02*
X158904250Y-97998000I-243750J0D01*
G01*
X158341750Y-97998000D01*
G75*
G02*
X158098000Y-97754250I0J243750D01*
G01*
X158098000Y-97266750D01*
G75*
G02*
X158341750Y-97023000I243750J0D01*
G01*
G37*
%TD*%
%TO.C,C13*%
G36*
G01*
X143101750Y-98725000D02*
X143664250Y-98725000D01*
G75*
G02*
X143908000Y-98968750I0J-243750D01*
G01*
X143908000Y-99456250D01*
G75*
G02*
X143664250Y-99700000I-243750J0D01*
G01*
X143101750Y-99700000D01*
G75*
G02*
X142858000Y-99456250I0J243750D01*
G01*
X142858000Y-98968750D01*
G75*
G02*
X143101750Y-98725000I243750J0D01*
G01*
G37*
G36*
G01*
X143101750Y-97150000D02*
X143664250Y-97150000D01*
G75*
G02*
X143908000Y-97393750I0J-243750D01*
G01*
X143908000Y-97881250D01*
G75*
G02*
X143664250Y-98125000I-243750J0D01*
G01*
X143101750Y-98125000D01*
G75*
G02*
X142858000Y-97881250I0J243750D01*
G01*
X142858000Y-97393750D01*
G75*
G02*
X143101750Y-97150000I243750J0D01*
G01*
G37*
%TD*%
%TO.C,C12*%
G36*
G01*
X161135750Y-98598000D02*
X161698250Y-98598000D01*
G75*
G02*
X161942000Y-98841750I0J-243750D01*
G01*
X161942000Y-99329250D01*
G75*
G02*
X161698250Y-99573000I-243750J0D01*
G01*
X161135750Y-99573000D01*
G75*
G02*
X160892000Y-99329250I0J243750D01*
G01*
X160892000Y-98841750D01*
G75*
G02*
X161135750Y-98598000I243750J0D01*
G01*
G37*
G36*
G01*
X161135750Y-97023000D02*
X161698250Y-97023000D01*
G75*
G02*
X161942000Y-97266750I0J-243750D01*
G01*
X161942000Y-97754250D01*
G75*
G02*
X161698250Y-97998000I-243750J0D01*
G01*
X161135750Y-97998000D01*
G75*
G02*
X160892000Y-97754250I0J243750D01*
G01*
X160892000Y-97266750D01*
G75*
G02*
X161135750Y-97023000I243750J0D01*
G01*
G37*
%TD*%
%TO.C,C11*%
G36*
G01*
X145895750Y-98725000D02*
X146458250Y-98725000D01*
G75*
G02*
X146702000Y-98968750I0J-243750D01*
G01*
X146702000Y-99456250D01*
G75*
G02*
X146458250Y-99700000I-243750J0D01*
G01*
X145895750Y-99700000D01*
G75*
G02*
X145652000Y-99456250I0J243750D01*
G01*
X145652000Y-98968750D01*
G75*
G02*
X145895750Y-98725000I243750J0D01*
G01*
G37*
G36*
G01*
X145895750Y-97150000D02*
X146458250Y-97150000D01*
G75*
G02*
X146702000Y-97393750I0J-243750D01*
G01*
X146702000Y-97881250D01*
G75*
G02*
X146458250Y-98125000I-243750J0D01*
G01*
X145895750Y-98125000D01*
G75*
G02*
X145652000Y-97881250I0J243750D01*
G01*
X145652000Y-97393750D01*
G75*
G02*
X145895750Y-97150000I243750J0D01*
G01*
G37*
%TD*%
%TO.C,C10*%
G36*
G01*
X161008750Y-103144500D02*
X161571250Y-103144500D01*
G75*
G02*
X161815000Y-103388250I0J-243750D01*
G01*
X161815000Y-103875750D01*
G75*
G02*
X161571250Y-104119500I-243750J0D01*
G01*
X161008750Y-104119500D01*
G75*
G02*
X160765000Y-103875750I0J243750D01*
G01*
X160765000Y-103388250D01*
G75*
G02*
X161008750Y-103144500I243750J0D01*
G01*
G37*
G36*
G01*
X161008750Y-101569500D02*
X161571250Y-101569500D01*
G75*
G02*
X161815000Y-101813250I0J-243750D01*
G01*
X161815000Y-102300750D01*
G75*
G02*
X161571250Y-102544500I-243750J0D01*
G01*
X161008750Y-102544500D01*
G75*
G02*
X160765000Y-102300750I0J243750D01*
G01*
X160765000Y-101813250D01*
G75*
G02*
X161008750Y-101569500I243750J0D01*
G01*
G37*
%TD*%
%TO.C,C9*%
G36*
G01*
X162840750Y-103221500D02*
X163803250Y-103221500D01*
G75*
G02*
X164072000Y-103490250I0J-268750D01*
G01*
X164072000Y-104027750D01*
G75*
G02*
X163803250Y-104296500I-268750J0D01*
G01*
X162840750Y-104296500D01*
G75*
G02*
X162572000Y-104027750I0J268750D01*
G01*
X162572000Y-103490250D01*
G75*
G02*
X162840750Y-103221500I268750J0D01*
G01*
G37*
G36*
G01*
X162840750Y-101346500D02*
X163803250Y-101346500D01*
G75*
G02*
X164072000Y-101615250I0J-268750D01*
G01*
X164072000Y-102152750D01*
G75*
G02*
X163803250Y-102421500I-268750J0D01*
G01*
X162840750Y-102421500D01*
G75*
G02*
X162572000Y-102152750I0J268750D01*
G01*
X162572000Y-101615250D01*
G75*
G02*
X162840750Y-101346500I268750J0D01*
G01*
G37*
%TD*%
%TO.C,C8*%
G36*
G01*
X158602500Y-91285750D02*
X158602500Y-91848250D01*
G75*
G02*
X158358750Y-92092000I-243750J0D01*
G01*
X157871250Y-92092000D01*
G75*
G02*
X157627500Y-91848250I0J243750D01*
G01*
X157627500Y-91285750D01*
G75*
G02*
X157871250Y-91042000I243750J0D01*
G01*
X158358750Y-91042000D01*
G75*
G02*
X158602500Y-91285750I0J-243750D01*
G01*
G37*
G36*
G01*
X160177500Y-91285750D02*
X160177500Y-91848250D01*
G75*
G02*
X159933750Y-92092000I-243750J0D01*
G01*
X159446250Y-92092000D01*
G75*
G02*
X159202500Y-91848250I0J243750D01*
G01*
X159202500Y-91285750D01*
G75*
G02*
X159446250Y-91042000I243750J0D01*
G01*
X159933750Y-91042000D01*
G75*
G02*
X160177500Y-91285750I0J-243750D01*
G01*
G37*
%TD*%
%TO.C,C7*%
G36*
G01*
X155928750Y-97937500D02*
X156491250Y-97937500D01*
G75*
G02*
X156735000Y-98181250I0J-243750D01*
G01*
X156735000Y-98668750D01*
G75*
G02*
X156491250Y-98912500I-243750J0D01*
G01*
X155928750Y-98912500D01*
G75*
G02*
X155685000Y-98668750I0J243750D01*
G01*
X155685000Y-98181250D01*
G75*
G02*
X155928750Y-97937500I243750J0D01*
G01*
G37*
G36*
G01*
X155928750Y-96362500D02*
X156491250Y-96362500D01*
G75*
G02*
X156735000Y-96606250I0J-243750D01*
G01*
X156735000Y-97093750D01*
G75*
G02*
X156491250Y-97337500I-243750J0D01*
G01*
X155928750Y-97337500D01*
G75*
G02*
X155685000Y-97093750I0J243750D01*
G01*
X155685000Y-96606250D01*
G75*
G02*
X155928750Y-96362500I243750J0D01*
G01*
G37*
%TD*%
%TO.C,C6*%
G36*
G01*
X148181750Y-97836000D02*
X148744250Y-97836000D01*
G75*
G02*
X148988000Y-98079750I0J-243750D01*
G01*
X148988000Y-98567250D01*
G75*
G02*
X148744250Y-98811000I-243750J0D01*
G01*
X148181750Y-98811000D01*
G75*
G02*
X147938000Y-98567250I0J243750D01*
G01*
X147938000Y-98079750D01*
G75*
G02*
X148181750Y-97836000I243750J0D01*
G01*
G37*
G36*
G01*
X148181750Y-96261000D02*
X148744250Y-96261000D01*
G75*
G02*
X148988000Y-96504750I0J-243750D01*
G01*
X148988000Y-96992250D01*
G75*
G02*
X148744250Y-97236000I-243750J0D01*
G01*
X148181750Y-97236000D01*
G75*
G02*
X147938000Y-96992250I0J243750D01*
G01*
X147938000Y-96504750D01*
G75*
G02*
X148181750Y-96261000I243750J0D01*
G01*
G37*
%TD*%
%TO.C,C5*%
G36*
G01*
X140561750Y-97734500D02*
X141124250Y-97734500D01*
G75*
G02*
X141368000Y-97978250I0J-243750D01*
G01*
X141368000Y-98465750D01*
G75*
G02*
X141124250Y-98709500I-243750J0D01*
G01*
X140561750Y-98709500D01*
G75*
G02*
X140318000Y-98465750I0J243750D01*
G01*
X140318000Y-97978250D01*
G75*
G02*
X140561750Y-97734500I243750J0D01*
G01*
G37*
G36*
G01*
X140561750Y-96159500D02*
X141124250Y-96159500D01*
G75*
G02*
X141368000Y-96403250I0J-243750D01*
G01*
X141368000Y-96890750D01*
G75*
G02*
X141124250Y-97134500I-243750J0D01*
G01*
X140561750Y-97134500D01*
G75*
G02*
X140318000Y-96890750I0J243750D01*
G01*
X140318000Y-96403250D01*
G75*
G02*
X140561750Y-96159500I243750J0D01*
G01*
G37*
%TD*%
%TO.C,C4*%
G36*
G01*
X117583000Y-92863750D02*
X117583000Y-93826250D01*
G75*
G02*
X117314250Y-94095000I-268750J0D01*
G01*
X116776750Y-94095000D01*
G75*
G02*
X116508000Y-93826250I0J268750D01*
G01*
X116508000Y-92863750D01*
G75*
G02*
X116776750Y-92595000I268750J0D01*
G01*
X117314250Y-92595000D01*
G75*
G02*
X117583000Y-92863750I0J-268750D01*
G01*
G37*
G36*
G01*
X119458000Y-92863750D02*
X119458000Y-93826250D01*
G75*
G02*
X119189250Y-94095000I-268750J0D01*
G01*
X118651750Y-94095000D01*
G75*
G02*
X118383000Y-93826250I0J268750D01*
G01*
X118383000Y-92863750D01*
G75*
G02*
X118651750Y-92595000I268750J0D01*
G01*
X119189250Y-92595000D01*
G75*
G02*
X119458000Y-92863750I0J-268750D01*
G01*
G37*
%TD*%
%TO.C,C1*%
G36*
G01*
X133125500Y-80925750D02*
X133125500Y-81888250D01*
G75*
G02*
X132856750Y-82157000I-268750J0D01*
G01*
X132319250Y-82157000D01*
G75*
G02*
X132050500Y-81888250I0J268750D01*
G01*
X132050500Y-80925750D01*
G75*
G02*
X132319250Y-80657000I268750J0D01*
G01*
X132856750Y-80657000D01*
G75*
G02*
X133125500Y-80925750I0J-268750D01*
G01*
G37*
G36*
G01*
X135000500Y-80925750D02*
X135000500Y-81888250D01*
G75*
G02*
X134731750Y-82157000I-268750J0D01*
G01*
X134194250Y-82157000D01*
G75*
G02*
X133925500Y-81888250I0J268750D01*
G01*
X133925500Y-80925750D01*
G75*
G02*
X134194250Y-80657000I268750J0D01*
G01*
X134731750Y-80657000D01*
G75*
G02*
X135000500Y-80925750I0J-268750D01*
G01*
G37*
%TD*%
D19*
%TO.C,REF\u002A\u002A*%
X170307000Y-81026000D03*
%TD*%
%TO.C,GND*%
X166878000Y-89535000D03*
%TD*%
%TO.C,GND*%
X170307000Y-107188000D03*
%TD*%
%TO.C,+12V*%
X166878000Y-98679000D03*
%TD*%
%TO.C,REF\u002A\u002A*%
X108966000Y-81026000D03*
%TD*%
%TO.C,REF\u002A\u002A*%
X108966000Y-107188000D03*
%TD*%
M02*
