M48
; DRILL file {KiCad 5.1.6-1.fc32} date Fri Jul  3 14:53:51 2020
; FORMAT={-:-/ absolute / inch / decimal}
; #@! TF.CreationDate,2020-07-03T14:53:51+01:00
; #@! TF.GenerationSoftware,Kicad,Pcbnew,5.1.6-1.fc32
; #@! TF.FileFunction,Plated,1,2,PTH
FMAT,2
INCH
T1C0.0157
T2C0.0394
T3C0.1260
%
G90
G05
T1
X4.6081Y-3.675
X4.6471Y-3.53
X4.764Y-3.85
X4.849Y-3.5403
X4.95Y-3.57
X5.135Y-3.29
X5.14Y-3.495
X5.345Y-3.905
X5.45Y-3.44
X5.45Y-3.6435
X5.45Y-3.685
X5.455Y-3.22
X5.455Y-3.905
X5.505Y-3.935
X5.5062Y-3.3412
X5.5062Y-3.735
X5.5439Y-3.8061
X5.545Y-3.87
X5.555Y-3.5065
X5.5554Y-3.3404
X5.6046Y-3.5054
X5.605Y-3.365
X5.645Y-3.905
X5.655Y-3.41
X5.705Y-3.64
X5.71Y-3.5065
X5.74Y-3.96
X5.755Y-3.905
X5.8109Y-3.6994
X5.8285Y-3.815
X5.845Y-3.87
X5.99Y-3.66
X5.995Y-3.855
X6.055Y-3.905
X6.1042Y-3.6858
X6.11Y-3.9075
X6.15Y-3.78
X6.15Y-3.875
X6.1572Y-3.6078
X6.2072Y-3.6578
X6.225Y-3.605
X6.2958Y-3.8508
X6.325Y-3.67
X6.365Y-3.6065
X6.3998Y-3.6802
X6.4Y-3.875
X6.435Y-4.13
T2
X4.51Y-3.89
X4.51Y-3.99
X4.51Y-4.09
X4.51Y-4.19
X4.51Y-4.29
T3
X6.705Y-4.22
X6.57Y-3.525
X6.57Y-3.885
X6.705Y-3.19
X4.29Y-3.19
X4.29Y-4.22
T0
M30
