%TF.GenerationSoftware,KiCad,Pcbnew,5.1.8-5.fc33*%
%TF.CreationDate,2020-12-26T13:36:50+00:00*%
%TF.ProjectId,breakout,62726561-6b6f-4757-942e-6b696361645f,rev?*%
%TF.SameCoordinates,Original*%
%TF.FileFunction,Legend,Bot*%
%TF.FilePolarity,Positive*%
%FSLAX46Y46*%
G04 Gerber Fmt 4.6, Leading zero omitted, Abs format (unit mm)*
G04 Created by KiCad (PCBNEW 5.1.8-5.fc33) date 2020-12-26 13:36:50*
%MOMM*%
%LPD*%
G01*
G04 APERTURE LIST*
%ADD10C,0.300000*%
%ADD11C,0.120000*%
%ADD12C,0.150000*%
G04 APERTURE END LIST*
D10*
X164514285Y-118710714D02*
X164585714Y-118782142D01*
X164800000Y-118853571D01*
X164942857Y-118853571D01*
X165157142Y-118782142D01*
X165300000Y-118639285D01*
X165371428Y-118496428D01*
X165442857Y-118210714D01*
X165442857Y-117996428D01*
X165371428Y-117710714D01*
X165300000Y-117567857D01*
X165157142Y-117425000D01*
X164942857Y-117353571D01*
X164800000Y-117353571D01*
X164585714Y-117425000D01*
X164514285Y-117496428D01*
X163657142Y-118853571D02*
X163800000Y-118782142D01*
X163871428Y-118710714D01*
X163942857Y-118567857D01*
X163942857Y-118139285D01*
X163871428Y-117996428D01*
X163800000Y-117925000D01*
X163657142Y-117853571D01*
X163442857Y-117853571D01*
X163300000Y-117925000D01*
X163228571Y-117996428D01*
X163157142Y-118139285D01*
X163157142Y-118567857D01*
X163228571Y-118710714D01*
X163300000Y-118782142D01*
X163442857Y-118853571D01*
X163657142Y-118853571D01*
X162514285Y-117853571D02*
X162514285Y-118853571D01*
X162514285Y-117996428D02*
X162442857Y-117925000D01*
X162300000Y-117853571D01*
X162085714Y-117853571D01*
X161942857Y-117925000D01*
X161871428Y-118067857D01*
X161871428Y-118853571D01*
X161157142Y-117853571D02*
X161157142Y-118853571D01*
X161157142Y-117996428D02*
X161085714Y-117925000D01*
X160942857Y-117853571D01*
X160728571Y-117853571D01*
X160585714Y-117925000D01*
X160514285Y-118067857D01*
X160514285Y-118853571D01*
X159228571Y-118782142D02*
X159371428Y-118853571D01*
X159657142Y-118853571D01*
X159800000Y-118782142D01*
X159871428Y-118639285D01*
X159871428Y-118067857D01*
X159800000Y-117925000D01*
X159657142Y-117853571D01*
X159371428Y-117853571D01*
X159228571Y-117925000D01*
X159157142Y-118067857D01*
X159157142Y-118210714D01*
X159871428Y-118353571D01*
X157871428Y-118782142D02*
X158014285Y-118853571D01*
X158300000Y-118853571D01*
X158442857Y-118782142D01*
X158514285Y-118710714D01*
X158585714Y-118567857D01*
X158585714Y-118139285D01*
X158514285Y-117996428D01*
X158442857Y-117925000D01*
X158300000Y-117853571D01*
X158014285Y-117853571D01*
X157871428Y-117925000D01*
X157442857Y-117853571D02*
X156871428Y-117853571D01*
X157228571Y-117353571D02*
X157228571Y-118639285D01*
X157157142Y-118782142D01*
X157014285Y-118853571D01*
X156871428Y-118853571D01*
X156157142Y-118853571D02*
X156300000Y-118782142D01*
X156371428Y-118710714D01*
X156442857Y-118567857D01*
X156442857Y-118139285D01*
X156371428Y-117996428D01*
X156300000Y-117925000D01*
X156157142Y-117853571D01*
X155942857Y-117853571D01*
X155800000Y-117925000D01*
X155728571Y-117996428D01*
X155657142Y-118139285D01*
X155657142Y-118567857D01*
X155728571Y-118710714D01*
X155800000Y-118782142D01*
X155942857Y-118853571D01*
X156157142Y-118853571D01*
X155014285Y-118853571D02*
X155014285Y-117853571D01*
X155014285Y-118139285D02*
X154942857Y-117996428D01*
X154871428Y-117925000D01*
X154728571Y-117853571D01*
X154585714Y-117853571D01*
X152942857Y-118853571D02*
X152942857Y-117353571D01*
X152942857Y-117925000D02*
X152800000Y-117853571D01*
X152514285Y-117853571D01*
X152371428Y-117925000D01*
X152300000Y-117996428D01*
X152228571Y-118139285D01*
X152228571Y-118567857D01*
X152300000Y-118710714D01*
X152371428Y-118782142D01*
X152514285Y-118853571D01*
X152800000Y-118853571D01*
X152942857Y-118782142D01*
X151371428Y-118853571D02*
X151514285Y-118782142D01*
X151585714Y-118710714D01*
X151657142Y-118567857D01*
X151657142Y-118139285D01*
X151585714Y-117996428D01*
X151514285Y-117925000D01*
X151371428Y-117853571D01*
X151157142Y-117853571D01*
X151014285Y-117925000D01*
X150942857Y-117996428D01*
X150871428Y-118139285D01*
X150871428Y-118567857D01*
X150942857Y-118710714D01*
X151014285Y-118782142D01*
X151157142Y-118853571D01*
X151371428Y-118853571D01*
X149585714Y-118853571D02*
X149585714Y-118067857D01*
X149657142Y-117925000D01*
X149800000Y-117853571D01*
X150085714Y-117853571D01*
X150228571Y-117925000D01*
X149585714Y-118782142D02*
X149728571Y-118853571D01*
X150085714Y-118853571D01*
X150228571Y-118782142D01*
X150300000Y-118639285D01*
X150300000Y-118496428D01*
X150228571Y-118353571D01*
X150085714Y-118282142D01*
X149728571Y-118282142D01*
X149585714Y-118210714D01*
X148871428Y-118853571D02*
X148871428Y-117853571D01*
X148871428Y-118139285D02*
X148800000Y-117996428D01*
X148728571Y-117925000D01*
X148585714Y-117853571D01*
X148442857Y-117853571D01*
X147300000Y-118853571D02*
X147300000Y-117353571D01*
X147300000Y-118782142D02*
X147442857Y-118853571D01*
X147728571Y-118853571D01*
X147871428Y-118782142D01*
X147942857Y-118710714D01*
X148014285Y-118567857D01*
X148014285Y-118139285D01*
X147942857Y-117996428D01*
X147871428Y-117925000D01*
X147728571Y-117853571D01*
X147442857Y-117853571D01*
X147300000Y-117925000D01*
X144800000Y-118853571D02*
X144800000Y-117353571D01*
X144800000Y-118782142D02*
X144942857Y-118853571D01*
X145228571Y-118853571D01*
X145371428Y-118782142D01*
X145442857Y-118710714D01*
X145514285Y-118567857D01*
X145514285Y-118139285D01*
X145442857Y-117996428D01*
X145371428Y-117925000D01*
X145228571Y-117853571D01*
X144942857Y-117853571D01*
X144800000Y-117925000D01*
X143514285Y-118782142D02*
X143657142Y-118853571D01*
X143942857Y-118853571D01*
X144085714Y-118782142D01*
X144157142Y-118639285D01*
X144157142Y-118067857D01*
X144085714Y-117925000D01*
X143942857Y-117853571D01*
X143657142Y-117853571D01*
X143514285Y-117925000D01*
X143442857Y-118067857D01*
X143442857Y-118210714D01*
X144157142Y-118353571D01*
X142871428Y-118782142D02*
X142728571Y-118853571D01*
X142442857Y-118853571D01*
X142300000Y-118782142D01*
X142228571Y-118639285D01*
X142228571Y-118567857D01*
X142300000Y-118425000D01*
X142442857Y-118353571D01*
X142657142Y-118353571D01*
X142800000Y-118282142D01*
X142871428Y-118139285D01*
X142871428Y-118067857D01*
X142800000Y-117925000D01*
X142657142Y-117853571D01*
X142442857Y-117853571D01*
X142300000Y-117925000D01*
X141585714Y-118853571D02*
X141585714Y-117853571D01*
X141585714Y-117353571D02*
X141657142Y-117425000D01*
X141585714Y-117496428D01*
X141514285Y-117425000D01*
X141585714Y-117353571D01*
X141585714Y-117496428D01*
X140228571Y-117853571D02*
X140228571Y-119067857D01*
X140300000Y-119210714D01*
X140371428Y-119282142D01*
X140514285Y-119353571D01*
X140728571Y-119353571D01*
X140871428Y-119282142D01*
X140228571Y-118782142D02*
X140371428Y-118853571D01*
X140657142Y-118853571D01*
X140800000Y-118782142D01*
X140871428Y-118710714D01*
X140942857Y-118567857D01*
X140942857Y-118139285D01*
X140871428Y-117996428D01*
X140800000Y-117925000D01*
X140657142Y-117853571D01*
X140371428Y-117853571D01*
X140228571Y-117925000D01*
X139514285Y-117853571D02*
X139514285Y-118853571D01*
X139514285Y-117996428D02*
X139442857Y-117925000D01*
X139300000Y-117853571D01*
X139085714Y-117853571D01*
X138942857Y-117925000D01*
X138871428Y-118067857D01*
X138871428Y-118853571D01*
X137585714Y-118782142D02*
X137728571Y-118853571D01*
X138014285Y-118853571D01*
X138157142Y-118782142D01*
X138228571Y-118639285D01*
X138228571Y-118067857D01*
X138157142Y-117925000D01*
X138014285Y-117853571D01*
X137728571Y-117853571D01*
X137585714Y-117925000D01*
X137514285Y-118067857D01*
X137514285Y-118210714D01*
X138228571Y-118353571D01*
X136228571Y-118853571D02*
X136228571Y-117353571D01*
X136228571Y-118782142D02*
X136371428Y-118853571D01*
X136657142Y-118853571D01*
X136800000Y-118782142D01*
X136871428Y-118710714D01*
X136942857Y-118567857D01*
X136942857Y-118139285D01*
X136871428Y-117996428D01*
X136800000Y-117925000D01*
X136657142Y-117853571D01*
X136371428Y-117853571D01*
X136228571Y-117925000D01*
X160585714Y-120403571D02*
X160014285Y-120403571D01*
X160371428Y-121403571D02*
X160371428Y-120117857D01*
X160300000Y-119975000D01*
X160157142Y-119903571D01*
X160014285Y-119903571D01*
X159300000Y-121403571D02*
X159442857Y-121332142D01*
X159514285Y-121260714D01*
X159585714Y-121117857D01*
X159585714Y-120689285D01*
X159514285Y-120546428D01*
X159442857Y-120475000D01*
X159300000Y-120403571D01*
X159085714Y-120403571D01*
X158942857Y-120475000D01*
X158871428Y-120546428D01*
X158800000Y-120689285D01*
X158800000Y-121117857D01*
X158871428Y-121260714D01*
X158942857Y-121332142D01*
X159085714Y-121403571D01*
X159300000Y-121403571D01*
X158157142Y-121403571D02*
X158157142Y-120403571D01*
X158157142Y-120689285D02*
X158085714Y-120546428D01*
X158014285Y-120475000D01*
X157871428Y-120403571D01*
X157728571Y-120403571D01*
X156085714Y-120617857D02*
X155585714Y-120617857D01*
X155371428Y-121403571D02*
X156085714Y-121403571D01*
X156085714Y-119903571D01*
X155371428Y-119903571D01*
X154085714Y-120403571D02*
X154085714Y-121403571D01*
X154728571Y-120403571D02*
X154728571Y-121189285D01*
X154657142Y-121332142D01*
X154514285Y-121403571D01*
X154300000Y-121403571D01*
X154157142Y-121332142D01*
X154085714Y-121260714D01*
X153371428Y-121403571D02*
X153371428Y-120403571D01*
X153371428Y-120689285D02*
X153300000Y-120546428D01*
X153228571Y-120475000D01*
X153085714Y-120403571D01*
X152942857Y-120403571D01*
X152228571Y-121403571D02*
X152371428Y-121332142D01*
X152442857Y-121260714D01*
X152514285Y-121117857D01*
X152514285Y-120689285D01*
X152442857Y-120546428D01*
X152371428Y-120475000D01*
X152228571Y-120403571D01*
X152014285Y-120403571D01*
X151871428Y-120475000D01*
X151800000Y-120546428D01*
X151728571Y-120689285D01*
X151728571Y-121117857D01*
X151800000Y-121260714D01*
X151871428Y-121332142D01*
X152014285Y-121403571D01*
X152228571Y-121403571D01*
X151085714Y-121403571D02*
X151085714Y-119903571D01*
X151085714Y-120475000D02*
X150942857Y-120403571D01*
X150657142Y-120403571D01*
X150514285Y-120475000D01*
X150442857Y-120546428D01*
X150371428Y-120689285D01*
X150371428Y-121117857D01*
X150442857Y-121260714D01*
X150514285Y-121332142D01*
X150657142Y-121403571D01*
X150942857Y-121403571D01*
X151085714Y-121332142D01*
X149514285Y-121403571D02*
X149657142Y-121332142D01*
X149728571Y-121260714D01*
X149800000Y-121117857D01*
X149800000Y-120689285D01*
X149728571Y-120546428D01*
X149657142Y-120475000D01*
X149514285Y-120403571D01*
X149300000Y-120403571D01*
X149157142Y-120475000D01*
X149085714Y-120546428D01*
X149014285Y-120689285D01*
X149014285Y-121117857D01*
X149085714Y-121260714D01*
X149157142Y-121332142D01*
X149300000Y-121403571D01*
X149514285Y-121403571D01*
X148585714Y-120403571D02*
X148014285Y-120403571D01*
X148371428Y-119903571D02*
X148371428Y-121189285D01*
X148300000Y-121332142D01*
X148157142Y-121403571D01*
X148014285Y-121403571D01*
X146371428Y-121403571D02*
X146371428Y-120403571D01*
X146371428Y-120689285D02*
X146300000Y-120546428D01*
X146228571Y-120475000D01*
X146085714Y-120403571D01*
X145942857Y-120403571D01*
X145228571Y-121403571D02*
X145371428Y-121332142D01*
X145442857Y-121260714D01*
X145514285Y-121117857D01*
X145514285Y-120689285D01*
X145442857Y-120546428D01*
X145371428Y-120475000D01*
X145228571Y-120403571D01*
X145014285Y-120403571D01*
X144871428Y-120475000D01*
X144800000Y-120546428D01*
X144728571Y-120689285D01*
X144728571Y-121117857D01*
X144800000Y-121260714D01*
X144871428Y-121332142D01*
X145014285Y-121403571D01*
X145228571Y-121403571D01*
X144085714Y-121403571D02*
X144085714Y-119903571D01*
X144085714Y-120475000D02*
X143942857Y-120403571D01*
X143657142Y-120403571D01*
X143514285Y-120475000D01*
X143442857Y-120546428D01*
X143371428Y-120689285D01*
X143371428Y-121117857D01*
X143442857Y-121260714D01*
X143514285Y-121332142D01*
X143657142Y-121403571D01*
X143942857Y-121403571D01*
X144085714Y-121332142D01*
X142514285Y-121403571D02*
X142657142Y-121332142D01*
X142728571Y-121260714D01*
X142800000Y-121117857D01*
X142800000Y-120689285D01*
X142728571Y-120546428D01*
X142657142Y-120475000D01*
X142514285Y-120403571D01*
X142300000Y-120403571D01*
X142157142Y-120475000D01*
X142085714Y-120546428D01*
X142014285Y-120689285D01*
X142014285Y-121117857D01*
X142085714Y-121260714D01*
X142157142Y-121332142D01*
X142300000Y-121403571D01*
X142514285Y-121403571D01*
X141585714Y-120403571D02*
X141014285Y-120403571D01*
X141371428Y-119903571D02*
X141371428Y-121189285D01*
X141300000Y-121332142D01*
X141157142Y-121403571D01*
X141014285Y-121403571D01*
X158300000Y-123810714D02*
X158371428Y-123882142D01*
X158585714Y-123953571D01*
X158728571Y-123953571D01*
X158942857Y-123882142D01*
X159085714Y-123739285D01*
X159157142Y-123596428D01*
X159228571Y-123310714D01*
X159228571Y-123096428D01*
X159157142Y-122810714D01*
X159085714Y-122667857D01*
X158942857Y-122525000D01*
X158728571Y-122453571D01*
X158585714Y-122453571D01*
X158371428Y-122525000D01*
X158300000Y-122596428D01*
X157442857Y-123953571D02*
X157585714Y-123882142D01*
X157657142Y-123810714D01*
X157728571Y-123667857D01*
X157728571Y-123239285D01*
X157657142Y-123096428D01*
X157585714Y-123025000D01*
X157442857Y-122953571D01*
X157228571Y-122953571D01*
X157085714Y-123025000D01*
X157014285Y-123096428D01*
X156942857Y-123239285D01*
X156942857Y-123667857D01*
X157014285Y-123810714D01*
X157085714Y-123882142D01*
X157228571Y-123953571D01*
X157442857Y-123953571D01*
X156300000Y-122953571D02*
X156300000Y-124453571D01*
X156300000Y-123025000D02*
X156157142Y-122953571D01*
X155871428Y-122953571D01*
X155728571Y-123025000D01*
X155657142Y-123096428D01*
X155585714Y-123239285D01*
X155585714Y-123667857D01*
X155657142Y-123810714D01*
X155728571Y-123882142D01*
X155871428Y-123953571D01*
X156157142Y-123953571D01*
X156300000Y-123882142D01*
X155085714Y-122953571D02*
X154728571Y-123953571D01*
X154371428Y-122953571D02*
X154728571Y-123953571D01*
X154871428Y-124310714D01*
X154942857Y-124382142D01*
X155085714Y-124453571D01*
X153800000Y-123953571D02*
X153800000Y-122953571D01*
X153800000Y-123239285D02*
X153728571Y-123096428D01*
X153657142Y-123025000D01*
X153514285Y-122953571D01*
X153371428Y-122953571D01*
X152871428Y-123953571D02*
X152871428Y-122953571D01*
X152871428Y-122453571D02*
X152942857Y-122525000D01*
X152871428Y-122596428D01*
X152800000Y-122525000D01*
X152871428Y-122453571D01*
X152871428Y-122596428D01*
X151514285Y-122953571D02*
X151514285Y-124167857D01*
X151585714Y-124310714D01*
X151657142Y-124382142D01*
X151800000Y-124453571D01*
X152014285Y-124453571D01*
X152157142Y-124382142D01*
X151514285Y-123882142D02*
X151657142Y-123953571D01*
X151942857Y-123953571D01*
X152085714Y-123882142D01*
X152157142Y-123810714D01*
X152228571Y-123667857D01*
X152228571Y-123239285D01*
X152157142Y-123096428D01*
X152085714Y-123025000D01*
X151942857Y-122953571D01*
X151657142Y-122953571D01*
X151514285Y-123025000D01*
X150800000Y-123953571D02*
X150800000Y-122453571D01*
X150157142Y-123953571D02*
X150157142Y-123167857D01*
X150228571Y-123025000D01*
X150371428Y-122953571D01*
X150585714Y-122953571D01*
X150728571Y-123025000D01*
X150800000Y-123096428D01*
X149657142Y-122953571D02*
X149085714Y-122953571D01*
X149442857Y-122453571D02*
X149442857Y-123739285D01*
X149371428Y-123882142D01*
X149228571Y-123953571D01*
X149085714Y-123953571D01*
X147514285Y-122596428D02*
X147442857Y-122525000D01*
X147300000Y-122453571D01*
X146942857Y-122453571D01*
X146800000Y-122525000D01*
X146728571Y-122596428D01*
X146657142Y-122739285D01*
X146657142Y-122882142D01*
X146728571Y-123096428D01*
X147585714Y-123953571D01*
X146657142Y-123953571D01*
X145728571Y-122453571D02*
X145585714Y-122453571D01*
X145442857Y-122525000D01*
X145371428Y-122596428D01*
X145300000Y-122739285D01*
X145228571Y-123025000D01*
X145228571Y-123382142D01*
X145300000Y-123667857D01*
X145371428Y-123810714D01*
X145442857Y-123882142D01*
X145585714Y-123953571D01*
X145728571Y-123953571D01*
X145871428Y-123882142D01*
X145942857Y-123810714D01*
X146014285Y-123667857D01*
X146085714Y-123382142D01*
X146085714Y-123025000D01*
X146014285Y-122739285D01*
X145942857Y-122596428D01*
X145871428Y-122525000D01*
X145728571Y-122453571D01*
X144657142Y-122596428D02*
X144585714Y-122525000D01*
X144442857Y-122453571D01*
X144085714Y-122453571D01*
X143942857Y-122525000D01*
X143871428Y-122596428D01*
X143800000Y-122739285D01*
X143800000Y-122882142D01*
X143871428Y-123096428D01*
X144728571Y-123953571D01*
X143800000Y-123953571D01*
X142871428Y-122453571D02*
X142728571Y-122453571D01*
X142585714Y-122525000D01*
X142514285Y-122596428D01*
X142442857Y-122739285D01*
X142371428Y-123025000D01*
X142371428Y-123382142D01*
X142442857Y-123667857D01*
X142514285Y-123810714D01*
X142585714Y-123882142D01*
X142728571Y-123953571D01*
X142871428Y-123953571D01*
X143014285Y-123882142D01*
X143085714Y-123810714D01*
X143157142Y-123667857D01*
X143228571Y-123382142D01*
X143228571Y-123025000D01*
X143157142Y-122739285D01*
X143085714Y-122596428D01*
X143014285Y-122525000D01*
X142871428Y-122453571D01*
X155442857Y-125003571D02*
X155442857Y-126075000D01*
X155514285Y-126289285D01*
X155657142Y-126432142D01*
X155871428Y-126503571D01*
X156014285Y-126503571D01*
X154514285Y-126503571D02*
X154657142Y-126432142D01*
X154728571Y-126360714D01*
X154800000Y-126217857D01*
X154800000Y-125789285D01*
X154728571Y-125646428D01*
X154657142Y-125575000D01*
X154514285Y-125503571D01*
X154300000Y-125503571D01*
X154157142Y-125575000D01*
X154085714Y-125646428D01*
X154014285Y-125789285D01*
X154014285Y-126217857D01*
X154085714Y-126360714D01*
X154157142Y-126432142D01*
X154300000Y-126503571D01*
X154514285Y-126503571D01*
X152800000Y-126432142D02*
X152942857Y-126503571D01*
X153228571Y-126503571D01*
X153371428Y-126432142D01*
X153442857Y-126289285D01*
X153442857Y-125717857D01*
X153371428Y-125575000D01*
X153228571Y-125503571D01*
X152942857Y-125503571D01*
X152800000Y-125575000D01*
X152728571Y-125717857D01*
X152728571Y-125860714D01*
X153442857Y-126003571D01*
X150942857Y-126503571D02*
X150942857Y-125003571D01*
X150371428Y-125003571D01*
X150228571Y-125075000D01*
X150157142Y-125146428D01*
X150085714Y-125289285D01*
X150085714Y-125503571D01*
X150157142Y-125646428D01*
X150228571Y-125717857D01*
X150371428Y-125789285D01*
X150942857Y-125789285D01*
X148800000Y-126503571D02*
X148800000Y-125717857D01*
X148871428Y-125575000D01*
X149014285Y-125503571D01*
X149300000Y-125503571D01*
X149442857Y-125575000D01*
X148800000Y-126432142D02*
X148942857Y-126503571D01*
X149300000Y-126503571D01*
X149442857Y-126432142D01*
X149514285Y-126289285D01*
X149514285Y-126146428D01*
X149442857Y-126003571D01*
X149300000Y-125932142D01*
X148942857Y-125932142D01*
X148800000Y-125860714D01*
X148300000Y-125503571D02*
X147728571Y-125503571D01*
X148085714Y-125003571D02*
X148085714Y-126289285D01*
X148014285Y-126432142D01*
X147871428Y-126503571D01*
X147728571Y-126503571D01*
X146657142Y-126432142D02*
X146800000Y-126503571D01*
X147085714Y-126503571D01*
X147228571Y-126432142D01*
X147300000Y-126289285D01*
X147300000Y-125717857D01*
X147228571Y-125575000D01*
X147085714Y-125503571D01*
X146800000Y-125503571D01*
X146657142Y-125575000D01*
X146585714Y-125717857D01*
X146585714Y-125860714D01*
X147300000Y-126003571D01*
X145942857Y-126503571D02*
X145942857Y-125503571D01*
X145942857Y-125789285D02*
X145871428Y-125646428D01*
X145800000Y-125575000D01*
X145657142Y-125503571D01*
X145514285Y-125503571D01*
D11*
%TO.C,R5*%
X125737258Y-128522500D02*
X125262742Y-128522500D01*
X125737258Y-127477500D02*
X125262742Y-127477500D01*
%TO.C,R4*%
X125737258Y-126022500D02*
X125262742Y-126022500D01*
X125737258Y-124977500D02*
X125262742Y-124977500D01*
%TO.C,R3*%
X120727500Y-133237258D02*
X120727500Y-132762742D01*
X121772500Y-133237258D02*
X121772500Y-132762742D01*
%TO.C,R2*%
X126772500Y-132762742D02*
X126772500Y-133237258D01*
X125727500Y-132762742D02*
X125727500Y-133237258D01*
%TO.C,R1*%
X102987258Y-124272500D02*
X102512742Y-124272500D01*
X102987258Y-123227500D02*
X102512742Y-123227500D01*
%TO.C,R5*%
D12*
X122916666Y-128702380D02*
X123250000Y-128226190D01*
X123488095Y-128702380D02*
X123488095Y-127702380D01*
X123107142Y-127702380D01*
X123011904Y-127750000D01*
X122964285Y-127797619D01*
X122916666Y-127892857D01*
X122916666Y-128035714D01*
X122964285Y-128130952D01*
X123011904Y-128178571D01*
X123107142Y-128226190D01*
X123488095Y-128226190D01*
X122011904Y-127702380D02*
X122488095Y-127702380D01*
X122535714Y-128178571D01*
X122488095Y-128130952D01*
X122392857Y-128083333D01*
X122154761Y-128083333D01*
X122059523Y-128130952D01*
X122011904Y-128178571D01*
X121964285Y-128273809D01*
X121964285Y-128511904D01*
X122011904Y-128607142D01*
X122059523Y-128654761D01*
X122154761Y-128702380D01*
X122392857Y-128702380D01*
X122488095Y-128654761D01*
X122535714Y-128607142D01*
%TO.C,R4*%
X123166666Y-125952380D02*
X123500000Y-125476190D01*
X123738095Y-125952380D02*
X123738095Y-124952380D01*
X123357142Y-124952380D01*
X123261904Y-125000000D01*
X123214285Y-125047619D01*
X123166666Y-125142857D01*
X123166666Y-125285714D01*
X123214285Y-125380952D01*
X123261904Y-125428571D01*
X123357142Y-125476190D01*
X123738095Y-125476190D01*
X122309523Y-125285714D02*
X122309523Y-125952380D01*
X122547619Y-124904761D02*
X122785714Y-125619047D01*
X122166666Y-125619047D01*
%TO.C,R3*%
X123132380Y-132833333D02*
X122656190Y-132500000D01*
X123132380Y-132261904D02*
X122132380Y-132261904D01*
X122132380Y-132642857D01*
X122180000Y-132738095D01*
X122227619Y-132785714D01*
X122322857Y-132833333D01*
X122465714Y-132833333D01*
X122560952Y-132785714D01*
X122608571Y-132738095D01*
X122656190Y-132642857D01*
X122656190Y-132261904D01*
X122132380Y-133166666D02*
X122132380Y-133785714D01*
X122513333Y-133452380D01*
X122513333Y-133595238D01*
X122560952Y-133690476D01*
X122608571Y-133738095D01*
X122703809Y-133785714D01*
X122941904Y-133785714D01*
X123037142Y-133738095D01*
X123084761Y-133690476D01*
X123132380Y-133595238D01*
X123132380Y-133309523D01*
X123084761Y-133214285D01*
X123037142Y-133166666D01*
%TO.C,R2*%
X125272380Y-132833333D02*
X124796190Y-132500000D01*
X125272380Y-132261904D02*
X124272380Y-132261904D01*
X124272380Y-132642857D01*
X124320000Y-132738095D01*
X124367619Y-132785714D01*
X124462857Y-132833333D01*
X124605714Y-132833333D01*
X124700952Y-132785714D01*
X124748571Y-132738095D01*
X124796190Y-132642857D01*
X124796190Y-132261904D01*
X124367619Y-133214285D02*
X124320000Y-133261904D01*
X124272380Y-133357142D01*
X124272380Y-133595238D01*
X124320000Y-133690476D01*
X124367619Y-133738095D01*
X124462857Y-133785714D01*
X124558095Y-133785714D01*
X124700952Y-133738095D01*
X125272380Y-133166666D01*
X125272380Y-133785714D01*
%TO.C,R1*%
X102916666Y-122772380D02*
X103250000Y-122296190D01*
X103488095Y-122772380D02*
X103488095Y-121772380D01*
X103107142Y-121772380D01*
X103011904Y-121820000D01*
X102964285Y-121867619D01*
X102916666Y-121962857D01*
X102916666Y-122105714D01*
X102964285Y-122200952D01*
X103011904Y-122248571D01*
X103107142Y-122296190D01*
X103488095Y-122296190D01*
X101964285Y-122772380D02*
X102535714Y-122772380D01*
X102250000Y-122772380D02*
X102250000Y-121772380D01*
X102345238Y-121915238D01*
X102440476Y-122010476D01*
X102535714Y-122058095D01*
%TD*%
M02*
