%TF.GenerationSoftware,KiCad,Pcbnew,5.1.8-5.fc33*%
%TF.CreationDate,2020-12-26T13:36:50+00:00*%
%TF.ProjectId,breakout,62726561-6b6f-4757-942e-6b696361645f,rev?*%
%TF.SameCoordinates,Original*%
%TF.FileFunction,Paste,Bot*%
%TF.FilePolarity,Positive*%
%FSLAX46Y46*%
G04 Gerber Fmt 4.6, Leading zero omitted, Abs format (unit mm)*
G04 Created by KiCad (PCBNEW 5.1.8-5.fc33) date 2020-12-26 13:36:50*
%MOMM*%
%LPD*%
G01*
G04 APERTURE LIST*
G04 APERTURE END LIST*
%TO.C,R5*%
G36*
G01*
X125075000Y-127725000D02*
X125075000Y-128275000D01*
G75*
G02*
X124875000Y-128475000I-200000J0D01*
G01*
X124475000Y-128475000D01*
G75*
G02*
X124275000Y-128275000I0J200000D01*
G01*
X124275000Y-127725000D01*
G75*
G02*
X124475000Y-127525000I200000J0D01*
G01*
X124875000Y-127525000D01*
G75*
G02*
X125075000Y-127725000I0J-200000D01*
G01*
G37*
G36*
G01*
X126725000Y-127725000D02*
X126725000Y-128275000D01*
G75*
G02*
X126525000Y-128475000I-200000J0D01*
G01*
X126125000Y-128475000D01*
G75*
G02*
X125925000Y-128275000I0J200000D01*
G01*
X125925000Y-127725000D01*
G75*
G02*
X126125000Y-127525000I200000J0D01*
G01*
X126525000Y-127525000D01*
G75*
G02*
X126725000Y-127725000I0J-200000D01*
G01*
G37*
%TD*%
%TO.C,R4*%
G36*
G01*
X125075000Y-125225000D02*
X125075000Y-125775000D01*
G75*
G02*
X124875000Y-125975000I-200000J0D01*
G01*
X124475000Y-125975000D01*
G75*
G02*
X124275000Y-125775000I0J200000D01*
G01*
X124275000Y-125225000D01*
G75*
G02*
X124475000Y-125025000I200000J0D01*
G01*
X124875000Y-125025000D01*
G75*
G02*
X125075000Y-125225000I0J-200000D01*
G01*
G37*
G36*
G01*
X126725000Y-125225000D02*
X126725000Y-125775000D01*
G75*
G02*
X126525000Y-125975000I-200000J0D01*
G01*
X126125000Y-125975000D01*
G75*
G02*
X125925000Y-125775000I0J200000D01*
G01*
X125925000Y-125225000D01*
G75*
G02*
X126125000Y-125025000I200000J0D01*
G01*
X126525000Y-125025000D01*
G75*
G02*
X126725000Y-125225000I0J-200000D01*
G01*
G37*
%TD*%
%TO.C,R3*%
G36*
G01*
X121525000Y-132575000D02*
X120975000Y-132575000D01*
G75*
G02*
X120775000Y-132375000I0J200000D01*
G01*
X120775000Y-131975000D01*
G75*
G02*
X120975000Y-131775000I200000J0D01*
G01*
X121525000Y-131775000D01*
G75*
G02*
X121725000Y-131975000I0J-200000D01*
G01*
X121725000Y-132375000D01*
G75*
G02*
X121525000Y-132575000I-200000J0D01*
G01*
G37*
G36*
G01*
X121525000Y-134225000D02*
X120975000Y-134225000D01*
G75*
G02*
X120775000Y-134025000I0J200000D01*
G01*
X120775000Y-133625000D01*
G75*
G02*
X120975000Y-133425000I200000J0D01*
G01*
X121525000Y-133425000D01*
G75*
G02*
X121725000Y-133625000I0J-200000D01*
G01*
X121725000Y-134025000D01*
G75*
G02*
X121525000Y-134225000I-200000J0D01*
G01*
G37*
%TD*%
%TO.C,R2*%
G36*
G01*
X125975000Y-133425000D02*
X126525000Y-133425000D01*
G75*
G02*
X126725000Y-133625000I0J-200000D01*
G01*
X126725000Y-134025000D01*
G75*
G02*
X126525000Y-134225000I-200000J0D01*
G01*
X125975000Y-134225000D01*
G75*
G02*
X125775000Y-134025000I0J200000D01*
G01*
X125775000Y-133625000D01*
G75*
G02*
X125975000Y-133425000I200000J0D01*
G01*
G37*
G36*
G01*
X125975000Y-131775000D02*
X126525000Y-131775000D01*
G75*
G02*
X126725000Y-131975000I0J-200000D01*
G01*
X126725000Y-132375000D01*
G75*
G02*
X126525000Y-132575000I-200000J0D01*
G01*
X125975000Y-132575000D01*
G75*
G02*
X125775000Y-132375000I0J200000D01*
G01*
X125775000Y-131975000D01*
G75*
G02*
X125975000Y-131775000I200000J0D01*
G01*
G37*
%TD*%
%TO.C,R1*%
G36*
G01*
X102325000Y-123475000D02*
X102325000Y-124025000D01*
G75*
G02*
X102125000Y-124225000I-200000J0D01*
G01*
X101725000Y-124225000D01*
G75*
G02*
X101525000Y-124025000I0J200000D01*
G01*
X101525000Y-123475000D01*
G75*
G02*
X101725000Y-123275000I200000J0D01*
G01*
X102125000Y-123275000D01*
G75*
G02*
X102325000Y-123475000I0J-200000D01*
G01*
G37*
G36*
G01*
X103975000Y-123475000D02*
X103975000Y-124025000D01*
G75*
G02*
X103775000Y-124225000I-200000J0D01*
G01*
X103375000Y-124225000D01*
G75*
G02*
X103175000Y-124025000I0J200000D01*
G01*
X103175000Y-123475000D01*
G75*
G02*
X103375000Y-123275000I200000J0D01*
G01*
X103775000Y-123275000D01*
G75*
G02*
X103975000Y-123475000I0J-200000D01*
G01*
G37*
%TD*%
M02*
