%TF.GenerationSoftware,KiCad,Pcbnew,5.1.8-5.fc33*%
%TF.CreationDate,2020-12-26T13:36:50+00:00*%
%TF.ProjectId,breakout,62726561-6b6f-4757-942e-6b696361645f,rev?*%
%TF.SameCoordinates,Original*%
%TF.FileFunction,Copper,L2,Bot*%
%TF.FilePolarity,Positive*%
%FSLAX46Y46*%
G04 Gerber Fmt 4.6, Leading zero omitted, Abs format (unit mm)*
G04 Created by KiCad (PCBNEW 5.1.8-5.fc33) date 2020-12-26 13:36:50*
%MOMM*%
%LPD*%
G01*
G04 APERTURE LIST*
%TA.AperFunction,ComponentPad*%
%ADD10O,1.700000X1.700000*%
%TD*%
%TA.AperFunction,ComponentPad*%
%ADD11R,1.700000X1.700000*%
%TD*%
%TA.AperFunction,ComponentPad*%
%ADD12C,6.400000*%
%TD*%
%TA.AperFunction,ComponentPad*%
%ADD13O,1.700000X1.950000*%
%TD*%
%TA.AperFunction,ComponentPad*%
%ADD14O,1.950000X1.700000*%
%TD*%
%TA.AperFunction,ComponentPad*%
%ADD15C,2.000000*%
%TD*%
%TA.AperFunction,ComponentPad*%
%ADD16C,1.524000*%
%TD*%
%TA.AperFunction,ViaPad*%
%ADD17C,0.800000*%
%TD*%
%TA.AperFunction,Conductor*%
%ADD18C,1.500000*%
%TD*%
%TA.AperFunction,Conductor*%
%ADD19C,0.250000*%
%TD*%
%TA.AperFunction,Conductor*%
%ADD20C,0.500000*%
%TD*%
%TA.AperFunction,Conductor*%
%ADD21C,0.254000*%
%TD*%
%TA.AperFunction,Conductor*%
%ADD22C,0.100000*%
%TD*%
G04 APERTURE END LIST*
%TO.P,R5,2*%
%TO.N,+3V3*%
%TA.AperFunction,SMDPad,CuDef*%
G36*
G01*
X125075000Y-127725000D02*
X125075000Y-128275000D01*
G75*
G02*
X124875000Y-128475000I-200000J0D01*
G01*
X124475000Y-128475000D01*
G75*
G02*
X124275000Y-128275000I0J200000D01*
G01*
X124275000Y-127725000D01*
G75*
G02*
X124475000Y-127525000I200000J0D01*
G01*
X124875000Y-127525000D01*
G75*
G02*
X125075000Y-127725000I0J-200000D01*
G01*
G37*
%TD.AperFunction*%
%TO.P,R5,1*%
%TO.N,SCL*%
%TA.AperFunction,SMDPad,CuDef*%
G36*
G01*
X126725000Y-127725000D02*
X126725000Y-128275000D01*
G75*
G02*
X126525000Y-128475000I-200000J0D01*
G01*
X126125000Y-128475000D01*
G75*
G02*
X125925000Y-128275000I0J200000D01*
G01*
X125925000Y-127725000D01*
G75*
G02*
X126125000Y-127525000I200000J0D01*
G01*
X126525000Y-127525000D01*
G75*
G02*
X126725000Y-127725000I0J-200000D01*
G01*
G37*
%TD.AperFunction*%
%TD*%
%TO.P,R4,2*%
%TO.N,+3V3*%
%TA.AperFunction,SMDPad,CuDef*%
G36*
G01*
X125075000Y-125225000D02*
X125075000Y-125775000D01*
G75*
G02*
X124875000Y-125975000I-200000J0D01*
G01*
X124475000Y-125975000D01*
G75*
G02*
X124275000Y-125775000I0J200000D01*
G01*
X124275000Y-125225000D01*
G75*
G02*
X124475000Y-125025000I200000J0D01*
G01*
X124875000Y-125025000D01*
G75*
G02*
X125075000Y-125225000I0J-200000D01*
G01*
G37*
%TD.AperFunction*%
%TO.P,R4,1*%
%TO.N,SDA*%
%TA.AperFunction,SMDPad,CuDef*%
G36*
G01*
X126725000Y-125225000D02*
X126725000Y-125775000D01*
G75*
G02*
X126525000Y-125975000I-200000J0D01*
G01*
X126125000Y-125975000D01*
G75*
G02*
X125925000Y-125775000I0J200000D01*
G01*
X125925000Y-125225000D01*
G75*
G02*
X126125000Y-125025000I200000J0D01*
G01*
X126525000Y-125025000D01*
G75*
G02*
X126725000Y-125225000I0J-200000D01*
G01*
G37*
%TD.AperFunction*%
%TD*%
D10*
%TO.P,J12,12*%
%TO.N,SCL*%
X131540000Y-127900000D03*
%TO.P,J12,11*%
X129000000Y-127900000D03*
%TO.P,J12,10*%
%TO.N,SDA*%
X131540000Y-125360000D03*
%TO.P,J12,9*%
X129000000Y-125360000D03*
%TO.P,J12,8*%
%TO.N,GND*%
X131540000Y-122820000D03*
%TO.P,J12,7*%
X129000000Y-122820000D03*
%TO.P,J12,6*%
%TO.N,+3V3*%
X131540000Y-120280000D03*
%TO.P,J12,5*%
X129000000Y-120280000D03*
%TO.P,J12,4*%
%TO.N,+5V*%
X131540000Y-117740000D03*
%TO.P,J12,3*%
X129000000Y-117740000D03*
%TO.P,J12,2*%
%TO.N,+12V*%
X131540000Y-115200000D03*
D11*
%TO.P,J12,1*%
X129000000Y-115200000D03*
%TD*%
D12*
%TO.P,REF\u002A\u002A,1*%
%TO.N,N/C*%
X170000000Y-122500000D03*
%TD*%
%TO.P,REF\u002A\u002A,1*%
%TO.N,N/C*%
X115000000Y-122500000D03*
%TD*%
D10*
%TO.P,J3,40*%
%TO.N,Net-(J3-Pad40)*%
X147010000Y-108710000D03*
%TO.P,J3,39*%
%TO.N,Net-(J3-Pad39)*%
X147010000Y-111250000D03*
%TO.P,J3,38*%
%TO.N,Net-(J3-Pad38)*%
X144470000Y-108710000D03*
%TO.P,J3,37*%
%TO.N,LIFT_DOWN*%
X144470000Y-111250000D03*
%TO.P,J3,36*%
%TO.N,Net-(J3-Pad36)*%
X141930000Y-108710000D03*
%TO.P,J3,35*%
%TO.N,LIFT_UP*%
X141930000Y-111250000D03*
%TO.P,J3,34*%
%TO.N,Net-(J3-Pad34)*%
X139390000Y-108710000D03*
%TO.P,J3,33*%
%TO.N,UPSIDE_DOWN*%
X139390000Y-111250000D03*
%TO.P,J3,32*%
%TO.N,Net-(J3-Pad32)*%
X136850000Y-108710000D03*
%TO.P,J3,31*%
%TO.N,RIGHT_WAY_UP*%
X136850000Y-111250000D03*
%TO.P,J3,30*%
%TO.N,Net-(J3-Pad30)*%
X134310000Y-108710000D03*
%TO.P,J3,29*%
%TO.N,CLAW_OPEN*%
X134310000Y-111250000D03*
%TO.P,J3,28*%
%TO.N,Net-(J3-Pad28)*%
X131770000Y-108710000D03*
%TO.P,J3,27*%
%TO.N,Net-(J3-Pad27)*%
X131770000Y-111250000D03*
%TO.P,J3,26*%
%TO.N,Net-(J3-Pad26)*%
X129230000Y-108710000D03*
%TO.P,J3,25*%
%TO.N,Net-(J3-Pad25)*%
X129230000Y-111250000D03*
%TO.P,J3,24*%
%TO.N,Net-(J3-Pad24)*%
X126690000Y-108710000D03*
%TO.P,J3,23*%
%TO.N,Net-(J3-Pad23)*%
X126690000Y-111250000D03*
%TO.P,J3,22*%
%TO.N,Net-(J3-Pad22)*%
X124150000Y-108710000D03*
%TO.P,J3,21*%
%TO.N,Net-(J3-Pad21)*%
X124150000Y-111250000D03*
%TO.P,J3,20*%
%TO.N,Net-(J3-Pad20)*%
X121610000Y-108710000D03*
%TO.P,J3,19*%
%TO.N,Net-(J3-Pad19)*%
X121610000Y-111250000D03*
%TO.P,J3,18*%
%TO.N,Net-(J3-Pad18)*%
X119070000Y-108710000D03*
%TO.P,J3,17*%
%TO.N,Net-(J3-Pad17)*%
X119070000Y-111250000D03*
%TO.P,J3,16*%
%TO.N,Net-(J3-Pad16)*%
X116530000Y-108710000D03*
%TO.P,J3,15*%
%TO.N,Net-(J3-Pad15)*%
X116530000Y-111250000D03*
%TO.P,J3,14*%
%TO.N,Net-(J3-Pad14)*%
X113990000Y-108710000D03*
%TO.P,J3,13*%
%TO.N,Net-(J3-Pad13)*%
X113990000Y-111250000D03*
%TO.P,J3,12*%
%TO.N,Net-(J3-Pad12)*%
X111450000Y-108710000D03*
%TO.P,J3,11*%
%TO.N,Net-(J3-Pad11)*%
X111450000Y-111250000D03*
%TO.P,J3,10*%
%TO.N,Net-(J3-Pad10)*%
X108910000Y-108710000D03*
%TO.P,J3,9*%
%TO.N,Net-(J3-Pad9)*%
X108910000Y-111250000D03*
%TO.P,J3,8*%
%TO.N,Net-(J3-Pad8)*%
X106370000Y-108710000D03*
%TO.P,J3,7*%
%TO.N,Net-(J3-Pad7)*%
X106370000Y-111250000D03*
%TO.P,J3,6*%
%TO.N,GND*%
X103830000Y-108710000D03*
%TO.P,J3,5*%
%TO.N,SCL*%
X103830000Y-111250000D03*
%TO.P,J3,4*%
%TO.N,+5VD*%
X101290000Y-108710000D03*
%TO.P,J3,3*%
%TO.N,SDA*%
X101290000Y-111250000D03*
%TO.P,J3,2*%
%TO.N,+5VD*%
X98750000Y-108710000D03*
D11*
%TO.P,J3,1*%
%TO.N,+3V3*%
X98750000Y-111250000D03*
%TD*%
%TO.P,R3,2*%
%TO.N,+3V3*%
%TA.AperFunction,SMDPad,CuDef*%
G36*
G01*
X121525000Y-132575000D02*
X120975000Y-132575000D01*
G75*
G02*
X120775000Y-132375000I0J200000D01*
G01*
X120775000Y-131975000D01*
G75*
G02*
X120975000Y-131775000I200000J0D01*
G01*
X121525000Y-131775000D01*
G75*
G02*
X121725000Y-131975000I0J-200000D01*
G01*
X121725000Y-132375000D01*
G75*
G02*
X121525000Y-132575000I-200000J0D01*
G01*
G37*
%TD.AperFunction*%
%TO.P,R3,1*%
%TO.N,Net-(J2-Pad3)*%
%TA.AperFunction,SMDPad,CuDef*%
G36*
G01*
X121525000Y-134225000D02*
X120975000Y-134225000D01*
G75*
G02*
X120775000Y-134025000I0J200000D01*
G01*
X120775000Y-133625000D01*
G75*
G02*
X120975000Y-133425000I200000J0D01*
G01*
X121525000Y-133425000D01*
G75*
G02*
X121725000Y-133625000I0J-200000D01*
G01*
X121725000Y-134025000D01*
G75*
G02*
X121525000Y-134225000I-200000J0D01*
G01*
G37*
%TD.AperFunction*%
%TD*%
%TO.P,R2,2*%
%TO.N,Net-(J2-Pad1)*%
%TA.AperFunction,SMDPad,CuDef*%
G36*
G01*
X125975000Y-133425000D02*
X126525000Y-133425000D01*
G75*
G02*
X126725000Y-133625000I0J-200000D01*
G01*
X126725000Y-134025000D01*
G75*
G02*
X126525000Y-134225000I-200000J0D01*
G01*
X125975000Y-134225000D01*
G75*
G02*
X125775000Y-134025000I0J200000D01*
G01*
X125775000Y-133625000D01*
G75*
G02*
X125975000Y-133425000I200000J0D01*
G01*
G37*
%TD.AperFunction*%
%TO.P,R2,1*%
%TO.N,+3V3*%
%TA.AperFunction,SMDPad,CuDef*%
G36*
G01*
X125975000Y-131775000D02*
X126525000Y-131775000D01*
G75*
G02*
X126725000Y-131975000I0J-200000D01*
G01*
X126725000Y-132375000D01*
G75*
G02*
X126525000Y-132575000I-200000J0D01*
G01*
X125975000Y-132575000D01*
G75*
G02*
X125775000Y-132375000I0J200000D01*
G01*
X125775000Y-131975000D01*
G75*
G02*
X125975000Y-131775000I200000J0D01*
G01*
G37*
%TD.AperFunction*%
%TD*%
%TO.P,R1,2*%
%TO.N,START_CORD*%
%TA.AperFunction,SMDPad,CuDef*%
G36*
G01*
X102325000Y-123475000D02*
X102325000Y-124025000D01*
G75*
G02*
X102125000Y-124225000I-200000J0D01*
G01*
X101725000Y-124225000D01*
G75*
G02*
X101525000Y-124025000I0J200000D01*
G01*
X101525000Y-123475000D01*
G75*
G02*
X101725000Y-123275000I200000J0D01*
G01*
X102125000Y-123275000D01*
G75*
G02*
X102325000Y-123475000I0J-200000D01*
G01*
G37*
%TD.AperFunction*%
%TO.P,R1,1*%
%TO.N,Net-(J3-Pad11)*%
%TA.AperFunction,SMDPad,CuDef*%
G36*
G01*
X103975000Y-123475000D02*
X103975000Y-124025000D01*
G75*
G02*
X103775000Y-124225000I-200000J0D01*
G01*
X103375000Y-124225000D01*
G75*
G02*
X103175000Y-124025000I0J200000D01*
G01*
X103175000Y-123475000D01*
G75*
G02*
X103375000Y-123275000I200000J0D01*
G01*
X103775000Y-123275000D01*
G75*
G02*
X103975000Y-123475000I0J-200000D01*
G01*
G37*
%TD.AperFunction*%
%TD*%
D13*
%TO.P,J11,4*%
%TO.N,SCL*%
X153250000Y-136250000D03*
%TO.P,J11,3*%
%TO.N,SDA*%
X155750000Y-136250000D03*
%TO.P,J11,2*%
%TO.N,GND*%
X158250000Y-136250000D03*
%TO.P,J11,1*%
%TO.N,+3V3*%
%TA.AperFunction,ComponentPad*%
G36*
G01*
X161600000Y-135525000D02*
X161600000Y-136975000D01*
G75*
G02*
X161350000Y-137225000I-250000J0D01*
G01*
X160150000Y-137225000D01*
G75*
G02*
X159900000Y-136975000I0J250000D01*
G01*
X159900000Y-135525000D01*
G75*
G02*
X160150000Y-135275000I250000J0D01*
G01*
X161350000Y-135275000D01*
G75*
G02*
X161600000Y-135525000I0J-250000D01*
G01*
G37*
%TD.AperFunction*%
%TD*%
%TO.P,J10,4*%
%TO.N,SCL*%
X168000000Y-136250000D03*
%TO.P,J10,3*%
%TO.N,SDA*%
X170500000Y-136250000D03*
%TO.P,J10,2*%
%TO.N,GND*%
X173000000Y-136250000D03*
%TO.P,J10,1*%
%TO.N,+5V*%
%TA.AperFunction,ComponentPad*%
G36*
G01*
X176350000Y-135525000D02*
X176350000Y-136975000D01*
G75*
G02*
X176100000Y-137225000I-250000J0D01*
G01*
X174900000Y-137225000D01*
G75*
G02*
X174650000Y-136975000I0J250000D01*
G01*
X174650000Y-135525000D01*
G75*
G02*
X174900000Y-135275000I250000J0D01*
G01*
X176100000Y-135275000D01*
G75*
G02*
X176350000Y-135525000I0J-250000D01*
G01*
G37*
%TD.AperFunction*%
%TD*%
D14*
%TO.P,J9,4*%
%TO.N,SCL*%
X186250000Y-122500000D03*
%TO.P,J9,3*%
%TO.N,SDA*%
X186250000Y-120000000D03*
%TO.P,J9,2*%
%TO.N,GND*%
X186250000Y-117500000D03*
%TO.P,J9,1*%
%TO.N,+3V3*%
%TA.AperFunction,ComponentPad*%
G36*
G01*
X185525000Y-114150000D02*
X186975000Y-114150000D01*
G75*
G02*
X187225000Y-114400000I0J-250000D01*
G01*
X187225000Y-115600000D01*
G75*
G02*
X186975000Y-115850000I-250000J0D01*
G01*
X185525000Y-115850000D01*
G75*
G02*
X185275000Y-115600000I0J250000D01*
G01*
X185275000Y-114400000D01*
G75*
G02*
X185525000Y-114150000I250000J0D01*
G01*
G37*
%TD.AperFunction*%
%TD*%
D13*
%TO.P,J8,4*%
%TO.N,SCL*%
X180250000Y-109000000D03*
%TO.P,J8,3*%
%TO.N,SDA*%
X177750000Y-109000000D03*
%TO.P,J8,2*%
%TO.N,GND*%
X175250000Y-109000000D03*
%TO.P,J8,1*%
%TO.N,+3V3*%
%TA.AperFunction,ComponentPad*%
G36*
G01*
X171900000Y-109725000D02*
X171900000Y-108275000D01*
G75*
G02*
X172150000Y-108025000I250000J0D01*
G01*
X173350000Y-108025000D01*
G75*
G02*
X173600000Y-108275000I0J-250000D01*
G01*
X173600000Y-109725000D01*
G75*
G02*
X173350000Y-109975000I-250000J0D01*
G01*
X172150000Y-109975000D01*
G75*
G02*
X171900000Y-109725000I0J250000D01*
G01*
G37*
%TD.AperFunction*%
%TD*%
%TO.P,J7,6*%
%TO.N,GND*%
X165500000Y-109000000D03*
%TO.P,J7,5*%
%TO.N,LIFT_DOWN*%
X163000000Y-109000000D03*
%TO.P,J7,4*%
%TO.N,LIFT_UP*%
X160500000Y-109000000D03*
%TO.P,J7,3*%
%TO.N,UPSIDE_DOWN*%
X158000000Y-109000000D03*
%TO.P,J7,2*%
%TO.N,RIGHT_WAY_UP*%
X155500000Y-109000000D03*
%TO.P,J7,1*%
%TO.N,CLAW_OPEN*%
%TA.AperFunction,ComponentPad*%
G36*
G01*
X152150000Y-109725000D02*
X152150000Y-108275000D01*
G75*
G02*
X152400000Y-108025000I250000J0D01*
G01*
X153600000Y-108025000D01*
G75*
G02*
X153850000Y-108275000I0J-250000D01*
G01*
X153850000Y-109725000D01*
G75*
G02*
X153600000Y-109975000I-250000J0D01*
G01*
X152400000Y-109975000D01*
G75*
G02*
X152150000Y-109725000I0J250000D01*
G01*
G37*
%TD.AperFunction*%
%TD*%
%TO.P,J6,6*%
%TO.N,Net-(J6-Pad6)*%
X133500000Y-136250000D03*
%TO.P,J6,5*%
%TO.N,Net-(J2-Pad3)*%
X136000000Y-136250000D03*
%TO.P,J6,4*%
%TO.N,SCL*%
X138500000Y-136250000D03*
%TO.P,J6,3*%
%TO.N,SDA*%
X141000000Y-136250000D03*
%TO.P,J6,2*%
%TO.N,GND*%
X143500000Y-136250000D03*
%TO.P,J6,1*%
%TO.N,+12V*%
%TA.AperFunction,ComponentPad*%
G36*
G01*
X146850000Y-135525000D02*
X146850000Y-136975000D01*
G75*
G02*
X146600000Y-137225000I-250000J0D01*
G01*
X145400000Y-137225000D01*
G75*
G02*
X145150000Y-136975000I0J250000D01*
G01*
X145150000Y-135525000D01*
G75*
G02*
X145400000Y-135275000I250000J0D01*
G01*
X146600000Y-135275000D01*
G75*
G02*
X146850000Y-135525000I0J-250000D01*
G01*
G37*
%TD.AperFunction*%
%TD*%
D10*
%TO.P,J5,2*%
%TO.N,GND*%
X99750000Y-121250000D03*
D11*
%TO.P,J5,1*%
%TO.N,START_CORD*%
X99750000Y-123790000D03*
%TD*%
D15*
%TO.P,J4,*%
%TO.N,*%
X183150000Y-128150000D03*
D16*
%TO.P,J4,3*%
%TO.N,GND*%
X184750000Y-134750000D03*
%TO.P,J4,2*%
%TO.N,Net-(J4-Pad2)*%
X184750000Y-132250000D03*
%TO.P,J4,1*%
%TO.N,+3V3*%
X184750000Y-129750000D03*
%TD*%
D13*
%TO.P,J2,4*%
%TO.N,GND*%
X118750000Y-136250000D03*
%TO.P,J2,3*%
%TO.N,Net-(J2-Pad3)*%
X121250000Y-136250000D03*
%TO.P,J2,2*%
%TO.N,GND*%
X123750000Y-136250000D03*
%TO.P,J2,1*%
%TO.N,Net-(J2-Pad1)*%
%TA.AperFunction,ComponentPad*%
G36*
G01*
X127100000Y-135525000D02*
X127100000Y-136975000D01*
G75*
G02*
X126850000Y-137225000I-250000J0D01*
G01*
X125650000Y-137225000D01*
G75*
G02*
X125400000Y-136975000I0J250000D01*
G01*
X125400000Y-135525000D01*
G75*
G02*
X125650000Y-135275000I250000J0D01*
G01*
X126850000Y-135275000D01*
G75*
G02*
X127100000Y-135525000I0J-250000D01*
G01*
G37*
%TD.AperFunction*%
%TD*%
%TO.P,J1,4*%
%TO.N,+12V*%
X104000000Y-136250000D03*
%TO.P,J1,3*%
%TO.N,+5VD*%
X106500000Y-136250000D03*
%TO.P,J1,2*%
%TO.N,+5V*%
X109000000Y-136250000D03*
%TO.P,J1,1*%
%TO.N,GND*%
%TA.AperFunction,ComponentPad*%
G36*
G01*
X112350000Y-135525000D02*
X112350000Y-136975000D01*
G75*
G02*
X112100000Y-137225000I-250000J0D01*
G01*
X110900000Y-137225000D01*
G75*
G02*
X110650000Y-136975000I0J250000D01*
G01*
X110650000Y-135525000D01*
G75*
G02*
X110900000Y-135275000I250000J0D01*
G01*
X112100000Y-135275000D01*
G75*
G02*
X112350000Y-135525000I0J-250000D01*
G01*
G37*
%TD.AperFunction*%
%TD*%
D17*
%TO.N,+12V*%
X146000000Y-128000000D03*
%TO.N,+5V*%
X135600000Y-133200000D03*
X135600000Y-128200000D03*
%TO.N,+3V3*%
X115800000Y-128600000D03*
%TO.N,SCL*%
X180250000Y-113250000D03*
X182000000Y-122500000D03*
X168000000Y-130250000D03*
X153250000Y-130250000D03*
X138500000Y-130250000D03*
%TO.N,SDA*%
X141000000Y-131500000D03*
X133300000Y-131500000D03*
%TO.N,LIFT_UP*%
X160500000Y-113400001D03*
%TO.N,UPSIDE_DOWN*%
X158000000Y-114250001D03*
%TO.N,RIGHT_WAY_UP*%
X155500000Y-115250000D03*
%TO.N,CLAW_OPEN*%
X153000000Y-116250000D03*
%TO.N,Net-(J3-Pad11)*%
X108750000Y-123749998D03*
%TD*%
D18*
%TO.N,+12V*%
X146000000Y-136250000D02*
X146000000Y-128000000D01*
%TO.N,+5V*%
X135600000Y-133200000D02*
X135600000Y-128200000D01*
D19*
%TO.N,Net-(J2-Pad3)*%
X121250000Y-133825000D02*
X121250000Y-136250000D01*
%TO.N,Net-(J2-Pad1)*%
X126250000Y-133825000D02*
X126250000Y-136250000D01*
D18*
%TO.N,+3V3*%
X98750000Y-111250000D02*
X97000000Y-113000000D01*
X97000000Y-131920598D02*
X103579402Y-138500000D01*
X97000000Y-113000000D02*
X97000000Y-131920598D01*
X160750000Y-137225000D02*
X160750000Y-136250000D01*
X159475000Y-138500000D02*
X160750000Y-137225000D01*
X160750000Y-137225000D02*
X161775000Y-138250000D01*
X161775000Y-138250000D02*
X186500000Y-138250000D01*
X186500000Y-138250000D02*
X188250000Y-136500000D01*
X188250000Y-136500000D02*
X188250000Y-132000000D01*
X186000000Y-129750000D02*
X184750000Y-129750000D01*
X188250000Y-132000000D02*
X186000000Y-129750000D01*
X187225000Y-115000000D02*
X186250000Y-115000000D01*
X188250000Y-116025000D02*
X187225000Y-115000000D01*
X188250000Y-127500000D02*
X188250000Y-116025000D01*
X186000000Y-129750000D02*
X188250000Y-127500000D01*
X172750000Y-108025000D02*
X172750000Y-109000000D01*
X173700010Y-107074990D02*
X172750000Y-108025000D01*
X180995588Y-107074990D02*
X173700010Y-107074990D01*
X186250000Y-112329402D02*
X180995588Y-107074990D01*
X186250000Y-115000000D02*
X186250000Y-112329402D01*
X128000000Y-138500000D02*
X159475000Y-138500000D01*
D19*
X122574990Y-133499990D02*
X122574990Y-138175010D01*
X121250000Y-132175000D02*
X122574990Y-133499990D01*
D18*
X122250000Y-138500000D02*
X128000000Y-138500000D01*
D19*
X122574990Y-138175010D02*
X122250000Y-138500000D01*
X127425010Y-137925010D02*
X128000000Y-138500000D01*
X127425010Y-133350010D02*
X127425010Y-137925010D01*
X126250000Y-132175000D02*
X127425010Y-133350010D01*
D18*
X115800000Y-138200000D02*
X115500000Y-138500000D01*
X115800000Y-128600000D02*
X115800000Y-138200000D01*
X115500000Y-138500000D02*
X122250000Y-138500000D01*
X103579402Y-138500000D02*
X115500000Y-138500000D01*
D20*
X124675000Y-128000000D02*
X124675000Y-125500000D01*
X124675000Y-124605000D02*
X129000000Y-120280000D01*
X124675000Y-125500000D02*
X124675000Y-124605000D01*
D19*
%TO.N,START_CORD*%
X101885000Y-123790000D02*
X101925000Y-123750000D01*
X99750000Y-123790000D02*
X101885000Y-123790000D01*
D20*
%TO.N,SCL*%
X180250000Y-109000000D02*
X180250000Y-113250000D01*
X182000000Y-122500000D02*
X186250000Y-122500000D01*
X168000000Y-130250000D02*
X168000000Y-136250000D01*
X153250000Y-130250000D02*
X153250000Y-136250000D01*
X138500000Y-136250000D02*
X138500000Y-130250000D01*
X128900000Y-128000000D02*
X129000000Y-127900000D01*
X126325000Y-128000000D02*
X128900000Y-128000000D01*
%TO.N,SDA*%
X141000000Y-136250000D02*
X141000000Y-131500000D01*
X133300000Y-127120000D02*
X133300000Y-131500000D01*
X131540000Y-125360000D02*
X133300000Y-127120000D01*
X128860000Y-125500000D02*
X129000000Y-125360000D01*
X126325000Y-125500000D02*
X128860000Y-125500000D01*
%TO.N,LIFT_UP*%
X160500000Y-113400001D02*
X160500000Y-109000000D01*
%TO.N,UPSIDE_DOWN*%
X158000000Y-114250001D02*
X158000000Y-109000000D01*
%TO.N,RIGHT_WAY_UP*%
X155500000Y-115250000D02*
X155500000Y-109000000D01*
%TO.N,CLAW_OPEN*%
X153000000Y-116250000D02*
X153000000Y-109000000D01*
D19*
%TO.N,Net-(J3-Pad11)*%
X103575000Y-123750000D02*
X108749998Y-123750000D01*
X108749998Y-123750000D02*
X108750000Y-123749998D01*
%TD*%
D21*
%TO.N,GND*%
X173631980Y-105689990D02*
X173631973Y-105689990D01*
X173454109Y-105707508D01*
X173428502Y-105710030D01*
X173167429Y-105789226D01*
X172926822Y-105917833D01*
X172926820Y-105917834D01*
X172926821Y-105917834D01*
X172768776Y-106047538D01*
X172768774Y-106047540D01*
X172715929Y-106090909D01*
X172672560Y-106143754D01*
X171818764Y-106997550D01*
X171765919Y-107040920D01*
X171592843Y-107251813D01*
X171542233Y-107346498D01*
X171464236Y-107492420D01*
X171429306Y-107607570D01*
X171385040Y-107753494D01*
X171375646Y-107848869D01*
X171329528Y-107935150D01*
X171278992Y-108101746D01*
X171261928Y-108275000D01*
X171261928Y-109725000D01*
X171278992Y-109898254D01*
X171329528Y-110064850D01*
X171411595Y-110218386D01*
X171522038Y-110352962D01*
X171656614Y-110463405D01*
X171810150Y-110545472D01*
X171976746Y-110596008D01*
X172150000Y-110613072D01*
X173350000Y-110613072D01*
X173523254Y-110596008D01*
X173689850Y-110545472D01*
X173843386Y-110463405D01*
X173977962Y-110352962D01*
X174088405Y-110218386D01*
X174170472Y-110064850D01*
X174221008Y-109898254D01*
X174238072Y-109725000D01*
X174238072Y-108495614D01*
X174273696Y-108459990D01*
X176324072Y-108459990D01*
X176286487Y-108583890D01*
X176265000Y-108802051D01*
X176265000Y-109197950D01*
X176286487Y-109416111D01*
X176371401Y-109696034D01*
X176509294Y-109954014D01*
X176694866Y-110180134D01*
X176920987Y-110365706D01*
X177178967Y-110503599D01*
X177458890Y-110588513D01*
X177750000Y-110617185D01*
X178041111Y-110588513D01*
X178321034Y-110503599D01*
X178579014Y-110365706D01*
X178805134Y-110180134D01*
X178990706Y-109954014D01*
X179000000Y-109936626D01*
X179009294Y-109954014D01*
X179194866Y-110180134D01*
X179365000Y-110319759D01*
X179365001Y-112711544D01*
X179332795Y-112759744D01*
X179254774Y-112948102D01*
X179215000Y-113148061D01*
X179215000Y-113351939D01*
X179254774Y-113551898D01*
X179332795Y-113740256D01*
X179446063Y-113909774D01*
X179590226Y-114053937D01*
X179759744Y-114167205D01*
X179948102Y-114245226D01*
X180148061Y-114285000D01*
X180351939Y-114285000D01*
X180551898Y-114245226D01*
X180740256Y-114167205D01*
X180909774Y-114053937D01*
X181053937Y-113909774D01*
X181167205Y-113740256D01*
X181245226Y-113551898D01*
X181285000Y-113351939D01*
X181285000Y-113148061D01*
X181245226Y-112948102D01*
X181167205Y-112759744D01*
X181135000Y-112711546D01*
X181135000Y-110319759D01*
X181305134Y-110180134D01*
X181490706Y-109954014D01*
X181628599Y-109696033D01*
X181635429Y-109673517D01*
X184865001Y-112903089D01*
X184865000Y-113811076D01*
X184786595Y-113906614D01*
X184704528Y-114060150D01*
X184653992Y-114226746D01*
X184636928Y-114400000D01*
X184636928Y-115600000D01*
X184653992Y-115773254D01*
X184704528Y-115939850D01*
X184786595Y-116093386D01*
X184897038Y-116227962D01*
X185031614Y-116338405D01*
X185185150Y-116420472D01*
X185351746Y-116471008D01*
X185525000Y-116488072D01*
X186754387Y-116488072D01*
X186865001Y-116598687D01*
X186865001Y-118596820D01*
X186666111Y-118536487D01*
X186447950Y-118515000D01*
X186052050Y-118515000D01*
X185833889Y-118536487D01*
X185553966Y-118621401D01*
X185295986Y-118759294D01*
X185069866Y-118944866D01*
X184884294Y-119170986D01*
X184746401Y-119428966D01*
X184661487Y-119708889D01*
X184632815Y-120000000D01*
X184661487Y-120291111D01*
X184746401Y-120571034D01*
X184884294Y-120829014D01*
X185069866Y-121055134D01*
X185295986Y-121240706D01*
X185313374Y-121250000D01*
X185295986Y-121259294D01*
X185069866Y-121444866D01*
X184930241Y-121615000D01*
X182538454Y-121615000D01*
X182490256Y-121582795D01*
X182301898Y-121504774D01*
X182101939Y-121465000D01*
X181898061Y-121465000D01*
X181698102Y-121504774D01*
X181509744Y-121582795D01*
X181340226Y-121696063D01*
X181196063Y-121840226D01*
X181082795Y-122009744D01*
X181004774Y-122198102D01*
X180965000Y-122398061D01*
X180965000Y-122601939D01*
X181004774Y-122801898D01*
X181082795Y-122990256D01*
X181196063Y-123159774D01*
X181340226Y-123303937D01*
X181509744Y-123417205D01*
X181698102Y-123495226D01*
X181898061Y-123535000D01*
X182101939Y-123535000D01*
X182301898Y-123495226D01*
X182490256Y-123417205D01*
X182538454Y-123385000D01*
X184930241Y-123385000D01*
X185069866Y-123555134D01*
X185295986Y-123740706D01*
X185553966Y-123878599D01*
X185833889Y-123963513D01*
X186052050Y-123985000D01*
X186447950Y-123985000D01*
X186666111Y-123963513D01*
X186865000Y-123903180D01*
X186865000Y-126926314D01*
X185426315Y-128365000D01*
X184947920Y-128365000D01*
X184887592Y-128353000D01*
X184776652Y-128353000D01*
X184785000Y-128311033D01*
X184785000Y-127988967D01*
X184722168Y-127673088D01*
X184598918Y-127375537D01*
X184419987Y-127107748D01*
X184192252Y-126880013D01*
X183924463Y-126701082D01*
X183626912Y-126577832D01*
X183311033Y-126515000D01*
X182988967Y-126515000D01*
X182673088Y-126577832D01*
X182375537Y-126701082D01*
X182107748Y-126880013D01*
X181880013Y-127107748D01*
X181701082Y-127375537D01*
X181577832Y-127673088D01*
X181515000Y-127988967D01*
X181515000Y-128311033D01*
X181577832Y-128626912D01*
X181701082Y-128924463D01*
X181880013Y-129192252D01*
X182107748Y-129419987D01*
X182375537Y-129598918D01*
X182673088Y-129722168D01*
X182988967Y-129785000D01*
X183311033Y-129785000D01*
X183353000Y-129776652D01*
X183353000Y-129887592D01*
X183406686Y-130157490D01*
X183511995Y-130411727D01*
X183664880Y-130640535D01*
X183859465Y-130835120D01*
X184088273Y-130988005D01*
X184117231Y-131000000D01*
X184088273Y-131011995D01*
X183859465Y-131164880D01*
X183664880Y-131359465D01*
X183511995Y-131588273D01*
X183406686Y-131842510D01*
X183353000Y-132112408D01*
X183353000Y-132387592D01*
X183406686Y-132657490D01*
X183511995Y-132911727D01*
X183664880Y-133140535D01*
X183859465Y-133335120D01*
X184088273Y-133488005D01*
X184342510Y-133593314D01*
X184612408Y-133647000D01*
X184887592Y-133647000D01*
X185157490Y-133593314D01*
X185411727Y-133488005D01*
X185640535Y-133335120D01*
X185835120Y-133140535D01*
X185988005Y-132911727D01*
X186093314Y-132657490D01*
X186147000Y-132387592D01*
X186147000Y-132112408D01*
X186093314Y-131842510D01*
X186064668Y-131773354D01*
X186865001Y-132573687D01*
X186865000Y-135926314D01*
X185926315Y-136865000D01*
X176988072Y-136865000D01*
X176988072Y-135525000D01*
X176971008Y-135351746D01*
X176920472Y-135185150D01*
X176838405Y-135031614D01*
X176727962Y-134897038D01*
X176593386Y-134786595D01*
X176439850Y-134704528D01*
X176273254Y-134653992D01*
X176100000Y-134636928D01*
X174900000Y-134636928D01*
X174726746Y-134653992D01*
X174560150Y-134704528D01*
X174406614Y-134786595D01*
X174272038Y-134897038D01*
X174161595Y-135031614D01*
X174079528Y-135185150D01*
X174028992Y-135351746D01*
X174011928Y-135525000D01*
X174011928Y-136865000D01*
X171903180Y-136865000D01*
X171963513Y-136666111D01*
X171985000Y-136447950D01*
X171985000Y-136052051D01*
X171963513Y-135833890D01*
X171878599Y-135553967D01*
X171740706Y-135295986D01*
X171555134Y-135069866D01*
X171329014Y-134884294D01*
X171071034Y-134746401D01*
X170791111Y-134661487D01*
X170500000Y-134632815D01*
X170208890Y-134661487D01*
X169928967Y-134746401D01*
X169670987Y-134884294D01*
X169444866Y-135069866D01*
X169259294Y-135295986D01*
X169250000Y-135313374D01*
X169240706Y-135295986D01*
X169055134Y-135069866D01*
X168885000Y-134930241D01*
X168885000Y-130788454D01*
X168917205Y-130740256D01*
X168995226Y-130551898D01*
X169035000Y-130351939D01*
X169035000Y-130148061D01*
X168995226Y-129948102D01*
X168917205Y-129759744D01*
X168803937Y-129590226D01*
X168659774Y-129446063D01*
X168490256Y-129332795D01*
X168301898Y-129254774D01*
X168101939Y-129215000D01*
X167898061Y-129215000D01*
X167698102Y-129254774D01*
X167509744Y-129332795D01*
X167340226Y-129446063D01*
X167196063Y-129590226D01*
X167082795Y-129759744D01*
X167004774Y-129948102D01*
X166965000Y-130148061D01*
X166965000Y-130351939D01*
X167004774Y-130551898D01*
X167082795Y-130740256D01*
X167115000Y-130788454D01*
X167115001Y-134930241D01*
X166944866Y-135069866D01*
X166759294Y-135295986D01*
X166621401Y-135553966D01*
X166536487Y-135833889D01*
X166515000Y-136052050D01*
X166515000Y-136447949D01*
X166536487Y-136666110D01*
X166596820Y-136865000D01*
X162348686Y-136865000D01*
X162238072Y-136754387D01*
X162238072Y-135525000D01*
X162221008Y-135351746D01*
X162170472Y-135185150D01*
X162088405Y-135031614D01*
X161977962Y-134897038D01*
X161843386Y-134786595D01*
X161689850Y-134704528D01*
X161523254Y-134653992D01*
X161350000Y-134636928D01*
X160150000Y-134636928D01*
X159976746Y-134653992D01*
X159810150Y-134704528D01*
X159656614Y-134786595D01*
X159522038Y-134897038D01*
X159411595Y-135031614D01*
X159329528Y-135185150D01*
X159278992Y-135351746D01*
X159261928Y-135525000D01*
X159261928Y-136754386D01*
X158901315Y-137115000D01*
X157038285Y-137115000D01*
X157128599Y-136946034D01*
X157213513Y-136666111D01*
X157235000Y-136447950D01*
X157235000Y-136052051D01*
X157213513Y-135833890D01*
X157128599Y-135553967D01*
X156990706Y-135295986D01*
X156805134Y-135069866D01*
X156579014Y-134884294D01*
X156321034Y-134746401D01*
X156041111Y-134661487D01*
X155750000Y-134632815D01*
X155458890Y-134661487D01*
X155178967Y-134746401D01*
X154920987Y-134884294D01*
X154694866Y-135069866D01*
X154509294Y-135295986D01*
X154500000Y-135313374D01*
X154490706Y-135295986D01*
X154305134Y-135069866D01*
X154135000Y-134930241D01*
X154135000Y-130788454D01*
X154167205Y-130740256D01*
X154245226Y-130551898D01*
X154285000Y-130351939D01*
X154285000Y-130148061D01*
X154245226Y-129948102D01*
X154167205Y-129759744D01*
X154053937Y-129590226D01*
X153909774Y-129446063D01*
X153740256Y-129332795D01*
X153551898Y-129254774D01*
X153351939Y-129215000D01*
X153148061Y-129215000D01*
X152948102Y-129254774D01*
X152759744Y-129332795D01*
X152590226Y-129446063D01*
X152446063Y-129590226D01*
X152332795Y-129759744D01*
X152254774Y-129948102D01*
X152215000Y-130148061D01*
X152215000Y-130351939D01*
X152254774Y-130551898D01*
X152332795Y-130740256D01*
X152365000Y-130788454D01*
X152365001Y-134930241D01*
X152194866Y-135069866D01*
X152009294Y-135295986D01*
X151871401Y-135553966D01*
X151786487Y-135833889D01*
X151765000Y-136052050D01*
X151765000Y-136447949D01*
X151786487Y-136666110D01*
X151871401Y-136946033D01*
X151961716Y-137115000D01*
X147474283Y-137115000D01*
X147488072Y-136975000D01*
X147488072Y-135525000D01*
X147471008Y-135351746D01*
X147420472Y-135185150D01*
X147385000Y-135118787D01*
X147385000Y-127931963D01*
X147364960Y-127728493D01*
X147285764Y-127467419D01*
X147157157Y-127226812D01*
X146984081Y-127015919D01*
X146773188Y-126842843D01*
X146532581Y-126714236D01*
X146271507Y-126635040D01*
X146000000Y-126608299D01*
X145728494Y-126635040D01*
X145467420Y-126714236D01*
X145226813Y-126842843D01*
X145015920Y-127015919D01*
X144842844Y-127226812D01*
X144714237Y-127467419D01*
X144635041Y-127728493D01*
X144615001Y-127931963D01*
X144615000Y-135118787D01*
X144579528Y-135185150D01*
X144528992Y-135351746D01*
X144511928Y-135525000D01*
X144511928Y-136975000D01*
X144525717Y-137115000D01*
X142288285Y-137115000D01*
X142378599Y-136946034D01*
X142463513Y-136666111D01*
X142485000Y-136447950D01*
X142485000Y-136052051D01*
X142463513Y-135833890D01*
X142378599Y-135553967D01*
X142240706Y-135295986D01*
X142055134Y-135069866D01*
X141885000Y-134930241D01*
X141885000Y-132038454D01*
X141917205Y-131990256D01*
X141995226Y-131801898D01*
X142035000Y-131601939D01*
X142035000Y-131398061D01*
X141995226Y-131198102D01*
X141917205Y-131009744D01*
X141803937Y-130840226D01*
X141659774Y-130696063D01*
X141490256Y-130582795D01*
X141301898Y-130504774D01*
X141101939Y-130465000D01*
X140898061Y-130465000D01*
X140698102Y-130504774D01*
X140509744Y-130582795D01*
X140340226Y-130696063D01*
X140196063Y-130840226D01*
X140082795Y-131009744D01*
X140004774Y-131198102D01*
X139965000Y-131398061D01*
X139965000Y-131601939D01*
X140004774Y-131801898D01*
X140082795Y-131990256D01*
X140115001Y-132038456D01*
X140115000Y-134930241D01*
X139944866Y-135069866D01*
X139759294Y-135295986D01*
X139750000Y-135313374D01*
X139740706Y-135295986D01*
X139555134Y-135069866D01*
X139385000Y-134930241D01*
X139385000Y-130788454D01*
X139417205Y-130740256D01*
X139495226Y-130551898D01*
X139535000Y-130351939D01*
X139535000Y-130148061D01*
X139495226Y-129948102D01*
X139417205Y-129759744D01*
X139303937Y-129590226D01*
X139159774Y-129446063D01*
X138990256Y-129332795D01*
X138801898Y-129254774D01*
X138601939Y-129215000D01*
X138398061Y-129215000D01*
X138198102Y-129254774D01*
X138009744Y-129332795D01*
X137840226Y-129446063D01*
X137696063Y-129590226D01*
X137582795Y-129759744D01*
X137504774Y-129948102D01*
X137465000Y-130148061D01*
X137465000Y-130351939D01*
X137504774Y-130551898D01*
X137582795Y-130740256D01*
X137615001Y-130788456D01*
X137615000Y-134930241D01*
X137444866Y-135069866D01*
X137259294Y-135295986D01*
X137250000Y-135313374D01*
X137240706Y-135295986D01*
X137055134Y-135069866D01*
X136829014Y-134884294D01*
X136571034Y-134746401D01*
X136291111Y-134661487D01*
X136000000Y-134632815D01*
X135708890Y-134661487D01*
X135428967Y-134746401D01*
X135170987Y-134884294D01*
X134944866Y-135069866D01*
X134759294Y-135295986D01*
X134750000Y-135313374D01*
X134740706Y-135295986D01*
X134555134Y-135069866D01*
X134329014Y-134884294D01*
X134071034Y-134746401D01*
X133791111Y-134661487D01*
X133500000Y-134632815D01*
X133208890Y-134661487D01*
X132928967Y-134746401D01*
X132670987Y-134884294D01*
X132444866Y-135069866D01*
X132259294Y-135295986D01*
X132121401Y-135553966D01*
X132036487Y-135833889D01*
X132015000Y-136052050D01*
X132015000Y-136447949D01*
X132036487Y-136666110D01*
X132121401Y-136946033D01*
X132211716Y-137115000D01*
X128185010Y-137115000D01*
X128185010Y-133387332D01*
X128188686Y-133350009D01*
X128185010Y-133312686D01*
X128185010Y-133312677D01*
X128174013Y-133201024D01*
X128130556Y-133057763D01*
X128091172Y-132984081D01*
X128059984Y-132925733D01*
X127988809Y-132839007D01*
X127965011Y-132810009D01*
X127936014Y-132786212D01*
X127363072Y-132213271D01*
X127363072Y-131975000D01*
X127346969Y-131811500D01*
X127299278Y-131654284D01*
X127221831Y-131509392D01*
X127117606Y-131382394D01*
X126990608Y-131278169D01*
X126845716Y-131200722D01*
X126688500Y-131153031D01*
X126525000Y-131136928D01*
X125975000Y-131136928D01*
X125811500Y-131153031D01*
X125654284Y-131200722D01*
X125509392Y-131278169D01*
X125382394Y-131382394D01*
X125278169Y-131509392D01*
X125200722Y-131654284D01*
X125153031Y-131811500D01*
X125136928Y-131975000D01*
X125136928Y-132375000D01*
X125153031Y-132538500D01*
X125200722Y-132695716D01*
X125278169Y-132840608D01*
X125382394Y-132967606D01*
X125421866Y-133000000D01*
X125382394Y-133032394D01*
X125278169Y-133159392D01*
X125200722Y-133304284D01*
X125153031Y-133461500D01*
X125136928Y-133625000D01*
X125136928Y-134025000D01*
X125153031Y-134188500D01*
X125200722Y-134345716D01*
X125278169Y-134490608D01*
X125382394Y-134617606D01*
X125440228Y-134665069D01*
X125310150Y-134704528D01*
X125156614Y-134786595D01*
X125022038Y-134897038D01*
X124911595Y-135031614D01*
X124829528Y-135185150D01*
X124778992Y-135351746D01*
X124761928Y-135525000D01*
X124761928Y-136975000D01*
X124775717Y-137115000D01*
X123334990Y-137115000D01*
X123334990Y-133537313D01*
X123338666Y-133499990D01*
X123334990Y-133462667D01*
X123334990Y-133462657D01*
X123323993Y-133351004D01*
X123280536Y-133207743D01*
X123209964Y-133075714D01*
X123114991Y-132959989D01*
X123085994Y-132936192D01*
X122363072Y-132213271D01*
X122363072Y-131975000D01*
X122346969Y-131811500D01*
X122299278Y-131654284D01*
X122221831Y-131509392D01*
X122117606Y-131382394D01*
X121990608Y-131278169D01*
X121845716Y-131200722D01*
X121688500Y-131153031D01*
X121525000Y-131136928D01*
X120975000Y-131136928D01*
X120811500Y-131153031D01*
X120654284Y-131200722D01*
X120509392Y-131278169D01*
X120382394Y-131382394D01*
X120278169Y-131509392D01*
X120200722Y-131654284D01*
X120153031Y-131811500D01*
X120136928Y-131975000D01*
X120136928Y-132375000D01*
X120153031Y-132538500D01*
X120200722Y-132695716D01*
X120278169Y-132840608D01*
X120382394Y-132967606D01*
X120421866Y-133000000D01*
X120382394Y-133032394D01*
X120278169Y-133159392D01*
X120200722Y-133304284D01*
X120153031Y-133461500D01*
X120136928Y-133625000D01*
X120136928Y-134025000D01*
X120153031Y-134188500D01*
X120200722Y-134345716D01*
X120278169Y-134490608D01*
X120382394Y-134617606D01*
X120490000Y-134705917D01*
X120490000Y-134847406D01*
X120420987Y-134884294D01*
X120194866Y-135069866D01*
X120009294Y-135295986D01*
X119871401Y-135553966D01*
X119786487Y-135833889D01*
X119765000Y-136052050D01*
X119765000Y-136447949D01*
X119786487Y-136666110D01*
X119871401Y-136946033D01*
X119961716Y-137115000D01*
X117185000Y-137115000D01*
X117185000Y-128531963D01*
X117164960Y-128328493D01*
X117085764Y-128067419D01*
X116957157Y-127826812D01*
X116784080Y-127615919D01*
X116573187Y-127442843D01*
X116332580Y-127314236D01*
X116071506Y-127235040D01*
X115800000Y-127208299D01*
X115528493Y-127235040D01*
X115267419Y-127314236D01*
X115026812Y-127442843D01*
X114815919Y-127615920D01*
X114642843Y-127826813D01*
X114514236Y-128067420D01*
X114435040Y-128328494D01*
X114415000Y-128531964D01*
X114415001Y-137115000D01*
X110288285Y-137115000D01*
X110378599Y-136946034D01*
X110463513Y-136666111D01*
X110485000Y-136447950D01*
X110485000Y-136052051D01*
X110463513Y-135833890D01*
X110378599Y-135553967D01*
X110240706Y-135295986D01*
X110055134Y-135069866D01*
X109829014Y-134884294D01*
X109571034Y-134746401D01*
X109291111Y-134661487D01*
X109000000Y-134632815D01*
X108708890Y-134661487D01*
X108428967Y-134746401D01*
X108170987Y-134884294D01*
X107944866Y-135069866D01*
X107759294Y-135295986D01*
X107750000Y-135313374D01*
X107740706Y-135295986D01*
X107555134Y-135069866D01*
X107329014Y-134884294D01*
X107071034Y-134746401D01*
X106791111Y-134661487D01*
X106500000Y-134632815D01*
X106208890Y-134661487D01*
X105928967Y-134746401D01*
X105670987Y-134884294D01*
X105444866Y-135069866D01*
X105259294Y-135295986D01*
X105250000Y-135313374D01*
X105240706Y-135295986D01*
X105055134Y-135069866D01*
X104829014Y-134884294D01*
X104571034Y-134746401D01*
X104291111Y-134661487D01*
X104000000Y-134632815D01*
X103708890Y-134661487D01*
X103428967Y-134746401D01*
X103170987Y-134884294D01*
X102944866Y-135069866D01*
X102759294Y-135295986D01*
X102621401Y-135553966D01*
X102614571Y-135576483D01*
X98385000Y-131346913D01*
X98385000Y-125013426D01*
X98448815Y-125091185D01*
X98545506Y-125170537D01*
X98655820Y-125229502D01*
X98775518Y-125265812D01*
X98900000Y-125278072D01*
X100600000Y-125278072D01*
X100724482Y-125265812D01*
X100844180Y-125229502D01*
X100954494Y-125170537D01*
X101051185Y-125091185D01*
X101130537Y-124994494D01*
X101189502Y-124884180D01*
X101225812Y-124764482D01*
X101232210Y-124699523D01*
X101259392Y-124721831D01*
X101404284Y-124799278D01*
X101561500Y-124846969D01*
X101725000Y-124863072D01*
X102125000Y-124863072D01*
X102288500Y-124846969D01*
X102445716Y-124799278D01*
X102590608Y-124721831D01*
X102717606Y-124617606D01*
X102750000Y-124578134D01*
X102782394Y-124617606D01*
X102909392Y-124721831D01*
X103054284Y-124799278D01*
X103211500Y-124846969D01*
X103375000Y-124863072D01*
X103775000Y-124863072D01*
X103938500Y-124846969D01*
X104095716Y-124799278D01*
X104240608Y-124721831D01*
X104367606Y-124617606D01*
X104455916Y-124510000D01*
X108046291Y-124510000D01*
X108090226Y-124553935D01*
X108259744Y-124667203D01*
X108448102Y-124745224D01*
X108648061Y-124784998D01*
X108851939Y-124784998D01*
X109051898Y-124745224D01*
X109240256Y-124667203D01*
X109409774Y-124553935D01*
X109553937Y-124409772D01*
X109667205Y-124240254D01*
X109745226Y-124051896D01*
X109785000Y-123851937D01*
X109785000Y-123648059D01*
X109745226Y-123448100D01*
X109667205Y-123259742D01*
X109553937Y-123090224D01*
X109409774Y-122946061D01*
X109240256Y-122832793D01*
X109051898Y-122754772D01*
X108851939Y-122714998D01*
X108648061Y-122714998D01*
X108448102Y-122754772D01*
X108259744Y-122832793D01*
X108090226Y-122946061D01*
X108046287Y-122990000D01*
X104455916Y-122990000D01*
X104367606Y-122882394D01*
X104240608Y-122778169D01*
X104095716Y-122700722D01*
X103938500Y-122653031D01*
X103775000Y-122636928D01*
X103375000Y-122636928D01*
X103211500Y-122653031D01*
X103054284Y-122700722D01*
X102909392Y-122778169D01*
X102782394Y-122882394D01*
X102750000Y-122921866D01*
X102717606Y-122882394D01*
X102590608Y-122778169D01*
X102445716Y-122700722D01*
X102288500Y-122653031D01*
X102125000Y-122636928D01*
X101725000Y-122636928D01*
X101561500Y-122653031D01*
X101404284Y-122700722D01*
X101259392Y-122778169D01*
X101223434Y-122807679D01*
X101189502Y-122695820D01*
X101130537Y-122585506D01*
X101051185Y-122488815D01*
X100954494Y-122409463D01*
X100844180Y-122350498D01*
X100724482Y-122314188D01*
X100600000Y-122301928D01*
X98900000Y-122301928D01*
X98775518Y-122314188D01*
X98655820Y-122350498D01*
X98545506Y-122409463D01*
X98448815Y-122488815D01*
X98385000Y-122566574D01*
X98385000Y-122122285D01*
X111165000Y-122122285D01*
X111165000Y-122877715D01*
X111312377Y-123618628D01*
X111601467Y-124316554D01*
X112021161Y-124944670D01*
X112555330Y-125478839D01*
X113183446Y-125898533D01*
X113881372Y-126187623D01*
X114622285Y-126335000D01*
X115377715Y-126335000D01*
X116118628Y-126187623D01*
X116816554Y-125898533D01*
X117444670Y-125478839D01*
X117698509Y-125225000D01*
X123636928Y-125225000D01*
X123636928Y-125775000D01*
X123653031Y-125938500D01*
X123700722Y-126095716D01*
X123778169Y-126240608D01*
X123790001Y-126255025D01*
X123790000Y-127244976D01*
X123778169Y-127259392D01*
X123700722Y-127404284D01*
X123653031Y-127561500D01*
X123636928Y-127725000D01*
X123636928Y-128275000D01*
X123653031Y-128438500D01*
X123700722Y-128595716D01*
X123778169Y-128740608D01*
X123882394Y-128867606D01*
X124009392Y-128971831D01*
X124154284Y-129049278D01*
X124311500Y-129096969D01*
X124475000Y-129113072D01*
X124875000Y-129113072D01*
X125038500Y-129096969D01*
X125195716Y-129049278D01*
X125340608Y-128971831D01*
X125467606Y-128867606D01*
X125500000Y-128828134D01*
X125532394Y-128867606D01*
X125659392Y-128971831D01*
X125804284Y-129049278D01*
X125961500Y-129096969D01*
X126125000Y-129113072D01*
X126525000Y-129113072D01*
X126688500Y-129096969D01*
X126845716Y-129049278D01*
X126990608Y-128971831D01*
X127096411Y-128885000D01*
X127884893Y-128885000D01*
X128053368Y-129053475D01*
X128296589Y-129215990D01*
X128566842Y-129327932D01*
X128853740Y-129385000D01*
X129146260Y-129385000D01*
X129433158Y-129327932D01*
X129703411Y-129215990D01*
X129946632Y-129053475D01*
X130153475Y-128846632D01*
X130270000Y-128672240D01*
X130386525Y-128846632D01*
X130593368Y-129053475D01*
X130836589Y-129215990D01*
X131106842Y-129327932D01*
X131393740Y-129385000D01*
X131686260Y-129385000D01*
X131973158Y-129327932D01*
X132243411Y-129215990D01*
X132415000Y-129101338D01*
X132415001Y-130961544D01*
X132382795Y-131009744D01*
X132304774Y-131198102D01*
X132265000Y-131398061D01*
X132265000Y-131601939D01*
X132304774Y-131801898D01*
X132382795Y-131990256D01*
X132496063Y-132159774D01*
X132640226Y-132303937D01*
X132809744Y-132417205D01*
X132998102Y-132495226D01*
X133198061Y-132535000D01*
X133401939Y-132535000D01*
X133601898Y-132495226D01*
X133790256Y-132417205D01*
X133959774Y-132303937D01*
X134103937Y-132159774D01*
X134215000Y-131993556D01*
X134215000Y-133268036D01*
X134235040Y-133471506D01*
X134314236Y-133732580D01*
X134442843Y-133973187D01*
X134615919Y-134184080D01*
X134826812Y-134357157D01*
X135067419Y-134485764D01*
X135328493Y-134564960D01*
X135600000Y-134591701D01*
X135871506Y-134564960D01*
X136132580Y-134485764D01*
X136373187Y-134357157D01*
X136584080Y-134184081D01*
X136757157Y-133973188D01*
X136885764Y-133732581D01*
X136964960Y-133471507D01*
X136985000Y-133268037D01*
X136985000Y-128131963D01*
X136964960Y-127928493D01*
X136885764Y-127667419D01*
X136757157Y-127426812D01*
X136584081Y-127215919D01*
X136373188Y-127042843D01*
X136132581Y-126914236D01*
X135871507Y-126835040D01*
X135600000Y-126808299D01*
X135328494Y-126835040D01*
X135067420Y-126914236D01*
X134826813Y-127042843D01*
X134615920Y-127215919D01*
X134442844Y-127426812D01*
X134314237Y-127667419D01*
X134235041Y-127928493D01*
X134215001Y-128131963D01*
X134215000Y-131006445D01*
X134185000Y-130961546D01*
X134185000Y-127163469D01*
X134189281Y-127120000D01*
X134185000Y-127076531D01*
X134185000Y-127076523D01*
X134172195Y-126946510D01*
X134121589Y-126779687D01*
X134039411Y-126625941D01*
X134028850Y-126613072D01*
X133956532Y-126524953D01*
X133956530Y-126524951D01*
X133928817Y-126491183D01*
X133895050Y-126463471D01*
X133010539Y-125578960D01*
X133025000Y-125506260D01*
X133025000Y-125213740D01*
X132967932Y-124926842D01*
X132855990Y-124656589D01*
X132693475Y-124413368D01*
X132486632Y-124206525D01*
X132243411Y-124044010D01*
X131973158Y-123932068D01*
X131686260Y-123875000D01*
X131393740Y-123875000D01*
X131106842Y-123932068D01*
X130836589Y-124044010D01*
X130593368Y-124206525D01*
X130386525Y-124413368D01*
X130270000Y-124587760D01*
X130153475Y-124413368D01*
X129946632Y-124206525D01*
X129703411Y-124044010D01*
X129433158Y-123932068D01*
X129146260Y-123875000D01*
X128853740Y-123875000D01*
X128566842Y-123932068D01*
X128296589Y-124044010D01*
X128053368Y-124206525D01*
X127846525Y-124413368D01*
X127711799Y-124615000D01*
X127096411Y-124615000D01*
X126990608Y-124528169D01*
X126845716Y-124450722D01*
X126688500Y-124403031D01*
X126525000Y-124386928D01*
X126144650Y-124386928D01*
X128409293Y-122122285D01*
X166165000Y-122122285D01*
X166165000Y-122877715D01*
X166312377Y-123618628D01*
X166601467Y-124316554D01*
X167021161Y-124944670D01*
X167555330Y-125478839D01*
X168183446Y-125898533D01*
X168881372Y-126187623D01*
X169622285Y-126335000D01*
X170377715Y-126335000D01*
X171118628Y-126187623D01*
X171816554Y-125898533D01*
X172444670Y-125478839D01*
X172978839Y-124944670D01*
X173398533Y-124316554D01*
X173687623Y-123618628D01*
X173835000Y-122877715D01*
X173835000Y-122122285D01*
X173687623Y-121381372D01*
X173398533Y-120683446D01*
X172978839Y-120055330D01*
X172444670Y-119521161D01*
X171816554Y-119101467D01*
X171118628Y-118812377D01*
X170377715Y-118665000D01*
X169622285Y-118665000D01*
X168881372Y-118812377D01*
X168183446Y-119101467D01*
X167555330Y-119521161D01*
X167021161Y-120055330D01*
X166601467Y-120683446D01*
X166312377Y-121381372D01*
X166165000Y-122122285D01*
X128409293Y-122122285D01*
X128781040Y-121750539D01*
X128853740Y-121765000D01*
X129146260Y-121765000D01*
X129433158Y-121707932D01*
X129703411Y-121595990D01*
X129946632Y-121433475D01*
X130153475Y-121226632D01*
X130270000Y-121052240D01*
X130386525Y-121226632D01*
X130593368Y-121433475D01*
X130836589Y-121595990D01*
X131106842Y-121707932D01*
X131393740Y-121765000D01*
X131686260Y-121765000D01*
X131973158Y-121707932D01*
X132243411Y-121595990D01*
X132486632Y-121433475D01*
X132693475Y-121226632D01*
X132855990Y-120983411D01*
X132967932Y-120713158D01*
X133025000Y-120426260D01*
X133025000Y-120133740D01*
X132967932Y-119846842D01*
X132855990Y-119576589D01*
X132693475Y-119333368D01*
X132486632Y-119126525D01*
X132312240Y-119010000D01*
X132486632Y-118893475D01*
X132693475Y-118686632D01*
X132855990Y-118443411D01*
X132967932Y-118173158D01*
X133025000Y-117886260D01*
X133025000Y-117593740D01*
X132967932Y-117306842D01*
X132855990Y-117036589D01*
X132693475Y-116793368D01*
X132486632Y-116586525D01*
X132312240Y-116470000D01*
X132486632Y-116353475D01*
X132693475Y-116146632D01*
X132855990Y-115903411D01*
X132967932Y-115633158D01*
X133025000Y-115346260D01*
X133025000Y-115053740D01*
X132967932Y-114766842D01*
X132855990Y-114496589D01*
X132693475Y-114253368D01*
X132486632Y-114046525D01*
X132243411Y-113884010D01*
X131973158Y-113772068D01*
X131686260Y-113715000D01*
X131393740Y-113715000D01*
X131106842Y-113772068D01*
X130836589Y-113884010D01*
X130593368Y-114046525D01*
X130461513Y-114178380D01*
X130439502Y-114105820D01*
X130380537Y-113995506D01*
X130301185Y-113898815D01*
X130204494Y-113819463D01*
X130094180Y-113760498D01*
X129974482Y-113724188D01*
X129850000Y-113711928D01*
X128150000Y-113711928D01*
X128025518Y-113724188D01*
X127905820Y-113760498D01*
X127795506Y-113819463D01*
X127698815Y-113898815D01*
X127619463Y-113995506D01*
X127560498Y-114105820D01*
X127524188Y-114225518D01*
X127511928Y-114350000D01*
X127511928Y-116050000D01*
X127524188Y-116174482D01*
X127560498Y-116294180D01*
X127619463Y-116404494D01*
X127698815Y-116501185D01*
X127795506Y-116580537D01*
X127905820Y-116639502D01*
X127978380Y-116661513D01*
X127846525Y-116793368D01*
X127684010Y-117036589D01*
X127572068Y-117306842D01*
X127515000Y-117593740D01*
X127515000Y-117886260D01*
X127572068Y-118173158D01*
X127684010Y-118443411D01*
X127846525Y-118686632D01*
X128053368Y-118893475D01*
X128227760Y-119010000D01*
X128053368Y-119126525D01*
X127846525Y-119333368D01*
X127684010Y-119576589D01*
X127572068Y-119846842D01*
X127515000Y-120133740D01*
X127515000Y-120426260D01*
X127529461Y-120498960D01*
X124079951Y-123948470D01*
X124046184Y-123976183D01*
X124018471Y-124009951D01*
X124018468Y-124009954D01*
X123935590Y-124110941D01*
X123853412Y-124264687D01*
X123802805Y-124431510D01*
X123796158Y-124499002D01*
X123790000Y-124561523D01*
X123790000Y-124561531D01*
X123785719Y-124605000D01*
X123790000Y-124648469D01*
X123790000Y-124744976D01*
X123778169Y-124759392D01*
X123700722Y-124904284D01*
X123653031Y-125061500D01*
X123636928Y-125225000D01*
X117698509Y-125225000D01*
X117978839Y-124944670D01*
X118398533Y-124316554D01*
X118687623Y-123618628D01*
X118835000Y-122877715D01*
X118835000Y-122122285D01*
X118687623Y-121381372D01*
X118398533Y-120683446D01*
X117978839Y-120055330D01*
X117444670Y-119521161D01*
X116816554Y-119101467D01*
X116118628Y-118812377D01*
X115377715Y-118665000D01*
X114622285Y-118665000D01*
X113881372Y-118812377D01*
X113183446Y-119101467D01*
X112555330Y-119521161D01*
X112021161Y-120055330D01*
X111601467Y-120683446D01*
X111312377Y-121381372D01*
X111165000Y-122122285D01*
X98385000Y-122122285D01*
X98385000Y-113573685D01*
X99220614Y-112738072D01*
X99600000Y-112738072D01*
X99724482Y-112725812D01*
X99844180Y-112689502D01*
X99954494Y-112630537D01*
X100051185Y-112551185D01*
X100130537Y-112454494D01*
X100189502Y-112344180D01*
X100211513Y-112271620D01*
X100343368Y-112403475D01*
X100586589Y-112565990D01*
X100856842Y-112677932D01*
X101143740Y-112735000D01*
X101436260Y-112735000D01*
X101723158Y-112677932D01*
X101993411Y-112565990D01*
X102236632Y-112403475D01*
X102443475Y-112196632D01*
X102560000Y-112022240D01*
X102676525Y-112196632D01*
X102883368Y-112403475D01*
X103126589Y-112565990D01*
X103396842Y-112677932D01*
X103683740Y-112735000D01*
X103976260Y-112735000D01*
X104263158Y-112677932D01*
X104533411Y-112565990D01*
X104776632Y-112403475D01*
X104983475Y-112196632D01*
X105100000Y-112022240D01*
X105216525Y-112196632D01*
X105423368Y-112403475D01*
X105666589Y-112565990D01*
X105936842Y-112677932D01*
X106223740Y-112735000D01*
X106516260Y-112735000D01*
X106803158Y-112677932D01*
X107073411Y-112565990D01*
X107316632Y-112403475D01*
X107523475Y-112196632D01*
X107640000Y-112022240D01*
X107756525Y-112196632D01*
X107963368Y-112403475D01*
X108206589Y-112565990D01*
X108476842Y-112677932D01*
X108763740Y-112735000D01*
X109056260Y-112735000D01*
X109343158Y-112677932D01*
X109613411Y-112565990D01*
X109856632Y-112403475D01*
X110063475Y-112196632D01*
X110180000Y-112022240D01*
X110296525Y-112196632D01*
X110503368Y-112403475D01*
X110746589Y-112565990D01*
X111016842Y-112677932D01*
X111303740Y-112735000D01*
X111596260Y-112735000D01*
X111883158Y-112677932D01*
X112153411Y-112565990D01*
X112396632Y-112403475D01*
X112603475Y-112196632D01*
X112720000Y-112022240D01*
X112836525Y-112196632D01*
X113043368Y-112403475D01*
X113286589Y-112565990D01*
X113556842Y-112677932D01*
X113843740Y-112735000D01*
X114136260Y-112735000D01*
X114423158Y-112677932D01*
X114693411Y-112565990D01*
X114936632Y-112403475D01*
X115143475Y-112196632D01*
X115260000Y-112022240D01*
X115376525Y-112196632D01*
X115583368Y-112403475D01*
X115826589Y-112565990D01*
X116096842Y-112677932D01*
X116383740Y-112735000D01*
X116676260Y-112735000D01*
X116963158Y-112677932D01*
X117233411Y-112565990D01*
X117476632Y-112403475D01*
X117683475Y-112196632D01*
X117800000Y-112022240D01*
X117916525Y-112196632D01*
X118123368Y-112403475D01*
X118366589Y-112565990D01*
X118636842Y-112677932D01*
X118923740Y-112735000D01*
X119216260Y-112735000D01*
X119503158Y-112677932D01*
X119773411Y-112565990D01*
X120016632Y-112403475D01*
X120223475Y-112196632D01*
X120340000Y-112022240D01*
X120456525Y-112196632D01*
X120663368Y-112403475D01*
X120906589Y-112565990D01*
X121176842Y-112677932D01*
X121463740Y-112735000D01*
X121756260Y-112735000D01*
X122043158Y-112677932D01*
X122313411Y-112565990D01*
X122556632Y-112403475D01*
X122763475Y-112196632D01*
X122880000Y-112022240D01*
X122996525Y-112196632D01*
X123203368Y-112403475D01*
X123446589Y-112565990D01*
X123716842Y-112677932D01*
X124003740Y-112735000D01*
X124296260Y-112735000D01*
X124583158Y-112677932D01*
X124853411Y-112565990D01*
X125096632Y-112403475D01*
X125303475Y-112196632D01*
X125420000Y-112022240D01*
X125536525Y-112196632D01*
X125743368Y-112403475D01*
X125986589Y-112565990D01*
X126256842Y-112677932D01*
X126543740Y-112735000D01*
X126836260Y-112735000D01*
X127123158Y-112677932D01*
X127393411Y-112565990D01*
X127636632Y-112403475D01*
X127843475Y-112196632D01*
X127960000Y-112022240D01*
X128076525Y-112196632D01*
X128283368Y-112403475D01*
X128526589Y-112565990D01*
X128796842Y-112677932D01*
X129083740Y-112735000D01*
X129376260Y-112735000D01*
X129663158Y-112677932D01*
X129933411Y-112565990D01*
X130176632Y-112403475D01*
X130383475Y-112196632D01*
X130500000Y-112022240D01*
X130616525Y-112196632D01*
X130823368Y-112403475D01*
X131066589Y-112565990D01*
X131336842Y-112677932D01*
X131623740Y-112735000D01*
X131916260Y-112735000D01*
X132203158Y-112677932D01*
X132473411Y-112565990D01*
X132716632Y-112403475D01*
X132923475Y-112196632D01*
X133040000Y-112022240D01*
X133156525Y-112196632D01*
X133363368Y-112403475D01*
X133606589Y-112565990D01*
X133876842Y-112677932D01*
X134163740Y-112735000D01*
X134456260Y-112735000D01*
X134743158Y-112677932D01*
X135013411Y-112565990D01*
X135256632Y-112403475D01*
X135463475Y-112196632D01*
X135580000Y-112022240D01*
X135696525Y-112196632D01*
X135903368Y-112403475D01*
X136146589Y-112565990D01*
X136416842Y-112677932D01*
X136703740Y-112735000D01*
X136996260Y-112735000D01*
X137283158Y-112677932D01*
X137553411Y-112565990D01*
X137796632Y-112403475D01*
X138003475Y-112196632D01*
X138120000Y-112022240D01*
X138236525Y-112196632D01*
X138443368Y-112403475D01*
X138686589Y-112565990D01*
X138956842Y-112677932D01*
X139243740Y-112735000D01*
X139536260Y-112735000D01*
X139823158Y-112677932D01*
X140093411Y-112565990D01*
X140336632Y-112403475D01*
X140543475Y-112196632D01*
X140660000Y-112022240D01*
X140776525Y-112196632D01*
X140983368Y-112403475D01*
X141226589Y-112565990D01*
X141496842Y-112677932D01*
X141783740Y-112735000D01*
X142076260Y-112735000D01*
X142363158Y-112677932D01*
X142633411Y-112565990D01*
X142876632Y-112403475D01*
X143083475Y-112196632D01*
X143200000Y-112022240D01*
X143316525Y-112196632D01*
X143523368Y-112403475D01*
X143766589Y-112565990D01*
X144036842Y-112677932D01*
X144323740Y-112735000D01*
X144616260Y-112735000D01*
X144903158Y-112677932D01*
X145173411Y-112565990D01*
X145416632Y-112403475D01*
X145623475Y-112196632D01*
X145740000Y-112022240D01*
X145856525Y-112196632D01*
X146063368Y-112403475D01*
X146306589Y-112565990D01*
X146576842Y-112677932D01*
X146863740Y-112735000D01*
X147156260Y-112735000D01*
X147443158Y-112677932D01*
X147713411Y-112565990D01*
X147956632Y-112403475D01*
X148163475Y-112196632D01*
X148325990Y-111953411D01*
X148437932Y-111683158D01*
X148495000Y-111396260D01*
X148495000Y-111103740D01*
X148437932Y-110816842D01*
X148325990Y-110546589D01*
X148163475Y-110303368D01*
X147956632Y-110096525D01*
X147782240Y-109980000D01*
X147956632Y-109863475D01*
X148163475Y-109656632D01*
X148325990Y-109413411D01*
X148437932Y-109143158D01*
X148495000Y-108856260D01*
X148495000Y-108563740D01*
X148437932Y-108276842D01*
X148437170Y-108275000D01*
X151511928Y-108275000D01*
X151511928Y-109725000D01*
X151528992Y-109898254D01*
X151579528Y-110064850D01*
X151661595Y-110218386D01*
X151772038Y-110352962D01*
X151906614Y-110463405D01*
X152060150Y-110545472D01*
X152115001Y-110562111D01*
X152115000Y-115711546D01*
X152082795Y-115759744D01*
X152004774Y-115948102D01*
X151965000Y-116148061D01*
X151965000Y-116351939D01*
X152004774Y-116551898D01*
X152082795Y-116740256D01*
X152196063Y-116909774D01*
X152340226Y-117053937D01*
X152509744Y-117167205D01*
X152698102Y-117245226D01*
X152898061Y-117285000D01*
X153101939Y-117285000D01*
X153301898Y-117245226D01*
X153490256Y-117167205D01*
X153659774Y-117053937D01*
X153803937Y-116909774D01*
X153917205Y-116740256D01*
X153995226Y-116551898D01*
X154035000Y-116351939D01*
X154035000Y-116148061D01*
X153995226Y-115948102D01*
X153917205Y-115759744D01*
X153885000Y-115711546D01*
X153885000Y-110562110D01*
X153939850Y-110545472D01*
X154093386Y-110463405D01*
X154227962Y-110352962D01*
X154338405Y-110218386D01*
X154392777Y-110116663D01*
X154444866Y-110180134D01*
X154615001Y-110319759D01*
X154615000Y-114711546D01*
X154582795Y-114759744D01*
X154504774Y-114948102D01*
X154465000Y-115148061D01*
X154465000Y-115351939D01*
X154504774Y-115551898D01*
X154582795Y-115740256D01*
X154696063Y-115909774D01*
X154840226Y-116053937D01*
X155009744Y-116167205D01*
X155198102Y-116245226D01*
X155398061Y-116285000D01*
X155601939Y-116285000D01*
X155801898Y-116245226D01*
X155990256Y-116167205D01*
X156159774Y-116053937D01*
X156303937Y-115909774D01*
X156417205Y-115740256D01*
X156495226Y-115551898D01*
X156535000Y-115351939D01*
X156535000Y-115148061D01*
X156495226Y-114948102D01*
X156417205Y-114759744D01*
X156385000Y-114711546D01*
X156385000Y-110319759D01*
X156555134Y-110180134D01*
X156740706Y-109954014D01*
X156750000Y-109936626D01*
X156759294Y-109954014D01*
X156944866Y-110180134D01*
X157115001Y-110319759D01*
X157115000Y-113711547D01*
X157082795Y-113759745D01*
X157004774Y-113948103D01*
X156965000Y-114148062D01*
X156965000Y-114351940D01*
X157004774Y-114551899D01*
X157082795Y-114740257D01*
X157196063Y-114909775D01*
X157340226Y-115053938D01*
X157509744Y-115167206D01*
X157698102Y-115245227D01*
X157898061Y-115285001D01*
X158101939Y-115285001D01*
X158301898Y-115245227D01*
X158490256Y-115167206D01*
X158659774Y-115053938D01*
X158803937Y-114909775D01*
X158917205Y-114740257D01*
X158995226Y-114551899D01*
X159035000Y-114351940D01*
X159035000Y-114148062D01*
X158995226Y-113948103D01*
X158917205Y-113759745D01*
X158885000Y-113711547D01*
X158885000Y-110319759D01*
X159055134Y-110180134D01*
X159240706Y-109954014D01*
X159250000Y-109936626D01*
X159259294Y-109954014D01*
X159444866Y-110180134D01*
X159615001Y-110319759D01*
X159615000Y-112861546D01*
X159582795Y-112909745D01*
X159504774Y-113098103D01*
X159465000Y-113298062D01*
X159465000Y-113501940D01*
X159504774Y-113701899D01*
X159582795Y-113890257D01*
X159696063Y-114059775D01*
X159840226Y-114203938D01*
X160009744Y-114317206D01*
X160198102Y-114395227D01*
X160398061Y-114435001D01*
X160601939Y-114435001D01*
X160801898Y-114395227D01*
X160990256Y-114317206D01*
X161159774Y-114203938D01*
X161303937Y-114059775D01*
X161417205Y-113890257D01*
X161495226Y-113701899D01*
X161535000Y-113501940D01*
X161535000Y-113298062D01*
X161495226Y-113098103D01*
X161417205Y-112909745D01*
X161385000Y-112861547D01*
X161385000Y-110319759D01*
X161555134Y-110180134D01*
X161740706Y-109954014D01*
X161750000Y-109936626D01*
X161759294Y-109954014D01*
X161944866Y-110180134D01*
X162170987Y-110365706D01*
X162428967Y-110503599D01*
X162708890Y-110588513D01*
X163000000Y-110617185D01*
X163291111Y-110588513D01*
X163571034Y-110503599D01*
X163829014Y-110365706D01*
X164055134Y-110180134D01*
X164240706Y-109954014D01*
X164378599Y-109696033D01*
X164463513Y-109416110D01*
X164485000Y-109197949D01*
X164485000Y-108802050D01*
X164463513Y-108583889D01*
X164378599Y-108303966D01*
X164240706Y-108045986D01*
X164055134Y-107819866D01*
X163829013Y-107634294D01*
X163571033Y-107496401D01*
X163291110Y-107411487D01*
X163000000Y-107382815D01*
X162708889Y-107411487D01*
X162428966Y-107496401D01*
X162170986Y-107634294D01*
X161944866Y-107819866D01*
X161759294Y-108045987D01*
X161750000Y-108063374D01*
X161740706Y-108045986D01*
X161555134Y-107819866D01*
X161329013Y-107634294D01*
X161071033Y-107496401D01*
X160791110Y-107411487D01*
X160500000Y-107382815D01*
X160208889Y-107411487D01*
X159928966Y-107496401D01*
X159670986Y-107634294D01*
X159444866Y-107819866D01*
X159259294Y-108045987D01*
X159250000Y-108063374D01*
X159240706Y-108045986D01*
X159055134Y-107819866D01*
X158829013Y-107634294D01*
X158571033Y-107496401D01*
X158291110Y-107411487D01*
X158000000Y-107382815D01*
X157708889Y-107411487D01*
X157428966Y-107496401D01*
X157170986Y-107634294D01*
X156944866Y-107819866D01*
X156759294Y-108045987D01*
X156750000Y-108063374D01*
X156740706Y-108045986D01*
X156555134Y-107819866D01*
X156329013Y-107634294D01*
X156071033Y-107496401D01*
X155791110Y-107411487D01*
X155500000Y-107382815D01*
X155208889Y-107411487D01*
X154928966Y-107496401D01*
X154670986Y-107634294D01*
X154444866Y-107819866D01*
X154392777Y-107883337D01*
X154338405Y-107781614D01*
X154227962Y-107647038D01*
X154093386Y-107536595D01*
X153939850Y-107454528D01*
X153773254Y-107403992D01*
X153600000Y-107386928D01*
X152400000Y-107386928D01*
X152226746Y-107403992D01*
X152060150Y-107454528D01*
X151906614Y-107536595D01*
X151772038Y-107647038D01*
X151661595Y-107781614D01*
X151579528Y-107935150D01*
X151528992Y-108101746D01*
X151511928Y-108275000D01*
X148437170Y-108275000D01*
X148325990Y-108006589D01*
X148163475Y-107763368D01*
X147956632Y-107556525D01*
X147713411Y-107394010D01*
X147443158Y-107282068D01*
X147156260Y-107225000D01*
X146863740Y-107225000D01*
X146576842Y-107282068D01*
X146306589Y-107394010D01*
X146063368Y-107556525D01*
X145856525Y-107763368D01*
X145740000Y-107937760D01*
X145623475Y-107763368D01*
X145416632Y-107556525D01*
X145173411Y-107394010D01*
X144903158Y-107282068D01*
X144616260Y-107225000D01*
X144323740Y-107225000D01*
X144036842Y-107282068D01*
X143766589Y-107394010D01*
X143523368Y-107556525D01*
X143316525Y-107763368D01*
X143200000Y-107937760D01*
X143083475Y-107763368D01*
X142876632Y-107556525D01*
X142633411Y-107394010D01*
X142363158Y-107282068D01*
X142076260Y-107225000D01*
X141783740Y-107225000D01*
X141496842Y-107282068D01*
X141226589Y-107394010D01*
X140983368Y-107556525D01*
X140776525Y-107763368D01*
X140660000Y-107937760D01*
X140543475Y-107763368D01*
X140336632Y-107556525D01*
X140093411Y-107394010D01*
X139823158Y-107282068D01*
X139536260Y-107225000D01*
X139243740Y-107225000D01*
X138956842Y-107282068D01*
X138686589Y-107394010D01*
X138443368Y-107556525D01*
X138236525Y-107763368D01*
X138120000Y-107937760D01*
X138003475Y-107763368D01*
X137796632Y-107556525D01*
X137553411Y-107394010D01*
X137283158Y-107282068D01*
X136996260Y-107225000D01*
X136703740Y-107225000D01*
X136416842Y-107282068D01*
X136146589Y-107394010D01*
X135903368Y-107556525D01*
X135696525Y-107763368D01*
X135580000Y-107937760D01*
X135463475Y-107763368D01*
X135256632Y-107556525D01*
X135013411Y-107394010D01*
X134743158Y-107282068D01*
X134456260Y-107225000D01*
X134163740Y-107225000D01*
X133876842Y-107282068D01*
X133606589Y-107394010D01*
X133363368Y-107556525D01*
X133156525Y-107763368D01*
X133040000Y-107937760D01*
X132923475Y-107763368D01*
X132716632Y-107556525D01*
X132473411Y-107394010D01*
X132203158Y-107282068D01*
X131916260Y-107225000D01*
X131623740Y-107225000D01*
X131336842Y-107282068D01*
X131066589Y-107394010D01*
X130823368Y-107556525D01*
X130616525Y-107763368D01*
X130500000Y-107937760D01*
X130383475Y-107763368D01*
X130176632Y-107556525D01*
X129933411Y-107394010D01*
X129663158Y-107282068D01*
X129376260Y-107225000D01*
X129083740Y-107225000D01*
X128796842Y-107282068D01*
X128526589Y-107394010D01*
X128283368Y-107556525D01*
X128076525Y-107763368D01*
X127960000Y-107937760D01*
X127843475Y-107763368D01*
X127636632Y-107556525D01*
X127393411Y-107394010D01*
X127123158Y-107282068D01*
X126836260Y-107225000D01*
X126543740Y-107225000D01*
X126256842Y-107282068D01*
X125986589Y-107394010D01*
X125743368Y-107556525D01*
X125536525Y-107763368D01*
X125420000Y-107937760D01*
X125303475Y-107763368D01*
X125096632Y-107556525D01*
X124853411Y-107394010D01*
X124583158Y-107282068D01*
X124296260Y-107225000D01*
X124003740Y-107225000D01*
X123716842Y-107282068D01*
X123446589Y-107394010D01*
X123203368Y-107556525D01*
X122996525Y-107763368D01*
X122880000Y-107937760D01*
X122763475Y-107763368D01*
X122556632Y-107556525D01*
X122313411Y-107394010D01*
X122043158Y-107282068D01*
X121756260Y-107225000D01*
X121463740Y-107225000D01*
X121176842Y-107282068D01*
X120906589Y-107394010D01*
X120663368Y-107556525D01*
X120456525Y-107763368D01*
X120340000Y-107937760D01*
X120223475Y-107763368D01*
X120016632Y-107556525D01*
X119773411Y-107394010D01*
X119503158Y-107282068D01*
X119216260Y-107225000D01*
X118923740Y-107225000D01*
X118636842Y-107282068D01*
X118366589Y-107394010D01*
X118123368Y-107556525D01*
X117916525Y-107763368D01*
X117800000Y-107937760D01*
X117683475Y-107763368D01*
X117476632Y-107556525D01*
X117233411Y-107394010D01*
X116963158Y-107282068D01*
X116676260Y-107225000D01*
X116383740Y-107225000D01*
X116096842Y-107282068D01*
X115826589Y-107394010D01*
X115583368Y-107556525D01*
X115376525Y-107763368D01*
X115260000Y-107937760D01*
X115143475Y-107763368D01*
X114936632Y-107556525D01*
X114693411Y-107394010D01*
X114423158Y-107282068D01*
X114136260Y-107225000D01*
X113843740Y-107225000D01*
X113556842Y-107282068D01*
X113286589Y-107394010D01*
X113043368Y-107556525D01*
X112836525Y-107763368D01*
X112720000Y-107937760D01*
X112603475Y-107763368D01*
X112396632Y-107556525D01*
X112153411Y-107394010D01*
X111883158Y-107282068D01*
X111596260Y-107225000D01*
X111303740Y-107225000D01*
X111016842Y-107282068D01*
X110746589Y-107394010D01*
X110503368Y-107556525D01*
X110296525Y-107763368D01*
X110180000Y-107937760D01*
X110063475Y-107763368D01*
X109856632Y-107556525D01*
X109613411Y-107394010D01*
X109343158Y-107282068D01*
X109056260Y-107225000D01*
X108763740Y-107225000D01*
X108476842Y-107282068D01*
X108206589Y-107394010D01*
X107963368Y-107556525D01*
X107756525Y-107763368D01*
X107640000Y-107937760D01*
X107523475Y-107763368D01*
X107316632Y-107556525D01*
X107073411Y-107394010D01*
X106803158Y-107282068D01*
X106516260Y-107225000D01*
X106223740Y-107225000D01*
X105936842Y-107282068D01*
X105666589Y-107394010D01*
X105423368Y-107556525D01*
X105216525Y-107763368D01*
X105054010Y-108006589D01*
X104942068Y-108276842D01*
X104885000Y-108563740D01*
X104885000Y-108856260D01*
X104942068Y-109143158D01*
X105054010Y-109413411D01*
X105216525Y-109656632D01*
X105423368Y-109863475D01*
X105597760Y-109980000D01*
X105423368Y-110096525D01*
X105216525Y-110303368D01*
X105100000Y-110477760D01*
X104983475Y-110303368D01*
X104776632Y-110096525D01*
X104533411Y-109934010D01*
X104263158Y-109822068D01*
X103976260Y-109765000D01*
X103683740Y-109765000D01*
X103396842Y-109822068D01*
X103126589Y-109934010D01*
X102883368Y-110096525D01*
X102676525Y-110303368D01*
X102560000Y-110477760D01*
X102443475Y-110303368D01*
X102236632Y-110096525D01*
X102062240Y-109980000D01*
X102236632Y-109863475D01*
X102443475Y-109656632D01*
X102605990Y-109413411D01*
X102717932Y-109143158D01*
X102775000Y-108856260D01*
X102775000Y-108563740D01*
X102717932Y-108276842D01*
X102605990Y-108006589D01*
X102443475Y-107763368D01*
X102236632Y-107556525D01*
X101993411Y-107394010D01*
X101723158Y-107282068D01*
X101436260Y-107225000D01*
X101143740Y-107225000D01*
X100856842Y-107282068D01*
X100586589Y-107394010D01*
X100343368Y-107556525D01*
X100136525Y-107763368D01*
X100020000Y-107937760D01*
X99903475Y-107763368D01*
X99696632Y-107556525D01*
X99453411Y-107394010D01*
X99183158Y-107282068D01*
X98896260Y-107225000D01*
X98603740Y-107225000D01*
X98316842Y-107282068D01*
X98046589Y-107394010D01*
X97803368Y-107556525D01*
X97596525Y-107763368D01*
X97434010Y-108006589D01*
X97322068Y-108276842D01*
X97265000Y-108563740D01*
X97265000Y-108856260D01*
X97322068Y-109143158D01*
X97434010Y-109413411D01*
X97596525Y-109656632D01*
X97728380Y-109788487D01*
X97655820Y-109810498D01*
X97545506Y-109869463D01*
X97448815Y-109948815D01*
X97369463Y-110045506D01*
X97310498Y-110155820D01*
X97274188Y-110275518D01*
X97261928Y-110400000D01*
X97261928Y-110779386D01*
X96068765Y-111972550D01*
X96015919Y-112015920D01*
X95842843Y-112226813D01*
X95725652Y-112446063D01*
X95714236Y-112467420D01*
X95685000Y-112563798D01*
X95685000Y-105685000D01*
X173682646Y-105685000D01*
X173631980Y-105689990D01*
%TA.AperFunction,Conductor*%
D22*
G36*
X173631980Y-105689990D02*
G01*
X173631973Y-105689990D01*
X173454109Y-105707508D01*
X173428502Y-105710030D01*
X173167429Y-105789226D01*
X172926822Y-105917833D01*
X172926820Y-105917834D01*
X172926821Y-105917834D01*
X172768776Y-106047538D01*
X172768774Y-106047540D01*
X172715929Y-106090909D01*
X172672560Y-106143754D01*
X171818764Y-106997550D01*
X171765919Y-107040920D01*
X171592843Y-107251813D01*
X171542233Y-107346498D01*
X171464236Y-107492420D01*
X171429306Y-107607570D01*
X171385040Y-107753494D01*
X171375646Y-107848869D01*
X171329528Y-107935150D01*
X171278992Y-108101746D01*
X171261928Y-108275000D01*
X171261928Y-109725000D01*
X171278992Y-109898254D01*
X171329528Y-110064850D01*
X171411595Y-110218386D01*
X171522038Y-110352962D01*
X171656614Y-110463405D01*
X171810150Y-110545472D01*
X171976746Y-110596008D01*
X172150000Y-110613072D01*
X173350000Y-110613072D01*
X173523254Y-110596008D01*
X173689850Y-110545472D01*
X173843386Y-110463405D01*
X173977962Y-110352962D01*
X174088405Y-110218386D01*
X174170472Y-110064850D01*
X174221008Y-109898254D01*
X174238072Y-109725000D01*
X174238072Y-108495614D01*
X174273696Y-108459990D01*
X176324072Y-108459990D01*
X176286487Y-108583890D01*
X176265000Y-108802051D01*
X176265000Y-109197950D01*
X176286487Y-109416111D01*
X176371401Y-109696034D01*
X176509294Y-109954014D01*
X176694866Y-110180134D01*
X176920987Y-110365706D01*
X177178967Y-110503599D01*
X177458890Y-110588513D01*
X177750000Y-110617185D01*
X178041111Y-110588513D01*
X178321034Y-110503599D01*
X178579014Y-110365706D01*
X178805134Y-110180134D01*
X178990706Y-109954014D01*
X179000000Y-109936626D01*
X179009294Y-109954014D01*
X179194866Y-110180134D01*
X179365000Y-110319759D01*
X179365001Y-112711544D01*
X179332795Y-112759744D01*
X179254774Y-112948102D01*
X179215000Y-113148061D01*
X179215000Y-113351939D01*
X179254774Y-113551898D01*
X179332795Y-113740256D01*
X179446063Y-113909774D01*
X179590226Y-114053937D01*
X179759744Y-114167205D01*
X179948102Y-114245226D01*
X180148061Y-114285000D01*
X180351939Y-114285000D01*
X180551898Y-114245226D01*
X180740256Y-114167205D01*
X180909774Y-114053937D01*
X181053937Y-113909774D01*
X181167205Y-113740256D01*
X181245226Y-113551898D01*
X181285000Y-113351939D01*
X181285000Y-113148061D01*
X181245226Y-112948102D01*
X181167205Y-112759744D01*
X181135000Y-112711546D01*
X181135000Y-110319759D01*
X181305134Y-110180134D01*
X181490706Y-109954014D01*
X181628599Y-109696033D01*
X181635429Y-109673517D01*
X184865001Y-112903089D01*
X184865000Y-113811076D01*
X184786595Y-113906614D01*
X184704528Y-114060150D01*
X184653992Y-114226746D01*
X184636928Y-114400000D01*
X184636928Y-115600000D01*
X184653992Y-115773254D01*
X184704528Y-115939850D01*
X184786595Y-116093386D01*
X184897038Y-116227962D01*
X185031614Y-116338405D01*
X185185150Y-116420472D01*
X185351746Y-116471008D01*
X185525000Y-116488072D01*
X186754387Y-116488072D01*
X186865001Y-116598687D01*
X186865001Y-118596820D01*
X186666111Y-118536487D01*
X186447950Y-118515000D01*
X186052050Y-118515000D01*
X185833889Y-118536487D01*
X185553966Y-118621401D01*
X185295986Y-118759294D01*
X185069866Y-118944866D01*
X184884294Y-119170986D01*
X184746401Y-119428966D01*
X184661487Y-119708889D01*
X184632815Y-120000000D01*
X184661487Y-120291111D01*
X184746401Y-120571034D01*
X184884294Y-120829014D01*
X185069866Y-121055134D01*
X185295986Y-121240706D01*
X185313374Y-121250000D01*
X185295986Y-121259294D01*
X185069866Y-121444866D01*
X184930241Y-121615000D01*
X182538454Y-121615000D01*
X182490256Y-121582795D01*
X182301898Y-121504774D01*
X182101939Y-121465000D01*
X181898061Y-121465000D01*
X181698102Y-121504774D01*
X181509744Y-121582795D01*
X181340226Y-121696063D01*
X181196063Y-121840226D01*
X181082795Y-122009744D01*
X181004774Y-122198102D01*
X180965000Y-122398061D01*
X180965000Y-122601939D01*
X181004774Y-122801898D01*
X181082795Y-122990256D01*
X181196063Y-123159774D01*
X181340226Y-123303937D01*
X181509744Y-123417205D01*
X181698102Y-123495226D01*
X181898061Y-123535000D01*
X182101939Y-123535000D01*
X182301898Y-123495226D01*
X182490256Y-123417205D01*
X182538454Y-123385000D01*
X184930241Y-123385000D01*
X185069866Y-123555134D01*
X185295986Y-123740706D01*
X185553966Y-123878599D01*
X185833889Y-123963513D01*
X186052050Y-123985000D01*
X186447950Y-123985000D01*
X186666111Y-123963513D01*
X186865000Y-123903180D01*
X186865000Y-126926314D01*
X185426315Y-128365000D01*
X184947920Y-128365000D01*
X184887592Y-128353000D01*
X184776652Y-128353000D01*
X184785000Y-128311033D01*
X184785000Y-127988967D01*
X184722168Y-127673088D01*
X184598918Y-127375537D01*
X184419987Y-127107748D01*
X184192252Y-126880013D01*
X183924463Y-126701082D01*
X183626912Y-126577832D01*
X183311033Y-126515000D01*
X182988967Y-126515000D01*
X182673088Y-126577832D01*
X182375537Y-126701082D01*
X182107748Y-126880013D01*
X181880013Y-127107748D01*
X181701082Y-127375537D01*
X181577832Y-127673088D01*
X181515000Y-127988967D01*
X181515000Y-128311033D01*
X181577832Y-128626912D01*
X181701082Y-128924463D01*
X181880013Y-129192252D01*
X182107748Y-129419987D01*
X182375537Y-129598918D01*
X182673088Y-129722168D01*
X182988967Y-129785000D01*
X183311033Y-129785000D01*
X183353000Y-129776652D01*
X183353000Y-129887592D01*
X183406686Y-130157490D01*
X183511995Y-130411727D01*
X183664880Y-130640535D01*
X183859465Y-130835120D01*
X184088273Y-130988005D01*
X184117231Y-131000000D01*
X184088273Y-131011995D01*
X183859465Y-131164880D01*
X183664880Y-131359465D01*
X183511995Y-131588273D01*
X183406686Y-131842510D01*
X183353000Y-132112408D01*
X183353000Y-132387592D01*
X183406686Y-132657490D01*
X183511995Y-132911727D01*
X183664880Y-133140535D01*
X183859465Y-133335120D01*
X184088273Y-133488005D01*
X184342510Y-133593314D01*
X184612408Y-133647000D01*
X184887592Y-133647000D01*
X185157490Y-133593314D01*
X185411727Y-133488005D01*
X185640535Y-133335120D01*
X185835120Y-133140535D01*
X185988005Y-132911727D01*
X186093314Y-132657490D01*
X186147000Y-132387592D01*
X186147000Y-132112408D01*
X186093314Y-131842510D01*
X186064668Y-131773354D01*
X186865001Y-132573687D01*
X186865000Y-135926314D01*
X185926315Y-136865000D01*
X176988072Y-136865000D01*
X176988072Y-135525000D01*
X176971008Y-135351746D01*
X176920472Y-135185150D01*
X176838405Y-135031614D01*
X176727962Y-134897038D01*
X176593386Y-134786595D01*
X176439850Y-134704528D01*
X176273254Y-134653992D01*
X176100000Y-134636928D01*
X174900000Y-134636928D01*
X174726746Y-134653992D01*
X174560150Y-134704528D01*
X174406614Y-134786595D01*
X174272038Y-134897038D01*
X174161595Y-135031614D01*
X174079528Y-135185150D01*
X174028992Y-135351746D01*
X174011928Y-135525000D01*
X174011928Y-136865000D01*
X171903180Y-136865000D01*
X171963513Y-136666111D01*
X171985000Y-136447950D01*
X171985000Y-136052051D01*
X171963513Y-135833890D01*
X171878599Y-135553967D01*
X171740706Y-135295986D01*
X171555134Y-135069866D01*
X171329014Y-134884294D01*
X171071034Y-134746401D01*
X170791111Y-134661487D01*
X170500000Y-134632815D01*
X170208890Y-134661487D01*
X169928967Y-134746401D01*
X169670987Y-134884294D01*
X169444866Y-135069866D01*
X169259294Y-135295986D01*
X169250000Y-135313374D01*
X169240706Y-135295986D01*
X169055134Y-135069866D01*
X168885000Y-134930241D01*
X168885000Y-130788454D01*
X168917205Y-130740256D01*
X168995226Y-130551898D01*
X169035000Y-130351939D01*
X169035000Y-130148061D01*
X168995226Y-129948102D01*
X168917205Y-129759744D01*
X168803937Y-129590226D01*
X168659774Y-129446063D01*
X168490256Y-129332795D01*
X168301898Y-129254774D01*
X168101939Y-129215000D01*
X167898061Y-129215000D01*
X167698102Y-129254774D01*
X167509744Y-129332795D01*
X167340226Y-129446063D01*
X167196063Y-129590226D01*
X167082795Y-129759744D01*
X167004774Y-129948102D01*
X166965000Y-130148061D01*
X166965000Y-130351939D01*
X167004774Y-130551898D01*
X167082795Y-130740256D01*
X167115000Y-130788454D01*
X167115001Y-134930241D01*
X166944866Y-135069866D01*
X166759294Y-135295986D01*
X166621401Y-135553966D01*
X166536487Y-135833889D01*
X166515000Y-136052050D01*
X166515000Y-136447949D01*
X166536487Y-136666110D01*
X166596820Y-136865000D01*
X162348686Y-136865000D01*
X162238072Y-136754387D01*
X162238072Y-135525000D01*
X162221008Y-135351746D01*
X162170472Y-135185150D01*
X162088405Y-135031614D01*
X161977962Y-134897038D01*
X161843386Y-134786595D01*
X161689850Y-134704528D01*
X161523254Y-134653992D01*
X161350000Y-134636928D01*
X160150000Y-134636928D01*
X159976746Y-134653992D01*
X159810150Y-134704528D01*
X159656614Y-134786595D01*
X159522038Y-134897038D01*
X159411595Y-135031614D01*
X159329528Y-135185150D01*
X159278992Y-135351746D01*
X159261928Y-135525000D01*
X159261928Y-136754386D01*
X158901315Y-137115000D01*
X157038285Y-137115000D01*
X157128599Y-136946034D01*
X157213513Y-136666111D01*
X157235000Y-136447950D01*
X157235000Y-136052051D01*
X157213513Y-135833890D01*
X157128599Y-135553967D01*
X156990706Y-135295986D01*
X156805134Y-135069866D01*
X156579014Y-134884294D01*
X156321034Y-134746401D01*
X156041111Y-134661487D01*
X155750000Y-134632815D01*
X155458890Y-134661487D01*
X155178967Y-134746401D01*
X154920987Y-134884294D01*
X154694866Y-135069866D01*
X154509294Y-135295986D01*
X154500000Y-135313374D01*
X154490706Y-135295986D01*
X154305134Y-135069866D01*
X154135000Y-134930241D01*
X154135000Y-130788454D01*
X154167205Y-130740256D01*
X154245226Y-130551898D01*
X154285000Y-130351939D01*
X154285000Y-130148061D01*
X154245226Y-129948102D01*
X154167205Y-129759744D01*
X154053937Y-129590226D01*
X153909774Y-129446063D01*
X153740256Y-129332795D01*
X153551898Y-129254774D01*
X153351939Y-129215000D01*
X153148061Y-129215000D01*
X152948102Y-129254774D01*
X152759744Y-129332795D01*
X152590226Y-129446063D01*
X152446063Y-129590226D01*
X152332795Y-129759744D01*
X152254774Y-129948102D01*
X152215000Y-130148061D01*
X152215000Y-130351939D01*
X152254774Y-130551898D01*
X152332795Y-130740256D01*
X152365000Y-130788454D01*
X152365001Y-134930241D01*
X152194866Y-135069866D01*
X152009294Y-135295986D01*
X151871401Y-135553966D01*
X151786487Y-135833889D01*
X151765000Y-136052050D01*
X151765000Y-136447949D01*
X151786487Y-136666110D01*
X151871401Y-136946033D01*
X151961716Y-137115000D01*
X147474283Y-137115000D01*
X147488072Y-136975000D01*
X147488072Y-135525000D01*
X147471008Y-135351746D01*
X147420472Y-135185150D01*
X147385000Y-135118787D01*
X147385000Y-127931963D01*
X147364960Y-127728493D01*
X147285764Y-127467419D01*
X147157157Y-127226812D01*
X146984081Y-127015919D01*
X146773188Y-126842843D01*
X146532581Y-126714236D01*
X146271507Y-126635040D01*
X146000000Y-126608299D01*
X145728494Y-126635040D01*
X145467420Y-126714236D01*
X145226813Y-126842843D01*
X145015920Y-127015919D01*
X144842844Y-127226812D01*
X144714237Y-127467419D01*
X144635041Y-127728493D01*
X144615001Y-127931963D01*
X144615000Y-135118787D01*
X144579528Y-135185150D01*
X144528992Y-135351746D01*
X144511928Y-135525000D01*
X144511928Y-136975000D01*
X144525717Y-137115000D01*
X142288285Y-137115000D01*
X142378599Y-136946034D01*
X142463513Y-136666111D01*
X142485000Y-136447950D01*
X142485000Y-136052051D01*
X142463513Y-135833890D01*
X142378599Y-135553967D01*
X142240706Y-135295986D01*
X142055134Y-135069866D01*
X141885000Y-134930241D01*
X141885000Y-132038454D01*
X141917205Y-131990256D01*
X141995226Y-131801898D01*
X142035000Y-131601939D01*
X142035000Y-131398061D01*
X141995226Y-131198102D01*
X141917205Y-131009744D01*
X141803937Y-130840226D01*
X141659774Y-130696063D01*
X141490256Y-130582795D01*
X141301898Y-130504774D01*
X141101939Y-130465000D01*
X140898061Y-130465000D01*
X140698102Y-130504774D01*
X140509744Y-130582795D01*
X140340226Y-130696063D01*
X140196063Y-130840226D01*
X140082795Y-131009744D01*
X140004774Y-131198102D01*
X139965000Y-131398061D01*
X139965000Y-131601939D01*
X140004774Y-131801898D01*
X140082795Y-131990256D01*
X140115001Y-132038456D01*
X140115000Y-134930241D01*
X139944866Y-135069866D01*
X139759294Y-135295986D01*
X139750000Y-135313374D01*
X139740706Y-135295986D01*
X139555134Y-135069866D01*
X139385000Y-134930241D01*
X139385000Y-130788454D01*
X139417205Y-130740256D01*
X139495226Y-130551898D01*
X139535000Y-130351939D01*
X139535000Y-130148061D01*
X139495226Y-129948102D01*
X139417205Y-129759744D01*
X139303937Y-129590226D01*
X139159774Y-129446063D01*
X138990256Y-129332795D01*
X138801898Y-129254774D01*
X138601939Y-129215000D01*
X138398061Y-129215000D01*
X138198102Y-129254774D01*
X138009744Y-129332795D01*
X137840226Y-129446063D01*
X137696063Y-129590226D01*
X137582795Y-129759744D01*
X137504774Y-129948102D01*
X137465000Y-130148061D01*
X137465000Y-130351939D01*
X137504774Y-130551898D01*
X137582795Y-130740256D01*
X137615001Y-130788456D01*
X137615000Y-134930241D01*
X137444866Y-135069866D01*
X137259294Y-135295986D01*
X137250000Y-135313374D01*
X137240706Y-135295986D01*
X137055134Y-135069866D01*
X136829014Y-134884294D01*
X136571034Y-134746401D01*
X136291111Y-134661487D01*
X136000000Y-134632815D01*
X135708890Y-134661487D01*
X135428967Y-134746401D01*
X135170987Y-134884294D01*
X134944866Y-135069866D01*
X134759294Y-135295986D01*
X134750000Y-135313374D01*
X134740706Y-135295986D01*
X134555134Y-135069866D01*
X134329014Y-134884294D01*
X134071034Y-134746401D01*
X133791111Y-134661487D01*
X133500000Y-134632815D01*
X133208890Y-134661487D01*
X132928967Y-134746401D01*
X132670987Y-134884294D01*
X132444866Y-135069866D01*
X132259294Y-135295986D01*
X132121401Y-135553966D01*
X132036487Y-135833889D01*
X132015000Y-136052050D01*
X132015000Y-136447949D01*
X132036487Y-136666110D01*
X132121401Y-136946033D01*
X132211716Y-137115000D01*
X128185010Y-137115000D01*
X128185010Y-133387332D01*
X128188686Y-133350009D01*
X128185010Y-133312686D01*
X128185010Y-133312677D01*
X128174013Y-133201024D01*
X128130556Y-133057763D01*
X128091172Y-132984081D01*
X128059984Y-132925733D01*
X127988809Y-132839007D01*
X127965011Y-132810009D01*
X127936014Y-132786212D01*
X127363072Y-132213271D01*
X127363072Y-131975000D01*
X127346969Y-131811500D01*
X127299278Y-131654284D01*
X127221831Y-131509392D01*
X127117606Y-131382394D01*
X126990608Y-131278169D01*
X126845716Y-131200722D01*
X126688500Y-131153031D01*
X126525000Y-131136928D01*
X125975000Y-131136928D01*
X125811500Y-131153031D01*
X125654284Y-131200722D01*
X125509392Y-131278169D01*
X125382394Y-131382394D01*
X125278169Y-131509392D01*
X125200722Y-131654284D01*
X125153031Y-131811500D01*
X125136928Y-131975000D01*
X125136928Y-132375000D01*
X125153031Y-132538500D01*
X125200722Y-132695716D01*
X125278169Y-132840608D01*
X125382394Y-132967606D01*
X125421866Y-133000000D01*
X125382394Y-133032394D01*
X125278169Y-133159392D01*
X125200722Y-133304284D01*
X125153031Y-133461500D01*
X125136928Y-133625000D01*
X125136928Y-134025000D01*
X125153031Y-134188500D01*
X125200722Y-134345716D01*
X125278169Y-134490608D01*
X125382394Y-134617606D01*
X125440228Y-134665069D01*
X125310150Y-134704528D01*
X125156614Y-134786595D01*
X125022038Y-134897038D01*
X124911595Y-135031614D01*
X124829528Y-135185150D01*
X124778992Y-135351746D01*
X124761928Y-135525000D01*
X124761928Y-136975000D01*
X124775717Y-137115000D01*
X123334990Y-137115000D01*
X123334990Y-133537313D01*
X123338666Y-133499990D01*
X123334990Y-133462667D01*
X123334990Y-133462657D01*
X123323993Y-133351004D01*
X123280536Y-133207743D01*
X123209964Y-133075714D01*
X123114991Y-132959989D01*
X123085994Y-132936192D01*
X122363072Y-132213271D01*
X122363072Y-131975000D01*
X122346969Y-131811500D01*
X122299278Y-131654284D01*
X122221831Y-131509392D01*
X122117606Y-131382394D01*
X121990608Y-131278169D01*
X121845716Y-131200722D01*
X121688500Y-131153031D01*
X121525000Y-131136928D01*
X120975000Y-131136928D01*
X120811500Y-131153031D01*
X120654284Y-131200722D01*
X120509392Y-131278169D01*
X120382394Y-131382394D01*
X120278169Y-131509392D01*
X120200722Y-131654284D01*
X120153031Y-131811500D01*
X120136928Y-131975000D01*
X120136928Y-132375000D01*
X120153031Y-132538500D01*
X120200722Y-132695716D01*
X120278169Y-132840608D01*
X120382394Y-132967606D01*
X120421866Y-133000000D01*
X120382394Y-133032394D01*
X120278169Y-133159392D01*
X120200722Y-133304284D01*
X120153031Y-133461500D01*
X120136928Y-133625000D01*
X120136928Y-134025000D01*
X120153031Y-134188500D01*
X120200722Y-134345716D01*
X120278169Y-134490608D01*
X120382394Y-134617606D01*
X120490000Y-134705917D01*
X120490000Y-134847406D01*
X120420987Y-134884294D01*
X120194866Y-135069866D01*
X120009294Y-135295986D01*
X119871401Y-135553966D01*
X119786487Y-135833889D01*
X119765000Y-136052050D01*
X119765000Y-136447949D01*
X119786487Y-136666110D01*
X119871401Y-136946033D01*
X119961716Y-137115000D01*
X117185000Y-137115000D01*
X117185000Y-128531963D01*
X117164960Y-128328493D01*
X117085764Y-128067419D01*
X116957157Y-127826812D01*
X116784080Y-127615919D01*
X116573187Y-127442843D01*
X116332580Y-127314236D01*
X116071506Y-127235040D01*
X115800000Y-127208299D01*
X115528493Y-127235040D01*
X115267419Y-127314236D01*
X115026812Y-127442843D01*
X114815919Y-127615920D01*
X114642843Y-127826813D01*
X114514236Y-128067420D01*
X114435040Y-128328494D01*
X114415000Y-128531964D01*
X114415001Y-137115000D01*
X110288285Y-137115000D01*
X110378599Y-136946034D01*
X110463513Y-136666111D01*
X110485000Y-136447950D01*
X110485000Y-136052051D01*
X110463513Y-135833890D01*
X110378599Y-135553967D01*
X110240706Y-135295986D01*
X110055134Y-135069866D01*
X109829014Y-134884294D01*
X109571034Y-134746401D01*
X109291111Y-134661487D01*
X109000000Y-134632815D01*
X108708890Y-134661487D01*
X108428967Y-134746401D01*
X108170987Y-134884294D01*
X107944866Y-135069866D01*
X107759294Y-135295986D01*
X107750000Y-135313374D01*
X107740706Y-135295986D01*
X107555134Y-135069866D01*
X107329014Y-134884294D01*
X107071034Y-134746401D01*
X106791111Y-134661487D01*
X106500000Y-134632815D01*
X106208890Y-134661487D01*
X105928967Y-134746401D01*
X105670987Y-134884294D01*
X105444866Y-135069866D01*
X105259294Y-135295986D01*
X105250000Y-135313374D01*
X105240706Y-135295986D01*
X105055134Y-135069866D01*
X104829014Y-134884294D01*
X104571034Y-134746401D01*
X104291111Y-134661487D01*
X104000000Y-134632815D01*
X103708890Y-134661487D01*
X103428967Y-134746401D01*
X103170987Y-134884294D01*
X102944866Y-135069866D01*
X102759294Y-135295986D01*
X102621401Y-135553966D01*
X102614571Y-135576483D01*
X98385000Y-131346913D01*
X98385000Y-125013426D01*
X98448815Y-125091185D01*
X98545506Y-125170537D01*
X98655820Y-125229502D01*
X98775518Y-125265812D01*
X98900000Y-125278072D01*
X100600000Y-125278072D01*
X100724482Y-125265812D01*
X100844180Y-125229502D01*
X100954494Y-125170537D01*
X101051185Y-125091185D01*
X101130537Y-124994494D01*
X101189502Y-124884180D01*
X101225812Y-124764482D01*
X101232210Y-124699523D01*
X101259392Y-124721831D01*
X101404284Y-124799278D01*
X101561500Y-124846969D01*
X101725000Y-124863072D01*
X102125000Y-124863072D01*
X102288500Y-124846969D01*
X102445716Y-124799278D01*
X102590608Y-124721831D01*
X102717606Y-124617606D01*
X102750000Y-124578134D01*
X102782394Y-124617606D01*
X102909392Y-124721831D01*
X103054284Y-124799278D01*
X103211500Y-124846969D01*
X103375000Y-124863072D01*
X103775000Y-124863072D01*
X103938500Y-124846969D01*
X104095716Y-124799278D01*
X104240608Y-124721831D01*
X104367606Y-124617606D01*
X104455916Y-124510000D01*
X108046291Y-124510000D01*
X108090226Y-124553935D01*
X108259744Y-124667203D01*
X108448102Y-124745224D01*
X108648061Y-124784998D01*
X108851939Y-124784998D01*
X109051898Y-124745224D01*
X109240256Y-124667203D01*
X109409774Y-124553935D01*
X109553937Y-124409772D01*
X109667205Y-124240254D01*
X109745226Y-124051896D01*
X109785000Y-123851937D01*
X109785000Y-123648059D01*
X109745226Y-123448100D01*
X109667205Y-123259742D01*
X109553937Y-123090224D01*
X109409774Y-122946061D01*
X109240256Y-122832793D01*
X109051898Y-122754772D01*
X108851939Y-122714998D01*
X108648061Y-122714998D01*
X108448102Y-122754772D01*
X108259744Y-122832793D01*
X108090226Y-122946061D01*
X108046287Y-122990000D01*
X104455916Y-122990000D01*
X104367606Y-122882394D01*
X104240608Y-122778169D01*
X104095716Y-122700722D01*
X103938500Y-122653031D01*
X103775000Y-122636928D01*
X103375000Y-122636928D01*
X103211500Y-122653031D01*
X103054284Y-122700722D01*
X102909392Y-122778169D01*
X102782394Y-122882394D01*
X102750000Y-122921866D01*
X102717606Y-122882394D01*
X102590608Y-122778169D01*
X102445716Y-122700722D01*
X102288500Y-122653031D01*
X102125000Y-122636928D01*
X101725000Y-122636928D01*
X101561500Y-122653031D01*
X101404284Y-122700722D01*
X101259392Y-122778169D01*
X101223434Y-122807679D01*
X101189502Y-122695820D01*
X101130537Y-122585506D01*
X101051185Y-122488815D01*
X100954494Y-122409463D01*
X100844180Y-122350498D01*
X100724482Y-122314188D01*
X100600000Y-122301928D01*
X98900000Y-122301928D01*
X98775518Y-122314188D01*
X98655820Y-122350498D01*
X98545506Y-122409463D01*
X98448815Y-122488815D01*
X98385000Y-122566574D01*
X98385000Y-122122285D01*
X111165000Y-122122285D01*
X111165000Y-122877715D01*
X111312377Y-123618628D01*
X111601467Y-124316554D01*
X112021161Y-124944670D01*
X112555330Y-125478839D01*
X113183446Y-125898533D01*
X113881372Y-126187623D01*
X114622285Y-126335000D01*
X115377715Y-126335000D01*
X116118628Y-126187623D01*
X116816554Y-125898533D01*
X117444670Y-125478839D01*
X117698509Y-125225000D01*
X123636928Y-125225000D01*
X123636928Y-125775000D01*
X123653031Y-125938500D01*
X123700722Y-126095716D01*
X123778169Y-126240608D01*
X123790001Y-126255025D01*
X123790000Y-127244976D01*
X123778169Y-127259392D01*
X123700722Y-127404284D01*
X123653031Y-127561500D01*
X123636928Y-127725000D01*
X123636928Y-128275000D01*
X123653031Y-128438500D01*
X123700722Y-128595716D01*
X123778169Y-128740608D01*
X123882394Y-128867606D01*
X124009392Y-128971831D01*
X124154284Y-129049278D01*
X124311500Y-129096969D01*
X124475000Y-129113072D01*
X124875000Y-129113072D01*
X125038500Y-129096969D01*
X125195716Y-129049278D01*
X125340608Y-128971831D01*
X125467606Y-128867606D01*
X125500000Y-128828134D01*
X125532394Y-128867606D01*
X125659392Y-128971831D01*
X125804284Y-129049278D01*
X125961500Y-129096969D01*
X126125000Y-129113072D01*
X126525000Y-129113072D01*
X126688500Y-129096969D01*
X126845716Y-129049278D01*
X126990608Y-128971831D01*
X127096411Y-128885000D01*
X127884893Y-128885000D01*
X128053368Y-129053475D01*
X128296589Y-129215990D01*
X128566842Y-129327932D01*
X128853740Y-129385000D01*
X129146260Y-129385000D01*
X129433158Y-129327932D01*
X129703411Y-129215990D01*
X129946632Y-129053475D01*
X130153475Y-128846632D01*
X130270000Y-128672240D01*
X130386525Y-128846632D01*
X130593368Y-129053475D01*
X130836589Y-129215990D01*
X131106842Y-129327932D01*
X131393740Y-129385000D01*
X131686260Y-129385000D01*
X131973158Y-129327932D01*
X132243411Y-129215990D01*
X132415000Y-129101338D01*
X132415001Y-130961544D01*
X132382795Y-131009744D01*
X132304774Y-131198102D01*
X132265000Y-131398061D01*
X132265000Y-131601939D01*
X132304774Y-131801898D01*
X132382795Y-131990256D01*
X132496063Y-132159774D01*
X132640226Y-132303937D01*
X132809744Y-132417205D01*
X132998102Y-132495226D01*
X133198061Y-132535000D01*
X133401939Y-132535000D01*
X133601898Y-132495226D01*
X133790256Y-132417205D01*
X133959774Y-132303937D01*
X134103937Y-132159774D01*
X134215000Y-131993556D01*
X134215000Y-133268036D01*
X134235040Y-133471506D01*
X134314236Y-133732580D01*
X134442843Y-133973187D01*
X134615919Y-134184080D01*
X134826812Y-134357157D01*
X135067419Y-134485764D01*
X135328493Y-134564960D01*
X135600000Y-134591701D01*
X135871506Y-134564960D01*
X136132580Y-134485764D01*
X136373187Y-134357157D01*
X136584080Y-134184081D01*
X136757157Y-133973188D01*
X136885764Y-133732581D01*
X136964960Y-133471507D01*
X136985000Y-133268037D01*
X136985000Y-128131963D01*
X136964960Y-127928493D01*
X136885764Y-127667419D01*
X136757157Y-127426812D01*
X136584081Y-127215919D01*
X136373188Y-127042843D01*
X136132581Y-126914236D01*
X135871507Y-126835040D01*
X135600000Y-126808299D01*
X135328494Y-126835040D01*
X135067420Y-126914236D01*
X134826813Y-127042843D01*
X134615920Y-127215919D01*
X134442844Y-127426812D01*
X134314237Y-127667419D01*
X134235041Y-127928493D01*
X134215001Y-128131963D01*
X134215000Y-131006445D01*
X134185000Y-130961546D01*
X134185000Y-127163469D01*
X134189281Y-127120000D01*
X134185000Y-127076531D01*
X134185000Y-127076523D01*
X134172195Y-126946510D01*
X134121589Y-126779687D01*
X134039411Y-126625941D01*
X134028850Y-126613072D01*
X133956532Y-126524953D01*
X133956530Y-126524951D01*
X133928817Y-126491183D01*
X133895050Y-126463471D01*
X133010539Y-125578960D01*
X133025000Y-125506260D01*
X133025000Y-125213740D01*
X132967932Y-124926842D01*
X132855990Y-124656589D01*
X132693475Y-124413368D01*
X132486632Y-124206525D01*
X132243411Y-124044010D01*
X131973158Y-123932068D01*
X131686260Y-123875000D01*
X131393740Y-123875000D01*
X131106842Y-123932068D01*
X130836589Y-124044010D01*
X130593368Y-124206525D01*
X130386525Y-124413368D01*
X130270000Y-124587760D01*
X130153475Y-124413368D01*
X129946632Y-124206525D01*
X129703411Y-124044010D01*
X129433158Y-123932068D01*
X129146260Y-123875000D01*
X128853740Y-123875000D01*
X128566842Y-123932068D01*
X128296589Y-124044010D01*
X128053368Y-124206525D01*
X127846525Y-124413368D01*
X127711799Y-124615000D01*
X127096411Y-124615000D01*
X126990608Y-124528169D01*
X126845716Y-124450722D01*
X126688500Y-124403031D01*
X126525000Y-124386928D01*
X126144650Y-124386928D01*
X128409293Y-122122285D01*
X166165000Y-122122285D01*
X166165000Y-122877715D01*
X166312377Y-123618628D01*
X166601467Y-124316554D01*
X167021161Y-124944670D01*
X167555330Y-125478839D01*
X168183446Y-125898533D01*
X168881372Y-126187623D01*
X169622285Y-126335000D01*
X170377715Y-126335000D01*
X171118628Y-126187623D01*
X171816554Y-125898533D01*
X172444670Y-125478839D01*
X172978839Y-124944670D01*
X173398533Y-124316554D01*
X173687623Y-123618628D01*
X173835000Y-122877715D01*
X173835000Y-122122285D01*
X173687623Y-121381372D01*
X173398533Y-120683446D01*
X172978839Y-120055330D01*
X172444670Y-119521161D01*
X171816554Y-119101467D01*
X171118628Y-118812377D01*
X170377715Y-118665000D01*
X169622285Y-118665000D01*
X168881372Y-118812377D01*
X168183446Y-119101467D01*
X167555330Y-119521161D01*
X167021161Y-120055330D01*
X166601467Y-120683446D01*
X166312377Y-121381372D01*
X166165000Y-122122285D01*
X128409293Y-122122285D01*
X128781040Y-121750539D01*
X128853740Y-121765000D01*
X129146260Y-121765000D01*
X129433158Y-121707932D01*
X129703411Y-121595990D01*
X129946632Y-121433475D01*
X130153475Y-121226632D01*
X130270000Y-121052240D01*
X130386525Y-121226632D01*
X130593368Y-121433475D01*
X130836589Y-121595990D01*
X131106842Y-121707932D01*
X131393740Y-121765000D01*
X131686260Y-121765000D01*
X131973158Y-121707932D01*
X132243411Y-121595990D01*
X132486632Y-121433475D01*
X132693475Y-121226632D01*
X132855990Y-120983411D01*
X132967932Y-120713158D01*
X133025000Y-120426260D01*
X133025000Y-120133740D01*
X132967932Y-119846842D01*
X132855990Y-119576589D01*
X132693475Y-119333368D01*
X132486632Y-119126525D01*
X132312240Y-119010000D01*
X132486632Y-118893475D01*
X132693475Y-118686632D01*
X132855990Y-118443411D01*
X132967932Y-118173158D01*
X133025000Y-117886260D01*
X133025000Y-117593740D01*
X132967932Y-117306842D01*
X132855990Y-117036589D01*
X132693475Y-116793368D01*
X132486632Y-116586525D01*
X132312240Y-116470000D01*
X132486632Y-116353475D01*
X132693475Y-116146632D01*
X132855990Y-115903411D01*
X132967932Y-115633158D01*
X133025000Y-115346260D01*
X133025000Y-115053740D01*
X132967932Y-114766842D01*
X132855990Y-114496589D01*
X132693475Y-114253368D01*
X132486632Y-114046525D01*
X132243411Y-113884010D01*
X131973158Y-113772068D01*
X131686260Y-113715000D01*
X131393740Y-113715000D01*
X131106842Y-113772068D01*
X130836589Y-113884010D01*
X130593368Y-114046525D01*
X130461513Y-114178380D01*
X130439502Y-114105820D01*
X130380537Y-113995506D01*
X130301185Y-113898815D01*
X130204494Y-113819463D01*
X130094180Y-113760498D01*
X129974482Y-113724188D01*
X129850000Y-113711928D01*
X128150000Y-113711928D01*
X128025518Y-113724188D01*
X127905820Y-113760498D01*
X127795506Y-113819463D01*
X127698815Y-113898815D01*
X127619463Y-113995506D01*
X127560498Y-114105820D01*
X127524188Y-114225518D01*
X127511928Y-114350000D01*
X127511928Y-116050000D01*
X127524188Y-116174482D01*
X127560498Y-116294180D01*
X127619463Y-116404494D01*
X127698815Y-116501185D01*
X127795506Y-116580537D01*
X127905820Y-116639502D01*
X127978380Y-116661513D01*
X127846525Y-116793368D01*
X127684010Y-117036589D01*
X127572068Y-117306842D01*
X127515000Y-117593740D01*
X127515000Y-117886260D01*
X127572068Y-118173158D01*
X127684010Y-118443411D01*
X127846525Y-118686632D01*
X128053368Y-118893475D01*
X128227760Y-119010000D01*
X128053368Y-119126525D01*
X127846525Y-119333368D01*
X127684010Y-119576589D01*
X127572068Y-119846842D01*
X127515000Y-120133740D01*
X127515000Y-120426260D01*
X127529461Y-120498960D01*
X124079951Y-123948470D01*
X124046184Y-123976183D01*
X124018471Y-124009951D01*
X124018468Y-124009954D01*
X123935590Y-124110941D01*
X123853412Y-124264687D01*
X123802805Y-124431510D01*
X123796158Y-124499002D01*
X123790000Y-124561523D01*
X123790000Y-124561531D01*
X123785719Y-124605000D01*
X123790000Y-124648469D01*
X123790000Y-124744976D01*
X123778169Y-124759392D01*
X123700722Y-124904284D01*
X123653031Y-125061500D01*
X123636928Y-125225000D01*
X117698509Y-125225000D01*
X117978839Y-124944670D01*
X118398533Y-124316554D01*
X118687623Y-123618628D01*
X118835000Y-122877715D01*
X118835000Y-122122285D01*
X118687623Y-121381372D01*
X118398533Y-120683446D01*
X117978839Y-120055330D01*
X117444670Y-119521161D01*
X116816554Y-119101467D01*
X116118628Y-118812377D01*
X115377715Y-118665000D01*
X114622285Y-118665000D01*
X113881372Y-118812377D01*
X113183446Y-119101467D01*
X112555330Y-119521161D01*
X112021161Y-120055330D01*
X111601467Y-120683446D01*
X111312377Y-121381372D01*
X111165000Y-122122285D01*
X98385000Y-122122285D01*
X98385000Y-113573685D01*
X99220614Y-112738072D01*
X99600000Y-112738072D01*
X99724482Y-112725812D01*
X99844180Y-112689502D01*
X99954494Y-112630537D01*
X100051185Y-112551185D01*
X100130537Y-112454494D01*
X100189502Y-112344180D01*
X100211513Y-112271620D01*
X100343368Y-112403475D01*
X100586589Y-112565990D01*
X100856842Y-112677932D01*
X101143740Y-112735000D01*
X101436260Y-112735000D01*
X101723158Y-112677932D01*
X101993411Y-112565990D01*
X102236632Y-112403475D01*
X102443475Y-112196632D01*
X102560000Y-112022240D01*
X102676525Y-112196632D01*
X102883368Y-112403475D01*
X103126589Y-112565990D01*
X103396842Y-112677932D01*
X103683740Y-112735000D01*
X103976260Y-112735000D01*
X104263158Y-112677932D01*
X104533411Y-112565990D01*
X104776632Y-112403475D01*
X104983475Y-112196632D01*
X105100000Y-112022240D01*
X105216525Y-112196632D01*
X105423368Y-112403475D01*
X105666589Y-112565990D01*
X105936842Y-112677932D01*
X106223740Y-112735000D01*
X106516260Y-112735000D01*
X106803158Y-112677932D01*
X107073411Y-112565990D01*
X107316632Y-112403475D01*
X107523475Y-112196632D01*
X107640000Y-112022240D01*
X107756525Y-112196632D01*
X107963368Y-112403475D01*
X108206589Y-112565990D01*
X108476842Y-112677932D01*
X108763740Y-112735000D01*
X109056260Y-112735000D01*
X109343158Y-112677932D01*
X109613411Y-112565990D01*
X109856632Y-112403475D01*
X110063475Y-112196632D01*
X110180000Y-112022240D01*
X110296525Y-112196632D01*
X110503368Y-112403475D01*
X110746589Y-112565990D01*
X111016842Y-112677932D01*
X111303740Y-112735000D01*
X111596260Y-112735000D01*
X111883158Y-112677932D01*
X112153411Y-112565990D01*
X112396632Y-112403475D01*
X112603475Y-112196632D01*
X112720000Y-112022240D01*
X112836525Y-112196632D01*
X113043368Y-112403475D01*
X113286589Y-112565990D01*
X113556842Y-112677932D01*
X113843740Y-112735000D01*
X114136260Y-112735000D01*
X114423158Y-112677932D01*
X114693411Y-112565990D01*
X114936632Y-112403475D01*
X115143475Y-112196632D01*
X115260000Y-112022240D01*
X115376525Y-112196632D01*
X115583368Y-112403475D01*
X115826589Y-112565990D01*
X116096842Y-112677932D01*
X116383740Y-112735000D01*
X116676260Y-112735000D01*
X116963158Y-112677932D01*
X117233411Y-112565990D01*
X117476632Y-112403475D01*
X117683475Y-112196632D01*
X117800000Y-112022240D01*
X117916525Y-112196632D01*
X118123368Y-112403475D01*
X118366589Y-112565990D01*
X118636842Y-112677932D01*
X118923740Y-112735000D01*
X119216260Y-112735000D01*
X119503158Y-112677932D01*
X119773411Y-112565990D01*
X120016632Y-112403475D01*
X120223475Y-112196632D01*
X120340000Y-112022240D01*
X120456525Y-112196632D01*
X120663368Y-112403475D01*
X120906589Y-112565990D01*
X121176842Y-112677932D01*
X121463740Y-112735000D01*
X121756260Y-112735000D01*
X122043158Y-112677932D01*
X122313411Y-112565990D01*
X122556632Y-112403475D01*
X122763475Y-112196632D01*
X122880000Y-112022240D01*
X122996525Y-112196632D01*
X123203368Y-112403475D01*
X123446589Y-112565990D01*
X123716842Y-112677932D01*
X124003740Y-112735000D01*
X124296260Y-112735000D01*
X124583158Y-112677932D01*
X124853411Y-112565990D01*
X125096632Y-112403475D01*
X125303475Y-112196632D01*
X125420000Y-112022240D01*
X125536525Y-112196632D01*
X125743368Y-112403475D01*
X125986589Y-112565990D01*
X126256842Y-112677932D01*
X126543740Y-112735000D01*
X126836260Y-112735000D01*
X127123158Y-112677932D01*
X127393411Y-112565990D01*
X127636632Y-112403475D01*
X127843475Y-112196632D01*
X127960000Y-112022240D01*
X128076525Y-112196632D01*
X128283368Y-112403475D01*
X128526589Y-112565990D01*
X128796842Y-112677932D01*
X129083740Y-112735000D01*
X129376260Y-112735000D01*
X129663158Y-112677932D01*
X129933411Y-112565990D01*
X130176632Y-112403475D01*
X130383475Y-112196632D01*
X130500000Y-112022240D01*
X130616525Y-112196632D01*
X130823368Y-112403475D01*
X131066589Y-112565990D01*
X131336842Y-112677932D01*
X131623740Y-112735000D01*
X131916260Y-112735000D01*
X132203158Y-112677932D01*
X132473411Y-112565990D01*
X132716632Y-112403475D01*
X132923475Y-112196632D01*
X133040000Y-112022240D01*
X133156525Y-112196632D01*
X133363368Y-112403475D01*
X133606589Y-112565990D01*
X133876842Y-112677932D01*
X134163740Y-112735000D01*
X134456260Y-112735000D01*
X134743158Y-112677932D01*
X135013411Y-112565990D01*
X135256632Y-112403475D01*
X135463475Y-112196632D01*
X135580000Y-112022240D01*
X135696525Y-112196632D01*
X135903368Y-112403475D01*
X136146589Y-112565990D01*
X136416842Y-112677932D01*
X136703740Y-112735000D01*
X136996260Y-112735000D01*
X137283158Y-112677932D01*
X137553411Y-112565990D01*
X137796632Y-112403475D01*
X138003475Y-112196632D01*
X138120000Y-112022240D01*
X138236525Y-112196632D01*
X138443368Y-112403475D01*
X138686589Y-112565990D01*
X138956842Y-112677932D01*
X139243740Y-112735000D01*
X139536260Y-112735000D01*
X139823158Y-112677932D01*
X140093411Y-112565990D01*
X140336632Y-112403475D01*
X140543475Y-112196632D01*
X140660000Y-112022240D01*
X140776525Y-112196632D01*
X140983368Y-112403475D01*
X141226589Y-112565990D01*
X141496842Y-112677932D01*
X141783740Y-112735000D01*
X142076260Y-112735000D01*
X142363158Y-112677932D01*
X142633411Y-112565990D01*
X142876632Y-112403475D01*
X143083475Y-112196632D01*
X143200000Y-112022240D01*
X143316525Y-112196632D01*
X143523368Y-112403475D01*
X143766589Y-112565990D01*
X144036842Y-112677932D01*
X144323740Y-112735000D01*
X144616260Y-112735000D01*
X144903158Y-112677932D01*
X145173411Y-112565990D01*
X145416632Y-112403475D01*
X145623475Y-112196632D01*
X145740000Y-112022240D01*
X145856525Y-112196632D01*
X146063368Y-112403475D01*
X146306589Y-112565990D01*
X146576842Y-112677932D01*
X146863740Y-112735000D01*
X147156260Y-112735000D01*
X147443158Y-112677932D01*
X147713411Y-112565990D01*
X147956632Y-112403475D01*
X148163475Y-112196632D01*
X148325990Y-111953411D01*
X148437932Y-111683158D01*
X148495000Y-111396260D01*
X148495000Y-111103740D01*
X148437932Y-110816842D01*
X148325990Y-110546589D01*
X148163475Y-110303368D01*
X147956632Y-110096525D01*
X147782240Y-109980000D01*
X147956632Y-109863475D01*
X148163475Y-109656632D01*
X148325990Y-109413411D01*
X148437932Y-109143158D01*
X148495000Y-108856260D01*
X148495000Y-108563740D01*
X148437932Y-108276842D01*
X148437170Y-108275000D01*
X151511928Y-108275000D01*
X151511928Y-109725000D01*
X151528992Y-109898254D01*
X151579528Y-110064850D01*
X151661595Y-110218386D01*
X151772038Y-110352962D01*
X151906614Y-110463405D01*
X152060150Y-110545472D01*
X152115001Y-110562111D01*
X152115000Y-115711546D01*
X152082795Y-115759744D01*
X152004774Y-115948102D01*
X151965000Y-116148061D01*
X151965000Y-116351939D01*
X152004774Y-116551898D01*
X152082795Y-116740256D01*
X152196063Y-116909774D01*
X152340226Y-117053937D01*
X152509744Y-117167205D01*
X152698102Y-117245226D01*
X152898061Y-117285000D01*
X153101939Y-117285000D01*
X153301898Y-117245226D01*
X153490256Y-117167205D01*
X153659774Y-117053937D01*
X153803937Y-116909774D01*
X153917205Y-116740256D01*
X153995226Y-116551898D01*
X154035000Y-116351939D01*
X154035000Y-116148061D01*
X153995226Y-115948102D01*
X153917205Y-115759744D01*
X153885000Y-115711546D01*
X153885000Y-110562110D01*
X153939850Y-110545472D01*
X154093386Y-110463405D01*
X154227962Y-110352962D01*
X154338405Y-110218386D01*
X154392777Y-110116663D01*
X154444866Y-110180134D01*
X154615001Y-110319759D01*
X154615000Y-114711546D01*
X154582795Y-114759744D01*
X154504774Y-114948102D01*
X154465000Y-115148061D01*
X154465000Y-115351939D01*
X154504774Y-115551898D01*
X154582795Y-115740256D01*
X154696063Y-115909774D01*
X154840226Y-116053937D01*
X155009744Y-116167205D01*
X155198102Y-116245226D01*
X155398061Y-116285000D01*
X155601939Y-116285000D01*
X155801898Y-116245226D01*
X155990256Y-116167205D01*
X156159774Y-116053937D01*
X156303937Y-115909774D01*
X156417205Y-115740256D01*
X156495226Y-115551898D01*
X156535000Y-115351939D01*
X156535000Y-115148061D01*
X156495226Y-114948102D01*
X156417205Y-114759744D01*
X156385000Y-114711546D01*
X156385000Y-110319759D01*
X156555134Y-110180134D01*
X156740706Y-109954014D01*
X156750000Y-109936626D01*
X156759294Y-109954014D01*
X156944866Y-110180134D01*
X157115001Y-110319759D01*
X157115000Y-113711547D01*
X157082795Y-113759745D01*
X157004774Y-113948103D01*
X156965000Y-114148062D01*
X156965000Y-114351940D01*
X157004774Y-114551899D01*
X157082795Y-114740257D01*
X157196063Y-114909775D01*
X157340226Y-115053938D01*
X157509744Y-115167206D01*
X157698102Y-115245227D01*
X157898061Y-115285001D01*
X158101939Y-115285001D01*
X158301898Y-115245227D01*
X158490256Y-115167206D01*
X158659774Y-115053938D01*
X158803937Y-114909775D01*
X158917205Y-114740257D01*
X158995226Y-114551899D01*
X159035000Y-114351940D01*
X159035000Y-114148062D01*
X158995226Y-113948103D01*
X158917205Y-113759745D01*
X158885000Y-113711547D01*
X158885000Y-110319759D01*
X159055134Y-110180134D01*
X159240706Y-109954014D01*
X159250000Y-109936626D01*
X159259294Y-109954014D01*
X159444866Y-110180134D01*
X159615001Y-110319759D01*
X159615000Y-112861546D01*
X159582795Y-112909745D01*
X159504774Y-113098103D01*
X159465000Y-113298062D01*
X159465000Y-113501940D01*
X159504774Y-113701899D01*
X159582795Y-113890257D01*
X159696063Y-114059775D01*
X159840226Y-114203938D01*
X160009744Y-114317206D01*
X160198102Y-114395227D01*
X160398061Y-114435001D01*
X160601939Y-114435001D01*
X160801898Y-114395227D01*
X160990256Y-114317206D01*
X161159774Y-114203938D01*
X161303937Y-114059775D01*
X161417205Y-113890257D01*
X161495226Y-113701899D01*
X161535000Y-113501940D01*
X161535000Y-113298062D01*
X161495226Y-113098103D01*
X161417205Y-112909745D01*
X161385000Y-112861547D01*
X161385000Y-110319759D01*
X161555134Y-110180134D01*
X161740706Y-109954014D01*
X161750000Y-109936626D01*
X161759294Y-109954014D01*
X161944866Y-110180134D01*
X162170987Y-110365706D01*
X162428967Y-110503599D01*
X162708890Y-110588513D01*
X163000000Y-110617185D01*
X163291111Y-110588513D01*
X163571034Y-110503599D01*
X163829014Y-110365706D01*
X164055134Y-110180134D01*
X164240706Y-109954014D01*
X164378599Y-109696033D01*
X164463513Y-109416110D01*
X164485000Y-109197949D01*
X164485000Y-108802050D01*
X164463513Y-108583889D01*
X164378599Y-108303966D01*
X164240706Y-108045986D01*
X164055134Y-107819866D01*
X163829013Y-107634294D01*
X163571033Y-107496401D01*
X163291110Y-107411487D01*
X163000000Y-107382815D01*
X162708889Y-107411487D01*
X162428966Y-107496401D01*
X162170986Y-107634294D01*
X161944866Y-107819866D01*
X161759294Y-108045987D01*
X161750000Y-108063374D01*
X161740706Y-108045986D01*
X161555134Y-107819866D01*
X161329013Y-107634294D01*
X161071033Y-107496401D01*
X160791110Y-107411487D01*
X160500000Y-107382815D01*
X160208889Y-107411487D01*
X159928966Y-107496401D01*
X159670986Y-107634294D01*
X159444866Y-107819866D01*
X159259294Y-108045987D01*
X159250000Y-108063374D01*
X159240706Y-108045986D01*
X159055134Y-107819866D01*
X158829013Y-107634294D01*
X158571033Y-107496401D01*
X158291110Y-107411487D01*
X158000000Y-107382815D01*
X157708889Y-107411487D01*
X157428966Y-107496401D01*
X157170986Y-107634294D01*
X156944866Y-107819866D01*
X156759294Y-108045987D01*
X156750000Y-108063374D01*
X156740706Y-108045986D01*
X156555134Y-107819866D01*
X156329013Y-107634294D01*
X156071033Y-107496401D01*
X155791110Y-107411487D01*
X155500000Y-107382815D01*
X155208889Y-107411487D01*
X154928966Y-107496401D01*
X154670986Y-107634294D01*
X154444866Y-107819866D01*
X154392777Y-107883337D01*
X154338405Y-107781614D01*
X154227962Y-107647038D01*
X154093386Y-107536595D01*
X153939850Y-107454528D01*
X153773254Y-107403992D01*
X153600000Y-107386928D01*
X152400000Y-107386928D01*
X152226746Y-107403992D01*
X152060150Y-107454528D01*
X151906614Y-107536595D01*
X151772038Y-107647038D01*
X151661595Y-107781614D01*
X151579528Y-107935150D01*
X151528992Y-108101746D01*
X151511928Y-108275000D01*
X148437170Y-108275000D01*
X148325990Y-108006589D01*
X148163475Y-107763368D01*
X147956632Y-107556525D01*
X147713411Y-107394010D01*
X147443158Y-107282068D01*
X147156260Y-107225000D01*
X146863740Y-107225000D01*
X146576842Y-107282068D01*
X146306589Y-107394010D01*
X146063368Y-107556525D01*
X145856525Y-107763368D01*
X145740000Y-107937760D01*
X145623475Y-107763368D01*
X145416632Y-107556525D01*
X145173411Y-107394010D01*
X144903158Y-107282068D01*
X144616260Y-107225000D01*
X144323740Y-107225000D01*
X144036842Y-107282068D01*
X143766589Y-107394010D01*
X143523368Y-107556525D01*
X143316525Y-107763368D01*
X143200000Y-107937760D01*
X143083475Y-107763368D01*
X142876632Y-107556525D01*
X142633411Y-107394010D01*
X142363158Y-107282068D01*
X142076260Y-107225000D01*
X141783740Y-107225000D01*
X141496842Y-107282068D01*
X141226589Y-107394010D01*
X140983368Y-107556525D01*
X140776525Y-107763368D01*
X140660000Y-107937760D01*
X140543475Y-107763368D01*
X140336632Y-107556525D01*
X140093411Y-107394010D01*
X139823158Y-107282068D01*
X139536260Y-107225000D01*
X139243740Y-107225000D01*
X138956842Y-107282068D01*
X138686589Y-107394010D01*
X138443368Y-107556525D01*
X138236525Y-107763368D01*
X138120000Y-107937760D01*
X138003475Y-107763368D01*
X137796632Y-107556525D01*
X137553411Y-107394010D01*
X137283158Y-107282068D01*
X136996260Y-107225000D01*
X136703740Y-107225000D01*
X136416842Y-107282068D01*
X136146589Y-107394010D01*
X135903368Y-107556525D01*
X135696525Y-107763368D01*
X135580000Y-107937760D01*
X135463475Y-107763368D01*
X135256632Y-107556525D01*
X135013411Y-107394010D01*
X134743158Y-107282068D01*
X134456260Y-107225000D01*
X134163740Y-107225000D01*
X133876842Y-107282068D01*
X133606589Y-107394010D01*
X133363368Y-107556525D01*
X133156525Y-107763368D01*
X133040000Y-107937760D01*
X132923475Y-107763368D01*
X132716632Y-107556525D01*
X132473411Y-107394010D01*
X132203158Y-107282068D01*
X131916260Y-107225000D01*
X131623740Y-107225000D01*
X131336842Y-107282068D01*
X131066589Y-107394010D01*
X130823368Y-107556525D01*
X130616525Y-107763368D01*
X130500000Y-107937760D01*
X130383475Y-107763368D01*
X130176632Y-107556525D01*
X129933411Y-107394010D01*
X129663158Y-107282068D01*
X129376260Y-107225000D01*
X129083740Y-107225000D01*
X128796842Y-107282068D01*
X128526589Y-107394010D01*
X128283368Y-107556525D01*
X128076525Y-107763368D01*
X127960000Y-107937760D01*
X127843475Y-107763368D01*
X127636632Y-107556525D01*
X127393411Y-107394010D01*
X127123158Y-107282068D01*
X126836260Y-107225000D01*
X126543740Y-107225000D01*
X126256842Y-107282068D01*
X125986589Y-107394010D01*
X125743368Y-107556525D01*
X125536525Y-107763368D01*
X125420000Y-107937760D01*
X125303475Y-107763368D01*
X125096632Y-107556525D01*
X124853411Y-107394010D01*
X124583158Y-107282068D01*
X124296260Y-107225000D01*
X124003740Y-107225000D01*
X123716842Y-107282068D01*
X123446589Y-107394010D01*
X123203368Y-107556525D01*
X122996525Y-107763368D01*
X122880000Y-107937760D01*
X122763475Y-107763368D01*
X122556632Y-107556525D01*
X122313411Y-107394010D01*
X122043158Y-107282068D01*
X121756260Y-107225000D01*
X121463740Y-107225000D01*
X121176842Y-107282068D01*
X120906589Y-107394010D01*
X120663368Y-107556525D01*
X120456525Y-107763368D01*
X120340000Y-107937760D01*
X120223475Y-107763368D01*
X120016632Y-107556525D01*
X119773411Y-107394010D01*
X119503158Y-107282068D01*
X119216260Y-107225000D01*
X118923740Y-107225000D01*
X118636842Y-107282068D01*
X118366589Y-107394010D01*
X118123368Y-107556525D01*
X117916525Y-107763368D01*
X117800000Y-107937760D01*
X117683475Y-107763368D01*
X117476632Y-107556525D01*
X117233411Y-107394010D01*
X116963158Y-107282068D01*
X116676260Y-107225000D01*
X116383740Y-107225000D01*
X116096842Y-107282068D01*
X115826589Y-107394010D01*
X115583368Y-107556525D01*
X115376525Y-107763368D01*
X115260000Y-107937760D01*
X115143475Y-107763368D01*
X114936632Y-107556525D01*
X114693411Y-107394010D01*
X114423158Y-107282068D01*
X114136260Y-107225000D01*
X113843740Y-107225000D01*
X113556842Y-107282068D01*
X113286589Y-107394010D01*
X113043368Y-107556525D01*
X112836525Y-107763368D01*
X112720000Y-107937760D01*
X112603475Y-107763368D01*
X112396632Y-107556525D01*
X112153411Y-107394010D01*
X111883158Y-107282068D01*
X111596260Y-107225000D01*
X111303740Y-107225000D01*
X111016842Y-107282068D01*
X110746589Y-107394010D01*
X110503368Y-107556525D01*
X110296525Y-107763368D01*
X110180000Y-107937760D01*
X110063475Y-107763368D01*
X109856632Y-107556525D01*
X109613411Y-107394010D01*
X109343158Y-107282068D01*
X109056260Y-107225000D01*
X108763740Y-107225000D01*
X108476842Y-107282068D01*
X108206589Y-107394010D01*
X107963368Y-107556525D01*
X107756525Y-107763368D01*
X107640000Y-107937760D01*
X107523475Y-107763368D01*
X107316632Y-107556525D01*
X107073411Y-107394010D01*
X106803158Y-107282068D01*
X106516260Y-107225000D01*
X106223740Y-107225000D01*
X105936842Y-107282068D01*
X105666589Y-107394010D01*
X105423368Y-107556525D01*
X105216525Y-107763368D01*
X105054010Y-108006589D01*
X104942068Y-108276842D01*
X104885000Y-108563740D01*
X104885000Y-108856260D01*
X104942068Y-109143158D01*
X105054010Y-109413411D01*
X105216525Y-109656632D01*
X105423368Y-109863475D01*
X105597760Y-109980000D01*
X105423368Y-110096525D01*
X105216525Y-110303368D01*
X105100000Y-110477760D01*
X104983475Y-110303368D01*
X104776632Y-110096525D01*
X104533411Y-109934010D01*
X104263158Y-109822068D01*
X103976260Y-109765000D01*
X103683740Y-109765000D01*
X103396842Y-109822068D01*
X103126589Y-109934010D01*
X102883368Y-110096525D01*
X102676525Y-110303368D01*
X102560000Y-110477760D01*
X102443475Y-110303368D01*
X102236632Y-110096525D01*
X102062240Y-109980000D01*
X102236632Y-109863475D01*
X102443475Y-109656632D01*
X102605990Y-109413411D01*
X102717932Y-109143158D01*
X102775000Y-108856260D01*
X102775000Y-108563740D01*
X102717932Y-108276842D01*
X102605990Y-108006589D01*
X102443475Y-107763368D01*
X102236632Y-107556525D01*
X101993411Y-107394010D01*
X101723158Y-107282068D01*
X101436260Y-107225000D01*
X101143740Y-107225000D01*
X100856842Y-107282068D01*
X100586589Y-107394010D01*
X100343368Y-107556525D01*
X100136525Y-107763368D01*
X100020000Y-107937760D01*
X99903475Y-107763368D01*
X99696632Y-107556525D01*
X99453411Y-107394010D01*
X99183158Y-107282068D01*
X98896260Y-107225000D01*
X98603740Y-107225000D01*
X98316842Y-107282068D01*
X98046589Y-107394010D01*
X97803368Y-107556525D01*
X97596525Y-107763368D01*
X97434010Y-108006589D01*
X97322068Y-108276842D01*
X97265000Y-108563740D01*
X97265000Y-108856260D01*
X97322068Y-109143158D01*
X97434010Y-109413411D01*
X97596525Y-109656632D01*
X97728380Y-109788487D01*
X97655820Y-109810498D01*
X97545506Y-109869463D01*
X97448815Y-109948815D01*
X97369463Y-110045506D01*
X97310498Y-110155820D01*
X97274188Y-110275518D01*
X97261928Y-110400000D01*
X97261928Y-110779386D01*
X96068765Y-111972550D01*
X96015919Y-112015920D01*
X95842843Y-112226813D01*
X95725652Y-112446063D01*
X95714236Y-112467420D01*
X95685000Y-112563798D01*
X95685000Y-105685000D01*
X173682646Y-105685000D01*
X173631980Y-105689990D01*
G37*
%TD.AperFunction*%
%TD*%
M02*
