%TF.GenerationSoftware,KiCad,Pcbnew,5.1.8-5.fc33*%
%TF.CreationDate,2020-12-26T13:36:50+00:00*%
%TF.ProjectId,breakout,62726561-6b6f-4757-942e-6b696361645f,rev?*%
%TF.SameCoordinates,Original*%
%TF.FileFunction,Soldermask,Bot*%
%TF.FilePolarity,Negative*%
%FSLAX46Y46*%
G04 Gerber Fmt 4.6, Leading zero omitted, Abs format (unit mm)*
G04 Created by KiCad (PCBNEW 5.1.8-5.fc33) date 2020-12-26 13:36:50*
%MOMM*%
%LPD*%
G01*
G04 APERTURE LIST*
%ADD10O,1.700000X1.700000*%
%ADD11R,1.700000X1.700000*%
%ADD12C,6.400000*%
%ADD13O,1.700000X1.950000*%
%ADD14O,1.950000X1.700000*%
%ADD15C,2.000000*%
%ADD16C,1.524000*%
G04 APERTURE END LIST*
%TO.C,R5*%
G36*
G01*
X125075000Y-127725000D02*
X125075000Y-128275000D01*
G75*
G02*
X124875000Y-128475000I-200000J0D01*
G01*
X124475000Y-128475000D01*
G75*
G02*
X124275000Y-128275000I0J200000D01*
G01*
X124275000Y-127725000D01*
G75*
G02*
X124475000Y-127525000I200000J0D01*
G01*
X124875000Y-127525000D01*
G75*
G02*
X125075000Y-127725000I0J-200000D01*
G01*
G37*
G36*
G01*
X126725000Y-127725000D02*
X126725000Y-128275000D01*
G75*
G02*
X126525000Y-128475000I-200000J0D01*
G01*
X126125000Y-128475000D01*
G75*
G02*
X125925000Y-128275000I0J200000D01*
G01*
X125925000Y-127725000D01*
G75*
G02*
X126125000Y-127525000I200000J0D01*
G01*
X126525000Y-127525000D01*
G75*
G02*
X126725000Y-127725000I0J-200000D01*
G01*
G37*
%TD*%
%TO.C,R4*%
G36*
G01*
X125075000Y-125225000D02*
X125075000Y-125775000D01*
G75*
G02*
X124875000Y-125975000I-200000J0D01*
G01*
X124475000Y-125975000D01*
G75*
G02*
X124275000Y-125775000I0J200000D01*
G01*
X124275000Y-125225000D01*
G75*
G02*
X124475000Y-125025000I200000J0D01*
G01*
X124875000Y-125025000D01*
G75*
G02*
X125075000Y-125225000I0J-200000D01*
G01*
G37*
G36*
G01*
X126725000Y-125225000D02*
X126725000Y-125775000D01*
G75*
G02*
X126525000Y-125975000I-200000J0D01*
G01*
X126125000Y-125975000D01*
G75*
G02*
X125925000Y-125775000I0J200000D01*
G01*
X125925000Y-125225000D01*
G75*
G02*
X126125000Y-125025000I200000J0D01*
G01*
X126525000Y-125025000D01*
G75*
G02*
X126725000Y-125225000I0J-200000D01*
G01*
G37*
%TD*%
D10*
%TO.C,J12*%
X131540000Y-127900000D03*
X129000000Y-127900000D03*
X131540000Y-125360000D03*
X129000000Y-125360000D03*
X131540000Y-122820000D03*
X129000000Y-122820000D03*
X131540000Y-120280000D03*
X129000000Y-120280000D03*
X131540000Y-117740000D03*
X129000000Y-117740000D03*
X131540000Y-115200000D03*
D11*
X129000000Y-115200000D03*
%TD*%
D12*
%TO.C,REF\u002A\u002A*%
X170000000Y-122500000D03*
%TD*%
%TO.C,REF\u002A\u002A*%
X115000000Y-122500000D03*
%TD*%
D10*
%TO.C,J3*%
X147010000Y-108710000D03*
X147010000Y-111250000D03*
X144470000Y-108710000D03*
X144470000Y-111250000D03*
X141930000Y-108710000D03*
X141930000Y-111250000D03*
X139390000Y-108710000D03*
X139390000Y-111250000D03*
X136850000Y-108710000D03*
X136850000Y-111250000D03*
X134310000Y-108710000D03*
X134310000Y-111250000D03*
X131770000Y-108710000D03*
X131770000Y-111250000D03*
X129230000Y-108710000D03*
X129230000Y-111250000D03*
X126690000Y-108710000D03*
X126690000Y-111250000D03*
X124150000Y-108710000D03*
X124150000Y-111250000D03*
X121610000Y-108710000D03*
X121610000Y-111250000D03*
X119070000Y-108710000D03*
X119070000Y-111250000D03*
X116530000Y-108710000D03*
X116530000Y-111250000D03*
X113990000Y-108710000D03*
X113990000Y-111250000D03*
X111450000Y-108710000D03*
X111450000Y-111250000D03*
X108910000Y-108710000D03*
X108910000Y-111250000D03*
X106370000Y-108710000D03*
X106370000Y-111250000D03*
X103830000Y-108710000D03*
X103830000Y-111250000D03*
X101290000Y-108710000D03*
X101290000Y-111250000D03*
X98750000Y-108710000D03*
D11*
X98750000Y-111250000D03*
%TD*%
%TO.C,R3*%
G36*
G01*
X121525000Y-132575000D02*
X120975000Y-132575000D01*
G75*
G02*
X120775000Y-132375000I0J200000D01*
G01*
X120775000Y-131975000D01*
G75*
G02*
X120975000Y-131775000I200000J0D01*
G01*
X121525000Y-131775000D01*
G75*
G02*
X121725000Y-131975000I0J-200000D01*
G01*
X121725000Y-132375000D01*
G75*
G02*
X121525000Y-132575000I-200000J0D01*
G01*
G37*
G36*
G01*
X121525000Y-134225000D02*
X120975000Y-134225000D01*
G75*
G02*
X120775000Y-134025000I0J200000D01*
G01*
X120775000Y-133625000D01*
G75*
G02*
X120975000Y-133425000I200000J0D01*
G01*
X121525000Y-133425000D01*
G75*
G02*
X121725000Y-133625000I0J-200000D01*
G01*
X121725000Y-134025000D01*
G75*
G02*
X121525000Y-134225000I-200000J0D01*
G01*
G37*
%TD*%
%TO.C,R2*%
G36*
G01*
X125975000Y-133425000D02*
X126525000Y-133425000D01*
G75*
G02*
X126725000Y-133625000I0J-200000D01*
G01*
X126725000Y-134025000D01*
G75*
G02*
X126525000Y-134225000I-200000J0D01*
G01*
X125975000Y-134225000D01*
G75*
G02*
X125775000Y-134025000I0J200000D01*
G01*
X125775000Y-133625000D01*
G75*
G02*
X125975000Y-133425000I200000J0D01*
G01*
G37*
G36*
G01*
X125975000Y-131775000D02*
X126525000Y-131775000D01*
G75*
G02*
X126725000Y-131975000I0J-200000D01*
G01*
X126725000Y-132375000D01*
G75*
G02*
X126525000Y-132575000I-200000J0D01*
G01*
X125975000Y-132575000D01*
G75*
G02*
X125775000Y-132375000I0J200000D01*
G01*
X125775000Y-131975000D01*
G75*
G02*
X125975000Y-131775000I200000J0D01*
G01*
G37*
%TD*%
%TO.C,R1*%
G36*
G01*
X102325000Y-123475000D02*
X102325000Y-124025000D01*
G75*
G02*
X102125000Y-124225000I-200000J0D01*
G01*
X101725000Y-124225000D01*
G75*
G02*
X101525000Y-124025000I0J200000D01*
G01*
X101525000Y-123475000D01*
G75*
G02*
X101725000Y-123275000I200000J0D01*
G01*
X102125000Y-123275000D01*
G75*
G02*
X102325000Y-123475000I0J-200000D01*
G01*
G37*
G36*
G01*
X103975000Y-123475000D02*
X103975000Y-124025000D01*
G75*
G02*
X103775000Y-124225000I-200000J0D01*
G01*
X103375000Y-124225000D01*
G75*
G02*
X103175000Y-124025000I0J200000D01*
G01*
X103175000Y-123475000D01*
G75*
G02*
X103375000Y-123275000I200000J0D01*
G01*
X103775000Y-123275000D01*
G75*
G02*
X103975000Y-123475000I0J-200000D01*
G01*
G37*
%TD*%
D13*
%TO.C,J11*%
X153250000Y-136250000D03*
X155750000Y-136250000D03*
X158250000Y-136250000D03*
G36*
G01*
X161600000Y-135525000D02*
X161600000Y-136975000D01*
G75*
G02*
X161350000Y-137225000I-250000J0D01*
G01*
X160150000Y-137225000D01*
G75*
G02*
X159900000Y-136975000I0J250000D01*
G01*
X159900000Y-135525000D01*
G75*
G02*
X160150000Y-135275000I250000J0D01*
G01*
X161350000Y-135275000D01*
G75*
G02*
X161600000Y-135525000I0J-250000D01*
G01*
G37*
%TD*%
%TO.C,J10*%
X168000000Y-136250000D03*
X170500000Y-136250000D03*
X173000000Y-136250000D03*
G36*
G01*
X176350000Y-135525000D02*
X176350000Y-136975000D01*
G75*
G02*
X176100000Y-137225000I-250000J0D01*
G01*
X174900000Y-137225000D01*
G75*
G02*
X174650000Y-136975000I0J250000D01*
G01*
X174650000Y-135525000D01*
G75*
G02*
X174900000Y-135275000I250000J0D01*
G01*
X176100000Y-135275000D01*
G75*
G02*
X176350000Y-135525000I0J-250000D01*
G01*
G37*
%TD*%
D14*
%TO.C,J9*%
X186250000Y-122500000D03*
X186250000Y-120000000D03*
X186250000Y-117500000D03*
G36*
G01*
X185525000Y-114150000D02*
X186975000Y-114150000D01*
G75*
G02*
X187225000Y-114400000I0J-250000D01*
G01*
X187225000Y-115600000D01*
G75*
G02*
X186975000Y-115850000I-250000J0D01*
G01*
X185525000Y-115850000D01*
G75*
G02*
X185275000Y-115600000I0J250000D01*
G01*
X185275000Y-114400000D01*
G75*
G02*
X185525000Y-114150000I250000J0D01*
G01*
G37*
%TD*%
D13*
%TO.C,J8*%
X180250000Y-109000000D03*
X177750000Y-109000000D03*
X175250000Y-109000000D03*
G36*
G01*
X171900000Y-109725000D02*
X171900000Y-108275000D01*
G75*
G02*
X172150000Y-108025000I250000J0D01*
G01*
X173350000Y-108025000D01*
G75*
G02*
X173600000Y-108275000I0J-250000D01*
G01*
X173600000Y-109725000D01*
G75*
G02*
X173350000Y-109975000I-250000J0D01*
G01*
X172150000Y-109975000D01*
G75*
G02*
X171900000Y-109725000I0J250000D01*
G01*
G37*
%TD*%
%TO.C,J7*%
X165500000Y-109000000D03*
X163000000Y-109000000D03*
X160500000Y-109000000D03*
X158000000Y-109000000D03*
X155500000Y-109000000D03*
G36*
G01*
X152150000Y-109725000D02*
X152150000Y-108275000D01*
G75*
G02*
X152400000Y-108025000I250000J0D01*
G01*
X153600000Y-108025000D01*
G75*
G02*
X153850000Y-108275000I0J-250000D01*
G01*
X153850000Y-109725000D01*
G75*
G02*
X153600000Y-109975000I-250000J0D01*
G01*
X152400000Y-109975000D01*
G75*
G02*
X152150000Y-109725000I0J250000D01*
G01*
G37*
%TD*%
%TO.C,J6*%
X133500000Y-136250000D03*
X136000000Y-136250000D03*
X138500000Y-136250000D03*
X141000000Y-136250000D03*
X143500000Y-136250000D03*
G36*
G01*
X146850000Y-135525000D02*
X146850000Y-136975000D01*
G75*
G02*
X146600000Y-137225000I-250000J0D01*
G01*
X145400000Y-137225000D01*
G75*
G02*
X145150000Y-136975000I0J250000D01*
G01*
X145150000Y-135525000D01*
G75*
G02*
X145400000Y-135275000I250000J0D01*
G01*
X146600000Y-135275000D01*
G75*
G02*
X146850000Y-135525000I0J-250000D01*
G01*
G37*
%TD*%
D10*
%TO.C,J5*%
X99750000Y-121250000D03*
D11*
X99750000Y-123790000D03*
%TD*%
D15*
%TO.C,J4*%
X183150000Y-128150000D03*
D16*
X184750000Y-134750000D03*
X184750000Y-132250000D03*
X184750000Y-129750000D03*
%TD*%
D13*
%TO.C,J2*%
X118750000Y-136250000D03*
X121250000Y-136250000D03*
X123750000Y-136250000D03*
G36*
G01*
X127100000Y-135525000D02*
X127100000Y-136975000D01*
G75*
G02*
X126850000Y-137225000I-250000J0D01*
G01*
X125650000Y-137225000D01*
G75*
G02*
X125400000Y-136975000I0J250000D01*
G01*
X125400000Y-135525000D01*
G75*
G02*
X125650000Y-135275000I250000J0D01*
G01*
X126850000Y-135275000D01*
G75*
G02*
X127100000Y-135525000I0J-250000D01*
G01*
G37*
%TD*%
%TO.C,J1*%
X104000000Y-136250000D03*
X106500000Y-136250000D03*
X109000000Y-136250000D03*
G36*
G01*
X112350000Y-135525000D02*
X112350000Y-136975000D01*
G75*
G02*
X112100000Y-137225000I-250000J0D01*
G01*
X110900000Y-137225000D01*
G75*
G02*
X110650000Y-136975000I0J250000D01*
G01*
X110650000Y-135525000D01*
G75*
G02*
X110900000Y-135275000I250000J0D01*
G01*
X112100000Y-135275000D01*
G75*
G02*
X112350000Y-135525000I0J-250000D01*
G01*
G37*
%TD*%
M02*
