%TF.GenerationSoftware,KiCad,Pcbnew,5.1.8-5.fc33*%
%TF.CreationDate,2020-12-26T13:36:50+00:00*%
%TF.ProjectId,breakout,62726561-6b6f-4757-942e-6b696361645f,rev?*%
%TF.SameCoordinates,Original*%
%TF.FileFunction,Copper,L1,Top*%
%TF.FilePolarity,Positive*%
%FSLAX46Y46*%
G04 Gerber Fmt 4.6, Leading zero omitted, Abs format (unit mm)*
G04 Created by KiCad (PCBNEW 5.1.8-5.fc33) date 2020-12-26 13:36:50*
%MOMM*%
%LPD*%
G01*
G04 APERTURE LIST*
%TA.AperFunction,ComponentPad*%
%ADD10O,1.700000X1.700000*%
%TD*%
%TA.AperFunction,ComponentPad*%
%ADD11R,1.700000X1.700000*%
%TD*%
%TA.AperFunction,ComponentPad*%
%ADD12C,6.400000*%
%TD*%
%TA.AperFunction,ComponentPad*%
%ADD13O,1.700000X1.950000*%
%TD*%
%TA.AperFunction,ComponentPad*%
%ADD14O,1.950000X1.700000*%
%TD*%
%TA.AperFunction,ComponentPad*%
%ADD15C,2.000000*%
%TD*%
%TA.AperFunction,ComponentPad*%
%ADD16C,1.524000*%
%TD*%
%TA.AperFunction,ViaPad*%
%ADD17C,0.800000*%
%TD*%
%TA.AperFunction,Conductor*%
%ADD18C,1.500000*%
%TD*%
%TA.AperFunction,Conductor*%
%ADD19C,0.250000*%
%TD*%
%TA.AperFunction,Conductor*%
%ADD20C,0.500000*%
%TD*%
G04 APERTURE END LIST*
D10*
%TO.P,J12,12*%
%TO.N,SCL*%
X131540000Y-127900000D03*
%TO.P,J12,11*%
X129000000Y-127900000D03*
%TO.P,J12,10*%
%TO.N,SDA*%
X131540000Y-125360000D03*
%TO.P,J12,9*%
X129000000Y-125360000D03*
%TO.P,J12,8*%
%TO.N,GND*%
X131540000Y-122820000D03*
%TO.P,J12,7*%
X129000000Y-122820000D03*
%TO.P,J12,6*%
%TO.N,+3V3*%
X131540000Y-120280000D03*
%TO.P,J12,5*%
X129000000Y-120280000D03*
%TO.P,J12,4*%
%TO.N,+5V*%
X131540000Y-117740000D03*
%TO.P,J12,3*%
X129000000Y-117740000D03*
%TO.P,J12,2*%
%TO.N,+12V*%
X131540000Y-115200000D03*
D11*
%TO.P,J12,1*%
X129000000Y-115200000D03*
%TD*%
D12*
%TO.P,REF\u002A\u002A,1*%
%TO.N,N/C*%
X170000000Y-122500000D03*
%TD*%
%TO.P,REF\u002A\u002A,1*%
%TO.N,N/C*%
X115000000Y-122500000D03*
%TD*%
D10*
%TO.P,J3,40*%
%TO.N,Net-(J3-Pad40)*%
X147010000Y-108710000D03*
%TO.P,J3,39*%
%TO.N,Net-(J3-Pad39)*%
X147010000Y-111250000D03*
%TO.P,J3,38*%
%TO.N,Net-(J3-Pad38)*%
X144470000Y-108710000D03*
%TO.P,J3,37*%
%TO.N,LIFT_DOWN*%
X144470000Y-111250000D03*
%TO.P,J3,36*%
%TO.N,Net-(J3-Pad36)*%
X141930000Y-108710000D03*
%TO.P,J3,35*%
%TO.N,LIFT_UP*%
X141930000Y-111250000D03*
%TO.P,J3,34*%
%TO.N,Net-(J3-Pad34)*%
X139390000Y-108710000D03*
%TO.P,J3,33*%
%TO.N,UPSIDE_DOWN*%
X139390000Y-111250000D03*
%TO.P,J3,32*%
%TO.N,Net-(J3-Pad32)*%
X136850000Y-108710000D03*
%TO.P,J3,31*%
%TO.N,RIGHT_WAY_UP*%
X136850000Y-111250000D03*
%TO.P,J3,30*%
%TO.N,Net-(J3-Pad30)*%
X134310000Y-108710000D03*
%TO.P,J3,29*%
%TO.N,CLAW_OPEN*%
X134310000Y-111250000D03*
%TO.P,J3,28*%
%TO.N,Net-(J3-Pad28)*%
X131770000Y-108710000D03*
%TO.P,J3,27*%
%TO.N,Net-(J3-Pad27)*%
X131770000Y-111250000D03*
%TO.P,J3,26*%
%TO.N,Net-(J3-Pad26)*%
X129230000Y-108710000D03*
%TO.P,J3,25*%
%TO.N,Net-(J3-Pad25)*%
X129230000Y-111250000D03*
%TO.P,J3,24*%
%TO.N,Net-(J3-Pad24)*%
X126690000Y-108710000D03*
%TO.P,J3,23*%
%TO.N,Net-(J3-Pad23)*%
X126690000Y-111250000D03*
%TO.P,J3,22*%
%TO.N,Net-(J3-Pad22)*%
X124150000Y-108710000D03*
%TO.P,J3,21*%
%TO.N,Net-(J3-Pad21)*%
X124150000Y-111250000D03*
%TO.P,J3,20*%
%TO.N,Net-(J3-Pad20)*%
X121610000Y-108710000D03*
%TO.P,J3,19*%
%TO.N,Net-(J3-Pad19)*%
X121610000Y-111250000D03*
%TO.P,J3,18*%
%TO.N,Net-(J3-Pad18)*%
X119070000Y-108710000D03*
%TO.P,J3,17*%
%TO.N,Net-(J3-Pad17)*%
X119070000Y-111250000D03*
%TO.P,J3,16*%
%TO.N,Net-(J3-Pad16)*%
X116530000Y-108710000D03*
%TO.P,J3,15*%
%TO.N,Net-(J3-Pad15)*%
X116530000Y-111250000D03*
%TO.P,J3,14*%
%TO.N,Net-(J3-Pad14)*%
X113990000Y-108710000D03*
%TO.P,J3,13*%
%TO.N,Net-(J3-Pad13)*%
X113990000Y-111250000D03*
%TO.P,J3,12*%
%TO.N,Net-(J3-Pad12)*%
X111450000Y-108710000D03*
%TO.P,J3,11*%
%TO.N,Net-(J3-Pad11)*%
X111450000Y-111250000D03*
%TO.P,J3,10*%
%TO.N,Net-(J3-Pad10)*%
X108910000Y-108710000D03*
%TO.P,J3,9*%
%TO.N,Net-(J3-Pad9)*%
X108910000Y-111250000D03*
%TO.P,J3,8*%
%TO.N,Net-(J3-Pad8)*%
X106370000Y-108710000D03*
%TO.P,J3,7*%
%TO.N,Net-(J3-Pad7)*%
X106370000Y-111250000D03*
%TO.P,J3,6*%
%TO.N,GND*%
X103830000Y-108710000D03*
%TO.P,J3,5*%
%TO.N,SCL*%
X103830000Y-111250000D03*
%TO.P,J3,4*%
%TO.N,+5VD*%
X101290000Y-108710000D03*
%TO.P,J3,3*%
%TO.N,SDA*%
X101290000Y-111250000D03*
%TO.P,J3,2*%
%TO.N,+5VD*%
X98750000Y-108710000D03*
D11*
%TO.P,J3,1*%
%TO.N,+3V3*%
X98750000Y-111250000D03*
%TD*%
D13*
%TO.P,J11,4*%
%TO.N,SCL*%
X153250000Y-136250000D03*
%TO.P,J11,3*%
%TO.N,SDA*%
X155750000Y-136250000D03*
%TO.P,J11,2*%
%TO.N,GND*%
X158250000Y-136250000D03*
%TO.P,J11,1*%
%TO.N,+3V3*%
%TA.AperFunction,ComponentPad*%
G36*
G01*
X161600000Y-135525000D02*
X161600000Y-136975000D01*
G75*
G02*
X161350000Y-137225000I-250000J0D01*
G01*
X160150000Y-137225000D01*
G75*
G02*
X159900000Y-136975000I0J250000D01*
G01*
X159900000Y-135525000D01*
G75*
G02*
X160150000Y-135275000I250000J0D01*
G01*
X161350000Y-135275000D01*
G75*
G02*
X161600000Y-135525000I0J-250000D01*
G01*
G37*
%TD.AperFunction*%
%TD*%
%TO.P,J10,4*%
%TO.N,SCL*%
X168000000Y-136250000D03*
%TO.P,J10,3*%
%TO.N,SDA*%
X170500000Y-136250000D03*
%TO.P,J10,2*%
%TO.N,GND*%
X173000000Y-136250000D03*
%TO.P,J10,1*%
%TO.N,+5V*%
%TA.AperFunction,ComponentPad*%
G36*
G01*
X176350000Y-135525000D02*
X176350000Y-136975000D01*
G75*
G02*
X176100000Y-137225000I-250000J0D01*
G01*
X174900000Y-137225000D01*
G75*
G02*
X174650000Y-136975000I0J250000D01*
G01*
X174650000Y-135525000D01*
G75*
G02*
X174900000Y-135275000I250000J0D01*
G01*
X176100000Y-135275000D01*
G75*
G02*
X176350000Y-135525000I0J-250000D01*
G01*
G37*
%TD.AperFunction*%
%TD*%
D14*
%TO.P,J9,4*%
%TO.N,SCL*%
X186250000Y-122500000D03*
%TO.P,J9,3*%
%TO.N,SDA*%
X186250000Y-120000000D03*
%TO.P,J9,2*%
%TO.N,GND*%
X186250000Y-117500000D03*
%TO.P,J9,1*%
%TO.N,+3V3*%
%TA.AperFunction,ComponentPad*%
G36*
G01*
X185525000Y-114150000D02*
X186975000Y-114150000D01*
G75*
G02*
X187225000Y-114400000I0J-250000D01*
G01*
X187225000Y-115600000D01*
G75*
G02*
X186975000Y-115850000I-250000J0D01*
G01*
X185525000Y-115850000D01*
G75*
G02*
X185275000Y-115600000I0J250000D01*
G01*
X185275000Y-114400000D01*
G75*
G02*
X185525000Y-114150000I250000J0D01*
G01*
G37*
%TD.AperFunction*%
%TD*%
D13*
%TO.P,J8,4*%
%TO.N,SCL*%
X180250000Y-109000000D03*
%TO.P,J8,3*%
%TO.N,SDA*%
X177750000Y-109000000D03*
%TO.P,J8,2*%
%TO.N,GND*%
X175250000Y-109000000D03*
%TO.P,J8,1*%
%TO.N,+3V3*%
%TA.AperFunction,ComponentPad*%
G36*
G01*
X171900000Y-109725000D02*
X171900000Y-108275000D01*
G75*
G02*
X172150000Y-108025000I250000J0D01*
G01*
X173350000Y-108025000D01*
G75*
G02*
X173600000Y-108275000I0J-250000D01*
G01*
X173600000Y-109725000D01*
G75*
G02*
X173350000Y-109975000I-250000J0D01*
G01*
X172150000Y-109975000D01*
G75*
G02*
X171900000Y-109725000I0J250000D01*
G01*
G37*
%TD.AperFunction*%
%TD*%
%TO.P,J7,6*%
%TO.N,GND*%
X165500000Y-109000000D03*
%TO.P,J7,5*%
%TO.N,LIFT_DOWN*%
X163000000Y-109000000D03*
%TO.P,J7,4*%
%TO.N,LIFT_UP*%
X160500000Y-109000000D03*
%TO.P,J7,3*%
%TO.N,UPSIDE_DOWN*%
X158000000Y-109000000D03*
%TO.P,J7,2*%
%TO.N,RIGHT_WAY_UP*%
X155500000Y-109000000D03*
%TO.P,J7,1*%
%TO.N,CLAW_OPEN*%
%TA.AperFunction,ComponentPad*%
G36*
G01*
X152150000Y-109725000D02*
X152150000Y-108275000D01*
G75*
G02*
X152400000Y-108025000I250000J0D01*
G01*
X153600000Y-108025000D01*
G75*
G02*
X153850000Y-108275000I0J-250000D01*
G01*
X153850000Y-109725000D01*
G75*
G02*
X153600000Y-109975000I-250000J0D01*
G01*
X152400000Y-109975000D01*
G75*
G02*
X152150000Y-109725000I0J250000D01*
G01*
G37*
%TD.AperFunction*%
%TD*%
%TO.P,J6,6*%
%TO.N,Net-(J6-Pad6)*%
X133500000Y-136250000D03*
%TO.P,J6,5*%
%TO.N,Net-(J2-Pad3)*%
X136000000Y-136250000D03*
%TO.P,J6,4*%
%TO.N,SCL*%
X138500000Y-136250000D03*
%TO.P,J6,3*%
%TO.N,SDA*%
X141000000Y-136250000D03*
%TO.P,J6,2*%
%TO.N,GND*%
X143500000Y-136250000D03*
%TO.P,J6,1*%
%TO.N,+12V*%
%TA.AperFunction,ComponentPad*%
G36*
G01*
X146850000Y-135525000D02*
X146850000Y-136975000D01*
G75*
G02*
X146600000Y-137225000I-250000J0D01*
G01*
X145400000Y-137225000D01*
G75*
G02*
X145150000Y-136975000I0J250000D01*
G01*
X145150000Y-135525000D01*
G75*
G02*
X145400000Y-135275000I250000J0D01*
G01*
X146600000Y-135275000D01*
G75*
G02*
X146850000Y-135525000I0J-250000D01*
G01*
G37*
%TD.AperFunction*%
%TD*%
D10*
%TO.P,J5,2*%
%TO.N,GND*%
X99750000Y-121250000D03*
D11*
%TO.P,J5,1*%
%TO.N,START_CORD*%
X99750000Y-123790000D03*
%TD*%
D15*
%TO.P,J4,*%
%TO.N,*%
X183150000Y-128150000D03*
D16*
%TO.P,J4,3*%
%TO.N,GND*%
X184750000Y-134750000D03*
%TO.P,J4,2*%
%TO.N,Net-(J4-Pad2)*%
X184750000Y-132250000D03*
%TO.P,J4,1*%
%TO.N,+3V3*%
X184750000Y-129750000D03*
%TD*%
D13*
%TO.P,J2,4*%
%TO.N,GND*%
X118750000Y-136250000D03*
%TO.P,J2,3*%
%TO.N,Net-(J2-Pad3)*%
X121250000Y-136250000D03*
%TO.P,J2,2*%
%TO.N,GND*%
X123750000Y-136250000D03*
%TO.P,J2,1*%
%TO.N,Net-(J2-Pad1)*%
%TA.AperFunction,ComponentPad*%
G36*
G01*
X127100000Y-135525000D02*
X127100000Y-136975000D01*
G75*
G02*
X126850000Y-137225000I-250000J0D01*
G01*
X125650000Y-137225000D01*
G75*
G02*
X125400000Y-136975000I0J250000D01*
G01*
X125400000Y-135525000D01*
G75*
G02*
X125650000Y-135275000I250000J0D01*
G01*
X126850000Y-135275000D01*
G75*
G02*
X127100000Y-135525000I0J-250000D01*
G01*
G37*
%TD.AperFunction*%
%TD*%
%TO.P,J1,4*%
%TO.N,+12V*%
X104000000Y-136250000D03*
%TO.P,J1,3*%
%TO.N,+5VD*%
X106500000Y-136250000D03*
%TO.P,J1,2*%
%TO.N,+5V*%
X109000000Y-136250000D03*
%TO.P,J1,1*%
%TO.N,GND*%
%TA.AperFunction,ComponentPad*%
G36*
G01*
X112350000Y-135525000D02*
X112350000Y-136975000D01*
G75*
G02*
X112100000Y-137225000I-250000J0D01*
G01*
X110900000Y-137225000D01*
G75*
G02*
X110650000Y-136975000I0J250000D01*
G01*
X110650000Y-135525000D01*
G75*
G02*
X110900000Y-135275000I250000J0D01*
G01*
X112100000Y-135275000D01*
G75*
G02*
X112350000Y-135525000I0J-250000D01*
G01*
G37*
%TD.AperFunction*%
%TD*%
D17*
%TO.N,+12V*%
X146000000Y-128000000D03*
%TO.N,+5V*%
X135600000Y-133200000D03*
X135600000Y-128200000D03*
%TO.N,+3V3*%
X115800000Y-128600000D03*
%TO.N,SCL*%
X180250000Y-113250000D03*
X182000000Y-122500000D03*
X168000000Y-130250000D03*
X153250000Y-130250000D03*
X138500000Y-130250000D03*
%TO.N,SDA*%
X141000000Y-131500000D03*
X133300000Y-131500000D03*
%TO.N,LIFT_UP*%
X160500000Y-113400001D03*
%TO.N,UPSIDE_DOWN*%
X158000000Y-114250001D03*
%TO.N,RIGHT_WAY_UP*%
X155500000Y-115250000D03*
%TO.N,CLAW_OPEN*%
X153000000Y-116250000D03*
%TO.N,Net-(J3-Pad11)*%
X108750000Y-123749998D03*
%TD*%
D18*
%TO.N,+12V*%
X104000000Y-136420598D02*
X106079402Y-138500000D01*
X104000000Y-136250000D02*
X104000000Y-136420598D01*
X146000000Y-137225000D02*
X146000000Y-136250000D01*
X144725000Y-138500000D02*
X146000000Y-137225000D01*
X106079402Y-138500000D02*
X144725000Y-138500000D01*
X133200000Y-115200000D02*
X131540000Y-115200000D01*
X146000000Y-128000000D02*
X133200000Y-115200000D01*
X131540000Y-115200000D02*
X129000000Y-115200000D01*
%TO.N,+5VD*%
X98750000Y-108710000D02*
X101290000Y-108710000D01*
X96949999Y-109307920D02*
X97547919Y-108710000D01*
X96949999Y-126699999D02*
X96949999Y-109307920D01*
X104574990Y-134324990D02*
X96949999Y-126699999D01*
X104745588Y-134324990D02*
X104574990Y-134324990D01*
X105800010Y-135379412D02*
X104745588Y-134324990D01*
X105800010Y-135550010D02*
X105800010Y-135379412D01*
X97547919Y-108710000D02*
X98750000Y-108710000D01*
X106500000Y-136250000D02*
X105800010Y-135550010D01*
%TO.N,+5V*%
X175500000Y-137225000D02*
X175500000Y-136250000D01*
X174225000Y-138500000D02*
X175500000Y-137225000D01*
X151272074Y-138500000D02*
X174225000Y-138500000D01*
X146022074Y-133250000D02*
X151272074Y-138500000D01*
X109000000Y-135727926D02*
X111477926Y-133250000D01*
X109000000Y-136250000D02*
X109000000Y-135727926D01*
X135650000Y-133250000D02*
X135600000Y-133200000D01*
X135750000Y-133250000D02*
X135650000Y-133250000D01*
X111477926Y-133250000D02*
X135750000Y-133250000D01*
X135750000Y-133250000D02*
X146022074Y-133250000D01*
X132742081Y-117740000D02*
X131540000Y-117740000D01*
X135600000Y-120597919D02*
X132742081Y-117740000D01*
X135600000Y-128200000D02*
X135600000Y-120597919D01*
X131540000Y-117740000D02*
X129000000Y-117740000D01*
D19*
%TO.N,Net-(J2-Pad3)*%
X121250000Y-135000000D02*
X121750000Y-134500000D01*
X121250000Y-136250000D02*
X121250000Y-135000000D01*
X134250000Y-134500000D02*
X136000000Y-136250000D01*
X121750000Y-134500000D02*
X134250000Y-134500000D01*
D18*
%TO.N,+3V3*%
X131540000Y-120280000D02*
X129000000Y-120280000D01*
X124120000Y-120280000D02*
X115800000Y-128600000D01*
X129000000Y-120280000D02*
X124120000Y-120280000D01*
D20*
%TO.N,SCL*%
X103830000Y-111250000D02*
X103830000Y-128080000D01*
X103830000Y-128080000D02*
X106000000Y-130250000D01*
X175250000Y-130250000D02*
X182000000Y-123500000D01*
X182000000Y-115000000D02*
X180250000Y-113250000D01*
X182000000Y-123500000D02*
X182000000Y-122500000D01*
X182000000Y-122500000D02*
X182000000Y-115000000D01*
X168000000Y-130250000D02*
X175250000Y-130250000D01*
X153250000Y-130250000D02*
X168000000Y-130250000D01*
X138500000Y-130250000D02*
X153250000Y-130250000D01*
X131540000Y-127900000D02*
X129000000Y-127900000D01*
X131540000Y-129940000D02*
X131850000Y-130250000D01*
X131540000Y-127900000D02*
X131540000Y-129940000D01*
X131850000Y-130250000D02*
X138500000Y-130250000D01*
X106000000Y-130250000D02*
X131850000Y-130250000D01*
%TO.N,SDA*%
X101290000Y-111250000D02*
X101290000Y-128790000D01*
X101290000Y-128790000D02*
X104000000Y-131500000D01*
X176000000Y-131500000D02*
X183500000Y-124000000D01*
X183500000Y-114500000D02*
X181000000Y-112000000D01*
X180750000Y-112000000D02*
X177750000Y-109000000D01*
X181000000Y-112000000D02*
X180750000Y-112000000D01*
X183500000Y-120000000D02*
X186250000Y-120000000D01*
X183500000Y-124000000D02*
X183500000Y-120000000D01*
X183500000Y-120000000D02*
X183500000Y-114500000D01*
X170500000Y-136250000D02*
X170500000Y-131500000D01*
X170500000Y-131500000D02*
X176000000Y-131500000D01*
X155750000Y-131500000D02*
X155750000Y-136250000D01*
X155750000Y-131500000D02*
X170500000Y-131500000D01*
X141000000Y-131500000D02*
X155750000Y-131500000D01*
X129000000Y-125360000D02*
X131540000Y-125360000D01*
X133300000Y-131500000D02*
X141000000Y-131500000D01*
X104000000Y-131500000D02*
X133300000Y-131500000D01*
%TO.N,LIFT_DOWN*%
X145770001Y-112550001D02*
X162199999Y-112550001D01*
X144470000Y-111250000D02*
X145770001Y-112550001D01*
X163000000Y-111750000D02*
X163000000Y-109000000D01*
X162199999Y-112550001D02*
X163000000Y-111750000D01*
%TO.N,LIFT_UP*%
X144080001Y-113400001D02*
X160500000Y-113400001D01*
X141930000Y-111250000D02*
X144080001Y-113400001D01*
%TO.N,UPSIDE_DOWN*%
X142390001Y-114250001D02*
X158000000Y-114250001D01*
X139390000Y-111250000D02*
X142390001Y-114250001D01*
%TO.N,RIGHT_WAY_UP*%
X140850000Y-115250000D02*
X155500000Y-115250000D01*
X136850000Y-111250000D02*
X140850000Y-115250000D01*
%TO.N,CLAW_OPEN*%
X139310000Y-116250000D02*
X153000000Y-116250000D01*
X134310000Y-111250000D02*
X139310000Y-116250000D01*
D19*
%TO.N,Net-(J3-Pad11)*%
X111450000Y-111250000D02*
X111450000Y-121049998D01*
X111450000Y-121049998D02*
X108750000Y-123749998D01*
%TD*%
M02*
