M48
; DRILL file {KiCad 5.1.8-5.fc33} date Sat Dec 26 13:36:46 2020
; FORMAT={-:-/ absolute / inch / decimal}
; #@! TF.CreationDate,2020-12-26T13:36:46+00:00
; #@! TF.GenerationSoftware,Kicad,Pcbnew,5.1.8-5.fc33
; #@! TF.FileFunction,Plated,1,2,PTH
FMAT,2
INCH
T1C0.0157
T2C0.0300
T3C0.0374
T4C0.0394
T5C0.0472
T6C0.1260
%
G90
G05
T1
X4.2815Y-4.872
X4.5591Y-5.063
X5.248Y-5.1772
X5.3386Y-5.0472
X5.3386Y-5.2441
X5.4528Y-5.128
X5.5512Y-5.1772
X5.748Y-5.0394
X6.0236Y-4.5768
X6.0335Y-5.128
X6.122Y-4.5374
X6.2205Y-4.498
X6.3189Y-4.4646
X6.6142Y-5.128
X7.0965Y-4.4587
X7.1654Y-4.8228
T2
X7.2736Y-5.1083
X7.2736Y-5.2067
X7.2736Y-5.3051
T3
X4.6752Y-5.3642
X4.7736Y-5.3642
X4.872Y-5.3642
X4.9705Y-5.3642
X6.6142Y-5.3642
X6.7126Y-5.3642
X6.811Y-5.3642
X6.9094Y-5.3642
X5.2559Y-5.3642
X5.3543Y-5.3642
X5.4528Y-5.3642
X5.5512Y-5.3642
X5.6496Y-5.3642
X5.748Y-5.3642
X6.0335Y-5.3642
X6.1319Y-5.3642
X6.2303Y-5.3642
X6.3287Y-5.3642
X4.0945Y-5.3642
X4.1929Y-5.3642
X4.2913Y-5.3642
X4.3898Y-5.3642
X6.8012Y-4.2913
X6.8996Y-4.2913
X6.998Y-4.2913
X7.0965Y-4.2913
X7.3327Y-4.5276
X7.3327Y-4.626
X7.3327Y-4.7244
X7.3327Y-4.8228
X6.0236Y-4.2913
X6.122Y-4.2913
X6.2205Y-4.2913
X6.3189Y-4.2913
X6.4173Y-4.2913
X6.5157Y-4.2913
T4
X3.8878Y-4.2799
X3.8878Y-4.3799
X3.9878Y-4.2799
X3.9878Y-4.3799
X4.0878Y-4.2799
X4.0878Y-4.3799
X4.1878Y-4.2799
X4.1878Y-4.3799
X4.2878Y-4.2799
X4.2878Y-4.3799
X4.3878Y-4.2799
X4.3878Y-4.3799
X4.4878Y-4.2799
X4.4878Y-4.3799
X4.5878Y-4.2799
X4.5878Y-4.3799
X4.6878Y-4.2799
X4.6878Y-4.3799
X4.7878Y-4.2799
X4.7878Y-4.3799
X4.8878Y-4.2799
X4.8878Y-4.3799
X4.9878Y-4.2799
X4.9878Y-4.3799
X5.0878Y-4.2799
X5.0878Y-4.3799
X5.1878Y-4.2799
X5.1878Y-4.3799
X5.2878Y-4.2799
X5.2878Y-4.3799
X5.3878Y-4.2799
X5.3878Y-4.3799
X5.4878Y-4.2799
X5.4878Y-4.3799
X5.5878Y-4.2799
X5.5878Y-4.3799
X5.6878Y-4.2799
X5.6878Y-4.3799
X5.7878Y-4.2799
X5.7878Y-4.3799
X3.9272Y-4.7736
X3.9272Y-4.8736
X5.0787Y-4.5354
X5.0787Y-4.6354
X5.0787Y-4.7354
X5.0787Y-4.8354
X5.0787Y-4.9354
X5.0787Y-5.0354
X5.1787Y-4.5354
X5.1787Y-4.6354
X5.1787Y-4.7354
X5.1787Y-4.8354
X5.1787Y-4.9354
X5.1787Y-5.0354
T5
X7.2106Y-5.0453
T6
X4.5276Y-4.8228
X6.6929Y-4.8228
T0
M30
