solid OpenSCAD_Model
  facet normal 0 0 1
    outer loop
      vertex 2.05 0 5
      vertex 2.45 0 5
      vertex 2.39646 0.509383 5
    endloop
  endfacet
  facet normal 0 0 1
    outer loop
      vertex 2.0052 0.426218 5
      vertex 2.39646 0.509383 5
      vertex 2.23819 0.996504 5
    endloop
  endfacet
  facet normal 0 0 1
    outer loop
      vertex 2.45 0 5
      vertex 2.05 0 5
      vertex 2.39646 -0.509383 5
    endloop
  endfacet
  facet normal -0 0 1
    outer loop
      vertex 2.0052 -0.426218 5
      vertex 2.39646 -0.509383 5
      vertex 2.05 0 5
    endloop
  endfacet
  facet normal 0 0 1
    outer loop
      vertex 2.39646 0.509383 5
      vertex 2.0052 0.426218 5
      vertex 2.05 0 5
    endloop
  endfacet
  facet normal 0 0 1
    outer loop
      vertex 1.87277 0.83381 5
      vertex 2.23819 0.996504 5
      vertex 1.98209 1.44007 5
    endloop
  endfacet
  facet normal 0 0 1
    outer loop
      vertex 2.23819 0.996504 5
      vertex 1.87277 0.83381 5
      vertex 2.0052 0.426218 5
    endloop
  endfacet
  facet normal 0 0 1
    outer loop
      vertex 1.98209 1.44007 5
      vertex 1.65848 1.20496 5
      vertex 1.87277 0.83381 5
    endloop
  endfacet
  facet normal 0 0 1
    outer loop
      vertex 1.63937 1.8207 5
      vertex 1.65848 1.20496 5
      vertex 1.98209 1.44007 5
    endloop
  endfacet
  facet normal 0 0 1
    outer loop
      vertex 1.63937 1.8207 5
      vertex 1.37172 1.52345 5
      vertex 1.65848 1.20496 5
    endloop
  endfacet
  facet normal 0 0 1
    outer loop
      vertex 1.225 2.12176 5
      vertex 1.37172 1.52345 5
      vertex 1.63937 1.8207 5
    endloop
  endfacet
  facet normal 0 0 1
    outer loop
      vertex 1.225 2.12176 5
      vertex 1.025 1.77535 5
      vertex 1.37172 1.52345 5
    endloop
  endfacet
  facet normal 0 0 1
    outer loop
      vertex 0.757092 2.33009 5
      vertex 1.025 1.77535 5
      vertex 1.225 2.12176 5
    endloop
  endfacet
  facet normal 0 0 1
    outer loop
      vertex 0.757092 2.33009 5
      vertex 0.633484 1.94967 5
      vertex 1.025 1.77535 5
    endloop
  endfacet
  facet normal 0 0 1
    outer loop
      vertex 0.256094 2.43658 5
      vertex 0.633484 1.94967 5
      vertex 0.757092 2.33009 5
    endloop
  endfacet
  facet normal 0 0 1
    outer loop
      vertex 0.256094 2.43658 5
      vertex 0.214283 2.03877 5
      vertex 0.633484 1.94967 5
    endloop
  endfacet
  facet normal 0 0 1
    outer loop
      vertex 0.256094 2.43658 5
      vertex -0.214283 2.03877 5
      vertex 0.214283 2.03877 5
    endloop
  endfacet
  facet normal -0 0 1
    outer loop
      vertex -0.256094 2.43658 5
      vertex -0.214283 2.03877 5
      vertex 0.256094 2.43658 5
    endloop
  endfacet
  facet normal 0 0 1
    outer loop
      vertex -0.256094 2.43658 5
      vertex -0.633484 1.94967 5
      vertex -0.214283 2.03877 5
    endloop
  endfacet
  facet normal -0 0 1
    outer loop
      vertex -0.757092 2.33009 5
      vertex -0.633484 1.94967 5
      vertex -0.256094 2.43658 5
    endloop
  endfacet
  facet normal 0 0 1
    outer loop
      vertex -0.757092 2.33009 5
      vertex -1.025 1.77535 5
      vertex -0.633484 1.94967 5
    endloop
  endfacet
  facet normal -0 0 1
    outer loop
      vertex -1.225 2.12176 5
      vertex -1.025 1.77535 5
      vertex -0.757092 2.33009 5
    endloop
  endfacet
  facet normal 0 0 1
    outer loop
      vertex -1.225 2.12176 5
      vertex -1.37172 1.52345 5
      vertex -1.025 1.77535 5
    endloop
  endfacet
  facet normal -0 0 1
    outer loop
      vertex -1.63937 1.8207 5
      vertex -1.37172 1.52345 5
      vertex -1.225 2.12176 5
    endloop
  endfacet
  facet normal 0 0 1
    outer loop
      vertex -1.63937 1.8207 5
      vertex -1.65848 1.20496 5
      vertex -1.37172 1.52345 5
    endloop
  endfacet
  facet normal -0 0 1
    outer loop
      vertex -1.98209 1.44007 5
      vertex -1.65848 1.20496 5
      vertex -1.63937 1.8207 5
    endloop
  endfacet
  facet normal 0 0 1
    outer loop
      vertex -1.65848 1.20496 5
      vertex -1.98209 1.44007 5
      vertex -1.87277 0.83381 5
    endloop
  endfacet
  facet normal -0 0 1
    outer loop
      vertex -2.23819 0.996504 5
      vertex -1.87277 0.83381 5
      vertex -1.98209 1.44007 5
    endloop
  endfacet
  facet normal 0 0 1
    outer loop
      vertex -1.87277 0.83381 5
      vertex -2.23819 0.996504 5
      vertex -2.0052 0.426218 5
    endloop
  endfacet
  facet normal -0 0 1
    outer loop
      vertex -2.39646 0.509383 5
      vertex -2.0052 0.426218 5
      vertex -2.23819 0.996504 5
    endloop
  endfacet
  facet normal 0 0 1
    outer loop
      vertex 2.39646 -0.509383 5
      vertex 2.0052 -0.426218 5
      vertex 2.23819 -0.996504 5
    endloop
  endfacet
  facet normal -0 0 1
    outer loop
      vertex 1.87277 -0.83381 5
      vertex 2.23819 -0.996504 5
      vertex 2.0052 -0.426218 5
    endloop
  endfacet
  facet normal 0 0 1
    outer loop
      vertex 2.23819 -0.996504 5
      vertex 1.87277 -0.83381 5
      vertex 1.98209 -1.44007 5
    endloop
  endfacet
  facet normal -0 0 1
    outer loop
      vertex 1.65848 -1.20496 5
      vertex 1.98209 -1.44007 5
      vertex 1.87277 -0.83381 5
    endloop
  endfacet
  facet normal 0 0 1
    outer loop
      vertex 1.65848 -1.20496 5
      vertex 1.63937 -1.8207 5
      vertex 1.98209 -1.44007 5
    endloop
  endfacet
  facet normal -0 0 1
    outer loop
      vertex 1.37172 -1.52345 5
      vertex 1.63937 -1.8207 5
      vertex 1.65848 -1.20496 5
    endloop
  endfacet
  facet normal 0 0 1
    outer loop
      vertex 1.37172 -1.52345 5
      vertex 1.225 -2.12176 5
      vertex 1.63937 -1.8207 5
    endloop
  endfacet
  facet normal -0 0 1
    outer loop
      vertex 1.025 -1.77535 5
      vertex 1.225 -2.12176 5
      vertex 1.37172 -1.52345 5
    endloop
  endfacet
  facet normal 0 0 1
    outer loop
      vertex 1.025 -1.77535 5
      vertex 0.757092 -2.33009 5
      vertex 1.225 -2.12176 5
    endloop
  endfacet
  facet normal -0 0 1
    outer loop
      vertex 0.633484 -1.94967 5
      vertex 0.757092 -2.33009 5
      vertex 1.025 -1.77535 5
    endloop
  endfacet
  facet normal 0 0 1
    outer loop
      vertex 0.633484 -1.94967 5
      vertex 0.256094 -2.43658 5
      vertex 0.757092 -2.33009 5
    endloop
  endfacet
  facet normal -0 0 1
    outer loop
      vertex 0.214283 -2.03877 5
      vertex 0.256094 -2.43658 5
      vertex 0.633484 -1.94967 5
    endloop
  endfacet
  facet normal -0 0 1
    outer loop
      vertex -0.214283 -2.03877 5
      vertex 0.256094 -2.43658 5
      vertex 0.214283 -2.03877 5
    endloop
  endfacet
  facet normal 0 0 1
    outer loop
      vertex -0.214283 -2.03877 5
      vertex -0.256094 -2.43658 5
      vertex 0.256094 -2.43658 5
    endloop
  endfacet
  facet normal 0 0 1
    outer loop
      vertex -0.633484 -1.94967 5
      vertex -0.256094 -2.43658 5
      vertex -0.214283 -2.03877 5
    endloop
  endfacet
  facet normal 0 0 1
    outer loop
      vertex -0.633484 -1.94967 5
      vertex -0.757092 -2.33009 5
      vertex -0.256094 -2.43658 5
    endloop
  endfacet
  facet normal 0 0 1
    outer loop
      vertex -1.025 -1.77535 5
      vertex -0.757092 -2.33009 5
      vertex -0.633484 -1.94967 5
    endloop
  endfacet
  facet normal 0 0 1
    outer loop
      vertex -1.025 -1.77535 5
      vertex -1.225 -2.12176 5
      vertex -0.757092 -2.33009 5
    endloop
  endfacet
  facet normal 0 0 1
    outer loop
      vertex -1.37172 -1.52345 5
      vertex -1.225 -2.12176 5
      vertex -1.025 -1.77535 5
    endloop
  endfacet
  facet normal 0 0 1
    outer loop
      vertex -1.37172 -1.52345 5
      vertex -1.63937 -1.8207 5
      vertex -1.225 -2.12176 5
    endloop
  endfacet
  facet normal 0 0 1
    outer loop
      vertex -1.65848 -1.20496 5
      vertex -1.63937 -1.8207 5
      vertex -1.37172 -1.52345 5
    endloop
  endfacet
  facet normal 0 0 1
    outer loop
      vertex -1.98209 -1.44007 5
      vertex -1.65848 -1.20496 5
      vertex -1.87277 -0.83381 5
    endloop
  endfacet
  facet normal 0 0 1
    outer loop
      vertex -1.65848 -1.20496 5
      vertex -1.98209 -1.44007 5
      vertex -1.63937 -1.8207 5
    endloop
  endfacet
  facet normal 0 0 1
    outer loop
      vertex -2.23819 -0.996504 5
      vertex -1.87277 -0.83381 5
      vertex -2.0052 -0.426218 5
    endloop
  endfacet
  facet normal 0 0 1
    outer loop
      vertex -2.39646 -0.509383 5
      vertex -2.0052 -0.426218 5
      vertex -2.05 0 5
    endloop
  endfacet
  facet normal 0 0 1
    outer loop
      vertex -2.0052 0.426218 5
      vertex -2.39646 0.509383 5
      vertex -2.05 0 5
    endloop
  endfacet
  facet normal 0 0 1
    outer loop
      vertex -1.87277 -0.83381 5
      vertex -2.23819 -0.996504 5
      vertex -1.98209 -1.44007 5
    endloop
  endfacet
  facet normal 0 0 1
    outer loop
      vertex -2.45 0 5
      vertex -2.05 0 5
      vertex -2.39646 0.509383 5
    endloop
  endfacet
  facet normal 0 0 1
    outer loop
      vertex -2.0052 -0.426218 5
      vertex -2.39646 -0.509383 5
      vertex -2.23819 -0.996504 5
    endloop
  endfacet
  facet normal 0 0 1
    outer loop
      vertex -2.05 0 5
      vertex -2.45 0 5
      vertex -2.39646 -0.509383 5
    endloop
  endfacet
  facet normal 0.866019 0.50001 0
    outer loop
      vertex 2.23819 0.996504 5
      vertex 1.98209 1.44007 0
      vertex 1.98209 1.44007 5
    endloop
  endfacet
  facet normal 0.866019 0.50001 0
    outer loop
      vertex 1.98209 1.44007 0
      vertex 2.23819 0.996504 5
      vertex 2.23819 0.996504 0
    endloop
  endfacet
  facet normal 0.95106 0.309008 0
    outer loop
      vertex 2.39646 0.509383 5
      vertex 2.23819 0.996504 0
      vertex 2.23819 0.996504 5
    endloop
  endfacet
  facet normal 0.95106 0.309008 0
    outer loop
      vertex 2.23819 0.996504 0
      vertex 2.39646 0.509383 5
      vertex 2.39646 0.509383 0
    endloop
  endfacet
  facet normal 0.994522 0.104532 0
    outer loop
      vertex 2.45 0 5
      vertex 2.39646 0.509383 0
      vertex 2.39646 0.509383 5
    endloop
  endfacet
  facet normal 0.994522 0.104532 0
    outer loop
      vertex 2.39646 0.509383 0
      vertex 2.45 0 5
      vertex 2.45 0 0
    endloop
  endfacet
  facet normal 0.994522 -0.104532 0
    outer loop
      vertex 2.39646 -0.509383 5
      vertex 2.45 0 0
      vertex 2.45 0 5
    endloop
  endfacet
  facet normal 0.994522 -0.104532 0
    outer loop
      vertex 2.45 0 0
      vertex 2.39646 -0.509383 5
      vertex 2.39646 -0.509383 0
    endloop
  endfacet
  facet normal 0.406743 0.913543 -0
    outer loop
      vertex 1.225 2.12176 0
      vertex 0.757092 2.33009 5
      vertex 1.225 2.12176 5
    endloop
  endfacet
  facet normal 0.406743 0.913543 0
    outer loop
      vertex 0.757092 2.33009 5
      vertex 1.225 2.12176 0
      vertex 0.757092 2.33009 0
    endloop
  endfacet
  facet normal -0.743146 0.66913 0
    outer loop
      vertex -1.98209 1.44007 0
      vertex -1.63937 1.8207 5
      vertex -1.63937 1.8207 0
    endloop
  endfacet
  facet normal -0.743146 0.66913 0
    outer loop
      vertex -1.63937 1.8207 5
      vertex -1.98209 1.44007 0
      vertex -1.98209 1.44007 5
    endloop
  endfacet
  facet normal -0.587789 0.809015 0
    outer loop
      vertex -1.225 2.12176 0
      vertex -1.63937 1.8207 5
      vertex -1.225 2.12176 5
    endloop
  endfacet
  facet normal -0.587789 0.809015 0
    outer loop
      vertex -1.63937 1.8207 5
      vertex -1.225 2.12176 0
      vertex -1.63937 1.8207 0
    endloop
  endfacet
  facet normal 0 0 -1
    outer loop
      vertex 2.05 0 0
      vertex 2.45 0 0
      vertex 2.39646 -0.509383 0
    endloop
  endfacet
  facet normal 0 0 -1
    outer loop
      vertex 2.0052 -0.426218 0
      vertex 2.39646 -0.509383 0
      vertex 2.23819 -0.996504 0
    endloop
  endfacet
  facet normal 0 0 -1
    outer loop
      vertex 2.45 0 0
      vertex 2.05 0 0
      vertex 2.39646 0.509383 0
    endloop
  endfacet
  facet normal 0 0 -1
    outer loop
      vertex 2.0052 0.426218 0
      vertex 2.39646 0.509383 0
      vertex 2.05 0 0
    endloop
  endfacet
  facet normal 0 0 -1
    outer loop
      vertex 2.39646 -0.509383 0
      vertex 2.0052 -0.426218 0
      vertex 2.05 0 0
    endloop
  endfacet
  facet normal 0 0 -1
    outer loop
      vertex 1.87277 -0.83381 0
      vertex 2.23819 -0.996504 0
      vertex 1.98209 -1.44007 0
    endloop
  endfacet
  facet normal 0 0 -1
    outer loop
      vertex 2.23819 -0.996504 0
      vertex 1.87277 -0.83381 0
      vertex 2.0052 -0.426218 0
    endloop
  endfacet
  facet normal 0 0 -1
    outer loop
      vertex 1.98209 -1.44007 0
      vertex 1.65848 -1.20496 0
      vertex 1.87277 -0.83381 0
    endloop
  endfacet
  facet normal 0 0 -1
    outer loop
      vertex 1.63937 -1.8207 0
      vertex 1.65848 -1.20496 0
      vertex 1.98209 -1.44007 0
    endloop
  endfacet
  facet normal 0 0 -1
    outer loop
      vertex 1.63937 -1.8207 0
      vertex 1.37172 -1.52345 0
      vertex 1.65848 -1.20496 0
    endloop
  endfacet
  facet normal 0 0 -1
    outer loop
      vertex 1.225 -2.12176 0
      vertex 1.37172 -1.52345 0
      vertex 1.63937 -1.8207 0
    endloop
  endfacet
  facet normal 0 0 -1
    outer loop
      vertex 1.225 -2.12176 0
      vertex 1.025 -1.77535 0
      vertex 1.37172 -1.52345 0
    endloop
  endfacet
  facet normal 0 0 -1
    outer loop
      vertex 0.757092 -2.33009 0
      vertex 1.025 -1.77535 0
      vertex 1.225 -2.12176 0
    endloop
  endfacet
  facet normal 0 0 -1
    outer loop
      vertex 0.757092 -2.33009 0
      vertex 0.633484 -1.94967 0
      vertex 1.025 -1.77535 0
    endloop
  endfacet
  facet normal 0 0 -1
    outer loop
      vertex 0.256094 -2.43658 0
      vertex 0.633484 -1.94967 0
      vertex 0.757092 -2.33009 0
    endloop
  endfacet
  facet normal 0 0 -1
    outer loop
      vertex 0.256094 -2.43658 0
      vertex 0.214283 -2.03877 0
      vertex 0.633484 -1.94967 0
    endloop
  endfacet
  facet normal 0 0 -1
    outer loop
      vertex 0.256094 -2.43658 0
      vertex -0.214283 -2.03877 0
      vertex 0.214283 -2.03877 0
    endloop
  endfacet
  facet normal 0 0 -1
    outer loop
      vertex -0.256094 -2.43658 0
      vertex -0.214283 -2.03877 0
      vertex 0.256094 -2.43658 0
    endloop
  endfacet
  facet normal 0 0 -1
    outer loop
      vertex -0.256094 -2.43658 0
      vertex -0.633484 -1.94967 0
      vertex -0.214283 -2.03877 0
    endloop
  endfacet
  facet normal 0 0 -1
    outer loop
      vertex -0.757092 -2.33009 0
      vertex -0.633484 -1.94967 0
      vertex -0.256094 -2.43658 0
    endloop
  endfacet
  facet normal 0 0 -1
    outer loop
      vertex -0.757092 -2.33009 0
      vertex -1.025 -1.77535 0
      vertex -0.633484 -1.94967 0
    endloop
  endfacet
  facet normal 0 0 -1
    outer loop
      vertex -1.225 -2.12176 0
      vertex -1.025 -1.77535 0
      vertex -0.757092 -2.33009 0
    endloop
  endfacet
  facet normal 0 0 -1
    outer loop
      vertex -1.225 -2.12176 0
      vertex -1.37172 -1.52345 0
      vertex -1.025 -1.77535 0
    endloop
  endfacet
  facet normal 0 0 -1
    outer loop
      vertex -1.63937 -1.8207 0
      vertex -1.37172 -1.52345 0
      vertex -1.225 -2.12176 0
    endloop
  endfacet
  facet normal 0 0 -1
    outer loop
      vertex -1.63937 -1.8207 0
      vertex -1.65848 -1.20496 0
      vertex -1.37172 -1.52345 0
    endloop
  endfacet
  facet normal 0 0 -1
    outer loop
      vertex -1.98209 -1.44007 0
      vertex -1.65848 -1.20496 0
      vertex -1.63937 -1.8207 0
    endloop
  endfacet
  facet normal -0 0 -1
    outer loop
      vertex -1.65848 -1.20496 0
      vertex -1.98209 -1.44007 0
      vertex -1.87277 -0.83381 0
    endloop
  endfacet
  facet normal 0 0 -1
    outer loop
      vertex -2.23819 -0.996504 0
      vertex -1.87277 -0.83381 0
      vertex -1.98209 -1.44007 0
    endloop
  endfacet
  facet normal -0 0 -1
    outer loop
      vertex -1.87277 -0.83381 0
      vertex -2.23819 -0.996504 0
      vertex -2.0052 -0.426218 0
    endloop
  endfacet
  facet normal 0 0 -1
    outer loop
      vertex -2.39646 -0.509383 0
      vertex -2.0052 -0.426218 0
      vertex -2.23819 -0.996504 0
    endloop
  endfacet
  facet normal -0 0 -1
    outer loop
      vertex 2.39646 0.509383 0
      vertex 2.0052 0.426218 0
      vertex 2.23819 0.996504 0
    endloop
  endfacet
  facet normal 0 0 -1
    outer loop
      vertex 1.87277 0.83381 0
      vertex 2.23819 0.996504 0
      vertex 2.0052 0.426218 0
    endloop
  endfacet
  facet normal -0 0 -1
    outer loop
      vertex 2.23819 0.996504 0
      vertex 1.87277 0.83381 0
      vertex 1.98209 1.44007 0
    endloop
  endfacet
  facet normal 0 0 -1
    outer loop
      vertex 1.65848 1.20496 0
      vertex 1.98209 1.44007 0
      vertex 1.87277 0.83381 0
    endloop
  endfacet
  facet normal 0 0 -1
    outer loop
      vertex 1.65848 1.20496 0
      vertex 1.63937 1.8207 0
      vertex 1.98209 1.44007 0
    endloop
  endfacet
  facet normal 0 0 -1
    outer loop
      vertex 1.37172 1.52345 0
      vertex 1.63937 1.8207 0
      vertex 1.65848 1.20496 0
    endloop
  endfacet
  facet normal 0 0 -1
    outer loop
      vertex 1.37172 1.52345 0
      vertex 1.225 2.12176 0
      vertex 1.63937 1.8207 0
    endloop
  endfacet
  facet normal 0 0 -1
    outer loop
      vertex 1.025 1.77535 0
      vertex 1.225 2.12176 0
      vertex 1.37172 1.52345 0
    endloop
  endfacet
  facet normal 0 0 -1
    outer loop
      vertex 1.025 1.77535 0
      vertex 0.757092 2.33009 0
      vertex 1.225 2.12176 0
    endloop
  endfacet
  facet normal 0 0 -1
    outer loop
      vertex 0.633484 1.94967 0
      vertex 0.757092 2.33009 0
      vertex 1.025 1.77535 0
    endloop
  endfacet
  facet normal 0 0 -1
    outer loop
      vertex 0.633484 1.94967 0
      vertex 0.256094 2.43658 0
      vertex 0.757092 2.33009 0
    endloop
  endfacet
  facet normal 0 0 -1
    outer loop
      vertex 0.214283 2.03877 0
      vertex 0.256094 2.43658 0
      vertex 0.633484 1.94967 0
    endloop
  endfacet
  facet normal 0 0 -1
    outer loop
      vertex -0.214283 2.03877 0
      vertex 0.256094 2.43658 0
      vertex 0.214283 2.03877 0
    endloop
  endfacet
  facet normal 0 0 -1
    outer loop
      vertex -0.214283 2.03877 0
      vertex -0.256094 2.43658 0
      vertex 0.256094 2.43658 0
    endloop
  endfacet
  facet normal 0 0 -1
    outer loop
      vertex -0.633484 1.94967 0
      vertex -0.256094 2.43658 0
      vertex -0.214283 2.03877 0
    endloop
  endfacet
  facet normal 0 0 -1
    outer loop
      vertex -0.633484 1.94967 0
      vertex -0.757092 2.33009 0
      vertex -0.256094 2.43658 0
    endloop
  endfacet
  facet normal 0 0 -1
    outer loop
      vertex -1.025 1.77535 0
      vertex -0.757092 2.33009 0
      vertex -0.633484 1.94967 0
    endloop
  endfacet
  facet normal 0 0 -1
    outer loop
      vertex -1.025 1.77535 0
      vertex -1.225 2.12176 0
      vertex -0.757092 2.33009 0
    endloop
  endfacet
  facet normal 0 0 -1
    outer loop
      vertex -1.37172 1.52345 0
      vertex -1.225 2.12176 0
      vertex -1.025 1.77535 0
    endloop
  endfacet
  facet normal 0 0 -1
    outer loop
      vertex -1.37172 1.52345 0
      vertex -1.63937 1.8207 0
      vertex -1.225 2.12176 0
    endloop
  endfacet
  facet normal 0 0 -1
    outer loop
      vertex -1.65848 1.20496 0
      vertex -1.63937 1.8207 0
      vertex -1.37172 1.52345 0
    endloop
  endfacet
  facet normal 0 0 -1
    outer loop
      vertex -1.98209 1.44007 0
      vertex -1.65848 1.20496 0
      vertex -1.87277 0.83381 0
    endloop
  endfacet
  facet normal 0 0 -1
    outer loop
      vertex -1.65848 1.20496 0
      vertex -1.98209 1.44007 0
      vertex -1.63937 1.8207 0
    endloop
  endfacet
  facet normal 0 0 -1
    outer loop
      vertex -2.23819 0.996504 0
      vertex -1.87277 0.83381 0
      vertex -2.0052 0.426218 0
    endloop
  endfacet
  facet normal 0 0 -1
    outer loop
      vertex -2.39646 0.509383 0
      vertex -2.0052 0.426218 0
      vertex -2.05 0 0
    endloop
  endfacet
  facet normal -0 0 -1
    outer loop
      vertex -2.0052 -0.426218 0
      vertex -2.39646 -0.509383 0
      vertex -2.05 0 0
    endloop
  endfacet
  facet normal 0 0 -1
    outer loop
      vertex -1.87277 0.83381 0
      vertex -2.23819 0.996504 0
      vertex -1.98209 1.44007 0
    endloop
  endfacet
  facet normal 0 0 -1
    outer loop
      vertex -2.45 0 0
      vertex -2.05 0 0
      vertex -2.39646 -0.509383 0
    endloop
  endfacet
  facet normal 0 0 -1
    outer loop
      vertex -2.0052 0.426218 0
      vertex -2.39646 0.509383 0
      vertex -2.23819 0.996504 0
    endloop
  endfacet
  facet normal 0 0 -1
    outer loop
      vertex -2.05 0 0
      vertex -2.45 0 0
      vertex -2.39646 0.509383 0
    endloop
  endfacet
  facet normal -0.95106 -0.309008 0
    outer loop
      vertex -2.23819 -0.996504 0
      vertex -2.39646 -0.509383 5
      vertex -2.39646 -0.509383 0
    endloop
  endfacet
  facet normal -0.95106 -0.309008 0
    outer loop
      vertex -2.39646 -0.509383 5
      vertex -2.23819 -0.996504 0
      vertex -2.23819 -0.996504 5
    endloop
  endfacet
  facet normal 0 1 -0
    outer loop
      vertex 0.256094 2.43658 0
      vertex -0.256094 2.43658 5
      vertex 0.256094 2.43658 5
    endloop
  endfacet
  facet normal 0 1 0
    outer loop
      vertex -0.256094 2.43658 5
      vertex 0.256094 2.43658 0
      vertex -0.256094 2.43658 0
    endloop
  endfacet
  facet normal 0.866019 -0.50001 0
    outer loop
      vertex 1.98209 -1.44007 5
      vertex 2.23819 -0.996504 0
      vertex 2.23819 -0.996504 5
    endloop
  endfacet
  facet normal 0.866019 -0.50001 0
    outer loop
      vertex 2.23819 -0.996504 0
      vertex 1.98209 -1.44007 5
      vertex 1.98209 -1.44007 0
    endloop
  endfacet
  facet normal 0.95106 -0.309008 0
    outer loop
      vertex 2.23819 -0.996504 5
      vertex 2.39646 -0.509383 0
      vertex 2.39646 -0.509383 5
    endloop
  endfacet
  facet normal 0.95106 -0.309008 0
    outer loop
      vertex 2.39646 -0.509383 0
      vertex 2.23819 -0.996504 5
      vertex 2.23819 -0.996504 0
    endloop
  endfacet
  facet normal 0.207911 0.978148 -0
    outer loop
      vertex 0.757092 2.33009 0
      vertex 0.256094 2.43658 5
      vertex 0.757092 2.33009 5
    endloop
  endfacet
  facet normal 0.207911 0.978148 0
    outer loop
      vertex 0.256094 2.43658 5
      vertex 0.757092 2.33009 0
      vertex 0.256094 2.43658 0
    endloop
  endfacet
  facet normal -0.207911 0.978148 0
    outer loop
      vertex -0.256094 2.43658 0
      vertex -0.757092 2.33009 5
      vertex -0.256094 2.43658 5
    endloop
  endfacet
  facet normal -0.207911 0.978148 0
    outer loop
      vertex -0.757092 2.33009 5
      vertex -0.256094 2.43658 0
      vertex -0.757092 2.33009 0
    endloop
  endfacet
  facet normal -0.743146 -0.66913 0
    outer loop
      vertex -1.63937 -1.8207 0
      vertex -1.98209 -1.44007 5
      vertex -1.98209 -1.44007 0
    endloop
  endfacet
  facet normal -0.743146 -0.66913 0
    outer loop
      vertex -1.98209 -1.44007 5
      vertex -1.63937 -1.8207 0
      vertex -1.63937 -1.8207 5
    endloop
  endfacet
  facet normal 0.207911 -0.978148 0
    outer loop
      vertex 0.256094 -2.43658 0
      vertex 0.757092 -2.33009 5
      vertex 0.256094 -2.43658 5
    endloop
  endfacet
  facet normal 0.207911 -0.978148 0
    outer loop
      vertex 0.757092 -2.33009 5
      vertex 0.256094 -2.43658 0
      vertex 0.757092 -2.33009 0
    endloop
  endfacet
  facet normal -0.406743 0.913543 0
    outer loop
      vertex -0.757092 2.33009 0
      vertex -1.225 2.12176 5
      vertex -0.757092 2.33009 5
    endloop
  endfacet
  facet normal -0.406743 0.913543 0
    outer loop
      vertex -1.225 2.12176 5
      vertex -0.757092 2.33009 0
      vertex -1.225 2.12176 0
    endloop
  endfacet
  facet normal 0.406743 -0.913543 0
    outer loop
      vertex 0.757092 -2.33009 0
      vertex 1.225 -2.12176 5
      vertex 0.757092 -2.33009 5
    endloop
  endfacet
  facet normal 0.406743 -0.913543 0
    outer loop
      vertex 1.225 -2.12176 5
      vertex 0.757092 -2.33009 0
      vertex 1.225 -2.12176 0
    endloop
  endfacet
  facet normal -0.994522 0.104532 0
    outer loop
      vertex -2.45 0 0
      vertex -2.39646 0.509383 5
      vertex -2.39646 0.509383 0
    endloop
  endfacet
  facet normal -0.994522 0.104532 0
    outer loop
      vertex -2.39646 0.509383 5
      vertex -2.45 0 0
      vertex -2.45 0 5
    endloop
  endfacet
  facet normal -0.406743 -0.913543 0
    outer loop
      vertex -1.225 -2.12176 0
      vertex -0.757092 -2.33009 5
      vertex -1.225 -2.12176 5
    endloop
  endfacet
  facet normal -0.406743 -0.913543 -0
    outer loop
      vertex -0.757092 -2.33009 5
      vertex -1.225 -2.12176 0
      vertex -0.757092 -2.33009 0
    endloop
  endfacet
  facet normal 0.587789 0.809015 -0
    outer loop
      vertex 1.63937 1.8207 0
      vertex 1.225 2.12176 5
      vertex 1.63937 1.8207 5
    endloop
  endfacet
  facet normal 0.587789 0.809015 0
    outer loop
      vertex 1.225 2.12176 5
      vertex 1.63937 1.8207 0
      vertex 1.225 2.12176 0
    endloop
  endfacet
  facet normal -0.95106 0.309008 0
    outer loop
      vertex -2.39646 0.509383 0
      vertex -2.23819 0.996504 5
      vertex -2.23819 0.996504 0
    endloop
  endfacet
  facet normal -0.95106 0.309008 0
    outer loop
      vertex -2.23819 0.996504 5
      vertex -2.39646 0.509383 0
      vertex -2.39646 0.509383 5
    endloop
  endfacet
  facet normal -0.587789 -0.809015 0
    outer loop
      vertex -1.63937 -1.8207 0
      vertex -1.225 -2.12176 5
      vertex -1.63937 -1.8207 5
    endloop
  endfacet
  facet normal -0.587789 -0.809015 -0
    outer loop
      vertex -1.225 -2.12176 5
      vertex -1.63937 -1.8207 0
      vertex -1.225 -2.12176 0
    endloop
  endfacet
  facet normal 0.743146 0.66913 0
    outer loop
      vertex 1.98209 1.44007 5
      vertex 1.63937 1.8207 0
      vertex 1.63937 1.8207 5
    endloop
  endfacet
  facet normal 0.743146 0.66913 0
    outer loop
      vertex 1.63937 1.8207 0
      vertex 1.98209 1.44007 5
      vertex 1.98209 1.44007 0
    endloop
  endfacet
  facet normal -0.207911 -0.978148 0
    outer loop
      vertex -0.757092 -2.33009 0
      vertex -0.256094 -2.43658 5
      vertex -0.757092 -2.33009 5
    endloop
  endfacet
  facet normal -0.207911 -0.978148 -0
    outer loop
      vertex -0.256094 -2.43658 5
      vertex -0.757092 -2.33009 0
      vertex -0.256094 -2.43658 0
    endloop
  endfacet
  facet normal -0.994522 -0.104532 0
    outer loop
      vertex -2.39646 -0.509383 0
      vertex -2.45 0 5
      vertex -2.45 0 0
    endloop
  endfacet
  facet normal -0.994522 -0.104532 0
    outer loop
      vertex -2.45 0 5
      vertex -2.39646 -0.509383 0
      vertex -2.39646 -0.509383 5
    endloop
  endfacet
  facet normal -0.866019 -0.50001 0
    outer loop
      vertex -1.98209 -1.44007 0
      vertex -2.23819 -0.996504 5
      vertex -2.23819 -0.996504 0
    endloop
  endfacet
  facet normal -0.866019 -0.50001 0
    outer loop
      vertex -2.23819 -0.996504 5
      vertex -1.98209 -1.44007 0
      vertex -1.98209 -1.44007 5
    endloop
  endfacet
  facet normal 0 -1 0
    outer loop
      vertex -0.256094 -2.43658 0
      vertex 0.256094 -2.43658 5
      vertex -0.256094 -2.43658 5
    endloop
  endfacet
  facet normal 0 -1 -0
    outer loop
      vertex 0.256094 -2.43658 5
      vertex -0.256094 -2.43658 0
      vertex 0.256094 -2.43658 0
    endloop
  endfacet
  facet normal 0.743146 -0.66913 0
    outer loop
      vertex 1.63937 -1.8207 5
      vertex 1.98209 -1.44007 0
      vertex 1.98209 -1.44007 5
    endloop
  endfacet
  facet normal 0.743146 -0.66913 0
    outer loop
      vertex 1.98209 -1.44007 0
      vertex 1.63937 -1.8207 5
      vertex 1.63937 -1.8207 0
    endloop
  endfacet
  facet normal 0.587789 -0.809015 0
    outer loop
      vertex 1.225 -2.12176 0
      vertex 1.63937 -1.8207 5
      vertex 1.225 -2.12176 5
    endloop
  endfacet
  facet normal 0.587789 -0.809015 0
    outer loop
      vertex 1.63937 -1.8207 5
      vertex 1.225 -2.12176 0
      vertex 1.63937 -1.8207 0
    endloop
  endfacet
  facet normal -0.866019 0.50001 0
    outer loop
      vertex -2.23819 0.996504 0
      vertex -1.98209 1.44007 5
      vertex -1.98209 1.44007 0
    endloop
  endfacet
  facet normal -0.866019 0.50001 0
    outer loop
      vertex -1.98209 1.44007 5
      vertex -2.23819 0.996504 0
      vertex -2.23819 0.996504 5
    endloop
  endfacet
  facet normal -0.95106 -0.309007 0
    outer loop
      vertex 2.0052 0.426218 0
      vertex 1.87277 0.83381 5
      vertex 1.87277 0.83381 0
    endloop
  endfacet
  facet normal -0.95106 -0.309007 0
    outer loop
      vertex 1.87277 0.83381 5
      vertex 2.0052 0.426218 0
      vertex 2.0052 0.426218 5
    endloop
  endfacet
  facet normal -0.994521 -0.104535 0
    outer loop
      vertex 2.05 0 0
      vertex 2.0052 0.426218 5
      vertex 2.0052 0.426218 0
    endloop
  endfacet
  facet normal -0.994521 -0.104535 0
    outer loop
      vertex 2.0052 0.426218 5
      vertex 2.05 0 0
      vertex 2.05 0 5
    endloop
  endfacet
  facet normal -0.95106 0.309007 0
    outer loop
      vertex 1.87277 -0.83381 0
      vertex 2.0052 -0.426218 5
      vertex 2.0052 -0.426218 0
    endloop
  endfacet
  facet normal -0.95106 0.309007 0
    outer loop
      vertex 2.0052 -0.426218 5
      vertex 1.87277 -0.83381 0
      vertex 1.87277 -0.83381 5
    endloop
  endfacet
  facet normal -0.406748 -0.91354 0
    outer loop
      vertex 0.633484 1.94967 0
      vertex 1.025 1.77535 5
      vertex 0.633484 1.94967 5
    endloop
  endfacet
  facet normal -0.406748 -0.91354 -0
    outer loop
      vertex 1.025 1.77535 5
      vertex 0.633484 1.94967 0
      vertex 1.025 1.77535 0
    endloop
  endfacet
  facet normal 0.587775 -0.809025 0
    outer loop
      vertex -1.37172 1.52345 0
      vertex -1.025 1.77535 5
      vertex -1.37172 1.52345 5
    endloop
  endfacet
  facet normal 0.587775 -0.809025 0
    outer loop
      vertex -1.025 1.77535 5
      vertex -1.37172 1.52345 0
      vertex -1.025 1.77535 0
    endloop
  endfacet
  facet normal 0.406748 -0.91354 0
    outer loop
      vertex -1.025 1.77535 0
      vertex -0.633484 1.94967 5
      vertex -1.025 1.77535 5
    endloop
  endfacet
  facet normal 0.406748 -0.91354 0
    outer loop
      vertex -0.633484 1.94967 5
      vertex -1.025 1.77535 0
      vertex -0.633484 1.94967 0
    endloop
  endfacet
  facet normal -0.587775 0.809025 0
    outer loop
      vertex 1.37172 -1.52345 0
      vertex 1.025 -1.77535 5
      vertex 1.37172 -1.52345 5
    endloop
  endfacet
  facet normal -0.587775 0.809025 0
    outer loop
      vertex 1.025 -1.77535 5
      vertex 1.37172 -1.52345 0
      vertex 1.025 -1.77535 0
    endloop
  endfacet
  facet normal 0.866019 0.500011 0
    outer loop
      vertex -1.65848 -1.20496 5
      vertex -1.87277 -0.83381 0
      vertex -1.87277 -0.83381 5
    endloop
  endfacet
  facet normal 0.866019 0.500011 0
    outer loop
      vertex -1.87277 -0.83381 0
      vertex -1.65848 -1.20496 5
      vertex -1.65848 -1.20496 0
    endloop
  endfacet
  facet normal -0.406748 0.91354 0
    outer loop
      vertex 1.025 -1.77535 0
      vertex 0.633484 -1.94967 5
      vertex 1.025 -1.77535 5
    endloop
  endfacet
  facet normal -0.406748 0.91354 0
    outer loop
      vertex 0.633484 -1.94967 5
      vertex 1.025 -1.77535 0
      vertex 0.633484 -1.94967 0
    endloop
  endfacet
  facet normal -0.207903 0.978149 0
    outer loop
      vertex 0.633484 -1.94967 0
      vertex 0.214283 -2.03877 5
      vertex 0.633484 -1.94967 5
    endloop
  endfacet
  facet normal -0.207903 0.978149 0
    outer loop
      vertex 0.214283 -2.03877 5
      vertex 0.633484 -1.94967 0
      vertex 0.214283 -2.03877 0
    endloop
  endfacet
  facet normal -0.587775 -0.809025 0
    outer loop
      vertex 1.025 1.77535 0
      vertex 1.37172 1.52345 5
      vertex 1.025 1.77535 5
    endloop
  endfacet
  facet normal -0.587775 -0.809025 -0
    outer loop
      vertex 1.37172 1.52345 5
      vertex 1.025 1.77535 0
      vertex 1.37172 1.52345 0
    endloop
  endfacet
  facet normal 0.95106 -0.309007 0
    outer loop
      vertex -2.0052 0.426218 5
      vertex -1.87277 0.83381 0
      vertex -1.87277 0.83381 5
    endloop
  endfacet
  facet normal 0.95106 -0.309007 0
    outer loop
      vertex -1.87277 0.83381 0
      vertex -2.0052 0.426218 5
      vertex -2.0052 0.426218 0
    endloop
  endfacet
  facet normal -0.994521 0.104535 0
    outer loop
      vertex 2.0052 -0.426218 0
      vertex 2.05 0 5
      vertex 2.05 0 0
    endloop
  endfacet
  facet normal -0.994521 0.104535 0
    outer loop
      vertex 2.05 0 5
      vertex 2.0052 -0.426218 0
      vertex 2.0052 -0.426218 5
    endloop
  endfacet
  facet normal 0.743156 -0.669118 0
    outer loop
      vertex -1.65848 1.20496 5
      vertex -1.37172 1.52345 0
      vertex -1.37172 1.52345 5
    endloop
  endfacet
  facet normal 0.743156 -0.669118 0
    outer loop
      vertex -1.37172 1.52345 0
      vertex -1.65848 1.20496 5
      vertex -1.65848 1.20496 0
    endloop
  endfacet
  facet normal 0 -1 0
    outer loop
      vertex -0.214283 2.03877 0
      vertex 0.214283 2.03877 5
      vertex -0.214283 2.03877 5
    endloop
  endfacet
  facet normal 0 -1 -0
    outer loop
      vertex 0.214283 2.03877 5
      vertex -0.214283 2.03877 0
      vertex 0.214283 2.03877 0
    endloop
  endfacet
  facet normal -0.866019 0.500011 0
    outer loop
      vertex 1.65848 -1.20496 0
      vertex 1.87277 -0.83381 5
      vertex 1.87277 -0.83381 0
    endloop
  endfacet
  facet normal -0.866019 0.500011 0
    outer loop
      vertex 1.87277 -0.83381 5
      vertex 1.65848 -1.20496 0
      vertex 1.65848 -1.20496 5
    endloop
  endfacet
  facet normal 0.207903 -0.978149 0
    outer loop
      vertex -0.633484 1.94967 0
      vertex -0.214283 2.03877 5
      vertex -0.633484 1.94967 5
    endloop
  endfacet
  facet normal 0.207903 -0.978149 0
    outer loop
      vertex -0.214283 2.03877 5
      vertex -0.633484 1.94967 0
      vertex -0.214283 2.03877 0
    endloop
  endfacet
  facet normal -0.743156 0.669118 0
    outer loop
      vertex 1.37172 -1.52345 0
      vertex 1.65848 -1.20496 5
      vertex 1.65848 -1.20496 0
    endloop
  endfacet
  facet normal -0.743156 0.669118 0
    outer loop
      vertex 1.65848 -1.20496 5
      vertex 1.37172 -1.52345 0
      vertex 1.37172 -1.52345 5
    endloop
  endfacet
  facet normal 0.406748 0.91354 -0
    outer loop
      vertex -0.633484 -1.94967 0
      vertex -1.025 -1.77535 5
      vertex -0.633484 -1.94967 5
    endloop
  endfacet
  facet normal 0.406748 0.91354 0
    outer loop
      vertex -1.025 -1.77535 5
      vertex -0.633484 -1.94967 0
      vertex -1.025 -1.77535 0
    endloop
  endfacet
  facet normal 0.587775 0.809025 -0
    outer loop
      vertex -1.025 -1.77535 0
      vertex -1.37172 -1.52345 5
      vertex -1.025 -1.77535 5
    endloop
  endfacet
  facet normal 0.587775 0.809025 0
    outer loop
      vertex -1.37172 -1.52345 5
      vertex -1.025 -1.77535 0
      vertex -1.37172 -1.52345 0
    endloop
  endfacet
  facet normal -0.743156 -0.669118 0
    outer loop
      vertex 1.65848 1.20496 0
      vertex 1.37172 1.52345 5
      vertex 1.37172 1.52345 0
    endloop
  endfacet
  facet normal -0.743156 -0.669118 0
    outer loop
      vertex 1.37172 1.52345 5
      vertex 1.65848 1.20496 0
      vertex 1.65848 1.20496 5
    endloop
  endfacet
  facet normal 0.994521 -0.104535 0
    outer loop
      vertex -2.05 0 5
      vertex -2.0052 0.426218 0
      vertex -2.0052 0.426218 5
    endloop
  endfacet
  facet normal 0.994521 -0.104535 0
    outer loop
      vertex -2.0052 0.426218 0
      vertex -2.05 0 5
      vertex -2.05 0 0
    endloop
  endfacet
  facet normal -0.866019 -0.500011 0
    outer loop
      vertex 1.87277 0.83381 0
      vertex 1.65848 1.20496 5
      vertex 1.65848 1.20496 0
    endloop
  endfacet
  facet normal -0.866019 -0.500011 0
    outer loop
      vertex 1.65848 1.20496 5
      vertex 1.87277 0.83381 0
      vertex 1.87277 0.83381 5
    endloop
  endfacet
  facet normal 0.207903 0.978149 -0
    outer loop
      vertex -0.214283 -2.03877 0
      vertex -0.633484 -1.94967 5
      vertex -0.214283 -2.03877 5
    endloop
  endfacet
  facet normal 0.207903 0.978149 0
    outer loop
      vertex -0.633484 -1.94967 5
      vertex -0.214283 -2.03877 0
      vertex -0.633484 -1.94967 0
    endloop
  endfacet
  facet normal 0 1 -0
    outer loop
      vertex 0.214283 -2.03877 0
      vertex -0.214283 -2.03877 5
      vertex 0.214283 -2.03877 5
    endloop
  endfacet
  facet normal 0 1 0
    outer loop
      vertex -0.214283 -2.03877 5
      vertex 0.214283 -2.03877 0
      vertex -0.214283 -2.03877 0
    endloop
  endfacet
  facet normal 0.95106 0.309007 0
    outer loop
      vertex -1.87277 -0.83381 5
      vertex -2.0052 -0.426218 0
      vertex -2.0052 -0.426218 5
    endloop
  endfacet
  facet normal 0.95106 0.309007 0
    outer loop
      vertex -2.0052 -0.426218 0
      vertex -1.87277 -0.83381 5
      vertex -1.87277 -0.83381 0
    endloop
  endfacet
  facet normal 0.743156 0.669118 0
    outer loop
      vertex -1.37172 -1.52345 5
      vertex -1.65848 -1.20496 0
      vertex -1.65848 -1.20496 5
    endloop
  endfacet
  facet normal 0.743156 0.669118 0
    outer loop
      vertex -1.65848 -1.20496 0
      vertex -1.37172 -1.52345 5
      vertex -1.37172 -1.52345 0
    endloop
  endfacet
  facet normal -0.207903 -0.978149 0
    outer loop
      vertex 0.214283 2.03877 0
      vertex 0.633484 1.94967 5
      vertex 0.214283 2.03877 5
    endloop
  endfacet
  facet normal -0.207903 -0.978149 -0
    outer loop
      vertex 0.633484 1.94967 5
      vertex 0.214283 2.03877 0
      vertex 0.633484 1.94967 0
    endloop
  endfacet
  facet normal 0.994521 0.104535 0
    outer loop
      vertex -2.0052 -0.426218 5
      vertex -2.05 0 0
      vertex -2.05 0 5
    endloop
  endfacet
  facet normal 0.994521 0.104535 0
    outer loop
      vertex -2.05 0 0
      vertex -2.0052 -0.426218 5
      vertex -2.0052 -0.426218 0
    endloop
  endfacet
  facet normal 0.866019 -0.500011 0
    outer loop
      vertex -1.87277 0.83381 5
      vertex -1.65848 1.20496 0
      vertex -1.65848 1.20496 5
    endloop
  endfacet
  facet normal 0.866019 -0.500011 0
    outer loop
      vertex -1.65848 1.20496 0
      vertex -1.87277 0.83381 5
      vertex -1.87277 0.83381 0
    endloop
  endfacet
endsolid OpenSCAD_Model
