solid OpenSCAD_Model
  facet normal -1 0 0
    outer loop
      vertex 20 10 3
      vertex 20 20 0
      vertex 20 10 0
    endloop
  endfacet
  facet normal -1 0 0
    outer loop
      vertex 20 20 0
      vertex 20 10 3
      vertex 20 20 25
    endloop
  endfacet
  facet normal -1 0 0
    outer loop
      vertex 20 0 25
      vertex 20 10 3
      vertex 20 0 3
    endloop
  endfacet
  facet normal -1 0 0
    outer loop
      vertex 20 10 3
      vertex 20 0 25
      vertex 20 20 25
    endloop
  endfacet
  facet normal 0 0 1
    outer loop
      vertex 20 10 3
      vertex 19.25 5 3
      vertex 20 0 3
    endloop
  endfacet
  facet normal 0 0 1
    outer loop
      vertex 20 10 3
      vertex 19.1793 5.55955 3
      vertex 19.25 5 3
    endloop
  endfacet
  facet normal 0 0 1
    outer loop
      vertex 20 10 3
      vertex 18.9717 6.08395 3
      vertex 19.1793 5.55955 3
    endloop
  endfacet
  facet normal 0 0 1
    outer loop
      vertex 20 10 3
      vertex 18.6402 6.54023 3
      vertex 18.9717 6.08395 3
    endloop
  endfacet
  facet normal 0 0 1
    outer loop
      vertex 20 10 3
      vertex 18.2056 6.89974 3
      vertex 18.6402 6.54023 3
    endloop
  endfacet
  facet normal 0 0 1
    outer loop
      vertex 20 10 3
      vertex 17.6953 7.13988 3
      vertex 18.2056 6.89974 3
    endloop
  endfacet
  facet normal 0 0 1
    outer loop
      vertex 20 10 3
      vertex 17.1413 7.24556 3
      vertex 17.6953 7.13988 3
    endloop
  endfacet
  facet normal 0 0 1
    outer loop
      vertex 20 10 3
      vertex 16.5784 7.21015 3
      vertex 17.1413 7.24556 3
    endloop
  endfacet
  facet normal 0 0 1
    outer loop
      vertex 20 10 3
      vertex 16.042 7.03586 3
      vertex 16.5784 7.21015 3
    endloop
  endfacet
  facet normal 0 0 1
    outer loop
      vertex 6.20561 6.89974 3
      vertex 16.042 7.03586 3
      vertex 20 10 3
    endloop
  endfacet
  facet normal 0 0 1
    outer loop
      vertex 14.7677 5.282 3
      vertex 7.25 5 3
      vertex 14.7677 4.718 3
    endloop
  endfacet
  facet normal -0 0 1
    outer loop
      vertex 7.17931 5.55955 3
      vertex 14.7677 5.282 3
      vertex 14.908 5.82828 3
    endloop
  endfacet
  facet normal -0 0 1
    outer loop
      vertex 6.97169 6.08395 3
      vertex 14.908 5.82828 3
      vertex 15.1797 6.32252 3
    endloop
  endfacet
  facet normal -0 0 1
    outer loop
      vertex 6.64018 6.54023 3
      vertex 15.1797 6.32252 3
      vertex 15.5658 6.73365 3
    endloop
  endfacet
  facet normal 0 0 1
    outer loop
      vertex 16.042 7.03586 3
      vertex 6.20561 6.89974 3
      vertex 15.5658 6.73365 3
    endloop
  endfacet
  facet normal 0 0 1
    outer loop
      vertex 14.7677 5.282 3
      vertex 7.17931 5.55955 3
      vertex 7.25 5 3
    endloop
  endfacet
  facet normal 0 0 1
    outer loop
      vertex 14.908 5.82828 3
      vertex 6.97169 6.08395 3
      vertex 7.17931 5.55955 3
    endloop
  endfacet
  facet normal 0 0 1
    outer loop
      vertex 15.1797 6.32252 3
      vertex 6.64018 6.54023 3
      vertex 6.97169 6.08395 3
    endloop
  endfacet
  facet normal 0 0 1
    outer loop
      vertex 15.5658 6.73365 3
      vertex 6.20561 6.89974 3
      vertex 6.64018 6.54023 3
    endloop
  endfacet
  facet normal 0 0 1
    outer loop
      vertex 20 10 3
      vertex 5.69529 7.13988 3
      vertex 6.20561 6.89974 3
    endloop
  endfacet
  facet normal -0 0 1
    outer loop
      vertex 0 10 3
      vertex 5.69529 7.13988 3
      vertex 20 10 3
    endloop
  endfacet
  facet normal 0 0 1
    outer loop
      vertex 5.69529 7.13988 3
      vertex 0 10 3
      vertex 5.14128 7.24556 3
    endloop
  endfacet
  facet normal 0 0 1
    outer loop
      vertex 2.76774 5.282 3
      vertex 0 10 3
      vertex 2.76774 4.718 3
    endloop
  endfacet
  facet normal 0 0 1
    outer loop
      vertex 2.908 5.82828 3
      vertex 0 10 3
      vertex 2.76774 5.282 3
    endloop
  endfacet
  facet normal 0 0 1
    outer loop
      vertex 3.17971 6.32252 3
      vertex 0 10 3
      vertex 2.908 5.82828 3
    endloop
  endfacet
  facet normal 0 0 1
    outer loop
      vertex 3.5658 6.73365 3
      vertex 0 10 3
      vertex 3.17971 6.32252 3
    endloop
  endfacet
  facet normal 0 0 1
    outer loop
      vertex 4.042 7.03586 3
      vertex 0 10 3
      vertex 3.5658 6.73365 3
    endloop
  endfacet
  facet normal 0 0 1
    outer loop
      vertex 4.57839 7.21015 3
      vertex 0 10 3
      vertex 4.042 7.03586 3
    endloop
  endfacet
  facet normal 0 0 1
    outer loop
      vertex 5.14128 7.24556 3
      vertex 0 10 3
      vertex 4.57839 7.21015 3
    endloop
  endfacet
  facet normal -0 0 1
    outer loop
      vertex 19.1793 4.44045 3
      vertex 20 0 3
      vertex 19.25 5 3
    endloop
  endfacet
  facet normal -0 0 1
    outer loop
      vertex 18.9717 3.91605 3
      vertex 20 0 3
      vertex 19.1793 4.44045 3
    endloop
  endfacet
  facet normal -0 0 1
    outer loop
      vertex 18.6402 3.45977 3
      vertex 20 0 3
      vertex 18.9717 3.91605 3
    endloop
  endfacet
  facet normal -0 0 1
    outer loop
      vertex 18.2056 3.10026 3
      vertex 20 0 3
      vertex 18.6402 3.45977 3
    endloop
  endfacet
  facet normal -0 0 1
    outer loop
      vertex 17.6953 2.86012 3
      vertex 20 0 3
      vertex 18.2056 3.10026 3
    endloop
  endfacet
  facet normal -0 0 1
    outer loop
      vertex 17.1413 2.75444 3
      vertex 20 0 3
      vertex 17.6953 2.86012 3
    endloop
  endfacet
  facet normal 0 0 1
    outer loop
      vertex 16.5784 2.78985 3
      vertex 20 0 3
      vertex 17.1413 2.75444 3
    endloop
  endfacet
  facet normal 0 0 1
    outer loop
      vertex 16.042 2.96414 3
      vertex 20 0 3
      vertex 16.5784 2.78985 3
    endloop
  endfacet
  facet normal -0 0 1
    outer loop
      vertex 6.20561 3.10026 3
      vertex 16.042 2.96414 3
      vertex 15.5658 3.26635 3
    endloop
  endfacet
  facet normal 0 0 1
    outer loop
      vertex 7.17931 4.44045 3
      vertex 14.7677 4.718 3
      vertex 7.25 5 3
    endloop
  endfacet
  facet normal 0 0 1
    outer loop
      vertex 14.7677 4.718 3
      vertex 7.17931 4.44045 3
      vertex 14.908 4.17172 3
    endloop
  endfacet
  facet normal 0 0 1
    outer loop
      vertex 6.97169 3.91605 3
      vertex 14.908 4.17172 3
      vertex 7.17931 4.44045 3
    endloop
  endfacet
  facet normal 0 0 1
    outer loop
      vertex 14.908 4.17172 3
      vertex 6.97169 3.91605 3
      vertex 15.1797 3.67748 3
    endloop
  endfacet
  facet normal 0 0 1
    outer loop
      vertex 6.64018 3.45977 3
      vertex 15.1797 3.67748 3
      vertex 6.97169 3.91605 3
    endloop
  endfacet
  facet normal 0 0 1
    outer loop
      vertex 15.1797 3.67748 3
      vertex 6.64018 3.45977 3
      vertex 15.5658 3.26635 3
    endloop
  endfacet
  facet normal 0 0 1
    outer loop
      vertex 6.20561 3.10026 3
      vertex 15.5658 3.26635 3
      vertex 6.64018 3.45977 3
    endloop
  endfacet
  facet normal 0 0 1
    outer loop
      vertex 16.042 2.96414 3
      vertex 6.20561 3.10026 3
      vertex 20 0 3
    endloop
  endfacet
  facet normal -0 0 1
    outer loop
      vertex 5.69529 2.86012 3
      vertex 20 0 3
      vertex 6.20561 3.10026 3
    endloop
  endfacet
  facet normal 0 0 1
    outer loop
      vertex 0 0 3
      vertex 5.69529 2.86012 3
      vertex 5.14128 2.75444 3
    endloop
  endfacet
  facet normal 0 0 1
    outer loop
      vertex 0 0 3
      vertex 5.14128 2.75444 3
      vertex 4.57839 2.78985 3
    endloop
  endfacet
  facet normal 0 0 1
    outer loop
      vertex 0 0 3
      vertex 2.76774 4.718 3
      vertex 0 10 3
    endloop
  endfacet
  facet normal 0 0 1
    outer loop
      vertex 5.69529 2.86012 3
      vertex 0 0 3
      vertex 20 0 3
    endloop
  endfacet
  facet normal 0 0 1
    outer loop
      vertex 4.042 2.96414 3
      vertex 0 0 3
      vertex 4.57839 2.78985 3
    endloop
  endfacet
  facet normal 0 0 1
    outer loop
      vertex 3.5658 3.26635 3
      vertex 0 0 3
      vertex 4.042 2.96414 3
    endloop
  endfacet
  facet normal 0 0 1
    outer loop
      vertex 3.17971 3.67748 3
      vertex 0 0 3
      vertex 3.5658 3.26635 3
    endloop
  endfacet
  facet normal 0 0 1
    outer loop
      vertex 2.908 4.17172 3
      vertex 0 0 3
      vertex 3.17971 3.67748 3
    endloop
  endfacet
  facet normal 0 0 1
    outer loop
      vertex 2.76774 4.718 3
      vertex 0 0 3
      vertex 2.908 4.17172 3
    endloop
  endfacet
  facet normal 0 0 -1
    outer loop
      vertex 29.2 0 0
      vertex 32.2 20 0
      vertex 32.2 0 0
    endloop
  endfacet
  facet normal -0 0 -1
    outer loop
      vertex 32.2 20 0
      vertex 29.2 0 0
      vertex 29.2 20 0
    endloop
  endfacet
  facet normal 0 0 -1
    outer loop
      vertex 23 0 0
      vertex 20 10 0
      vertex 23 20 0
    endloop
  endfacet
  facet normal 0 0 -1
    outer loop
      vertex 19.1793 5.55955 0
      vertex 23 0 0
      vertex 19.25 5 0
    endloop
  endfacet
  facet normal 0 0 -1
    outer loop
      vertex 23 0 0
      vertex 19.1793 4.44045 0
      vertex 19.25 5 0
    endloop
  endfacet
  facet normal 0 0 -1
    outer loop
      vertex 23 0 0
      vertex 18.9717 3.91605 0
      vertex 19.1793 4.44045 0
    endloop
  endfacet
  facet normal 0 0 -1
    outer loop
      vertex 23 0 0
      vertex 18.6402 3.45977 0
      vertex 18.9717 3.91605 0
    endloop
  endfacet
  facet normal 0 0 -1
    outer loop
      vertex 23 0 0
      vertex 18.2056 3.10026 0
      vertex 18.6402 3.45977 0
    endloop
  endfacet
  facet normal 0 0 -1
    outer loop
      vertex 23 0 0
      vertex 17.6953 2.86012 0
      vertex 18.2056 3.10026 0
    endloop
  endfacet
  facet normal 0 0 -1
    outer loop
      vertex 23 0 0
      vertex 17.1413 2.75444 0
      vertex 17.6953 2.86012 0
    endloop
  endfacet
  facet normal 0 0 -1
    outer loop
      vertex 23 0 0
      vertex 16.5784 2.78985 0
      vertex 17.1413 2.75444 0
    endloop
  endfacet
  facet normal 0 0 -1
    outer loop
      vertex 0 0 0
      vertex 16.5784 2.78985 0
      vertex 23 0 0
    endloop
  endfacet
  facet normal 0 0 -1
    outer loop
      vertex 14.7677 4.718 0
      vertex 7.25 5 0
      vertex 14.7677 5.282 0
    endloop
  endfacet
  facet normal 0 0 -1
    outer loop
      vertex 7.17931 4.44045 0
      vertex 14.7677 4.718 0
      vertex 14.908 4.17172 0
    endloop
  endfacet
  facet normal 0 0 -1
    outer loop
      vertex 6.97169 3.91605 0
      vertex 14.908 4.17172 0
      vertex 15.1797 3.67748 0
    endloop
  endfacet
  facet normal 0 0 -1
    outer loop
      vertex 6.64018 3.45977 0
      vertex 15.1797 3.67748 0
      vertex 15.5658 3.26635 0
    endloop
  endfacet
  facet normal 0 0 -1
    outer loop
      vertex 6.20561 3.10026 0
      vertex 15.5658 3.26635 0
      vertex 16.042 2.96414 0
    endloop
  endfacet
  facet normal 0 -0 -1
    outer loop
      vertex 5.69529 2.86012 0
      vertex 16.5784 2.78985 0
      vertex 0 0 0
    endloop
  endfacet
  facet normal -0 0 -1
    outer loop
      vertex 14.7677 4.718 0
      vertex 7.17931 4.44045 0
      vertex 7.25 5 0
    endloop
  endfacet
  facet normal -0 0 -1
    outer loop
      vertex 14.908 4.17172 0
      vertex 6.97169 3.91605 0
      vertex 7.17931 4.44045 0
    endloop
  endfacet
  facet normal -0 0 -1
    outer loop
      vertex 15.1797 3.67748 0
      vertex 6.64018 3.45977 0
      vertex 6.97169 3.91605 0
    endloop
  endfacet
  facet normal -0 0 -1
    outer loop
      vertex 15.5658 3.26635 0
      vertex 6.20561 3.10026 0
      vertex 6.64018 3.45977 0
    endloop
  endfacet
  facet normal -0 0 -1
    outer loop
      vertex 16.042 2.96414 0
      vertex 5.69529 2.86012 0
      vertex 6.20561 3.10026 0
    endloop
  endfacet
  facet normal 0 0 -1
    outer loop
      vertex 16.5784 2.78985 0
      vertex 5.69529 2.86012 0
      vertex 16.042 2.96414 0
    endloop
  endfacet
  facet normal 0 0 -1
    outer loop
      vertex 5.69529 2.86012 0
      vertex 0 0 0
      vertex 5.14128 2.75444 0
    endloop
  endfacet
  facet normal -0 0 -1
    outer loop
      vertex 2.76774 4.718 0
      vertex 0 0 0
      vertex 2.76774 5.282 0
    endloop
  endfacet
  facet normal -0 0 -1
    outer loop
      vertex 2.908 4.17172 0
      vertex 0 0 0
      vertex 2.76774 4.718 0
    endloop
  endfacet
  facet normal -0 0 -1
    outer loop
      vertex 3.17971 3.67748 0
      vertex 0 0 0
      vertex 2.908 4.17172 0
    endloop
  endfacet
  facet normal -0 0 -1
    outer loop
      vertex 3.5658 3.26635 0
      vertex 0 0 0
      vertex 3.17971 3.67748 0
    endloop
  endfacet
  facet normal -0 0 -1
    outer loop
      vertex 4.042 2.96414 0
      vertex 0 0 0
      vertex 3.5658 3.26635 0
    endloop
  endfacet
  facet normal -0 0 -1
    outer loop
      vertex 4.57839 2.78985 0
      vertex 0 0 0
      vertex 4.042 2.96414 0
    endloop
  endfacet
  facet normal -0 0 -1
    outer loop
      vertex 5.14128 2.75444 0
      vertex 0 0 0
      vertex 4.57839 2.78985 0
    endloop
  endfacet
  facet normal -0 0 -1
    outer loop
      vertex 23 20 0
      vertex 20 10 0
      vertex 20 20 0
    endloop
  endfacet
  facet normal 0 0 -1
    outer loop
      vertex 23 0 0
      vertex 19.1793 5.55955 0
      vertex 20 10 0
    endloop
  endfacet
  facet normal 0 0 -1
    outer loop
      vertex 18.9717 6.08395 0
      vertex 20 10 0
      vertex 19.1793 5.55955 0
    endloop
  endfacet
  facet normal 0 0 -1
    outer loop
      vertex 18.6402 6.54023 0
      vertex 20 10 0
      vertex 18.9717 6.08395 0
    endloop
  endfacet
  facet normal 0 0 -1
    outer loop
      vertex 18.2056 6.89974 0
      vertex 20 10 0
      vertex 18.6402 6.54023 0
    endloop
  endfacet
  facet normal 0 0 -1
    outer loop
      vertex 17.6953 7.13988 0
      vertex 20 10 0
      vertex 18.2056 6.89974 0
    endloop
  endfacet
  facet normal 0 0 -1
    outer loop
      vertex 17.1413 7.24556 0
      vertex 20 10 0
      vertex 17.6953 7.13988 0
    endloop
  endfacet
  facet normal 0 0 -1
    outer loop
      vertex 16.5784 7.21015 0
      vertex 20 10 0
      vertex 17.1413 7.24556 0
    endloop
  endfacet
  facet normal 0 0 -1
    outer loop
      vertex 16.042 7.03586 0
      vertex 20 10 0
      vertex 16.5784 7.21015 0
    endloop
  endfacet
  facet normal 0 0 -1
    outer loop
      vertex 6.20561 6.89974 0
      vertex 16.042 7.03586 0
      vertex 15.5658 6.73365 0
    endloop
  endfacet
  facet normal 0 0 -1
    outer loop
      vertex 7.17931 5.55955 0
      vertex 14.7677 5.282 0
      vertex 7.25 5 0
    endloop
  endfacet
  facet normal 0 0 -1
    outer loop
      vertex 14.7677 5.282 0
      vertex 7.17931 5.55955 0
      vertex 14.908 5.82828 0
    endloop
  endfacet
  facet normal 0 0 -1
    outer loop
      vertex 6.97169 6.08395 0
      vertex 14.908 5.82828 0
      vertex 7.17931 5.55955 0
    endloop
  endfacet
  facet normal 0 0 -1
    outer loop
      vertex 14.908 5.82828 0
      vertex 6.97169 6.08395 0
      vertex 15.1797 6.32252 0
    endloop
  endfacet
  facet normal 0 0 -1
    outer loop
      vertex 6.64018 6.54023 0
      vertex 15.1797 6.32252 0
      vertex 6.97169 6.08395 0
    endloop
  endfacet
  facet normal 0 0 -1
    outer loop
      vertex 15.1797 6.32252 0
      vertex 6.64018 6.54023 0
      vertex 15.5658 6.73365 0
    endloop
  endfacet
  facet normal 0 0 -1
    outer loop
      vertex 6.20561 6.89974 0
      vertex 15.5658 6.73365 0
      vertex 6.64018 6.54023 0
    endloop
  endfacet
  facet normal -0 0 -1
    outer loop
      vertex 16.042 7.03586 0
      vertex 6.20561 6.89974 0
      vertex 20 10 0
    endloop
  endfacet
  facet normal 0 0 -1
    outer loop
      vertex 5.69529 7.13988 0
      vertex 20 10 0
      vertex 6.20561 6.89974 0
    endloop
  endfacet
  facet normal 0 0 -1
    outer loop
      vertex 0 10 0
      vertex 5.69529 7.13988 0
      vertex 5.14128 7.24556 0
    endloop
  endfacet
  facet normal 0 0 -1
    outer loop
      vertex 0 10 0
      vertex 5.14128 7.24556 0
      vertex 4.57839 7.21015 0
    endloop
  endfacet
  facet normal 0 0 -1
    outer loop
      vertex 0 10 0
      vertex 2.76774 5.282 0
      vertex 0 0 0
    endloop
  endfacet
  facet normal 0 0 -1
    outer loop
      vertex 5.69529 7.13988 0
      vertex 0 10 0
      vertex 20 10 0
    endloop
  endfacet
  facet normal 0 0 -1
    outer loop
      vertex 4.042 7.03586 0
      vertex 0 10 0
      vertex 4.57839 7.21015 0
    endloop
  endfacet
  facet normal 0 0 -1
    outer loop
      vertex 3.5658 6.73365 0
      vertex 0 10 0
      vertex 4.042 7.03586 0
    endloop
  endfacet
  facet normal 0 0 -1
    outer loop
      vertex 3.17971 6.32252 0
      vertex 0 10 0
      vertex 3.5658 6.73365 0
    endloop
  endfacet
  facet normal 0 0 -1
    outer loop
      vertex 2.908 5.82828 0
      vertex 0 10 0
      vertex 3.17971 6.32252 0
    endloop
  endfacet
  facet normal 0 0 -1
    outer loop
      vertex 2.76774 5.282 0
      vertex 0 10 0
      vertex 2.908 5.82828 0
    endloop
  endfacet
  facet normal -1 0 0
    outer loop
      vertex 0 0 0
      vertex 0 10 3
      vertex 0 10 0
    endloop
  endfacet
  facet normal -1 -0 0
    outer loop
      vertex 0 10 3
      vertex 0 0 0
      vertex 0 0 3
    endloop
  endfacet
  facet normal 0 1 -0
    outer loop
      vertex 20 10 0
      vertex 0 10 3
      vertex 20 10 3
    endloop
  endfacet
  facet normal 0 1 0
    outer loop
      vertex 0 10 3
      vertex 20 10 0
      vertex 0 10 0
    endloop
  endfacet
  facet normal 0 -1 0
    outer loop
      vertex 0 0 3
      vertex 0 0 0
      vertex 20 0 3
    endloop
  endfacet
  facet normal 0 -1 0
    outer loop
      vertex 20 0 25
      vertex 23 0 22
      vertex 32.2 0 25
    endloop
  endfacet
  facet normal 0 -1 0
    outer loop
      vertex 20 0 3
      vertex 23 0 22
      vertex 20 0 25
    endloop
  endfacet
  facet normal 0 -1 0
    outer loop
      vertex 20 0 3
      vertex 23 0 0
      vertex 23 0 22
    endloop
  endfacet
  facet normal 0 -1 0
    outer loop
      vertex 23 0 0
      vertex 20 0 3
      vertex 0 0 0
    endloop
  endfacet
  facet normal 0 -1 0
    outer loop
      vertex 29.2 0 22
      vertex 32.2 0 25
      vertex 23 0 22
    endloop
  endfacet
  facet normal 0 -1 0
    outer loop
      vertex 32.2 0 0
      vertex 29.2 0 22
      vertex 29.2 0 0
    endloop
  endfacet
  facet normal 0 -1 0
    outer loop
      vertex 29.2 0 22
      vertex 32.2 0 0
      vertex 32.2 0 25
    endloop
  endfacet
  facet normal 1 -0 0
    outer loop
      vertex 32.2 0 25
      vertex 32.2 20 0
      vertex 32.2 20 25
    endloop
  endfacet
  facet normal 1 0 0
    outer loop
      vertex 32.2 20 0
      vertex 32.2 0 25
      vertex 32.2 0 0
    endloop
  endfacet
  facet normal -0 0 1
    outer loop
      vertex 20 20 25
      vertex 32.2 0 25
      vertex 32.2 20 25
    endloop
  endfacet
  facet normal 0 0 1
    outer loop
      vertex 32.2 0 25
      vertex 20 20 25
      vertex 20 0 25
    endloop
  endfacet
  facet normal 0 1 0
    outer loop
      vertex 32.2 20 25
      vertex 29.2 20 22
      vertex 20 20 25
    endloop
  endfacet
  facet normal 0 1 -0
    outer loop
      vertex 32.2 20 0
      vertex 29.2 20 22
      vertex 32.2 20 25
    endloop
  endfacet
  facet normal 0 1 0
    outer loop
      vertex 29.2 20 22
      vertex 32.2 20 0
      vertex 29.2 20 0
    endloop
  endfacet
  facet normal 0 1 -0
    outer loop
      vertex 23 20 22
      vertex 20 20 25
      vertex 29.2 20 22
    endloop
  endfacet
  facet normal 0 1 0
    outer loop
      vertex 20 20 0
      vertex 23 20 22
      vertex 23 20 0
    endloop
  endfacet
  facet normal 0 1 0
    outer loop
      vertex 23 20 22
      vertex 20 20 0
      vertex 20 20 25
    endloop
  endfacet
  facet normal -1 0 0
    outer loop
      vertex 29.2 0 0
      vertex 29.2 20 22
      vertex 29.2 20 0
    endloop
  endfacet
  facet normal -1 -0 0
    outer loop
      vertex 29.2 20 22
      vertex 29.2 0 0
      vertex 29.2 0 22
    endloop
  endfacet
  facet normal 0 0 -1
    outer loop
      vertex 23 0 22
      vertex 29.2 20 22
      vertex 29.2 0 22
    endloop
  endfacet
  facet normal -0 0 -1
    outer loop
      vertex 29.2 20 22
      vertex 23 0 22
      vertex 23 20 22
    endloop
  endfacet
  facet normal 1 -0 0
    outer loop
      vertex 23 0 22
      vertex 23 20 0
      vertex 23 20 22
    endloop
  endfacet
  facet normal 1 0 0
    outer loop
      vertex 23 20 0
      vertex 23 0 22
      vertex 23 0 0
    endloop
  endfacet
  facet normal -0.425782 -0.904826 0
    outer loop
      vertex 5.69529 7.13988 0
      vertex 6.20561 6.89974 3
      vertex 5.69529 7.13988 3
    endloop
  endfacet
  facet normal -0.425782 -0.904826 -0
    outer loop
      vertex 6.20561 6.89974 3
      vertex 5.69529 7.13988 0
      vertex 6.20561 6.89974 0
    endloop
  endfacet
  facet normal 1 -0 0
    outer loop
      vertex 2.76774 4.718 3
      vertex 2.76774 5.282 0
      vertex 2.76774 5.282 3
    endloop
  endfacet
  facet normal 1 0 0
    outer loop
      vertex 2.76774 5.282 0
      vertex 2.76774 4.718 3
      vertex 2.76774 4.718 0
    endloop
  endfacet
  facet normal -0.929779 -0.368117 0
    outer loop
      vertex 7.17931 5.55955 0
      vertex 6.97169 6.08395 3
      vertex 6.97169 6.08395 0
    endloop
  endfacet
  facet normal -0.929779 -0.368117 0
    outer loop
      vertex 6.97169 6.08395 3
      vertex 7.17931 5.55955 0
      vertex 7.17931 5.55955 3
    endloop
  endfacet
  facet normal -0.425782 0.904826 0
    outer loop
      vertex 6.20561 3.10026 0
      vertex 5.69529 2.86012 3
      vertex 6.20561 3.10026 3
    endloop
  endfacet
  facet normal -0.425782 0.904826 0
    outer loop
      vertex 5.69529 2.86012 3
      vertex 6.20561 3.10026 0
      vertex 5.69529 2.86012 0
    endloop
  endfacet
  facet normal -0.637427 0.770511 0
    outer loop
      vertex 6.64018 3.45977 0
      vertex 6.20561 3.10026 3
      vertex 6.64018 3.45977 3
    endloop
  endfacet
  facet normal -0.637427 0.770511 0
    outer loop
      vertex 6.20561 3.10026 3
      vertex 6.64018 3.45977 0
      vertex 6.20561 3.10026 0
    endloop
  endfacet
  facet normal -0.187376 -0.982288 0
    outer loop
      vertex 5.14128 7.24556 0
      vertex 5.69529 7.13988 3
      vertex 5.14128 7.24556 3
    endloop
  endfacet
  facet normal -0.187376 -0.982288 -0
    outer loop
      vertex 5.69529 7.13988 3
      vertex 5.14128 7.24556 0
      vertex 5.69529 7.13988 0
    endloop
  endfacet
  facet normal -0.992114 0.125337 0
    outer loop
      vertex 7.17931 4.44045 0
      vertex 7.25 5 3
      vertex 7.25 5 0
    endloop
  endfacet
  facet normal -0.992114 0.125337 0
    outer loop
      vertex 7.25 5 3
      vertex 7.17931 4.44045 0
      vertex 7.17931 4.44045 3
    endloop
  endfacet
  facet normal 0.968584 -0.248688 0
    outer loop
      vertex 2.76774 5.282 3
      vertex 2.908 5.82828 0
      vertex 2.908 5.82828 3
    endloop
  endfacet
  facet normal 0.968584 -0.248688 0
    outer loop
      vertex 2.908 5.82828 0
      vertex 2.76774 5.282 3
      vertex 2.76774 5.282 0
    endloop
  endfacet
  facet normal -0.809014 0.587789 0
    outer loop
      vertex 6.64018 3.45977 0
      vertex 6.97169 3.91605 3
      vertex 6.97169 3.91605 0
    endloop
  endfacet
  facet normal -0.809014 0.587789 0
    outer loop
      vertex 6.97169 3.91605 3
      vertex 6.64018 3.45977 0
      vertex 6.64018 3.45977 3
    endloop
  endfacet
  facet normal -0.187376 0.982288 0
    outer loop
      vertex 5.69529 2.86012 0
      vertex 5.14128 2.75444 3
      vertex 5.69529 2.86012 3
    endloop
  endfacet
  facet normal -0.187376 0.982288 0
    outer loop
      vertex 5.14128 2.75444 3
      vertex 5.69529 2.86012 0
      vertex 5.14128 2.75444 0
    endloop
  endfacet
  facet normal 0.309027 -0.951053 0
    outer loop
      vertex 4.042 7.03586 0
      vertex 4.57839 7.21015 3
      vertex 4.042 7.03586 3
    endloop
  endfacet
  facet normal 0.309027 -0.951053 0
    outer loop
      vertex 4.57839 7.21015 3
      vertex 4.042 7.03586 0
      vertex 4.57839 7.21015 0
    endloop
  endfacet
  facet normal -0.637427 -0.770511 0
    outer loop
      vertex 6.20561 6.89974 0
      vertex 6.64018 6.54023 3
      vertex 6.20561 6.89974 3
    endloop
  endfacet
  facet normal -0.637427 -0.770511 -0
    outer loop
      vertex 6.64018 6.54023 3
      vertex 6.20561 6.89974 0
      vertex 6.64018 6.54023 0
    endloop
  endfacet
  facet normal -0.992114 -0.125337 0
    outer loop
      vertex 7.25 5 0
      vertex 7.17931 5.55955 3
      vertex 7.17931 5.55955 0
    endloop
  endfacet
  facet normal -0.992114 -0.125337 0
    outer loop
      vertex 7.17931 5.55955 3
      vertex 7.25 5 0
      vertex 7.25 5 3
    endloop
  endfacet
  facet normal 0.309027 0.951053 -0
    outer loop
      vertex 4.57839 2.78985 0
      vertex 4.042 2.96414 3
      vertex 4.57839 2.78985 3
    endloop
  endfacet
  facet normal 0.309027 0.951053 0
    outer loop
      vertex 4.042 2.96414 3
      vertex 4.57839 2.78985 0
      vertex 4.042 2.96414 0
    endloop
  endfacet
  facet normal 0.876307 0.481753 0
    outer loop
      vertex 3.17971 3.67748 3
      vertex 2.908 4.17172 0
      vertex 2.908 4.17172 3
    endloop
  endfacet
  facet normal 0.876307 0.481753 0
    outer loop
      vertex 2.908 4.17172 0
      vertex 3.17971 3.67748 3
      vertex 3.17971 3.67748 0
    endloop
  endfacet
  facet normal 0.0627834 0.998027 -0
    outer loop
      vertex 5.14128 2.75444 0
      vertex 4.57839 2.78985 3
      vertex 5.14128 2.75444 3
    endloop
  endfacet
  facet normal 0.0627834 0.998027 0
    outer loop
      vertex 4.57839 2.78985 3
      vertex 5.14128 2.75444 0
      vertex 4.57839 2.78985 0
    endloop
  endfacet
  facet normal -0.809014 -0.587789 0
    outer loop
      vertex 6.97169 6.08395 0
      vertex 6.64018 6.54023 3
      vertex 6.64018 6.54023 0
    endloop
  endfacet
  facet normal -0.809014 -0.587789 0
    outer loop
      vertex 6.64018 6.54023 3
      vertex 6.97169 6.08395 0
      vertex 6.97169 6.08395 3
    endloop
  endfacet
  facet normal 0.0627834 -0.998027 0
    outer loop
      vertex 4.57839 7.21015 0
      vertex 5.14128 7.24556 3
      vertex 4.57839 7.21015 3
    endloop
  endfacet
  facet normal 0.0627834 -0.998027 0
    outer loop
      vertex 5.14128 7.24556 3
      vertex 4.57839 7.21015 0
      vertex 5.14128 7.24556 0
    endloop
  endfacet
  facet normal 0.535832 -0.844324 0
    outer loop
      vertex 3.5658 6.73365 0
      vertex 4.042 7.03586 3
      vertex 3.5658 6.73365 3
    endloop
  endfacet
  facet normal 0.535832 -0.844324 0
    outer loop
      vertex 4.042 7.03586 3
      vertex 3.5658 6.73365 0
      vertex 4.042 7.03586 0
    endloop
  endfacet
  facet normal 0.728957 0.68456 0
    outer loop
      vertex 3.5658 3.26635 3
      vertex 3.17971 3.67748 0
      vertex 3.17971 3.67748 3
    endloop
  endfacet
  facet normal 0.728957 0.68456 0
    outer loop
      vertex 3.17971 3.67748 0
      vertex 3.5658 3.26635 3
      vertex 3.5658 3.26635 0
    endloop
  endfacet
  facet normal 0.728957 -0.68456 0
    outer loop
      vertex 3.17971 6.32252 3
      vertex 3.5658 6.73365 0
      vertex 3.5658 6.73365 3
    endloop
  endfacet
  facet normal 0.728957 -0.68456 0
    outer loop
      vertex 3.5658 6.73365 0
      vertex 3.17971 6.32252 3
      vertex 3.17971 6.32252 0
    endloop
  endfacet
  facet normal 0.968584 0.248688 0
    outer loop
      vertex 2.908 4.17172 3
      vertex 2.76774 4.718 0
      vertex 2.76774 4.718 3
    endloop
  endfacet
  facet normal 0.968584 0.248688 0
    outer loop
      vertex 2.76774 4.718 0
      vertex 2.908 4.17172 3
      vertex 2.908 4.17172 0
    endloop
  endfacet
  facet normal -0.929779 0.368117 0
    outer loop
      vertex 6.97169 3.91605 0
      vertex 7.17931 4.44045 3
      vertex 7.17931 4.44045 0
    endloop
  endfacet
  facet normal -0.929779 0.368117 0
    outer loop
      vertex 7.17931 4.44045 3
      vertex 6.97169 3.91605 0
      vertex 6.97169 3.91605 3
    endloop
  endfacet
  facet normal 0.535832 0.844324 -0
    outer loop
      vertex 4.042 2.96414 0
      vertex 3.5658 3.26635 3
      vertex 4.042 2.96414 3
    endloop
  endfacet
  facet normal 0.535832 0.844324 0
    outer loop
      vertex 3.5658 3.26635 3
      vertex 4.042 2.96414 0
      vertex 3.5658 3.26635 0
    endloop
  endfacet
  facet normal 0.876307 -0.481753 0
    outer loop
      vertex 2.908 5.82828 3
      vertex 3.17971 6.32252 0
      vertex 3.17971 6.32252 3
    endloop
  endfacet
  facet normal 0.876307 -0.481753 0
    outer loop
      vertex 3.17971 6.32252 0
      vertex 2.908 5.82828 3
      vertex 2.908 5.82828 0
    endloop
  endfacet
  facet normal -0.425795 -0.90482 0
    outer loop
      vertex 17.6953 7.13988 0
      vertex 18.2056 6.89974 3
      vertex 17.6953 7.13988 3
    endloop
  endfacet
  facet normal -0.425795 -0.90482 -0
    outer loop
      vertex 18.2056 6.89974 3
      vertex 17.6953 7.13988 0
      vertex 18.2056 6.89974 0
    endloop
  endfacet
  facet normal 1 -0 0
    outer loop
      vertex 14.7677 4.718 3
      vertex 14.7677 5.282 0
      vertex 14.7677 5.282 3
    endloop
  endfacet
  facet normal 1 0 0
    outer loop
      vertex 14.7677 5.282 0
      vertex 14.7677 4.718 3
      vertex 14.7677 4.718 0
    endloop
  endfacet
  facet normal -0.929791 -0.368087 0
    outer loop
      vertex 19.1793 5.55955 0
      vertex 18.9717 6.08395 3
      vertex 18.9717 6.08395 0
    endloop
  endfacet
  facet normal -0.929791 -0.368087 0
    outer loop
      vertex 18.9717 6.08395 3
      vertex 19.1793 5.55955 0
      vertex 19.1793 5.55955 3
    endloop
  endfacet
  facet normal -0.425795 0.90482 0
    outer loop
      vertex 18.2056 3.10026 0
      vertex 17.6953 2.86012 3
      vertex 18.2056 3.10026 3
    endloop
  endfacet
  facet normal -0.425795 0.90482 0
    outer loop
      vertex 17.6953 2.86012 3
      vertex 18.2056 3.10026 0
      vertex 17.6953 2.86012 0
    endloop
  endfacet
  facet normal -0.6374 0.770533 0
    outer loop
      vertex 18.6402 3.45977 0
      vertex 18.2056 3.10026 3
      vertex 18.6402 3.45977 3
    endloop
  endfacet
  facet normal -0.6374 0.770533 0
    outer loop
      vertex 18.2056 3.10026 3
      vertex 18.6402 3.45977 0
      vertex 18.2056 3.10026 0
    endloop
  endfacet
  facet normal -0.187379 -0.982288 0
    outer loop
      vertex 17.1413 7.24556 0
      vertex 17.6953 7.13988 3
      vertex 17.1413 7.24556 3
    endloop
  endfacet
  facet normal -0.187379 -0.982288 -0
    outer loop
      vertex 17.6953 7.13988 3
      vertex 17.1413 7.24556 0
      vertex 17.6953 7.13988 0
    endloop
  endfacet
  facet normal -0.992112 0.125355 0
    outer loop
      vertex 19.1793 4.44045 0
      vertex 19.25 5 3
      vertex 19.25 5 0
    endloop
  endfacet
  facet normal -0.992112 0.125355 0
    outer loop
      vertex 19.25 5 3
      vertex 19.1793 4.44045 0
      vertex 19.1793 4.44045 3
    endloop
  endfacet
  facet normal 0.968566 -0.248755 0
    outer loop
      vertex 14.7677 5.282 3
      vertex 14.908 5.82828 0
      vertex 14.908 5.82828 3
    endloop
  endfacet
  facet normal 0.968566 -0.248755 0
    outer loop
      vertex 14.908 5.82828 0
      vertex 14.7677 5.282 3
      vertex 14.7677 5.282 0
    endloop
  endfacet
  facet normal -0.809023 0.587777 0
    outer loop
      vertex 18.6402 3.45977 0
      vertex 18.9717 3.91605 3
      vertex 18.9717 3.91605 0
    endloop
  endfacet
  facet normal -0.809023 0.587777 0
    outer loop
      vertex 18.9717 3.91605 3
      vertex 18.6402 3.45977 0
      vertex 18.6402 3.45977 3
    endloop
  endfacet
  facet normal -0.187379 0.982288 0
    outer loop
      vertex 17.6953 2.86012 0
      vertex 17.1413 2.75444 3
      vertex 17.6953 2.86012 3
    endloop
  endfacet
  facet normal -0.187379 0.982288 0
    outer loop
      vertex 17.1413 2.75444 3
      vertex 17.6953 2.86012 0
      vertex 17.1413 2.75444 0
    endloop
  endfacet
  facet normal 0.309022 -0.951055 0
    outer loop
      vertex 16.042 7.03586 0
      vertex 16.5784 7.21015 3
      vertex 16.042 7.03586 3
    endloop
  endfacet
  facet normal 0.309022 -0.951055 0
    outer loop
      vertex 16.5784 7.21015 3
      vertex 16.042 7.03586 0
      vertex 16.5784 7.21015 0
    endloop
  endfacet
  facet normal -0.6374 -0.770533 0
    outer loop
      vertex 18.2056 6.89974 0
      vertex 18.6402 6.54023 3
      vertex 18.2056 6.89974 3
    endloop
  endfacet
  facet normal -0.6374 -0.770533 -0
    outer loop
      vertex 18.6402 6.54023 3
      vertex 18.2056 6.89974 0
      vertex 18.6402 6.54023 0
    endloop
  endfacet
  facet normal -0.992112 -0.125355 0
    outer loop
      vertex 19.25 5 0
      vertex 19.1793 5.55955 3
      vertex 19.1793 5.55955 0
    endloop
  endfacet
  facet normal -0.992112 -0.125355 0
    outer loop
      vertex 19.1793 5.55955 3
      vertex 19.25 5 0
      vertex 19.25 5 3
    endloop
  endfacet
  facet normal 0.876315 0.481739 0
    outer loop
      vertex 15.1797 3.67748 3
      vertex 14.908 4.17172 0
      vertex 14.908 4.17172 3
    endloop
  endfacet
  facet normal 0.876315 0.481739 0
    outer loop
      vertex 14.908 4.17172 0
      vertex 15.1797 3.67748 3
      vertex 15.1797 3.67748 0
    endloop
  endfacet
  facet normal 0.0627823 0.998027 -0
    outer loop
      vertex 17.1413 2.75444 0
      vertex 16.5784 2.78985 3
      vertex 17.1413 2.75444 3
    endloop
  endfacet
  facet normal 0.0627823 0.998027 0
    outer loop
      vertex 16.5784 2.78985 3
      vertex 17.1413 2.75444 0
      vertex 16.5784 2.78985 0
    endloop
  endfacet
  facet normal -0.809023 -0.587777 0
    outer loop
      vertex 18.9717 6.08395 0
      vertex 18.6402 6.54023 3
      vertex 18.6402 6.54023 0
    endloop
  endfacet
  facet normal -0.809023 -0.587777 0
    outer loop
      vertex 18.6402 6.54023 3
      vertex 18.9717 6.08395 0
      vertex 18.9717 6.08395 3
    endloop
  endfacet
  facet normal 0.0627823 -0.998027 0
    outer loop
      vertex 16.5784 7.21015 0
      vertex 17.1413 7.24556 3
      vertex 16.5784 7.21015 3
    endloop
  endfacet
  facet normal 0.0627823 -0.998027 0
    outer loop
      vertex 17.1413 7.24556 3
      vertex 16.5784 7.21015 0
      vertex 17.1413 7.24556 0
    endloop
  endfacet
  facet normal 0.535832 -0.844324 0
    outer loop
      vertex 15.5658 6.73365 0
      vertex 16.042 7.03586 3
      vertex 15.5658 6.73365 3
    endloop
  endfacet
  facet normal 0.535832 -0.844324 0
    outer loop
      vertex 16.042 7.03586 3
      vertex 15.5658 6.73365 0
      vertex 16.042 7.03586 0
    endloop
  endfacet
  facet normal 0.309022 0.951055 -0
    outer loop
      vertex 16.5784 2.78985 0
      vertex 16.042 2.96414 3
      vertex 16.5784 2.78985 3
    endloop
  endfacet
  facet normal 0.309022 0.951055 0
    outer loop
      vertex 16.042 2.96414 3
      vertex 16.5784 2.78985 0
      vertex 16.042 2.96414 0
    endloop
  endfacet
  facet normal 0.728948 0.684569 0
    outer loop
      vertex 15.5658 3.26635 3
      vertex 15.1797 3.67748 0
      vertex 15.1797 3.67748 3
    endloop
  endfacet
  facet normal 0.728948 0.684569 0
    outer loop
      vertex 15.1797 3.67748 0
      vertex 15.5658 3.26635 3
      vertex 15.5658 3.26635 0
    endloop
  endfacet
  facet normal 0.728948 -0.684569 0
    outer loop
      vertex 15.1797 6.32252 3
      vertex 15.5658 6.73365 0
      vertex 15.5658 6.73365 3
    endloop
  endfacet
  facet normal 0.728948 -0.684569 0
    outer loop
      vertex 15.5658 6.73365 0
      vertex 15.1797 6.32252 3
      vertex 15.1797 6.32252 0
    endloop
  endfacet
  facet normal 0.968566 0.248755 0
    outer loop
      vertex 14.908 4.17172 3
      vertex 14.7677 4.718 0
      vertex 14.7677 4.718 3
    endloop
  endfacet
  facet normal 0.968566 0.248755 0
    outer loop
      vertex 14.7677 4.718 0
      vertex 14.908 4.17172 3
      vertex 14.908 4.17172 0
    endloop
  endfacet
  facet normal -0.929791 0.368087 0
    outer loop
      vertex 18.9717 3.91605 0
      vertex 19.1793 4.44045 3
      vertex 19.1793 4.44045 0
    endloop
  endfacet
  facet normal -0.929791 0.368087 0
    outer loop
      vertex 19.1793 4.44045 3
      vertex 18.9717 3.91605 0
      vertex 18.9717 3.91605 3
    endloop
  endfacet
  facet normal 0.535832 0.844324 -0
    outer loop
      vertex 16.042 2.96414 0
      vertex 15.5658 3.26635 3
      vertex 16.042 2.96414 3
    endloop
  endfacet
  facet normal 0.535832 0.844324 0
    outer loop
      vertex 15.5658 3.26635 3
      vertex 16.042 2.96414 0
      vertex 15.5658 3.26635 0
    endloop
  endfacet
  facet normal 0.876315 -0.481739 0
    outer loop
      vertex 14.908 5.82828 3
      vertex 15.1797 6.32252 0
      vertex 15.1797 6.32252 3
    endloop
  endfacet
  facet normal 0.876315 -0.481739 0
    outer loop
      vertex 15.1797 6.32252 0
      vertex 14.908 5.82828 3
      vertex 14.908 5.82828 0
    endloop
  endfacet
endsolid OpenSCAD_Model
