solid OpenSCAD_Model
  facet normal 1 -0 0
    outer loop
      vertex 34 0 5
      vertex 34 8 0
      vertex 34 8 5
    endloop
  endfacet
  facet normal 1 0 0
    outer loop
      vertex 34 8 0
      vertex 34 0 5
      vertex 34 0 0
    endloop
  endfacet
  facet normal 0 0 1
    outer loop
      vertex 34 8 5
      vertex 31.75 4 5
      vertex 34 0 5
    endloop
  endfacet
  facet normal 0 0 1
    outer loop
      vertex 34 8 5
      vertex 31.695 4.43521 5
      vertex 31.75 4 5
    endloop
  endfacet
  facet normal 0 0 1
    outer loop
      vertex 34 8 5
      vertex 31.5335 4.84307 5
      vertex 31.695 4.43521 5
    endloop
  endfacet
  facet normal 0 0 1
    outer loop
      vertex 34 8 5
      vertex 31.2757 5.19796 5
      vertex 31.5335 4.84307 5
    endloop
  endfacet
  facet normal 0 0 1
    outer loop
      vertex 34 8 5
      vertex 30.9377 5.47757 5
      vertex 31.2757 5.19796 5
    endloop
  endfacet
  facet normal 0 0 1
    outer loop
      vertex 34 8 5
      vertex 30.5408 5.66435 5
      vertex 30.9377 5.47757 5
    endloop
  endfacet
  facet normal 0 0 1
    outer loop
      vertex 34 8 5
      vertex 30.1099 5.74655 5
      vertex 30.5408 5.66435 5
    endloop
  endfacet
  facet normal 0 0 1
    outer loop
      vertex 34 8 5
      vertex 29.6721 5.719 5
      vertex 30.1099 5.74655 5
    endloop
  endfacet
  facet normal -0 0 1
    outer loop
      vertex 26.25 5.75 5
      vertex 29.6721 5.719 5
      vertex 34 8 5
    endloop
  endfacet
  facet normal 0 0 1
    outer loop
      vertex 28.2638 4.21933 5
      vertex 26.25 5.75 5
      vertex 28.2638 3.78067 5
    endloop
  endfacet
  facet normal 0 0 1
    outer loop
      vertex 28.3729 4.64422 5
      vertex 26.25 5.75 5
      vertex 28.2638 4.21933 5
    endloop
  endfacet
  facet normal 0 0 1
    outer loop
      vertex 28.5842 5.02862 5
      vertex 26.25 5.75 5
      vertex 28.3729 4.64422 5
    endloop
  endfacet
  facet normal 0 0 1
    outer loop
      vertex 28.8845 5.3484 5
      vertex 26.25 5.75 5
      vertex 28.5842 5.02862 5
    endloop
  endfacet
  facet normal 0 0 1
    outer loop
      vertex 29.2549 5.58345 5
      vertex 26.25 5.75 5
      vertex 28.8845 5.3484 5
    endloop
  endfacet
  facet normal 0 0 1
    outer loop
      vertex 29.6721 5.719 5
      vertex 26.25 5.75 5
      vertex 29.2549 5.58345 5
    endloop
  endfacet
  facet normal -0 0 1
    outer loop
      vertex 0 8 5
      vertex 26.25 5.75 5
      vertex 34 8 5
    endloop
  endfacet
  facet normal 0 0 1
    outer loop
      vertex 2.25 5.75 5
      vertex 0 8 5
      vertex 2.25 2.25 5
    endloop
  endfacet
  facet normal 0 0 1
    outer loop
      vertex 26.25 5.75 5
      vertex 0 8 5
      vertex 2.25 5.75 5
    endloop
  endfacet
  facet normal -0 0 1
    outer loop
      vertex 31.695 3.56479 5
      vertex 34 0 5
      vertex 31.75 4 5
    endloop
  endfacet
  facet normal -0 0 1
    outer loop
      vertex 31.5335 3.15693 5
      vertex 34 0 5
      vertex 31.695 3.56479 5
    endloop
  endfacet
  facet normal -0 0 1
    outer loop
      vertex 31.2757 2.80204 5
      vertex 34 0 5
      vertex 31.5335 3.15693 5
    endloop
  endfacet
  facet normal -0 0 1
    outer loop
      vertex 30.9377 2.52243 5
      vertex 34 0 5
      vertex 31.2757 2.80204 5
    endloop
  endfacet
  facet normal -0 0 1
    outer loop
      vertex 30.5408 2.33565 5
      vertex 34 0 5
      vertex 30.9377 2.52243 5
    endloop
  endfacet
  facet normal -0 0 1
    outer loop
      vertex 30.1099 2.25345 5
      vertex 34 0 5
      vertex 30.5408 2.33565 5
    endloop
  endfacet
  facet normal 0 0 1
    outer loop
      vertex 29.6721 2.281 5
      vertex 34 0 5
      vertex 30.1099 2.25345 5
    endloop
  endfacet
  facet normal 0 0 1
    outer loop
      vertex 26.25 2.25 5
      vertex 29.6721 2.281 5
      vertex 29.2549 2.41655 5
    endloop
  endfacet
  facet normal 0 0 1
    outer loop
      vertex 26.25 2.25 5
      vertex 28.2638 3.78067 5
      vertex 26.25 5.75 5
    endloop
  endfacet
  facet normal 0 0 1
    outer loop
      vertex 28.2638 3.78067 5
      vertex 26.25 2.25 5
      vertex 28.3729 3.35578 5
    endloop
  endfacet
  facet normal 0 0 1
    outer loop
      vertex 28.3729 3.35578 5
      vertex 26.25 2.25 5
      vertex 28.5842 2.97138 5
    endloop
  endfacet
  facet normal 0 0 1
    outer loop
      vertex 26.25 2.25 5
      vertex 28.8845 2.6516 5
      vertex 28.5842 2.97138 5
    endloop
  endfacet
  facet normal 0 0 1
    outer loop
      vertex 26.25 2.25 5
      vertex 29.2549 2.41655 5
      vertex 28.8845 2.6516 5
    endloop
  endfacet
  facet normal 0 0 1
    outer loop
      vertex 29.6721 2.281 5
      vertex 26.25 2.25 5
      vertex 34 0 5
    endloop
  endfacet
  facet normal 0 0 1
    outer loop
      vertex 0 0 5
      vertex 26.25 2.25 5
      vertex 2.25 2.25 5
    endloop
  endfacet
  facet normal 0 0 1
    outer loop
      vertex 26.25 2.25 5
      vertex 0 0 5
      vertex 34 0 5
    endloop
  endfacet
  facet normal 0 0 1
    outer loop
      vertex 0 0 5
      vertex 2.25 2.25 5
      vertex 0 8 5
    endloop
  endfacet
  facet normal 0 0 -1
    outer loop
      vertex 34 0 0
      vertex 31.75 4 0
      vertex 34 8 0
    endloop
  endfacet
  facet normal 0 0 -1
    outer loop
      vertex 34 0 0
      vertex 31.695 3.56479 0
      vertex 31.75 4 0
    endloop
  endfacet
  facet normal 0 0 -1
    outer loop
      vertex 34 0 0
      vertex 31.5335 3.15693 0
      vertex 31.695 3.56479 0
    endloop
  endfacet
  facet normal 0 0 -1
    outer loop
      vertex 34 0 0
      vertex 31.2757 2.80204 0
      vertex 31.5335 3.15693 0
    endloop
  endfacet
  facet normal 0 0 -1
    outer loop
      vertex 34 0 0
      vertex 30.9377 2.52243 0
      vertex 31.2757 2.80204 0
    endloop
  endfacet
  facet normal 0 0 -1
    outer loop
      vertex 34 0 0
      vertex 30.5408 2.33565 0
      vertex 30.9377 2.52243 0
    endloop
  endfacet
  facet normal 0 0 -1
    outer loop
      vertex 34 0 0
      vertex 30.1099 2.25345 0
      vertex 30.5408 2.33565 0
    endloop
  endfacet
  facet normal 0 0 -1
    outer loop
      vertex 34 0 0
      vertex 29.6721 2.281 0
      vertex 30.1099 2.25345 0
    endloop
  endfacet
  facet normal 0 0 -1
    outer loop
      vertex 26.25 2.25 0
      vertex 29.6721 2.281 0
      vertex 34 0 0
    endloop
  endfacet
  facet normal -0 0 -1
    outer loop
      vertex 28.2638 3.78067 0
      vertex 26.25 2.25 0
      vertex 28.2638 4.21933 0
    endloop
  endfacet
  facet normal -0 0 -1
    outer loop
      vertex 28.3729 3.35578 0
      vertex 26.25 2.25 0
      vertex 28.2638 3.78067 0
    endloop
  endfacet
  facet normal -0 0 -1
    outer loop
      vertex 28.5842 2.97138 0
      vertex 26.25 2.25 0
      vertex 28.3729 3.35578 0
    endloop
  endfacet
  facet normal -0 0 -1
    outer loop
      vertex 28.8845 2.6516 0
      vertex 26.25 2.25 0
      vertex 28.5842 2.97138 0
    endloop
  endfacet
  facet normal -0 0 -1
    outer loop
      vertex 29.2549 2.41655 0
      vertex 26.25 2.25 0
      vertex 28.8845 2.6516 0
    endloop
  endfacet
  facet normal -0 0 -1
    outer loop
      vertex 29.6721 2.281 0
      vertex 26.25 2.25 0
      vertex 29.2549 2.41655 0
    endloop
  endfacet
  facet normal 0 0 -1
    outer loop
      vertex 0 0 0
      vertex 26.25 2.25 0
      vertex 34 0 0
    endloop
  endfacet
  facet normal -0 0 -1
    outer loop
      vertex 2.25 2.25 0
      vertex 0 0 0
      vertex 2.25 5.75 0
    endloop
  endfacet
  facet normal -0 0 -1
    outer loop
      vertex 26.25 2.25 0
      vertex 0 0 0
      vertex 2.25 2.25 0
    endloop
  endfacet
  facet normal 0 0 -1
    outer loop
      vertex 31.695 4.43521 0
      vertex 34 8 0
      vertex 31.75 4 0
    endloop
  endfacet
  facet normal 0 0 -1
    outer loop
      vertex 31.5335 4.84307 0
      vertex 34 8 0
      vertex 31.695 4.43521 0
    endloop
  endfacet
  facet normal 0 0 -1
    outer loop
      vertex 31.2757 5.19796 0
      vertex 34 8 0
      vertex 31.5335 4.84307 0
    endloop
  endfacet
  facet normal 0 0 -1
    outer loop
      vertex 30.9377 5.47757 0
      vertex 34 8 0
      vertex 31.2757 5.19796 0
    endloop
  endfacet
  facet normal 0 0 -1
    outer loop
      vertex 30.5408 5.66435 0
      vertex 34 8 0
      vertex 30.9377 5.47757 0
    endloop
  endfacet
  facet normal 0 0 -1
    outer loop
      vertex 30.1099 5.74655 0
      vertex 34 8 0
      vertex 30.5408 5.66435 0
    endloop
  endfacet
  facet normal 0 0 -1
    outer loop
      vertex 29.6721 5.719 0
      vertex 34 8 0
      vertex 30.1099 5.74655 0
    endloop
  endfacet
  facet normal 0 0 -1
    outer loop
      vertex 26.25 5.75 0
      vertex 29.6721 5.719 0
      vertex 29.2549 5.58345 0
    endloop
  endfacet
  facet normal 0 0 -1
    outer loop
      vertex 26.25 5.75 0
      vertex 28.2638 4.21933 0
      vertex 26.25 2.25 0
    endloop
  endfacet
  facet normal 0 0 -1
    outer loop
      vertex 28.2638 4.21933 0
      vertex 26.25 5.75 0
      vertex 28.3729 4.64422 0
    endloop
  endfacet
  facet normal 0 0 -1
    outer loop
      vertex 28.3729 4.64422 0
      vertex 26.25 5.75 0
      vertex 28.5842 5.02862 0
    endloop
  endfacet
  facet normal 0 0 -1
    outer loop
      vertex 26.25 5.75 0
      vertex 28.8845 5.3484 0
      vertex 28.5842 5.02862 0
    endloop
  endfacet
  facet normal 0 0 -1
    outer loop
      vertex 26.25 5.75 0
      vertex 29.2549 5.58345 0
      vertex 28.8845 5.3484 0
    endloop
  endfacet
  facet normal 0 0 -1
    outer loop
      vertex 29.6721 5.719 0
      vertex 26.25 5.75 0
      vertex 34 8 0
    endloop
  endfacet
  facet normal 0 0 -1
    outer loop
      vertex 0 8 0
      vertex 26.25 5.75 0
      vertex 2.25 5.75 0
    endloop
  endfacet
  facet normal 0 0 -1
    outer loop
      vertex 26.25 5.75 0
      vertex 0 8 0
      vertex 34 8 0
    endloop
  endfacet
  facet normal 0 0 -1
    outer loop
      vertex 0 8 0
      vertex 2.25 5.75 0
      vertex 0 0 0
    endloop
  endfacet
  facet normal -1 0 0
    outer loop
      vertex 0 0 0
      vertex 0 8 5
      vertex 0 8 0
    endloop
  endfacet
  facet normal -1 -0 0
    outer loop
      vertex 0 8 5
      vertex 0 0 0
      vertex 0 0 5
    endloop
  endfacet
  facet normal 0 1 -0
    outer loop
      vertex 34 8 0
      vertex 0 8 5
      vertex 34 8 5
    endloop
  endfacet
  facet normal 0 1 0
    outer loop
      vertex 0 8 5
      vertex 34 8 0
      vertex 0 8 0
    endloop
  endfacet
  facet normal 0 -1 0
    outer loop
      vertex 5 0 4
      vertex 0 0 5
      vertex 4 0 4
    endloop
  endfacet
  facet normal 0 -1 0
    outer loop
      vertex 0 0 5
      vertex 4 0 1
      vertex 4 0 4
    endloop
  endfacet
  facet normal 0 -1 -0
    outer loop
      vertex 4 0 1
      vertex 0 0 0
      vertex 5 0 1
    endloop
  endfacet
  facet normal 0 -1 0
    outer loop
      vertex 0 0 0
      vertex 4 0 1
      vertex 0 0 5
    endloop
  endfacet
  facet normal 0 -1 0
    outer loop
      vertex 0 0 5
      vertex 5 0 4
      vertex 34 0 5
    endloop
  endfacet
  facet normal 0 -1 0
    outer loop
      vertex 5 0 1
      vertex 34 0 5
      vertex 5 0 4
    endloop
  endfacet
  facet normal 0 -1 0
    outer loop
      vertex 34 0 0
      vertex 5 0 1
      vertex 0 0 0
    endloop
  endfacet
  facet normal 0 -1 0
    outer loop
      vertex 5 0 1
      vertex 34 0 0
      vertex 34 0 5
    endloop
  endfacet
  facet normal -1 0 0
    outer loop
      vertex 26.25 2.25 0
      vertex 26.25 5.75 5
      vertex 26.25 5.75 0
    endloop
  endfacet
  facet normal -1 -0 0
    outer loop
      vertex 26.25 5.75 5
      vertex 26.25 2.25 0
      vertex 26.25 2.25 5
    endloop
  endfacet
  facet normal 1 -0 0
    outer loop
      vertex 2.25 2.25 5
      vertex 2.25 5.75 0
      vertex 2.25 5.75 5
    endloop
  endfacet
  facet normal 1 0 0
    outer loop
      vertex 2.25 5.75 0
      vertex 2.25 2.25 5
      vertex 2.25 2.25 0
    endloop
  endfacet
  facet normal 0 -1 0
    outer loop
      vertex 2.25 5.75 0
      vertex 26.25 5.75 5
      vertex 2.25 5.75 5
    endloop
  endfacet
  facet normal 0 -1 -0
    outer loop
      vertex 26.25 5.75 5
      vertex 2.25 5.75 0
      vertex 26.25 5.75 0
    endloop
  endfacet
  facet normal 0 1 0
    outer loop
      vertex 26.25 2.25 5
      vertex 5 2.25 4
      vertex 2.25 2.25 5
    endloop
  endfacet
  facet normal 0 1 0
    outer loop
      vertex 26.25 2.25 5
      vertex 5 2.25 1
      vertex 5 2.25 4
    endloop
  endfacet
  facet normal 0 1 0
    outer loop
      vertex 2.25 2.25 0
      vertex 5 2.25 1
      vertex 26.25 2.25 0
    endloop
  endfacet
  facet normal 0 1 -0
    outer loop
      vertex 26.25 2.25 0
      vertex 5 2.25 1
      vertex 26.25 2.25 5
    endloop
  endfacet
  facet normal 0 1 -0
    outer loop
      vertex 4 2.25 4
      vertex 2.25 2.25 5
      vertex 5 2.25 4
    endloop
  endfacet
  facet normal 0 1 -0
    outer loop
      vertex 4 2.25 1
      vertex 2.25 2.25 5
      vertex 4 2.25 4
    endloop
  endfacet
  facet normal 0 1 0
    outer loop
      vertex 4 2.25 1
      vertex 2.25 2.25 0
      vertex 2.25 2.25 5
    endloop
  endfacet
  facet normal 0 1 0
    outer loop
      vertex 5 2.25 1
      vertex 2.25 2.25 0
      vertex 4 2.25 1
    endloop
  endfacet
  facet normal 0.968579 -0.248704 0
    outer loop
      vertex 28.2638 4.21933 5
      vertex 28.3729 4.64422 0
      vertex 28.3729 4.64422 5
    endloop
  endfacet
  facet normal 0.968579 -0.248704 0
    outer loop
      vertex 28.3729 4.64422 0
      vertex 28.2638 4.21933 5
      vertex 28.2638 4.21933 0
    endloop
  endfacet
  facet normal -0.929763 -0.368158 0
    outer loop
      vertex 31.695 4.43521 0
      vertex 31.5335 4.84307 5
      vertex 31.5335 4.84307 0
    endloop
  endfacet
  facet normal -0.929763 -0.368158 0
    outer loop
      vertex 31.5335 4.84307 5
      vertex 31.695 4.43521 0
      vertex 31.695 4.43521 5
    endloop
  endfacet
  facet normal -0.992109 -0.125379 0
    outer loop
      vertex 31.75 4 0
      vertex 31.695 4.43521 5
      vertex 31.695 4.43521 0
    endloop
  endfacet
  facet normal -0.992109 -0.125379 0
    outer loop
      vertex 31.695 4.43521 5
      vertex 31.75 4 0
      vertex 31.75 4 5
    endloop
  endfacet
  facet normal -0.809063 -0.587722 0
    outer loop
      vertex 31.5335 4.84307 0
      vertex 31.2757 5.19796 5
      vertex 31.2757 5.19796 0
    endloop
  endfacet
  facet normal -0.809063 -0.587722 0
    outer loop
      vertex 31.2757 5.19796 5
      vertex 31.5335 4.84307 0
      vertex 31.5335 4.84307 5
    endloop
  endfacet
  facet normal 0.535806 -0.844341 0
    outer loop
      vertex 28.8845 5.3484 0
      vertex 29.2549 5.58345 5
      vertex 28.8845 5.3484 5
    endloop
  endfacet
  facet normal 0.535806 -0.844341 0
    outer loop
      vertex 29.2549 5.58345 5
      vertex 28.8845 5.3484 0
      vertex 29.2549 5.58345 0
    endloop
  endfacet
  facet normal 0.062804 -0.998026 0
    outer loop
      vertex 29.6721 5.719 0
      vertex 30.1099 5.74655 5
      vertex 29.6721 5.719 5
    endloop
  endfacet
  facet normal 0.062804 -0.998026 0
    outer loop
      vertex 30.1099 5.74655 5
      vertex 29.6721 5.719 0
      vertex 30.1099 5.74655 0
    endloop
  endfacet
  facet normal 0.728961 -0.684555 0
    outer loop
      vertex 28.5842 5.02862 5
      vertex 28.8845 5.3484 0
      vertex 28.8845 5.3484 5
    endloop
  endfacet
  facet normal 0.728961 -0.684555 0
    outer loop
      vertex 28.8845 5.3484 0
      vertex 28.5842 5.02862 5
      vertex 28.5842 5.02862 0
    endloop
  endfacet
  facet normal 0.876331 -0.481709 0
    outer loop
      vertex 28.3729 4.64422 5
      vertex 28.5842 5.02862 0
      vertex 28.5842 5.02862 5
    endloop
  endfacet
  facet normal 0.876331 -0.481709 0
    outer loop
      vertex 28.5842 5.02862 0
      vertex 28.3729 4.64422 5
      vertex 28.3729 4.64422 0
    endloop
  endfacet
  facet normal 0.876331 0.481709 0
    outer loop
      vertex 28.5842 2.97138 5
      vertex 28.3729 3.35578 0
      vertex 28.3729 3.35578 5
    endloop
  endfacet
  facet normal 0.876331 0.481709 0
    outer loop
      vertex 28.3729 3.35578 0
      vertex 28.5842 2.97138 5
      vertex 28.5842 2.97138 0
    endloop
  endfacet
  facet normal -0.637413 -0.770522 0
    outer loop
      vertex 30.9377 5.47757 0
      vertex 31.2757 5.19796 5
      vertex 30.9377 5.47757 5
    endloop
  endfacet
  facet normal -0.637413 -0.770522 -0
    outer loop
      vertex 31.2757 5.19796 5
      vertex 30.9377 5.47757 0
      vertex 31.2757 5.19796 0
    endloop
  endfacet
  facet normal 0.062804 0.998026 -0
    outer loop
      vertex 30.1099 2.25345 0
      vertex 29.6721 2.281 5
      vertex 30.1099 2.25345 5
    endloop
  endfacet
  facet normal 0.062804 0.998026 0
    outer loop
      vertex 29.6721 2.281 5
      vertex 30.1099 2.25345 0
      vertex 29.6721 2.281 0
    endloop
  endfacet
  facet normal -0.187384 0.982287 0
    outer loop
      vertex 30.5408 2.33565 0
      vertex 30.1099 2.25345 5
      vertex 30.5408 2.33565 5
    endloop
  endfacet
  facet normal -0.187384 0.982287 0
    outer loop
      vertex 30.1099 2.25345 5
      vertex 30.5408 2.33565 0
      vertex 30.1099 2.25345 0
    endloop
  endfacet
  facet normal -0.425804 -0.904816 0
    outer loop
      vertex 30.5408 5.66435 0
      vertex 30.9377 5.47757 5
      vertex 30.5408 5.66435 5
    endloop
  endfacet
  facet normal -0.425804 -0.904816 -0
    outer loop
      vertex 30.9377 5.47757 5
      vertex 30.5408 5.66435 0
      vertex 30.9377 5.47757 0
    endloop
  endfacet
  facet normal -0.992109 0.125379 0
    outer loop
      vertex 31.695 3.56479 0
      vertex 31.75 4 5
      vertex 31.75 4 0
    endloop
  endfacet
  facet normal -0.992109 0.125379 0
    outer loop
      vertex 31.75 4 5
      vertex 31.695 3.56479 0
      vertex 31.695 3.56479 5
    endloop
  endfacet
  facet normal -0.809063 0.587722 0
    outer loop
      vertex 31.2757 2.80204 0
      vertex 31.5335 3.15693 5
      vertex 31.5335 3.15693 0
    endloop
  endfacet
  facet normal -0.809063 0.587722 0
    outer loop
      vertex 31.5335 3.15693 5
      vertex 31.2757 2.80204 0
      vertex 31.2757 2.80204 5
    endloop
  endfacet
  facet normal 1 -0 0
    outer loop
      vertex 28.2638 3.78067 5
      vertex 28.2638 4.21933 0
      vertex 28.2638 4.21933 5
    endloop
  endfacet
  facet normal 1 0 0
    outer loop
      vertex 28.2638 4.21933 0
      vertex 28.2638 3.78067 5
      vertex 28.2638 3.78067 0
    endloop
  endfacet
  facet normal -0.637413 0.770522 0
    outer loop
      vertex 31.2757 2.80204 0
      vertex 30.9377 2.52243 5
      vertex 31.2757 2.80204 5
    endloop
  endfacet
  facet normal -0.637413 0.770522 0
    outer loop
      vertex 30.9377 2.52243 5
      vertex 31.2757 2.80204 0
      vertex 30.9377 2.52243 0
    endloop
  endfacet
  facet normal -0.425804 0.904816 0
    outer loop
      vertex 30.9377 2.52243 0
      vertex 30.5408 2.33565 5
      vertex 30.9377 2.52243 5
    endloop
  endfacet
  facet normal -0.425804 0.904816 0
    outer loop
      vertex 30.5408 2.33565 5
      vertex 30.9377 2.52243 0
      vertex 30.5408 2.33565 0
    endloop
  endfacet
  facet normal 0.535806 0.844341 -0
    outer loop
      vertex 29.2549 2.41655 0
      vertex 28.8845 2.6516 5
      vertex 29.2549 2.41655 5
    endloop
  endfacet
  facet normal 0.535806 0.844341 0
    outer loop
      vertex 28.8845 2.6516 5
      vertex 29.2549 2.41655 0
      vertex 28.8845 2.6516 0
    endloop
  endfacet
  facet normal -0.929763 0.368158 0
    outer loop
      vertex 31.5335 3.15693 0
      vertex 31.695 3.56479 5
      vertex 31.695 3.56479 0
    endloop
  endfacet
  facet normal -0.929763 0.368158 0
    outer loop
      vertex 31.695 3.56479 5
      vertex 31.5335 3.15693 0
      vertex 31.5335 3.15693 5
    endloop
  endfacet
  facet normal 0.309004 0.951061 -0
    outer loop
      vertex 29.6721 2.281 0
      vertex 29.2549 2.41655 5
      vertex 29.6721 2.281 5
    endloop
  endfacet
  facet normal 0.309004 0.951061 0
    outer loop
      vertex 29.2549 2.41655 5
      vertex 29.6721 2.281 0
      vertex 29.2549 2.41655 0
    endloop
  endfacet
  facet normal 0.309004 -0.951061 0
    outer loop
      vertex 29.2549 5.58345 0
      vertex 29.6721 5.719 5
      vertex 29.2549 5.58345 5
    endloop
  endfacet
  facet normal 0.309004 -0.951061 0
    outer loop
      vertex 29.6721 5.719 5
      vertex 29.2549 5.58345 0
      vertex 29.6721 5.719 0
    endloop
  endfacet
  facet normal -0.187384 -0.982287 0
    outer loop
      vertex 30.1099 5.74655 0
      vertex 30.5408 5.66435 5
      vertex 30.1099 5.74655 5
    endloop
  endfacet
  facet normal -0.187384 -0.982287 -0
    outer loop
      vertex 30.5408 5.66435 5
      vertex 30.1099 5.74655 0
      vertex 30.5408 5.66435 0
    endloop
  endfacet
  facet normal 0.968579 0.248704 0
    outer loop
      vertex 28.3729 3.35578 5
      vertex 28.2638 3.78067 0
      vertex 28.2638 3.78067 5
    endloop
  endfacet
  facet normal 0.968579 0.248704 0
    outer loop
      vertex 28.2638 3.78067 0
      vertex 28.3729 3.35578 5
      vertex 28.3729 3.35578 0
    endloop
  endfacet
  facet normal 0.728961 0.684555 0
    outer loop
      vertex 28.8845 2.6516 5
      vertex 28.5842 2.97138 0
      vertex 28.5842 2.97138 5
    endloop
  endfacet
  facet normal 0.728961 0.684555 0
    outer loop
      vertex 28.5842 2.97138 0
      vertex 28.8845 2.6516 5
      vertex 28.8845 2.6516 0
    endloop
  endfacet
  facet normal -1 0 0
    outer loop
      vertex 5 0 1
      vertex 5 2.25 4
      vertex 5 2.25 1
    endloop
  endfacet
  facet normal -1 -0 0
    outer loop
      vertex 5 2.25 4
      vertex 5 0 1
      vertex 5 0 4
    endloop
  endfacet
  facet normal 0 0 -1
    outer loop
      vertex 4 0 4
      vertex 5 2.25 4
      vertex 5 0 4
    endloop
  endfacet
  facet normal -0 0 -1
    outer loop
      vertex 5 2.25 4
      vertex 4 0 4
      vertex 4 2.25 4
    endloop
  endfacet
  facet normal -0 0 1
    outer loop
      vertex 4 2.25 1
      vertex 5 0 1
      vertex 5 2.25 1
    endloop
  endfacet
  facet normal 0 0 1
    outer loop
      vertex 5 0 1
      vertex 4 2.25 1
      vertex 4 0 1
    endloop
  endfacet
  facet normal 1 -0 0
    outer loop
      vertex 4 0 4
      vertex 4 2.25 1
      vertex 4 2.25 4
    endloop
  endfacet
  facet normal 1 0 0
    outer loop
      vertex 4 2.25 1
      vertex 4 0 4
      vertex 4 0 1
    endloop
  endfacet
endsolid OpenSCAD_Model
