solid OpenSCAD_Model
  facet normal 1 -0 0
    outer loop
      vertex 20 -14.2 25
      vertex 20 -8.2 0
      vertex 20 -8.2 25
    endloop
  endfacet
  facet normal 1 0 0
    outer loop
      vertex 20 -8.2 0
      vertex 20 -14.2 25
      vertex 20 -14.2 0
    endloop
  endfacet
  facet normal 0 0 1
    outer loop
      vertex 5.17477 -8.60107 25
      vertex 20 -8.2 25
      vertex 5.2 -8.2 25
    endloop
  endfacet
  facet normal 0 0 1
    outer loop
      vertex 5.09947 -8.99581 25
      vertex 20 -8.2 25
      vertex 5.17477 -8.60107 25
    endloop
  endfacet
  facet normal 0 0 1
    outer loop
      vertex 20 -8.2 25
      vertex 5.09947 -8.99581 25
      vertex 20 -14.2 25
    endloop
  endfacet
  facet normal -0 0 1
    outer loop
      vertex 4.97528 -9.378 25
      vertex 20 -14.2 25
      vertex 5.09947 -8.99581 25
    endloop
  endfacet
  facet normal -0 0 1
    outer loop
      vertex 4.80418 -9.74161 25
      vertex 20 -14.2 25
      vertex 4.97528 -9.378 25
    endloop
  endfacet
  facet normal -0 0 1
    outer loop
      vertex 4.58885 -10.0809 25
      vertex 20 -14.2 25
      vertex 4.80418 -9.74161 25
    endloop
  endfacet
  facet normal -0 0 1
    outer loop
      vertex 4.3327 -10.3906 25
      vertex 20 -14.2 25
      vertex 4.58885 -10.0809 25
    endloop
  endfacet
  facet normal -0 0 1
    outer loop
      vertex 4.03976 -10.6656 25
      vertex 20 -14.2 25
      vertex 4.3327 -10.3906 25
    endloop
  endfacet
  facet normal -0 0 1
    outer loop
      vertex 3.71465 -10.9018 25
      vertex 20 -14.2 25
      vertex 4.03976 -10.6656 25
    endloop
  endfacet
  facet normal -0 0 1
    outer loop
      vertex 3.36249 -11.0954 25
      vertex 20 -14.2 25
      vertex 3.71465 -10.9018 25
    endloop
  endfacet
  facet normal -0 0 1
    outer loop
      vertex 2.98885 -11.2434 25
      vertex 20 -14.2 25
      vertex 3.36249 -11.0954 25
    endloop
  endfacet
  facet normal -0 0 1
    outer loop
      vertex 2.59962 -11.3433 25
      vertex 20 -14.2 25
      vertex 2.98885 -11.2434 25
    endloop
  endfacet
  facet normal -0 0 1
    outer loop
      vertex 2.20093 -11.3937 25
      vertex 20 -14.2 25
      vertex 2.59962 -11.3433 25
    endloop
  endfacet
  facet normal 0 0 1
    outer loop
      vertex -10 -14.2 25
      vertex 2.20093 -11.3937 25
      vertex 1.79907 -11.3937 25
    endloop
  endfacet
  facet normal 0 0 1
    outer loop
      vertex -10 -14.2 25
      vertex 1.79907 -11.3937 25
      vertex 1.40038 -11.3433 25
    endloop
  endfacet
  facet normal -0 0 1
    outer loop
      vertex -10 -8.2 25
      vertex -1.17477 -8.60107 25
      vertex -1.2 -8.2 25
    endloop
  endfacet
  facet normal 0 0 1
    outer loop
      vertex -10 -8.2 25
      vertex -1.09947 -8.99581 25
      vertex -1.17477 -8.60107 25
    endloop
  endfacet
  facet normal 0 0 1
    outer loop
      vertex -10 -8.2 25
      vertex -0.975286 -9.378 25
      vertex -1.09947 -8.99581 25
    endloop
  endfacet
  facet normal 0 0 1
    outer loop
      vertex -10 -14.2 25
      vertex -0.975286 -9.378 25
      vertex -10 -8.2 25
    endloop
  endfacet
  facet normal 0 0 1
    outer loop
      vertex -0.975286 -9.378 25
      vertex -10 -14.2 25
      vertex -0.804182 -9.74161 25
    endloop
  endfacet
  facet normal 0 0 1
    outer loop
      vertex -0.804182 -9.74161 25
      vertex -10 -14.2 25
      vertex -0.588855 -10.0809 25
    endloop
  endfacet
  facet normal 0 0 1
    outer loop
      vertex -0.588855 -10.0809 25
      vertex -10 -14.2 25
      vertex -0.3327 -10.3906 25
    endloop
  endfacet
  facet normal 0 0 1
    outer loop
      vertex -0.3327 -10.3906 25
      vertex -10 -14.2 25
      vertex -0.0397568 -10.6656 25
    endloop
  endfacet
  facet normal 0 0 1
    outer loop
      vertex -0.0397568 -10.6656 25
      vertex -10 -14.2 25
      vertex 0.285354 -10.9018 25
    endloop
  endfacet
  facet normal 0 0 1
    outer loop
      vertex 0.285354 -10.9018 25
      vertex -10 -14.2 25
      vertex 0.637506 -11.0954 25
    endloop
  endfacet
  facet normal 0 0 1
    outer loop
      vertex 2.20093 -11.3937 25
      vertex -10 -14.2 25
      vertex 20 -14.2 25
    endloop
  endfacet
  facet normal 0 0 1
    outer loop
      vertex 1.01115 -11.2434 25
      vertex -10 -14.2 25
      vertex 1.40038 -11.3433 25
    endloop
  endfacet
  facet normal 0 0 1
    outer loop
      vertex 0.637506 -11.0954 25
      vertex -10 -14.2 25
      vertex 1.01115 -11.2434 25
    endloop
  endfacet
  facet normal 0 0 -1
    outer loop
      vertex 5.09947 -8.99581 0
      vertex 20 -8.2 0
      vertex 20 -14.2 0
    endloop
  endfacet
  facet normal -0 0 -1
    outer loop
      vertex 20 -8.2 0
      vertex 5.17477 -8.60107 0
      vertex 5.2 -8.2 0
    endloop
  endfacet
  facet normal 0 0 -1
    outer loop
      vertex 20 -8.2 0
      vertex 5.09947 -8.99581 0
      vertex 5.17477 -8.60107 0
    endloop
  endfacet
  facet normal 0 0 -1
    outer loop
      vertex 20 -14.2 0
      vertex 4.97528 -9.378 0
      vertex 5.09947 -8.99581 0
    endloop
  endfacet
  facet normal 0 0 -1
    outer loop
      vertex 20 -14.2 0
      vertex 4.80418 -9.74161 0
      vertex 4.97528 -9.378 0
    endloop
  endfacet
  facet normal 0 0 -1
    outer loop
      vertex 20 -14.2 0
      vertex 4.58885 -10.0809 0
      vertex 4.80418 -9.74161 0
    endloop
  endfacet
  facet normal 0 0 -1
    outer loop
      vertex 20 -14.2 0
      vertex 4.3327 -10.3906 0
      vertex 4.58885 -10.0809 0
    endloop
  endfacet
  facet normal 0 0 -1
    outer loop
      vertex 20 -14.2 0
      vertex 4.03976 -10.6656 0
      vertex 4.3327 -10.3906 0
    endloop
  endfacet
  facet normal 0 0 -1
    outer loop
      vertex 20 -14.2 0
      vertex 3.71465 -10.9018 0
      vertex 4.03976 -10.6656 0
    endloop
  endfacet
  facet normal 0 0 -1
    outer loop
      vertex 20 -14.2 0
      vertex 3.36249 -11.0954 0
      vertex 3.71465 -10.9018 0
    endloop
  endfacet
  facet normal 0 0 -1
    outer loop
      vertex 20 -14.2 0
      vertex 2.98885 -11.2434 0
      vertex 3.36249 -11.0954 0
    endloop
  endfacet
  facet normal 0 0 -1
    outer loop
      vertex 20 -14.2 0
      vertex 2.59962 -11.3433 0
      vertex 2.98885 -11.2434 0
    endloop
  endfacet
  facet normal 0 0 -1
    outer loop
      vertex 20 -14.2 0
      vertex 2.20093 -11.3937 0
      vertex 2.59962 -11.3433 0
    endloop
  endfacet
  facet normal 0 0 -1
    outer loop
      vertex -10 -14.2 0
      vertex 2.20093 -11.3937 0
      vertex 20 -14.2 0
    endloop
  endfacet
  facet normal -0 0 -1
    outer loop
      vertex 2.20093 -11.3937 0
      vertex -10 -14.2 0
      vertex 1.79907 -11.3937 0
    endloop
  endfacet
  facet normal -0 0 -1
    outer loop
      vertex 1.79907 -11.3937 0
      vertex -10 -14.2 0
      vertex 1.40038 -11.3433 0
    endloop
  endfacet
  facet normal 0 0 -1
    outer loop
      vertex -10 -14.2 0
      vertex 1.01115 -11.2434 0
      vertex 1.40038 -11.3433 0
    endloop
  endfacet
  facet normal 0 0 -1
    outer loop
      vertex -10 -14.2 0
      vertex 0.637506 -11.0954 0
      vertex 1.01115 -11.2434 0
    endloop
  endfacet
  facet normal 0 0 -1
    outer loop
      vertex -10 -14.2 0
      vertex 0.285354 -10.9018 0
      vertex 0.637506 -11.0954 0
    endloop
  endfacet
  facet normal 0 0 -1
    outer loop
      vertex -10 -14.2 0
      vertex -0.0397568 -10.6656 0
      vertex 0.285354 -10.9018 0
    endloop
  endfacet
  facet normal 0 0 -1
    outer loop
      vertex -10 -14.2 0
      vertex -0.3327 -10.3906 0
      vertex -0.0397568 -10.6656 0
    endloop
  endfacet
  facet normal 0 0 -1
    outer loop
      vertex -10 -14.2 0
      vertex -0.588855 -10.0809 0
      vertex -0.3327 -10.3906 0
    endloop
  endfacet
  facet normal 0 0 -1
    outer loop
      vertex -10 -14.2 0
      vertex -0.804182 -9.74161 0
      vertex -0.588855 -10.0809 0
    endloop
  endfacet
  facet normal 0 0 -1
    outer loop
      vertex -10 -14.2 0
      vertex -0.975286 -9.378 0
      vertex -0.804182 -9.74161 0
    endloop
  endfacet
  facet normal 0 0 -1
    outer loop
      vertex -10 -8.2 0
      vertex -0.975286 -9.378 0
      vertex -10 -14.2 0
    endloop
  endfacet
  facet normal 0 0 -1
    outer loop
      vertex -0.975286 -9.378 0
      vertex -10 -8.2 0
      vertex -1.09947 -8.99581 0
    endloop
  endfacet
  facet normal 0 0 -1
    outer loop
      vertex -1.09947 -8.99581 0
      vertex -10 -8.2 0
      vertex -1.17477 -8.60107 0
    endloop
  endfacet
  facet normal 0 0 -1
    outer loop
      vertex -1.17477 -8.60107 0
      vertex -10 -8.2 0
      vertex -1.2 -8.2 0
    endloop
  endfacet
  facet normal -1 0 0
    outer loop
      vertex -10 -14.2 0
      vertex -10 -8.2 25
      vertex -10 -8.2 0
    endloop
  endfacet
  facet normal -1 -0 0
    outer loop
      vertex -10 -8.2 25
      vertex -10 -14.2 0
      vertex -10 -14.2 25
    endloop
  endfacet
  facet normal 0 1 0
    outer loop
      vertex -5.42161 -8.2 17.2101
      vertex -1.2 -8.2 25
      vertex -4.85872 -8.2 17.2456
    endloop
  endfacet
  facet normal 0 1 0
    outer loop
      vertex -1.2 -8.2 25
      vertex -4.30471 -8.2 17.1399
      vertex -4.85872 -8.2 17.2456
    endloop
  endfacet
  facet normal 0 1 0
    outer loop
      vertex -1.2 -8.2 25
      vertex -3.79439 -8.2 16.8997
      vertex -4.30471 -8.2 17.1399
    endloop
  endfacet
  facet normal 0 1 0
    outer loop
      vertex -1.2 -8.2 25
      vertex -3.35982 -8.2 16.5402
      vertex -3.79439 -8.2 16.8997
    endloop
  endfacet
  facet normal 0 1 0
    outer loop
      vertex -1.2 -8.2 25
      vertex -3.02831 -8.2 16.0839
      vertex -3.35982 -8.2 16.5402
    endloop
  endfacet
  facet normal 0 1 0
    outer loop
      vertex -1.2 -8.2 25
      vertex -2.82069 -8.2 15.5596
      vertex -3.02831 -8.2 16.0839
    endloop
  endfacet
  facet normal 0 1 0
    outer loop
      vertex -1.2 -8.2 25
      vertex -2.75 -8.2 15
      vertex -2.82069 -8.2 15.5596
    endloop
  endfacet
  facet normal 0 1 -0
    outer loop
      vertex -1.2 -8.2 0
      vertex -2.75 -8.2 15
      vertex -1.2 -8.2 25
    endloop
  endfacet
  facet normal 0 1 0
    outer loop
      vertex -4.30471 -8.2 12.8601
      vertex -1.2 -8.2 0
      vertex -4.85872 -8.2 12.7544
    endloop
  endfacet
  facet normal 0 1 0
    outer loop
      vertex -3.79439 -8.2 13.1003
      vertex -1.2 -8.2 0
      vertex -4.30471 -8.2 12.8601
    endloop
  endfacet
  facet normal 0 1 0
    outer loop
      vertex -3.35982 -8.2 13.4598
      vertex -1.2 -8.2 0
      vertex -3.79439 -8.2 13.1003
    endloop
  endfacet
  facet normal 0 1 0
    outer loop
      vertex -3.02831 -8.2 13.9161
      vertex -1.2 -8.2 0
      vertex -3.35982 -8.2 13.4598
    endloop
  endfacet
  facet normal 0 1 0
    outer loop
      vertex -2.82069 -8.2 14.4404
      vertex -1.2 -8.2 0
      vertex -3.02831 -8.2 13.9161
    endloop
  endfacet
  facet normal 0 1 0
    outer loop
      vertex -2.75 -8.2 15
      vertex -1.2 -8.2 0
      vertex -2.82069 -8.2 14.4404
    endloop
  endfacet
  facet normal 0 1 0
    outer loop
      vertex -1.2 -8.2 25
      vertex -5.42161 -8.2 17.2101
      vertex -10 -8.2 25
    endloop
  endfacet
  facet normal 0 1 -0
    outer loop
      vertex -5.958 -8.2 17.0359
      vertex -10 -8.2 25
      vertex -5.42161 -8.2 17.2101
    endloop
  endfacet
  facet normal 0 1 -0
    outer loop
      vertex -6.4342 -8.2 16.7337
      vertex -10 -8.2 25
      vertex -5.958 -8.2 17.0359
    endloop
  endfacet
  facet normal 0 1 -0
    outer loop
      vertex -6.82029 -8.2 16.3225
      vertex -10 -8.2 25
      vertex -6.4342 -8.2 16.7337
    endloop
  endfacet
  facet normal 0 1 -0
    outer loop
      vertex -7.092 -8.2 15.8283
      vertex -10 -8.2 25
      vertex -6.82029 -8.2 16.3225
    endloop
  endfacet
  facet normal 0 1 -0
    outer loop
      vertex -7.23226 -8.2 15.282
      vertex -10 -8.2 25
      vertex -7.092 -8.2 15.8283
    endloop
  endfacet
  facet normal 0 1 -0
    outer loop
      vertex -7.23226 -8.2 14.718
      vertex -10 -8.2 25
      vertex -7.23226 -8.2 15.282
    endloop
  endfacet
  facet normal 0 1 0
    outer loop
      vertex -10 -8.2 0
      vertex -7.23226 -8.2 14.718
      vertex -7.092 -8.2 14.1717
    endloop
  endfacet
  facet normal 0 1 0
    outer loop
      vertex -1.2 -8.2 0
      vertex -5.42161 -8.2 12.7899
      vertex -4.85872 -8.2 12.7544
    endloop
  endfacet
  facet normal 0 1 0
    outer loop
      vertex -10 -8.2 0
      vertex -5.42161 -8.2 12.7899
      vertex -1.2 -8.2 0
    endloop
  endfacet
  facet normal 0 1 0
    outer loop
      vertex -5.42161 -8.2 12.7899
      vertex -10 -8.2 0
      vertex -5.958 -8.2 12.9641
    endloop
  endfacet
  facet normal 0 1 0
    outer loop
      vertex -5.958 -8.2 12.9641
      vertex -10 -8.2 0
      vertex -6.4342 -8.2 13.2663
    endloop
  endfacet
  facet normal 0 1 0
    outer loop
      vertex -6.4342 -8.2 13.2663
      vertex -10 -8.2 0
      vertex -6.82029 -8.2 13.6775
    endloop
  endfacet
  facet normal 0 1 0
    outer loop
      vertex -7.23226 -8.2 14.718
      vertex -10 -8.2 0
      vertex -10 -8.2 25
    endloop
  endfacet
  facet normal 0 1 0
    outer loop
      vertex -6.82029 -8.2 13.6775
      vertex -10 -8.2 0
      vertex -7.092 -8.2 14.1717
    endloop
  endfacet
  facet normal 0 1 0
    outer loop
      vertex 14.5784 -8.2 17.2101
      vertex 20 -8.2 25
      vertex 15.1413 -8.2 17.2456
    endloop
  endfacet
  facet normal 0 1 0
    outer loop
      vertex 20 -8.2 25
      vertex 15.6953 -8.2 17.1399
      vertex 15.1413 -8.2 17.2456
    endloop
  endfacet
  facet normal 0 1 0
    outer loop
      vertex 20 -8.2 25
      vertex 16.2056 -8.2 16.8997
      vertex 15.6953 -8.2 17.1399
    endloop
  endfacet
  facet normal 0 1 0
    outer loop
      vertex 20 -8.2 25
      vertex 16.6402 -8.2 16.5402
      vertex 16.2056 -8.2 16.8997
    endloop
  endfacet
  facet normal 0 1 0
    outer loop
      vertex 20 -8.2 25
      vertex 16.9717 -8.2 16.0839
      vertex 16.6402 -8.2 16.5402
    endloop
  endfacet
  facet normal 0 1 0
    outer loop
      vertex 20 -8.2 25
      vertex 17.1793 -8.2 15.5596
      vertex 16.9717 -8.2 16.0839
    endloop
  endfacet
  facet normal 0 1 0
    outer loop
      vertex 20 -8.2 25
      vertex 17.25 -8.2 15
      vertex 17.1793 -8.2 15.5596
    endloop
  endfacet
  facet normal 0 1 -0
    outer loop
      vertex 20 -8.2 0
      vertex 17.25 -8.2 15
      vertex 20 -8.2 25
    endloop
  endfacet
  facet normal 0 1 0
    outer loop
      vertex 15.6953 -8.2 12.8601
      vertex 20 -8.2 0
      vertex 15.1413 -8.2 12.7544
    endloop
  endfacet
  facet normal 0 1 0
    outer loop
      vertex 16.2056 -8.2 13.1003
      vertex 20 -8.2 0
      vertex 15.6953 -8.2 12.8601
    endloop
  endfacet
  facet normal 0 1 0
    outer loop
      vertex 16.6402 -8.2 13.4598
      vertex 20 -8.2 0
      vertex 16.2056 -8.2 13.1003
    endloop
  endfacet
  facet normal 0 1 0
    outer loop
      vertex 16.9717 -8.2 13.9161
      vertex 20 -8.2 0
      vertex 16.6402 -8.2 13.4598
    endloop
  endfacet
  facet normal 0 1 0
    outer loop
      vertex 17.1793 -8.2 14.4404
      vertex 20 -8.2 0
      vertex 16.9717 -8.2 13.9161
    endloop
  endfacet
  facet normal 0 1 0
    outer loop
      vertex 17.25 -8.2 15
      vertex 20 -8.2 0
      vertex 17.1793 -8.2 14.4404
    endloop
  endfacet
  facet normal 0 1 0
    outer loop
      vertex 20 -8.2 25
      vertex 14.5784 -8.2 17.2101
      vertex 5.2 -8.2 25
    endloop
  endfacet
  facet normal 0 1 -0
    outer loop
      vertex 14.042 -8.2 17.0359
      vertex 5.2 -8.2 25
      vertex 14.5784 -8.2 17.2101
    endloop
  endfacet
  facet normal 0 1 -0
    outer loop
      vertex 13.5658 -8.2 16.7337
      vertex 5.2 -8.2 25
      vertex 14.042 -8.2 17.0359
    endloop
  endfacet
  facet normal 0 1 -0
    outer loop
      vertex 13.1797 -8.2 16.3225
      vertex 5.2 -8.2 25
      vertex 13.5658 -8.2 16.7337
    endloop
  endfacet
  facet normal 0 1 -0
    outer loop
      vertex 12.908 -8.2 15.8283
      vertex 5.2 -8.2 25
      vertex 13.1797 -8.2 16.3225
    endloop
  endfacet
  facet normal 0 1 -0
    outer loop
      vertex 12.7677 -8.2 15.282
      vertex 5.2 -8.2 25
      vertex 12.908 -8.2 15.8283
    endloop
  endfacet
  facet normal 0 1 -0
    outer loop
      vertex 12.7677 -8.2 14.718
      vertex 5.2 -8.2 25
      vertex 12.7677 -8.2 15.282
    endloop
  endfacet
  facet normal 0 1 0
    outer loop
      vertex 5.2 -8.2 0
      vertex 12.7677 -8.2 14.718
      vertex 12.908 -8.2 14.1717
    endloop
  endfacet
  facet normal 0 1 0
    outer loop
      vertex 5.2 -8.2 0
      vertex 12.908 -8.2 14.1717
      vertex 13.1797 -8.2 13.6775
    endloop
  endfacet
  facet normal 0 1 0
    outer loop
      vertex 20 -8.2 0
      vertex 14.5784 -8.2 12.7899
      vertex 15.1413 -8.2 12.7544
    endloop
  endfacet
  facet normal 0 1 0
    outer loop
      vertex 5.2 -8.2 0
      vertex 14.5784 -8.2 12.7899
      vertex 20 -8.2 0
    endloop
  endfacet
  facet normal 0 1 0
    outer loop
      vertex 14.5784 -8.2 12.7899
      vertex 5.2 -8.2 0
      vertex 14.042 -8.2 12.9641
    endloop
  endfacet
  facet normal 0 1 0
    outer loop
      vertex 14.042 -8.2 12.9641
      vertex 5.2 -8.2 0
      vertex 13.5658 -8.2 13.2663
    endloop
  endfacet
  facet normal 0 1 0
    outer loop
      vertex 13.5658 -8.2 13.2663
      vertex 5.2 -8.2 0
      vertex 13.1797 -8.2 13.6775
    endloop
  endfacet
  facet normal 0 1 0
    outer loop
      vertex 12.7677 -8.2 14.718
      vertex 5.2 -8.2 0
      vertex 5.2 -8.2 25
    endloop
  endfacet
  facet normal 0 -1 0
    outer loop
      vertex 20 -14.2 25
      vertex 14.5784 -14.2 17.2101
      vertex 15.1413 -14.2 17.2456
    endloop
  endfacet
  facet normal 0 -1 0
    outer loop
      vertex -3.79439 -14.2 16.8997
      vertex -10 -14.2 25
      vertex -4.30471 -14.2 17.1399
    endloop
  endfacet
  facet normal 0 -1 0
    outer loop
      vertex -10 -14.2 25
      vertex 14.042 -14.2 17.0359
      vertex 14.5784 -14.2 17.2101
    endloop
  endfacet
  facet normal 0 -1 0
    outer loop
      vertex 13.5658 -14.2 16.7337
      vertex -10 -14.2 25
      vertex -3.79439 -14.2 16.8997
    endloop
  endfacet
  facet normal 0 -1 0
    outer loop
      vertex -10 -14.2 25
      vertex 13.5658 -14.2 16.7337
      vertex 14.042 -14.2 17.0359
    endloop
  endfacet
  facet normal 0 -1 0
    outer loop
      vertex -3.35982 -14.2 16.5402
      vertex 13.5658 -14.2 16.7337
      vertex -3.79439 -14.2 16.8997
    endloop
  endfacet
  facet normal 0 -1 0
    outer loop
      vertex -3.35982 -14.2 16.5402
      vertex 13.1797 -14.2 16.3225
      vertex 13.5658 -14.2 16.7337
    endloop
  endfacet
  facet normal 0 -1 0
    outer loop
      vertex -3.02831 -14.2 16.0839
      vertex 13.1797 -14.2 16.3225
      vertex -3.35982 -14.2 16.5402
    endloop
  endfacet
  facet normal 0 -1 0
    outer loop
      vertex -3.02831 -14.2 16.0839
      vertex 12.908 -14.2 15.8283
      vertex 13.1797 -14.2 16.3225
    endloop
  endfacet
  facet normal 0 -1 0
    outer loop
      vertex -2.82069 -14.2 15.5596
      vertex 12.908 -14.2 15.8283
      vertex -3.02831 -14.2 16.0839
    endloop
  endfacet
  facet normal 0 -1 0
    outer loop
      vertex -2.82069 -14.2 15.5596
      vertex 12.7677 -14.2 15.282
      vertex 12.908 -14.2 15.8283
    endloop
  endfacet
  facet normal 0 -1 0
    outer loop
      vertex -2.75 -14.2 15
      vertex 12.7677 -14.2 15.282
      vertex -2.82069 -14.2 15.5596
    endloop
  endfacet
  facet normal 0 -1 0
    outer loop
      vertex -2.75 -14.2 15
      vertex 12.7677 -14.2 14.718
      vertex 12.7677 -14.2 15.282
    endloop
  endfacet
  facet normal 0 -1 0
    outer loop
      vertex -2.82069 -14.2 14.4404
      vertex 12.7677 -14.2 14.718
      vertex -2.75 -14.2 15
    endloop
  endfacet
  facet normal 0 -1 0
    outer loop
      vertex -2.82069 -14.2 14.4404
      vertex 12.908 -14.2 14.1717
      vertex 12.7677 -14.2 14.718
    endloop
  endfacet
  facet normal 0 -1 0
    outer loop
      vertex -3.02831 -14.2 13.9161
      vertex 12.908 -14.2 14.1717
      vertex -2.82069 -14.2 14.4404
    endloop
  endfacet
  facet normal 0 -1 0
    outer loop
      vertex -3.02831 -14.2 13.9161
      vertex 13.1797 -14.2 13.6775
      vertex 12.908 -14.2 14.1717
    endloop
  endfacet
  facet normal 0 -1 0
    outer loop
      vertex -3.35982 -14.2 13.4598
      vertex 13.1797 -14.2 13.6775
      vertex -3.02831 -14.2 13.9161
    endloop
  endfacet
  facet normal 0 -1 0
    outer loop
      vertex -3.35982 -14.2 13.4598
      vertex 13.5658 -14.2 13.2663
      vertex 13.1797 -14.2 13.6775
    endloop
  endfacet
  facet normal 0 -1 0
    outer loop
      vertex -3.79439 -14.2 13.1003
      vertex 13.5658 -14.2 13.2663
      vertex -3.35982 -14.2 13.4598
    endloop
  endfacet
  facet normal 0 -1 0
    outer loop
      vertex 20 -14.2 0
      vertex 13.5658 -14.2 13.2663
      vertex -3.79439 -14.2 13.1003
    endloop
  endfacet
  facet normal 0 -1 0
    outer loop
      vertex -10 -14.2 0
      vertex -3.79439 -14.2 13.1003
      vertex -4.30471 -14.2 12.8601
    endloop
  endfacet
  facet normal 0 -1 0
    outer loop
      vertex 13.5658 -14.2 13.2663
      vertex 20 -14.2 0
      vertex 14.042 -14.2 12.9641
    endloop
  endfacet
  facet normal 0 -1 0
    outer loop
      vertex -10 -14.2 0
      vertex -4.30471 -14.2 12.8601
      vertex -4.85872 -14.2 12.7544
    endloop
  endfacet
  facet normal 0 -1 -0
    outer loop
      vertex -3.79439 -14.2 13.1003
      vertex -10 -14.2 0
      vertex 20 -14.2 0
    endloop
  endfacet
  facet normal 0 -1 0
    outer loop
      vertex -4.30471 -14.2 17.1399
      vertex -10 -14.2 25
      vertex -4.85872 -14.2 17.2456
    endloop
  endfacet
  facet normal 0 -1 0
    outer loop
      vertex -10 -14.2 25
      vertex -5.42161 -14.2 17.2101
      vertex -4.85872 -14.2 17.2456
    endloop
  endfacet
  facet normal 0 -1 0
    outer loop
      vertex -10 -14.2 25
      vertex -5.958 -14.2 17.0359
      vertex -5.42161 -14.2 17.2101
    endloop
  endfacet
  facet normal 0 -1 0
    outer loop
      vertex -10 -14.2 25
      vertex -6.4342 -14.2 16.7337
      vertex -5.958 -14.2 17.0359
    endloop
  endfacet
  facet normal 0 -1 0
    outer loop
      vertex -10 -14.2 25
      vertex -6.82029 -14.2 16.3225
      vertex -6.4342 -14.2 16.7337
    endloop
  endfacet
  facet normal 0 -1 0
    outer loop
      vertex -10 -14.2 25
      vertex -7.092 -14.2 15.8283
      vertex -6.82029 -14.2 16.3225
    endloop
  endfacet
  facet normal 0 -1 0
    outer loop
      vertex -10 -14.2 25
      vertex -7.23226 -14.2 15.282
      vertex -7.092 -14.2 15.8283
    endloop
  endfacet
  facet normal 0 -1 0
    outer loop
      vertex -10 -14.2 25
      vertex -7.23226 -14.2 14.718
      vertex -7.23226 -14.2 15.282
    endloop
  endfacet
  facet normal 0 -1 0
    outer loop
      vertex -10 -14.2 0
      vertex -7.23226 -14.2 14.718
      vertex -10 -14.2 25
    endloop
  endfacet
  facet normal 0 -1 0
    outer loop
      vertex 14.042 -14.2 12.9641
      vertex 20 -14.2 0
      vertex 14.5784 -14.2 12.7899
    endloop
  endfacet
  facet normal 0 -1 -0
    outer loop
      vertex -5.42161 -14.2 12.7899
      vertex -10 -14.2 0
      vertex -4.85872 -14.2 12.7544
    endloop
  endfacet
  facet normal 0 -1 -0
    outer loop
      vertex -5.958 -14.2 12.9641
      vertex -10 -14.2 0
      vertex -5.42161 -14.2 12.7899
    endloop
  endfacet
  facet normal 0 -1 -0
    outer loop
      vertex -6.4342 -14.2 13.2663
      vertex -10 -14.2 0
      vertex -5.958 -14.2 12.9641
    endloop
  endfacet
  facet normal 0 -1 -0
    outer loop
      vertex -6.82029 -14.2 13.6775
      vertex -10 -14.2 0
      vertex -6.4342 -14.2 13.2663
    endloop
  endfacet
  facet normal 0 -1 -0
    outer loop
      vertex -7.092 -14.2 14.1717
      vertex -10 -14.2 0
      vertex -6.82029 -14.2 13.6775
    endloop
  endfacet
  facet normal 0 -1 -0
    outer loop
      vertex -7.23226 -14.2 14.718
      vertex -10 -14.2 0
      vertex -7.092 -14.2 14.1717
    endloop
  endfacet
  facet normal 0 -1 0
    outer loop
      vertex -10 -14.2 25
      vertex 14.5784 -14.2 17.2101
      vertex 20 -14.2 25
    endloop
  endfacet
  facet normal 0 -1 0
    outer loop
      vertex 15.6953 -14.2 17.1399
      vertex 20 -14.2 25
      vertex 15.1413 -14.2 17.2456
    endloop
  endfacet
  facet normal 0 -1 0
    outer loop
      vertex 16.2056 -14.2 16.8997
      vertex 20 -14.2 25
      vertex 15.6953 -14.2 17.1399
    endloop
  endfacet
  facet normal 0 -1 0
    outer loop
      vertex 16.6402 -14.2 16.5402
      vertex 20 -14.2 25
      vertex 16.2056 -14.2 16.8997
    endloop
  endfacet
  facet normal 0 -1 0
    outer loop
      vertex 16.9717 -14.2 16.0839
      vertex 20 -14.2 25
      vertex 16.6402 -14.2 16.5402
    endloop
  endfacet
  facet normal 0 -1 0
    outer loop
      vertex 17.1793 -14.2 15.5596
      vertex 20 -14.2 25
      vertex 16.9717 -14.2 16.0839
    endloop
  endfacet
  facet normal 0 -1 0
    outer loop
      vertex 17.25 -14.2 15
      vertex 20 -14.2 25
      vertex 17.1793 -14.2 15.5596
    endloop
  endfacet
  facet normal 0 -1 0
    outer loop
      vertex 20 -14.2 0
      vertex 17.25 -14.2 15
      vertex 17.1793 -14.2 14.4404
    endloop
  endfacet
  facet normal 0 -1 0
    outer loop
      vertex 14.5784 -14.2 12.7899
      vertex 20 -14.2 0
      vertex 15.1413 -14.2 12.7544
    endloop
  endfacet
  facet normal 0 -1 0
    outer loop
      vertex 15.1413 -14.2 12.7544
      vertex 20 -14.2 0
      vertex 15.6953 -14.2 12.8601
    endloop
  endfacet
  facet normal 0 -1 0
    outer loop
      vertex 17.25 -14.2 15
      vertex 20 -14.2 0
      vertex 20 -14.2 25
    endloop
  endfacet
  facet normal 0 -1 0
    outer loop
      vertex 16.9717 -14.2 13.9161
      vertex 20 -14.2 0
      vertex 17.1793 -14.2 14.4404
    endloop
  endfacet
  facet normal 0 -1 0
    outer loop
      vertex 16.6402 -14.2 13.4598
      vertex 20 -14.2 0
      vertex 16.9717 -14.2 13.9161
    endloop
  endfacet
  facet normal 0 -1 0
    outer loop
      vertex 16.2056 -14.2 13.1003
      vertex 20 -14.2 0
      vertex 16.6402 -14.2 13.4598
    endloop
  endfacet
  facet normal 0 -1 0
    outer loop
      vertex 15.6953 -14.2 12.8601
      vertex 20 -14.2 0
      vertex 16.2056 -14.2 13.1003
    endloop
  endfacet
  facet normal -0.368265 0.929721 0
    outer loop
      vertex 3.36249 -11.0954 0
      vertex 2.98885 -11.2434 25
      vertex 3.36249 -11.0954 25
    endloop
  endfacet
  facet normal -0.368265 0.929721 0
    outer loop
      vertex 2.98885 -11.2434 25
      vertex 3.36249 -11.0954 0
      vertex 2.98885 -11.2434 0
    endloop
  endfacet
  facet normal 0.951054 0.309024 0
    outer loop
      vertex -0.975286 -9.378 25
      vertex -1.09947 -8.99581 0
      vertex -1.09947 -8.99581 25
    endloop
  endfacet
  facet normal 0.951054 0.309024 0
    outer loop
      vertex -1.09947 -8.99581 0
      vertex -0.975286 -9.378 25
      vertex -0.975286 -9.378 0
    endloop
  endfacet
  facet normal 0.587774 0.809025 -0
    outer loop
      vertex 0.285354 -10.9018 0
      vertex -0.0397568 -10.6656 25
      vertex 0.285354 -10.9018 25
    endloop
  endfacet
  facet normal 0.587774 0.809025 0
    outer loop
      vertex -0.0397568 -10.6656 25
      vertex 0.285354 -10.9018 0
      vertex -0.0397568 -10.6656 0
    endloop
  endfacet
  facet normal 0.982288 0.18738 0
    outer loop
      vertex -1.09947 -8.99581 25
      vertex -1.17477 -8.60107 0
      vertex -1.17477 -8.60107 25
    endloop
  endfacet
  facet normal 0.982288 0.18738 0
    outer loop
      vertex -1.17477 -8.60107 0
      vertex -1.09947 -8.99581 25
      vertex -1.09947 -8.99581 0
    endloop
  endfacet
  facet normal -0.844317 0.535845 0
    outer loop
      vertex 4.58885 -10.0809 0
      vertex 4.80418 -9.74161 25
      vertex 4.80418 -9.74161 0
    endloop
  endfacet
  facet normal -0.844317 0.535845 0
    outer loop
      vertex 4.80418 -9.74161 25
      vertex 4.58885 -10.0809 0
      vertex 4.58885 -10.0809 25
    endloop
  endfacet
  facet normal -0.248603 0.968606 0
    outer loop
      vertex 2.98885 -11.2434 0
      vertex 2.59962 -11.3433 25
      vertex 2.98885 -11.2434 25
    endloop
  endfacet
  facet normal -0.248603 0.968606 0
    outer loop
      vertex 2.59962 -11.3433 25
      vertex 2.98885 -11.2434 0
      vertex 2.59962 -11.3433 0
    endloop
  endfacet
  facet normal -0.998027 0.0627826 0
    outer loop
      vertex 5.17477 -8.60107 0
      vertex 5.2 -8.2 25
      vertex 5.2 -8.2 0
    endloop
  endfacet
  facet normal -0.998027 0.0627826 0
    outer loop
      vertex 5.2 -8.2 25
      vertex 5.17477 -8.60107 0
      vertex 5.17477 -8.60107 25
    endloop
  endfacet
  facet normal -0.587775 0.809024 0
    outer loop
      vertex 4.03976 -10.6656 0
      vertex 3.71465 -10.9018 25
      vertex 4.03976 -10.6656 25
    endloop
  endfacet
  facet normal -0.587775 0.809024 0
    outer loop
      vertex 3.71465 -10.9018 25
      vertex 4.03976 -10.6656 0
      vertex 3.71465 -10.9018 0
    endloop
  endfacet
  facet normal 0 1 -0
    outer loop
      vertex 2.20093 -11.3937 0
      vertex 1.79907 -11.3937 25
      vertex 2.20093 -11.3937 25
    endloop
  endfacet
  facet normal 0 1 0
    outer loop
      vertex 1.79907 -11.3937 25
      vertex 2.20093 -11.3937 0
      vertex 1.79907 -11.3937 0
    endloop
  endfacet
  facet normal -0.982288 0.18738 0
    outer loop
      vertex 5.09947 -8.99581 0
      vertex 5.17477 -8.60107 25
      vertex 5.17477 -8.60107 0
    endloop
  endfacet
  facet normal -0.982288 0.18738 0
    outer loop
      vertex 5.17477 -8.60107 25
      vertex 5.09947 -8.99581 0
      vertex 5.09947 -8.99581 25
    endloop
  endfacet
  facet normal 0.84432 0.535839 0
    outer loop
      vertex -0.588855 -10.0809 25
      vertex -0.804182 -9.74161 0
      vertex -0.804182 -9.74161 25
    endloop
  endfacet
  facet normal 0.84432 0.535839 0
    outer loop
      vertex -0.804182 -9.74161 0
      vertex -0.588855 -10.0809 25
      vertex -0.588855 -10.0809 0
    endloop
  endfacet
  facet normal 0.684425 0.729083 -0
    outer loop
      vertex -0.0397568 -10.6656 0
      vertex -0.3327 -10.3906 25
      vertex -0.0397568 -10.6656 25
    endloop
  endfacet
  facet normal 0.684425 0.729083 0
    outer loop
      vertex -0.3327 -10.3906 25
      vertex -0.0397568 -10.6656 0
      vertex -0.3327 -10.3906 0
    endloop
  endfacet
  facet normal -0.904829 0.425775 0
    outer loop
      vertex 4.80418 -9.74161 0
      vertex 4.97528 -9.378 25
      vertex 4.97528 -9.378 0
    endloop
  endfacet
  facet normal -0.904829 0.425775 0
    outer loop
      vertex 4.97528 -9.378 25
      vertex 4.80418 -9.74161 0
      vertex 4.80418 -9.74161 25
    endloop
  endfacet
  facet normal 0.770576 0.637348 0
    outer loop
      vertex -0.3327 -10.3906 25
      vertex -0.588855 -10.0809 0
      vertex -0.588855 -10.0809 25
    endloop
  endfacet
  facet normal 0.770576 0.637348 0
    outer loop
      vertex -0.588855 -10.0809 0
      vertex -0.3327 -10.3906 25
      vertex -0.3327 -10.3906 0
    endloop
  endfacet
  facet normal -0.481751 0.876308 0
    outer loop
      vertex 3.71465 -10.9018 0
      vertex 3.36249 -11.0954 25
      vertex 3.71465 -10.9018 25
    endloop
  endfacet
  facet normal -0.481751 0.876308 0
    outer loop
      vertex 3.36249 -11.0954 25
      vertex 3.71465 -10.9018 0
      vertex 3.36249 -11.0954 0
    endloop
  endfacet
  facet normal 0.904825 0.425784 0
    outer loop
      vertex -0.804182 -9.74161 25
      vertex -0.975286 -9.378 0
      vertex -0.975286 -9.378 25
    endloop
  endfacet
  facet normal 0.904825 0.425784 0
    outer loop
      vertex -0.975286 -9.378 0
      vertex -0.804182 -9.74161 25
      vertex -0.804182 -9.74161 0
    endloop
  endfacet
  facet normal -0.770582 0.637341 0
    outer loop
      vertex 4.3327 -10.3906 0
      vertex 4.58885 -10.0809 25
      vertex 4.58885 -10.0809 0
    endloop
  endfacet
  facet normal -0.770582 0.637341 0
    outer loop
      vertex 4.58885 -10.0809 25
      vertex 4.3327 -10.3906 0
      vertex 4.3327 -10.3906 25
    endloop
  endfacet
  facet normal -0.95105 0.309037 0
    outer loop
      vertex 4.97528 -9.378 0
      vertex 5.09947 -8.99581 25
      vertex 5.09947 -8.99581 0
    endloop
  endfacet
  facet normal -0.95105 0.309037 0
    outer loop
      vertex 5.09947 -8.99581 25
      vertex 4.97528 -9.378 0
      vertex 4.97528 -9.378 25
    endloop
  endfacet
  facet normal 0.368262 0.929722 -0
    outer loop
      vertex 1.01115 -11.2434 0
      vertex 0.637506 -11.0954 25
      vertex 1.01115 -11.2434 25
    endloop
  endfacet
  facet normal 0.368262 0.929722 0
    outer loop
      vertex 0.637506 -11.0954 25
      vertex 1.01115 -11.2434 0
      vertex 0.637506 -11.0954 0
    endloop
  endfacet
  facet normal 0.998027 0.0627826 0
    outer loop
      vertex -1.17477 -8.60107 25
      vertex -1.2 -8.2 0
      vertex -1.2 -8.2 25
    endloop
  endfacet
  facet normal 0.998027 0.0627826 0
    outer loop
      vertex -1.2 -8.2 0
      vertex -1.17477 -8.60107 25
      vertex -1.17477 -8.60107 0
    endloop
  endfacet
  facet normal 0.248603 0.968606 -0
    outer loop
      vertex 1.40038 -11.3433 0
      vertex 1.01115 -11.2434 25
      vertex 1.40038 -11.3433 25
    endloop
  endfacet
  facet normal 0.248603 0.968606 0
    outer loop
      vertex 1.01115 -11.2434 25
      vertex 1.40038 -11.3433 0
      vertex 1.01115 -11.2434 0
    endloop
  endfacet
  facet normal -0.125416 0.992104 0
    outer loop
      vertex 2.59962 -11.3433 0
      vertex 2.20093 -11.3937 25
      vertex 2.59962 -11.3433 25
    endloop
  endfacet
  facet normal -0.125416 0.992104 0
    outer loop
      vertex 2.20093 -11.3937 25
      vertex 2.59962 -11.3433 0
      vertex 2.20093 -11.3937 0
    endloop
  endfacet
  facet normal 0.125416 0.992104 -0
    outer loop
      vertex 1.79907 -11.3937 0
      vertex 1.40038 -11.3433 25
      vertex 1.79907 -11.3937 25
    endloop
  endfacet
  facet normal 0.125416 0.992104 0
    outer loop
      vertex 1.40038 -11.3433 25
      vertex 1.79907 -11.3937 0
      vertex 1.40038 -11.3433 0
    endloop
  endfacet
  facet normal 0.481759 0.876304 -0
    outer loop
      vertex 0.637506 -11.0954 0
      vertex 0.285354 -10.9018 25
      vertex 0.637506 -11.0954 25
    endloop
  endfacet
  facet normal 0.481759 0.876304 0
    outer loop
      vertex 0.285354 -10.9018 25
      vertex 0.637506 -11.0954 0
      vertex 0.285354 -10.9018 0
    endloop
  endfacet
  facet normal -0.684429 0.729079 0
    outer loop
      vertex 4.3327 -10.3906 0
      vertex 4.03976 -10.6656 25
      vertex 4.3327 -10.3906 25
    endloop
  endfacet
  facet normal -0.684429 0.729079 0
    outer loop
      vertex 4.03976 -10.6656 25
      vertex 4.3327 -10.3906 0
      vertex 4.03976 -10.6656 0
    endloop
  endfacet
  facet normal -0.425869 0 0.904785
    outer loop
      vertex -4.30471 -8.2 12.8601
      vertex -3.79439 -14.2 13.1003
      vertex -3.79439 -8.2 13.1003
    endloop
  endfacet
  facet normal -0.425869 0 0.904785
    outer loop
      vertex -3.79439 -14.2 13.1003
      vertex -4.30471 -8.2 12.8601
      vertex -4.30471 -14.2 12.8601
    endloop
  endfacet
  facet normal 1 -0 0
    outer loop
      vertex -7.23226 -14.2 15.282
      vertex -7.23226 -8.2 14.718
      vertex -7.23226 -8.2 15.282
    endloop
  endfacet
  facet normal 1 0 0
    outer loop
      vertex -7.23226 -8.2 14.718
      vertex -7.23226 -14.2 15.282
      vertex -7.23226 -14.2 14.718
    endloop
  endfacet
  facet normal -0.929755 0 0.368178
    outer loop
      vertex -3.02831 -14.2 13.9161
      vertex -2.82069 -8.2 14.4404
      vertex -3.02831 -8.2 13.9161
    endloop
  endfacet
  facet normal -0.929755 0 0.368178
    outer loop
      vertex -2.82069 -8.2 14.4404
      vertex -3.02831 -14.2 13.9161
      vertex -2.82069 -14.2 14.4404
    endloop
  endfacet
  facet normal -0.425869 0 -0.904785
    outer loop
      vertex -4.30471 -14.2 17.1399
      vertex -3.79439 -8.2 16.8997
      vertex -3.79439 -14.2 16.8997
    endloop
  endfacet
  facet normal -0.425869 0 -0.904785
    outer loop
      vertex -3.79439 -8.2 16.8997
      vertex -4.30471 -14.2 17.1399
      vertex -4.30471 -8.2 17.1399
    endloop
  endfacet
  facet normal -0.637416 0 -0.77052
    outer loop
      vertex -3.79439 -14.2 16.8997
      vertex -3.35982 -8.2 16.5402
      vertex -3.35982 -14.2 16.5402
    endloop
  endfacet
  facet normal -0.637416 0 -0.77052
    outer loop
      vertex -3.35982 -8.2 16.5402
      vertex -3.79439 -14.2 16.8997
      vertex -3.79439 -8.2 16.8997
    endloop
  endfacet
  facet normal -0.18741 0 0.982282
    outer loop
      vertex -4.85872 -8.2 12.7544
      vertex -4.30471 -14.2 12.8601
      vertex -4.30471 -8.2 12.8601
    endloop
  endfacet
  facet normal -0.18741 0 0.982282
    outer loop
      vertex -4.30471 -14.2 12.8601
      vertex -4.85872 -8.2 12.7544
      vertex -4.85872 -14.2 12.7544
    endloop
  endfacet
  facet normal -0.992116 0 -0.125326
    outer loop
      vertex -2.75 -14.2 15
      vertex -2.82069 -8.2 15.5596
      vertex -2.75 -8.2 15
    endloop
  endfacet
  facet normal -0.992116 -0 -0.125326
    outer loop
      vertex -2.82069 -8.2 15.5596
      vertex -2.75 -14.2 15
      vertex -2.82069 -14.2 15.5596
    endloop
  endfacet
  facet normal 0.968586 -0 0.24868
    outer loop
      vertex -7.23226 -14.2 14.718
      vertex -7.092 -8.2 14.1717
      vertex -7.23226 -8.2 14.718
    endloop
  endfacet
  facet normal 0.968586 0 0.24868
    outer loop
      vertex -7.092 -8.2 14.1717
      vertex -7.23226 -14.2 14.718
      vertex -7.092 -14.2 14.1717
    endloop
  endfacet
  facet normal -0.809027 0 -0.587772
    outer loop
      vertex -3.02831 -14.2 16.0839
      vertex -3.35982 -8.2 16.5402
      vertex -3.02831 -8.2 16.0839
    endloop
  endfacet
  facet normal -0.809027 -0 -0.587772
    outer loop
      vertex -3.35982 -8.2 16.5402
      vertex -3.02831 -14.2 16.0839
      vertex -3.35982 -14.2 16.5402
    endloop
  endfacet
  facet normal -0.18741 0 -0.982282
    outer loop
      vertex -4.85872 -14.2 17.2456
      vertex -4.30471 -8.2 17.1399
      vertex -4.30471 -14.2 17.1399
    endloop
  endfacet
  facet normal -0.18741 0 -0.982282
    outer loop
      vertex -4.30471 -8.2 17.1399
      vertex -4.85872 -14.2 17.2456
      vertex -4.85872 -8.2 17.2456
    endloop
  endfacet
  facet normal 0.308883 0 0.9511
    outer loop
      vertex -5.958 -8.2 12.9641
      vertex -5.42161 -14.2 12.7899
      vertex -5.42161 -8.2 12.7899
    endloop
  endfacet
  facet normal 0.308883 0 0.9511
    outer loop
      vertex -5.42161 -14.2 12.7899
      vertex -5.958 -8.2 12.9641
      vertex -5.958 -14.2 12.9641
    endloop
  endfacet
  facet normal -0.637416 0 0.77052
    outer loop
      vertex -3.79439 -8.2 13.1003
      vertex -3.35982 -14.2 13.4598
      vertex -3.35982 -8.2 13.4598
    endloop
  endfacet
  facet normal -0.637416 0 0.77052
    outer loop
      vertex -3.35982 -14.2 13.4598
      vertex -3.79439 -8.2 13.1003
      vertex -3.79439 -14.2 13.1003
    endloop
  endfacet
  facet normal -0.992116 0 0.125326
    outer loop
      vertex -2.82069 -14.2 14.4404
      vertex -2.75 -8.2 15
      vertex -2.82069 -8.2 14.4404
    endloop
  endfacet
  facet normal -0.992116 0 0.125326
    outer loop
      vertex -2.75 -8.2 15
      vertex -2.82069 -14.2 14.4404
      vertex -2.75 -14.2 15
    endloop
  endfacet
  facet normal 0.876291 0 -0.481783
    outer loop
      vertex -6.82029 -14.2 16.3225
      vertex -7.092 -8.2 15.8283
      vertex -6.82029 -8.2 16.3225
    endloop
  endfacet
  facet normal 0.876291 0 -0.481783
    outer loop
      vertex -7.092 -8.2 15.8283
      vertex -6.82029 -14.2 16.3225
      vertex -7.092 -14.2 15.8283
    endloop
  endfacet
  facet normal 0.0629423 0 -0.998017
    outer loop
      vertex -5.42161 -14.2 17.2101
      vertex -4.85872 -8.2 17.2456
      vertex -4.85872 -14.2 17.2456
    endloop
  endfacet
  facet normal 0.0629423 0 -0.998017
    outer loop
      vertex -4.85872 -8.2 17.2456
      vertex -5.42161 -14.2 17.2101
      vertex -5.42161 -8.2 17.2101
    endloop
  endfacet
  facet normal -0.809027 0 0.587772
    outer loop
      vertex -3.35982 -14.2 13.4598
      vertex -3.02831 -8.2 13.9161
      vertex -3.35982 -8.2 13.4598
    endloop
  endfacet
  facet normal -0.809027 0 0.587772
    outer loop
      vertex -3.02831 -8.2 13.9161
      vertex -3.35982 -14.2 13.4598
      vertex -3.02831 -14.2 13.9161
    endloop
  endfacet
  facet normal 0.0629423 0 0.998017
    outer loop
      vertex -5.42161 -8.2 12.7899
      vertex -4.85872 -14.2 12.7544
      vertex -4.85872 -8.2 12.7544
    endloop
  endfacet
  facet normal 0.0629423 0 0.998017
    outer loop
      vertex -4.85872 -14.2 12.7544
      vertex -5.42161 -8.2 12.7899
      vertex -5.42161 -14.2 12.7899
    endloop
  endfacet
  facet normal 0.53582 0 0.844333
    outer loop
      vertex -6.4342 -8.2 13.2663
      vertex -5.958 -14.2 12.9641
      vertex -5.958 -8.2 12.9641
    endloop
  endfacet
  facet normal 0.53582 0 0.844333
    outer loop
      vertex -5.958 -14.2 12.9641
      vertex -6.4342 -8.2 13.2663
      vertex -6.4342 -14.2 13.2663
    endloop
  endfacet
  facet normal -0.929755 0 -0.368178
    outer loop
      vertex -2.82069 -14.2 15.5596
      vertex -3.02831 -8.2 16.0839
      vertex -2.82069 -8.2 15.5596
    endloop
  endfacet
  facet normal -0.929755 -0 -0.368178
    outer loop
      vertex -3.02831 -8.2 16.0839
      vertex -2.82069 -14.2 15.5596
      vertex -3.02831 -14.2 16.0839
    endloop
  endfacet
  facet normal 0.308883 0 -0.9511
    outer loop
      vertex -5.958 -14.2 17.0359
      vertex -5.42161 -8.2 17.2101
      vertex -5.42161 -14.2 17.2101
    endloop
  endfacet
  facet normal 0.308883 0 -0.9511
    outer loop
      vertex -5.42161 -8.2 17.2101
      vertex -5.958 -14.2 17.0359
      vertex -5.958 -8.2 17.0359
    endloop
  endfacet
  facet normal 0.729015 0 -0.684498
    outer loop
      vertex -6.4342 -14.2 16.7337
      vertex -6.82029 -8.2 16.3225
      vertex -6.4342 -8.2 16.7337
    endloop
  endfacet
  facet normal 0.729015 0 -0.684498
    outer loop
      vertex -6.82029 -8.2 16.3225
      vertex -6.4342 -14.2 16.7337
      vertex -6.82029 -14.2 16.3225
    endloop
  endfacet
  facet normal 0.729015 -0 0.684498
    outer loop
      vertex -6.82029 -14.2 13.6775
      vertex -6.4342 -8.2 13.2663
      vertex -6.82029 -8.2 13.6775
    endloop
  endfacet
  facet normal 0.729015 0 0.684498
    outer loop
      vertex -6.4342 -8.2 13.2663
      vertex -6.82029 -14.2 13.6775
      vertex -6.4342 -14.2 13.2663
    endloop
  endfacet
  facet normal 0.968586 0 -0.24868
    outer loop
      vertex -7.092 -14.2 15.8283
      vertex -7.23226 -8.2 15.282
      vertex -7.092 -8.2 15.8283
    endloop
  endfacet
  facet normal 0.968586 0 -0.24868
    outer loop
      vertex -7.23226 -8.2 15.282
      vertex -7.092 -14.2 15.8283
      vertex -7.23226 -14.2 15.282
    endloop
  endfacet
  facet normal 0.53582 0 -0.844333
    outer loop
      vertex -6.4342 -14.2 16.7337
      vertex -5.958 -8.2 17.0359
      vertex -5.958 -14.2 17.0359
    endloop
  endfacet
  facet normal 0.53582 0 -0.844333
    outer loop
      vertex -5.958 -8.2 17.0359
      vertex -6.4342 -14.2 16.7337
      vertex -6.4342 -8.2 16.7337
    endloop
  endfacet
  facet normal 0.876291 -0 0.481783
    outer loop
      vertex -7.092 -14.2 14.1717
      vertex -6.82029 -8.2 13.6775
      vertex -7.092 -8.2 14.1717
    endloop
  endfacet
  facet normal 0.876291 0 0.481783
    outer loop
      vertex -6.82029 -8.2 13.6775
      vertex -7.092 -14.2 14.1717
      vertex -6.82029 -14.2 13.6775
    endloop
  endfacet
  facet normal -0.425882 0 0.904779
    outer loop
      vertex 15.6953 -8.2 12.8601
      vertex 16.2056 -14.2 13.1003
      vertex 16.2056 -8.2 13.1003
    endloop
  endfacet
  facet normal -0.425882 0 0.904779
    outer loop
      vertex 16.2056 -14.2 13.1003
      vertex 15.6953 -8.2 12.8601
      vertex 15.6953 -14.2 12.8601
    endloop
  endfacet
  facet normal 1 -0 0
    outer loop
      vertex 12.7677 -14.2 15.282
      vertex 12.7677 -8.2 14.718
      vertex 12.7677 -8.2 15.282
    endloop
  endfacet
  facet normal 1 0 0
    outer loop
      vertex 12.7677 -8.2 14.718
      vertex 12.7677 -14.2 15.282
      vertex 12.7677 -14.2 14.718
    endloop
  endfacet
  facet normal -0.809035 0 -0.58776
    outer loop
      vertex 16.9717 -14.2 16.0839
      vertex 16.6402 -8.2 16.5402
      vertex 16.9717 -8.2 16.0839
    endloop
  endfacet
  facet normal -0.809035 -0 -0.58776
    outer loop
      vertex 16.6402 -8.2 16.5402
      vertex 16.9717 -14.2 16.0839
      vertex 16.6402 -14.2 16.5402
    endloop
  endfacet
  facet normal -0.929767 0 0.368147
    outer loop
      vertex 16.9717 -14.2 13.9161
      vertex 17.1793 -8.2 14.4404
      vertex 16.9717 -8.2 13.9161
    endloop
  endfacet
  facet normal -0.929767 0 0.368147
    outer loop
      vertex 17.1793 -8.2 14.4404
      vertex 16.9717 -14.2 13.9161
      vertex 17.1793 -14.2 14.4404
    endloop
  endfacet
  facet normal -0.425882 0 -0.904779
    outer loop
      vertex 15.6953 -14.2 17.1399
      vertex 16.2056 -8.2 16.8997
      vertex 16.2056 -14.2 16.8997
    endloop
  endfacet
  facet normal -0.425882 0 -0.904779
    outer loop
      vertex 16.2056 -8.2 16.8997
      vertex 15.6953 -14.2 17.1399
      vertex 15.6953 -8.2 17.1399
    endloop
  endfacet
  facet normal -0.63739 0 -0.770541
    outer loop
      vertex 16.2056 -14.2 16.8997
      vertex 16.6402 -8.2 16.5402
      vertex 16.6402 -14.2 16.5402
    endloop
  endfacet
  facet normal -0.63739 0 -0.770541
    outer loop
      vertex 16.6402 -8.2 16.5402
      vertex 16.2056 -14.2 16.8997
      vertex 16.2056 -8.2 16.8997
    endloop
  endfacet
  facet normal -0.187414 0 0.982281
    outer loop
      vertex 15.1413 -8.2 12.7544
      vertex 15.6953 -14.2 12.8601
      vertex 15.6953 -8.2 12.8601
    endloop
  endfacet
  facet normal -0.187414 0 0.982281
    outer loop
      vertex 15.6953 -14.2 12.8601
      vertex 15.1413 -8.2 12.7544
      vertex 15.1413 -14.2 12.7544
    endloop
  endfacet
  facet normal -0.992113 0 -0.125344
    outer loop
      vertex 17.25 -14.2 15
      vertex 17.1793 -8.2 15.5596
      vertex 17.25 -8.2 15
    endloop
  endfacet
  facet normal -0.992113 -0 -0.125344
    outer loop
      vertex 17.1793 -8.2 15.5596
      vertex 17.25 -14.2 15
      vertex 17.1793 -14.2 15.5596
    endloop
  endfacet
  facet normal -0.809035 0 0.58776
    outer loop
      vertex 16.6402 -14.2 13.4598
      vertex 16.9717 -8.2 13.9161
      vertex 16.6402 -8.2 13.4598
    endloop
  endfacet
  facet normal -0.809035 0 0.58776
    outer loop
      vertex 16.9717 -8.2 13.9161
      vertex 16.6402 -14.2 13.4598
      vertex 16.9717 -14.2 13.9161
    endloop
  endfacet
  facet normal -0.187414 0 -0.982281
    outer loop
      vertex 15.1413 -14.2 17.2456
      vertex 15.6953 -8.2 17.1399
      vertex 15.6953 -14.2 17.1399
    endloop
  endfacet
  facet normal -0.187414 0 -0.982281
    outer loop
      vertex 15.6953 -8.2 17.1399
      vertex 15.1413 -14.2 17.2456
      vertex 15.1413 -8.2 17.2456
    endloop
  endfacet
  facet normal 0.308878 0 0.951102
    outer loop
      vertex 14.042 -8.2 12.9641
      vertex 14.5784 -14.2 12.7899
      vertex 14.5784 -8.2 12.7899
    endloop
  endfacet
  facet normal 0.308878 0 0.951102
    outer loop
      vertex 14.5784 -14.2 12.7899
      vertex 14.042 -8.2 12.9641
      vertex 14.042 -14.2 12.9641
    endloop
  endfacet
  facet normal -0.63739 0 0.770541
    outer loop
      vertex 16.2056 -8.2 13.1003
      vertex 16.6402 -14.2 13.4598
      vertex 16.6402 -8.2 13.4598
    endloop
  endfacet
  facet normal -0.63739 0 0.770541
    outer loop
      vertex 16.6402 -14.2 13.4598
      vertex 16.2056 -8.2 13.1003
      vertex 16.2056 -14.2 13.1003
    endloop
  endfacet
  facet normal -0.992113 0 0.125344
    outer loop
      vertex 17.1793 -14.2 14.4404
      vertex 17.25 -8.2 15
      vertex 17.1793 -8.2 14.4404
    endloop
  endfacet
  facet normal -0.992113 0 0.125344
    outer loop
      vertex 17.25 -8.2 15
      vertex 17.1793 -14.2 14.4404
      vertex 17.25 -14.2 15
    endloop
  endfacet
  facet normal 0.876298 0 -0.481769
    outer loop
      vertex 13.1797 -14.2 16.3225
      vertex 12.908 -8.2 15.8283
      vertex 13.1797 -8.2 16.3225
    endloop
  endfacet
  facet normal 0.876298 0 -0.481769
    outer loop
      vertex 12.908 -8.2 15.8283
      vertex 13.1797 -14.2 16.3225
      vertex 12.908 -14.2 15.8283
    endloop
  endfacet
  facet normal 0.0629412 0 -0.998017
    outer loop
      vertex 14.5784 -14.2 17.2101
      vertex 15.1413 -8.2 17.2456
      vertex 15.1413 -14.2 17.2456
    endloop
  endfacet
  facet normal 0.0629412 0 -0.998017
    outer loop
      vertex 15.1413 -8.2 17.2456
      vertex 14.5784 -14.2 17.2101
      vertex 14.5784 -8.2 17.2101
    endloop
  endfacet
  facet normal 0.0629412 0 0.998017
    outer loop
      vertex 14.5784 -8.2 12.7899
      vertex 15.1413 -14.2 12.7544
      vertex 15.1413 -8.2 12.7544
    endloop
  endfacet
  facet normal 0.0629412 0 0.998017
    outer loop
      vertex 15.1413 -14.2 12.7544
      vertex 14.5784 -8.2 12.7899
      vertex 14.5784 -14.2 12.7899
    endloop
  endfacet
  facet normal 0.53582 0 0.844333
    outer loop
      vertex 13.5658 -8.2 13.2663
      vertex 14.042 -14.2 12.9641
      vertex 14.042 -8.2 12.9641
    endloop
  endfacet
  facet normal 0.53582 0 0.844333
    outer loop
      vertex 14.042 -14.2 12.9641
      vertex 13.5658 -8.2 13.2663
      vertex 13.5658 -14.2 13.2663
    endloop
  endfacet
  facet normal 0.876298 -0 0.481769
    outer loop
      vertex 12.908 -14.2 14.1717
      vertex 13.1797 -8.2 13.6775
      vertex 12.908 -8.2 14.1717
    endloop
  endfacet
  facet normal 0.876298 0 0.481769
    outer loop
      vertex 13.1797 -8.2 13.6775
      vertex 12.908 -14.2 14.1717
      vertex 13.1797 -14.2 13.6775
    endloop
  endfacet
  facet normal 0.968569 -0 0.248746
    outer loop
      vertex 12.7677 -14.2 14.718
      vertex 12.908 -8.2 14.1717
      vertex 12.7677 -8.2 14.718
    endloop
  endfacet
  facet normal 0.968569 0 0.248746
    outer loop
      vertex 12.908 -8.2 14.1717
      vertex 12.7677 -14.2 14.718
      vertex 12.908 -14.2 14.1717
    endloop
  endfacet
  facet normal 0.53582 0 -0.844333
    outer loop
      vertex 13.5658 -14.2 16.7337
      vertex 14.042 -8.2 17.0359
      vertex 14.042 -14.2 17.0359
    endloop
  endfacet
  facet normal 0.53582 0 -0.844333
    outer loop
      vertex 14.042 -8.2 17.0359
      vertex 13.5658 -14.2 16.7337
      vertex 13.5658 -8.2 16.7337
    endloop
  endfacet
  facet normal 0.729006 0 -0.684507
    outer loop
      vertex 13.5658 -14.2 16.7337
      vertex 13.1797 -8.2 16.3225
      vertex 13.5658 -8.2 16.7337
    endloop
  endfacet
  facet normal 0.729006 0 -0.684507
    outer loop
      vertex 13.1797 -8.2 16.3225
      vertex 13.5658 -14.2 16.7337
      vertex 13.1797 -14.2 16.3225
    endloop
  endfacet
  facet normal 0.729006 -0 0.684507
    outer loop
      vertex 13.1797 -14.2 13.6775
      vertex 13.5658 -8.2 13.2663
      vertex 13.1797 -8.2 13.6775
    endloop
  endfacet
  facet normal 0.729006 0 0.684507
    outer loop
      vertex 13.5658 -8.2 13.2663
      vertex 13.1797 -14.2 13.6775
      vertex 13.5658 -14.2 13.2663
    endloop
  endfacet
  facet normal 0.968569 0 -0.248746
    outer loop
      vertex 12.908 -14.2 15.8283
      vertex 12.7677 -8.2 15.282
      vertex 12.908 -8.2 15.8283
    endloop
  endfacet
  facet normal 0.968569 0 -0.248746
    outer loop
      vertex 12.7677 -8.2 15.282
      vertex 12.908 -14.2 15.8283
      vertex 12.7677 -14.2 15.282
    endloop
  endfacet
  facet normal -0.929767 0 -0.368147
    outer loop
      vertex 17.1793 -14.2 15.5596
      vertex 16.9717 -8.2 16.0839
      vertex 17.1793 -8.2 15.5596
    endloop
  endfacet
  facet normal -0.929767 -0 -0.368147
    outer loop
      vertex 16.9717 -8.2 16.0839
      vertex 17.1793 -14.2 15.5596
      vertex 16.9717 -14.2 16.0839
    endloop
  endfacet
  facet normal 0.308878 0 -0.951102
    outer loop
      vertex 14.042 -14.2 17.0359
      vertex 14.5784 -8.2 17.2101
      vertex 14.5784 -14.2 17.2101
    endloop
  endfacet
  facet normal 0.308878 0 -0.951102
    outer loop
      vertex 14.5784 -8.2 17.2101
      vertex 14.042 -14.2 17.0359
      vertex 14.042 -8.2 17.0359
    endloop
  endfacet
endsolid OpenSCAD_Model
