solid OpenSCAD_Model
  facet normal 1 0 0
    outer loop
      vertex 196 0 1
      vertex 196 5 3
      vertex 196 0 3
    endloop
  endfacet
  facet normal 1 0 0
    outer loop
      vertex 196 5 3
      vertex 196 0 1
      vertex 196 5 0
    endloop
  endfacet
  facet normal 1 0 0
    outer loop
      vertex 196 -145.455 0
      vertex 196 0 1
      vertex 196 -145.455 1
    endloop
  endfacet
  facet normal 1 0 0
    outer loop
      vertex 196 0 1
      vertex 196 -145.455 0
      vertex 196 5 0
    endloop
  endfacet
  facet normal -0 0 1
    outer loop
      vertex 160 5 3
      vertex 196 0 3
      vertex 196 5 3
    endloop
  endfacet
  facet normal 0 0 1
    outer loop
      vertex 196 0 3
      vertex 160 5 3
      vertex 160 0 3
    endloop
  endfacet
  facet normal 0 0 -1
    outer loop
      vertex 172 -145.455 0
      vertex 150 -145.455 0
      vertex 172 0 0
    endloop
  endfacet
  facet normal 0 0 -1
    outer loop
      vertex 174 0 0
      vertex 196 -145.455 0
      vertex 174 -145.455 0
    endloop
  endfacet
  facet normal 0 0 -1
    outer loop
      vertex 196 -145.455 0
      vertex 174 0 0
      vertex 196 5 0
    endloop
  endfacet
  facet normal 0 0 -1
    outer loop
      vertex 172 0 0
      vertex 196 5 0
      vertex 174 0 0
    endloop
  endfacet
  facet normal 0 0 -1
    outer loop
      vertex 172 0 0
      vertex 150 5 0
      vertex 196 5 0
    endloop
  endfacet
  facet normal 0 0 -1
    outer loop
      vertex 150 5 0
      vertex 172 0 0
      vertex 150 -145.455 0
    endloop
  endfacet
  facet normal -1 0 0
    outer loop
      vertex 150 5 0
      vertex 150 0 1
      vertex 150 5 1.5
    endloop
  endfacet
  facet normal -1 0 0
    outer loop
      vertex 150 -145.455 0
      vertex 150 0 1
      vertex 150 5 0
    endloop
  endfacet
  facet normal -1 -0 0
    outer loop
      vertex 150 0 1
      vertex 150 -145.455 0
      vertex 150 -145.455 1
    endloop
  endfacet
  facet normal -1 -0 0
    outer loop
      vertex 150 5 1.5
      vertex 150 0 1
      vertex 150 0 1.5
    endloop
  endfacet
  facet normal 0 1 0
    outer loop
      vertex 196 5 3
      vertex 160 5 1.5
      vertex 160 5 3
    endloop
  endfacet
  facet normal 0 1 -0
    outer loop
      vertex 196 5 0
      vertex 160 5 1.5
      vertex 196 5 3
    endloop
  endfacet
  facet normal 0 1 0
    outer loop
      vertex 150 5 0
      vertex 160 5 1.5
      vertex 196 5 0
    endloop
  endfacet
  facet normal 0 1 0
    outer loop
      vertex 160 5 1.5
      vertex 150 5 0
      vertex 150 5 1.5
    endloop
  endfacet
  facet normal 0 -1 0
    outer loop
      vertex 150 0 1.5
      vertex 150 0 1
      vertex 160 0 1.5
    endloop
  endfacet
  facet normal 0 -1 0
    outer loop
      vertex 172 0 1
      vertex 160 0 3
      vertex 160 0 1.5
    endloop
  endfacet
  facet normal 0 -1 0
    outer loop
      vertex 172 0 1
      vertex 160 0 1.5
      vertex 150 0 1
    endloop
  endfacet
  facet normal 0 -1 0
    outer loop
      vertex 174 0 1
      vertex 160 0 3
      vertex 172 0 1
    endloop
  endfacet
  facet normal 0 -1 0
    outer loop
      vertex 160 0 3
      vertex 174 0 1
      vertex 196 0 3
    endloop
  endfacet
  facet normal 0 -1 -0
    outer loop
      vertex 196 0 3
      vertex 174 0 1
      vertex 196 0 1
    endloop
  endfacet
  facet normal 0 -1 0
    outer loop
      vertex 172 0 0
      vertex 174 0 1
      vertex 172 0 1
    endloop
  endfacet
  facet normal 0 -1 -0
    outer loop
      vertex 174 0 1
      vertex 172 0 0
      vertex 174 0 0
    endloop
  endfacet
  facet normal 1 -0 0
    outer loop
      vertex 172 -145.455 1
      vertex 172 0 0
      vertex 172 0 1
    endloop
  endfacet
  facet normal 1 0 0
    outer loop
      vertex 172 0 0
      vertex 172 -145.455 1
      vertex 172 -145.455 0
    endloop
  endfacet
  facet normal -0 0 1
    outer loop
      vertex 150 0 1
      vertex 172 -145.455 1
      vertex 172 0 1
    endloop
  endfacet
  facet normal 0 0 1
    outer loop
      vertex 172 -145.455 1
      vertex 150 0 1
      vertex 150 -145.455 1
    endloop
  endfacet
  facet normal 0 -1 0
    outer loop
      vertex 150 -145.455 0
      vertex 172 -145.455 1
      vertex 150 -145.455 1
    endloop
  endfacet
  facet normal 0 -1 -0
    outer loop
      vertex 172 -145.455 1
      vertex 150 -145.455 0
      vertex 172 -145.455 0
    endloop
  endfacet
  facet normal -0 0 1
    outer loop
      vertex 174 0 1
      vertex 196 -145.455 1
      vertex 196 0 1
    endloop
  endfacet
  facet normal 0 0 1
    outer loop
      vertex 196 -145.455 1
      vertex 174 0 1
      vertex 174 -145.455 1
    endloop
  endfacet
  facet normal -1 0 0
    outer loop
      vertex 174 -145.455 0
      vertex 174 0 1
      vertex 174 0 0
    endloop
  endfacet
  facet normal -1 -0 0
    outer loop
      vertex 174 0 1
      vertex 174 -145.455 0
      vertex 174 -145.455 1
    endloop
  endfacet
  facet normal 0 -1 0
    outer loop
      vertex 174 -145.455 0
      vertex 196 -145.455 1
      vertex 174 -145.455 1
    endloop
  endfacet
  facet normal 0 -1 -0
    outer loop
      vertex 196 -145.455 1
      vertex 174 -145.455 0
      vertex 196 -145.455 0
    endloop
  endfacet
  facet normal -1 0 0
    outer loop
      vertex 160 0 1.5
      vertex 160 5 3
      vertex 160 5 1.5
    endloop
  endfacet
  facet normal -1 -0 0
    outer loop
      vertex 160 5 3
      vertex 160 0 1.5
      vertex 160 0 3
    endloop
  endfacet
  facet normal -0 0 1
    outer loop
      vertex 150 5 1.5
      vertex 160 0 1.5
      vertex 160 5 1.5
    endloop
  endfacet
  facet normal 0 0 1
    outer loop
      vertex 160 0 1.5
      vertex 150 5 1.5
      vertex 150 0 1.5
    endloop
  endfacet
endsolid OpenSCAD_Model
