solid OpenSCAD_Model
  facet normal 1 0 0
    outer loop
      vertex 196 0 1
      vertex 196 5 3
      vertex 196 0 3
    endloop
  endfacet
  facet normal 1 0 0
    outer loop
      vertex 196 5 3
      vertex 196 0 1
      vertex 196 5 0
    endloop
  endfacet
  facet normal 1 0 0
    outer loop
      vertex 196 -145.455 0
      vertex 196 0 1
      vertex 196 -145.455 1
    endloop
  endfacet
  facet normal 1 0 0
    outer loop
      vertex 196 0 1
      vertex 196 -145.455 0
      vertex 196 5 0
    endloop
  endfacet
  facet normal 0 0 1
    outer loop
      vertex 196 5 3
      vertex 4.2985 0 3
      vertex 196 0 3
    endloop
  endfacet
  facet normal -0 0 1
    outer loop
      vertex 4.2985 5 3
      vertex 4.2985 0 3
      vertex 196 5 3
    endloop
  endfacet
  facet normal 0 0 1
    outer loop
      vertex 3.34565 6.21572 3
      vertex 4.2985 5 3
      vertex 4.04508 5.43893 3
    endloop
  endfacet
  facet normal 0 0 1
    outer loop
      vertex 2.5 6.83013 3
      vertex 4.2985 5 3
      vertex 3.34565 6.21572 3
    endloop
  endfacet
  facet normal 0 0 1
    outer loop
      vertex 1.54508 7.25528 3
      vertex 4.2985 5 3
      vertex 2.5 6.83013 3
    endloop
  endfacet
  facet normal 0 0 1
    outer loop
      vertex 4.2985 0 3
      vertex 3.34565 -1.21572 3
      vertex 4.04508 -0.438926 3
    endloop
  endfacet
  facet normal 0 0 1
    outer loop
      vertex 4.2985 5 3
      vertex 1.54508 7.25528 3
      vertex 4.2985 0 3
    endloop
  endfacet
  facet normal 0 0 1
    outer loop
      vertex 4.2985 0 3
      vertex 2.5 -1.83013 3
      vertex 3.34565 -1.21572 3
    endloop
  endfacet
  facet normal 0 0 1
    outer loop
      vertex 1.54508 -2.25528 3
      vertex 4.2985 0 3
      vertex 1.54508 7.25528 3
    endloop
  endfacet
  facet normal 0 0 1
    outer loop
      vertex 4.2985 0 3
      vertex 1.54508 -2.25528 3
      vertex 2.5 -1.83013 3
    endloop
  endfacet
  facet normal 0 0 1
    outer loop
      vertex 0.522642 7.47261 3
      vertex 1.54508 -2.25528 3
      vertex 1.54508 7.25528 3
    endloop
  endfacet
  facet normal 0 0 1
    outer loop
      vertex 0.522642 7.47261 3
      vertex 0.522642 -2.47261 3
      vertex 1.54508 -2.25528 3
    endloop
  endfacet
  facet normal -0 0 1
    outer loop
      vertex -0.522642 7.47261 3
      vertex 0.522642 -2.47261 3
      vertex 0.522642 7.47261 3
    endloop
  endfacet
  facet normal 0 0 1
    outer loop
      vertex -0.522642 7.47261 3
      vertex -0.522642 -2.47261 3
      vertex 0.522642 -2.47261 3
    endloop
  endfacet
  facet normal -0 0 1
    outer loop
      vertex -1.54508 7.25528 3
      vertex -0.522642 -2.47261 3
      vertex -0.522642 7.47261 3
    endloop
  endfacet
  facet normal 0 0 1
    outer loop
      vertex -1.54508 7.25528 3
      vertex -1.54508 -2.25528 3
      vertex -0.522642 -2.47261 3
    endloop
  endfacet
  facet normal -0 0 1
    outer loop
      vertex -2.5 6.83013 3
      vertex -1.54508 -2.25528 3
      vertex -1.54508 7.25528 3
    endloop
  endfacet
  facet normal 0 0 1
    outer loop
      vertex -2.5 6.83013 3
      vertex -2.5 -1.83013 3
      vertex -1.54508 -2.25528 3
    endloop
  endfacet
  facet normal -0 0 1
    outer loop
      vertex -3.34565 6.21572 3
      vertex -2.5 -1.83013 3
      vertex -2.5 6.83013 3
    endloop
  endfacet
  facet normal 0 0 1
    outer loop
      vertex -3.34565 6.21572 3
      vertex -3.34565 -1.21572 3
      vertex -2.5 -1.83013 3
    endloop
  endfacet
  facet normal -0 0 1
    outer loop
      vertex -4.04508 5.43893 3
      vertex -3.34565 -1.21572 3
      vertex -3.34565 6.21572 3
    endloop
  endfacet
  facet normal 0 0 1
    outer loop
      vertex -4.04508 5.43893 3
      vertex -4.04508 -0.438926 3
      vertex -3.34565 -1.21572 3
    endloop
  endfacet
  facet normal -0 0 1
    outer loop
      vertex -4.56773 4.53368 3
      vertex -4.04508 -0.438926 3
      vertex -4.04508 5.43893 3
    endloop
  endfacet
  facet normal 0 0 1
    outer loop
      vertex -4.56773 4.53368 3
      vertex -4.56773 0.466316 3
      vertex -4.04508 -0.438926 3
    endloop
  endfacet
  facet normal -0 0 1
    outer loop
      vertex -4.89074 3.53956 3
      vertex -4.56773 0.466316 3
      vertex -4.56773 4.53368 3
    endloop
  endfacet
  facet normal 0 0 1
    outer loop
      vertex -4.89074 3.53956 3
      vertex -4.89074 1.46044 3
      vertex -4.56773 0.466316 3
    endloop
  endfacet
  facet normal 0 -0 1
    outer loop
      vertex -4.89074 1.46044 3
      vertex -4.89074 3.53956 3
      vertex -5 2.5 3
    endloop
  endfacet
  facet normal 0 0 -1
    outer loop
      vertex 172 -145.455 0
      vertex 150 -145.455 0
      vertex 172 0 0
    endloop
  endfacet
  facet normal 0 0 -1
    outer loop
      vertex 174 0 0
      vertex 196 -145.455 0
      vertex 174 -145.455 0
    endloop
  endfacet
  facet normal 0 0 -1
    outer loop
      vertex 196 -145.455 0
      vertex 174 0 0
      vertex 196 5 0
    endloop
  endfacet
  facet normal 0 0 -1
    outer loop
      vertex 172 0 0
      vertex 196 5 0
      vertex 174 0 0
    endloop
  endfacet
  facet normal 0 0 -1
    outer loop
      vertex 150 0 0
      vertex 172 0 0
      vertex 150 -145.455 0
    endloop
  endfacet
  facet normal 0 0 -1
    outer loop
      vertex 150 0 0
      vertex 196 5 0
      vertex 172 0 0
    endloop
  endfacet
  facet normal 0 0 -1
    outer loop
      vertex 4.2985 5 0
      vertex 150 0 0
      vertex 4.2985 0 0
    endloop
  endfacet
  facet normal 0 0 -1
    outer loop
      vertex 150 0 0
      vertex 4.2985 5 0
      vertex 196 5 0
    endloop
  endfacet
  facet normal 0 0 -1
    outer loop
      vertex 3.34565 -1.21572 0
      vertex 4.2985 0 0
      vertex 4.04508 -0.438926 0
    endloop
  endfacet
  facet normal 0 0 -1
    outer loop
      vertex 2.5 -1.83013 0
      vertex 4.2985 0 0
      vertex 3.34565 -1.21572 0
    endloop
  endfacet
  facet normal 0 0 -1
    outer loop
      vertex 1.54508 -2.25528 0
      vertex 4.2985 0 0
      vertex 2.5 -1.83013 0
    endloop
  endfacet
  facet normal 0 0 -1
    outer loop
      vertex 4.2985 5 0
      vertex 3.34565 6.21572 0
      vertex 4.04508 5.43893 0
    endloop
  endfacet
  facet normal -0 0 -1
    outer loop
      vertex 4.2985 0 0
      vertex 1.54508 -2.25528 0
      vertex 4.2985 5 0
    endloop
  endfacet
  facet normal 0 0 -1
    outer loop
      vertex 4.2985 5 0
      vertex 2.5 6.83013 0
      vertex 3.34565 6.21572 0
    endloop
  endfacet
  facet normal 0 0 -1
    outer loop
      vertex 1.54508 7.25528 0
      vertex 4.2985 5 0
      vertex 1.54508 -2.25528 0
    endloop
  endfacet
  facet normal 0 0 -1
    outer loop
      vertex 4.2985 5 0
      vertex 1.54508 7.25528 0
      vertex 2.5 6.83013 0
    endloop
  endfacet
  facet normal 0 0 -1
    outer loop
      vertex 0.522642 -2.47261 0
      vertex 1.54508 7.25528 0
      vertex 1.54508 -2.25528 0
    endloop
  endfacet
  facet normal 0 0 -1
    outer loop
      vertex 0.522642 -2.47261 0
      vertex 0.522642 7.47261 0
      vertex 1.54508 7.25528 0
    endloop
  endfacet
  facet normal 0 0 -1
    outer loop
      vertex -0.522642 -2.47261 0
      vertex 0.522642 7.47261 0
      vertex 0.522642 -2.47261 0
    endloop
  endfacet
  facet normal 0 0 -1
    outer loop
      vertex -0.522642 -2.47261 0
      vertex -0.522642 7.47261 0
      vertex 0.522642 7.47261 0
    endloop
  endfacet
  facet normal 0 0 -1
    outer loop
      vertex -1.54508 -2.25528 0
      vertex -0.522642 7.47261 0
      vertex -0.522642 -2.47261 0
    endloop
  endfacet
  facet normal 0 0 -1
    outer loop
      vertex -1.54508 -2.25528 0
      vertex -1.54508 7.25528 0
      vertex -0.522642 7.47261 0
    endloop
  endfacet
  facet normal 0 0 -1
    outer loop
      vertex -2.5 -1.83013 0
      vertex -1.54508 7.25528 0
      vertex -1.54508 -2.25528 0
    endloop
  endfacet
  facet normal 0 0 -1
    outer loop
      vertex -2.5 -1.83013 0
      vertex -2.5 6.83013 0
      vertex -1.54508 7.25528 0
    endloop
  endfacet
  facet normal 0 0 -1
    outer loop
      vertex -3.34565 -1.21572 0
      vertex -2.5 6.83013 0
      vertex -2.5 -1.83013 0
    endloop
  endfacet
  facet normal 0 0 -1
    outer loop
      vertex -3.34565 -1.21572 0
      vertex -3.34565 6.21572 0
      vertex -2.5 6.83013 0
    endloop
  endfacet
  facet normal 0 0 -1
    outer loop
      vertex -4.04508 -0.438926 0
      vertex -3.34565 6.21572 0
      vertex -3.34565 -1.21572 0
    endloop
  endfacet
  facet normal 0 0 -1
    outer loop
      vertex -4.04508 -0.438926 0
      vertex -4.04508 5.43893 0
      vertex -3.34565 6.21572 0
    endloop
  endfacet
  facet normal 0 0 -1
    outer loop
      vertex -4.56773 0.466316 0
      vertex -4.04508 5.43893 0
      vertex -4.04508 -0.438926 0
    endloop
  endfacet
  facet normal 0 0 -1
    outer loop
      vertex -4.56773 0.466316 0
      vertex -4.56773 4.53368 0
      vertex -4.04508 5.43893 0
    endloop
  endfacet
  facet normal 0 0 -1
    outer loop
      vertex -4.89074 1.46044 0
      vertex -4.56773 4.53368 0
      vertex -4.56773 0.466316 0
    endloop
  endfacet
  facet normal 0 0 -1
    outer loop
      vertex -4.89074 1.46044 0
      vertex -4.89074 3.53956 0
      vertex -4.56773 4.53368 0
    endloop
  endfacet
  facet normal 0 -0 -1
    outer loop
      vertex -4.89074 3.53956 0
      vertex -4.89074 1.46044 0
      vertex -5 2.5 0
    endloop
  endfacet
  facet normal 0 1 -0
    outer loop
      vertex 196 5 0
      vertex 4.2985 5 3
      vertex 196 5 3
    endloop
  endfacet
  facet normal 0 1 0
    outer loop
      vertex 4.2985 5 3
      vertex 196 5 0
      vertex 4.2985 5 0
    endloop
  endfacet
  facet normal 0 -1 0
    outer loop
      vertex 172 0 0
      vertex 174 0 1
      vertex 172 0 1
    endloop
  endfacet
  facet normal 0 -1 -0
    outer loop
      vertex 174 0 1
      vertex 172 0 0
      vertex 174 0 0
    endloop
  endfacet
  facet normal 0 -1 0
    outer loop
      vertex 4.2985 0 3
      vertex 150 0 1
      vertex 196 0 3
    endloop
  endfacet
  facet normal 0 -1 0
    outer loop
      vertex 4.2985 0 0
      vertex 150 0 1
      vertex 4.2985 0 3
    endloop
  endfacet
  facet normal 0 -1 -0
    outer loop
      vertex 150 0 1
      vertex 4.2985 0 0
      vertex 150 0 0
    endloop
  endfacet
  facet normal 0 -1 0
    outer loop
      vertex 172 0 1
      vertex 196 0 3
      vertex 150 0 1
    endloop
  endfacet
  facet normal 0 -1 0
    outer loop
      vertex 174 0 1
      vertex 196 0 3
      vertex 172 0 1
    endloop
  endfacet
  facet normal 0 -1 -0
    outer loop
      vertex 196 0 3
      vertex 174 0 1
      vertex 196 0 1
    endloop
  endfacet
  facet normal 0.866022 0.500005 0
    outer loop
      vertex 4.2985 5 3
      vertex 4.04508 5.43893 0
      vertex 4.04508 5.43893 3
    endloop
  endfacet
  facet normal 0.866022 0.500005 0
    outer loop
      vertex 4.04508 5.43893 0
      vertex 4.2985 5 3
      vertex 4.2985 5 0
    endloop
  endfacet
  facet normal 0.743144 -0.669131 0
    outer loop
      vertex 3.34565 -1.21572 3
      vertex 4.04508 -0.438926 0
      vertex 4.04508 -0.438926 3
    endloop
  endfacet
  facet normal 0.743144 -0.669131 0
    outer loop
      vertex 4.04508 -0.438926 0
      vertex 3.34565 -1.21572 3
      vertex 3.34565 -1.21572 0
    endloop
  endfacet
  facet normal 0.40673 -0.913548 0
    outer loop
      vertex 1.54508 -2.25528 0
      vertex 2.5 -1.83013 3
      vertex 1.54508 -2.25528 3
    endloop
  endfacet
  facet normal 0.40673 -0.913548 0
    outer loop
      vertex 2.5 -1.83013 3
      vertex 1.54508 -2.25528 0
      vertex 2.5 -1.83013 0
    endloop
  endfacet
  facet normal 0.743142 0.669133 0
    outer loop
      vertex 4.04508 5.43893 3
      vertex 3.34565 6.21572 0
      vertex 3.34565 6.21572 3
    endloop
  endfacet
  facet normal 0.743142 0.669133 0
    outer loop
      vertex 3.34565 6.21572 0
      vertex 4.04508 5.43893 3
      vertex 4.04508 5.43893 0
    endloop
  endfacet
  facet normal -0.40673 0.913548 0
    outer loop
      vertex -1.54508 7.25528 0
      vertex -2.5 6.83013 3
      vertex -1.54508 7.25528 3
    endloop
  endfacet
  facet normal -0.40673 0.913548 0
    outer loop
      vertex -2.5 6.83013 3
      vertex -1.54508 7.25528 0
      vertex -2.5 6.83013 0
    endloop
  endfacet
  facet normal 0.587791 -0.809013 0
    outer loop
      vertex 2.5 -1.83013 0
      vertex 3.34565 -1.21572 3
      vertex 2.5 -1.83013 3
    endloop
  endfacet
  facet normal 0.587791 -0.809013 0
    outer loop
      vertex 3.34565 -1.21572 3
      vertex 2.5 -1.83013 0
      vertex 3.34565 -1.21572 0
    endloop
  endfacet
  facet normal -0.207915 0.978147 0
    outer loop
      vertex -0.522642 7.47261 0
      vertex -1.54508 7.25528 3
      vertex -0.522642 7.47261 3
    endloop
  endfacet
  facet normal -0.207915 0.978147 0
    outer loop
      vertex -1.54508 7.25528 3
      vertex -0.522642 7.47261 0
      vertex -1.54508 7.25528 0
    endloop
  endfacet
  facet normal -0.994522 -0.104526 0
    outer loop
      vertex -4.89074 1.46044 0
      vertex -5 2.5 3
      vertex -5 2.5 0
    endloop
  endfacet
  facet normal -0.994522 -0.104526 0
    outer loop
      vertex -5 2.5 3
      vertex -4.89074 1.46044 0
      vertex -4.89074 1.46044 3
    endloop
  endfacet
  facet normal -0.951056 0.309018 0
    outer loop
      vertex -4.89074 3.53956 0
      vertex -4.56773 4.53368 3
      vertex -4.56773 4.53368 0
    endloop
  endfacet
  facet normal -0.951056 0.309018 0
    outer loop
      vertex -4.56773 4.53368 3
      vertex -4.89074 3.53956 0
      vertex -4.89074 3.53956 3
    endloop
  endfacet
  facet normal -0.40673 -0.913548 0
    outer loop
      vertex -2.5 -1.83013 0
      vertex -1.54508 -2.25528 3
      vertex -2.5 -1.83013 3
    endloop
  endfacet
  facet normal -0.40673 -0.913548 -0
    outer loop
      vertex -1.54508 -2.25528 3
      vertex -2.5 -1.83013 0
      vertex -1.54508 -2.25528 0
    endloop
  endfacet
  facet normal -0.866024 0.500003 0
    outer loop
      vertex -4.56773 4.53368 0
      vertex -4.04508 5.43893 3
      vertex -4.04508 5.43893 0
    endloop
  endfacet
  facet normal -0.866024 0.500003 0
    outer loop
      vertex -4.04508 5.43893 3
      vertex -4.56773 4.53368 0
      vertex -4.56773 4.53368 3
    endloop
  endfacet
  facet normal 0.207915 0.978147 -0
    outer loop
      vertex 1.54508 7.25528 0
      vertex 0.522642 7.47261 3
      vertex 1.54508 7.25528 3
    endloop
  endfacet
  facet normal 0.207915 0.978147 0
    outer loop
      vertex 0.522642 7.47261 3
      vertex 1.54508 7.25528 0
      vertex 0.522642 7.47261 0
    endloop
  endfacet
  facet normal -0.587791 0.809013 0
    outer loop
      vertex -2.5 6.83013 0
      vertex -3.34565 6.21572 3
      vertex -2.5 6.83013 3
    endloop
  endfacet
  facet normal -0.587791 0.809013 0
    outer loop
      vertex -3.34565 6.21572 3
      vertex -2.5 6.83013 0
      vertex -3.34565 6.21572 0
    endloop
  endfacet
  facet normal -0.207915 -0.978147 0
    outer loop
      vertex -1.54508 -2.25528 0
      vertex -0.522642 -2.47261 3
      vertex -1.54508 -2.25528 3
    endloop
  endfacet
  facet normal -0.207915 -0.978147 -0
    outer loop
      vertex -0.522642 -2.47261 3
      vertex -1.54508 -2.25528 0
      vertex -0.522642 -2.47261 0
    endloop
  endfacet
  facet normal 0.587791 0.809013 -0
    outer loop
      vertex 3.34565 6.21572 0
      vertex 2.5 6.83013 3
      vertex 3.34565 6.21572 3
    endloop
  endfacet
  facet normal 0.587791 0.809013 0
    outer loop
      vertex 2.5 6.83013 3
      vertex 3.34565 6.21572 0
      vertex 2.5 6.83013 0
    endloop
  endfacet
  facet normal 0.207915 -0.978147 0
    outer loop
      vertex 0.522642 -2.47261 0
      vertex 1.54508 -2.25528 3
      vertex 0.522642 -2.47261 3
    endloop
  endfacet
  facet normal 0.207915 -0.978147 0
    outer loop
      vertex 1.54508 -2.25528 3
      vertex 0.522642 -2.47261 0
      vertex 1.54508 -2.25528 0
    endloop
  endfacet
  facet normal -0.587791 -0.809013 0
    outer loop
      vertex -3.34565 -1.21572 0
      vertex -2.5 -1.83013 3
      vertex -3.34565 -1.21572 3
    endloop
  endfacet
  facet normal -0.587791 -0.809013 -0
    outer loop
      vertex -2.5 -1.83013 3
      vertex -3.34565 -1.21572 0
      vertex -2.5 -1.83013 0
    endloop
  endfacet
  facet normal -0.743142 0.669133 0
    outer loop
      vertex -4.04508 5.43893 0
      vertex -3.34565 6.21572 3
      vertex -3.34565 6.21572 0
    endloop
  endfacet
  facet normal -0.743142 0.669133 0
    outer loop
      vertex -3.34565 6.21572 3
      vertex -4.04508 5.43893 0
      vertex -4.04508 5.43893 3
    endloop
  endfacet
  facet normal 0.40673 0.913548 -0
    outer loop
      vertex 2.5 6.83013 0
      vertex 1.54508 7.25528 3
      vertex 2.5 6.83013 3
    endloop
  endfacet
  facet normal 0.40673 0.913548 0
    outer loop
      vertex 1.54508 7.25528 3
      vertex 2.5 6.83013 0
      vertex 1.54508 7.25528 0
    endloop
  endfacet
  facet normal 0.86602 -0.500009 0
    outer loop
      vertex 4.04508 -0.438926 3
      vertex 4.2985 0 0
      vertex 4.2985 0 3
    endloop
  endfacet
  facet normal 0.86602 -0.500009 0
    outer loop
      vertex 4.2985 0 0
      vertex 4.04508 -0.438926 3
      vertex 4.04508 -0.438926 0
    endloop
  endfacet
  facet normal -0.743144 -0.669131 0
    outer loop
      vertex -3.34565 -1.21572 0
      vertex -4.04508 -0.438926 3
      vertex -4.04508 -0.438926 0
    endloop
  endfacet
  facet normal -0.743144 -0.669131 0
    outer loop
      vertex -4.04508 -0.438926 3
      vertex -3.34565 -1.21572 0
      vertex -3.34565 -1.21572 3
    endloop
  endfacet
  facet normal -0.866022 -0.500006 0
    outer loop
      vertex -4.04508 -0.438926 0
      vertex -4.56773 0.466316 3
      vertex -4.56773 0.466316 0
    endloop
  endfacet
  facet normal -0.866022 -0.500006 0
    outer loop
      vertex -4.56773 0.466316 3
      vertex -4.04508 -0.438926 0
      vertex -4.04508 -0.438926 3
    endloop
  endfacet
  facet normal -0.951057 -0.309017 0
    outer loop
      vertex -4.56773 0.466316 0
      vertex -4.89074 1.46044 3
      vertex -4.89074 1.46044 0
    endloop
  endfacet
  facet normal -0.951057 -0.309017 0
    outer loop
      vertex -4.89074 1.46044 3
      vertex -4.56773 0.466316 0
      vertex -4.56773 0.466316 3
    endloop
  endfacet
  facet normal -0.994522 0.104526 0
    outer loop
      vertex -5 2.5 0
      vertex -4.89074 3.53956 3
      vertex -4.89074 3.53956 0
    endloop
  endfacet
  facet normal -0.994522 0.104526 0
    outer loop
      vertex -4.89074 3.53956 3
      vertex -5 2.5 0
      vertex -5 2.5 3
    endloop
  endfacet
  facet normal 0 -1 0
    outer loop
      vertex -0.522642 -2.47261 0
      vertex 0.522642 -2.47261 3
      vertex -0.522642 -2.47261 3
    endloop
  endfacet
  facet normal 0 -1 -0
    outer loop
      vertex 0.522642 -2.47261 3
      vertex -0.522642 -2.47261 0
      vertex 0.522642 -2.47261 0
    endloop
  endfacet
  facet normal 0 1 -0
    outer loop
      vertex 0.522642 7.47261 0
      vertex -0.522642 7.47261 3
      vertex 0.522642 7.47261 3
    endloop
  endfacet
  facet normal 0 1 0
    outer loop
      vertex -0.522642 7.47261 3
      vertex 0.522642 7.47261 0
      vertex -0.522642 7.47261 0
    endloop
  endfacet
  facet normal 1 -0 0
    outer loop
      vertex 172 -145.455 1
      vertex 172 0 0
      vertex 172 0 1
    endloop
  endfacet
  facet normal 1 0 0
    outer loop
      vertex 172 0 0
      vertex 172 -145.455 1
      vertex 172 -145.455 0
    endloop
  endfacet
  facet normal -0 0 1
    outer loop
      vertex 150 0 1
      vertex 172 -145.455 1
      vertex 172 0 1
    endloop
  endfacet
  facet normal 0 0 1
    outer loop
      vertex 172 -145.455 1
      vertex 150 0 1
      vertex 150 -145.455 1
    endloop
  endfacet
  facet normal -1 0 0
    outer loop
      vertex 150 -145.455 0
      vertex 150 0 1
      vertex 150 0 0
    endloop
  endfacet
  facet normal -1 -0 0
    outer loop
      vertex 150 0 1
      vertex 150 -145.455 0
      vertex 150 -145.455 1
    endloop
  endfacet
  facet normal 0 -1 0
    outer loop
      vertex 150 -145.455 0
      vertex 172 -145.455 1
      vertex 150 -145.455 1
    endloop
  endfacet
  facet normal 0 -1 -0
    outer loop
      vertex 172 -145.455 1
      vertex 150 -145.455 0
      vertex 172 -145.455 0
    endloop
  endfacet
  facet normal -0 0 1
    outer loop
      vertex 174 0 1
      vertex 196 -145.455 1
      vertex 196 0 1
    endloop
  endfacet
  facet normal 0 0 1
    outer loop
      vertex 196 -145.455 1
      vertex 174 0 1
      vertex 174 -145.455 1
    endloop
  endfacet
  facet normal -1 0 0
    outer loop
      vertex 174 -145.455 0
      vertex 174 0 1
      vertex 174 0 0
    endloop
  endfacet
  facet normal -1 -0 0
    outer loop
      vertex 174 0 1
      vertex 174 -145.455 0
      vertex 174 -145.455 1
    endloop
  endfacet
  facet normal 0 -1 0
    outer loop
      vertex 174 -145.455 0
      vertex 196 -145.455 1
      vertex 174 -145.455 1
    endloop
  endfacet
  facet normal 0 -1 -0
    outer loop
      vertex 196 -145.455 1
      vertex 174 -145.455 0
      vertex 196 -145.455 0
    endloop
  endfacet
endsolid OpenSCAD_Model
