solid OpenSCAD_Model
  facet normal 0 0 -1
    outer loop
      vertex 36 10 0
      vertex 13.8758 -2.44676 0
      vertex 14 3.71992 0
    endloop
  endfacet
  facet normal 0 0 -1
    outer loop
      vertex 11.8758 2.44676 0
      vertex 14 3.71992 0
      vertex 13.8758 -2.44676 0
    endloop
  endfacet
  facet normal 0 -0 -1
    outer loop
      vertex 12.1242 4.99324 0
      vertex 14 3.71992 0
      vertex 11.8758 2.44676 0
    endloop
  endfacet
  facet normal 0 0 -1
    outer loop
      vertex 11.8758 2.44676 0
      vertex 13.8758 -2.44676 0
      vertex 12.1242 -2.44676 0
    endloop
  endfacet
  facet normal 0 0 -1
    outer loop
      vertex 14 3.71992 0
      vertex 12.1242 4.99324 0
      vertex 13.8758 4.99324 0
    endloop
  endfacet
  facet normal 0 0 -1
    outer loop
      vertex 9.87581 -2.44676 0
      vertex 12.1242 -2.44676 0
      vertex 11.8758 -4.99324 0
    endloop
  endfacet
  facet normal 0 0 -1
    outer loop
      vertex 9.87581 -2.44676 0
      vertex 11.8758 -4.99324 0
      vertex 10.1242 -4.99324 0
    endloop
  endfacet
  facet normal 0 0 -1
    outer loop
      vertex 12.1242 -2.44676 0
      vertex 9.87581 -2.44676 0
      vertex 11.8758 2.44676 0
    endloop
  endfacet
  facet normal -0 0 -1
    outer loop
      vertex 11.8758 2.44676 0
      vertex 9.87581 -2.44676 0
      vertex 10.1242 2.44676 0
    endloop
  endfacet
  facet normal 0 0 -1
    outer loop
      vertex 7.87581 2.44676 0
      vertex 10.1242 2.44676 0
      vertex 9.87581 -2.44676 0
    endloop
  endfacet
  facet normal 0 0 -1
    outer loop
      vertex 10.1242 2.44676 0
      vertex 7.87581 2.44676 0
      vertex 9.87579 4.99324 0
    endloop
  endfacet
  facet normal 0 0 -1
    outer loop
      vertex 7.87581 2.44676 0
      vertex 9.87581 -2.44676 0
      vertex 8.12419 -2.44676 0
    endloop
  endfacet
  facet normal -0 0 -1
    outer loop
      vertex 9.87579 4.99324 0
      vertex 7.87581 2.44676 0
      vertex 8.12421 4.99324 0
    endloop
  endfacet
  facet normal 0 0 -1
    outer loop
      vertex 6 -3.71992 0
      vertex 8.12419 -2.44676 0
      vertex 7.87579 -4.99324 0
    endloop
  endfacet
  facet normal 0 0 -1
    outer loop
      vertex 6 -3.71992 0
      vertex 7.87579 -4.99324 0
      vertex 6.12421 -4.99324 0
    endloop
  endfacet
  facet normal 0 0 -1
    outer loop
      vertex 6 2.44676 0
      vertex 8.12419 -2.44676 0
      vertex 6 -3.71992 0
    endloop
  endfacet
  facet normal 0 0 -1
    outer loop
      vertex 8.12419 -2.44676 0
      vertex 6 2.44676 0
      vertex 7.87581 2.44676 0
    endloop
  endfacet
  facet normal 0 0 -1
    outer loop
      vertex 14 -3.71992 0
      vertex 36 -10 0
      vertex 14 -10 0
    endloop
  endfacet
  facet normal 0 0 -1
    outer loop
      vertex 13.8758 -2.44676 0
      vertex 36 -10 0
      vertex 14 -3.71992 0
    endloop
  endfacet
  facet normal 0 0 -1
    outer loop
      vertex 36 -10 0
      vertex 13.8758 -2.44676 0
      vertex 36 10 0
    endloop
  endfacet
  facet normal -0 0 -1
    outer loop
      vertex 36 10 0
      vertex 14 3.71992 0
      vertex 14 10 0
    endloop
  endfacet
  facet normal 0 0 -1
    outer loop
      vertex 34.1242 2.44676 11.5
      vertex 36 2.5 11.5
      vertex 36 2.44676 11.5
    endloop
  endfacet
  facet normal -0 0 -1
    outer loop
      vertex 36 2.5 11.5
      vertex 34.1242 2.44676 11.5
      vertex 34.119 2.5 11.5
    endloop
  endfacet
  facet normal -0 0 1
    outer loop
      vertex 33.881 -2.5 11.5
      vertex 36 -3.71992 11.5
      vertex 36 -2.5 11.5
    endloop
  endfacet
  facet normal 0 0 1
    outer loop
      vertex 36 -3.71992 11.5
      vertex 34.1242 -4.99324 11.5
      vertex 35.8758 -4.99324 11.5
    endloop
  endfacet
  facet normal 0 0 1
    outer loop
      vertex 36 -3.71992 11.5
      vertex 33.881 -2.5 11.5
      vertex 34.1242 -4.99324 11.5
    endloop
  endfacet
  facet normal 0 0 1
    outer loop
      vertex 30 2.5 11.5
      vertex 29.8758 -2.44676 11.5
      vertex 30 -2.5 11.5
    endloop
  endfacet
  facet normal 0 0 1
    outer loop
      vertex 29.8758 4.99324 11.5
      vertex 30 2.5 11.5
      vertex 30.119 2.5 11.5
    endloop
  endfacet
  facet normal -0 0 1
    outer loop
      vertex 28.1242 4.99324 11.5
      vertex 30 2.5 11.5
      vertex 29.8758 4.99324 11.5
    endloop
  endfacet
  facet normal 0 0 1
    outer loop
      vertex 30 2.5 11.5
      vertex 28.1242 4.99324 11.5
      vertex 27.8758 2.44676 11.5
    endloop
  endfacet
  facet normal 0 0 1
    outer loop
      vertex 30 2.5 11.5
      vertex 27.8758 2.44676 11.5
      vertex 29.8758 -2.44676 11.5
    endloop
  endfacet
  facet normal 0 0 1
    outer loop
      vertex 29.8758 -2.44676 11.5
      vertex 27.8758 2.44676 11.5
      vertex 28.1242 -2.44676 11.5
    endloop
  endfacet
  facet normal 0 0 1
    outer loop
      vertex 25.8758 -2.44676 11.5
      vertex 28.1242 -2.44676 11.5
      vertex 27.8758 2.44676 11.5
    endloop
  endfacet
  facet normal 0 0 1
    outer loop
      vertex 28.1242 -2.44676 11.5
      vertex 25.8758 -2.44676 11.5
      vertex 27.8758 -4.99324 11.5
    endloop
  endfacet
  facet normal 0 0 1
    outer loop
      vertex 25.8758 -2.44676 11.5
      vertex 27.8758 2.44676 11.5
      vertex 26.1242 2.44676 11.5
    endloop
  endfacet
  facet normal 0 0 1
    outer loop
      vertex 27.8758 -4.99324 11.5
      vertex 25.8758 -2.44676 11.5
      vertex 26.1242 -4.99324 11.5
    endloop
  endfacet
  facet normal 0 0 1
    outer loop
      vertex 23.8758 2.44676 11.5
      vertex 26.1242 2.44676 11.5
      vertex 25.8758 4.99324 11.5
    endloop
  endfacet
  facet normal 0 0 1
    outer loop
      vertex 23.8758 2.44676 11.5
      vertex 25.8758 4.99324 11.5
      vertex 24.1242 4.99324 11.5
    endloop
  endfacet
  facet normal 0 0 1
    outer loop
      vertex 26.1242 2.44676 11.5
      vertex 23.8758 2.44676 11.5
      vertex 25.8758 -2.44676 11.5
    endloop
  endfacet
  facet normal 0 0 1
    outer loop
      vertex 25.8758 -2.44676 11.5
      vertex 23.8758 2.44676 11.5
      vertex 24.1242 -2.44676 11.5
    endloop
  endfacet
  facet normal 0 0 1
    outer loop
      vertex 21.8758 -2.44676 11.5
      vertex 24.1242 -2.44676 11.5
      vertex 23.8758 2.44676 11.5
    endloop
  endfacet
  facet normal 0 0 1
    outer loop
      vertex 24.1242 -2.44676 11.5
      vertex 21.8758 -2.44676 11.5
      vertex 23.8758 -4.99324 11.5
    endloop
  endfacet
  facet normal 0 0 1
    outer loop
      vertex 21.8758 -2.44676 11.5
      vertex 23.8758 2.44676 11.5
      vertex 22.1242 2.44676 11.5
    endloop
  endfacet
  facet normal 0 0 1
    outer loop
      vertex 23.8758 -4.99324 11.5
      vertex 21.8758 -2.44676 11.5
      vertex 22.1242 -4.99324 11.5
    endloop
  endfacet
  facet normal 0 0 1
    outer loop
      vertex 19.8758 2.44676 11.5
      vertex 22.1242 2.44676 11.5
      vertex 21.8758 4.99324 11.5
    endloop
  endfacet
  facet normal 0 0 1
    outer loop
      vertex 19.8758 2.44676 11.5
      vertex 21.8758 4.99324 11.5
      vertex 20.1242 4.99324 11.5
    endloop
  endfacet
  facet normal 0 0 1
    outer loop
      vertex 22.1242 2.44676 11.5
      vertex 19.8758 2.44676 11.5
      vertex 21.8758 -2.44676 11.5
    endloop
  endfacet
  facet normal 0 0 1
    outer loop
      vertex 21.8758 -2.44676 11.5
      vertex 19.8758 2.44676 11.5
      vertex 20.1242 -2.44676 11.5
    endloop
  endfacet
  facet normal 0 0 1
    outer loop
      vertex 17.8758 -2.44676 11.5
      vertex 20.1242 -2.44676 11.5
      vertex 19.8758 2.44676 11.5
    endloop
  endfacet
  facet normal 0 0 1
    outer loop
      vertex 20.1242 -2.44676 11.5
      vertex 17.8758 -2.44676 11.5
      vertex 19.8758 -4.99324 11.5
    endloop
  endfacet
  facet normal 0 0 1
    outer loop
      vertex 17.8758 -2.44676 11.5
      vertex 19.8758 2.44676 11.5
      vertex 18.1242 2.44676 11.5
    endloop
  endfacet
  facet normal 0 0 1
    outer loop
      vertex 19.8758 -4.99324 11.5
      vertex 17.8758 -2.44676 11.5
      vertex 18.1242 -4.99324 11.5
    endloop
  endfacet
  facet normal 0 0 1
    outer loop
      vertex 15.8758 2.44676 11.5
      vertex 18.1242 2.44676 11.5
      vertex 17.8758 4.99324 11.5
    endloop
  endfacet
  facet normal 0 0 1
    outer loop
      vertex 15.8758 2.44676 11.5
      vertex 17.8758 4.99324 11.5
      vertex 16.1242 4.99324 11.5
    endloop
  endfacet
  facet normal 0 0 1
    outer loop
      vertex 18.1242 2.44676 11.5
      vertex 15.8758 2.44676 11.5
      vertex 17.8758 -2.44676 11.5
    endloop
  endfacet
  facet normal 0 0 1
    outer loop
      vertex 17.8758 -2.44676 11.5
      vertex 15.8758 2.44676 11.5
      vertex 16.1242 -2.44676 11.5
    endloop
  endfacet
  facet normal 0 0 1
    outer loop
      vertex 13.8758 -2.44676 11.5
      vertex 16.1242 -2.44676 11.5
      vertex 15.8758 2.44676 11.5
    endloop
  endfacet
  facet normal 0 0 1
    outer loop
      vertex 16.1242 -2.44676 11.5
      vertex 13.8758 -2.44676 11.5
      vertex 15.8758 -4.99324 11.5
    endloop
  endfacet
  facet normal 0 0 1
    outer loop
      vertex 13.8758 -2.44676 11.5
      vertex 15.8758 2.44676 11.5
      vertex 14.1242 2.44676 11.5
    endloop
  endfacet
  facet normal 0 0 1
    outer loop
      vertex 15.8758 -4.99324 11.5
      vertex 13.8758 -2.44676 11.5
      vertex 14.1242 -4.99324 11.5
    endloop
  endfacet
  facet normal 0 0 1
    outer loop
      vertex 11.8758 2.44676 11.5
      vertex 14.1242 2.44676 11.5
      vertex 13.8758 4.99324 11.5
    endloop
  endfacet
  facet normal 0 0 1
    outer loop
      vertex 11.8758 2.44676 11.5
      vertex 13.8758 4.99324 11.5
      vertex 12.1242 4.99324 11.5
    endloop
  endfacet
  facet normal 0 0 1
    outer loop
      vertex 14.1242 2.44676 11.5
      vertex 11.8758 2.44676 11.5
      vertex 13.8758 -2.44676 11.5
    endloop
  endfacet
  facet normal 0 0 1
    outer loop
      vertex 13.8758 -2.44676 11.5
      vertex 11.8758 2.44676 11.5
      vertex 12.1242 -2.44676 11.5
    endloop
  endfacet
  facet normal 0 0 1
    outer loop
      vertex 9.87581 -2.44676 11.5
      vertex 12.1242 -2.44676 11.5
      vertex 11.8758 2.44676 11.5
    endloop
  endfacet
  facet normal 0 0 1
    outer loop
      vertex 12.1242 -2.44676 11.5
      vertex 9.87581 -2.44676 11.5
      vertex 11.8758 -4.99324 11.5
    endloop
  endfacet
  facet normal 0 0 1
    outer loop
      vertex 9.87581 -2.44676 11.5
      vertex 11.8758 2.44676 11.5
      vertex 10.1242 2.44676 11.5
    endloop
  endfacet
  facet normal 0 0 1
    outer loop
      vertex 11.8758 -4.99324 11.5
      vertex 9.87581 -2.44676 11.5
      vertex 10.1242 -4.99324 11.5
    endloop
  endfacet
  facet normal 0 0 1
    outer loop
      vertex 7.87581 2.44676 11.5
      vertex 10.1242 2.44676 11.5
      vertex 9.87579 4.99324 11.5
    endloop
  endfacet
  facet normal 0 0 1
    outer loop
      vertex 7.87581 2.44676 11.5
      vertex 9.87579 4.99324 11.5
      vertex 8.12421 4.99324 11.5
    endloop
  endfacet
  facet normal 0 0 1
    outer loop
      vertex 10.1242 2.44676 11.5
      vertex 7.87581 2.44676 11.5
      vertex 9.87581 -2.44676 11.5
    endloop
  endfacet
  facet normal 0 0 1
    outer loop
      vertex 9.87581 -2.44676 11.5
      vertex 7.87581 2.44676 11.5
      vertex 8.12419 -2.44676 11.5
    endloop
  endfacet
  facet normal -0 0 1
    outer loop
      vertex 6 2.44676 11.5
      vertex 8.12419 -2.44676 11.5
      vertex 7.87581 2.44676 11.5
    endloop
  endfacet
  facet normal 0 0 1
    outer loop
      vertex 8.12419 -2.44676 11.5
      vertex 6 -3.71992 11.5
      vertex 7.87579 -4.99324 11.5
    endloop
  endfacet
  facet normal 0 0 1
    outer loop
      vertex 8.12419 -2.44676 11.5
      vertex 6 2.44676 11.5
      vertex 6 -3.71992 11.5
    endloop
  endfacet
  facet normal 0 0 1
    outer loop
      vertex 7.87579 -4.99324 11.5
      vertex 6 -3.71992 11.5
      vertex 6.12421 -4.99324 11.5
    endloop
  endfacet
  facet normal -0 0 1
    outer loop
      vertex 30 -2.5 11.5
      vertex 31.8758 -4.99324 11.5
      vertex 32.119 -2.5 11.5
    endloop
  endfacet
  facet normal 0 0 1
    outer loop
      vertex 31.8758 -4.99324 11.5
      vertex 30 -2.5 11.5
      vertex 30.1242 -4.99324 11.5
    endloop
  endfacet
  facet normal 0 0 1
    outer loop
      vertex 30.1242 -4.99324 11.5
      vertex 30 -2.5 11.5
      vertex 29.8758 -2.44676 11.5
    endloop
  endfacet
  facet normal 0 0 -1
    outer loop
      vertex 33.881 -2.5 11.5
      vertex 32.1242 -2.44676 11.5
      vertex 33.8758 -2.44676 11.5
    endloop
  endfacet
  facet normal 0 -0 -1
    outer loop
      vertex 32.1242 -2.44676 11.5
      vertex 33.881 -2.5 11.5
      vertex 32.119 -2.5 11.5
    endloop
  endfacet
  facet normal 0 0 -1
    outer loop
      vertex 30.1242 2.44676 11.5
      vertex 31.881 2.5 11.5
      vertex 31.8758 2.44676 11.5
    endloop
  endfacet
  facet normal -0 0 -1
    outer loop
      vertex 31.881 2.5 11.5
      vertex 30.1242 2.44676 11.5
      vertex 30.119 2.5 11.5
    endloop
  endfacet
  facet normal -0 0 1
    outer loop
      vertex 32.1242 4.99324 11.5
      vertex 34.119 2.5 11.5
      vertex 33.8758 4.99324 11.5
    endloop
  endfacet
  facet normal 0 0 1
    outer loop
      vertex 34.119 2.5 11.5
      vertex 32.1242 4.99324 11.5
      vertex 31.881 2.5 11.5
    endloop
  endfacet
  facet normal 0 1 -0
    outer loop
      vertex 11.8758 2.44676 0
      vertex 10.1242 2.44676 11.5
      vertex 11.8758 2.44676 11.5
    endloop
  endfacet
  facet normal 0 1 0
    outer loop
      vertex 10.1242 2.44676 11.5
      vertex 11.8758 2.44676 0
      vertex 10.1242 2.44676 0
    endloop
  endfacet
  facet normal 0.995276 0.0970895 0
    outer loop
      vertex 10.1242 2.44676 11.5
      vertex 9.87579 4.99324 0
      vertex 9.87579 4.99324 11.5
    endloop
  endfacet
  facet normal 0.995276 0.0970895 0
    outer loop
      vertex 9.87579 4.99324 0
      vertex 10.1242 2.44676 11.5
      vertex 10.1242 2.44676 0
    endloop
  endfacet
  facet normal 0 1 -0
    outer loop
      vertex 9.87579 4.99324 0
      vertex 8.12421 4.99324 11.5
      vertex 9.87579 4.99324 11.5
    endloop
  endfacet
  facet normal 0 1 0
    outer loop
      vertex 8.12421 4.99324 11.5
      vertex 9.87579 4.99324 0
      vertex 8.12421 4.99324 0
    endloop
  endfacet
  facet normal -0.995276 0.0970856 0
    outer loop
      vertex 7.87581 2.44676 0
      vertex 8.12421 4.99324 11.5
      vertex 8.12421 4.99324 0
    endloop
  endfacet
  facet normal -0.995276 0.0970856 0
    outer loop
      vertex 8.12421 4.99324 11.5
      vertex 7.87581 2.44676 0
      vertex 7.87581 2.44676 11.5
    endloop
  endfacet
  facet normal 0 1 -0
    outer loop
      vertex 7.87581 2.44676 0
      vertex 6 2.44676 11.5
      vertex 7.87581 2.44676 11.5
    endloop
  endfacet
  facet normal 0 1 0
    outer loop
      vertex 6 2.44676 11.5
      vertex 7.87581 2.44676 0
      vertex 6 2.44676 0
    endloop
  endfacet
  facet normal -1 0 0
    outer loop
      vertex 6 -3.71992 0
      vertex 6 2.44676 11.5
      vertex 6 2.44676 0
    endloop
  endfacet
  facet normal -1 -0 0
    outer loop
      vertex 6 2.44676 11.5
      vertex 6 -3.71992 0
      vertex 6 -3.71992 11.5
    endloop
  endfacet
  facet normal 0 1 -0
    outer loop
      vertex 15.8758 2.44676 3
      vertex 14.1242 2.44676 11.5
      vertex 15.8758 2.44676 11.5
    endloop
  endfacet
  facet normal 0 1 0
    outer loop
      vertex 14.1242 2.44676 11.5
      vertex 15.8758 2.44676 3
      vertex 14.1242 2.44676 3
    endloop
  endfacet
  facet normal 0.995277 0.0970796 0
    outer loop
      vertex 13.8758 4.99324 11.5
      vertex 14 3.71992 3
      vertex 13.8758 4.99324 0
    endloop
  endfacet
  facet normal 0.995276 0.0970856 -9.13747e-07
    outer loop
      vertex 14.1242 2.44676 11.5
      vertex 14 3.71992 3
      vertex 13.8758 4.99324 11.5
    endloop
  endfacet
  facet normal 0.995275 0.0970917 0
    outer loop
      vertex 14 3.71992 3
      vertex 14.1242 2.44676 11.5
      vertex 14.1242 2.44676 3
    endloop
  endfacet
  facet normal 0.995277 0.0970796 0
    outer loop
      vertex 13.8758 4.99324 0
      vertex 14 3.71992 3
      vertex 14 3.71992 0
    endloop
  endfacet
  facet normal 0 1 -0
    outer loop
      vertex 13.8758 4.99324 0
      vertex 12.1242 4.99324 11.5
      vertex 13.8758 4.99324 11.5
    endloop
  endfacet
  facet normal 0 1 0
    outer loop
      vertex 12.1242 4.99324 11.5
      vertex 13.8758 4.99324 0
      vertex 12.1242 4.99324 0
    endloop
  endfacet
  facet normal -0.995276 0.0970856 0
    outer loop
      vertex 11.8758 2.44676 0
      vertex 12.1242 4.99324 11.5
      vertex 12.1242 4.99324 0
    endloop
  endfacet
  facet normal -0.995276 0.0970856 0
    outer loop
      vertex 12.1242 4.99324 11.5
      vertex 11.8758 2.44676 0
      vertex 11.8758 2.44676 11.5
    endloop
  endfacet
  facet normal 0 1 -0
    outer loop
      vertex 19.8758 2.44676 3
      vertex 18.1242 2.44676 11.5
      vertex 19.8758 2.44676 11.5
    endloop
  endfacet
  facet normal 0 1 0
    outer loop
      vertex 18.1242 2.44676 11.5
      vertex 19.8758 2.44676 3
      vertex 18.1242 2.44676 3
    endloop
  endfacet
  facet normal 0.995276 0.0970856 0
    outer loop
      vertex 18.1242 2.44676 11.5
      vertex 17.8758 4.99324 3
      vertex 17.8758 4.99324 11.5
    endloop
  endfacet
  facet normal 0.995276 0.0970856 0
    outer loop
      vertex 17.8758 4.99324 3
      vertex 18.1242 2.44676 11.5
      vertex 18.1242 2.44676 3
    endloop
  endfacet
  facet normal 0 1 -0
    outer loop
      vertex 17.8758 4.99324 3
      vertex 16.1242 4.99324 11.5
      vertex 17.8758 4.99324 11.5
    endloop
  endfacet
  facet normal 0 1 0
    outer loop
      vertex 16.1242 4.99324 11.5
      vertex 17.8758 4.99324 3
      vertex 16.1242 4.99324 3
    endloop
  endfacet
  facet normal -0.995276 0.0970856 0
    outer loop
      vertex 15.8758 2.44676 3
      vertex 16.1242 4.99324 11.5
      vertex 16.1242 4.99324 3
    endloop
  endfacet
  facet normal -0.995276 0.0970856 0
    outer loop
      vertex 16.1242 4.99324 11.5
      vertex 15.8758 2.44676 3
      vertex 15.8758 2.44676 11.5
    endloop
  endfacet
  facet normal 0 1 -0
    outer loop
      vertex 23.8758 2.44676 3
      vertex 22.1242 2.44676 11.5
      vertex 23.8758 2.44676 11.5
    endloop
  endfacet
  facet normal 0 1 0
    outer loop
      vertex 22.1242 2.44676 11.5
      vertex 23.8758 2.44676 3
      vertex 22.1242 2.44676 3
    endloop
  endfacet
  facet normal 0.995276 0.0970856 0
    outer loop
      vertex 22.1242 2.44676 11.5
      vertex 21.8758 4.99324 3
      vertex 21.8758 4.99324 11.5
    endloop
  endfacet
  facet normal 0.995276 0.0970856 0
    outer loop
      vertex 21.8758 4.99324 3
      vertex 22.1242 2.44676 11.5
      vertex 22.1242 2.44676 3
    endloop
  endfacet
  facet normal 0 1 -0
    outer loop
      vertex 21.8758 4.99324 3
      vertex 20.1242 4.99324 11.5
      vertex 21.8758 4.99324 11.5
    endloop
  endfacet
  facet normal 0 1 0
    outer loop
      vertex 20.1242 4.99324 11.5
      vertex 21.8758 4.99324 3
      vertex 20.1242 4.99324 3
    endloop
  endfacet
  facet normal -0.995276 0.0970856 0
    outer loop
      vertex 19.8758 2.44676 3
      vertex 20.1242 4.99324 11.5
      vertex 20.1242 4.99324 3
    endloop
  endfacet
  facet normal -0.995276 0.0970856 0
    outer loop
      vertex 20.1242 4.99324 11.5
      vertex 19.8758 2.44676 3
      vertex 19.8758 2.44676 11.5
    endloop
  endfacet
  facet normal 0 1 -0
    outer loop
      vertex 27.8758 2.44676 3
      vertex 26.1242 2.44676 11.5
      vertex 27.8758 2.44676 11.5
    endloop
  endfacet
  facet normal 0 1 0
    outer loop
      vertex 26.1242 2.44676 11.5
      vertex 27.8758 2.44676 3
      vertex 26.1242 2.44676 3
    endloop
  endfacet
  facet normal 0.995276 0.0970856 0
    outer loop
      vertex 26.1242 2.44676 11.5
      vertex 25.8758 4.99324 3
      vertex 25.8758 4.99324 11.5
    endloop
  endfacet
  facet normal 0.995276 0.0970856 0
    outer loop
      vertex 25.8758 4.99324 3
      vertex 26.1242 2.44676 11.5
      vertex 26.1242 2.44676 3
    endloop
  endfacet
  facet normal 0 1 -0
    outer loop
      vertex 25.8758 4.99324 3
      vertex 24.1242 4.99324 11.5
      vertex 25.8758 4.99324 11.5
    endloop
  endfacet
  facet normal 0 1 0
    outer loop
      vertex 24.1242 4.99324 11.5
      vertex 25.8758 4.99324 3
      vertex 24.1242 4.99324 3
    endloop
  endfacet
  facet normal -0.995276 0.0970856 0
    outer loop
      vertex 23.8758 2.44676 3
      vertex 24.1242 4.99324 11.5
      vertex 24.1242 4.99324 3
    endloop
  endfacet
  facet normal -0.995276 0.0970856 0
    outer loop
      vertex 24.1242 4.99324 11.5
      vertex 23.8758 2.44676 3
      vertex 23.8758 2.44676 11.5
    endloop
  endfacet
  facet normal 0 1 -0
    outer loop
      vertex 31.8758 2.44676 3
      vertex 30.1242 2.44676 11.5
      vertex 31.8758 2.44676 11.5
    endloop
  endfacet
  facet normal 0 1 0
    outer loop
      vertex 30.1242 2.44676 11.5
      vertex 31.8758 2.44676 3
      vertex 30.1242 2.44676 3
    endloop
  endfacet
  facet normal 0.995276 0.097083 0
    outer loop
      vertex 30.119 2.5 11.5
      vertex 29.8758 4.99324 3
      vertex 29.8758 4.99324 11.5
    endloop
  endfacet
  facet normal 0.995264 0.0972084 -0
    outer loop
      vertex 30.1242 2.44676 3
      vertex 30.119 2.5 11.5
      vertex 30.1242 2.44676 11.5
    endloop
  endfacet
  facet normal 0.995276 0.0970856 7.7617e-07
    outer loop
      vertex 30.119 2.5 11.5
      vertex 30.1242 2.44676 3
      vertex 29.8758 4.99324 3
    endloop
  endfacet
  facet normal 0 1 -0
    outer loop
      vertex 29.8758 4.99324 3
      vertex 28.1242 4.99324 11.5
      vertex 29.8758 4.99324 11.5
    endloop
  endfacet
  facet normal 0 1 0
    outer loop
      vertex 28.1242 4.99324 11.5
      vertex 29.8758 4.99324 3
      vertex 28.1242 4.99324 3
    endloop
  endfacet
  facet normal -0.995276 0.0970856 0
    outer loop
      vertex 27.8758 2.44676 3
      vertex 28.1242 4.99324 11.5
      vertex 28.1242 4.99324 3
    endloop
  endfacet
  facet normal -0.995276 0.0970856 0
    outer loop
      vertex 28.1242 4.99324 11.5
      vertex 27.8758 2.44676 3
      vertex 27.8758 2.44676 11.5
    endloop
  endfacet
  facet normal 0 1 -0
    outer loop
      vertex 36 2.44676 3
      vertex 34.1242 2.44676 11.5
      vertex 36 2.44676 11.5
    endloop
  endfacet
  facet normal 0 1 0
    outer loop
      vertex 34.1242 2.44676 11.5
      vertex 36 2.44676 3
      vertex 34.1242 2.44676 3
    endloop
  endfacet
  facet normal 0.995276 0.097083 0
    outer loop
      vertex 34.119 2.5 11.5
      vertex 33.8758 4.99324 3
      vertex 33.8758 4.99324 11.5
    endloop
  endfacet
  facet normal 0.995264 0.0972084 -0
    outer loop
      vertex 34.1242 2.44676 3
      vertex 34.119 2.5 11.5
      vertex 34.1242 2.44676 11.5
    endloop
  endfacet
  facet normal 0.995276 0.0970856 7.7617e-07
    outer loop
      vertex 34.119 2.5 11.5
      vertex 34.1242 2.44676 3
      vertex 33.8758 4.99324 3
    endloop
  endfacet
  facet normal 0 1 -0
    outer loop
      vertex 33.8758 4.99324 3
      vertex 32.1242 4.99324 11.5
      vertex 33.8758 4.99324 11.5
    endloop
  endfacet
  facet normal 0 1 0
    outer loop
      vertex 32.1242 4.99324 11.5
      vertex 33.8758 4.99324 3
      vertex 32.1242 4.99324 3
    endloop
  endfacet
  facet normal -0.995276 0.097083 0
    outer loop
      vertex 32.1242 4.99324 3
      vertex 31.881 2.5 11.5
      vertex 32.1242 4.99324 11.5
    endloop
  endfacet
  facet normal -0.995276 0.0970856 7.7617e-07
    outer loop
      vertex 31.8758 2.44676 3
      vertex 31.881 2.5 11.5
      vertex 32.1242 4.99324 3
    endloop
  endfacet
  facet normal -0.995264 0.0972084 0
    outer loop
      vertex 31.881 2.5 11.5
      vertex 31.8758 2.44676 3
      vertex 31.8758 2.44676 11.5
    endloop
  endfacet
  facet normal 1 0 0
    outer loop
      vertex 36 2.5 29.061
      vertex 36 2.44676 11.5
      vertex 36 2.5 11.5
    endloop
  endfacet
  facet normal 1 0 0
    outer loop
      vertex 36 -2.5 11.5
      vertex 36 2.44676 11.5
      vertex 36 -2.5 29.061
    endloop
  endfacet
  facet normal 1 -0 0
    outer loop
      vertex 36 -2.5 29.061
      vertex 36 2.44676 11.5
      vertex 36 2.5 29.061
    endloop
  endfacet
  facet normal 1 -0 0
    outer loop
      vertex 36 2.44676 3
      vertex 36 10 0
      vertex 36 10 3
    endloop
  endfacet
  facet normal 1 0 0
    outer loop
      vertex 36 2.44676 11.5
      vertex 36 -2.5 11.5
      vertex 36 2.44676 3
    endloop
  endfacet
  facet normal 1 0 0
    outer loop
      vertex 36 -3.71992 3
      vertex 36 -2.5 11.5
      vertex 36 -3.71992 11.5
    endloop
  endfacet
  facet normal 1 0 0
    outer loop
      vertex 36 -2.5 11.5
      vertex 36 -3.71992 3
      vertex 36 2.44676 3
    endloop
  endfacet
  facet normal 1 0 0
    outer loop
      vertex 36 -10 0
      vertex 36 2.44676 3
      vertex 36 -3.71992 3
    endloop
  endfacet
  facet normal 1 0 0
    outer loop
      vertex 36 -10 0
      vertex 36 -3.71992 3
      vertex 36 -10 3
    endloop
  endfacet
  facet normal 1 0 0
    outer loop
      vertex 36 2.44676 3
      vertex 36 -10 0
      vertex 36 10 0
    endloop
  endfacet
  facet normal 0 -1 0
    outer loop
      vertex 8.12419 -2.44676 0
      vertex 9.87581 -2.44676 11.5
      vertex 8.12419 -2.44676 11.5
    endloop
  endfacet
  facet normal 0 -1 -0
    outer loop
      vertex 9.87581 -2.44676 11.5
      vertex 8.12419 -2.44676 0
      vertex 9.87581 -2.44676 0
    endloop
  endfacet
  facet normal 0.995276 -0.0970856 0
    outer loop
      vertex 7.87579 -4.99324 11.5
      vertex 8.12419 -2.44676 0
      vertex 8.12419 -2.44676 11.5
    endloop
  endfacet
  facet normal 0.995276 -0.0970856 0
    outer loop
      vertex 8.12419 -2.44676 0
      vertex 7.87579 -4.99324 11.5
      vertex 7.87579 -4.99324 0
    endloop
  endfacet
  facet normal 0 -1 0
    outer loop
      vertex 6.12421 -4.99324 0
      vertex 7.87579 -4.99324 11.5
      vertex 6.12421 -4.99324 11.5
    endloop
  endfacet
  facet normal 0 -1 -0
    outer loop
      vertex 7.87579 -4.99324 11.5
      vertex 6.12421 -4.99324 0
      vertex 7.87579 -4.99324 0
    endloop
  endfacet
  facet normal -0.995276 -0.0970873 0
    outer loop
      vertex 6.12421 -4.99324 0
      vertex 6 -3.71992 11.5
      vertex 6 -3.71992 0
    endloop
  endfacet
  facet normal -0.995276 -0.0970873 0
    outer loop
      vertex 6 -3.71992 11.5
      vertex 6.12421 -4.99324 0
      vertex 6.12421 -4.99324 11.5
    endloop
  endfacet
  facet normal 0 -1 0
    outer loop
      vertex 12.1242 -2.44676 0
      vertex 13.8758 -2.44676 11.5
      vertex 12.1242 -2.44676 11.5
    endloop
  endfacet
  facet normal 0 -1 -0
    outer loop
      vertex 13.8758 -2.44676 11.5
      vertex 12.1242 -2.44676 0
      vertex 13.8758 -2.44676 0
    endloop
  endfacet
  facet normal 0.995276 -0.0970856 0
    outer loop
      vertex 11.8758 -4.99324 11.5
      vertex 12.1242 -2.44676 0
      vertex 12.1242 -2.44676 11.5
    endloop
  endfacet
  facet normal 0.995276 -0.0970856 0
    outer loop
      vertex 12.1242 -2.44676 0
      vertex 11.8758 -4.99324 11.5
      vertex 11.8758 -4.99324 0
    endloop
  endfacet
  facet normal 0 -1 0
    outer loop
      vertex 10.1242 -4.99324 0
      vertex 11.8758 -4.99324 11.5
      vertex 10.1242 -4.99324 11.5
    endloop
  endfacet
  facet normal 0 -1 -0
    outer loop
      vertex 11.8758 -4.99324 11.5
      vertex 10.1242 -4.99324 0
      vertex 11.8758 -4.99324 0
    endloop
  endfacet
  facet normal -0.995276 -0.0970817 0
    outer loop
      vertex 10.1242 -4.99324 0
      vertex 9.87581 -2.44676 11.5
      vertex 9.87581 -2.44676 0
    endloop
  endfacet
  facet normal -0.995276 -0.0970817 0
    outer loop
      vertex 9.87581 -2.44676 11.5
      vertex 10.1242 -4.99324 0
      vertex 10.1242 -4.99324 11.5
    endloop
  endfacet
  facet normal 0 -1 0
    outer loop
      vertex 16.1242 -2.44676 3
      vertex 17.8758 -2.44676 11.5
      vertex 16.1242 -2.44676 11.5
    endloop
  endfacet
  facet normal 0 -1 -0
    outer loop
      vertex 17.8758 -2.44676 11.5
      vertex 16.1242 -2.44676 3
      vertex 17.8758 -2.44676 3
    endloop
  endfacet
  facet normal 0.995276 -0.0970856 0
    outer loop
      vertex 15.8758 -4.99324 11.5
      vertex 16.1242 -2.44676 3
      vertex 16.1242 -2.44676 11.5
    endloop
  endfacet
  facet normal 0.995276 -0.0970856 0
    outer loop
      vertex 16.1242 -2.44676 3
      vertex 15.8758 -4.99324 11.5
      vertex 15.8758 -4.99324 3
    endloop
  endfacet
  facet normal 0 -1 0
    outer loop
      vertex 14.1242 -4.99324 3
      vertex 15.8758 -4.99324 11.5
      vertex 14.1242 -4.99324 11.5
    endloop
  endfacet
  facet normal 0 -1 -0
    outer loop
      vertex 15.8758 -4.99324 11.5
      vertex 14.1242 -4.99324 3
      vertex 15.8758 -4.99324 3
    endloop
  endfacet
  facet normal -0.995275 -0.0970917 -0
    outer loop
      vertex 14 -3.71992 3
      vertex 13.8758 -2.44676 0
      vertex 14 -3.71992 0
    endloop
  endfacet
  facet normal -0.995275 -0.0970917 0
    outer loop
      vertex 13.8758 -2.44676 0
      vertex 14 -3.71992 3
      vertex 13.8758 -2.44676 11.5
    endloop
  endfacet
  facet normal -0.995277 -0.0970796 -0
    outer loop
      vertex 14.1242 -4.99324 11.5
      vertex 14 -3.71992 3
      vertex 14.1242 -4.99324 3
    endloop
  endfacet
  facet normal -0.995276 -0.0970856 -9.13747e-07
    outer loop
      vertex 14 -3.71992 3
      vertex 14.1242 -4.99324 11.5
      vertex 13.8758 -2.44676 11.5
    endloop
  endfacet
  facet normal 0 -1 0
    outer loop
      vertex 20.1242 -2.44676 3
      vertex 21.8758 -2.44676 11.5
      vertex 20.1242 -2.44676 11.5
    endloop
  endfacet
  facet normal 0 -1 -0
    outer loop
      vertex 21.8758 -2.44676 11.5
      vertex 20.1242 -2.44676 3
      vertex 21.8758 -2.44676 3
    endloop
  endfacet
  facet normal 0.995276 -0.0970856 0
    outer loop
      vertex 19.8758 -4.99324 11.5
      vertex 20.1242 -2.44676 3
      vertex 20.1242 -2.44676 11.5
    endloop
  endfacet
  facet normal 0.995276 -0.0970856 0
    outer loop
      vertex 20.1242 -2.44676 3
      vertex 19.8758 -4.99324 11.5
      vertex 19.8758 -4.99324 3
    endloop
  endfacet
  facet normal 0 -1 0
    outer loop
      vertex 18.1242 -4.99324 3
      vertex 19.8758 -4.99324 11.5
      vertex 18.1242 -4.99324 11.5
    endloop
  endfacet
  facet normal 0 -1 -0
    outer loop
      vertex 19.8758 -4.99324 11.5
      vertex 18.1242 -4.99324 3
      vertex 19.8758 -4.99324 3
    endloop
  endfacet
  facet normal -0.995276 -0.0970856 0
    outer loop
      vertex 18.1242 -4.99324 3
      vertex 17.8758 -2.44676 11.5
      vertex 17.8758 -2.44676 3
    endloop
  endfacet
  facet normal -0.995276 -0.0970856 0
    outer loop
      vertex 17.8758 -2.44676 11.5
      vertex 18.1242 -4.99324 3
      vertex 18.1242 -4.99324 11.5
    endloop
  endfacet
  facet normal 0 -1 0
    outer loop
      vertex 24.1242 -2.44676 3
      vertex 25.8758 -2.44676 11.5
      vertex 24.1242 -2.44676 11.5
    endloop
  endfacet
  facet normal 0 -1 -0
    outer loop
      vertex 25.8758 -2.44676 11.5
      vertex 24.1242 -2.44676 3
      vertex 25.8758 -2.44676 3
    endloop
  endfacet
  facet normal 0.995276 -0.0970856 0
    outer loop
      vertex 23.8758 -4.99324 11.5
      vertex 24.1242 -2.44676 3
      vertex 24.1242 -2.44676 11.5
    endloop
  endfacet
  facet normal 0.995276 -0.0970856 0
    outer loop
      vertex 24.1242 -2.44676 3
      vertex 23.8758 -4.99324 11.5
      vertex 23.8758 -4.99324 3
    endloop
  endfacet
  facet normal 0 -1 0
    outer loop
      vertex 22.1242 -4.99324 3
      vertex 23.8758 -4.99324 11.5
      vertex 22.1242 -4.99324 11.5
    endloop
  endfacet
  facet normal 0 -1 -0
    outer loop
      vertex 23.8758 -4.99324 11.5
      vertex 22.1242 -4.99324 3
      vertex 23.8758 -4.99324 3
    endloop
  endfacet
  facet normal -0.995276 -0.0970856 0
    outer loop
      vertex 22.1242 -4.99324 3
      vertex 21.8758 -2.44676 11.5
      vertex 21.8758 -2.44676 3
    endloop
  endfacet
  facet normal -0.995276 -0.0970856 0
    outer loop
      vertex 21.8758 -2.44676 11.5
      vertex 22.1242 -4.99324 3
      vertex 22.1242 -4.99324 11.5
    endloop
  endfacet
  facet normal 0 -1 0
    outer loop
      vertex 28.1242 -2.44676 3
      vertex 29.8758 -2.44676 11.5
      vertex 28.1242 -2.44676 11.5
    endloop
  endfacet
  facet normal 0 -1 -0
    outer loop
      vertex 29.8758 -2.44676 11.5
      vertex 28.1242 -2.44676 3
      vertex 29.8758 -2.44676 3
    endloop
  endfacet
  facet normal 0.995276 -0.0970856 0
    outer loop
      vertex 27.8758 -4.99324 11.5
      vertex 28.1242 -2.44676 3
      vertex 28.1242 -2.44676 11.5
    endloop
  endfacet
  facet normal 0.995276 -0.0970856 0
    outer loop
      vertex 28.1242 -2.44676 3
      vertex 27.8758 -4.99324 11.5
      vertex 27.8758 -4.99324 3
    endloop
  endfacet
  facet normal 0 -1 0
    outer loop
      vertex 26.1242 -4.99324 3
      vertex 27.8758 -4.99324 11.5
      vertex 26.1242 -4.99324 11.5
    endloop
  endfacet
  facet normal 0 -1 -0
    outer loop
      vertex 27.8758 -4.99324 11.5
      vertex 26.1242 -4.99324 3
      vertex 27.8758 -4.99324 3
    endloop
  endfacet
  facet normal -0.995276 -0.0970856 0
    outer loop
      vertex 26.1242 -4.99324 3
      vertex 25.8758 -2.44676 11.5
      vertex 25.8758 -2.44676 3
    endloop
  endfacet
  facet normal -0.995276 -0.0970856 0
    outer loop
      vertex 25.8758 -2.44676 11.5
      vertex 26.1242 -4.99324 3
      vertex 26.1242 -4.99324 11.5
    endloop
  endfacet
  facet normal 0 -1 0
    outer loop
      vertex 32.1242 -2.44676 3
      vertex 33.8758 -2.44676 11.5
      vertex 32.1242 -2.44676 11.5
    endloop
  endfacet
  facet normal 0 -1 -0
    outer loop
      vertex 33.8758 -2.44676 11.5
      vertex 32.1242 -2.44676 3
      vertex 33.8758 -2.44676 3
    endloop
  endfacet
  facet normal 0.995264 -0.0972084 0
    outer loop
      vertex 32.119 -2.5 11.5
      vertex 32.1242 -2.44676 3
      vertex 32.1242 -2.44676 11.5
    endloop
  endfacet
  facet normal 0.995276 -0.097083 7.92744e-07
    outer loop
      vertex 31.8758 -4.99324 11.5
      vertex 32.1242 -2.44676 3
      vertex 32.119 -2.5 11.5
    endloop
  endfacet
  facet normal 0.995276 -0.0970856 0
    outer loop
      vertex 32.1242 -2.44676 3
      vertex 31.8758 -4.99324 11.5
      vertex 31.8758 -4.99324 3
    endloop
  endfacet
  facet normal 0 -1 0
    outer loop
      vertex 30.1242 -4.99324 3
      vertex 31.8758 -4.99324 11.5
      vertex 30.1242 -4.99324 11.5
    endloop
  endfacet
  facet normal 0 -1 -0
    outer loop
      vertex 31.8758 -4.99324 11.5
      vertex 30.1242 -4.99324 3
      vertex 31.8758 -4.99324 3
    endloop
  endfacet
  facet normal -0.995276 -0.0970856 0
    outer loop
      vertex 30.1242 -4.99324 3
      vertex 29.8758 -2.44676 11.5
      vertex 29.8758 -2.44676 3
    endloop
  endfacet
  facet normal -0.995276 -0.0970856 0
    outer loop
      vertex 29.8758 -2.44676 11.5
      vertex 30.1242 -4.99324 3
      vertex 30.1242 -4.99324 11.5
    endloop
  endfacet
  facet normal 0.995277 -0.0970796 0
    outer loop
      vertex 35.8758 -4.99324 11.5
      vertex 36 -3.71992 3
      vertex 36 -3.71992 11.5
    endloop
  endfacet
  facet normal 0.995277 -0.0970796 0
    outer loop
      vertex 36 -3.71992 3
      vertex 35.8758 -4.99324 11.5
      vertex 35.8758 -4.99324 3
    endloop
  endfacet
  facet normal 0 -1 0
    outer loop
      vertex 34.1242 -4.99324 3
      vertex 35.8758 -4.99324 11.5
      vertex 34.1242 -4.99324 11.5
    endloop
  endfacet
  facet normal 0 -1 -0
    outer loop
      vertex 35.8758 -4.99324 11.5
      vertex 34.1242 -4.99324 3
      vertex 35.8758 -4.99324 3
    endloop
  endfacet
  facet normal -0.995264 -0.0972084 0
    outer loop
      vertex 33.8758 -2.44676 3
      vertex 33.881 -2.5 11.5
      vertex 33.8758 -2.44676 11.5
    endloop
  endfacet
  facet normal -0.995276 -0.0970856 7.7617e-07
    outer loop
      vertex 34.1242 -4.99324 3
      vertex 33.881 -2.5 11.5
      vertex 33.8758 -2.44676 3
    endloop
  endfacet
  facet normal -0.995276 -0.097083 0
    outer loop
      vertex 33.881 -2.5 11.5
      vertex 34.1242 -4.99324 3
      vertex 34.1242 -4.99324 11.5
    endloop
  endfacet
  facet normal -0 0 1
    outer loop
      vertex 33.8758 4.99324 3
      vertex 36 2.44676 3
      vertex 36 10 3
    endloop
  endfacet
  facet normal 0 0 1
    outer loop
      vertex 36 2.44676 3
      vertex 33.8758 4.99324 3
      vertex 34.1242 2.44676 3
    endloop
  endfacet
  facet normal 0 0 1
    outer loop
      vertex 36 10 3
      vertex 32.1242 4.99324 3
      vertex 33.8758 4.99324 3
    endloop
  endfacet
  facet normal 0 0 1
    outer loop
      vertex 32.1242 4.99324 3
      vertex 30.1242 2.44676 3
      vertex 31.8758 2.44676 3
    endloop
  endfacet
  facet normal 0 0 1
    outer loop
      vertex 29.8758 4.99324 3
      vertex 32.1242 4.99324 3
      vertex 36 10 3
    endloop
  endfacet
  facet normal 0 0 1
    outer loop
      vertex 32.1242 4.99324 3
      vertex 29.8758 4.99324 3
      vertex 30.1242 2.44676 3
    endloop
  endfacet
  facet normal 0 0 1
    outer loop
      vertex 36 10 3
      vertex 28.1242 4.99324 3
      vertex 29.8758 4.99324 3
    endloop
  endfacet
  facet normal 0 0 1
    outer loop
      vertex 28.1242 4.99324 3
      vertex 26.1242 2.44676 3
      vertex 27.8758 2.44676 3
    endloop
  endfacet
  facet normal 0 0 1
    outer loop
      vertex 28.1242 4.99324 3
      vertex 25.8758 4.99324 3
      vertex 26.1242 2.44676 3
    endloop
  endfacet
  facet normal 0 0 1
    outer loop
      vertex 36 10 3
      vertex 25.8758 4.99324 3
      vertex 28.1242 4.99324 3
    endloop
  endfacet
  facet normal 0 0 1
    outer loop
      vertex 36 10 3
      vertex 24.1242 4.99324 3
      vertex 25.8758 4.99324 3
    endloop
  endfacet
  facet normal 0 0 1
    outer loop
      vertex 24.1242 4.99324 3
      vertex 22.1242 2.44676 3
      vertex 23.8758 2.44676 3
    endloop
  endfacet
  facet normal 0 0 1
    outer loop
      vertex 24.1242 4.99324 3
      vertex 21.8758 4.99324 3
      vertex 22.1242 2.44676 3
    endloop
  endfacet
  facet normal -0 0 1
    outer loop
      vertex 14 10 3
      vertex 24.1242 4.99324 3
      vertex 36 10 3
    endloop
  endfacet
  facet normal 0 0 1
    outer loop
      vertex 24.1242 4.99324 3
      vertex 14 10 3
      vertex 21.8758 4.99324 3
    endloop
  endfacet
  facet normal 0 0 1
    outer loop
      vertex 20.1242 4.99324 3
      vertex 18.1242 2.44676 3
      vertex 19.8758 2.44676 3
    endloop
  endfacet
  facet normal 0 0 1
    outer loop
      vertex 20.1242 4.99324 3
      vertex 17.8758 4.99324 3
      vertex 18.1242 2.44676 3
    endloop
  endfacet
  facet normal 0 0 1
    outer loop
      vertex 21.8758 4.99324 3
      vertex 14 10 3
      vertex 20.1242 4.99324 3
    endloop
  endfacet
  facet normal 0 0 1
    outer loop
      vertex 20.1242 4.99324 3
      vertex 14 10 3
      vertex 17.8758 4.99324 3
    endloop
  endfacet
  facet normal -0 0 1
    outer loop
      vertex 14 3.71992 3
      vertex 15.8758 2.44676 3
      vertex 16.1242 4.99324 3
    endloop
  endfacet
  facet normal 0 0 1
    outer loop
      vertex 17.8758 4.99324 3
      vertex 14 10 3
      vertex 16.1242 4.99324 3
    endloop
  endfacet
  facet normal 0 0 1
    outer loop
      vertex 14 3.71992 3
      vertex 16.1242 4.99324 3
      vertex 14 10 3
    endloop
  endfacet
  facet normal 0 0 1
    outer loop
      vertex 15.8758 2.44676 3
      vertex 14 3.71992 3
      vertex 14.1242 2.44676 3
    endloop
  endfacet
  facet normal -0 0 1
    outer loop
      vertex 35.8758 -4.99324 3
      vertex 36 -10 3
      vertex 36 -3.71992 3
    endloop
  endfacet
  facet normal -0 0 1
    outer loop
      vertex 34.1242 -4.99324 3
      vertex 36 -10 3
      vertex 35.8758 -4.99324 3
    endloop
  endfacet
  facet normal -0 0 1
    outer loop
      vertex 32.1242 -2.44676 3
      vertex 34.1242 -4.99324 3
      vertex 33.8758 -2.44676 3
    endloop
  endfacet
  facet normal 0 0 1
    outer loop
      vertex 31.8758 -4.99324 3
      vertex 34.1242 -4.99324 3
      vertex 32.1242 -2.44676 3
    endloop
  endfacet
  facet normal 0 0 1
    outer loop
      vertex 34.1242 -4.99324 3
      vertex 31.8758 -4.99324 3
      vertex 36 -10 3
    endloop
  endfacet
  facet normal -0 0 1
    outer loop
      vertex 30.1242 -4.99324 3
      vertex 36 -10 3
      vertex 31.8758 -4.99324 3
    endloop
  endfacet
  facet normal -0 0 1
    outer loop
      vertex 28.1242 -2.44676 3
      vertex 30.1242 -4.99324 3
      vertex 29.8758 -2.44676 3
    endloop
  endfacet
  facet normal 0 0 1
    outer loop
      vertex 27.8758 -4.99324 3
      vertex 30.1242 -4.99324 3
      vertex 28.1242 -2.44676 3
    endloop
  endfacet
  facet normal -0 0 1
    outer loop
      vertex 27.8758 -4.99324 3
      vertex 36 -10 3
      vertex 30.1242 -4.99324 3
    endloop
  endfacet
  facet normal -0 0 1
    outer loop
      vertex 26.1242 -4.99324 3
      vertex 36 -10 3
      vertex 27.8758 -4.99324 3
    endloop
  endfacet
  facet normal -0 0 1
    outer loop
      vertex 24.1242 -2.44676 3
      vertex 26.1242 -4.99324 3
      vertex 25.8758 -2.44676 3
    endloop
  endfacet
  facet normal 0 0 1
    outer loop
      vertex 23.8758 -4.99324 3
      vertex 26.1242 -4.99324 3
      vertex 24.1242 -2.44676 3
    endloop
  endfacet
  facet normal -0 0 1
    outer loop
      vertex 23.8758 -4.99324 3
      vertex 36 -10 3
      vertex 26.1242 -4.99324 3
    endloop
  endfacet
  facet normal 0 0 1
    outer loop
      vertex 14 -10 3
      vertex 23.8758 -4.99324 3
      vertex 22.1242 -4.99324 3
    endloop
  endfacet
  facet normal -0 0 1
    outer loop
      vertex 20.1242 -2.44676 3
      vertex 22.1242 -4.99324 3
      vertex 21.8758 -2.44676 3
    endloop
  endfacet
  facet normal 0 0 1
    outer loop
      vertex 19.8758 -4.99324 3
      vertex 22.1242 -4.99324 3
      vertex 20.1242 -2.44676 3
    endloop
  endfacet
  facet normal 0 0 1
    outer loop
      vertex 14 -10 3
      vertex 22.1242 -4.99324 3
      vertex 19.8758 -4.99324 3
    endloop
  endfacet
  facet normal 0 0 1
    outer loop
      vertex 14 -10 3
      vertex 19.8758 -4.99324 3
      vertex 18.1242 -4.99324 3
    endloop
  endfacet
  facet normal -0 0 1
    outer loop
      vertex 16.1242 -2.44676 3
      vertex 18.1242 -4.99324 3
      vertex 17.8758 -2.44676 3
    endloop
  endfacet
  facet normal 0 0 1
    outer loop
      vertex 15.8758 -4.99324 3
      vertex 18.1242 -4.99324 3
      vertex 16.1242 -2.44676 3
    endloop
  endfacet
  facet normal 0 0 1
    outer loop
      vertex 14 -10 3
      vertex 18.1242 -4.99324 3
      vertex 15.8758 -4.99324 3
    endloop
  endfacet
  facet normal 0 0 1
    outer loop
      vertex 14 -10 3
      vertex 15.8758 -4.99324 3
      vertex 14.1242 -4.99324 3
    endloop
  endfacet
  facet normal 0 0 1
    outer loop
      vertex 23.8758 -4.99324 3
      vertex 14 -10 3
      vertex 36 -10 3
    endloop
  endfacet
  facet normal 0 0 1
    outer loop
      vertex 14 -10 3
      vertex 14.1242 -4.99324 3
      vertex 14 -3.71992 3
    endloop
  endfacet
  facet normal -1 0 0
    outer loop
      vertex 14 3.71992 0
      vertex 14 10 3
      vertex 14 10 0
    endloop
  endfacet
  facet normal -1 -0 0
    outer loop
      vertex 14 10 3
      vertex 14 3.71992 0
      vertex 14 3.71992 3
    endloop
  endfacet
  facet normal -1 0 0
    outer loop
      vertex 14 -10 0
      vertex 14 -3.71992 3
      vertex 14 -3.71992 0
    endloop
  endfacet
  facet normal -1 -0 0
    outer loop
      vertex 14 -3.71992 3
      vertex 14 -10 0
      vertex 14 -10 3
    endloop
  endfacet
  facet normal 0 1 -0
    outer loop
      vertex 36 10 0
      vertex 14 10 3
      vertex 36 10 3
    endloop
  endfacet
  facet normal 0 1 0
    outer loop
      vertex 14 10 3
      vertex 36 10 0
      vertex 14 10 0
    endloop
  endfacet
  facet normal 0 -1 0
    outer loop
      vertex 14 -10 0
      vertex 36 -10 3
      vertex 14 -10 3
    endloop
  endfacet
  facet normal 0 -1 -0
    outer loop
      vertex 36 -10 3
      vertex 14 -10 0
      vertex 36 -10 0
    endloop
  endfacet
  facet normal -1 0 0
    outer loop
      vertex 30 -2.5 11.5
      vertex 30 2.5 19.5
      vertex 30 2.5 11.5
    endloop
  endfacet
  facet normal -1 -0 0
    outer loop
      vertex 30 2.5 19.5
      vertex 30 -2.5 11.5
      vertex 30 -2.5 19.5
    endloop
  endfacet
  facet normal 0 1 0
    outer loop
      vertex 36 2.5 29.061
      vertex 30 2.5 19.5
      vertex 30.7802 2.5 29.4695
    endloop
  endfacet
  facet normal 0 1 -0
    outer loop
      vertex 33.309 2.5 15.9511
      vertex 30 2.5 19.5
      vertex 36 2.5 29.061
    endloop
  endfacet
  facet normal 0 1 0
    outer loop
      vertex 30 2.5 19.5
      vertex 33.309 2.5 15.9511
      vertex 33.0628 2.5 15.998
    endloop
  endfacet
  facet normal 0 1 0
    outer loop
      vertex 36 2.5 29.061
      vertex 33.5358 2.5 15.8443
      vertex 33.309 2.5 15.9511
    endloop
  endfacet
  facet normal 0 1 0
    outer loop
      vertex 36 2.5 29.061
      vertex 33.729 2.5 15.6845
      vertex 33.5358 2.5 15.8443
    endloop
  endfacet
  facet normal 0 1 0
    outer loop
      vertex 36 2.5 29.061
      vertex 33.8763 2.5 15.4818
      vertex 33.729 2.5 15.6845
    endloop
  endfacet
  facet normal 0 1 0
    outer loop
      vertex 36 2.5 29.061
      vertex 33.9686 2.5 15.2487
      vertex 33.8763 2.5 15.4818
    endloop
  endfacet
  facet normal 0 1 -0
    outer loop
      vertex 36 2.5 11.5
      vertex 33.9686 2.5 15.2487
      vertex 36 2.5 29.061
    endloop
  endfacet
  facet normal 0 1 0
    outer loop
      vertex 33.9686 2.5 15.2487
      vertex 36 2.5 11.5
      vertex 34 2.5 15
    endloop
  endfacet
  facet normal 0 1 0
    outer loop
      vertex 33.5358 2.5 14.1557
      vertex 34.119 2.5 11.5
      vertex 33.309 2.5 14.0489
    endloop
  endfacet
  facet normal 0 1 0
    outer loop
      vertex 33.729 2.5 14.3155
      vertex 34.119 2.5 11.5
      vertex 33.5358 2.5 14.1557
    endloop
  endfacet
  facet normal 0 1 -0
    outer loop
      vertex 34.119 2.5 11.5
      vertex 33.729 2.5 14.3155
      vertex 36 2.5 11.5
    endloop
  endfacet
  facet normal 0 1 0
    outer loop
      vertex 33.8763 2.5 14.5182
      vertex 36 2.5 11.5
      vertex 33.729 2.5 14.3155
    endloop
  endfacet
  facet normal 0 1 0
    outer loop
      vertex 33.9686 2.5 14.7513
      vertex 36 2.5 11.5
      vertex 33.8763 2.5 14.5182
    endloop
  endfacet
  facet normal 0 1 0
    outer loop
      vertex 34 2.5 15
      vertex 36 2.5 11.5
      vertex 33.9686 2.5 14.7513
    endloop
  endfacet
  facet normal 0 1 -0
    outer loop
      vertex 32.8126 2.5 15.9823
      vertex 30 2.5 19.5
      vertex 33.0628 2.5 15.998
    endloop
  endfacet
  facet normal 0 1 -0
    outer loop
      vertex 32.5742 2.5 15.9048
      vertex 30 2.5 19.5
      vertex 32.8126 2.5 15.9823
    endloop
  endfacet
  facet normal 0 1 -0
    outer loop
      vertex 32.3626 2.5 15.7705
      vertex 30 2.5 19.5
      vertex 32.5742 2.5 15.9048
    endloop
  endfacet
  facet normal 0 1 -0
    outer loop
      vertex 32.191 2.5 15.5878
      vertex 30 2.5 19.5
      vertex 32.3626 2.5 15.7705
    endloop
  endfacet
  facet normal 0 1 -0
    outer loop
      vertex 32.0702 2.5 15.3681
      vertex 30 2.5 19.5
      vertex 32.191 2.5 15.5878
    endloop
  endfacet
  facet normal 0 1 -0
    outer loop
      vertex 32.0079 2.5 15.1253
      vertex 30 2.5 19.5
      vertex 32.0702 2.5 15.3681
    endloop
  endfacet
  facet normal 0 1 0
    outer loop
      vertex 30 2.5 11.5
      vertex 32.0079 2.5 15.1253
      vertex 32.0079 2.5 14.8747
    endloop
  endfacet
  facet normal 0 1 0
    outer loop
      vertex 30 2.5 11.5
      vertex 32.0079 2.5 14.8747
      vertex 32.0702 2.5 14.6319
    endloop
  endfacet
  facet normal 0 1 0
    outer loop
      vertex 33.309 2.5 14.0489
      vertex 34.119 2.5 11.5
      vertex 33.0628 2.5 14.002
    endloop
  endfacet
  facet normal 0 1 0
    outer loop
      vertex 31.881 2.5 11.5
      vertex 33.0628 2.5 14.002
      vertex 34.119 2.5 11.5
    endloop
  endfacet
  facet normal 0 1 0
    outer loop
      vertex 33.0628 2.5 14.002
      vertex 31.881 2.5 11.5
      vertex 32.8126 2.5 14.0177
    endloop
  endfacet
  facet normal 0 1 0
    outer loop
      vertex 32.8126 2.5 14.0177
      vertex 31.881 2.5 11.5
      vertex 32.5742 2.5 14.0952
    endloop
  endfacet
  facet normal 0 1 0
    outer loop
      vertex 32.5742 2.5 14.0952
      vertex 31.881 2.5 11.5
      vertex 32.3626 2.5 14.2295
    endloop
  endfacet
  facet normal 0 1 0
    outer loop
      vertex 30.119 2.5 11.5
      vertex 32.3626 2.5 14.2295
      vertex 31.881 2.5 11.5
    endloop
  endfacet
  facet normal 0 1 0
    outer loop
      vertex 32.3626 2.5 14.2295
      vertex 30.119 2.5 11.5
      vertex 32.191 2.5 14.4122
    endloop
  endfacet
  facet normal 0 1 0
    outer loop
      vertex 32.191 2.5 14.4122
      vertex 30.119 2.5 11.5
      vertex 32.0702 2.5 14.6319
    endloop
  endfacet
  facet normal 0 1 0
    outer loop
      vertex 30 2.5 11.5
      vertex 32.0702 2.5 14.6319
      vertex 30.119 2.5 11.5
    endloop
  endfacet
  facet normal 0 1 0
    outer loop
      vertex 32.0079 2.5 15.1253
      vertex 30 2.5 11.5
      vertex 30 2.5 19.5
    endloop
  endfacet
  facet normal 0 -1 0
    outer loop
      vertex 30 -2.5 19.5
      vertex 32.8126 -2.5 15.9823
      vertex 33.0628 -2.5 15.998
    endloop
  endfacet
  facet normal 0 -1 0
    outer loop
      vertex 30 -2.5 19.5
      vertex 32.5742 -2.5 15.9048
      vertex 32.8126 -2.5 15.9823
    endloop
  endfacet
  facet normal 0 -1 0
    outer loop
      vertex 30 -2.5 19.5
      vertex 32.3626 -2.5 15.7705
      vertex 32.5742 -2.5 15.9048
    endloop
  endfacet
  facet normal 0 -1 0
    outer loop
      vertex 30 -2.5 19.5
      vertex 32.191 -2.5 15.5878
      vertex 32.3626 -2.5 15.7705
    endloop
  endfacet
  facet normal 0 -1 0
    outer loop
      vertex 30 -2.5 19.5
      vertex 32.0702 -2.5 15.3681
      vertex 32.191 -2.5 15.5878
    endloop
  endfacet
  facet normal 0 -1 0
    outer loop
      vertex 30 -2.5 19.5
      vertex 32.0079 -2.5 15.1253
      vertex 32.0702 -2.5 15.3681
    endloop
  endfacet
  facet normal 0 -1 0
    outer loop
      vertex 30 -2.5 11.5
      vertex 32.0079 -2.5 15.1253
      vertex 30 -2.5 19.5
    endloop
  endfacet
  facet normal 0 -1 -0
    outer loop
      vertex 32.0079 -2.5 15.1253
      vertex 30 -2.5 11.5
      vertex 32.0079 -2.5 14.8747
    endloop
  endfacet
  facet normal 0 -1 -0
    outer loop
      vertex 32.5742 -2.5 14.0952
      vertex 32.119 -2.5 11.5
      vertex 32.8126 -2.5 14.0177
    endloop
  endfacet
  facet normal 0 -1 -0
    outer loop
      vertex 32.3626 -2.5 14.2295
      vertex 32.119 -2.5 11.5
      vertex 32.5742 -2.5 14.0952
    endloop
  endfacet
  facet normal 0 -1 0
    outer loop
      vertex 32.119 -2.5 11.5
      vertex 32.3626 -2.5 14.2295
      vertex 30 -2.5 11.5
    endloop
  endfacet
  facet normal 0 -1 -0
    outer loop
      vertex 32.191 -2.5 14.4122
      vertex 30 -2.5 11.5
      vertex 32.3626 -2.5 14.2295
    endloop
  endfacet
  facet normal 0 -1 -0
    outer loop
      vertex 32.0702 -2.5 14.6319
      vertex 30 -2.5 11.5
      vertex 32.191 -2.5 14.4122
    endloop
  endfacet
  facet normal 0 -1 -0
    outer loop
      vertex 32.0079 -2.5 14.8747
      vertex 30 -2.5 11.5
      vertex 32.0702 -2.5 14.6319
    endloop
  endfacet
  facet normal 0 -1 0
    outer loop
      vertex 30 -2.5 19.5
      vertex 36 -2.5 29.061
      vertex 30.7802 -2.5 29.4695
    endloop
  endfacet
  facet normal 0 -1 0
    outer loop
      vertex 33.309 -2.5 15.9511
      vertex 30 -2.5 19.5
      vertex 33.0628 -2.5 15.998
    endloop
  endfacet
  facet normal 0 -1 0
    outer loop
      vertex 30 -2.5 19.5
      vertex 33.309 -2.5 15.9511
      vertex 36 -2.5 29.061
    endloop
  endfacet
  facet normal 0 -1 0
    outer loop
      vertex 33.5358 -2.5 15.8443
      vertex 36 -2.5 29.061
      vertex 33.309 -2.5 15.9511
    endloop
  endfacet
  facet normal 0 -1 0
    outer loop
      vertex 33.729 -2.5 15.6845
      vertex 36 -2.5 29.061
      vertex 33.5358 -2.5 15.8443
    endloop
  endfacet
  facet normal 0 -1 0
    outer loop
      vertex 33.8763 -2.5 15.4818
      vertex 36 -2.5 29.061
      vertex 33.729 -2.5 15.6845
    endloop
  endfacet
  facet normal 0 -1 0
    outer loop
      vertex 33.9686 -2.5 15.2487
      vertex 36 -2.5 29.061
      vertex 33.8763 -2.5 15.4818
    endloop
  endfacet
  facet normal 0 -1 0
    outer loop
      vertex 36 -2.5 11.5
      vertex 33.9686 -2.5 15.2487
      vertex 34 -2.5 15
    endloop
  endfacet
  facet normal 0 -1 0
    outer loop
      vertex 36 -2.5 11.5
      vertex 34 -2.5 15
      vertex 33.9686 -2.5 14.7513
    endloop
  endfacet
  facet normal 0 -1 -0
    outer loop
      vertex 32.8126 -2.5 14.0177
      vertex 32.119 -2.5 11.5
      vertex 33.0628 -2.5 14.002
    endloop
  endfacet
  facet normal 0 -1 0
    outer loop
      vertex 33.881 -2.5 11.5
      vertex 33.0628 -2.5 14.002
      vertex 32.119 -2.5 11.5
    endloop
  endfacet
  facet normal 0 -1 0
    outer loop
      vertex 33.0628 -2.5 14.002
      vertex 33.881 -2.5 11.5
      vertex 33.309 -2.5 14.0489
    endloop
  endfacet
  facet normal 0 -1 0
    outer loop
      vertex 33.309 -2.5 14.0489
      vertex 33.881 -2.5 11.5
      vertex 33.5358 -2.5 14.1557
    endloop
  endfacet
  facet normal 0 -1 0
    outer loop
      vertex 33.5358 -2.5 14.1557
      vertex 33.881 -2.5 11.5
      vertex 33.729 -2.5 14.3155
    endloop
  endfacet
  facet normal 0 -1 0
    outer loop
      vertex 36 -2.5 11.5
      vertex 33.729 -2.5 14.3155
      vertex 33.881 -2.5 11.5
    endloop
  endfacet
  facet normal 0 -1 0
    outer loop
      vertex 33.729 -2.5 14.3155
      vertex 36 -2.5 11.5
      vertex 33.8763 -2.5 14.5182
    endloop
  endfacet
  facet normal 0 -1 0
    outer loop
      vertex 33.8763 -2.5 14.5182
      vertex 36 -2.5 11.5
      vertex 33.9686 -2.5 14.7513
    endloop
  endfacet
  facet normal 0 -1 0
    outer loop
      vertex 33.9686 -2.5 15.2487
      vertex 36 -2.5 11.5
      vertex 36 -2.5 29.061
    endloop
  endfacet
  facet normal 0.0780211 0 0.996952
    outer loop
      vertex 30.7802 2.5 29.4695
      vertex 36 -2.5 29.061
      vertex 36 2.5 29.061
    endloop
  endfacet
  facet normal 0.0780211 0 0.996952
    outer loop
      vertex 36 -2.5 29.061
      vertex 30.7802 2.5 29.4695
      vertex 30.7802 -2.5 29.4695
    endloop
  endfacet
  facet normal -0.996952 0 0.0780201
    outer loop
      vertex 30 -2.5 19.5
      vertex 30.7802 2.5 29.4695
      vertex 30 2.5 19.5
    endloop
  endfacet
  facet normal -0.996952 0 0.0780201
    outer loop
      vertex 30.7802 2.5 29.4695
      vertex 30 -2.5 19.5
      vertex 30.7802 -2.5 29.4695
    endloop
  endfacet
  facet normal -0.992124 0 0.125262
    outer loop
      vertex 33.9686 -2.5 14.7513
      vertex 34 2.5 15
      vertex 33.9686 2.5 14.7513
    endloop
  endfacet
  facet normal -0.992124 0 0.125262
    outer loop
      vertex 34 2.5 15
      vertex 33.9686 -2.5 14.7513
      vertex 34 -2.5 15
    endloop
  endfacet
  facet normal 1 -0 0
    outer loop
      vertex 32.0079 -2.5 15.1253
      vertex 32.0079 2.5 14.8747
      vertex 32.0079 2.5 15.1253
    endloop
  endfacet
  facet normal 1 0 0
    outer loop
      vertex 32.0079 2.5 14.8747
      vertex 32.0079 -2.5 15.1253
      vertex 32.0079 -2.5 14.8747
    endloop
  endfacet
  facet normal -0.637355 0 0.77057
    outer loop
      vertex 33.5358 2.5 14.1557
      vertex 33.729 -2.5 14.3155
      vertex 33.729 2.5 14.3155
    endloop
  endfacet
  facet normal -0.637355 0 0.77057
    outer loop
      vertex 33.729 -2.5 14.3155
      vertex 33.5358 2.5 14.1557
      vertex 33.5358 -2.5 14.1557
    endloop
  endfacet
  facet normal -0.80896 0 0.587863
    outer loop
      vertex 33.729 -2.5 14.3155
      vertex 33.8763 2.5 14.5182
      vertex 33.729 2.5 14.3155
    endloop
  endfacet
  facet normal -0.80896 0 0.587863
    outer loop
      vertex 33.8763 2.5 14.5182
      vertex 33.729 -2.5 14.3155
      vertex 33.8763 -2.5 14.5182
    endloop
  endfacet
  facet normal 0.535868 0 0.844302
    outer loop
      vertex 32.3626 2.5 14.2295
      vertex 32.5742 -2.5 14.0952
      vertex 32.5742 2.5 14.0952
    endloop
  endfacet
  facet normal 0.535868 0 0.844302
    outer loop
      vertex 32.5742 -2.5 14.0952
      vertex 32.3626 2.5 14.2295
      vertex 32.3626 -2.5 14.2295
    endloop
  endfacet
  facet normal 0.0626266 0 -0.998037
    outer loop
      vertex 32.8126 -2.5 15.9823
      vertex 33.0628 2.5 15.998
      vertex 33.0628 -2.5 15.998
    endloop
  endfacet
  facet normal 0.0626266 0 -0.998037
    outer loop
      vertex 33.0628 2.5 15.998
      vertex 32.8126 -2.5 15.9823
      vertex 32.8126 2.5 15.9823
    endloop
  endfacet
  facet normal 0.0626266 0 0.998037
    outer loop
      vertex 32.8126 2.5 14.0177
      vertex 33.0628 -2.5 14.002
      vertex 33.0628 2.5 14.002
    endloop
  endfacet
  facet normal 0.0626266 0 0.998037
    outer loop
      vertex 33.0628 -2.5 14.002
      vertex 32.8126 2.5 14.0177
      vertex 32.8126 -2.5 14.0177
    endloop
  endfacet
  facet normal -0.929764 0 0.368156
    outer loop
      vertex 33.8763 -2.5 14.5182
      vertex 33.9686 2.5 14.7513
      vertex 33.8763 2.5 14.5182
    endloop
  endfacet
  facet normal -0.929764 0 0.368156
    outer loop
      vertex 33.9686 2.5 14.7513
      vertex 33.8763 -2.5 14.5182
      vertex 33.9686 -2.5 14.7513
    endloop
  endfacet
  facet normal 0.968622 0 -0.248539
    outer loop
      vertex 32.0702 -2.5 15.3681
      vertex 32.0079 2.5 15.1253
      vertex 32.0702 2.5 15.3681
    endloop
  endfacet
  facet normal 0.968622 0 -0.248539
    outer loop
      vertex 32.0079 2.5 15.1253
      vertex 32.0702 -2.5 15.3681
      vertex 32.0079 -2.5 15.1253
    endloop
  endfacet
  facet normal 0.309158 0 -0.951011
    outer loop
      vertex 32.5742 -2.5 15.9048
      vertex 32.8126 2.5 15.9823
      vertex 32.8126 -2.5 15.9823
    endloop
  endfacet
  facet normal 0.309158 0 -0.951011
    outer loop
      vertex 32.8126 2.5 15.9823
      vertex 32.5742 -2.5 15.9048
      vertex 32.5742 2.5 15.9048
    endloop
  endfacet
  facet normal -0.80896 0 -0.587863
    outer loop
      vertex 33.8763 -2.5 15.4818
      vertex 33.729 2.5 15.6845
      vertex 33.8763 2.5 15.4818
    endloop
  endfacet
  facet normal -0.80896 -0 -0.587863
    outer loop
      vertex 33.729 2.5 15.6845
      vertex 33.8763 -2.5 15.4818
      vertex 33.729 -2.5 15.6845
    endloop
  endfacet
  facet normal -0.426028 0 0.90471
    outer loop
      vertex 33.309 2.5 14.0489
      vertex 33.5358 -2.5 14.1557
      vertex 33.5358 2.5 14.1557
    endloop
  endfacet
  facet normal -0.426028 0 0.90471
    outer loop
      vertex 33.5358 -2.5 14.1557
      vertex 33.309 2.5 14.0489
      vertex 33.309 -2.5 14.0489
    endloop
  endfacet
  facet normal 0.968622 -0 0.248539
    outer loop
      vertex 32.0079 -2.5 14.8747
      vertex 32.0702 2.5 14.6319
      vertex 32.0079 2.5 14.8747
    endloop
  endfacet
  facet normal 0.968622 0 0.248539
    outer loop
      vertex 32.0702 2.5 14.6319
      vertex 32.0079 -2.5 14.8747
      vertex 32.0702 -2.5 14.6319
    endloop
  endfacet
  facet normal 0.309158 0 0.951011
    outer loop
      vertex 32.5742 2.5 14.0952
      vertex 32.8126 -2.5 14.0177
      vertex 32.8126 2.5 14.0177
    endloop
  endfacet
  facet normal 0.309158 0 0.951011
    outer loop
      vertex 32.8126 -2.5 14.0177
      vertex 32.5742 2.5 14.0952
      vertex 32.5742 -2.5 14.0952
    endloop
  endfacet
  facet normal 0.876275 -0 0.481812
    outer loop
      vertex 32.0702 -2.5 14.6319
      vertex 32.191 2.5 14.4122
      vertex 32.0702 2.5 14.6319
    endloop
  endfacet
  facet normal 0.876275 0 0.481812
    outer loop
      vertex 32.191 2.5 14.4122
      vertex 32.0702 -2.5 14.6319
      vertex 32.191 -2.5 14.4122
    endloop
  endfacet
  facet normal 0.728902 -0 0.684618
    outer loop
      vertex 32.191 -2.5 14.4122
      vertex 32.3626 2.5 14.2295
      vertex 32.191 2.5 14.4122
    endloop
  endfacet
  facet normal 0.728902 0 0.684618
    outer loop
      vertex 32.3626 2.5 14.2295
      vertex 32.191 -2.5 14.4122
      vertex 32.3626 -2.5 14.2295
    endloop
  endfacet
  facet normal 0.535868 0 -0.844302
    outer loop
      vertex 32.3626 -2.5 15.7705
      vertex 32.5742 2.5 15.9048
      vertex 32.5742 -2.5 15.9048
    endloop
  endfacet
  facet normal 0.535868 0 -0.844302
    outer loop
      vertex 32.5742 2.5 15.9048
      vertex 32.3626 -2.5 15.7705
      vertex 32.3626 2.5 15.7705
    endloop
  endfacet
  facet normal -0.637355 0 -0.77057
    outer loop
      vertex 33.5358 -2.5 15.8443
      vertex 33.729 2.5 15.6845
      vertex 33.729 -2.5 15.6845
    endloop
  endfacet
  facet normal -0.637355 0 -0.77057
    outer loop
      vertex 33.729 2.5 15.6845
      vertex 33.5358 -2.5 15.8443
      vertex 33.5358 2.5 15.8443
    endloop
  endfacet
  facet normal -0.992124 0 -0.125262
    outer loop
      vertex 34 -2.5 15
      vertex 33.9686 2.5 15.2487
      vertex 34 2.5 15
    endloop
  endfacet
  facet normal -0.992124 -0 -0.125262
    outer loop
      vertex 33.9686 2.5 15.2487
      vertex 34 -2.5 15
      vertex 33.9686 -2.5 15.2487
    endloop
  endfacet
  facet normal -0.929764 0 -0.368156
    outer loop
      vertex 33.9686 -2.5 15.2487
      vertex 33.8763 2.5 15.4818
      vertex 33.9686 2.5 15.2487
    endloop
  endfacet
  facet normal -0.929764 -0 -0.368156
    outer loop
      vertex 33.8763 2.5 15.4818
      vertex 33.9686 -2.5 15.2487
      vertex 33.8763 -2.5 15.4818
    endloop
  endfacet
  facet normal -0.18713 0 -0.982335
    outer loop
      vertex 33.0628 -2.5 15.998
      vertex 33.309 2.5 15.9511
      vertex 33.309 -2.5 15.9511
    endloop
  endfacet
  facet normal -0.18713 0 -0.982335
    outer loop
      vertex 33.309 2.5 15.9511
      vertex 33.0628 -2.5 15.998
      vertex 33.0628 2.5 15.998
    endloop
  endfacet
  facet normal 0.876275 0 -0.481812
    outer loop
      vertex 32.191 -2.5 15.5878
      vertex 32.0702 2.5 15.3681
      vertex 32.191 2.5 15.5878
    endloop
  endfacet
  facet normal 0.876275 0 -0.481812
    outer loop
      vertex 32.0702 2.5 15.3681
      vertex 32.191 -2.5 15.5878
      vertex 32.0702 -2.5 15.3681
    endloop
  endfacet
  facet normal 0.728902 0 -0.684618
    outer loop
      vertex 32.3626 -2.5 15.7705
      vertex 32.191 2.5 15.5878
      vertex 32.3626 2.5 15.7705
    endloop
  endfacet
  facet normal 0.728902 0 -0.684618
    outer loop
      vertex 32.191 2.5 15.5878
      vertex 32.3626 -2.5 15.7705
      vertex 32.191 -2.5 15.5878
    endloop
  endfacet
  facet normal -0.426028 0 -0.90471
    outer loop
      vertex 33.309 -2.5 15.9511
      vertex 33.5358 2.5 15.8443
      vertex 33.5358 -2.5 15.8443
    endloop
  endfacet
  facet normal -0.426028 0 -0.90471
    outer loop
      vertex 33.5358 2.5 15.8443
      vertex 33.309 -2.5 15.9511
      vertex 33.309 2.5 15.9511
    endloop
  endfacet
  facet normal -0.18713 0 0.982335
    outer loop
      vertex 33.0628 2.5 14.002
      vertex 33.309 -2.5 14.0489
      vertex 33.309 2.5 14.0489
    endloop
  endfacet
  facet normal -0.18713 0 0.982335
    outer loop
      vertex 33.309 -2.5 14.0489
      vertex 33.0628 2.5 14.002
      vertex 33.0628 -2.5 14.002
    endloop
  endfacet
endsolid OpenSCAD_Model
