solid OpenSCAD_Model
  facet normal -0.866025 -0.5 0
    outer loop
      vertex 5.28319 11.2493 0
      vertex -9.11103 36.1808 3.2
      vertex -9.11103 36.1808 0
    endloop
  endfacet
  facet normal -0.866025 -0.5 0
    outer loop
      vertex -9.11103 36.1808 3.2
      vertex 5.28319 11.2493 0
      vertex 5.28319 11.2493 3.2
    endloop
  endfacet
  facet normal 0.755929 0.654654 -0
    outer loop
      vertex 35.889 10.2 3.2
      vertex 17.889 30.9846 6.9
      vertex 35.889 10.2 6.9
    endloop
  endfacet
  facet normal 0.755929 0.654654 0
    outer loop
      vertex 17.889 30.9846 6.9
      vertex 35.889 10.2 3.2
      vertex 17.889 30.9846 0
    endloop
  endfacet
  facet normal 0.755929 0.654654 0
    outer loop
      vertex 17.889 30.9846 0
      vertex 35.889 10.2 3.2
      vertex 35.889 10.2 0
    endloop
  endfacet
  facet normal 0 0 -1
    outer loop
      vertex 35.889 6.2 3.2
      vertex 7.24846 9.59956 3.2
      vertex 35.889 10.2 3.2
    endloop
  endfacet
  facet normal 0 0 -1
    outer loop
      vertex 35.889 6.2 3.2
      vertex 7.21176 9.16243 3.2
      vertex 7.24846 9.59956 3.2
    endloop
  endfacet
  facet normal 0 0 -1
    outer loop
      vertex 35.889 6.2 3.2
      vertex 7.0675 8.74817 3.2
      vertex 7.21176 9.16243 3.2
    endloop
  endfacet
  facet normal 0 0 -1
    outer loop
      vertex 5.88897 6.2 3.2
      vertex 7.0675 8.74817 3.2
      vertex 35.889 6.2 3.2
    endloop
  endfacet
  facet normal 0 0 -1
    outer loop
      vertex 7.0675 8.74817 3.2
      vertex 5.88897 6.2 3.2
      vertex 6.82474 8.38279 3.2
    endloop
  endfacet
  facet normal 0 0 -1
    outer loop
      vertex 6.82474 8.38279 3.2
      vertex 5.88897 6.2 3.2
      vertex 6.49875 8.08927 3.2
    endloop
  endfacet
  facet normal 0 0 -1
    outer loop
      vertex 6.49875 8.08927 3.2
      vertex 5.88897 6.2 3.2
      vertex 6.11 7.88604 3.2
    endloop
  endfacet
  facet normal 0 0 -1
    outer loop
      vertex 5.88897 6.2 3.2
      vertex 5.68292 7.78587 3.2
      vertex 6.11 7.88604 3.2
    endloop
  endfacet
  facet normal 0 0 -1
    outer loop
      vertex 5.88897 6.2 3.2
      vertex 5.24435 7.79505 3.2
      vertex 5.68292 7.78587 3.2
    endloop
  endfacet
  facet normal 0 0 -1
    outer loop
      vertex 5.88897 6.2 3.2
      vertex 4.82185 7.91302 3.2
      vertex 5.24435 7.79505 3.2
    endloop
  endfacet
  facet normal 0 0 -1
    outer loop
      vertex 5.88897 6.2 3.2
      vertex 4.44195 8.13235 3.2
      vertex 4.82185 7.91302 3.2
    endloop
  endfacet
  facet normal 0 0 -1
    outer loop
      vertex 2.42488 8.2 3.2
      vertex 4.44195 8.13235 3.2
      vertex 5.88897 6.2 3.2
    endloop
  endfacet
  facet normal -0 0 -1
    outer loop
      vertex 3.77451 9.23443 3.2
      vertex 2.42488 8.2 3.2
      vertex 3.75614 9.67272 3.2
    endloop
  endfacet
  facet normal -0 0 -1
    outer loop
      vertex 3.90129 8.81449 3.2
      vertex 2.42488 8.2 3.2
      vertex 3.77451 9.23443 3.2
    endloop
  endfacet
  facet normal -0 0 -1
    outer loop
      vertex 4.12854 8.43927 3.2
      vertex 2.42488 8.2 3.2
      vertex 3.90129 8.81449 3.2
    endloop
  endfacet
  facet normal 0 0 -1
    outer loop
      vertex 4.44195 8.13235 3.2
      vertex 2.42488 8.2 3.2
      vertex 4.12854 8.43927 3.2
    endloop
  endfacet
  facet normal 0 0 -1
    outer loop
      vertex 7.17531 10.0321 3.2
      vertex 35.889 10.2 3.2
      vertex 7.24846 9.59956 3.2
    endloop
  endfacet
  facet normal -0 0 -1
    outer loop
      vertex 35.889 10.2 3.2
      vertex 7.17531 10.0321 3.2
      vertex 7.10055 10.2 3.2
    endloop
  endfacet
  facet normal 0 0 -1
    outer loop
      vertex 2.42488 8.2 3.2
      vertex 3.84734 10.1018 3.2
      vertex 3.75614 9.67272 3.2
    endloop
  endfacet
  facet normal 0 0 -1
    outer loop
      vertex 2.42488 8.2 3.2
      vertex 4.04239 10.4947 3.2
      vertex 3.84734 10.1018 3.2
    endloop
  endfacet
  facet normal 0 0 -1
    outer loop
      vertex 5.10039 11.23 3.2
      vertex -9.11103 36.1808 3.2
      vertex 5.28319 11.2493 3.2
    endloop
  endfacet
  facet normal 0 0 -1
    outer loop
      vertex 4.68923 11.0771 3.2
      vertex -9.11103 36.1808 3.2
      vertex 5.10039 11.23 3.2
    endloop
  endfacet
  facet normal 0 0 -1
    outer loop
      vertex 4.32902 10.8268 3.2
      vertex -9.11103 36.1808 3.2
      vertex 4.68923 11.0771 3.2
    endloop
  endfacet
  facet normal 0 0 -1
    outer loop
      vertex -12.5751 34.1808 3.2
      vertex 4.32902 10.8268 3.2
      vertex 4.04239 10.4947 3.2
    endloop
  endfacet
  facet normal 0 0 -1
    outer loop
      vertex -12.5751 34.1808 3.2
      vertex 4.04239 10.4947 3.2
      vertex 2.42488 8.2 3.2
    endloop
  endfacet
  facet normal 0 0 -1
    outer loop
      vertex 4.32902 10.8268 3.2
      vertex -12.5751 34.1808 3.2
      vertex -9.11103 36.1808 3.2
    endloop
  endfacet
  facet normal 0.188984 0.98198 0
    outer loop
      vertex 17.889 30.9846 6.9
      vertex -9.11103 36.1808 3.2
      vertex -9.11103 36.1808 6.9
    endloop
  endfacet
  facet normal 0.188984 0.98198 -0
    outer loop
      vertex 17.889 30.9846 0
      vertex -9.11103 36.1808 3.2
      vertex 17.889 30.9846 6.9
    endloop
  endfacet
  facet normal 0.188984 0.98198 0
    outer loop
      vertex -9.11103 36.1808 3.2
      vertex 17.889 30.9846 0
      vertex -9.11103 36.1808 0
    endloop
  endfacet
  facet normal 0 -1 0
    outer loop
      vertex 7.10055 10.2 0
      vertex 35.889 10.2 3.2
      vertex 7.10055 10.2 3.2
    endloop
  endfacet
  facet normal 0 -1 -0
    outer loop
      vertex 35.889 10.2 3.2
      vertex 7.10055 10.2 0
      vertex 35.889 10.2 0
    endloop
  endfacet
  facet normal 0 0 -1
    outer loop
      vertex 14.8785 27.0588 0
      vertex 4.05249 23.3912 0
      vertex 4.12321 23.8241 0
    endloop
  endfacet
  facet normal 0 0 -1
    outer loop
      vertex 5.53665 11.2759 0
      vertex 3.87634 22.9894 0
      vertex 4.05249 23.3912 0
    endloop
  endfacet
  facet normal 0 0 -1
    outer loop
      vertex 5.53665 11.2759 0
      vertex 3.60581 22.6441 0
      vertex 3.87634 22.9894 0
    endloop
  endfacet
  facet normal 0 0 -1
    outer loop
      vertex 5.53665 11.2759 0
      vertex 3.2579 22.3769 0
      vertex 3.60581 22.6441 0
    endloop
  endfacet
  facet normal 0 0 -1
    outer loop
      vertex 5.53665 11.2759 0
      vertex 2.85448 22.2046 0
      vertex 3.2579 22.3769 0
    endloop
  endfacet
  facet normal 0 0 -1
    outer loop
      vertex 5.28319 11.2493 0
      vertex 2.42089 22.1381 0
      vertex 2.85448 22.2046 0
    endloop
  endfacet
  facet normal 0 0 -1
    outer loop
      vertex 5.28319 11.2493 0
      vertex 1.98437 22.1815 0
      vertex 2.42089 22.1381 0
    endloop
  endfacet
  facet normal 0 0 -1
    outer loop
      vertex 5.28319 11.2493 0
      vertex 1.57236 22.3321 0
      vertex 1.98437 22.1815 0
    endloop
  endfacet
  facet normal 0 0 -1
    outer loop
      vertex 5.28319 11.2493 0
      vertex 1.21074 22.5804 0
      vertex 1.57236 22.3321 0
    endloop
  endfacet
  facet normal 0 0 -1
    outer loop
      vertex 5.28319 11.2493 0
      vertex 0.922235 22.9108 0
      vertex 1.21074 22.5804 0
    endloop
  endfacet
  facet normal 0 0 -1
    outer loop
      vertex -9.11103 36.1808 0
      vertex 0.922235 22.9108 0
      vertex 5.28319 11.2493 0
    endloop
  endfacet
  facet normal 0 0 -1
    outer loop
      vertex 0.724974 23.3027 0
      vertex -9.11103 36.1808 0
      vertex 0.631348 23.7312 0
    endloop
  endfacet
  facet normal 0 0 -1
    outer loop
      vertex 0.922235 22.9108 0
      vertex -9.11103 36.1808 0
      vertex 0.724974 23.3027 0
    endloop
  endfacet
  facet normal 0 0 -1
    outer loop
      vertex 15.5718 26.5326 0
      vertex 18.2311 15.2051 0
      vertex 17.9712 14.8517 0
    endloop
  endfacet
  facet normal 0 0 -1
    outer loop
      vertex 18.2311 15.2051 0
      vertex 17.9618 27.782 0
      vertex 17.9985 28.2191 0
    endloop
  endfacet
  facet normal 0 0 -1
    outer loop
      vertex 18.2311 15.2051 0
      vertex 17.8175 27.3677 0
      vertex 17.9618 27.782 0
    endloop
  endfacet
  facet normal 0 0 -1
    outer loop
      vertex 6.375 11.0418 0
      vertex 17.9712 14.8517 0
      vertex 17.8075 14.4448 0
    endloop
  endfacet
  facet normal 0 0 -1
    outer loop
      vertex 6.72441 10.7766 0
      vertex 17.8075 14.4448 0
      vertex 17.75 14.0099 0
    endloop
  endfacet
  facet normal 0 0 -1
    outer loop
      vertex 18.2311 15.2051 0
      vertex 17.5747 27.0023 0
      vertex 17.8175 27.3677 0
    endloop
  endfacet
  facet normal 0 0 -1
    outer loop
      vertex 35.889 10.2 0
      vertex 21.2349 13.7709 0
      vertex 21.2374 14.2095 0
    endloop
  endfacet
  facet normal 0 0 -1
    outer loop
      vertex 35.889 10.2 0
      vertex 21.1234 13.3466 0
      vertex 21.2349 13.7709 0
    endloop
  endfacet
  facet normal 0 0 -1
    outer loop
      vertex 35.889 10.2 0
      vertex 20.9099 12.9634 0
      vertex 21.1234 13.3466 0
    endloop
  endfacet
  facet normal 0 0 -1
    outer loop
      vertex 35.889 10.2 0
      vertex 20.6079 12.6453 0
      vertex 20.9099 12.9634 0
    endloop
  endfacet
  facet normal 0 0 -1
    outer loop
      vertex 35.889 10.2 0
      vertex 20.2362 12.4124 0
      vertex 20.6079 12.6453 0
    endloop
  endfacet
  facet normal 0 0 -1
    outer loop
      vertex 35.889 10.2 0
      vertex 19.8182 12.2792 0
      vertex 20.2362 12.4124 0
    endloop
  endfacet
  facet normal 0 0 -1
    outer loop
      vertex 35.889 10.2 0
      vertex 19.3803 12.2541 0
      vertex 19.8182 12.2792 0
    endloop
  endfacet
  facet normal 0 0 -1
    outer loop
      vertex 18.2311 15.2051 0
      vertex 17.2487 26.7088 0
      vertex 17.5747 27.0023 0
    endloop
  endfacet
  facet normal 0 0 -1
    outer loop
      vertex 18.2311 15.2051 0
      vertex 16.86 26.5056 0
      vertex 17.2487 26.7088 0
    endloop
  endfacet
  facet normal 0 0 -1
    outer loop
      vertex 18.2311 15.2051 0
      vertex 16.4329 26.4054 0
      vertex 16.86 26.5056 0
    endloop
  endfacet
  facet normal 0 0 -1
    outer loop
      vertex 18.2311 15.2051 0
      vertex 15.9944 26.4146 0
      vertex 16.4329 26.4054 0
    endloop
  endfacet
  facet normal 0 0 -1
    outer loop
      vertex 6.99689 10.4328 0
      vertex 17.75 14.0099 0
      vertex 17.8025 13.5744 0
    endloop
  endfacet
  facet normal 0 0 -1
    outer loop
      vertex 18.2311 15.2051 0
      vertex 15.5718 26.5326 0
      vertex 15.9944 26.4146 0
    endloop
  endfacet
  facet normal 0 0 -1
    outer loop
      vertex 4.05249 23.3912 0
      vertex 15.192 26.7519 0
      vertex 17.9712 14.8517 0
    endloop
  endfacet
  facet normal 0 0 -1
    outer loop
      vertex 17.9712 14.8517 0
      vertex 15.192 26.7519 0
      vertex 15.5718 26.5326 0
    endloop
  endfacet
  facet normal 0 0 -1
    outer loop
      vertex 4.05249 23.3912 0
      vertex 14.8785 27.0588 0
      vertex 15.192 26.7519 0
    endloop
  endfacet
  facet normal -0 0 -1
    outer loop
      vertex 14.8785 27.0588 0
      vertex 4.12321 23.8241 0
      vertex 14.6513 27.434 0
    endloop
  endfacet
  facet normal 0 0 -1
    outer loop
      vertex 17.75 14.0099 0
      vertex 6.99689 10.4328 0
      vertex 6.72441 10.7766 0
    endloop
  endfacet
  facet normal 0 0 -1
    outer loop
      vertex 6.99689 10.4328 0
      vertex 17.8025 13.5744 0
      vertex 7.10055 10.2 0
    endloop
  endfacet
  facet normal -0 0 -1
    outer loop
      vertex 17.9617 13.1656 0
      vertex 7.10055 10.2 0
      vertex 17.8025 13.5744 0
    endloop
  endfacet
  facet normal -0 0 -1
    outer loop
      vertex 18.2176 12.8093 0
      vertex 7.10055 10.2 0
      vertex 17.9617 13.1656 0
    endloop
  endfacet
  facet normal -0 0 -1
    outer loop
      vertex 18.554 12.5277 0
      vertex 7.10055 10.2 0
      vertex 18.2176 12.8093 0
    endloop
  endfacet
  facet normal -0 0 -1
    outer loop
      vertex 18.9498 12.3387 0
      vertex 7.10055 10.2 0
      vertex 18.554 12.5277 0
    endloop
  endfacet
  facet normal -0 0 -1
    outer loop
      vertex 19.3803 12.2541 0
      vertex 7.10055 10.2 0
      vertex 18.9498 12.3387 0
    endloop
  endfacet
  facet normal 0 0 -1
    outer loop
      vertex 7.10055 10.2 0
      vertex 19.3803 12.2541 0
      vertex 35.889 10.2 0
    endloop
  endfacet
  facet normal 0 0 -1
    outer loop
      vertex 21.1307 14.635 0
      vertex 35.889 10.2 0
      vertex 21.2374 14.2095 0
    endloop
  endfacet
  facet normal 0 0 -1
    outer loop
      vertex 20.9216 15.0206 0
      vertex 35.889 10.2 0
      vertex 21.1307 14.635 0
    endloop
  endfacet
  facet normal 0 0 -1
    outer loop
      vertex 17.9985 28.2191 0
      vertex 20.9216 15.0206 0
      vertex 20.6231 15.3421 0
    endloop
  endfacet
  facet normal 0 0 -1
    outer loop
      vertex 17.9985 28.2191 0
      vertex 20.6231 15.3421 0
      vertex 20.254 15.5792 0
    endloop
  endfacet
  facet normal 0 0 -1
    outer loop
      vertex 17.9985 28.2191 0
      vertex 18.5707 15.4828 0
      vertex 18.2311 15.2051 0
    endloop
  endfacet
  facet normal 0 0 -1
    outer loop
      vertex 17.9985 28.2191 0
      vertex 18.9686 15.6674 0
      vertex 18.5707 15.4828 0
    endloop
  endfacet
  facet normal 0 0 -1
    outer loop
      vertex 17.9985 28.2191 0
      vertex 19.4 15.7471 0
      vertex 18.9686 15.6674 0
    endloop
  endfacet
  facet normal 0 0 -1
    outer loop
      vertex 17.9985 28.2191 0
      vertex 19.8376 15.7171 0
      vertex 19.4 15.7471 0
    endloop
  endfacet
  facet normal 0 0 -1
    outer loop
      vertex 17.9985 28.2191 0
      vertex 20.254 15.5792 0
      vertex 19.8376 15.7171 0
    endloop
  endfacet
  facet normal 0 0 -1
    outer loop
      vertex 20.9216 15.0206 0
      vertex 17.9985 28.2191 0
      vertex 35.889 10.2 0
    endloop
  endfacet
  facet normal 0 0 -1
    outer loop
      vertex 17.889 30.9846 0
      vertex 17.9985 28.2191 0
      vertex 17.9253 28.6516 0
    endloop
  endfacet
  facet normal 0 0 -1
    outer loop
      vertex 17.9985 28.2191 0
      vertex 17.889 30.9846 0
      vertex 35.889 10.2 0
    endloop
  endfacet
  facet normal 0 0 -1
    outer loop
      vertex 17.7469 29.0524 0
      vertex 17.889 30.9846 0
      vertex 17.9253 28.6516 0
    endloop
  endfacet
  facet normal 0 0 -1
    outer loop
      vertex 17.4744 29.3962 0
      vertex 17.889 30.9846 0
      vertex 17.7469 29.0524 0
    endloop
  endfacet
  facet normal 0 0 -1
    outer loop
      vertex 17.125 29.6614 0
      vertex 17.889 30.9846 0
      vertex 17.4744 29.3962 0
    endloop
  endfacet
  facet normal 0 0 -1
    outer loop
      vertex 16.7206 29.8314 0
      vertex 17.889 30.9846 0
      vertex 17.125 29.6614 0
    endloop
  endfacet
  facet normal 0 0 -1
    outer loop
      vertex 16.2866 29.8954 0
      vertex 17.889 30.9846 0
      vertex 16.7206 29.8314 0
    endloop
  endfacet
  facet normal 0 0 -1
    outer loop
      vertex 15.8504 29.8496 0
      vertex 17.889 30.9846 0
      vertex 16.2866 29.8954 0
    endloop
  endfacet
  facet normal 0 0 -1
    outer loop
      vertex 15.4392 29.6967 0
      vertex 17.889 30.9846 0
      vertex 15.8504 29.8496 0
    endloop
  endfacet
  facet normal 0 0 -1
    outer loop
      vertex 17.8075 14.4448 0
      vertex 6.72441 10.7766 0
      vertex 6.375 11.0418 0
    endloop
  endfacet
  facet normal 0 0 -1
    outer loop
      vertex 4.05249 23.3912 0
      vertex 17.9712 14.8517 0
      vertex 6.375 11.0418 0
    endloop
  endfacet
  facet normal -0 0 -1
    outer loop
      vertex 14.6513 27.434 0
      vertex 4.08403 24.261 0
      vertex 14.5245 27.854 0
    endloop
  endfacet
  facet normal 0 0 -1
    outer loop
      vertex 4.08403 24.261 0
      vertex 14.6513 27.434 0
      vertex 4.12321 23.8241 0
    endloop
  endfacet
  facet normal 0 0 -1
    outer loop
      vertex 4.05249 23.3912 0
      vertex 6.375 11.0418 0
      vertex 5.97061 11.2118 0
    endloop
  endfacet
  facet normal 0 0 -1
    outer loop
      vertex 4.05249 23.3912 0
      vertex 5.97061 11.2118 0
      vertex 5.53665 11.2759 0
    endloop
  endfacet
  facet normal 0 0 -1
    outer loop
      vertex 3.93743 24.6744 0
      vertex 14.5245 27.854 0
      vertex 4.08403 24.261 0
    endloop
  endfacet
  facet normal 0 0 -1
    outer loop
      vertex 2.85448 22.2046 0
      vertex 5.53665 11.2759 0
      vertex 5.28319 11.2493 0
    endloop
  endfacet
  facet normal -0 0 -1
    outer loop
      vertex 14.5245 27.854 0
      vertex 3.93743 24.6744 0
      vertex 14.5061 28.2923 0
    endloop
  endfacet
  facet normal 0 0 -1
    outer loop
      vertex 3.69262 25.0384 0
      vertex 14.5061 28.2923 0
      vertex 3.93743 24.6744 0
    endloop
  endfacet
  facet normal -0 0 -1
    outer loop
      vertex 14.5061 28.2923 0
      vertex 3.69262 25.0384 0
      vertex 14.5973 28.7213 0
    endloop
  endfacet
  facet normal 0 0 -1
    outer loop
      vertex 3.36497 25.3301 0
      vertex 14.5973 28.7213 0
      vertex 3.69262 25.0384 0
    endloop
  endfacet
  facet normal -0 0 -1
    outer loop
      vertex 14.5973 28.7213 0
      vertex 3.36497 25.3301 0
      vertex 14.7924 29.1143 0
    endloop
  endfacet
  facet normal 0 0 -1
    outer loop
      vertex 2.97508 25.5312 0
      vertex 14.7924 29.1143 0
      vertex 3.36497 25.3301 0
    endloop
  endfacet
  facet normal -0 0 -1
    outer loop
      vertex 14.7924 29.1143 0
      vertex 2.97508 25.5312 0
      vertex 15.079 29.4463 0
    endloop
  endfacet
  facet normal 0 0 -1
    outer loop
      vertex 2.54745 25.6289 0
      vertex 15.079 29.4463 0
      vertex 2.97508 25.5312 0
    endloop
  endfacet
  facet normal 0 0 -1
    outer loop
      vertex -9.11103 36.1808 0
      vertex 15.079 29.4463 0
      vertex 2.54745 25.6289 0
    endloop
  endfacet
  facet normal 0 0 -1
    outer loop
      vertex 15.079 29.4463 0
      vertex -9.11103 36.1808 0
      vertex 15.4392 29.6967 0
    endloop
  endfacet
  facet normal 0 0 -1
    outer loop
      vertex -9.11103 36.1808 0
      vertex 2.54745 25.6289 0
      vertex 2.10894 25.6173 0
    endloop
  endfacet
  facet normal 0 0 -1
    outer loop
      vertex -9.11103 36.1808 0
      vertex 2.10894 25.6173 0
      vertex 1.6871 25.4969 0
    endloop
  endfacet
  facet normal 0 0 -1
    outer loop
      vertex 15.4392 29.6967 0
      vertex -9.11103 36.1808 0
      vertex 17.889 30.9846 0
    endloop
  endfacet
  facet normal 0 0 -1
    outer loop
      vertex 1.30845 25.2754 0
      vertex -9.11103 36.1808 0
      vertex 1.6871 25.4969 0
    endloop
  endfacet
  facet normal 0 0 -1
    outer loop
      vertex 0.996775 24.9667 0
      vertex -9.11103 36.1808 0
      vertex 1.30845 25.2754 0
    endloop
  endfacet
  facet normal 0 0 -1
    outer loop
      vertex 0.771656 24.5902 0
      vertex -9.11103 36.1808 0
      vertex 0.996775 24.9667 0
    endloop
  endfacet
  facet normal 0 0 -1
    outer loop
      vertex 0.647242 24.1696 0
      vertex -9.11103 36.1808 0
      vertex 0.771656 24.5902 0
    endloop
  endfacet
  facet normal 0 0 -1
    outer loop
      vertex -9.11103 36.1808 0
      vertex 0.647242 24.1696 0
      vertex 0.631348 23.7312 0
    endloop
  endfacet
  facet normal 1 -0 0
    outer loop
      vertex 35.889 6.2 6.9
      vertex 35.889 10.2 3.2
      vertex 35.889 10.2 6.9
    endloop
  endfacet
  facet normal 1 0 0
    outer loop
      vertex 35.889 10.2 3.2
      vertex 35.889 6.2 6.9
      vertex 35.889 6.2 3.2
    endloop
  endfacet
  facet normal 0 0 1
    outer loop
      vertex 5.97061 11.2118 6.9
      vertex 3.2579 22.3769 6.9
      vertex 5.53665 11.2759 6.9
    endloop
  endfacet
  facet normal -0 0 1
    outer loop
      vertex 2.85448 22.2046 6.9
      vertex 5.53665 11.2759 6.9
      vertex 3.2579 22.3769 6.9
    endloop
  endfacet
  facet normal 0 0 1
    outer loop
      vertex 5.53665 11.2759 6.9
      vertex 2.85448 22.2046 6.9
      vertex 5.10039 11.23 6.9
    endloop
  endfacet
  facet normal -0 0 1
    outer loop
      vertex 2.42089 22.1381 6.9
      vertex 5.10039 11.23 6.9
      vertex 2.85448 22.2046 6.9
    endloop
  endfacet
  facet normal 0 0 1
    outer loop
      vertex 5.10039 11.23 6.9
      vertex 2.42089 22.1381 6.9
      vertex 4.68923 11.0771 6.9
    endloop
  endfacet
  facet normal 0 0 1
    outer loop
      vertex 1.98437 22.1815 6.9
      vertex 4.68923 11.0771 6.9
      vertex 2.42089 22.1381 6.9
    endloop
  endfacet
  facet normal -0 0 1
    outer loop
      vertex 21.2349 13.7709 6.9
      vertex 35.889 10.2 6.9
      vertex 21.2374 14.2095 6.9
    endloop
  endfacet
  facet normal 0 0 1
    outer loop
      vertex 35.889 10.2 6.9
      vertex 21.1307 14.635 6.9
      vertex 21.2374 14.2095 6.9
    endloop
  endfacet
  facet normal 0 0 1
    outer loop
      vertex 35.889 10.2 6.9
      vertex 20.9216 15.0206 6.9
      vertex 21.1307 14.635 6.9
    endloop
  endfacet
  facet normal 0 0 1
    outer loop
      vertex 17.9618 27.782 6.9
      vertex 20.9216 15.0206 6.9
      vertex 35.889 10.2 6.9
    endloop
  endfacet
  facet normal 0 0 1
    outer loop
      vertex 20.9216 15.0206 6.9
      vertex 17.9618 27.782 6.9
      vertex 20.6231 15.3421 6.9
    endloop
  endfacet
  facet normal -0 0 1
    outer loop
      vertex 17.2487 26.7088 6.9
      vertex 19.8376 15.7171 6.9
      vertex 17.5747 27.0023 6.9
    endloop
  endfacet
  facet normal 0 0 1
    outer loop
      vertex 20.254 15.5792 6.9
      vertex 17.5747 27.0023 6.9
      vertex 19.8376 15.7171 6.9
    endloop
  endfacet
  facet normal -0 0 1
    outer loop
      vertex 17.5747 27.0023 6.9
      vertex 20.254 15.5792 6.9
      vertex 17.8175 27.3677 6.9
    endloop
  endfacet
  facet normal 0 0 1
    outer loop
      vertex 20.6231 15.3421 6.9
      vertex 17.8175 27.3677 6.9
      vertex 20.254 15.5792 6.9
    endloop
  endfacet
  facet normal -0 0 1
    outer loop
      vertex 17.8175 27.3677 6.9
      vertex 20.6231 15.3421 6.9
      vertex 17.9618 27.782 6.9
    endloop
  endfacet
  facet normal -0 0 1
    outer loop
      vertex 17.9618 27.782 6.9
      vertex 35.889 10.2 6.9
      vertex 17.9985 28.2191 6.9
    endloop
  endfacet
  facet normal 0 0 1
    outer loop
      vertex 17.889 30.9846 6.9
      vertex 17.9985 28.2191 6.9
      vertex 35.889 10.2 6.9
    endloop
  endfacet
  facet normal 0 0 1
    outer loop
      vertex 17.9985 28.2191 6.9
      vertex 17.889 30.9846 6.9
      vertex 17.9253 28.6516 6.9
    endloop
  endfacet
  facet normal 0 0 1
    outer loop
      vertex 17.889 30.9846 6.9
      vertex 17.7469 29.0524 6.9
      vertex 17.9253 28.6516 6.9
    endloop
  endfacet
  facet normal 0 0 1
    outer loop
      vertex 17.889 30.9846 6.9
      vertex 17.4744 29.3962 6.9
      vertex 17.7469 29.0524 6.9
    endloop
  endfacet
  facet normal 0 0 1
    outer loop
      vertex 17.889 30.9846 6.9
      vertex 17.125 29.6614 6.9
      vertex 17.4744 29.3962 6.9
    endloop
  endfacet
  facet normal 0 0 1
    outer loop
      vertex 17.889 30.9846 6.9
      vertex 16.7206 29.8314 6.9
      vertex 17.125 29.6614 6.9
    endloop
  endfacet
  facet normal 0 0 1
    outer loop
      vertex 17.889 30.9846 6.9
      vertex 16.2866 29.8954 6.9
      vertex 16.7206 29.8314 6.9
    endloop
  endfacet
  facet normal 0 0 1
    outer loop
      vertex 17.889 30.9846 6.9
      vertex 15.8504 29.8496 6.9
      vertex 16.2866 29.8954 6.9
    endloop
  endfacet
  facet normal 0 0 1
    outer loop
      vertex 17.889 30.9846 6.9
      vertex 15.4392 29.6967 6.9
      vertex 15.8504 29.8496 6.9
    endloop
  endfacet
  facet normal 0 0 1
    outer loop
      vertex 3.69262 25.0384 6.9
      vertex 14.5061 28.2923 6.9
      vertex 14.5973 28.7213 6.9
    endloop
  endfacet
  facet normal 0 0 1
    outer loop
      vertex 14.5061 28.2923 6.9
      vertex 7.17531 10.0321 6.9
      vertex 7.24846 9.59956 6.9
    endloop
  endfacet
  facet normal 0 0 1
    outer loop
      vertex 14.5061 28.2923 6.9
      vertex 6.99689 10.4328 6.9
      vertex 7.17531 10.0321 6.9
    endloop
  endfacet
  facet normal 0 0 1
    outer loop
      vertex 14.5061 28.2923 6.9
      vertex 6.72441 10.7766 6.9
      vertex 6.99689 10.4328 6.9
    endloop
  endfacet
  facet normal 0 0 1
    outer loop
      vertex 4.05249 23.3912 6.9
      vertex 14.5061 28.2923 6.9
      vertex 4.12321 23.8241 6.9
    endloop
  endfacet
  facet normal 0 0 1
    outer loop
      vertex 3.87634 22.9894 6.9
      vertex 14.5061 28.2923 6.9
      vertex 4.05249 23.3912 6.9
    endloop
  endfacet
  facet normal 0 0 1
    outer loop
      vertex 14.5061 28.2923 6.9
      vertex 3.87634 22.9894 6.9
      vertex 6.72441 10.7766 6.9
    endloop
  endfacet
  facet normal 0 0 1
    outer loop
      vertex 3.36497 25.3301 6.9
      vertex 14.5973 28.7213 6.9
      vertex 14.7924 29.1143 6.9
    endloop
  endfacet
  facet normal 0 0 1
    outer loop
      vertex 6.72441 10.7766 6.9
      vertex 3.87634 22.9894 6.9
      vertex 6.375 11.0418 6.9
    endloop
  endfacet
  facet normal -0 0 1
    outer loop
      vertex 3.60581 22.6441 6.9
      vertex 6.375 11.0418 6.9
      vertex 3.87634 22.9894 6.9
    endloop
  endfacet
  facet normal 0 0 1
    outer loop
      vertex 6.375 11.0418 6.9
      vertex 3.60581 22.6441 6.9
      vertex 5.97061 11.2118 6.9
    endloop
  endfacet
  facet normal -0 0 1
    outer loop
      vertex 3.2579 22.3769 6.9
      vertex 5.97061 11.2118 6.9
      vertex 3.60581 22.6441 6.9
    endloop
  endfacet
  facet normal 0 0 1
    outer loop
      vertex 2.97508 25.5312 6.9
      vertex 14.7924 29.1143 6.9
      vertex 15.079 29.4463 6.9
    endloop
  endfacet
  facet normal 0 0 1
    outer loop
      vertex -9.11103 36.1808 6.9
      vertex 15.079 29.4463 6.9
      vertex 15.4392 29.6967 6.9
    endloop
  endfacet
  facet normal 0 0 1
    outer loop
      vertex -9.11103 36.1808 6.9
      vertex 15.4392 29.6967 6.9
      vertex 17.889 30.9846 6.9
    endloop
  endfacet
  facet normal 0 0 1
    outer loop
      vertex 14.5061 28.2923 6.9
      vertex 4.08403 24.261 6.9
      vertex 4.12321 23.8241 6.9
    endloop
  endfacet
  facet normal 0 0 1
    outer loop
      vertex 14.5061 28.2923 6.9
      vertex 3.93743 24.6744 6.9
      vertex 4.08403 24.261 6.9
    endloop
  endfacet
  facet normal 0 0 1
    outer loop
      vertex 14.5061 28.2923 6.9
      vertex 3.69262 25.0384 6.9
      vertex 3.93743 24.6744 6.9
    endloop
  endfacet
  facet normal 0 0 1
    outer loop
      vertex 14.5973 28.7213 6.9
      vertex 3.36497 25.3301 6.9
      vertex 3.69262 25.0384 6.9
    endloop
  endfacet
  facet normal 0 0 1
    outer loop
      vertex 14.7924 29.1143 6.9
      vertex 2.97508 25.5312 6.9
      vertex 3.36497 25.3301 6.9
    endloop
  endfacet
  facet normal 0 0 1
    outer loop
      vertex 15.079 29.4463 6.9
      vertex 2.54745 25.6289 6.9
      vertex 2.97508 25.5312 6.9
    endloop
  endfacet
  facet normal 0 0 1
    outer loop
      vertex 15.079 29.4463 6.9
      vertex -9.11103 36.1808 6.9
      vertex 2.54745 25.6289 6.9
    endloop
  endfacet
  facet normal 0 0 1
    outer loop
      vertex 2.54745 25.6289 6.9
      vertex -9.11103 36.1808 6.9
      vertex 2.10894 25.6173 6.9
    endloop
  endfacet
  facet normal 0 0 1
    outer loop
      vertex 0.771656 24.5902 6.9
      vertex -12.5751 34.1808 6.9
      vertex 0.647242 24.1696 6.9
    endloop
  endfacet
  facet normal -0 0 1
    outer loop
      vertex -12.5751 34.1808 6.9
      vertex 0.771656 24.5902 6.9
      vertex -9.11103 36.1808 6.9
    endloop
  endfacet
  facet normal 0 0 1
    outer loop
      vertex 0.996775 24.9667 6.9
      vertex -9.11103 36.1808 6.9
      vertex 0.771656 24.5902 6.9
    endloop
  endfacet
  facet normal 0 0 1
    outer loop
      vertex 1.30845 25.2754 6.9
      vertex -9.11103 36.1808 6.9
      vertex 0.996775 24.9667 6.9
    endloop
  endfacet
  facet normal 0 0 1
    outer loop
      vertex 1.6871 25.4969 6.9
      vertex -9.11103 36.1808 6.9
      vertex 1.30845 25.2754 6.9
    endloop
  endfacet
  facet normal 0 0 1
    outer loop
      vertex 2.10894 25.6173 6.9
      vertex -9.11103 36.1808 6.9
      vertex 1.6871 25.4969 6.9
    endloop
  endfacet
  facet normal -0 0 1
    outer loop
      vertex 21.1234 13.3466 6.9
      vertex 35.889 10.2 6.9
      vertex 21.2349 13.7709 6.9
    endloop
  endfacet
  facet normal -0 0 1
    outer loop
      vertex 20.9099 12.9634 6.9
      vertex 35.889 10.2 6.9
      vertex 21.1234 13.3466 6.9
    endloop
  endfacet
  facet normal 0 0 1
    outer loop
      vertex 35.889 10.2 6.9
      vertex 20.9099 12.9634 6.9
      vertex 35.889 6.2 6.9
    endloop
  endfacet
  facet normal -0 0 1
    outer loop
      vertex 20.6079 12.6453 6.9
      vertex 35.889 6.2 6.9
      vertex 20.9099 12.9634 6.9
    endloop
  endfacet
  facet normal -0 0 1
    outer loop
      vertex 20.2362 12.4124 6.9
      vertex 35.889 6.2 6.9
      vertex 20.6079 12.6453 6.9
    endloop
  endfacet
  facet normal -0 0 1
    outer loop
      vertex 19.8182 12.2792 6.9
      vertex 35.889 6.2 6.9
      vertex 20.2362 12.4124 6.9
    endloop
  endfacet
  facet normal -0 0 1
    outer loop
      vertex 19.3803 12.2541 6.9
      vertex 35.889 6.2 6.9
      vertex 19.8182 12.2792 6.9
    endloop
  endfacet
  facet normal 0 0 1
    outer loop
      vertex 5.88897 6.2 6.9
      vertex 19.3803 12.2541 6.9
      vertex 18.9498 12.3387 6.9
    endloop
  endfacet
  facet normal 0 0 1
    outer loop
      vertex 18.5707 15.4828 6.9
      vertex 15.9944 26.4146 6.9
      vertex 18.2311 15.2051 6.9
    endloop
  endfacet
  facet normal 0 0 1
    outer loop
      vertex 15.5718 26.5326 6.9
      vertex 18.2311 15.2051 6.9
      vertex 15.9944 26.4146 6.9
    endloop
  endfacet
  facet normal 0 0 1
    outer loop
      vertex 18.2311 15.2051 6.9
      vertex 15.5718 26.5326 6.9
      vertex 17.9712 14.8517 6.9
    endloop
  endfacet
  facet normal 0 0 1
    outer loop
      vertex 15.192 26.7519 6.9
      vertex 17.9712 14.8517 6.9
      vertex 15.5718 26.5326 6.9
    endloop
  endfacet
  facet normal 0 0 1
    outer loop
      vertex 7.24846 9.59956 6.9
      vertex 17.9712 14.8517 6.9
      vertex 15.192 26.7519 6.9
    endloop
  endfacet
  facet normal 0 0 1
    outer loop
      vertex 17.9712 14.8517 6.9
      vertex 7.24846 9.59956 6.9
      vertex 17.8075 14.4448 6.9
    endloop
  endfacet
  facet normal 0 0 1
    outer loop
      vertex 17.8075 14.4448 6.9
      vertex 7.24846 9.59956 6.9
      vertex 17.75 14.0099 6.9
    endloop
  endfacet
  facet normal 0 0 1
    outer loop
      vertex 7.24846 9.59956 6.9
      vertex 15.192 26.7519 6.9
      vertex 14.8785 27.0588 6.9
    endloop
  endfacet
  facet normal 0 0 1
    outer loop
      vertex 7.24846 9.59956 6.9
      vertex 14.8785 27.0588 6.9
      vertex 14.6513 27.434 6.9
    endloop
  endfacet
  facet normal 0 0 1
    outer loop
      vertex 7.24846 9.59956 6.9
      vertex 14.6513 27.434 6.9
      vertex 14.5245 27.854 6.9
    endloop
  endfacet
  facet normal 0 0 1
    outer loop
      vertex 7.24846 9.59956 6.9
      vertex 14.5245 27.854 6.9
      vertex 14.5061 28.2923 6.9
    endloop
  endfacet
  facet normal 0 0 1
    outer loop
      vertex 17.75 14.0099 6.9
      vertex 7.24846 9.59956 6.9
      vertex 17.8025 13.5744 6.9
    endloop
  endfacet
  facet normal 0 0 1
    outer loop
      vertex 7.24846 9.59956 6.9
      vertex 17.9617 13.1656 6.9
      vertex 17.8025 13.5744 6.9
    endloop
  endfacet
  facet normal 0 0 1
    outer loop
      vertex 7.24846 9.59956 6.9
      vertex 18.2176 12.8093 6.9
      vertex 17.9617 13.1656 6.9
    endloop
  endfacet
  facet normal 0 0 1
    outer loop
      vertex 7.21176 9.16243 6.9
      vertex 18.2176 12.8093 6.9
      vertex 7.24846 9.59956 6.9
    endloop
  endfacet
  facet normal 0 0 1
    outer loop
      vertex 18.2176 12.8093 6.9
      vertex 7.21176 9.16243 6.9
      vertex 18.554 12.5277 6.9
    endloop
  endfacet
  facet normal 0 0 1
    outer loop
      vertex 7.0675 8.74817 6.9
      vertex 18.554 12.5277 6.9
      vertex 7.21176 9.16243 6.9
    endloop
  endfacet
  facet normal 0 0 1
    outer loop
      vertex 18.554 12.5277 6.9
      vertex 7.0675 8.74817 6.9
      vertex 18.9498 12.3387 6.9
    endloop
  endfacet
  facet normal 0 0 1
    outer loop
      vertex 5.88897 6.2 6.9
      vertex 18.9498 12.3387 6.9
      vertex 7.0675 8.74817 6.9
    endloop
  endfacet
  facet normal 0 0 1
    outer loop
      vertex 5.88897 6.2 6.9
      vertex 7.0675 8.74817 6.9
      vertex 6.82474 8.38279 6.9
    endloop
  endfacet
  facet normal 0 0 1
    outer loop
      vertex 5.88897 6.2 6.9
      vertex 6.82474 8.38279 6.9
      vertex 6.49875 8.08927 6.9
    endloop
  endfacet
  facet normal 0 0 1
    outer loop
      vertex 5.88897 6.2 6.9
      vertex 6.49875 8.08927 6.9
      vertex 6.11 7.88604 6.9
    endloop
  endfacet
  facet normal 0 0 1
    outer loop
      vertex 19.3803 12.2541 6.9
      vertex 5.88897 6.2 6.9
      vertex 35.889 6.2 6.9
    endloop
  endfacet
  facet normal -0 0 1
    outer loop
      vertex 5.68292 7.78587 6.9
      vertex 5.88897 6.2 6.9
      vertex 6.11 7.88604 6.9
    endloop
  endfacet
  facet normal 0 0 1
    outer loop
      vertex 5.24435 7.79505 6.9
      vertex 5.88897 6.2 6.9
      vertex 5.68292 7.78587 6.9
    endloop
  endfacet
  facet normal 0 0 1
    outer loop
      vertex 4.82185 7.91302 6.9
      vertex 5.88897 6.2 6.9
      vertex 5.24435 7.79505 6.9
    endloop
  endfacet
  facet normal 0 0 1
    outer loop
      vertex 4.44195 8.13235 6.9
      vertex 5.88897 6.2 6.9
      vertex 4.82185 7.91302 6.9
    endloop
  endfacet
  facet normal -0 0 1
    outer loop
      vertex 2.42488 8.2 6.9
      vertex 4.44195 8.13235 6.9
      vertex 4.12854 8.43927 6.9
    endloop
  endfacet
  facet normal 0 0 1
    outer loop
      vertex 4.68923 11.0771 6.9
      vertex 1.98437 22.1815 6.9
      vertex 4.32902 10.8268 6.9
    endloop
  endfacet
  facet normal 0 0 1
    outer loop
      vertex 1.57236 22.3321 6.9
      vertex 4.32902 10.8268 6.9
      vertex 1.98437 22.1815 6.9
    endloop
  endfacet
  facet normal 0 0 1
    outer loop
      vertex 4.32902 10.8268 6.9
      vertex 1.57236 22.3321 6.9
      vertex 4.04239 10.4947 6.9
    endloop
  endfacet
  facet normal 0 0 1
    outer loop
      vertex 4.44195 8.13235 6.9
      vertex 2.42488 8.2 6.9
      vertex 5.88897 6.2 6.9
    endloop
  endfacet
  facet normal 0 0 1
    outer loop
      vertex 3.90129 8.81449 6.9
      vertex 2.42488 8.2 6.9
      vertex 4.12854 8.43927 6.9
    endloop
  endfacet
  facet normal 0 0 1
    outer loop
      vertex 3.77451 9.23443 6.9
      vertex 2.42488 8.2 6.9
      vertex 3.90129 8.81449 6.9
    endloop
  endfacet
  facet normal 0 0 1
    outer loop
      vertex 1.21074 22.5804 6.9
      vertex 4.04239 10.4947 6.9
      vertex 1.57236 22.3321 6.9
    endloop
  endfacet
  facet normal 0 -0 1
    outer loop
      vertex 2.42488 8.2 6.9
      vertex 4.04239 10.4947 6.9
      vertex 1.21074 22.5804 6.9
    endloop
  endfacet
  facet normal 0 0 1
    outer loop
      vertex 3.84734 10.1018 6.9
      vertex 2.42488 8.2 6.9
      vertex 3.75614 9.67272 6.9
    endloop
  endfacet
  facet normal 0 0 1
    outer loop
      vertex 3.75614 9.67272 6.9
      vertex 2.42488 8.2 6.9
      vertex 3.77451 9.23443 6.9
    endloop
  endfacet
  facet normal 0 0 1
    outer loop
      vertex 4.04239 10.4947 6.9
      vertex 2.42488 8.2 6.9
      vertex 3.84734 10.1018 6.9
    endloop
  endfacet
  facet normal 0 0 1
    outer loop
      vertex 0.922235 22.9108 6.9
      vertex 2.42488 8.2 6.9
      vertex 1.21074 22.5804 6.9
    endloop
  endfacet
  facet normal 0 0 1
    outer loop
      vertex 0.724974 23.3027 6.9
      vertex 2.42488 8.2 6.9
      vertex 0.922235 22.9108 6.9
    endloop
  endfacet
  facet normal 0 0 1
    outer loop
      vertex -12.5751 34.1808 6.9
      vertex 0.724974 23.3027 6.9
      vertex 0.631348 23.7312 6.9
    endloop
  endfacet
  facet normal 0 0 1
    outer loop
      vertex 0.647242 24.1696 6.9
      vertex -12.5751 34.1808 6.9
      vertex 0.631348 23.7312 6.9
    endloop
  endfacet
  facet normal 0 0 1
    outer loop
      vertex 0.724974 23.3027 6.9
      vertex -12.5751 34.1808 6.9
      vertex 2.42488 8.2 6.9
    endloop
  endfacet
  facet normal 0 0 1
    outer loop
      vertex 19.8376 15.7171 6.9
      vertex 17.2487 26.7088 6.9
      vertex 19.4 15.7471 6.9
    endloop
  endfacet
  facet normal -0 0 1
    outer loop
      vertex 16.86 26.5056 6.9
      vertex 19.4 15.7471 6.9
      vertex 17.2487 26.7088 6.9
    endloop
  endfacet
  facet normal 0 0 1
    outer loop
      vertex 19.4 15.7471 6.9
      vertex 16.86 26.5056 6.9
      vertex 18.9686 15.6674 6.9
    endloop
  endfacet
  facet normal -0 0 1
    outer loop
      vertex 16.4329 26.4054 6.9
      vertex 18.9686 15.6674 6.9
      vertex 16.86 26.5056 6.9
    endloop
  endfacet
  facet normal 0 0 1
    outer loop
      vertex 18.9686 15.6674 6.9
      vertex 16.4329 26.4054 6.9
      vertex 18.5707 15.4828 6.9
    endloop
  endfacet
  facet normal 0 0 1
    outer loop
      vertex 15.9944 26.4146 6.9
      vertex 18.5707 15.4828 6.9
      vertex 16.4329 26.4054 6.9
    endloop
  endfacet
  facet normal 0 -1 0
    outer loop
      vertex 5.88897 6.2 3.2
      vertex 35.889 6.2 6.9
      vertex 5.88897 6.2 6.9
    endloop
  endfacet
  facet normal 0 -1 -0
    outer loop
      vertex 35.889 6.2 6.9
      vertex 5.88897 6.2 3.2
      vertex 35.889 6.2 3.2
    endloop
  endfacet
  facet normal -0.500001 -0.866025 0
    outer loop
      vertex 2.42488 8.2 3.2
      vertex 5.88897 6.2 6.9
      vertex 2.42488 8.2 6.9
    endloop
  endfacet
  facet normal -0.500001 -0.866025 -0
    outer loop
      vertex 5.88897 6.2 6.9
      vertex 2.42488 8.2 3.2
      vertex 5.88897 6.2 3.2
    endloop
  endfacet
  facet normal -0.500003 0.866023 0
    outer loop
      vertex -9.11103 36.1808 3.2
      vertex -12.5751 34.1808 6.9
      vertex -9.11103 36.1808 6.9
    endloop
  endfacet
  facet normal -0.500003 0.866023 0
    outer loop
      vertex -12.5751 34.1808 6.9
      vertex -9.11103 36.1808 3.2
      vertex -12.5751 34.1808 3.2
    endloop
  endfacet
  facet normal -0.866026 -0.499999 0
    outer loop
      vertex 2.42488 8.2 3.2
      vertex -12.5751 34.1808 6.9
      vertex -12.5751 34.1808 3.2
    endloop
  endfacet
  facet normal -0.866026 -0.499999 0
    outer loop
      vertex -12.5751 34.1808 6.9
      vertex 2.42488 8.2 3.2
      vertex 2.42488 8.2 6.9
    endloop
  endfacet
  facet normal 0.812221 0.583349 0
    outer loop
      vertex 18.2176 12.8093 6.9
      vertex 17.9617 13.1656 0
      vertex 17.9617 13.1656 6.9
    endloop
  endfacet
  facet normal 0.812221 0.583349 0
    outer loop
      vertex 17.9617 13.1656 0
      vertex 18.2176 12.8093 6.9
      vertex 18.2176 12.8093 0
    endloop
  endfacet
  facet normal -0.732834 -0.680407 0
    outer loop
      vertex 20.9216 15.0206 0
      vertex 20.6231 15.3421 6.9
      vertex 20.6231 15.3421 0
    endloop
  endfacet
  facet normal -0.732834 -0.680407 0
    outer loop
      vertex 20.6231 15.3421 6.9
      vertex 20.9216 15.0206 0
      vertex 20.9216 15.0206 6.9
    endloop
  endfacet
  facet normal -0.54047 -0.841364 0
    outer loop
      vertex 20.254 15.5792 0
      vertex 20.6231 15.3421 6.9
      vertex 20.254 15.5792 6.9
    endloop
  endfacet
  facet normal -0.54047 -0.841364 -0
    outer loop
      vertex 20.6231 15.3421 6.9
      vertex 20.254 15.5792 0
      vertex 20.6231 15.3421 0
    endloop
  endfacet
  facet normal -0.873565 0.486707 0
    outer loop
      vertex 20.9099 12.9634 0
      vertex 21.1234 13.3466 6.9
      vertex 21.1234 13.3466 0
    endloop
  endfacet
  facet normal -0.873565 0.486707 0
    outer loop
      vertex 21.1234 13.3466 6.9
      vertex 20.9099 12.9634 0
      vertex 20.9099 12.9634 6.9
    endloop
  endfacet
  facet normal 0.430907 0.902396 -0
    outer loop
      vertex 18.9498 12.3387 0
      vertex 18.554 12.5277 6.9
      vertex 18.9498 12.3387 6.9
    endloop
  endfacet
  facet normal 0.430907 0.902396 0
    outer loop
      vertex 18.554 12.5277 6.9
      vertex 18.9498 12.3387 0
      vertex 18.554 12.5277 0
    endloop
  endfacet
  facet normal -0.969968 -0.243233 0
    outer loop
      vertex 21.2374 14.2095 0
      vertex 21.1307 14.635 6.9
      vertex 21.1307 14.635 0
    endloop
  endfacet
  facet normal -0.969968 -0.243233 0
    outer loop
      vertex 21.1307 14.635 6.9
      vertex 21.2374 14.2095 0
      vertex 21.2374 14.2095 6.9
    endloop
  endfacet
  facet normal 0.641887 0.766799 -0
    outer loop
      vertex 18.554 12.5277 0
      vertex 18.2176 12.8093 6.9
      vertex 18.554 12.5277 6.9
    endloop
  endfacet
  facet normal 0.641887 0.766799 0
    outer loop
      vertex 18.2176 12.8093 6.9
      vertex 18.554 12.5277 0
      vertex 18.2176 12.8093 0
    endloop
  endfacet
  facet normal -0.725221 0.688516 0
    outer loop
      vertex 20.6079 12.6453 0
      vertex 20.9099 12.9634 6.9
      vertex 20.9099 12.9634 0
    endloop
  endfacet
  facet normal -0.725221 0.688516 0
    outer loop
      vertex 20.9099 12.9634 6.9
      vertex 20.6079 12.6453 0
      vertex 20.6079 12.6453 6.9
    endloop
  endfacet
  facet normal -0.0683952 -0.997658 0
    outer loop
      vertex 19.4 15.7471 0
      vertex 19.8376 15.7171 6.9
      vertex 19.4 15.7471 6.9
    endloop
  endfacet
  facet normal -0.0683952 -0.997658 -0
    outer loop
      vertex 19.8376 15.7171 6.9
      vertex 19.4 15.7471 0
      vertex 19.8376 15.7171 0
    endloop
  endfacet
  facet normal -0.999984 0.00569986 0
    outer loop
      vertex 21.2349 13.7709 0
      vertex 21.2374 14.2095 6.9
      vertex 21.2374 14.2095 0
    endloop
  endfacet
  facet normal -0.999984 0.00569986 0
    outer loop
      vertex 21.2374 14.2095 6.9
      vertex 21.2349 13.7709 0
      vertex 21.2349 13.7709 6.9
    endloop
  endfacet
  facet normal -0.530962 0.847396 0
    outer loop
      vertex 20.6079 12.6453 0
      vertex 20.2362 12.4124 6.9
      vertex 20.6079 12.6453 6.9
    endloop
  endfacet
  facet normal -0.530962 0.847396 0
    outer loop
      vertex 20.2362 12.4124 6.9
      vertex 20.6079 12.6453 0
      vertex 20.2362 12.4124 0
    endloop
  endfacet
  facet normal -0.0572251 0.998361 0
    outer loop
      vertex 19.8182 12.2792 0
      vertex 19.3803 12.2541 6.9
      vertex 19.8182 12.2792 6.9
    endloop
  endfacet
  facet normal -0.0572251 0.998361 0
    outer loop
      vertex 19.3803 12.2541 6.9
      vertex 19.8182 12.2792 0
      vertex 19.3803 12.2541 0
    endloop
  endfacet
  facet normal -0.314381 -0.949297 0
    outer loop
      vertex 19.8376 15.7171 0
      vertex 20.254 15.5792 6.9
      vertex 19.8376 15.7171 6.9
    endloop
  endfacet
  facet normal -0.314381 -0.949297 -0
    outer loop
      vertex 20.254 15.5792 6.9
      vertex 19.8376 15.7171 0
      vertex 20.254 15.5792 0
    endloop
  endfacet
  facet normal 0.192828 0.981233 -0
    outer loop
      vertex 19.3803 12.2541 0
      vertex 18.9498 12.3387 6.9
      vertex 19.3803 12.2541 6.9
    endloop
  endfacet
  facet normal 0.192828 0.981233 0
    outer loop
      vertex 18.9498 12.3387 6.9
      vertex 19.3803 12.2541 0
      vertex 18.9498 12.3387 0
    endloop
  endfacet
  facet normal 0.181673 -0.983359 0
    outer loop
      vertex 18.9686 15.6674 0
      vertex 19.4 15.7471 6.9
      vertex 18.9686 15.6674 6.9
    endloop
  endfacet
  facet normal 0.181673 -0.983359 0
    outer loop
      vertex 19.4 15.7471 6.9
      vertex 18.9686 15.6674 0
      vertex 19.4 15.7471 0
    endloop
  endfacet
  facet normal 0.8056 -0.59246 0
    outer loop
      vertex 17.9712 14.8517 6.9
      vertex 18.2311 15.2051 0
      vertex 18.2311 15.2051 6.9
    endloop
  endfacet
  facet normal 0.8056 -0.59246 0
    outer loop
      vertex 18.2311 15.2051 0
      vertex 17.9712 14.8517 6.9
      vertex 17.9712 14.8517 0
    endloop
  endfacet
  facet normal -0.879069 -0.476694 0
    outer loop
      vertex 21.1307 14.635 0
      vertex 20.9216 15.0206 6.9
      vertex 20.9216 15.0206 0
    endloop
  endfacet
  facet normal -0.879069 -0.476694 0
    outer loop
      vertex 20.9216 15.0206 6.9
      vertex 21.1307 14.635 0
      vertex 21.1307 14.635 6.9
    endloop
  endfacet
  facet normal 0.633027 -0.77413 0
    outer loop
      vertex 18.2311 15.2051 0
      vertex 18.5707 15.4828 6.9
      vertex 18.2311 15.2051 6.9
    endloop
  endfacet
  facet normal 0.633027 -0.77413 0
    outer loop
      vertex 18.5707 15.4828 6.9
      vertex 18.2311 15.2051 0
      vertex 18.5707 15.4828 0
    endloop
  endfacet
  facet normal 0.42085 -0.90713 0
    outer loop
      vertex 18.5707 15.4828 0
      vertex 18.9686 15.6674 6.9
      vertex 18.5707 15.4828 6.9
    endloop
  endfacet
  facet normal 0.42085 -0.90713 0
    outer loop
      vertex 18.9686 15.6674 6.9
      vertex 18.5707 15.4828 0
      vertex 18.9686 15.6674 0
    endloop
  endfacet
  facet normal 0.991373 -0.131074 0
    outer loop
      vertex 17.75 14.0099 6.9
      vertex 17.8075 14.4448 0
      vertex 17.8075 14.4448 6.9
    endloop
  endfacet
  facet normal 0.991373 -0.131074 0
    outer loop
      vertex 17.8075 14.4448 0
      vertex 17.75 14.0099 6.9
      vertex 17.75 14.0099 0
    endloop
  endfacet
  facet normal -0.967163 0.254157 0
    outer loop
      vertex 21.1234 13.3466 0
      vertex 21.2349 13.7709 6.9
      vertex 21.2349 13.7709 0
    endloop
  endfacet
  facet normal -0.967163 0.254157 0
    outer loop
      vertex 21.2349 13.7709 6.9
      vertex 21.1234 13.3466 0
      vertex 21.1234 13.3466 6.9
    endloop
  endfacet
  facet normal 0.927736 -0.373238 0
    outer loop
      vertex 17.8075 14.4448 6.9
      vertex 17.9712 14.8517 0
      vertex 17.9712 14.8517 6.9
    endloop
  endfacet
  facet normal 0.927736 -0.373238 0
    outer loop
      vertex 17.9712 14.8517 0
      vertex 17.8075 14.4448 6.9
      vertex 17.8075 14.4448 0
    endloop
  endfacet
  facet normal 0.992812 0.119685 0
    outer loop
      vertex 17.8025 13.5744 6.9
      vertex 17.75 14.0099 0
      vertex 17.75 14.0099 6.9
    endloop
  endfacet
  facet normal 0.992812 0.119685 0
    outer loop
      vertex 17.75 14.0099 0
      vertex 17.8025 13.5744 6.9
      vertex 17.8025 13.5744 0
    endloop
  endfacet
  facet normal -0.303618 0.952794 0
    outer loop
      vertex 20.2362 12.4124 0
      vertex 19.8182 12.2792 6.9
      vertex 20.2362 12.4124 6.9
    endloop
  endfacet
  facet normal -0.303618 0.952794 0
    outer loop
      vertex 19.8182 12.2792 6.9
      vertex 20.2362 12.4124 0
      vertex 19.8182 12.2792 0
    endloop
  endfacet
  facet normal 0.931833 0.362886 0
    outer loop
      vertex 17.9617 13.1656 6.9
      vertex 17.8025 13.5744 0
      vertex 17.8025 13.5744 6.9
    endloop
  endfacet
  facet normal 0.931833 0.362886 0
    outer loop
      vertex 17.8025 13.5744 0
      vertex 17.9617 13.1656 6.9
      vertex 17.9617 13.1656 0
    endloop
  endfacet
  facet normal 0.703708 -0.71049 0
    outer loop
      vertex 0.996775 24.9667 0
      vertex 1.30845 25.2754 6.9
      vertex 0.996775 24.9667 6.9
    endloop
  endfacet
  facet normal 0.703708 -0.71049 0
    outer loop
      vertex 1.30845 25.2754 6.9
      vertex 0.996775 24.9667 0
      vertex 1.30845 25.2754 0
    endloop
  endfacet
  facet normal 0.504927 -0.863162 0
    outer loop
      vertex 1.30845 25.2754 0
      vertex 1.6871 25.4969 6.9
      vertex 1.30845 25.2754 6.9
    endloop
  endfacet
  facet normal 0.504927 -0.863162 0
    outer loop
      vertex 1.6871 25.4969 6.9
      vertex 1.30845 25.2754 0
      vertex 1.6871 25.4969 0
    endloop
  endfacet
  facet normal -0.151598 0.988442 0
    outer loop
      vertex 2.85448 22.2046 0
      vertex 2.42089 22.1381 6.9
      vertex 2.85448 22.2046 6.9
    endloop
  endfacet
  facet normal -0.151598 0.988442 0
    outer loop
      vertex 2.42089 22.1381 6.9
      vertex 2.85448 22.2046 0
      vertex 2.42089 22.1381 0
    endloop
  endfacet
  facet normal -0.942493 -0.334227 0
    outer loop
      vertex 4.08403 24.261 0
      vertex 3.93743 24.6744 6.9
      vertex 3.93743 24.6744 0
    endloop
  endfacet
  facet normal -0.942493 -0.334227 0
    outer loop
      vertex 3.93743 24.6744 6.9
      vertex 4.08403 24.261 0
      vertex 4.08403 24.261 6.9
    endloop
  endfacet
  facet normal 0.026444 -0.99965 0
    outer loop
      vertex 2.10894 25.6173 0
      vertex 2.54745 25.6289 6.9
      vertex 2.10894 25.6173 6.9
    endloop
  endfacet
  facet normal 0.026444 -0.99965 0
    outer loop
      vertex 2.54745 25.6289 6.9
      vertex 2.10894 25.6173 0
      vertex 2.54745 25.6289 0
    endloop
  endfacet
  facet normal -0.829788 -0.558078 0
    outer loop
      vertex 3.93743 24.6744 0
      vertex 3.69262 25.0384 6.9
      vertex 3.69262 25.0384 0
    endloop
  endfacet
  facet normal -0.829788 -0.558078 0
    outer loop
      vertex 3.69262 25.0384 6.9
      vertex 3.93743 24.6744 0
      vertex 3.93743 24.6744 6.9
    endloop
  endfacet
  facet normal 0.893229 0.449602 0
    outer loop
      vertex 0.922235 22.9108 6.9
      vertex 0.724974 23.3027 0
      vertex 0.724974 23.3027 6.9
    endloop
  endfacet
  facet normal 0.893229 0.449602 0
    outer loop
      vertex 0.724974 23.3027 0
      vertex 0.922235 22.9108 6.9
      vertex 0.922235 22.9108 0
    endloop
  endfacet
  facet normal -0.222729 -0.97488 0
    outer loop
      vertex 2.54745 25.6289 0
      vertex 2.97508 25.5312 6.9
      vertex 2.54745 25.6289 6.9
    endloop
  endfacet
  facet normal -0.222729 -0.97488 -0
    outer loop
      vertex 2.97508 25.5312 6.9
      vertex 2.54745 25.6289 0
      vertex 2.97508 25.5312 0
    endloop
  endfacet
  facet normal -0.986917 0.161226 0
    outer loop
      vertex 4.05249 23.3912 0
      vertex 4.12321 23.8241 6.9
      vertex 4.12321 23.8241 0
    endloop
  endfacet
  facet normal -0.986917 0.161226 0
    outer loop
      vertex 4.12321 23.8241 6.9
      vertex 4.05249 23.3912 0
      vertex 4.05249 23.3912 6.9
    endloop
  endfacet
  facet normal 0.0989349 0.995094 -0
    outer loop
      vertex 2.42089 22.1381 0
      vertex 1.98437 22.1815 6.9
      vertex 2.42089 22.1381 6.9
    endloop
  endfacet
  facet normal 0.0989349 0.995094 0
    outer loop
      vertex 1.98437 22.1815 6.9
      vertex 2.42089 22.1381 0
      vertex 1.98437 22.1815 0
    endloop
  endfacet
  facet normal 0.343309 0.939222 -0
    outer loop
      vertex 1.98437 22.1815 0
      vertex 1.57236 22.3321 6.9
      vertex 1.98437 22.1815 6.9
    endloop
  endfacet
  facet normal 0.343309 0.939222 0
    outer loop
      vertex 1.57236 22.3321 6.9
      vertex 1.98437 22.1815 0
      vertex 1.57236 22.3321 0
    endloop
  endfacet
  facet normal -0.915854 0.401512 0
    outer loop
      vertex 3.87634 22.9894 0
      vertex 4.05249 23.3912 6.9
      vertex 4.05249 23.3912 0
    endloop
  endfacet
  facet normal -0.915854 0.401512 0
    outer loop
      vertex 4.05249 23.3912 6.9
      vertex 3.87634 22.9894 0
      vertex 3.87634 22.9894 6.9
    endloop
  endfacet
  facet normal 0.566043 0.824376 -0
    outer loop
      vertex 1.57236 22.3321 0
      vertex 1.21074 22.5804 6.9
      vertex 1.57236 22.3321 6.9
    endloop
  endfacet
  facet normal 0.566043 0.824376 0
    outer loop
      vertex 1.21074 22.5804 6.9
      vertex 1.57236 22.3321 0
      vertex 1.21074 22.5804 0
    endloop
  endfacet
  facet normal -0.787178 0.616726 0
    outer loop
      vertex 3.60581 22.6441 0
      vertex 3.87634 22.9894 6.9
      vertex 3.87634 22.9894 0
    endloop
  endfacet
  facet normal -0.787178 0.616726 0
    outer loop
      vertex 3.87634 22.9894 6.9
      vertex 3.60581 22.6441 0
      vertex 3.60581 22.6441 6.9
    endloop
  endfacet
  facet normal 0.274456 -0.9616 0
    outer loop
      vertex 1.6871 25.4969 0
      vertex 2.10894 25.6173 6.9
      vertex 1.6871 25.4969 6.9
    endloop
  endfacet
  facet normal 0.274456 -0.9616 0
    outer loop
      vertex 2.10894 25.6173 6.9
      vertex 1.6871 25.4969 0
      vertex 2.10894 25.6173 0
    endloop
  endfacet
  facet normal -0.996003 -0.0893188 0
    outer loop
      vertex 4.12321 23.8241 0
      vertex 4.08403 24.261 6.9
      vertex 4.08403 24.261 0
    endloop
  endfacet
  facet normal -0.996003 -0.0893188 0
    outer loop
      vertex 4.08403 24.261 6.9
      vertex 4.12321 23.8241 0
      vertex 4.12321 23.8241 6.9
    endloop
  endfacet
  facet normal -0.664944 -0.746893 0
    outer loop
      vertex 3.36497 25.3301 0
      vertex 3.69262 25.0384 6.9
      vertex 3.36497 25.3301 6.9
    endloop
  endfacet
  facet normal -0.664944 -0.746893 -0
    outer loop
      vertex 3.69262 25.0384 6.9
      vertex 3.36497 25.3301 0
      vertex 3.69262 25.0384 0
    endloop
  endfacet
  facet normal 0.858277 -0.513186 0
    outer loop
      vertex 0.771656 24.5902 6.9
      vertex 0.996775 24.9667 0
      vertex 0.996775 24.9667 6.9
    endloop
  endfacet
  facet normal 0.858277 -0.513186 0
    outer loop
      vertex 0.996775 24.9667 0
      vertex 0.771656 24.5902 6.9
      vertex 0.771656 24.5902 0
    endloop
  endfacet
  facet normal 0.976952 0.213461 0
    outer loop
      vertex 0.724974 23.3027 6.9
      vertex 0.631348 23.7312 0
      vertex 0.631348 23.7312 6.9
    endloop
  endfacet
  facet normal 0.976952 0.213461 0
    outer loop
      vertex 0.631348 23.7312 0
      vertex 0.724974 23.3027 6.9
      vertex 0.724974 23.3027 0
    endloop
  endfacet
  facet normal 0.999343 -0.0362308 0
    outer loop
      vertex 0.631348 23.7312 6.9
      vertex 0.647242 24.1696 0
      vertex 0.647242 24.1696 6.9
    endloop
  endfacet
  facet normal 0.999343 -0.0362308 0
    outer loop
      vertex 0.647242 24.1696 0
      vertex 0.631348 23.7312 6.9
      vertex 0.631348 23.7312 0
    endloop
  endfacet
  facet normal 0.753249 0.657736 0
    outer loop
      vertex 1.21074 22.5804 6.9
      vertex 0.922235 22.9108 0
      vertex 0.922235 22.9108 6.9
    endloop
  endfacet
  facet normal 0.753249 0.657736 0
    outer loop
      vertex 0.922235 22.9108 0
      vertex 1.21074 22.5804 6.9
      vertex 1.21074 22.5804 0
    endloop
  endfacet
  facet normal -0.609105 0.79309 0
    outer loop
      vertex 3.60581 22.6441 0
      vertex 3.2579 22.3769 6.9
      vertex 3.60581 22.6441 6.9
    endloop
  endfacet
  facet normal -0.609105 0.79309 0
    outer loop
      vertex 3.2579 22.3769 6.9
      vertex 3.60581 22.6441 0
      vertex 3.2579 22.3769 0
    endloop
  endfacet
  facet normal 0.958927 -0.283652 0
    outer loop
      vertex 0.647242 24.1696 6.9
      vertex 0.771656 24.5902 0
      vertex 0.771656 24.5902 6.9
    endloop
  endfacet
  facet normal 0.958927 -0.283652 0
    outer loop
      vertex 0.771656 24.5902 0
      vertex 0.647242 24.1696 6.9
      vertex 0.647242 24.1696 0
    endloop
  endfacet
  facet normal -0.392774 0.919635 0
    outer loop
      vertex 3.2579 22.3769 0
      vertex 2.85448 22.2046 6.9
      vertex 3.2579 22.3769 6.9
    endloop
  endfacet
  facet normal -0.392774 0.919635 0
    outer loop
      vertex 2.85448 22.2046 6.9
      vertex 3.2579 22.3769 0
      vertex 2.85448 22.2046 0
    endloop
  endfacet
  facet normal -0.458403 -0.888745 0
    outer loop
      vertex 2.97508 25.5312 0
      vertex 3.36497 25.3301 6.9
      vertex 2.97508 25.5312 6.9
    endloop
  endfacet
  facet normal -0.458403 -0.888745 -0
    outer loop
      vertex 3.36497 25.3301 6.9
      vertex 2.97508 25.5312 0
      vertex 3.36497 25.3301 0
    endloop
  endfacet
  facet normal 0.570797 -0.821091 0
    outer loop
      vertex 15.079 29.4463 0
      vertex 15.4392 29.6967 6.9
      vertex 15.079 29.4463 6.9
    endloop
  endfacet
  facet normal 0.570797 -0.821091 0
    outer loop
      vertex 15.4392 29.6967 6.9
      vertex 15.079 29.4463 0
      vertex 15.4392 29.6967 0
    endloop
  endfacet
  facet normal 0.104424 -0.994533 0
    outer loop
      vertex 15.8504 29.8496 0
      vertex 16.2866 29.8954 6.9
      vertex 15.8504 29.8496 6.9
    endloop
  endfacet
  facet normal 0.104424 -0.994533 0
    outer loop
      vertex 16.2866 29.8954 6.9
      vertex 15.8504 29.8496 0
      vertex 16.2866 29.8954 0
    endloop
  endfacet
  facet normal 0.268937 0.963158 -0
    outer loop
      vertex 15.9944 26.4146 0
      vertex 15.5718 26.5326 6.9
      vertex 15.9944 26.4146 6.9
    endloop
  endfacet
  facet normal 0.268937 0.963158 0
    outer loop
      vertex 15.5718 26.5326 6.9
      vertex 15.9944 26.4146 0
      vertex 15.5718 26.5326 0
    endloop
  endfacet
  facet normal -0.145888 -0.989301 0
    outer loop
      vertex 16.2866 29.8954 0
      vertex 16.7206 29.8314 6.9
      vertex 16.2866 29.8954 6.9
    endloop
  endfacet
  facet normal -0.145888 -0.989301 -0
    outer loop
      vertex 16.7206 29.8314 6.9
      vertex 16.2866 29.8954 0
      vertex 16.7206 29.8314 0
    endloop
  endfacet
  facet normal -0.996494 0.0836681 0
    outer loop
      vertex 17.9618 27.782 0
      vertex 17.9985 28.2191 6.9
      vertex 17.9985 28.2191 0
    endloop
  endfacet
  facet normal -0.996494 0.0836681 0
    outer loop
      vertex 17.9985 28.2191 6.9
      vertex 17.9618 27.782 0
      vertex 17.9618 27.782 6.9
    endloop
  endfacet
  facet normal -0.604586 -0.79654 0
    outer loop
      vertex 17.125 29.6614 0
      vertex 17.4744 29.3962 6.9
      vertex 17.125 29.6614 6.9
    endloop
  endfacet
  facet normal -0.604586 -0.79654 -0
    outer loop
      vertex 17.4744 29.3962 6.9
      vertex 17.125 29.6614 0
      vertex 17.4744 29.3962 0
    endloop
  endfacet
  facet normal 0.855394 0.517978 0
    outer loop
      vertex 14.8785 27.0588 6.9
      vertex 14.6513 27.434 0
      vertex 14.6513 27.434 6.9
    endloop
  endfacet
  facet normal 0.855394 0.517978 0
    outer loop
      vertex 14.6513 27.434 0
      vertex 14.8785 27.0588 6.9
      vertex 14.8785 27.0588 0
    endloop
  endfacet
  facet normal 0.756967 -0.653454 0
    outer loop
      vertex 14.7924 29.1143 6.9
      vertex 15.079 29.4463 0
      vertex 15.079 29.4463 6.9
    endloop
  endfacet
  facet normal 0.756967 -0.653454 0
    outer loop
      vertex 15.079 29.4463 0
      vertex 14.7924 29.1143 6.9
      vertex 14.7924 29.1143 0
    endloop
  endfacet
  facet normal -0.669091 0.743181 0
    outer loop
      vertex 17.5747 27.0023 0
      vertex 17.2487 26.7088 6.9
      vertex 17.5747 27.0023 6.9
    endloop
  endfacet
  facet normal -0.669091 0.743181 0
    outer loop
      vertex 17.2487 26.7088 6.9
      vertex 17.5747 27.0023 0
      vertex 17.2487 26.7088 0
    endloop
  endfacet
  facet normal 0.978141 -0.207941 0
    outer loop
      vertex 14.5061 28.2923 6.9
      vertex 14.5973 28.7213 0
      vertex 14.5973 28.7213 6.9
    endloop
  endfacet
  facet normal 0.978141 -0.207941 0
    outer loop
      vertex 14.5973 28.7213 0
      vertex 14.5061 28.2923 6.9
      vertex 14.5061 28.2923 0
    endloop
  endfacet
  facet normal 0.348524 -0.9373 0
    outer loop
      vertex 15.4392 29.6967 0
      vertex 15.8504 29.8496 6.9
      vertex 15.4392 29.6967 6.9
    endloop
  endfacet
  facet normal 0.348524 -0.9373 0
    outer loop
      vertex 15.8504 29.8496 6.9
      vertex 15.4392 29.6967 0
      vertex 15.8504 29.8496 0
    endloop
  endfacet
  facet normal -0.387527 -0.921858 0
    outer loop
      vertex 16.7206 29.8314 0
      vertex 17.125 29.6614 6.9
      vertex 16.7206 29.8314 6.9
    endloop
  endfacet
  facet normal -0.387527 -0.921858 -0
    outer loop
      vertex 17.125 29.6614 6.9
      vertex 16.7206 29.8314 0
      vertex 17.125 29.6614 0
    endloop
  endfacet
  facet normal -0.944358 0.328918 0
    outer loop
      vertex 17.8175 27.3677 0
      vertex 17.9618 27.782 6.9
      vertex 17.9618 27.782 0
    endloop
  endfacet
  facet normal -0.944358 0.328918 0
    outer loop
      vertex 17.9618 27.782 6.9
      vertex 17.8175 27.3677 0
      vertex 17.8175 27.3677 6.9
    endloop
  endfacet
  facet normal 0.957323 0.28902 0
    outer loop
      vertex 14.6513 27.434 6.9
      vertex 14.5245 27.854 0
      vertex 14.5245 27.854 6.9
    endloop
  endfacet
  facet normal 0.957323 0.28902 0
    outer loop
      vertex 14.5245 27.854 0
      vertex 14.6513 27.434 6.9
      vertex 14.6513 27.434 0
    endloop
  endfacet
  facet normal 0.8957 -0.444659 0
    outer loop
      vertex 14.5973 28.7213 6.9
      vertex 14.7924 29.1143 0
      vertex 14.7924 29.1143 6.9
    endloop
  endfacet
  facet normal 0.8957 -0.444659 0
    outer loop
      vertex 14.7924 29.1143 0
      vertex 14.5973 28.7213 6.9
      vertex 14.5973 28.7213 0
    endloop
  endfacet
  facet normal -0.463283 0.886211 0
    outer loop
      vertex 17.2487 26.7088 0
      vertex 16.86 26.5056 6.9
      vertex 17.2487 26.7088 6.9
    endloop
  endfacet
  facet normal -0.463283 0.886211 0
    outer loop
      vertex 16.86 26.5056 6.9
      vertex 17.2487 26.7088 0
      vertex 16.86 26.5056 0
    endloop
  endfacet
  facet normal 0.99912 0.0419434 0
    outer loop
      vertex 14.5245 27.854 6.9
      vertex 14.5061 28.2923 0
      vertex 14.5061 28.2923 6.9
    endloop
  endfacet
  facet normal 0.99912 0.0419434 0
    outer loop
      vertex 14.5061 28.2923 0
      vertex 14.5245 27.854 6.9
      vertex 14.5245 27.854 0
    endloop
  endfacet
  facet normal -0.783685 -0.621158 0
    outer loop
      vertex 17.7469 29.0524 0
      vertex 17.4744 29.3962 6.9
      vertex 17.4744 29.3962 0
    endloop
  endfacet
  facet normal -0.783685 -0.621158 0
    outer loop
      vertex 17.4744 29.3962 6.9
      vertex 17.7469 29.0524 0
      vertex 17.7469 29.0524 6.9
    endloop
  endfacet
  facet normal -0.228404 0.973566 0
    outer loop
      vertex 16.86 26.5056 0
      vertex 16.4329 26.4054 6.9
      vertex 16.86 26.5056 6.9
    endloop
  endfacet
  facet normal -0.228404 0.973566 0
    outer loop
      vertex 16.4329 26.4054 6.9
      vertex 16.86 26.5056 0
      vertex 16.4329 26.4054 0
    endloop
  endfacet
  facet normal 0.500038 0.866003 -0
    outer loop
      vertex 15.5718 26.5326 0
      vertex 15.192 26.7519 6.9
      vertex 15.5718 26.5326 6.9
    endloop
  endfacet
  facet normal 0.500038 0.866003 0
    outer loop
      vertex 15.192 26.7519 6.9
      vertex 15.5718 26.5326 0
      vertex 15.192 26.7519 0
    endloop
  endfacet
  facet normal -0.913586 -0.406646 0
    outer loop
      vertex 17.9253 28.6516 0
      vertex 17.7469 29.0524 6.9
      vertex 17.7469 29.0524 0
    endloop
  endfacet
  facet normal -0.913586 -0.406646 0
    outer loop
      vertex 17.7469 29.0524 6.9
      vertex 17.9253 28.6516 0
      vertex 17.9253 28.6516 6.9
    endloop
  endfacet
  facet normal -0.832891 0.553437 0
    outer loop
      vertex 17.5747 27.0023 0
      vertex 17.8175 27.3677 6.9
      vertex 17.8175 27.3677 0
    endloop
  endfacet
  facet normal -0.832891 0.553437 0
    outer loop
      vertex 17.8175 27.3677 6.9
      vertex 17.5747 27.0023 0
      vertex 17.5747 27.0023 6.9
    endloop
  endfacet
  facet normal 0.699545 0.714589 -0
    outer loop
      vertex 15.192 26.7519 0
      vertex 14.8785 27.0588 6.9
      vertex 15.192 26.7519 6.9
    endloop
  endfacet
  facet normal 0.699545 0.714589 0
    outer loop
      vertex 14.8785 27.0588 6.9
      vertex 15.192 26.7519 0
      vertex 14.8785 27.0588 0
    endloop
  endfacet
  facet normal 0.020976 0.99978 -0
    outer loop
      vertex 16.4329 26.4054 0
      vertex 15.9944 26.4146 6.9
      vertex 16.4329 26.4054 6.9
    endloop
  endfacet
  facet normal 0.020976 0.99978 0
    outer loop
      vertex 15.9944 26.4146 6.9
      vertex 16.4329 26.4054 0
      vertex 15.9944 26.4146 0
    endloop
  endfacet
  facet normal -0.985978 -0.166875 0
    outer loop
      vertex 17.9985 28.2191 0
      vertex 17.9253 28.6516 6.9
      vertex 17.9253 28.6516 0
    endloop
  endfacet
  facet normal -0.985978 -0.166875 0
    outer loop
      vertex 17.9253 28.6516 6.9
      vertex 17.9985 28.2191 0
      vertex 17.9985 28.2191 6.9
    endloop
  endfacet
  facet normal -0.146124 -0.989266 0
    outer loop
      vertex 5.53665 11.2759 0
      vertex 5.97061 11.2118 6.9
      vertex 5.53665 11.2759 6.9
    endloop
  endfacet
  facet normal -0.146124 -0.989266 -0
    outer loop
      vertex 5.97061 11.2118 6.9
      vertex 5.53665 11.2759 0
      vertex 5.97061 11.2118 0
    endloop
  endfacet
  facet normal -0.387535 -0.921855 0
    outer loop
      vertex 5.97061 11.2118 0
      vertex 6.375 11.0418 6.9
      vertex 5.97061 11.2118 6.9
    endloop
  endfacet
  facet normal -0.387535 -0.921855 -0
    outer loop
      vertex 6.375 11.0418 6.9
      vertex 5.97061 11.2118 0
      vertex 6.375 11.0418 0
    endloop
  endfacet
  facet normal 0.104996 -0.994473 0
    outer loop
      vertex 5.28319 11.2493 3.2
      vertex 5.10039 11.23 6.9
      vertex 5.10039 11.23 3.2
    endloop
  endfacet
  facet normal 0.104635 -0.994511 -1.8051e-05
    outer loop
      vertex 5.10039 11.23 6.9
      vertex 5.28319 11.2493 3.2
      vertex 5.53665 11.2759 6.9
    endloop
  endfacet
  facet normal 0.104374 -0.994538 0
    outer loop
      vertex 5.53665 11.2759 0
      vertex 5.28319 11.2493 3.2
      vertex 5.28319 11.2493 0
    endloop
  endfacet
  facet normal 0.104374 -0.994538 0
    outer loop
      vertex 5.28319 11.2493 3.2
      vertex 5.53665 11.2759 0
      vertex 5.53665 11.2759 6.9
    endloop
  endfacet
  facet normal 0.348554 -0.937289 0
    outer loop
      vertex 4.68923 11.0771 3.2
      vertex 5.10039 11.23 6.9
      vertex 4.68923 11.0771 6.9
    endloop
  endfacet
  facet normal 0.348554 -0.937289 0
    outer loop
      vertex 5.10039 11.23 6.9
      vertex 4.68923 11.0771 3.2
      vertex 5.10039 11.23 3.2
    endloop
  endfacet
  facet normal 0.8957 -0.444658 0
    outer loop
      vertex 3.84734 10.1018 6.9
      vertex 4.04239 10.4947 3.2
      vertex 4.04239 10.4947 6.9
    endloop
  endfacet
  facet normal 0.8957 -0.444658 0
    outer loop
      vertex 4.04239 10.4947 3.2
      vertex 3.84734 10.1018 6.9
      vertex 3.84734 10.1018 3.2
    endloop
  endfacet
  facet normal 0.699671 0.714466 -0
    outer loop
      vertex 4.44195 8.13235 3.2
      vertex 4.12854 8.43927 6.9
      vertex 4.44195 8.13235 6.9
    endloop
  endfacet
  facet normal 0.699671 0.714466 0
    outer loop
      vertex 4.12854 8.43927 6.9
      vertex 4.44195 8.13235 3.2
      vertex 4.12854 8.43927 3.2
    endloop
  endfacet
  facet normal -0.46329 0.886207 0
    outer loop
      vertex 6.49875 8.08927 3.2
      vertex 6.11 7.88604 6.9
      vertex 6.49875 8.08927 6.9
    endloop
  endfacet
  facet normal -0.46329 0.886207 0
    outer loop
      vertex 6.11 7.88604 6.9
      vertex 6.49875 8.08927 3.2
      vertex 6.11 7.88604 3.2
    endloop
  endfacet
  facet normal 0.957324 0.289016 0
    outer loop
      vertex 3.90129 8.81449 6.9
      vertex 3.77451 9.23443 3.2
      vertex 3.77451 9.23443 6.9
    endloop
  endfacet
  facet normal 0.957324 0.289016 0
    outer loop
      vertex 3.77451 9.23443 3.2
      vertex 3.90129 8.81449 6.9
      vertex 3.90129 8.81449 3.2
    endloop
  endfacet
  facet normal -0.783707 -0.62113 0
    outer loop
      vertex 6.99689 10.4328 0
      vertex 6.72441 10.7766 6.9
      vertex 6.72441 10.7766 0
    endloop
  endfacet
  facet normal -0.783707 -0.62113 0
    outer loop
      vertex 6.72441 10.7766 6.9
      vertex 6.99689 10.4328 0
      vertex 6.99689 10.4328 6.9
    endloop
  endfacet
  facet normal -0.669127 0.743148 0
    outer loop
      vertex 6.82474 8.38279 3.2
      vertex 6.49875 8.08927 6.9
      vertex 6.82474 8.38279 6.9
    endloop
  endfacet
  facet normal -0.669127 0.743148 0
    outer loop
      vertex 6.49875 8.08927 6.9
      vertex 6.82474 8.38279 3.2
      vertex 6.49875 8.08927 3.2
    endloop
  endfacet
  facet normal 0.855355 0.518042 0
    outer loop
      vertex 4.12854 8.43927 6.9
      vertex 3.90129 8.81449 3.2
      vertex 3.90129 8.81449 6.9
    endloop
  endfacet
  facet normal 0.855355 0.518042 0
    outer loop
      vertex 3.90129 8.81449 3.2
      vertex 4.12854 8.43927 6.9
      vertex 4.12854 8.43927 3.2
    endloop
  endfacet
  facet normal -0.604575 -0.796548 0
    outer loop
      vertex 6.375 11.0418 0
      vertex 6.72441 10.7766 6.9
      vertex 6.375 11.0418 6.9
    endloop
  endfacet
  facet normal -0.604575 -0.796548 -0
    outer loop
      vertex 6.72441 10.7766 6.9
      vertex 6.375 11.0418 0
      vertex 6.72441 10.7766 0
    endloop
  endfacet
  facet normal 0.999123 0.0418761 0
    outer loop
      vertex 3.77451 9.23443 6.9
      vertex 3.75614 9.67272 3.2
      vertex 3.75614 9.67272 6.9
    endloop
  endfacet
  facet normal 0.999123 0.0418761 0
    outer loop
      vertex 3.75614 9.67272 3.2
      vertex 3.77451 9.23443 6.9
      vertex 3.77451 9.23443 3.2
    endloop
  endfacet
  facet normal 0.570633 -0.821205 0
    outer loop
      vertex 4.32902 10.8268 3.2
      vertex 4.68923 11.0771 6.9
      vertex 4.32902 10.8268 6.9
    endloop
  endfacet
  facet normal 0.570633 -0.821205 0
    outer loop
      vertex 4.68923 11.0771 6.9
      vertex 4.32902 10.8268 3.2
      vertex 4.68923 11.0771 3.2
    endloop
  endfacet
  facet normal -0.228349 0.973579 0
    outer loop
      vertex 6.11 7.88604 3.2
      vertex 5.68292 7.78587 6.9
      vertex 6.11 7.88604 6.9
    endloop
  endfacet
  facet normal -0.228349 0.973579 0
    outer loop
      vertex 5.68292 7.78587 6.9
      vertex 6.11 7.88604 3.2
      vertex 5.68292 7.78587 3.2
    endloop
  endfacet
  facet normal 0.978149 -0.207903 0
    outer loop
      vertex 3.75614 9.67272 6.9
      vertex 3.84734 10.1018 3.2
      vertex 3.84734 10.1018 6.9
    endloop
  endfacet
  facet normal 0.978149 -0.207903 0
    outer loop
      vertex 3.84734 10.1018 3.2
      vertex 3.75614 9.67272 6.9
      vertex 3.75614 9.67272 3.2
    endloop
  endfacet
  facet normal 0.0209271 0.999781 -0
    outer loop
      vertex 5.68292 7.78587 3.2
      vertex 5.24435 7.79505 6.9
      vertex 5.68292 7.78587 6.9
    endloop
  endfacet
  facet normal 0.0209271 0.999781 0
    outer loop
      vertex 5.24435 7.79505 6.9
      vertex 5.68292 7.78587 3.2
      vertex 5.24435 7.79505 3.2
    endloop
  endfacet
  facet normal -0.944377 0.328865 0
    outer loop
      vertex 7.0675 8.74817 3.2
      vertex 7.21176 9.16243 6.9
      vertex 7.21176 9.16243 3.2
    endloop
  endfacet
  facet normal -0.944377 0.328865 0
    outer loop
      vertex 7.21176 9.16243 6.9
      vertex 7.0675 8.74817 3.2
      vertex 7.0675 8.74817 6.9
    endloop
  endfacet
  facet normal -0.996494 0.0836624 0
    outer loop
      vertex 7.21176 9.16243 3.2
      vertex 7.24846 9.59956 6.9
      vertex 7.24846 9.59956 3.2
    endloop
  endfacet
  facet normal -0.996494 0.0836624 0
    outer loop
      vertex 7.24846 9.59956 6.9
      vertex 7.21176 9.16243 3.2
      vertex 7.21176 9.16243 6.9
    endloop
  endfacet
  facet normal 0.499991 0.866031 -0
    outer loop
      vertex 4.82185 7.91302 3.2
      vertex 4.44195 8.13235 6.9
      vertex 4.82185 7.91302 6.9
    endloop
  endfacet
  facet normal 0.499991 0.866031 0
    outer loop
      vertex 4.44195 8.13235 6.9
      vertex 4.82185 7.91302 3.2
      vertex 4.44195 8.13235 3.2
    endloop
  endfacet
  facet normal 0.268932 0.963159 -0
    outer loop
      vertex 5.24435 7.79505 3.2
      vertex 4.82185 7.91302 6.9
      vertex 5.24435 7.79505 6.9
    endloop
  endfacet
  facet normal 0.268932 0.963159 0
    outer loop
      vertex 4.82185 7.91302 6.9
      vertex 5.24435 7.79505 3.2
      vertex 4.82185 7.91302 3.2
    endloop
  endfacet
  facet normal -0.985999 -0.16675 0
    outer loop
      vertex 7.24846 9.59956 3.2
      vertex 7.17531 10.0321 6.9
      vertex 7.17531 10.0321 3.2
    endloop
  endfacet
  facet normal -0.985999 -0.16675 0
    outer loop
      vertex 7.17531 10.0321 6.9
      vertex 7.24846 9.59956 3.2
      vertex 7.24846 9.59956 6.9
    endloop
  endfacet
  facet normal 0.75703 -0.65338 0
    outer loop
      vertex 4.04239 10.4947 6.9
      vertex 4.32902 10.8268 3.2
      vertex 4.32902 10.8268 6.9
    endloop
  endfacet
  facet normal 0.75703 -0.65338 0
    outer loop
      vertex 4.32902 10.8268 3.2
      vertex 4.04239 10.4947 6.9
      vertex 4.04239 10.4947 3.2
    endloop
  endfacet
  facet normal -0.832919 0.553395 0
    outer loop
      vertex 6.82474 8.38279 3.2
      vertex 7.0675 8.74817 6.9
      vertex 7.0675 8.74817 3.2
    endloop
  endfacet
  facet normal -0.832919 0.553395 0
    outer loop
      vertex 7.0675 8.74817 6.9
      vertex 6.82474 8.38279 3.2
      vertex 6.82474 8.38279 6.9
    endloop
  endfacet
  facet normal -0.91353 -0.406772 -0
    outer loop
      vertex 7.10055 10.2 3.2
      vertex 6.99689 10.4328 0
      vertex 7.10055 10.2 0
    endloop
  endfacet
  facet normal -0.91353 -0.406772 0
    outer loop
      vertex 6.99689 10.4328 0
      vertex 7.10055 10.2 3.2
      vertex 6.99689 10.4328 6.9
    endloop
  endfacet
  facet normal -0.913533 -0.406764 -0
    outer loop
      vertex 7.17531 10.0321 6.9
      vertex 7.10055 10.2 3.2
      vertex 7.17531 10.0321 3.2
    endloop
  endfacet
  facet normal -0.913531 -0.406769 -2.37843e-07
    outer loop
      vertex 7.10055 10.2 3.2
      vertex 7.17531 10.0321 6.9
      vertex 6.99689 10.4328 6.9
    endloop
  endfacet
endsolid OpenSCAD_Model
