solid OpenSCAD_Model
  facet normal 1 -0 0
    outer loop
      vertex 37 0 20
      vertex 37 20 8
      vertex 37 20 20
    endloop
  endfacet
  facet normal 1 0 0
    outer loop
      vertex 37 20 8
      vertex 37 0 20
      vertex 37 0 8
    endloop
  endfacet
  facet normal -0 0 1
    outer loop
      vertex 12 12.75 20
      vertex 12.2 10.2 20
      vertex 12.6953 12.8601 20
    endloop
  endfacet
  facet normal 0 0 1
    outer loop
      vertex 11.3047 12.8601 20
      vertex 12.2 10.2 20
      vertex 12 12.75 20
    endloop
  endfacet
  facet normal 0 0 1
    outer loop
      vertex 10.6775 13.1797 20
      vertex 12.2 10.2 20
      vertex 11.3047 12.8601 20
    endloop
  endfacet
  facet normal 0 0 1
    outer loop
      vertex 7 10.2 20
      vertex 10.6775 13.1797 20
      vertex 10.1797 13.6775 20
    endloop
  endfacet
  facet normal 0 0 1
    outer loop
      vertex 7 10.2 20
      vertex 9.75 15 20
      vertex 7 20 20
    endloop
  endfacet
  facet normal 0 0 1
    outer loop
      vertex 10.6775 13.1797 20
      vertex 7 10.2 20
      vertex 12.2 10.2 20
    endloop
  endfacet
  facet normal 0 0 1
    outer loop
      vertex 9.86012 14.3047 20
      vertex 7 10.2 20
      vertex 10.1797 13.6775 20
    endloop
  endfacet
  facet normal 0 0 1
    outer loop
      vertex 9.75 15 20
      vertex 7 10.2 20
      vertex 9.86012 14.3047 20
    endloop
  endfacet
  facet normal -0 0 1
    outer loop
      vertex 34.1399 5.69529 20
      vertex 37 0 20
      vertex 34.1399 14.3047 20
    endloop
  endfacet
  facet normal 0 0 1
    outer loop
      vertex 37 0 20
      vertex 34.1399 5.69529 20
      vertex 34.25 5 20
    endloop
  endfacet
  facet normal -0 0 1
    outer loop
      vertex 33.8203 13.6775 20
      vertex 34.1399 5.69529 20
      vertex 34.1399 14.3047 20
    endloop
  endfacet
  facet normal 0 0 1
    outer loop
      vertex 33.8203 13.6775 20
      vertex 33.8203 6.32252 20
      vertex 34.1399 5.69529 20
    endloop
  endfacet
  facet normal -0 0 1
    outer loop
      vertex 33.3225 13.1797 20
      vertex 33.8203 6.32252 20
      vertex 33.8203 13.6775 20
    endloop
  endfacet
  facet normal 0 0 1
    outer loop
      vertex 33.3225 13.1797 20
      vertex 33.3225 6.82029 20
      vertex 33.8203 6.32252 20
    endloop
  endfacet
  facet normal -0 0 1
    outer loop
      vertex 32.6953 12.8601 20
      vertex 33.3225 6.82029 20
      vertex 33.3225 13.1797 20
    endloop
  endfacet
  facet normal 0 0 1
    outer loop
      vertex 32.6953 12.8601 20
      vertex 32.6953 7.13988 20
      vertex 33.3225 6.82029 20
    endloop
  endfacet
  facet normal -0 0 1
    outer loop
      vertex 32 12.75 20
      vertex 32.6953 7.13988 20
      vertex 32.6953 12.8601 20
    endloop
  endfacet
  facet normal 0 0 1
    outer loop
      vertex 32 12.75 20
      vertex 32 7.25 20
      vertex 32.6953 7.13988 20
    endloop
  endfacet
  facet normal 0 0 1
    outer loop
      vertex 31.3047 12.8601 20
      vertex 32 7.25 20
      vertex 32 12.75 20
    endloop
  endfacet
  facet normal 0 0 1
    outer loop
      vertex 31.3047 12.8601 20
      vertex 31.3047 7.13988 20
      vertex 32 7.25 20
    endloop
  endfacet
  facet normal 0 0 1
    outer loop
      vertex 30.6775 13.1797 20
      vertex 31.3047 7.13988 20
      vertex 31.3047 12.8601 20
    endloop
  endfacet
  facet normal 0 0 1
    outer loop
      vertex 30.6775 13.1797 20
      vertex 30.6775 6.82029 20
      vertex 31.3047 7.13988 20
    endloop
  endfacet
  facet normal 0 0 1
    outer loop
      vertex 30.1797 13.6775 20
      vertex 30.6775 6.82029 20
      vertex 30.6775 13.1797 20
    endloop
  endfacet
  facet normal 0 0 1
    outer loop
      vertex 30.1797 13.6775 20
      vertex 30.1797 6.32252 20
      vertex 30.6775 6.82029 20
    endloop
  endfacet
  facet normal 0 0 1
    outer loop
      vertex 29.8601 14.3047 20
      vertex 30.1797 6.32252 20
      vertex 30.1797 13.6775 20
    endloop
  endfacet
  facet normal 0 0 1
    outer loop
      vertex 29.8601 14.3047 20
      vertex 29.8601 5.69529 20
      vertex 30.1797 6.32252 20
    endloop
  endfacet
  facet normal 0 0 1
    outer loop
      vertex 14.1399 14.3047 20
      vertex 29.8601 14.3047 20
      vertex 29.75 15 20
    endloop
  endfacet
  facet normal 0 0 1
    outer loop
      vertex 29.8601 14.3047 20
      vertex 14.1399 14.3047 20
      vertex 29.8601 5.69529 20
    endloop
  endfacet
  facet normal -0 0 1
    outer loop
      vertex 34.1399 14.3047 20
      vertex 37 0 20
      vertex 37 20 20
    endloop
  endfacet
  facet normal -0 0 1
    outer loop
      vertex 34.1399 4.30471 20
      vertex 37 0 20
      vertex 34.25 5 20
    endloop
  endfacet
  facet normal 0 0 1
    outer loop
      vertex 34.1399 14.3047 20
      vertex 37 20 20
      vertex 34.25 15 20
    endloop
  endfacet
  facet normal 0 0 1
    outer loop
      vertex 37 20 20
      vertex 34.1399 15.6953 20
      vertex 34.25 15 20
    endloop
  endfacet
  facet normal 0 0 1
    outer loop
      vertex 37 20 20
      vertex 33.8203 16.3225 20
      vertex 34.1399 15.6953 20
    endloop
  endfacet
  facet normal 0 0 1
    outer loop
      vertex 37 20 20
      vertex 33.3225 16.8203 20
      vertex 33.8203 16.3225 20
    endloop
  endfacet
  facet normal 0 0 1
    outer loop
      vertex 37 20 20
      vertex 32.6953 17.1399 20
      vertex 33.3225 16.8203 20
    endloop
  endfacet
  facet normal 0 0 1
    outer loop
      vertex 37 20 20
      vertex 32 17.25 20
      vertex 32.6953 17.1399 20
    endloop
  endfacet
  facet normal 0 0 1
    outer loop
      vertex 37 20 20
      vertex 31.3047 17.1399 20
      vertex 32 17.25 20
    endloop
  endfacet
  facet normal -0 0 1
    outer loop
      vertex 13.8203 13.6775 20
      vertex 29.8601 5.69529 20
      vertex 14.1399 14.3047 20
    endloop
  endfacet
  facet normal 0 0 1
    outer loop
      vertex 29.75 5 20
      vertex 25.5 -1.5 20
      vertex 29.5 -1.5 20
    endloop
  endfacet
  facet normal 0 0 1
    outer loop
      vertex 14.25 15 20
      vertex 29.75 15 20
      vertex 29.8601 15.6953 20
    endloop
  endfacet
  facet normal 0 0 1
    outer loop
      vertex 25.5 -1.5 20
      vertex 23.5 -1.5 20
      vertex 25.5 -3 20
    endloop
  endfacet
  facet normal 0 0 1
    outer loop
      vertex 29.75 5 20
      vertex 23.5 -1.5 20
      vertex 25.5 -1.5 20
    endloop
  endfacet
  facet normal 0 -0 1
    outer loop
      vertex 19.5 -1.5 20
      vertex 29.8601 5.69529 20
      vertex 12.2 10.2 20
    endloop
  endfacet
  facet normal 0 0 1
    outer loop
      vertex 14.1399 15.6953 20
      vertex 29.8601 15.6953 20
      vertex 30.1797 16.3225 20
    endloop
  endfacet
  facet normal -0 0 1
    outer loop
      vertex 12.2 10.2 20
      vertex 29.8601 5.69529 20
      vertex 13.8203 13.6775 20
    endloop
  endfacet
  facet normal 0 0 1
    outer loop
      vertex 29.75 15 20
      vertex 14.25 15 20
      vertex 14.1399 14.3047 20
    endloop
  endfacet
  facet normal 0 0 1
    outer loop
      vertex 13.8203 16.3225 20
      vertex 30.1797 16.3225 20
      vertex 30.6775 16.8203 20
    endloop
  endfacet
  facet normal 0 0 1
    outer loop
      vertex 13.3225 16.8203 20
      vertex 30.6775 16.8203 20
      vertex 31.3047 17.1399 20
    endloop
  endfacet
  facet normal 0 0 1
    outer loop
      vertex 12.6953 17.1399 20
      vertex 31.3047 17.1399 20
      vertex 37 20 20
    endloop
  endfacet
  facet normal 0 0 1
    outer loop
      vertex 29.8601 15.6953 20
      vertex 14.1399 15.6953 20
      vertex 14.25 15 20
    endloop
  endfacet
  facet normal 0 0 1
    outer loop
      vertex 30.1797 16.3225 20
      vertex 13.8203 16.3225 20
      vertex 14.1399 15.6953 20
    endloop
  endfacet
  facet normal 0 0 1
    outer loop
      vertex 30.6775 16.8203 20
      vertex 13.3225 16.8203 20
      vertex 13.8203 16.3225 20
    endloop
  endfacet
  facet normal 0 0 1
    outer loop
      vertex 31.3047 17.1399 20
      vertex 12.6953 17.1399 20
      vertex 13.3225 16.8203 20
    endloop
  endfacet
  facet normal -0 0 1
    outer loop
      vertex 7 20 20
      vertex 12.6953 17.1399 20
      vertex 37 20 20
    endloop
  endfacet
  facet normal 0 0 1
    outer loop
      vertex 9.86012 15.6953 20
      vertex 7 20 20
      vertex 9.75 15 20
    endloop
  endfacet
  facet normal 0 0 1
    outer loop
      vertex 10.1797 16.3225 20
      vertex 7 20 20
      vertex 9.86012 15.6953 20
    endloop
  endfacet
  facet normal 0 0 1
    outer loop
      vertex 10.6775 16.8203 20
      vertex 7 20 20
      vertex 10.1797 16.3225 20
    endloop
  endfacet
  facet normal 0 0 1
    outer loop
      vertex 11.3047 17.1399 20
      vertex 7 20 20
      vertex 10.6775 16.8203 20
    endloop
  endfacet
  facet normal 0 0 1
    outer loop
      vertex 12 17.25 20
      vertex 7 20 20
      vertex 11.3047 17.1399 20
    endloop
  endfacet
  facet normal 0 0 1
    outer loop
      vertex 12.6953 17.1399 20
      vertex 7 20 20
      vertex 12 17.25 20
    endloop
  endfacet
  facet normal 0 0 1
    outer loop
      vertex 45.5 -3 20
      vertex 47.2 0 20
      vertex 45.5 -1.5 20
    endloop
  endfacet
  facet normal 0 0 1
    outer loop
      vertex 47.2 0 20
      vertex 41.5 -1.5 20
      vertex 45.5 -1.5 20
    endloop
  endfacet
  facet normal 0 0 1
    outer loop
      vertex 41.5 -1.5 20
      vertex 39.5 -1.5 20
      vertex 41.5 -3 20
    endloop
  endfacet
  facet normal -0 0 1
    outer loop
      vertex 37 0 20
      vertex 41.5 -1.5 20
      vertex 47.2 0 20
    endloop
  endfacet
  facet normal 0 0 1
    outer loop
      vertex 41.5 -1.5 20
      vertex 37 0 20
      vertex 39.5 -1.5 20
    endloop
  endfacet
  facet normal 0 0 1
    outer loop
      vertex 39.5 -1.5 20
      vertex 37 0 20
      vertex 35.5 -1.5 20
    endloop
  endfacet
  facet normal 0 0 1
    outer loop
      vertex 47.2 0 20
      vertex 45.5 -3 20
      vertex 47.2 -20 20
    endloop
  endfacet
  facet normal -0 0 1
    outer loop
      vertex 41.5 -3 20
      vertex 47.2 -20 20
      vertex 45.5 -3 20
    endloop
  endfacet
  facet normal 0 0 1
    outer loop
      vertex 39.5 -3 20
      vertex 41.5 -3 20
      vertex 39.5 -1.5 20
    endloop
  endfacet
  facet normal 0 0 1
    outer loop
      vertex 41.5 -3 20
      vertex 39.5 -3 20
      vertex 47.2 -20 20
    endloop
  endfacet
  facet normal -0 0 1
    outer loop
      vertex 35.5 -3 20
      vertex 47.2 -20 20
      vertex 39.5 -3 20
    endloop
  endfacet
  facet normal -0 0 1
    outer loop
      vertex 33.8203 3.67748 20
      vertex 37 0 20
      vertex 34.1399 4.30471 20
    endloop
  endfacet
  facet normal -0 0 1
    outer loop
      vertex 33.3225 3.17971 20
      vertex 37 0 20
      vertex 33.8203 3.67748 20
    endloop
  endfacet
  facet normal 0 0 1
    outer loop
      vertex 37 0 20
      vertex 33.3225 3.17971 20
      vertex 35.5 -1.5 20
    endloop
  endfacet
  facet normal -0 0 1
    outer loop
      vertex 32.6953 2.86012 20
      vertex 35.5 -1.5 20
      vertex 33.3225 3.17971 20
    endloop
  endfacet
  facet normal -0 0 1
    outer loop
      vertex 32 2.75 20
      vertex 35.5 -1.5 20
      vertex 32.6953 2.86012 20
    endloop
  endfacet
  facet normal 0 0 1
    outer loop
      vertex 29.5 -1.5 20
      vertex 35.5 -1.5 20
      vertex 32 2.75 20
    endloop
  endfacet
  facet normal 0 0 1
    outer loop
      vertex 29.5 -1.5 20
      vertex 32 2.75 20
      vertex 31.3047 2.86012 20
    endloop
  endfacet
  facet normal 0 0 1
    outer loop
      vertex 35.5 -1.5 20
      vertex 29.5 -1.5 20
      vertex 35.5 -3 20
    endloop
  endfacet
  facet normal 0 0 1
    outer loop
      vertex 29.5 -1.5 20
      vertex 31.3047 2.86012 20
      vertex 30.6775 3.17971 20
    endloop
  endfacet
  facet normal 0 0 1
    outer loop
      vertex 29.5 -1.5 20
      vertex 30.6775 3.17971 20
      vertex 30.1797 3.67748 20
    endloop
  endfacet
  facet normal 0 0 1
    outer loop
      vertex 29.5 -1.5 20
      vertex 29.8601 4.30471 20
      vertex 29.75 5 20
    endloop
  endfacet
  facet normal 0 0 1
    outer loop
      vertex 29.5 -1.5 20
      vertex 30.1797 3.67748 20
      vertex 29.8601 4.30471 20
    endloop
  endfacet
  facet normal 0 0 1
    outer loop
      vertex 35.5 -3 20
      vertex 29.5 -1.5 20
      vertex 29.5 -3 20
    endloop
  endfacet
  facet normal 0 0 1
    outer loop
      vertex 35.5 -3 20
      vertex 29.5 -3 20
      vertex 47.2 -20 20
    endloop
  endfacet
  facet normal 0 0 1
    outer loop
      vertex 12.2 -20 20
      vertex 29.5 -3 20
      vertex 25.5 -3 20
    endloop
  endfacet
  facet normal 0 0 1
    outer loop
      vertex 23.5 -3 20
      vertex 25.5 -3 20
      vertex 23.5 -1.5 20
    endloop
  endfacet
  facet normal 0 0 1
    outer loop
      vertex 12.2 -20 20
      vertex 25.5 -3 20
      vertex 23.5 -3 20
    endloop
  endfacet
  facet normal 0 0 1
    outer loop
      vertex 12.2 -20 20
      vertex 23.5 -3 20
      vertex 19.5 -3 20
    endloop
  endfacet
  facet normal 0 0 1
    outer loop
      vertex 29.75 5 20
      vertex 19.5 -1.5 20
      vertex 23.5 -1.5 20
    endloop
  endfacet
  facet normal 0 0 1
    outer loop
      vertex 29.8601 5.69529 20
      vertex 19.5 -1.5 20
      vertex 29.75 5 20
    endloop
  endfacet
  facet normal 0 0 1
    outer loop
      vertex 12.2 10.2 20
      vertex 13.8203 13.6775 20
      vertex 13.3225 13.1797 20
    endloop
  endfacet
  facet normal 0 0 1
    outer loop
      vertex 12.2 10.2 20
      vertex 13.3225 13.1797 20
      vertex 12.6953 12.8601 20
    endloop
  endfacet
  facet normal 0 0 1
    outer loop
      vertex 19.5 -1.5 20
      vertex 12.2 10.2 20
      vertex 19.5 -3 20
    endloop
  endfacet
  facet normal 0 0 1
    outer loop
      vertex 29.5 -3 20
      vertex 12.2 -20 20
      vertex 47.2 -20 20
    endloop
  endfacet
  facet normal 0 0 1
    outer loop
      vertex 12.2 -20 20
      vertex 19.5 -3 20
      vertex 12.2 10.2 20
    endloop
  endfacet
  facet normal 0 0 -1
    outer loop
      vertex 29.8601 14.3047 8
      vertex 14.1399 14.3047 8
      vertex 14.25 15 8
    endloop
  endfacet
  facet normal 0 0 -1
    outer loop
      vertex 19.5 -1.5 8
      vertex 13.8203 13.6775 8
      vertex 14.1399 14.3047 8
    endloop
  endfacet
  facet normal -0 0 -1
    outer loop
      vertex 19.5 -1.5 8
      vertex 13.7 -5 8
      vertex 12.2 10.2 8
    endloop
  endfacet
  facet normal 0 0 -1
    outer loop
      vertex 19.5 -1.5 8
      vertex 12.2 10.2 8
      vertex 13.8203 13.6775 8
    endloop
  endfacet
  facet normal 0 0 -1
    outer loop
      vertex 13.8203 13.6775 8
      vertex 12.2 10.2 8
      vertex 13.3225 13.1797 8
    endloop
  endfacet
  facet normal 0 0 -1
    outer loop
      vertex 12.2 10.2 8
      vertex 13.7 -5 8
      vertex 12.2 -5 8
    endloop
  endfacet
  facet normal 0 0 -1
    outer loop
      vertex 13.3225 13.1797 8
      vertex 12.2 10.2 8
      vertex 12.6953 12.8601 8
    endloop
  endfacet
  facet normal 0 0 -1
    outer loop
      vertex 12.2 10.2 8
      vertex 12 12.75 8
      vertex 12.6953 12.8601 8
    endloop
  endfacet
  facet normal 0 0 -1
    outer loop
      vertex 12.2 10.2 8
      vertex 11.3047 12.8601 8
      vertex 12 12.75 8
    endloop
  endfacet
  facet normal 0 0 -1
    outer loop
      vertex 12.2 10.2 8
      vertex 10.6775 13.1797 8
      vertex 11.3047 12.8601 8
    endloop
  endfacet
  facet normal 0 0 -1
    outer loop
      vertex 7 10.2 8
      vertex 10.6775 13.1797 8
      vertex 12.2 10.2 8
    endloop
  endfacet
  facet normal -0 0 -1
    outer loop
      vertex 9.86012 14.3047 8
      vertex 7 10.2 8
      vertex 9.75 15 8
    endloop
  endfacet
  facet normal -0 0 -1
    outer loop
      vertex 10.1797 13.6775 8
      vertex 7 10.2 8
      vertex 9.86012 14.3047 8
    endloop
  endfacet
  facet normal -0 0 -1
    outer loop
      vertex 10.6775 13.1797 8
      vertex 7 10.2 8
      vertex 10.1797 13.6775 8
    endloop
  endfacet
  facet normal 0 0 -1
    outer loop
      vertex 23.0435 -7.82849 8
      vertex 23.5 -3 8
      vertex 24.1069 -8.05451 8
    endloop
  endfacet
  facet normal 0 0 -1
    outer loop
      vertex 21.9565 -7.82849 8
      vertex 23.5 -3 8
      vertex 23.0435 -7.82849 8
    endloop
  endfacet
  facet normal 0 0 -1
    outer loop
      vertex 19.5 -3 8
      vertex 21.9565 -7.82849 8
      vertex 20.8931 -8.05451 8
    endloop
  endfacet
  facet normal 0 0 -1
    outer loop
      vertex 17.2 -5 8
      vertex 20.8931 -8.05451 8
      vertex 19.9 -8.49667 8
    endloop
  endfacet
  facet normal 0 0 -1
    outer loop
      vertex 21.9565 -7.82849 8
      vertex 19.5 -3 8
      vertex 23.5 -3 8
    endloop
  endfacet
  facet normal 0 0 -1
    outer loop
      vertex 20.8931 -8.05451 8
      vertex 17.2 -5 8
      vertex 19.5 -3 8
    endloop
  endfacet
  facet normal 0 0 -1
    outer loop
      vertex 17.2 -5 8
      vertex 19.9 -8.49667 8
      vertex 19.0205 -9.13565 8
    endloop
  endfacet
  facet normal 0 0 -1
    outer loop
      vertex 34.1399 14.3047 8
      vertex 37 20 8
      vertex 34.1399 5.69529 8
    endloop
  endfacet
  facet normal 0 0 -1
    outer loop
      vertex 37 20 8
      vertex 34.1399 14.3047 8
      vertex 34.25 15 8
    endloop
  endfacet
  facet normal 0 0 -1
    outer loop
      vertex 33.8203 6.32252 8
      vertex 34.1399 14.3047 8
      vertex 34.1399 5.69529 8
    endloop
  endfacet
  facet normal 0 0 -1
    outer loop
      vertex 33.8203 6.32252 8
      vertex 33.8203 13.6775 8
      vertex 34.1399 14.3047 8
    endloop
  endfacet
  facet normal 0 0 -1
    outer loop
      vertex 33.3225 6.82029 8
      vertex 33.8203 13.6775 8
      vertex 33.8203 6.32252 8
    endloop
  endfacet
  facet normal 0 0 -1
    outer loop
      vertex 33.3225 6.82029 8
      vertex 33.3225 13.1797 8
      vertex 33.8203 13.6775 8
    endloop
  endfacet
  facet normal 0 0 -1
    outer loop
      vertex 32.6953 7.13988 8
      vertex 33.3225 13.1797 8
      vertex 33.3225 6.82029 8
    endloop
  endfacet
  facet normal 0 0 -1
    outer loop
      vertex 32.6953 7.13988 8
      vertex 32.6953 12.8601 8
      vertex 33.3225 13.1797 8
    endloop
  endfacet
  facet normal 0 0 -1
    outer loop
      vertex 32 7.25 8
      vertex 32.6953 12.8601 8
      vertex 32.6953 7.13988 8
    endloop
  endfacet
  facet normal 0 0 -1
    outer loop
      vertex 32 7.25 8
      vertex 32 12.75 8
      vertex 32.6953 12.8601 8
    endloop
  endfacet
  facet normal 0 0 -1
    outer loop
      vertex 31.3047 7.13988 8
      vertex 32 12.75 8
      vertex 32 7.25 8
    endloop
  endfacet
  facet normal 0 0 -1
    outer loop
      vertex 31.3047 7.13988 8
      vertex 31.3047 12.8601 8
      vertex 32 12.75 8
    endloop
  endfacet
  facet normal 0 0 -1
    outer loop
      vertex 30.6775 6.82029 8
      vertex 31.3047 12.8601 8
      vertex 31.3047 7.13988 8
    endloop
  endfacet
  facet normal 0 0 -1
    outer loop
      vertex 30.6775 6.82029 8
      vertex 30.6775 13.1797 8
      vertex 31.3047 12.8601 8
    endloop
  endfacet
  facet normal 0 0 -1
    outer loop
      vertex 30.1797 6.32252 8
      vertex 30.6775 13.1797 8
      vertex 30.6775 6.82029 8
    endloop
  endfacet
  facet normal 0 0 -1
    outer loop
      vertex 30.1797 6.32252 8
      vertex 30.1797 13.6775 8
      vertex 30.6775 13.1797 8
    endloop
  endfacet
  facet normal 0 0 -1
    outer loop
      vertex 29.8601 5.69529 8
      vertex 30.1797 13.6775 8
      vertex 30.1797 6.32252 8
    endloop
  endfacet
  facet normal 0 0 -1
    outer loop
      vertex 29.8601 5.69529 8
      vertex 29.8601 14.3047 8
      vertex 30.1797 13.6775 8
    endloop
  endfacet
  facet normal 0 0 -1
    outer loop
      vertex 19.5 -1.5 8
      vertex 29.8601 5.69529 8
      vertex 29.75 5 8
    endloop
  endfacet
  facet normal 0 0 -1
    outer loop
      vertex 14.1399 14.3047 8
      vertex 29.8601 14.3047 8
      vertex 29.8601 5.69529 8
    endloop
  endfacet
  facet normal 0 0 -1
    outer loop
      vertex 37 0 8
      vertex 34.1399 4.30471 8
      vertex 34.25 5 8
    endloop
  endfacet
  facet normal 0 0 -1
    outer loop
      vertex 35.5 -3 8
      vertex 33.8203 3.67748 8
      vertex 34.1399 4.30471 8
    endloop
  endfacet
  facet normal 0 0 -1
    outer loop
      vertex 26.7069 -9.94352 8
      vertex 34.2931 -9.94352 8
      vertex 33.7496 -10.885 8
    endloop
  endfacet
  facet normal 0 0 -1
    outer loop
      vertex 27.2504 -10.885 8
      vertex 33.7496 -10.885 8
      vertex 33.4136 -11.9189 8
    endloop
  endfacet
  facet normal 0 0 -1
    outer loop
      vertex 35.5 -3 8
      vertex 33.3225 3.17971 8
      vertex 33.8203 3.67748 8
    endloop
  endfacet
  facet normal 0 0 -1
    outer loop
      vertex 27.5864 -11.9189 8
      vertex 33.4136 -11.9189 8
      vertex 33.3 -13 8
    endloop
  endfacet
  facet normal 0 0 -1
    outer loop
      vertex 29.5 -1.5 8
      vertex 35.5 -3 8
      vertex 29.5 -3 8
    endloop
  endfacet
  facet normal 0 0 -1
    outer loop
      vertex 33.4136 -11.9189 8
      vertex 27.5864 -11.9189 8
      vertex 27.2504 -10.885 8
    endloop
  endfacet
  facet normal 0 0 -1
    outer loop
      vertex 33.7496 -10.885 8
      vertex 27.2504 -10.885 8
      vertex 26.7069 -9.94352 8
    endloop
  endfacet
  facet normal 0 0 -1
    outer loop
      vertex 34.2931 -9.94352 8
      vertex 26.7069 -9.94352 8
      vertex 29.5 -3 8
    endloop
  endfacet
  facet normal 0 0 -1
    outer loop
      vertex 25.9795 -9.13565 8
      vertex 29.5 -3 8
      vertex 26.7069 -9.94352 8
    endloop
  endfacet
  facet normal 0 0 -1
    outer loop
      vertex 25.1 -8.49667 8
      vertex 29.5 -3 8
      vertex 25.9795 -9.13565 8
    endloop
  endfacet
  facet normal 0 0 -1
    outer loop
      vertex 24.1069 -8.05451 8
      vertex 25.5 -3 8
      vertex 25.1 -8.49667 8
    endloop
  endfacet
  facet normal -0 0 -1
    outer loop
      vertex 29.5 -3 8
      vertex 25.1 -8.49667 8
      vertex 25.5 -3 8
    endloop
  endfacet
  facet normal 0 0 -1
    outer loop
      vertex 39.0435 -7.82849 8
      vertex 39.5 -3 8
      vertex 40.1069 -8.05451 8
    endloop
  endfacet
  facet normal 0 0 -1
    outer loop
      vertex 37.9565 -7.82849 8
      vertex 39.5 -3 8
      vertex 39.0435 -7.82849 8
    endloop
  endfacet
  facet normal 0 0 -1
    outer loop
      vertex 35.5 -3 8
      vertex 37.9565 -7.82849 8
      vertex 36.8931 -8.05451 8
    endloop
  endfacet
  facet normal 0 0 -1
    outer loop
      vertex 35.5 -3 8
      vertex 36.8931 -8.05451 8
      vertex 35.9 -8.49667 8
    endloop
  endfacet
  facet normal 0 0 -1
    outer loop
      vertex 37.9565 -7.82849 8
      vertex 35.5 -3 8
      vertex 39.5 -3 8
    endloop
  endfacet
  facet normal 0 0 -1
    outer loop
      vertex 29.5 -3 8
      vertex 35.0205 -9.13565 8
      vertex 34.2931 -9.94352 8
    endloop
  endfacet
  facet normal 0 0 -1
    outer loop
      vertex 35.0205 -9.13565 8
      vertex 35.5 -3 8
      vertex 35.9 -8.49667 8
    endloop
  endfacet
  facet normal 0 0 -1
    outer loop
      vertex 47.2 -20 8
      vertex 45.5 -3 8
      vertex 47.2 0 8
    endloop
  endfacet
  facet normal 0 0 -1
    outer loop
      vertex 43.5864 -11.9189 8
      vertex 47.2 -20 8
      vertex 43.7 -13 8
    endloop
  endfacet
  facet normal 0 0 -1
    outer loop
      vertex 47.2 -20 8
      vertex 43.5864 -14.0811 8
      vertex 43.7 -13 8
    endloop
  endfacet
  facet normal 0 0 -1
    outer loop
      vertex 47.2 -20 8
      vertex 43.2504 -15.115 8
      vertex 43.5864 -14.0811 8
    endloop
  endfacet
  facet normal 0 0 -1
    outer loop
      vertex 47.2 -20 8
      vertex 42.7069 -16.0565 8
      vertex 43.2504 -15.115 8
    endloop
  endfacet
  facet normal 0 0 -1
    outer loop
      vertex 47.2 -20 8
      vertex 41.9795 -16.8644 8
      vertex 42.7069 -16.0565 8
    endloop
  endfacet
  facet normal 0 0 -1
    outer loop
      vertex 47.2 -20 8
      vertex 41.1 -17.5033 8
      vertex 41.9795 -16.8644 8
    endloop
  endfacet
  facet normal 0 0 -1
    outer loop
      vertex 47.2 -20 8
      vertex 40.1069 -17.9455 8
      vertex 41.1 -17.5033 8
    endloop
  endfacet
  facet normal 0 0 -1
    outer loop
      vertex 47.2 -20 8
      vertex 39.0435 -18.1715 8
      vertex 40.1069 -17.9455 8
    endloop
  endfacet
  facet normal 0 0 -1
    outer loop
      vertex 47.2 -20 8
      vertex 37.9565 -18.1715 8
      vertex 39.0435 -18.1715 8
    endloop
  endfacet
  facet normal 0 0 -1
    outer loop
      vertex 35.5 -3 8
      vertex 32.6953 2.86012 8
      vertex 33.3225 3.17971 8
    endloop
  endfacet
  facet normal 0 0 -1
    outer loop
      vertex 35.5 -3 8
      vertex 29.5 -1.5 8
      vertex 32.6953 2.86012 8
    endloop
  endfacet
  facet normal 0 0 -1
    outer loop
      vertex 27.7 -13 8
      vertex 33.3 -13 8
      vertex 33.4136 -14.0811 8
    endloop
  endfacet
  facet normal 0 0 -1
    outer loop
      vertex 32.6953 2.86012 8
      vertex 29.5 -1.5 8
      vertex 32 2.75 8
    endloop
  endfacet
  facet normal -0 0 -1
    outer loop
      vertex 32 2.75 8
      vertex 29.5 -1.5 8
      vertex 31.3047 2.86012 8
    endloop
  endfacet
  facet normal -0 0 -1
    outer loop
      vertex 30.6775 3.17971 8
      vertex 29.5 -1.5 8
      vertex 30.1797 3.67748 8
    endloop
  endfacet
  facet normal -0 0 -1
    outer loop
      vertex 30.1797 3.67748 8
      vertex 25.5 -1.5 8
      vertex 29.8601 4.30471 8
    endloop
  endfacet
  facet normal 0 0 -1
    outer loop
      vertex 25.5 -1.5 8
      vertex 30.1797 3.67748 8
      vertex 29.5 -1.5 8
    endloop
  endfacet
  facet normal -0 0 -1
    outer loop
      vertex 31.3047 2.86012 8
      vertex 29.5 -1.5 8
      vertex 30.6775 3.17971 8
    endloop
  endfacet
  facet normal 0 0 -1
    outer loop
      vertex 27.5864 -14.0811 8
      vertex 33.4136 -14.0811 8
      vertex 33.7496 -15.115 8
    endloop
  endfacet
  facet normal 0 0 -1
    outer loop
      vertex 27.5864 -11.9189 8
      vertex 33.3 -13 8
      vertex 27.7 -13 8
    endloop
  endfacet
  facet normal 0 0 -1
    outer loop
      vertex 27.2504 -15.115 8
      vertex 33.7496 -15.115 8
      vertex 34.2931 -16.0565 8
    endloop
  endfacet
  facet normal 0 0 -1
    outer loop
      vertex 26.7069 -16.0565 8
      vertex 34.2931 -16.0565 8
      vertex 35.0205 -16.8644 8
    endloop
  endfacet
  facet normal 0 0 -1
    outer loop
      vertex 25.9795 -16.8644 8
      vertex 35.0205 -16.8644 8
      vertex 35.9 -17.5033 8
    endloop
  endfacet
  facet normal 0 0 -1
    outer loop
      vertex 33.4136 -14.0811 8
      vertex 27.5864 -14.0811 8
      vertex 27.7 -13 8
    endloop
  endfacet
  facet normal 0 0 -1
    outer loop
      vertex 25.1 -17.5033 8
      vertex 35.9 -17.5033 8
      vertex 36.8931 -17.9455 8
    endloop
  endfacet
  facet normal 0 0 -1
    outer loop
      vertex 33.7496 -15.115 8
      vertex 27.2504 -15.115 8
      vertex 27.5864 -14.0811 8
    endloop
  endfacet
  facet normal 0 0 -1
    outer loop
      vertex 34.2931 -16.0565 8
      vertex 26.7069 -16.0565 8
      vertex 27.2504 -15.115 8
    endloop
  endfacet
  facet normal 0 0 -1
    outer loop
      vertex 24.1069 -17.9455 8
      vertex 36.8931 -17.9455 8
      vertex 37.9565 -18.1715 8
    endloop
  endfacet
  facet normal 0 0 -1
    outer loop
      vertex 23.0435 -18.1715 8
      vertex 37.9565 -18.1715 8
      vertex 47.2 -20 8
    endloop
  endfacet
  facet normal 0 0 -1
    outer loop
      vertex 35.0205 -16.8644 8
      vertex 25.9795 -16.8644 8
      vertex 26.7069 -16.0565 8
    endloop
  endfacet
  facet normal 0 0 -1
    outer loop
      vertex 35.9 -17.5033 8
      vertex 25.1 -17.5033 8
      vertex 25.9795 -16.8644 8
    endloop
  endfacet
  facet normal 0 0 -1
    outer loop
      vertex 36.8931 -17.9455 8
      vertex 24.1069 -17.9455 8
      vertex 25.1 -17.5033 8
    endloop
  endfacet
  facet normal 0 0 -1
    outer loop
      vertex 37.9565 -18.1715 8
      vertex 23.0435 -18.1715 8
      vertex 24.1069 -17.9455 8
    endloop
  endfacet
  facet normal 0 0 -1
    outer loop
      vertex 12.2 -20 8
      vertex 23.0435 -18.1715 8
      vertex 47.2 -20 8
    endloop
  endfacet
  facet normal 0 0 -1
    outer loop
      vertex 17.7496 -10.885 8
      vertex 15.7 -8 8
      vertex 17.2 -8 8
    endloop
  endfacet
  facet normal 0 0 -1
    outer loop
      vertex 12.2 -20 8
      vertex 17.3 -13 8
      vertex 17.4136 -14.0811 8
    endloop
  endfacet
  facet normal 0 0 -1
    outer loop
      vertex 17.4136 -11.9189 8
      vertex 13.7 -8 8
      vertex 15.7 -8 8
    endloop
  endfacet
  facet normal 0 0 -1
    outer loop
      vertex 12.2 -20 8
      vertex 17.4136 -14.0811 8
      vertex 17.7496 -15.115 8
    endloop
  endfacet
  facet normal -0 0 -1
    outer loop
      vertex 23.0435 -18.1715 8
      vertex 12.2 -20 8
      vertex 21.9565 -18.1715 8
    endloop
  endfacet
  facet normal 0 0 -1
    outer loop
      vertex 12.2 -20 8
      vertex 20.8931 -17.9455 8
      vertex 21.9565 -18.1715 8
    endloop
  endfacet
  facet normal 0 0 -1
    outer loop
      vertex 12.2 -20 8
      vertex 19.9 -17.5033 8
      vertex 20.8931 -17.9455 8
    endloop
  endfacet
  facet normal 0 0 -1
    outer loop
      vertex 12.2 -20 8
      vertex 19.0205 -16.8644 8
      vertex 19.9 -17.5033 8
    endloop
  endfacet
  facet normal 0 0 -1
    outer loop
      vertex 12.2 -20 8
      vertex 18.2931 -16.0565 8
      vertex 19.0205 -16.8644 8
    endloop
  endfacet
  facet normal 0 0 -1
    outer loop
      vertex 12.2 -20 8
      vertex 17.7496 -15.115 8
      vertex 18.2931 -16.0565 8
    endloop
  endfacet
  facet normal -0 0 -1
    outer loop
      vertex 17.3 -13 8
      vertex 12.2 -20 8
      vertex 12.2 -8 8
    endloop
  endfacet
  facet normal 0 0 -1
    outer loop
      vertex 17.3 -13 8
      vertex 12.2 -8 8
      vertex 13.7 -8 8
    endloop
  endfacet
  facet normal 0 0 -1
    outer loop
      vertex 45.5 -1.5 8
      vertex 47.2 0 8
      vertex 45.5 -3 8
    endloop
  endfacet
  facet normal 0 0 -1
    outer loop
      vertex 41.5 -1.5 8
      vertex 47.2 0 8
      vertex 45.5 -1.5 8
    endloop
  endfacet
  facet normal 0 0 -1
    outer loop
      vertex 39.5 -3 8
      vertex 41.5 -3 8
      vertex 40.1069 -8.05451 8
    endloop
  endfacet
  facet normal 0 0 -1
    outer loop
      vertex 41.5 -3 8
      vertex 39.5 -3 8
      vertex 41.5 -1.5 8
    endloop
  endfacet
  facet normal 0 0 -1
    outer loop
      vertex 39.5 -1.5 8
      vertex 41.5 -1.5 8
      vertex 39.5 -3 8
    endloop
  endfacet
  facet normal 0 0 -1
    outer loop
      vertex 37 0 8
      vertex 41.5 -1.5 8
      vertex 39.5 -1.5 8
    endloop
  endfacet
  facet normal 0 0 -1
    outer loop
      vertex 41.5 -1.5 8
      vertex 37 0 8
      vertex 47.2 0 8
    endloop
  endfacet
  facet normal 0 0 -1
    outer loop
      vertex 35.5 -1.5 8
      vertex 37 0 8
      vertex 39.5 -1.5 8
    endloop
  endfacet
  facet normal 0 0 -1
    outer loop
      vertex 34.1399 4.30471 8
      vertex 37 0 8
      vertex 35.5 -1.5 8
    endloop
  endfacet
  facet normal 0 0 -1
    outer loop
      vertex 35.0205 -9.13565 8
      vertex 29.5 -3 8
      vertex 35.5 -3 8
    endloop
  endfacet
  facet normal 0 0 -1
    outer loop
      vertex 34.1399 4.30471 8
      vertex 35.5 -1.5 8
      vertex 35.5 -3 8
    endloop
  endfacet
  facet normal 0 0 -1
    outer loop
      vertex 34.1399 5.69529 8
      vertex 37 0 8
      vertex 34.25 5 8
    endloop
  endfacet
  facet normal 0 0 -1
    outer loop
      vertex 37 0 8
      vertex 34.1399 5.69529 8
      vertex 37 20 8
    endloop
  endfacet
  facet normal 0 0 -1
    outer loop
      vertex 34.1399 15.6953 8
      vertex 37 20 8
      vertex 34.25 15 8
    endloop
  endfacet
  facet normal 0 0 -1
    outer loop
      vertex 33.8203 16.3225 8
      vertex 37 20 8
      vertex 34.1399 15.6953 8
    endloop
  endfacet
  facet normal 0 0 -1
    outer loop
      vertex 33.3225 16.8203 8
      vertex 37 20 8
      vertex 33.8203 16.3225 8
    endloop
  endfacet
  facet normal 0 0 -1
    outer loop
      vertex 32.6953 17.1399 8
      vertex 37 20 8
      vertex 33.3225 16.8203 8
    endloop
  endfacet
  facet normal 0 0 -1
    outer loop
      vertex 32 17.25 8
      vertex 37 20 8
      vertex 32.6953 17.1399 8
    endloop
  endfacet
  facet normal 0 0 -1
    outer loop
      vertex 31.3047 17.1399 8
      vertex 37 20 8
      vertex 32 17.25 8
    endloop
  endfacet
  facet normal -0 0 -1
    outer loop
      vertex 29.8601 4.30471 8
      vertex 25.5 -1.5 8
      vertex 29.75 5 8
    endloop
  endfacet
  facet normal 0 0 -1
    outer loop
      vertex 23.5 -1.5 8
      vertex 29.75 5 8
      vertex 25.5 -1.5 8
    endloop
  endfacet
  facet normal 0 0 -1
    outer loop
      vertex 19.5 -1.5 8
      vertex 29.75 5 8
      vertex 23.5 -1.5 8
    endloop
  endfacet
  facet normal -0 0 -1
    outer loop
      vertex 25.5 -3 8
      vertex 24.1069 -8.05451 8
      vertex 23.5 -3 8
    endloop
  endfacet
  facet normal 0 0 -1
    outer loop
      vertex 25.5 -3 8
      vertex 23.5 -3 8
      vertex 25.5 -1.5 8
    endloop
  endfacet
  facet normal 0 0 -1
    outer loop
      vertex 23.5 -1.5 8
      vertex 25.5 -1.5 8
      vertex 23.5 -3 8
    endloop
  endfacet
  facet normal 0 0 -1
    outer loop
      vertex 29.8601 14.3047 8
      vertex 14.25 15 8
      vertex 29.75 15 8
    endloop
  endfacet
  facet normal 0 0 -1
    outer loop
      vertex 14.1399 14.3047 8
      vertex 29.8601 5.69529 8
      vertex 19.5 -1.5 8
    endloop
  endfacet
  facet normal 0 0 -1
    outer loop
      vertex 29.75 15 8
      vertex 14.25 15 8
      vertex 29.8601 15.6953 8
    endloop
  endfacet
  facet normal 0 0 -1
    outer loop
      vertex 17.2 -8 8
      vertex 19.0205 -9.13565 8
      vertex 18.2931 -9.94352 8
    endloop
  endfacet
  facet normal 0 0 -1
    outer loop
      vertex 17.2 -8 8
      vertex 18.2931 -9.94352 8
      vertex 17.7496 -10.885 8
    endloop
  endfacet
  facet normal 0 0 -1
    outer loop
      vertex 15.7 -8 8
      vertex 17.7496 -10.885 8
      vertex 17.4136 -11.9189 8
    endloop
  endfacet
  facet normal 0 0 -1
    outer loop
      vertex 13.7 -8 8
      vertex 17.4136 -11.9189 8
      vertex 17.3 -13 8
    endloop
  endfacet
  facet normal 0 0 -1
    outer loop
      vertex 19.0205 -9.13565 8
      vertex 17.2 -8 8
      vertex 17.2 -5 8
    endloop
  endfacet
  facet normal -0 0 -1
    outer loop
      vertex 19.5 -3 8
      vertex 17.2 -5 8
      vertex 19.5 -1.5 8
    endloop
  endfacet
  facet normal 0 0 -1
    outer loop
      vertex 15.7 -5 8
      vertex 19.5 -1.5 8
      vertex 17.2 -5 8
    endloop
  endfacet
  facet normal 0 0 -1
    outer loop
      vertex 13.7 -5 8
      vertex 19.5 -1.5 8
      vertex 15.7 -5 8
    endloop
  endfacet
  facet normal 0 0 -1
    outer loop
      vertex 14.1399 15.6953 8
      vertex 29.8601 15.6953 8
      vertex 14.25 15 8
    endloop
  endfacet
  facet normal 0 0 -1
    outer loop
      vertex 29.8601 15.6953 8
      vertex 14.1399 15.6953 8
      vertex 30.1797 16.3225 8
    endloop
  endfacet
  facet normal 0 0 -1
    outer loop
      vertex 13.8203 16.3225 8
      vertex 30.1797 16.3225 8
      vertex 14.1399 15.6953 8
    endloop
  endfacet
  facet normal 0 0 -1
    outer loop
      vertex 30.1797 16.3225 8
      vertex 13.8203 16.3225 8
      vertex 30.6775 16.8203 8
    endloop
  endfacet
  facet normal 0 0 -1
    outer loop
      vertex 13.3225 16.8203 8
      vertex 30.6775 16.8203 8
      vertex 13.8203 16.3225 8
    endloop
  endfacet
  facet normal 0 0 -1
    outer loop
      vertex 30.6775 16.8203 8
      vertex 13.3225 16.8203 8
      vertex 31.3047 17.1399 8
    endloop
  endfacet
  facet normal 0 0 -1
    outer loop
      vertex 12.6953 17.1399 8
      vertex 31.3047 17.1399 8
      vertex 13.3225 16.8203 8
    endloop
  endfacet
  facet normal 0 0 -1
    outer loop
      vertex 31.3047 17.1399 8
      vertex 12.6953 17.1399 8
      vertex 37 20 8
    endloop
  endfacet
  facet normal 0 0 -1
    outer loop
      vertex 7 20 8
      vertex 12.6953 17.1399 8
      vertex 12 17.25 8
    endloop
  endfacet
  facet normal 0 0 -1
    outer loop
      vertex 7 20 8
      vertex 9.75 15 8
      vertex 7 10.2 8
    endloop
  endfacet
  facet normal 0 0 -1
    outer loop
      vertex 9.75 15 8
      vertex 7 20 8
      vertex 9.86012 15.6953 8
    endloop
  endfacet
  facet normal 0 0 -1
    outer loop
      vertex 12.6953 17.1399 8
      vertex 7 20 8
      vertex 37 20 8
    endloop
  endfacet
  facet normal 0 0 -1
    outer loop
      vertex 11.3047 17.1399 8
      vertex 7 20 8
      vertex 12 17.25 8
    endloop
  endfacet
  facet normal 0 0 -1
    outer loop
      vertex 10.6775 16.8203 8
      vertex 7 20 8
      vertex 11.3047 17.1399 8
    endloop
  endfacet
  facet normal 0 0 -1
    outer loop
      vertex 10.1797 16.3225 8
      vertex 7 20 8
      vertex 10.6775 16.8203 8
    endloop
  endfacet
  facet normal 0 0 -1
    outer loop
      vertex 9.86012 15.6953 8
      vertex 7 20 8
      vertex 10.1797 16.3225 8
    endloop
  endfacet
  facet normal 0 0 -1
    outer loop
      vertex 47.2 -20 8
      vertex 43.5864 -11.9189 8
      vertex 45.5 -3 8
    endloop
  endfacet
  facet normal 0 0 -1
    outer loop
      vertex 43.2504 -10.885 8
      vertex 45.5 -3 8
      vertex 43.5864 -11.9189 8
    endloop
  endfacet
  facet normal 0 0 -1
    outer loop
      vertex 42.7069 -9.94352 8
      vertex 45.5 -3 8
      vertex 43.2504 -10.885 8
    endloop
  endfacet
  facet normal 0 0 -1
    outer loop
      vertex 41.9795 -9.13565 8
      vertex 45.5 -3 8
      vertex 42.7069 -9.94352 8
    endloop
  endfacet
  facet normal 0 0 -1
    outer loop
      vertex 41.1 -8.49667 8
      vertex 45.5 -3 8
      vertex 41.9795 -9.13565 8
    endloop
  endfacet
  facet normal 0 0 -1
    outer loop
      vertex 40.1069 -8.05451 8
      vertex 41.5 -3 8
      vertex 41.1 -8.49667 8
    endloop
  endfacet
  facet normal -0 0 -1
    outer loop
      vertex 45.5 -3 8
      vertex 41.1 -8.49667 8
      vertex 41.5 -3 8
    endloop
  endfacet
  facet normal -1 0 0
    outer loop
      vertex 12.2 -5 3
      vertex 12.2 -8 3
      vertex 12.2 -5 8
    endloop
  endfacet
  facet normal -1 0 0
    outer loop
      vertex 12.2 -5 8
      vertex 12.2 10.2 20
      vertex 12.2 10.2 8
    endloop
  endfacet
  facet normal -1 0 0
    outer loop
      vertex 12.2 -8 8
      vertex 12.2 -5 8
      vertex 12.2 -8 3
    endloop
  endfacet
  facet normal -1 0 0
    outer loop
      vertex 12.2 -20 20
      vertex 12.2 -5 8
      vertex 12.2 -8 8
    endloop
  endfacet
  facet normal -1 0 0
    outer loop
      vertex 12.2 -20 20
      vertex 12.2 -8 8
      vertex 12.2 -20 8
    endloop
  endfacet
  facet normal -1 0 0
    outer loop
      vertex 12.2 -5 8
      vertex 12.2 -20 20
      vertex 12.2 10.2 20
    endloop
  endfacet
  facet normal 0 1 -0
    outer loop
      vertex 37 20 8
      vertex 7 20 20
      vertex 37 20 20
    endloop
  endfacet
  facet normal 0 1 0
    outer loop
      vertex 7 20 20
      vertex 37 20 8
      vertex 7 20 8
    endloop
  endfacet
  facet normal 0 -1 0
    outer loop
      vertex 12.2 -20 8
      vertex 47.2 -20 20
      vertex 12.2 -20 20
    endloop
  endfacet
  facet normal 0 -1 -0
    outer loop
      vertex 47.2 -20 20
      vertex 12.2 -20 8
      vertex 47.2 -20 8
    endloop
  endfacet
  facet normal -1 0 0
    outer loop
      vertex 7 10.2 8
      vertex 7 20 20
      vertex 7 20 8
    endloop
  endfacet
  facet normal -1 -0 0
    outer loop
      vertex 7 20 20
      vertex 7 10.2 8
      vertex 7 10.2 20
    endloop
  endfacet
  facet normal 0 -1 0
    outer loop
      vertex 7 10.2 8
      vertex 12.2 10.2 20
      vertex 7 10.2 20
    endloop
  endfacet
  facet normal 0 -1 -0
    outer loop
      vertex 12.2 10.2 20
      vertex 7 10.2 8
      vertex 12.2 10.2 8
    endloop
  endfacet
  facet normal 1 -0 0
    outer loop
      vertex 47.2 -20 20
      vertex 47.2 0 8
      vertex 47.2 0 20
    endloop
  endfacet
  facet normal 1 0 0
    outer loop
      vertex 47.2 0 8
      vertex 47.2 -20 20
      vertex 47.2 -20 8
    endloop
  endfacet
  facet normal 0 1 -0
    outer loop
      vertex 47.2 0 8
      vertex 37 0 20
      vertex 47.2 0 20
    endloop
  endfacet
  facet normal 0 1 0
    outer loop
      vertex 37 0 20
      vertex 47.2 0 8
      vertex 37 0 8
    endloop
  endfacet
  facet normal 1 -0 0
    outer loop
      vertex 17.2 -8 8
      vertex 17.2 -5 3
      vertex 17.2 -5 8
    endloop
  endfacet
  facet normal 1 0 0
    outer loop
      vertex 17.2 -5 3
      vertex 17.2 -8 8
      vertex 17.2 -8 3
    endloop
  endfacet
  facet normal 0 0 -1
    outer loop
      vertex 12.2 -8 3
      vertex 17.2 -5 3
      vertex 17.2 -8 3
    endloop
  endfacet
  facet normal -0 0 -1
    outer loop
      vertex 17.2 -5 3
      vertex 12.2 -8 3
      vertex 12.2 -5 3
    endloop
  endfacet
  facet normal 0 1 0
    outer loop
      vertex 17.2 -5 8
      vertex 15.7 -5 4.5
      vertex 15.7 -5 8
    endloop
  endfacet
  facet normal 0 1 0
    outer loop
      vertex 15.7 -5 4.5
      vertex 17.2 -5 3
      vertex 13.7 -5 4.5
    endloop
  endfacet
  facet normal 0 1 -0
    outer loop
      vertex 17.2 -5 3
      vertex 15.7 -5 4.5
      vertex 17.2 -5 8
    endloop
  endfacet
  facet normal 0 1 -0
    outer loop
      vertex 13.7 -5 4.5
      vertex 12.2 -5 8
      vertex 13.7 -5 8
    endloop
  endfacet
  facet normal 0 1 0
    outer loop
      vertex 13.7 -5 4.5
      vertex 12.2 -5 3
      vertex 12.2 -5 8
    endloop
  endfacet
  facet normal 0 1 0
    outer loop
      vertex 12.2 -5 3
      vertex 13.7 -5 4.5
      vertex 17.2 -5 3
    endloop
  endfacet
  facet normal 0 -1 0
    outer loop
      vertex 12.2 -8 8
      vertex 13.7 -8 4.5
      vertex 13.7 -8 8
    endloop
  endfacet
  facet normal 0 -1 -0
    outer loop
      vertex 13.7 -8 4.5
      vertex 12.2 -8 3
      vertex 15.7 -8 4.5
    endloop
  endfacet
  facet normal 0 -1 0
    outer loop
      vertex 12.2 -8 3
      vertex 13.7 -8 4.5
      vertex 12.2 -8 8
    endloop
  endfacet
  facet normal 0 -1 0
    outer loop
      vertex 15.7 -8 4.5
      vertex 17.2 -8 8
      vertex 15.7 -8 8
    endloop
  endfacet
  facet normal 0 -1 0
    outer loop
      vertex 15.7 -8 4.5
      vertex 17.2 -8 3
      vertex 17.2 -8 8
    endloop
  endfacet
  facet normal 0 -1 0
    outer loop
      vertex 17.2 -8 3
      vertex 15.7 -8 4.5
      vertex 12.2 -8 3
    endloop
  endfacet
  facet normal -0.1564 -0.987694 0
    outer loop
      vertex 12 17.25 8
      vertex 12.6953 17.1399 20
      vertex 12 17.25 20
    endloop
  endfacet
  facet normal -0.1564 -0.987694 -0
    outer loop
      vertex 12.6953 17.1399 20
      vertex 12 17.25 8
      vertex 12.6953 17.1399 8
    endloop
  endfacet
  facet normal -0.890992 -0.454019 0
    outer loop
      vertex 14.1399 15.6953 8
      vertex 13.8203 16.3225 20
      vertex 13.8203 16.3225 8
    endloop
  endfacet
  facet normal -0.890992 -0.454019 0
    outer loop
      vertex 13.8203 16.3225 20
      vertex 14.1399 15.6953 8
      vertex 14.1399 15.6953 20
    endloop
  endfacet
  facet normal -0.987694 -0.1564 0
    outer loop
      vertex 14.25 15 8
      vertex 14.1399 15.6953 20
      vertex 14.1399 15.6953 8
    endloop
  endfacet
  facet normal -0.987694 -0.1564 0
    outer loop
      vertex 14.1399 15.6953 20
      vertex 14.25 15 8
      vertex 14.25 15 20
    endloop
  endfacet
  facet normal -0.707107 -0.707107 0
    outer loop
      vertex 13.3225 16.8203 8
      vertex 13.8203 16.3225 20
      vertex 13.3225 16.8203 20
    endloop
  endfacet
  facet normal -0.707107 -0.707107 -0
    outer loop
      vertex 13.8203 16.3225 20
      vertex 13.3225 16.8203 8
      vertex 13.8203 16.3225 8
    endloop
  endfacet
  facet normal -0.890992 0.454019 0
    outer loop
      vertex 13.8203 13.6775 8
      vertex 14.1399 14.3047 20
      vertex 14.1399 14.3047 8
    endloop
  endfacet
  facet normal -0.890992 0.454019 0
    outer loop
      vertex 14.1399 14.3047 20
      vertex 13.8203 13.6775 8
      vertex 13.8203 13.6775 20
    endloop
  endfacet
  facet normal -0.454019 0.890992 0
    outer loop
      vertex 13.3225 13.1797 8
      vertex 12.6953 12.8601 20
      vertex 13.3225 13.1797 20
    endloop
  endfacet
  facet normal -0.454019 0.890992 0
    outer loop
      vertex 12.6953 12.8601 20
      vertex 13.3225 13.1797 8
      vertex 12.6953 12.8601 8
    endloop
  endfacet
  facet normal 0.707107 -0.707107 0
    outer loop
      vertex 10.1797 16.3225 8
      vertex 10.6775 16.8203 20
      vertex 10.1797 16.3225 20
    endloop
  endfacet
  facet normal 0.707107 -0.707107 0
    outer loop
      vertex 10.6775 16.8203 20
      vertex 10.1797 16.3225 8
      vertex 10.6775 16.8203 8
    endloop
  endfacet
  facet normal -0.707107 0.707107 0
    outer loop
      vertex 13.3225 13.1797 8
      vertex 13.8203 13.6775 20
      vertex 13.8203 13.6775 8
    endloop
  endfacet
  facet normal -0.707107 0.707107 0
    outer loop
      vertex 13.8203 13.6775 20
      vertex 13.3225 13.1797 8
      vertex 13.3225 13.1797 20
    endloop
  endfacet
  facet normal -0.1564 0.987694 0
    outer loop
      vertex 12.6953 12.8601 8
      vertex 12 12.75 20
      vertex 12.6953 12.8601 20
    endloop
  endfacet
  facet normal -0.1564 0.987694 0
    outer loop
      vertex 12 12.75 20
      vertex 12.6953 12.8601 8
      vertex 12 12.75 8
    endloop
  endfacet
  facet normal 0.1564 0.987694 -0
    outer loop
      vertex 12 12.75 8
      vertex 11.3047 12.8601 20
      vertex 12 12.75 20
    endloop
  endfacet
  facet normal 0.1564 0.987694 0
    outer loop
      vertex 11.3047 12.8601 20
      vertex 12 12.75 8
      vertex 11.3047 12.8601 8
    endloop
  endfacet
  facet normal 0.454019 0.890992 -0
    outer loop
      vertex 11.3047 12.8601 8
      vertex 10.6775 13.1797 20
      vertex 11.3047 12.8601 20
    endloop
  endfacet
  facet normal 0.454019 0.890992 0
    outer loop
      vertex 10.6775 13.1797 20
      vertex 11.3047 12.8601 8
      vertex 10.6775 13.1797 8
    endloop
  endfacet
  facet normal -0.987694 0.1564 0
    outer loop
      vertex 14.1399 14.3047 8
      vertex 14.25 15 20
      vertex 14.25 15 8
    endloop
  endfacet
  facet normal -0.987694 0.1564 0
    outer loop
      vertex 14.25 15 20
      vertex 14.1399 14.3047 8
      vertex 14.1399 14.3047 20
    endloop
  endfacet
  facet normal 0.1564 -0.987694 0
    outer loop
      vertex 11.3047 17.1399 8
      vertex 12 17.25 20
      vertex 11.3047 17.1399 20
    endloop
  endfacet
  facet normal 0.1564 -0.987694 0
    outer loop
      vertex 12 17.25 20
      vertex 11.3047 17.1399 8
      vertex 12 17.25 8
    endloop
  endfacet
  facet normal 0.987689 -0.156428 0
    outer loop
      vertex 9.75 15 20
      vertex 9.86012 15.6953 8
      vertex 9.86012 15.6953 20
    endloop
  endfacet
  facet normal 0.987689 -0.156428 0
    outer loop
      vertex 9.86012 15.6953 8
      vertex 9.75 15 20
      vertex 9.75 15 8
    endloop
  endfacet
  facet normal 0.707107 0.707107 0
    outer loop
      vertex 10.6775 13.1797 20
      vertex 10.1797 13.6775 8
      vertex 10.1797 13.6775 20
    endloop
  endfacet
  facet normal 0.707107 0.707107 0
    outer loop
      vertex 10.1797 13.6775 8
      vertex 10.6775 13.1797 20
      vertex 10.6775 13.1797 8
    endloop
  endfacet
  facet normal 0.454019 -0.890992 0
    outer loop
      vertex 10.6775 16.8203 8
      vertex 11.3047 17.1399 20
      vertex 10.6775 16.8203 20
    endloop
  endfacet
  facet normal 0.454019 -0.890992 0
    outer loop
      vertex 11.3047 17.1399 20
      vertex 10.6775 16.8203 8
      vertex 11.3047 17.1399 8
    endloop
  endfacet
  facet normal 0.987689 0.156428 0
    outer loop
      vertex 9.86012 14.3047 20
      vertex 9.75 15 8
      vertex 9.75 15 20
    endloop
  endfacet
  facet normal 0.987689 0.156428 0
    outer loop
      vertex 9.75 15 8
      vertex 9.86012 14.3047 20
      vertex 9.86012 14.3047 8
    endloop
  endfacet
  facet normal -0.454019 -0.890992 0
    outer loop
      vertex 12.6953 17.1399 8
      vertex 13.3225 16.8203 20
      vertex 12.6953 17.1399 20
    endloop
  endfacet
  facet normal -0.454019 -0.890992 -0
    outer loop
      vertex 13.3225 16.8203 20
      vertex 12.6953 17.1399 8
      vertex 13.3225 16.8203 8
    endloop
  endfacet
  facet normal 0.891003 0.453997 0
    outer loop
      vertex 10.1797 13.6775 20
      vertex 9.86012 14.3047 8
      vertex 9.86012 14.3047 20
    endloop
  endfacet
  facet normal 0.891003 0.453997 0
    outer loop
      vertex 9.86012 14.3047 8
      vertex 10.1797 13.6775 20
      vertex 10.1797 13.6775 8
    endloop
  endfacet
  facet normal 0.891003 -0.453997 0
    outer loop
      vertex 9.86012 15.6953 20
      vertex 10.1797 16.3225 8
      vertex 10.1797 16.3225 20
    endloop
  endfacet
  facet normal 0.891003 -0.453997 0
    outer loop
      vertex 10.1797 16.3225 8
      vertex 9.86012 15.6953 20
      vertex 9.86012 15.6953 8
    endloop
  endfacet
  facet normal -0.156428 -0.987689 0
    outer loop
      vertex 32 7.25 8
      vertex 32.6953 7.13988 20
      vertex 32 7.25 20
    endloop
  endfacet
  facet normal -0.156428 -0.987689 -0
    outer loop
      vertex 32.6953 7.13988 20
      vertex 32 7.25 8
      vertex 32.6953 7.13988 8
    endloop
  endfacet
  facet normal -0.891001 -0.454002 0
    outer loop
      vertex 34.1399 5.69529 8
      vertex 33.8203 6.32252 20
      vertex 33.8203 6.32252 8
    endloop
  endfacet
  facet normal -0.891001 -0.454002 0
    outer loop
      vertex 33.8203 6.32252 20
      vertex 34.1399 5.69529 8
      vertex 34.1399 5.69529 20
    endloop
  endfacet
  facet normal -0.987693 -0.156402 0
    outer loop
      vertex 34.25 5 8
      vertex 34.1399 5.69529 20
      vertex 34.1399 5.69529 8
    endloop
  endfacet
  facet normal -0.987693 -0.156402 0
    outer loop
      vertex 34.1399 5.69529 20
      vertex 34.25 5 8
      vertex 34.25 5 20
    endloop
  endfacet
  facet normal -0.707085 -0.707128 0
    outer loop
      vertex 33.3225 6.82029 8
      vertex 33.8203 6.32252 20
      vertex 33.3225 6.82029 20
    endloop
  endfacet
  facet normal -0.707085 -0.707128 -0
    outer loop
      vertex 33.8203 6.32252 20
      vertex 33.3225 6.82029 8
      vertex 33.8203 6.32252 8
    endloop
  endfacet
  facet normal -0.891001 0.454002 0
    outer loop
      vertex 33.8203 3.67748 8
      vertex 34.1399 4.30471 20
      vertex 34.1399 4.30471 8
    endloop
  endfacet
  facet normal -0.891001 0.454002 0
    outer loop
      vertex 34.1399 4.30471 20
      vertex 33.8203 3.67748 8
      vertex 33.8203 3.67748 20
    endloop
  endfacet
  facet normal -0.454008 0.890998 0
    outer loop
      vertex 33.3225 3.17971 8
      vertex 32.6953 2.86012 20
      vertex 33.3225 3.17971 20
    endloop
  endfacet
  facet normal -0.454008 0.890998 0
    outer loop
      vertex 32.6953 2.86012 20
      vertex 33.3225 3.17971 8
      vertex 32.6953 2.86012 8
    endloop
  endfacet
  facet normal 0.707085 -0.707128 0
    outer loop
      vertex 30.1797 6.32252 8
      vertex 30.6775 6.82029 20
      vertex 30.1797 6.32252 20
    endloop
  endfacet
  facet normal 0.707085 -0.707128 0
    outer loop
      vertex 30.6775 6.82029 20
      vertex 30.1797 6.32252 8
      vertex 30.6775 6.82029 8
    endloop
  endfacet
  facet normal -0.707085 0.707128 0
    outer loop
      vertex 33.8203 3.67748 8
      vertex 33.3225 3.17971 20
      vertex 33.8203 3.67748 20
    endloop
  endfacet
  facet normal -0.707085 0.707128 0
    outer loop
      vertex 33.3225 3.17971 20
      vertex 33.8203 3.67748 8
      vertex 33.3225 3.17971 8
    endloop
  endfacet
  facet normal -0.156428 0.987689 0
    outer loop
      vertex 32.6953 2.86012 8
      vertex 32 2.75 20
      vertex 32.6953 2.86012 20
    endloop
  endfacet
  facet normal -0.156428 0.987689 0
    outer loop
      vertex 32 2.75 20
      vertex 32.6953 2.86012 8
      vertex 32 2.75 8
    endloop
  endfacet
  facet normal 0.156428 0.987689 -0
    outer loop
      vertex 32 2.75 8
      vertex 31.3047 2.86012 20
      vertex 32 2.75 20
    endloop
  endfacet
  facet normal 0.156428 0.987689 0
    outer loop
      vertex 31.3047 2.86012 20
      vertex 32 2.75 8
      vertex 31.3047 2.86012 8
    endloop
  endfacet
  facet normal 0.454008 0.890998 -0
    outer loop
      vertex 31.3047 2.86012 8
      vertex 30.6775 3.17971 20
      vertex 31.3047 2.86012 20
    endloop
  endfacet
  facet normal 0.454008 0.890998 0
    outer loop
      vertex 30.6775 3.17971 20
      vertex 31.3047 2.86012 8
      vertex 30.6775 3.17971 8
    endloop
  endfacet
  facet normal -0.987693 0.156402 0
    outer loop
      vertex 34.1399 4.30471 8
      vertex 34.25 5 20
      vertex 34.25 5 8
    endloop
  endfacet
  facet normal -0.987693 0.156402 0
    outer loop
      vertex 34.25 5 20
      vertex 34.1399 4.30471 8
      vertex 34.1399 4.30471 20
    endloop
  endfacet
  facet normal 0.156428 -0.987689 0
    outer loop
      vertex 31.3047 7.13988 8
      vertex 32 7.25 20
      vertex 31.3047 7.13988 20
    endloop
  endfacet
  facet normal 0.156428 -0.987689 0
    outer loop
      vertex 32 7.25 20
      vertex 31.3047 7.13988 8
      vertex 32 7.25 8
    endloop
  endfacet
  facet normal 0.987693 -0.156402 0
    outer loop
      vertex 29.75 5 20
      vertex 29.8601 5.69529 8
      vertex 29.8601 5.69529 20
    endloop
  endfacet
  facet normal 0.987693 -0.156402 0
    outer loop
      vertex 29.8601 5.69529 8
      vertex 29.75 5 20
      vertex 29.75 5 8
    endloop
  endfacet
  facet normal 0.707085 0.707128 -0
    outer loop
      vertex 30.6775 3.17971 8
      vertex 30.1797 3.67748 20
      vertex 30.6775 3.17971 20
    endloop
  endfacet
  facet normal 0.707085 0.707128 0
    outer loop
      vertex 30.1797 3.67748 20
      vertex 30.6775 3.17971 8
      vertex 30.1797 3.67748 8
    endloop
  endfacet
  facet normal 0.454008 -0.890998 0
    outer loop
      vertex 30.6775 6.82029 8
      vertex 31.3047 7.13988 20
      vertex 30.6775 6.82029 20
    endloop
  endfacet
  facet normal 0.454008 -0.890998 0
    outer loop
      vertex 31.3047 7.13988 20
      vertex 30.6775 6.82029 8
      vertex 31.3047 7.13988 8
    endloop
  endfacet
  facet normal 0.987693 0.156402 0
    outer loop
      vertex 29.8601 4.30471 20
      vertex 29.75 5 8
      vertex 29.75 5 20
    endloop
  endfacet
  facet normal 0.987693 0.156402 0
    outer loop
      vertex 29.75 5 8
      vertex 29.8601 4.30471 20
      vertex 29.8601 4.30471 8
    endloop
  endfacet
  facet normal -0.454008 -0.890998 0
    outer loop
      vertex 32.6953 7.13988 8
      vertex 33.3225 6.82029 20
      vertex 32.6953 7.13988 20
    endloop
  endfacet
  facet normal -0.454008 -0.890998 -0
    outer loop
      vertex 33.3225 6.82029 20
      vertex 32.6953 7.13988 8
      vertex 33.3225 6.82029 8
    endloop
  endfacet
  facet normal 0.891001 0.454002 0
    outer loop
      vertex 30.1797 3.67748 20
      vertex 29.8601 4.30471 8
      vertex 29.8601 4.30471 20
    endloop
  endfacet
  facet normal 0.891001 0.454002 0
    outer loop
      vertex 29.8601 4.30471 8
      vertex 30.1797 3.67748 20
      vertex 30.1797 3.67748 8
    endloop
  endfacet
  facet normal 0.891001 -0.454002 0
    outer loop
      vertex 29.8601 5.69529 20
      vertex 30.1797 6.32252 8
      vertex 30.1797 6.32252 20
    endloop
  endfacet
  facet normal 0.891001 -0.454002 0
    outer loop
      vertex 30.1797 6.32252 8
      vertex 29.8601 5.69529 20
      vertex 29.8601 5.69529 8
    endloop
  endfacet
  facet normal -0.1564 -0.987694 0
    outer loop
      vertex 32 17.25 8
      vertex 32.6953 17.1399 20
      vertex 32 17.25 20
    endloop
  endfacet
  facet normal -0.1564 -0.987694 -0
    outer loop
      vertex 32.6953 17.1399 20
      vertex 32 17.25 8
      vertex 32.6953 17.1399 8
    endloop
  endfacet
  facet normal -0.890992 -0.454019 0
    outer loop
      vertex 34.1399 15.6953 8
      vertex 33.8203 16.3225 20
      vertex 33.8203 16.3225 8
    endloop
  endfacet
  facet normal -0.890992 -0.454019 0
    outer loop
      vertex 33.8203 16.3225 20
      vertex 34.1399 15.6953 8
      vertex 34.1399 15.6953 20
    endloop
  endfacet
  facet normal -0.987694 -0.1564 0
    outer loop
      vertex 34.25 15 8
      vertex 34.1399 15.6953 20
      vertex 34.1399 15.6953 8
    endloop
  endfacet
  facet normal -0.987694 -0.1564 0
    outer loop
      vertex 34.1399 15.6953 20
      vertex 34.25 15 8
      vertex 34.25 15 20
    endloop
  endfacet
  facet normal -0.707107 -0.707107 0
    outer loop
      vertex 33.3225 16.8203 8
      vertex 33.8203 16.3225 20
      vertex 33.3225 16.8203 20
    endloop
  endfacet
  facet normal -0.707107 -0.707107 -0
    outer loop
      vertex 33.8203 16.3225 20
      vertex 33.3225 16.8203 8
      vertex 33.8203 16.3225 8
    endloop
  endfacet
  facet normal -0.890992 0.454019 0
    outer loop
      vertex 33.8203 13.6775 8
      vertex 34.1399 14.3047 20
      vertex 34.1399 14.3047 8
    endloop
  endfacet
  facet normal -0.890992 0.454019 0
    outer loop
      vertex 34.1399 14.3047 20
      vertex 33.8203 13.6775 8
      vertex 33.8203 13.6775 20
    endloop
  endfacet
  facet normal -0.454019 0.890992 0
    outer loop
      vertex 33.3225 13.1797 8
      vertex 32.6953 12.8601 20
      vertex 33.3225 13.1797 20
    endloop
  endfacet
  facet normal -0.454019 0.890992 0
    outer loop
      vertex 32.6953 12.8601 20
      vertex 33.3225 13.1797 8
      vertex 32.6953 12.8601 8
    endloop
  endfacet
  facet normal 0.707107 -0.707107 0
    outer loop
      vertex 30.1797 16.3225 8
      vertex 30.6775 16.8203 20
      vertex 30.1797 16.3225 20
    endloop
  endfacet
  facet normal 0.707107 -0.707107 0
    outer loop
      vertex 30.6775 16.8203 20
      vertex 30.1797 16.3225 8
      vertex 30.6775 16.8203 8
    endloop
  endfacet
  facet normal -0.707107 0.707107 0
    outer loop
      vertex 33.8203 13.6775 8
      vertex 33.3225 13.1797 20
      vertex 33.8203 13.6775 20
    endloop
  endfacet
  facet normal -0.707107 0.707107 0
    outer loop
      vertex 33.3225 13.1797 20
      vertex 33.8203 13.6775 8
      vertex 33.3225 13.1797 8
    endloop
  endfacet
  facet normal -0.1564 0.987694 0
    outer loop
      vertex 32.6953 12.8601 8
      vertex 32 12.75 20
      vertex 32.6953 12.8601 20
    endloop
  endfacet
  facet normal -0.1564 0.987694 0
    outer loop
      vertex 32 12.75 20
      vertex 32.6953 12.8601 8
      vertex 32 12.75 8
    endloop
  endfacet
  facet normal 0.1564 0.987694 -0
    outer loop
      vertex 32 12.75 8
      vertex 31.3047 12.8601 20
      vertex 32 12.75 20
    endloop
  endfacet
  facet normal 0.1564 0.987694 0
    outer loop
      vertex 31.3047 12.8601 20
      vertex 32 12.75 8
      vertex 31.3047 12.8601 8
    endloop
  endfacet
  facet normal 0.454019 0.890992 -0
    outer loop
      vertex 31.3047 12.8601 8
      vertex 30.6775 13.1797 20
      vertex 31.3047 12.8601 20
    endloop
  endfacet
  facet normal 0.454019 0.890992 0
    outer loop
      vertex 30.6775 13.1797 20
      vertex 31.3047 12.8601 8
      vertex 30.6775 13.1797 8
    endloop
  endfacet
  facet normal -0.987694 0.1564 0
    outer loop
      vertex 34.1399 14.3047 8
      vertex 34.25 15 20
      vertex 34.25 15 8
    endloop
  endfacet
  facet normal -0.987694 0.1564 0
    outer loop
      vertex 34.25 15 20
      vertex 34.1399 14.3047 8
      vertex 34.1399 14.3047 20
    endloop
  endfacet
  facet normal 0.1564 -0.987694 0
    outer loop
      vertex 31.3047 17.1399 8
      vertex 32 17.25 20
      vertex 31.3047 17.1399 20
    endloop
  endfacet
  facet normal 0.1564 -0.987694 0
    outer loop
      vertex 32 17.25 20
      vertex 31.3047 17.1399 8
      vertex 32 17.25 8
    endloop
  endfacet
  facet normal 0.987694 -0.1564 0
    outer loop
      vertex 29.75 15 20
      vertex 29.8601 15.6953 8
      vertex 29.8601 15.6953 20
    endloop
  endfacet
  facet normal 0.987694 -0.1564 0
    outer loop
      vertex 29.8601 15.6953 8
      vertex 29.75 15 20
      vertex 29.75 15 8
    endloop
  endfacet
  facet normal 0.707107 0.707107 -0
    outer loop
      vertex 30.6775 13.1797 8
      vertex 30.1797 13.6775 20
      vertex 30.6775 13.1797 20
    endloop
  endfacet
  facet normal 0.707107 0.707107 0
    outer loop
      vertex 30.1797 13.6775 20
      vertex 30.6775 13.1797 8
      vertex 30.1797 13.6775 8
    endloop
  endfacet
  facet normal 0.454019 -0.890992 0
    outer loop
      vertex 30.6775 16.8203 8
      vertex 31.3047 17.1399 20
      vertex 30.6775 16.8203 20
    endloop
  endfacet
  facet normal 0.454019 -0.890992 0
    outer loop
      vertex 31.3047 17.1399 20
      vertex 30.6775 16.8203 8
      vertex 31.3047 17.1399 8
    endloop
  endfacet
  facet normal 0.987694 0.1564 0
    outer loop
      vertex 29.8601 14.3047 20
      vertex 29.75 15 8
      vertex 29.75 15 20
    endloop
  endfacet
  facet normal 0.987694 0.1564 0
    outer loop
      vertex 29.75 15 8
      vertex 29.8601 14.3047 20
      vertex 29.8601 14.3047 8
    endloop
  endfacet
  facet normal -0.454019 -0.890992 0
    outer loop
      vertex 32.6953 17.1399 8
      vertex 33.3225 16.8203 20
      vertex 32.6953 17.1399 20
    endloop
  endfacet
  facet normal -0.454019 -0.890992 -0
    outer loop
      vertex 33.3225 16.8203 20
      vertex 32.6953 17.1399 8
      vertex 33.3225 16.8203 8
    endloop
  endfacet
  facet normal 0.890992 0.454019 0
    outer loop
      vertex 30.1797 13.6775 20
      vertex 29.8601 14.3047 8
      vertex 29.8601 14.3047 20
    endloop
  endfacet
  facet normal 0.890992 0.454019 0
    outer loop
      vertex 29.8601 14.3047 8
      vertex 30.1797 13.6775 20
      vertex 30.1797 13.6775 8
    endloop
  endfacet
  facet normal 0.890992 -0.454019 0
    outer loop
      vertex 29.8601 15.6953 20
      vertex 30.1797 16.3225 8
      vertex 30.1797 16.3225 20
    endloop
  endfacet
  facet normal 0.890992 -0.454019 0
    outer loop
      vertex 30.1797 16.3225 8
      vertex 29.8601 15.6953 20
      vertex 29.8601 15.6953 8
    endloop
  endfacet
  facet normal -0.587777 -0.809023 0
    outer loop
      vertex 25.1 -8.49667 8
      vertex 25.9795 -9.13565 19
      vertex 25.1 -8.49667 19
    endloop
  endfacet
  facet normal -0.587777 -0.809023 -0
    outer loop
      vertex 25.9795 -9.13565 19
      vertex 25.1 -8.49667 8
      vertex 25.9795 -9.13565 8
    endloop
  endfacet
  facet normal 0.587729 0.809058 -0
    outer loop
      vertex 19.9 -17.5033 8
      vertex 19.0205 -16.8644 19
      vertex 19.9 -17.5033 19
    endloop
  endfacet
  facet normal 0.587729 0.809058 0
    outer loop
      vertex 19.0205 -16.8644 19
      vertex 19.9 -17.5033 8
      vertex 19.0205 -16.8644 8
    endloop
  endfacet
  facet normal -0.406739 -0.913544 0
    outer loop
      vertex 24.1069 -8.05451 8
      vertex 25.1 -8.49667 19
      vertex 24.1069 -8.05451 19
    endloop
  endfacet
  facet normal -0.406739 -0.913544 -0
    outer loop
      vertex 25.1 -8.49667 19
      vertex 24.1069 -8.05451 8
      vertex 25.1 -8.49667 8
    endloop
  endfacet
  facet normal -0.994525 0.104503 0
    outer loop
      vertex 27.5864 -14.0811 8
      vertex 27.7 -13 19
      vertex 27.7 -13 8
    endloop
  endfacet
  facet normal -0.994525 0.104503 0
    outer loop
      vertex 27.7 -13 19
      vertex 27.5864 -14.0811 8
      vertex 27.5864 -14.0811 19
    endloop
  endfacet
  facet normal -0.587729 0.809058 0
    outer loop
      vertex 25.9795 -16.8644 8
      vertex 25.1 -17.5033 19
      vertex 25.9795 -16.8644 19
    endloop
  endfacet
  facet normal -0.587729 0.809058 0
    outer loop
      vertex 25.1 -17.5033 19
      vertex 25.9795 -16.8644 8
      vertex 25.1 -17.5033 8
    endloop
  endfacet
  facet normal -0.743161 0.669112 0
    outer loop
      vertex 25.9795 -16.8644 8
      vertex 26.7069 -16.0565 19
      vertex 26.7069 -16.0565 8
    endloop
  endfacet
  facet normal -0.743161 0.669112 0
    outer loop
      vertex 26.7069 -16.0565 19
      vertex 25.9795 -16.8644 8
      vertex 25.9795 -16.8644 19
    endloop
  endfacet
  facet normal -0.866051 -0.499956 0
    outer loop
      vertex 27.2504 -10.885 8
      vertex 26.7069 -9.94352 19
      vertex 26.7069 -9.94352 8
    endloop
  endfacet
  facet normal -0.866051 -0.499956 0
    outer loop
      vertex 26.7069 -9.94352 19
      vertex 27.2504 -10.885 8
      vertex 27.2504 -10.885 19
    endloop
  endfacet
  facet normal 0.743149 -0.669126 0
    outer loop
      vertex 18.2931 -9.94352 19
      vertex 19.0205 -9.13565 8
      vertex 19.0205 -9.13565 19
    endloop
  endfacet
  facet normal 0.743149 -0.669126 0
    outer loop
      vertex 19.0205 -9.13565 8
      vertex 18.2931 -9.94352 19
      vertex 18.2931 -9.94352 8
    endloop
  endfacet
  facet normal -0.743149 -0.669126 0
    outer loop
      vertex 26.7069 -9.94352 8
      vertex 25.9795 -9.13565 19
      vertex 25.9795 -9.13565 8
    endloop
  endfacet
  facet normal -0.743149 -0.669126 0
    outer loop
      vertex 25.9795 -9.13565 19
      vertex 26.7069 -9.94352 8
      vertex 26.7069 -9.94352 19
    endloop
  endfacet
  facet normal -0.994525 -0.104503 0
    outer loop
      vertex 27.7 -13 8
      vertex 27.5864 -11.9189 19
      vertex 27.5864 -11.9189 8
    endloop
  endfacet
  facet normal -0.994525 -0.104503 0
    outer loop
      vertex 27.5864 -11.9189 19
      vertex 27.7 -13 8
      vertex 27.7 -13 19
    endloop
  endfacet
  facet normal 0.743161 0.669112 0
    outer loop
      vertex 19.0205 -16.8644 19
      vertex 18.2931 -16.0565 8
      vertex 18.2931 -16.0565 19
    endloop
  endfacet
  facet normal 0.743161 0.669112 0
    outer loop
      vertex 18.2931 -16.0565 8
      vertex 19.0205 -16.8644 19
      vertex 19.0205 -16.8644 8
    endloop
  endfacet
  facet normal 0.951039 -0.309072 0
    outer loop
      vertex 17.4136 -11.9189 19
      vertex 17.7496 -10.885 8
      vertex 17.7496 -10.885 19
    endloop
  endfacet
  facet normal 0.951039 -0.309072 0
    outer loop
      vertex 17.7496 -10.885 8
      vertex 17.4136 -11.9189 19
      vertex 17.4136 -11.9189 8
    endloop
  endfacet
  facet normal 0.207901 -0.97815 0
    outer loop
      vertex 20.8931 -8.05451 8
      vertex 21.9565 -7.82849 19
      vertex 20.8931 -8.05451 19
    endloop
  endfacet
  facet normal 0.207901 -0.97815 0
    outer loop
      vertex 21.9565 -7.82849 19
      vertex 20.8931 -8.05451 8
      vertex 21.9565 -7.82849 8
    endloop
  endfacet
  facet normal -0.951039 -0.309072 0
    outer loop
      vertex 27.5864 -11.9189 8
      vertex 27.2504 -10.885 19
      vertex 27.2504 -10.885 8
    endloop
  endfacet
  facet normal -0.951039 -0.309072 0
    outer loop
      vertex 27.2504 -10.885 19
      vertex 27.5864 -11.9189 8
      vertex 27.5864 -11.9189 19
    endloop
  endfacet
  facet normal -0.207883 0.978154 0
    outer loop
      vertex 24.1069 -17.9455 8
      vertex 23.0435 -18.1715 19
      vertex 24.1069 -17.9455 19
    endloop
  endfacet
  facet normal -0.207883 0.978154 0
    outer loop
      vertex 23.0435 -18.1715 19
      vertex 24.1069 -17.9455 8
      vertex 23.0435 -18.1715 8
    endloop
  endfacet
  facet normal -0.951039 0.309072 0
    outer loop
      vertex 27.2504 -15.115 8
      vertex 27.5864 -14.0811 19
      vertex 27.5864 -14.0811 8
    endloop
  endfacet
  facet normal -0.951039 0.309072 0
    outer loop
      vertex 27.5864 -14.0811 19
      vertex 27.2504 -15.115 8
      vertex 27.2504 -15.115 19
    endloop
  endfacet
  facet normal -0.40677 0.913531 0
    outer loop
      vertex 25.1 -17.5033 8
      vertex 24.1069 -17.9455 19
      vertex 25.1 -17.5033 19
    endloop
  endfacet
  facet normal -0.40677 0.913531 0
    outer loop
      vertex 24.1069 -17.9455 19
      vertex 25.1 -17.5033 8
      vertex 24.1069 -17.9455 8
    endloop
  endfacet
  facet normal 0.866055 0.499948 0
    outer loop
      vertex 18.2931 -16.0565 19
      vertex 17.7496 -15.115 8
      vertex 17.7496 -15.115 19
    endloop
  endfacet
  facet normal 0.866055 0.499948 0
    outer loop
      vertex 17.7496 -15.115 8
      vertex 18.2931 -16.0565 19
      vertex 18.2931 -16.0565 8
    endloop
  endfacet
  facet normal 0.406739 -0.913544 0
    outer loop
      vertex 19.9 -8.49667 8
      vertex 20.8931 -8.05451 19
      vertex 19.9 -8.49667 19
    endloop
  endfacet
  facet normal 0.406739 -0.913544 0
    outer loop
      vertex 20.8931 -8.05451 19
      vertex 19.9 -8.49667 8
      vertex 20.8931 -8.05451 8
    endloop
  endfacet
  facet normal 0.994525 -0.104503 0
    outer loop
      vertex 17.3 -13 19
      vertex 17.4136 -11.9189 8
      vertex 17.4136 -11.9189 19
    endloop
  endfacet
  facet normal 0.994525 -0.104503 0
    outer loop
      vertex 17.4136 -11.9189 8
      vertex 17.3 -13 19
      vertex 17.3 -13 8
    endloop
  endfacet
  facet normal 0.866051 -0.499956 0
    outer loop
      vertex 17.7496 -10.885 19
      vertex 18.2931 -9.94352 8
      vertex 18.2931 -9.94352 19
    endloop
  endfacet
  facet normal 0.866051 -0.499956 0
    outer loop
      vertex 18.2931 -9.94352 8
      vertex 17.7496 -10.885 19
      vertex 17.7496 -10.885 8
    endloop
  endfacet
  facet normal -0.866055 0.499948 0
    outer loop
      vertex 26.7069 -16.0565 8
      vertex 27.2504 -15.115 19
      vertex 27.2504 -15.115 8
    endloop
  endfacet
  facet normal -0.866055 0.499948 0
    outer loop
      vertex 27.2504 -15.115 19
      vertex 26.7069 -16.0565 8
      vertex 26.7069 -16.0565 19
    endloop
  endfacet
  facet normal 0.40677 0.913531 -0
    outer loop
      vertex 20.8931 -17.9455 8
      vertex 19.9 -17.5033 19
      vertex 20.8931 -17.9455 19
    endloop
  endfacet
  facet normal 0.40677 0.913531 0
    outer loop
      vertex 19.9 -17.5033 19
      vertex 20.8931 -17.9455 8
      vertex 19.9 -17.5033 8
    endloop
  endfacet
  facet normal 0 -1 0
    outer loop
      vertex 21.9565 -7.82849 8
      vertex 23.0435 -7.82849 19
      vertex 21.9565 -7.82849 19
    endloop
  endfacet
  facet normal 0 -1 -0
    outer loop
      vertex 23.0435 -7.82849 19
      vertex 21.9565 -7.82849 8
      vertex 23.0435 -7.82849 8
    endloop
  endfacet
  facet normal 0 1 -0
    outer loop
      vertex 23.0435 -18.1715 8
      vertex 21.9565 -18.1715 19
      vertex 23.0435 -18.1715 19
    endloop
  endfacet
  facet normal 0 1 0
    outer loop
      vertex 21.9565 -18.1715 19
      vertex 23.0435 -18.1715 8
      vertex 21.9565 -18.1715 8
    endloop
  endfacet
  facet normal -0.207901 -0.97815 0
    outer loop
      vertex 23.0435 -7.82849 8
      vertex 24.1069 -8.05451 19
      vertex 23.0435 -7.82849 19
    endloop
  endfacet
  facet normal -0.207901 -0.97815 -0
    outer loop
      vertex 24.1069 -8.05451 19
      vertex 23.0435 -7.82849 8
      vertex 24.1069 -8.05451 8
    endloop
  endfacet
  facet normal 0.951039 0.309072 0
    outer loop
      vertex 17.7496 -15.115 19
      vertex 17.4136 -14.0811 8
      vertex 17.4136 -14.0811 19
    endloop
  endfacet
  facet normal 0.951039 0.309072 0
    outer loop
      vertex 17.4136 -14.0811 8
      vertex 17.7496 -15.115 19
      vertex 17.7496 -15.115 8
    endloop
  endfacet
  facet normal 0.587777 -0.809023 0
    outer loop
      vertex 19.0205 -9.13565 8
      vertex 19.9 -8.49667 19
      vertex 19.0205 -9.13565 19
    endloop
  endfacet
  facet normal 0.587777 -0.809023 0
    outer loop
      vertex 19.9 -8.49667 19
      vertex 19.0205 -9.13565 8
      vertex 19.9 -8.49667 8
    endloop
  endfacet
  facet normal 0.994525 0.104503 0
    outer loop
      vertex 17.4136 -14.0811 19
      vertex 17.3 -13 8
      vertex 17.3 -13 19
    endloop
  endfacet
  facet normal 0.994525 0.104503 0
    outer loop
      vertex 17.3 -13 8
      vertex 17.4136 -14.0811 19
      vertex 17.4136 -14.0811 8
    endloop
  endfacet
  facet normal 0.207883 0.978154 -0
    outer loop
      vertex 21.9565 -18.1715 8
      vertex 20.8931 -17.9455 19
      vertex 21.9565 -18.1715 19
    endloop
  endfacet
  facet normal 0.207883 0.978154 0
    outer loop
      vertex 20.8931 -17.9455 19
      vertex 21.9565 -18.1715 8
      vertex 20.8931 -17.9455 8
    endloop
  endfacet
  facet normal 0 0 -1
    outer loop
      vertex 27.5864 -14.0811 19
      vertex 27.5864 -11.9189 19
      vertex 27.7 -13 19
    endloop
  endfacet
  facet normal 0 0 -1
    outer loop
      vertex 27.2504 -15.115 19
      vertex 27.5864 -11.9189 19
      vertex 27.5864 -14.0811 19
    endloop
  endfacet
  facet normal 0 0 -1
    outer loop
      vertex 27.2504 -15.115 19
      vertex 27.2504 -10.885 19
      vertex 27.5864 -11.9189 19
    endloop
  endfacet
  facet normal 0 0 -1
    outer loop
      vertex 26.7069 -16.0565 19
      vertex 27.2504 -10.885 19
      vertex 27.2504 -15.115 19
    endloop
  endfacet
  facet normal 0 0 -1
    outer loop
      vertex 26.7069 -16.0565 19
      vertex 26.7069 -9.94352 19
      vertex 27.2504 -10.885 19
    endloop
  endfacet
  facet normal 0 0 -1
    outer loop
      vertex 25.9795 -16.8644 19
      vertex 26.7069 -9.94352 19
      vertex 26.7069 -16.0565 19
    endloop
  endfacet
  facet normal 0 0 -1
    outer loop
      vertex 25.9795 -16.8644 19
      vertex 25.9795 -9.13565 19
      vertex 26.7069 -9.94352 19
    endloop
  endfacet
  facet normal 0 0 -1
    outer loop
      vertex 25.1 -17.5033 19
      vertex 25.9795 -9.13565 19
      vertex 25.9795 -16.8644 19
    endloop
  endfacet
  facet normal 0 0 -1
    outer loop
      vertex 25.1 -17.5033 19
      vertex 25.1 -8.49667 19
      vertex 25.9795 -9.13565 19
    endloop
  endfacet
  facet normal 0 0 -1
    outer loop
      vertex 24.1069 -17.9455 19
      vertex 25.1 -8.49667 19
      vertex 25.1 -17.5033 19
    endloop
  endfacet
  facet normal 0 0 -1
    outer loop
      vertex 24.1069 -17.9455 19
      vertex 24.1069 -8.05451 19
      vertex 25.1 -8.49667 19
    endloop
  endfacet
  facet normal 0 0 -1
    outer loop
      vertex 23.0435 -18.1715 19
      vertex 24.1069 -8.05451 19
      vertex 24.1069 -17.9455 19
    endloop
  endfacet
  facet normal 0 0 -1
    outer loop
      vertex 23.0435 -18.1715 19
      vertex 23.0435 -7.82849 19
      vertex 24.1069 -8.05451 19
    endloop
  endfacet
  facet normal 0 0 -1
    outer loop
      vertex 21.9565 -18.1715 19
      vertex 23.0435 -7.82849 19
      vertex 23.0435 -18.1715 19
    endloop
  endfacet
  facet normal 0 0 -1
    outer loop
      vertex 21.9565 -18.1715 19
      vertex 21.9565 -7.82849 19
      vertex 23.0435 -7.82849 19
    endloop
  endfacet
  facet normal 0 0 -1
    outer loop
      vertex 20.8931 -17.9455 19
      vertex 21.9565 -7.82849 19
      vertex 21.9565 -18.1715 19
    endloop
  endfacet
  facet normal 0 0 -1
    outer loop
      vertex 20.8931 -17.9455 19
      vertex 20.8931 -8.05451 19
      vertex 21.9565 -7.82849 19
    endloop
  endfacet
  facet normal 0 0 -1
    outer loop
      vertex 19.9 -17.5033 19
      vertex 20.8931 -8.05451 19
      vertex 20.8931 -17.9455 19
    endloop
  endfacet
  facet normal 0 0 -1
    outer loop
      vertex 19.9 -17.5033 19
      vertex 19.9 -8.49667 19
      vertex 20.8931 -8.05451 19
    endloop
  endfacet
  facet normal 0 0 -1
    outer loop
      vertex 19.0205 -16.8644 19
      vertex 19.9 -8.49667 19
      vertex 19.9 -17.5033 19
    endloop
  endfacet
  facet normal 0 0 -1
    outer loop
      vertex 19.0205 -16.8644 19
      vertex 19.0205 -9.13565 19
      vertex 19.9 -8.49667 19
    endloop
  endfacet
  facet normal 0 0 -1
    outer loop
      vertex 18.2931 -16.0565 19
      vertex 19.0205 -9.13565 19
      vertex 19.0205 -16.8644 19
    endloop
  endfacet
  facet normal 0 0 -1
    outer loop
      vertex 18.2931 -16.0565 19
      vertex 18.2931 -9.94352 19
      vertex 19.0205 -9.13565 19
    endloop
  endfacet
  facet normal 0 0 -1
    outer loop
      vertex 17.7496 -15.115 19
      vertex 18.2931 -9.94352 19
      vertex 18.2931 -16.0565 19
    endloop
  endfacet
  facet normal 0 0 -1
    outer loop
      vertex 17.7496 -15.115 19
      vertex 17.7496 -10.885 19
      vertex 18.2931 -9.94352 19
    endloop
  endfacet
  facet normal 0 0 -1
    outer loop
      vertex 17.4136 -14.0811 19
      vertex 17.7496 -10.885 19
      vertex 17.7496 -15.115 19
    endloop
  endfacet
  facet normal 0 0 -1
    outer loop
      vertex 17.4136 -14.0811 19
      vertex 17.4136 -11.9189 19
      vertex 17.7496 -10.885 19
    endloop
  endfacet
  facet normal 0 -0 -1
    outer loop
      vertex 17.4136 -11.9189 19
      vertex 17.4136 -14.0811 19
      vertex 17.3 -13 19
    endloop
  endfacet
  facet normal -0.587777 -0.809023 0
    outer loop
      vertex 41.1 -8.49667 8
      vertex 41.9795 -9.13565 19
      vertex 41.1 -8.49667 19
    endloop
  endfacet
  facet normal -0.587777 -0.809023 -0
    outer loop
      vertex 41.9795 -9.13565 19
      vertex 41.1 -8.49667 8
      vertex 41.9795 -9.13565 8
    endloop
  endfacet
  facet normal 0.587729 0.809058 -0
    outer loop
      vertex 35.9 -17.5033 8
      vertex 35.0205 -16.8644 19
      vertex 35.9 -17.5033 19
    endloop
  endfacet
  facet normal 0.587729 0.809058 0
    outer loop
      vertex 35.0205 -16.8644 19
      vertex 35.9 -17.5033 8
      vertex 35.0205 -16.8644 8
    endloop
  endfacet
  facet normal -0.406739 -0.913544 0
    outer loop
      vertex 40.1069 -8.05451 8
      vertex 41.1 -8.49667 19
      vertex 40.1069 -8.05451 19
    endloop
  endfacet
  facet normal -0.406739 -0.913544 -0
    outer loop
      vertex 41.1 -8.49667 19
      vertex 40.1069 -8.05451 8
      vertex 41.1 -8.49667 8
    endloop
  endfacet
  facet normal -0.994525 0.104503 0
    outer loop
      vertex 43.5864 -14.0811 8
      vertex 43.7 -13 19
      vertex 43.7 -13 8
    endloop
  endfacet
  facet normal -0.994525 0.104503 0
    outer loop
      vertex 43.7 -13 19
      vertex 43.5864 -14.0811 8
      vertex 43.5864 -14.0811 19
    endloop
  endfacet
  facet normal -0.587729 0.809058 0
    outer loop
      vertex 41.9795 -16.8644 8
      vertex 41.1 -17.5033 19
      vertex 41.9795 -16.8644 19
    endloop
  endfacet
  facet normal -0.587729 0.809058 0
    outer loop
      vertex 41.1 -17.5033 19
      vertex 41.9795 -16.8644 8
      vertex 41.1 -17.5033 8
    endloop
  endfacet
  facet normal -0.743161 0.669112 0
    outer loop
      vertex 41.9795 -16.8644 8
      vertex 42.7069 -16.0565 19
      vertex 42.7069 -16.0565 8
    endloop
  endfacet
  facet normal -0.743161 0.669112 0
    outer loop
      vertex 42.7069 -16.0565 19
      vertex 41.9795 -16.8644 8
      vertex 41.9795 -16.8644 19
    endloop
  endfacet
  facet normal -0.866051 -0.499956 0
    outer loop
      vertex 43.2504 -10.885 8
      vertex 42.7069 -9.94352 19
      vertex 42.7069 -9.94352 8
    endloop
  endfacet
  facet normal -0.866051 -0.499956 0
    outer loop
      vertex 42.7069 -9.94352 19
      vertex 43.2504 -10.885 8
      vertex 43.2504 -10.885 19
    endloop
  endfacet
  facet normal 0.743149 -0.669126 0
    outer loop
      vertex 34.2931 -9.94352 19
      vertex 35.0205 -9.13565 8
      vertex 35.0205 -9.13565 19
    endloop
  endfacet
  facet normal 0.743149 -0.669126 0
    outer loop
      vertex 35.0205 -9.13565 8
      vertex 34.2931 -9.94352 19
      vertex 34.2931 -9.94352 8
    endloop
  endfacet
  facet normal -0.743149 -0.669126 0
    outer loop
      vertex 42.7069 -9.94352 8
      vertex 41.9795 -9.13565 19
      vertex 41.9795 -9.13565 8
    endloop
  endfacet
  facet normal -0.743149 -0.669126 0
    outer loop
      vertex 41.9795 -9.13565 19
      vertex 42.7069 -9.94352 8
      vertex 42.7069 -9.94352 19
    endloop
  endfacet
  facet normal -0.994525 -0.104503 0
    outer loop
      vertex 43.7 -13 8
      vertex 43.5864 -11.9189 19
      vertex 43.5864 -11.9189 8
    endloop
  endfacet
  facet normal -0.994525 -0.104503 0
    outer loop
      vertex 43.5864 -11.9189 19
      vertex 43.7 -13 8
      vertex 43.7 -13 19
    endloop
  endfacet
  facet normal 0.743161 0.669112 0
    outer loop
      vertex 35.0205 -16.8644 19
      vertex 34.2931 -16.0565 8
      vertex 34.2931 -16.0565 19
    endloop
  endfacet
  facet normal 0.743161 0.669112 0
    outer loop
      vertex 34.2931 -16.0565 8
      vertex 35.0205 -16.8644 19
      vertex 35.0205 -16.8644 8
    endloop
  endfacet
  facet normal 0.951039 -0.309072 0
    outer loop
      vertex 33.4136 -11.9189 19
      vertex 33.7496 -10.885 8
      vertex 33.7496 -10.885 19
    endloop
  endfacet
  facet normal 0.951039 -0.309072 0
    outer loop
      vertex 33.7496 -10.885 8
      vertex 33.4136 -11.9189 19
      vertex 33.4136 -11.9189 8
    endloop
  endfacet
  facet normal 0.207901 -0.97815 0
    outer loop
      vertex 36.8931 -8.05451 8
      vertex 37.9565 -7.82849 19
      vertex 36.8931 -8.05451 19
    endloop
  endfacet
  facet normal 0.207901 -0.97815 0
    outer loop
      vertex 37.9565 -7.82849 19
      vertex 36.8931 -8.05451 8
      vertex 37.9565 -7.82849 8
    endloop
  endfacet
  facet normal -0.951039 -0.309072 0
    outer loop
      vertex 43.5864 -11.9189 8
      vertex 43.2504 -10.885 19
      vertex 43.2504 -10.885 8
    endloop
  endfacet
  facet normal -0.951039 -0.309072 0
    outer loop
      vertex 43.2504 -10.885 19
      vertex 43.5864 -11.9189 8
      vertex 43.5864 -11.9189 19
    endloop
  endfacet
  facet normal -0.207883 0.978154 0
    outer loop
      vertex 40.1069 -17.9455 8
      vertex 39.0435 -18.1715 19
      vertex 40.1069 -17.9455 19
    endloop
  endfacet
  facet normal -0.207883 0.978154 0
    outer loop
      vertex 39.0435 -18.1715 19
      vertex 40.1069 -17.9455 8
      vertex 39.0435 -18.1715 8
    endloop
  endfacet
  facet normal -0.951039 0.309072 0
    outer loop
      vertex 43.2504 -15.115 8
      vertex 43.5864 -14.0811 19
      vertex 43.5864 -14.0811 8
    endloop
  endfacet
  facet normal -0.951039 0.309072 0
    outer loop
      vertex 43.5864 -14.0811 19
      vertex 43.2504 -15.115 8
      vertex 43.2504 -15.115 19
    endloop
  endfacet
  facet normal -0.40677 0.913531 0
    outer loop
      vertex 41.1 -17.5033 8
      vertex 40.1069 -17.9455 19
      vertex 41.1 -17.5033 19
    endloop
  endfacet
  facet normal -0.40677 0.913531 0
    outer loop
      vertex 40.1069 -17.9455 19
      vertex 41.1 -17.5033 8
      vertex 40.1069 -17.9455 8
    endloop
  endfacet
  facet normal 0.866055 0.499948 0
    outer loop
      vertex 34.2931 -16.0565 19
      vertex 33.7496 -15.115 8
      vertex 33.7496 -15.115 19
    endloop
  endfacet
  facet normal 0.866055 0.499948 0
    outer loop
      vertex 33.7496 -15.115 8
      vertex 34.2931 -16.0565 19
      vertex 34.2931 -16.0565 8
    endloop
  endfacet
  facet normal 0.406739 -0.913544 0
    outer loop
      vertex 35.9 -8.49667 8
      vertex 36.8931 -8.05451 19
      vertex 35.9 -8.49667 19
    endloop
  endfacet
  facet normal 0.406739 -0.913544 0
    outer loop
      vertex 36.8931 -8.05451 19
      vertex 35.9 -8.49667 8
      vertex 36.8931 -8.05451 8
    endloop
  endfacet
  facet normal 0.994525 -0.104503 0
    outer loop
      vertex 33.3 -13 19
      vertex 33.4136 -11.9189 8
      vertex 33.4136 -11.9189 19
    endloop
  endfacet
  facet normal 0.994525 -0.104503 0
    outer loop
      vertex 33.4136 -11.9189 8
      vertex 33.3 -13 19
      vertex 33.3 -13 8
    endloop
  endfacet
  facet normal 0.866051 -0.499956 0
    outer loop
      vertex 33.7496 -10.885 19
      vertex 34.2931 -9.94352 8
      vertex 34.2931 -9.94352 19
    endloop
  endfacet
  facet normal 0.866051 -0.499956 0
    outer loop
      vertex 34.2931 -9.94352 8
      vertex 33.7496 -10.885 19
      vertex 33.7496 -10.885 8
    endloop
  endfacet
  facet normal -0.866055 0.499948 0
    outer loop
      vertex 42.7069 -16.0565 8
      vertex 43.2504 -15.115 19
      vertex 43.2504 -15.115 8
    endloop
  endfacet
  facet normal -0.866055 0.499948 0
    outer loop
      vertex 43.2504 -15.115 19
      vertex 42.7069 -16.0565 8
      vertex 42.7069 -16.0565 19
    endloop
  endfacet
  facet normal 0.40677 0.913531 -0
    outer loop
      vertex 36.8931 -17.9455 8
      vertex 35.9 -17.5033 19
      vertex 36.8931 -17.9455 19
    endloop
  endfacet
  facet normal 0.40677 0.913531 0
    outer loop
      vertex 35.9 -17.5033 19
      vertex 36.8931 -17.9455 8
      vertex 35.9 -17.5033 8
    endloop
  endfacet
  facet normal 0 1 -0
    outer loop
      vertex 39.0435 -18.1715 8
      vertex 37.9565 -18.1715 19
      vertex 39.0435 -18.1715 19
    endloop
  endfacet
  facet normal 0 1 0
    outer loop
      vertex 37.9565 -18.1715 19
      vertex 39.0435 -18.1715 8
      vertex 37.9565 -18.1715 8
    endloop
  endfacet
  facet normal -0.207901 -0.97815 0
    outer loop
      vertex 39.0435 -7.82849 8
      vertex 40.1069 -8.05451 19
      vertex 39.0435 -7.82849 19
    endloop
  endfacet
  facet normal -0.207901 -0.97815 -0
    outer loop
      vertex 40.1069 -8.05451 19
      vertex 39.0435 -7.82849 8
      vertex 40.1069 -8.05451 8
    endloop
  endfacet
  facet normal 0.951039 0.309072 0
    outer loop
      vertex 33.7496 -15.115 19
      vertex 33.4136 -14.0811 8
      vertex 33.4136 -14.0811 19
    endloop
  endfacet
  facet normal 0.951039 0.309072 0
    outer loop
      vertex 33.4136 -14.0811 8
      vertex 33.7496 -15.115 19
      vertex 33.7496 -15.115 8
    endloop
  endfacet
  facet normal 0.587777 -0.809023 0
    outer loop
      vertex 35.0205 -9.13565 8
      vertex 35.9 -8.49667 19
      vertex 35.0205 -9.13565 19
    endloop
  endfacet
  facet normal 0.587777 -0.809023 0
    outer loop
      vertex 35.9 -8.49667 19
      vertex 35.0205 -9.13565 8
      vertex 35.9 -8.49667 8
    endloop
  endfacet
  facet normal 0.994525 0.104503 0
    outer loop
      vertex 33.4136 -14.0811 19
      vertex 33.3 -13 8
      vertex 33.3 -13 19
    endloop
  endfacet
  facet normal 0.994525 0.104503 0
    outer loop
      vertex 33.3 -13 8
      vertex 33.4136 -14.0811 19
      vertex 33.4136 -14.0811 8
    endloop
  endfacet
  facet normal 0 -1 0
    outer loop
      vertex 37.9565 -7.82849 8
      vertex 39.0435 -7.82849 19
      vertex 37.9565 -7.82849 19
    endloop
  endfacet
  facet normal 0 -1 -0
    outer loop
      vertex 39.0435 -7.82849 19
      vertex 37.9565 -7.82849 8
      vertex 39.0435 -7.82849 8
    endloop
  endfacet
  facet normal 0.207883 0.978154 -0
    outer loop
      vertex 37.9565 -18.1715 8
      vertex 36.8931 -17.9455 19
      vertex 37.9565 -18.1715 19
    endloop
  endfacet
  facet normal 0.207883 0.978154 0
    outer loop
      vertex 36.8931 -17.9455 19
      vertex 37.9565 -18.1715 8
      vertex 36.8931 -17.9455 8
    endloop
  endfacet
  facet normal 0 0 -1
    outer loop
      vertex 43.5864 -14.0811 19
      vertex 43.5864 -11.9189 19
      vertex 43.7 -13 19
    endloop
  endfacet
  facet normal 0 0 -1
    outer loop
      vertex 43.2504 -15.115 19
      vertex 43.5864 -11.9189 19
      vertex 43.5864 -14.0811 19
    endloop
  endfacet
  facet normal 0 0 -1
    outer loop
      vertex 43.2504 -15.115 19
      vertex 43.2504 -10.885 19
      vertex 43.5864 -11.9189 19
    endloop
  endfacet
  facet normal 0 0 -1
    outer loop
      vertex 42.7069 -16.0565 19
      vertex 43.2504 -10.885 19
      vertex 43.2504 -15.115 19
    endloop
  endfacet
  facet normal 0 0 -1
    outer loop
      vertex 42.7069 -16.0565 19
      vertex 42.7069 -9.94352 19
      vertex 43.2504 -10.885 19
    endloop
  endfacet
  facet normal 0 0 -1
    outer loop
      vertex 41.9795 -16.8644 19
      vertex 42.7069 -9.94352 19
      vertex 42.7069 -16.0565 19
    endloop
  endfacet
  facet normal 0 0 -1
    outer loop
      vertex 41.9795 -16.8644 19
      vertex 41.9795 -9.13565 19
      vertex 42.7069 -9.94352 19
    endloop
  endfacet
  facet normal 0 0 -1
    outer loop
      vertex 41.1 -17.5033 19
      vertex 41.9795 -9.13565 19
      vertex 41.9795 -16.8644 19
    endloop
  endfacet
  facet normal 0 0 -1
    outer loop
      vertex 41.1 -17.5033 19
      vertex 41.1 -8.49667 19
      vertex 41.9795 -9.13565 19
    endloop
  endfacet
  facet normal 0 0 -1
    outer loop
      vertex 40.1069 -17.9455 19
      vertex 41.1 -8.49667 19
      vertex 41.1 -17.5033 19
    endloop
  endfacet
  facet normal 0 0 -1
    outer loop
      vertex 40.1069 -17.9455 19
      vertex 40.1069 -8.05451 19
      vertex 41.1 -8.49667 19
    endloop
  endfacet
  facet normal 0 0 -1
    outer loop
      vertex 39.0435 -18.1715 19
      vertex 40.1069 -8.05451 19
      vertex 40.1069 -17.9455 19
    endloop
  endfacet
  facet normal 0 0 -1
    outer loop
      vertex 39.0435 -18.1715 19
      vertex 39.0435 -7.82849 19
      vertex 40.1069 -8.05451 19
    endloop
  endfacet
  facet normal 0 0 -1
    outer loop
      vertex 37.9565 -18.1715 19
      vertex 39.0435 -7.82849 19
      vertex 39.0435 -18.1715 19
    endloop
  endfacet
  facet normal 0 0 -1
    outer loop
      vertex 37.9565 -18.1715 19
      vertex 37.9565 -7.82849 19
      vertex 39.0435 -7.82849 19
    endloop
  endfacet
  facet normal 0 0 -1
    outer loop
      vertex 36.8931 -17.9455 19
      vertex 37.9565 -7.82849 19
      vertex 37.9565 -18.1715 19
    endloop
  endfacet
  facet normal 0 0 -1
    outer loop
      vertex 36.8931 -17.9455 19
      vertex 36.8931 -8.05451 19
      vertex 37.9565 -7.82849 19
    endloop
  endfacet
  facet normal 0 0 -1
    outer loop
      vertex 35.9 -17.5033 19
      vertex 36.8931 -8.05451 19
      vertex 36.8931 -17.9455 19
    endloop
  endfacet
  facet normal 0 0 -1
    outer loop
      vertex 35.9 -17.5033 19
      vertex 35.9 -8.49667 19
      vertex 36.8931 -8.05451 19
    endloop
  endfacet
  facet normal 0 0 -1
    outer loop
      vertex 35.0205 -16.8644 19
      vertex 35.9 -8.49667 19
      vertex 35.9 -17.5033 19
    endloop
  endfacet
  facet normal 0 0 -1
    outer loop
      vertex 35.0205 -16.8644 19
      vertex 35.0205 -9.13565 19
      vertex 35.9 -8.49667 19
    endloop
  endfacet
  facet normal 0 0 -1
    outer loop
      vertex 34.2931 -16.0565 19
      vertex 35.0205 -9.13565 19
      vertex 35.0205 -16.8644 19
    endloop
  endfacet
  facet normal 0 0 -1
    outer loop
      vertex 34.2931 -16.0565 19
      vertex 34.2931 -9.94352 19
      vertex 35.0205 -9.13565 19
    endloop
  endfacet
  facet normal 0 0 -1
    outer loop
      vertex 33.7496 -15.115 19
      vertex 34.2931 -9.94352 19
      vertex 34.2931 -16.0565 19
    endloop
  endfacet
  facet normal 0 0 -1
    outer loop
      vertex 33.7496 -15.115 19
      vertex 33.7496 -10.885 19
      vertex 34.2931 -9.94352 19
    endloop
  endfacet
  facet normal 0 0 -1
    outer loop
      vertex 33.4136 -14.0811 19
      vertex 33.7496 -10.885 19
      vertex 33.7496 -15.115 19
    endloop
  endfacet
  facet normal 0 0 -1
    outer loop
      vertex 33.4136 -14.0811 19
      vertex 33.4136 -11.9189 19
      vertex 33.7496 -10.885 19
    endloop
  endfacet
  facet normal 0 -0 -1
    outer loop
      vertex 33.4136 -11.9189 19
      vertex 33.4136 -14.0811 19
      vertex 33.3 -13 19
    endloop
  endfacet
  facet normal -1 0 0
    outer loop
      vertex 29.5 -3 8
      vertex 29.5 -1.5 20
      vertex 29.5 -1.5 8
    endloop
  endfacet
  facet normal -1 -0 0
    outer loop
      vertex 29.5 -1.5 20
      vertex 29.5 -3 8
      vertex 29.5 -3 20
    endloop
  endfacet
  facet normal 1 -0 0
    outer loop
      vertex 25.5 -3 20
      vertex 25.5 -1.5 8
      vertex 25.5 -1.5 20
    endloop
  endfacet
  facet normal 1 0 0
    outer loop
      vertex 25.5 -1.5 8
      vertex 25.5 -3 20
      vertex 25.5 -3 8
    endloop
  endfacet
  facet normal 0 -1 0
    outer loop
      vertex 25.5 -1.5 8
      vertex 29.5 -1.5 20
      vertex 25.5 -1.5 20
    endloop
  endfacet
  facet normal 0 -1 -0
    outer loop
      vertex 29.5 -1.5 20
      vertex 25.5 -1.5 8
      vertex 29.5 -1.5 8
    endloop
  endfacet
  facet normal 0 1 -0
    outer loop
      vertex 29.5 -3 8
      vertex 25.5 -3 20
      vertex 29.5 -3 20
    endloop
  endfacet
  facet normal 0 1 0
    outer loop
      vertex 25.5 -3 20
      vertex 29.5 -3 8
      vertex 25.5 -3 8
    endloop
  endfacet
  facet normal -1 0 0
    outer loop
      vertex 23.5 -3 8
      vertex 23.5 -1.5 20
      vertex 23.5 -1.5 8
    endloop
  endfacet
  facet normal -1 -0 0
    outer loop
      vertex 23.5 -1.5 20
      vertex 23.5 -3 8
      vertex 23.5 -3 20
    endloop
  endfacet
  facet normal 1 -0 0
    outer loop
      vertex 19.5 -3 20
      vertex 19.5 -1.5 8
      vertex 19.5 -1.5 20
    endloop
  endfacet
  facet normal 1 0 0
    outer loop
      vertex 19.5 -1.5 8
      vertex 19.5 -3 20
      vertex 19.5 -3 8
    endloop
  endfacet
  facet normal 0 -1 0
    outer loop
      vertex 19.5 -1.5 8
      vertex 23.5 -1.5 20
      vertex 19.5 -1.5 20
    endloop
  endfacet
  facet normal 0 -1 -0
    outer loop
      vertex 23.5 -1.5 20
      vertex 19.5 -1.5 8
      vertex 23.5 -1.5 8
    endloop
  endfacet
  facet normal 0 1 -0
    outer loop
      vertex 23.5 -3 8
      vertex 19.5 -3 20
      vertex 23.5 -3 20
    endloop
  endfacet
  facet normal 0 1 0
    outer loop
      vertex 19.5 -3 20
      vertex 23.5 -3 8
      vertex 19.5 -3 8
    endloop
  endfacet
  facet normal -1 0 0
    outer loop
      vertex 39.5 -3 8
      vertex 39.5 -1.5 20
      vertex 39.5 -1.5 8
    endloop
  endfacet
  facet normal -1 -0 0
    outer loop
      vertex 39.5 -1.5 20
      vertex 39.5 -3 8
      vertex 39.5 -3 20
    endloop
  endfacet
  facet normal 1 -0 0
    outer loop
      vertex 35.5 -3 20
      vertex 35.5 -1.5 8
      vertex 35.5 -1.5 20
    endloop
  endfacet
  facet normal 1 0 0
    outer loop
      vertex 35.5 -1.5 8
      vertex 35.5 -3 20
      vertex 35.5 -3 8
    endloop
  endfacet
  facet normal 0 -1 0
    outer loop
      vertex 35.5 -1.5 8
      vertex 39.5 -1.5 20
      vertex 35.5 -1.5 20
    endloop
  endfacet
  facet normal 0 -1 -0
    outer loop
      vertex 39.5 -1.5 20
      vertex 35.5 -1.5 8
      vertex 39.5 -1.5 8
    endloop
  endfacet
  facet normal 0 1 -0
    outer loop
      vertex 39.5 -3 8
      vertex 35.5 -3 20
      vertex 39.5 -3 20
    endloop
  endfacet
  facet normal 0 1 0
    outer loop
      vertex 35.5 -3 20
      vertex 39.5 -3 8
      vertex 35.5 -3 8
    endloop
  endfacet
  facet normal -1 0 0
    outer loop
      vertex 45.5 -3 8
      vertex 45.5 -1.5 20
      vertex 45.5 -1.5 8
    endloop
  endfacet
  facet normal -1 -0 0
    outer loop
      vertex 45.5 -1.5 20
      vertex 45.5 -3 8
      vertex 45.5 -3 20
    endloop
  endfacet
  facet normal 1 -0 0
    outer loop
      vertex 41.5 -3 20
      vertex 41.5 -1.5 8
      vertex 41.5 -1.5 20
    endloop
  endfacet
  facet normal 1 0 0
    outer loop
      vertex 41.5 -1.5 8
      vertex 41.5 -3 20
      vertex 41.5 -3 8
    endloop
  endfacet
  facet normal 0 -1 0
    outer loop
      vertex 41.5 -1.5 8
      vertex 45.5 -1.5 20
      vertex 41.5 -1.5 20
    endloop
  endfacet
  facet normal 0 -1 -0
    outer loop
      vertex 45.5 -1.5 20
      vertex 41.5 -1.5 8
      vertex 45.5 -1.5 8
    endloop
  endfacet
  facet normal 0 1 -0
    outer loop
      vertex 45.5 -3 8
      vertex 41.5 -3 20
      vertex 45.5 -3 20
    endloop
  endfacet
  facet normal 0 1 0
    outer loop
      vertex 41.5 -3 20
      vertex 45.5 -3 8
      vertex 41.5 -3 8
    endloop
  endfacet
  facet normal -1 0 0
    outer loop
      vertex 15.7 -8 4.5
      vertex 15.7 -5 8
      vertex 15.7 -5 4.5
    endloop
  endfacet
  facet normal -1 -0 0
    outer loop
      vertex 15.7 -5 8
      vertex 15.7 -8 4.5
      vertex 15.7 -8 8
    endloop
  endfacet
  facet normal 0 0 -1
    outer loop
      vertex 13.7 -8 8
      vertex 15.7 -5 8
      vertex 15.7 -8 8
    endloop
  endfacet
  facet normal -0 0 -1
    outer loop
      vertex 15.7 -5 8
      vertex 13.7 -8 8
      vertex 13.7 -5 8
    endloop
  endfacet
  facet normal -0 0 1
    outer loop
      vertex 13.7 -5 4.5
      vertex 15.7 -8 4.5
      vertex 15.7 -5 4.5
    endloop
  endfacet
  facet normal 0 0 1
    outer loop
      vertex 15.7 -8 4.5
      vertex 13.7 -5 4.5
      vertex 13.7 -8 4.5
    endloop
  endfacet
  facet normal 1 -0 0
    outer loop
      vertex 13.7 -8 8
      vertex 13.7 -5 4.5
      vertex 13.7 -5 8
    endloop
  endfacet
  facet normal 1 0 0
    outer loop
      vertex 13.7 -5 4.5
      vertex 13.7 -8 8
      vertex 13.7 -8 4.5
    endloop
  endfacet
endsolid OpenSCAD_Model
