solid OpenSCAD_Model
  facet normal 1 -0 0
    outer loop
      vertex 40 0 13
      vertex 40 33 0
      vertex 40 33 13
    endloop
  endfacet
  facet normal 1 0 0
    outer loop
      vertex 40 33 0
      vertex 40 0 13
      vertex 40 0 0
    endloop
  endfacet
  facet normal 0 0 1
    outer loop
      vertex 5 38 13
      vertex 0 38 13
      vertex 5 33 13
    endloop
  endfacet
  facet normal -0 0 1
    outer loop
      vertex 23.9717 18.9161 13
      vertex 40 0 13
      vertex 24.1793 19.4404 13
    endloop
  endfacet
  facet normal 0 0 1
    outer loop
      vertex 40 0 13
      vertex 24.1793 5.55955 13
      vertex 24.25 5 13
    endloop
  endfacet
  facet normal -0 0 1
    outer loop
      vertex 23.9717 6.08395 13
      vertex 40 0 13
      vertex 23.9717 18.9161 13
    endloop
  endfacet
  facet normal 0 0 1
    outer loop
      vertex 40 0 13
      vertex 23.9717 6.08395 13
      vertex 24.1793 5.55955 13
    endloop
  endfacet
  facet normal -0 0 1
    outer loop
      vertex 23.6402 18.4598 13
      vertex 23.9717 6.08395 13
      vertex 23.9717 18.9161 13
    endloop
  endfacet
  facet normal 0 0 1
    outer loop
      vertex 23.6402 18.4598 13
      vertex 23.6402 6.54023 13
      vertex 23.9717 6.08395 13
    endloop
  endfacet
  facet normal -0 0 1
    outer loop
      vertex 23.2056 18.1003 13
      vertex 23.6402 6.54023 13
      vertex 23.6402 18.4598 13
    endloop
  endfacet
  facet normal 0 0 1
    outer loop
      vertex 23.2056 18.1003 13
      vertex 23.2056 6.89974 13
      vertex 23.6402 6.54023 13
    endloop
  endfacet
  facet normal -0 0 1
    outer loop
      vertex 22.6953 17.8601 13
      vertex 23.2056 6.89974 13
      vertex 23.2056 18.1003 13
    endloop
  endfacet
  facet normal 0 0 1
    outer loop
      vertex 22.6953 17.8601 13
      vertex 22.6953 7.13988 13
      vertex 23.2056 6.89974 13
    endloop
  endfacet
  facet normal -0 0 1
    outer loop
      vertex 22.1413 17.7544 13
      vertex 22.6953 7.13988 13
      vertex 22.6953 17.8601 13
    endloop
  endfacet
  facet normal 0 0 1
    outer loop
      vertex 22.1413 17.7544 13
      vertex 22.1413 7.24556 13
      vertex 22.6953 7.13988 13
    endloop
  endfacet
  facet normal 0 0 1
    outer loop
      vertex 21.5784 17.7899 13
      vertex 22.1413 7.24556 13
      vertex 22.1413 17.7544 13
    endloop
  endfacet
  facet normal 0 0 1
    outer loop
      vertex 21.5784 17.7899 13
      vertex 21.5784 7.21015 13
      vertex 22.1413 7.24556 13
    endloop
  endfacet
  facet normal 0 0 1
    outer loop
      vertex 21.042 17.9641 13
      vertex 21.5784 7.21015 13
      vertex 21.5784 17.7899 13
    endloop
  endfacet
  facet normal 0 0 1
    outer loop
      vertex 21.042 17.9641 13
      vertex 21.042 7.03586 13
      vertex 21.5784 7.21015 13
    endloop
  endfacet
  facet normal 0 0 1
    outer loop
      vertex 20.5658 18.2663 13
      vertex 21.042 7.03586 13
      vertex 21.042 17.9641 13
    endloop
  endfacet
  facet normal 0 0 1
    outer loop
      vertex 20.5658 18.2663 13
      vertex 20.5658 6.73365 13
      vertex 21.042 7.03586 13
    endloop
  endfacet
  facet normal 0 0 1
    outer loop
      vertex 20.1797 18.6775 13
      vertex 20.5658 6.73365 13
      vertex 20.5658 18.2663 13
    endloop
  endfacet
  facet normal 0 0 1
    outer loop
      vertex 20.1797 18.6775 13
      vertex 20.1797 6.32252 13
      vertex 20.5658 6.73365 13
    endloop
  endfacet
  facet normal 0 0 1
    outer loop
      vertex 19.908 19.1717 13
      vertex 20.1797 6.32252 13
      vertex 20.1797 18.6775 13
    endloop
  endfacet
  facet normal 0 0 1
    outer loop
      vertex 19.908 19.1717 13
      vertex 19.908 5.82828 13
      vertex 20.1797 6.32252 13
    endloop
  endfacet
  facet normal 0 0 1
    outer loop
      vertex 0 0 13
      vertex 19.908 19.1717 13
      vertex 19.7677 19.718 13
    endloop
  endfacet
  facet normal 0 0 1
    outer loop
      vertex 19.908 19.1717 13
      vertex 0 0 13
      vertex 19.908 5.82828 13
    endloop
  endfacet
  facet normal 0 0 1
    outer loop
      vertex 24.1793 19.4404 13
      vertex 40 33 13
      vertex 24.25 20 13
    endloop
  endfacet
  facet normal 0 0 1
    outer loop
      vertex 40 33 13
      vertex 24.1793 20.5596 13
      vertex 24.25 20 13
    endloop
  endfacet
  facet normal 0 0 1
    outer loop
      vertex 40 33 13
      vertex 23.9717 21.0839 13
      vertex 24.1793 20.5596 13
    endloop
  endfacet
  facet normal 0 0 1
    outer loop
      vertex 40 33 13
      vertex 23.6402 21.5402 13
      vertex 23.9717 21.0839 13
    endloop
  endfacet
  facet normal 0 0 1
    outer loop
      vertex 40 33 13
      vertex 23.2056 21.8997 13
      vertex 23.6402 21.5402 13
    endloop
  endfacet
  facet normal 0 0 1
    outer loop
      vertex 40 33 13
      vertex 22.6953 22.1399 13
      vertex 23.2056 21.8997 13
    endloop
  endfacet
  facet normal 0 0 1
    outer loop
      vertex 40 33 13
      vertex 22.1413 22.2456 13
      vertex 22.6953 22.1399 13
    endloop
  endfacet
  facet normal -0 0 1
    outer loop
      vertex 5 33 13
      vertex 22.1413 22.2456 13
      vertex 40 33 13
    endloop
  endfacet
  facet normal 0 0 1
    outer loop
      vertex 22.1413 22.2456 13
      vertex 5 33 13
      vertex 21.5784 22.2101 13
    endloop
  endfacet
  facet normal 0 0 1
    outer loop
      vertex 5 33 13
      vertex 19.7677 19.718 13
      vertex 19.7677 20.282 13
    endloop
  endfacet
  facet normal 0 0 1
    outer loop
      vertex 19.908 5.82828 13
      vertex 0 0 13
      vertex 19.7677 5.282 13
    endloop
  endfacet
  facet normal 0 0 1
    outer loop
      vertex 19.7677 19.718 13
      vertex 5 33 13
      vertex 0 0 13
    endloop
  endfacet
  facet normal 0 0 1
    outer loop
      vertex 19.908 20.8283 13
      vertex 5 33 13
      vertex 19.7677 20.282 13
    endloop
  endfacet
  facet normal 0 0 1
    outer loop
      vertex 20.1797 21.3225 13
      vertex 5 33 13
      vertex 19.908 20.8283 13
    endloop
  endfacet
  facet normal 0 0 1
    outer loop
      vertex 20.5658 21.7337 13
      vertex 5 33 13
      vertex 20.1797 21.3225 13
    endloop
  endfacet
  facet normal 0 0 1
    outer loop
      vertex 21.042 22.0359 13
      vertex 5 33 13
      vertex 20.5658 21.7337 13
    endloop
  endfacet
  facet normal 0 0 1
    outer loop
      vertex 21.5784 22.2101 13
      vertex 5 33 13
      vertex 21.042 22.0359 13
    endloop
  endfacet
  facet normal 0 0 1
    outer loop
      vertex 40 33 13
      vertex 24.1793 19.4404 13
      vertex 40 0 13
    endloop
  endfacet
  facet normal -0 0 1
    outer loop
      vertex 24.1793 4.44045 13
      vertex 40 0 13
      vertex 24.25 5 13
    endloop
  endfacet
  facet normal -0 0 1
    outer loop
      vertex 23.9717 3.91605 13
      vertex 40 0 13
      vertex 24.1793 4.44045 13
    endloop
  endfacet
  facet normal -0 0 1
    outer loop
      vertex 23.6402 3.45977 13
      vertex 40 0 13
      vertex 23.9717 3.91605 13
    endloop
  endfacet
  facet normal -0 0 1
    outer loop
      vertex 23.2056 3.10026 13
      vertex 40 0 13
      vertex 23.6402 3.45977 13
    endloop
  endfacet
  facet normal -0 0 1
    outer loop
      vertex 22.6953 2.86012 13
      vertex 40 0 13
      vertex 23.2056 3.10026 13
    endloop
  endfacet
  facet normal -0 0 1
    outer loop
      vertex 22.1413 2.75444 13
      vertex 40 0 13
      vertex 22.6953 2.86012 13
    endloop
  endfacet
  facet normal 0 0 1
    outer loop
      vertex 0 0 13
      vertex 22.1413 2.75444 13
      vertex 21.5784 2.78985 13
    endloop
  endfacet
  facet normal 0 0 1
    outer loop
      vertex 19.7677 5.282 13
      vertex 0 0 13
      vertex 19.7677 4.718 13
    endloop
  endfacet
  facet normal 0 0 1
    outer loop
      vertex 0 0 13
      vertex 5 33 13
      vertex 0 38 13
    endloop
  endfacet
  facet normal 0 0 1
    outer loop
      vertex 19.7677 4.718 13
      vertex 0 0 13
      vertex 19.908 4.17172 13
    endloop
  endfacet
  facet normal 0 0 1
    outer loop
      vertex 22.1413 2.75444 13
      vertex 0 0 13
      vertex 40 0 13
    endloop
  endfacet
  facet normal 0 0 1
    outer loop
      vertex 21.042 2.96414 13
      vertex 0 0 13
      vertex 21.5784 2.78985 13
    endloop
  endfacet
  facet normal 0 0 1
    outer loop
      vertex 20.5658 3.26635 13
      vertex 0 0 13
      vertex 21.042 2.96414 13
    endloop
  endfacet
  facet normal 0 0 1
    outer loop
      vertex 20.1797 3.67748 13
      vertex 0 0 13
      vertex 20.5658 3.26635 13
    endloop
  endfacet
  facet normal 0 0 1
    outer loop
      vertex 19.908 4.17172 13
      vertex 0 0 13
      vertex 20.1797 3.67748 13
    endloop
  endfacet
  facet normal 0 0 -1
    outer loop
      vertex 5.3 0 0
      vertex 5 33 0
      vertex 5.3 33 0
    endloop
  endfacet
  facet normal 0 0 -1
    outer loop
      vertex 0 0 0
      vertex 5 33 0
      vertex 5.3 0 0
    endloop
  endfacet
  facet normal 0 0 -1
    outer loop
      vertex 0 38 0
      vertex 5 33 0
      vertex 0 0 0
    endloop
  endfacet
  facet normal 0 0 -1
    outer loop
      vertex 5 33 0
      vertex 0 38 0
      vertex 5 38 0
    endloop
  endfacet
  facet normal 0 0 -1
    outer loop
      vertex 34.5 15.2 0
      vertex 38.5 25 0
      vertex 38.5 15.2 0
    endloop
  endfacet
  facet normal -0 0 -1
    outer loop
      vertex 38.5 25 0
      vertex 34.5 15.2 0
      vertex 34.5 25 0
    endloop
  endfacet
  facet normal 0 0 -1
    outer loop
      vertex 38.5 15.2 0
      vertex 40 0 0
      vertex 38.5 10 0
    endloop
  endfacet
  facet normal 0 0 -1
    outer loop
      vertex 34.5 0 0
      vertex 38.5 10 0
      vertex 40 0 0
    endloop
  endfacet
  facet normal -0 0 -1
    outer loop
      vertex 38.5 10 0
      vertex 34.5 0 0
      vertex 34.5 10 0
    endloop
  endfacet
  facet normal 0 0 -1
    outer loop
      vertex 40 0 0
      vertex 38.5 15.2 0
      vertex 40 33 0
    endloop
  endfacet
  facet normal 0 0 -1
    outer loop
      vertex 38.5 25 0
      vertex 40 33 0
      vertex 38.5 15.2 0
    endloop
  endfacet
  facet normal 0 0 -1
    outer loop
      vertex 38.5 30.2 0
      vertex 40 33 0
      vertex 38.5 25 0
    endloop
  endfacet
  facet normal 0 0 -1
    outer loop
      vertex 34.5 33 0
      vertex 38.5 30.2 0
      vertex 34.5 30.2 0
    endloop
  endfacet
  facet normal 0 0 -1
    outer loop
      vertex 38.5 30.2 0
      vertex 34.5 33 0
      vertex 40 33 0
    endloop
  endfacet
  facet normal 0 0 -1
    outer loop
      vertex 26.5315 0 0
      vertex 24.25 5 0
      vertex 26.5315 10 0
    endloop
  endfacet
  facet normal 0 0 -1
    outer loop
      vertex 26.5315 0 0
      vertex 24.1793 4.44045 0
      vertex 24.25 5 0
    endloop
  endfacet
  facet normal 0 0 -1
    outer loop
      vertex 26.5315 0 0
      vertex 23.9717 3.91605 0
      vertex 24.1793 4.44045 0
    endloop
  endfacet
  facet normal 0 0 -1
    outer loop
      vertex 26.5315 0 0
      vertex 23.6402 3.45977 0
      vertex 23.9717 3.91605 0
    endloop
  endfacet
  facet normal 0 0 -1
    outer loop
      vertex 26.5315 0 0
      vertex 23.2056 3.10026 0
      vertex 23.6402 3.45977 0
    endloop
  endfacet
  facet normal 0 0 -1
    outer loop
      vertex 26.5315 0 0
      vertex 22.6953 2.86012 0
      vertex 23.2056 3.10026 0
    endloop
  endfacet
  facet normal 0 0 -1
    outer loop
      vertex 26.5315 0 0
      vertex 22.1413 2.75444 0
      vertex 22.6953 2.86012 0
    endloop
  endfacet
  facet normal 0 0 -1
    outer loop
      vertex 17.7 0 0
      vertex 22.1413 2.75444 0
      vertex 26.5315 0 0
    endloop
  endfacet
  facet normal -0 0 -1
    outer loop
      vertex 22.1413 2.75444 0
      vertex 17.7 0 0
      vertex 21.5784 2.78985 0
    endloop
  endfacet
  facet normal 0 0 -1
    outer loop
      vertex 17.7 0 0
      vertex 19.7677 5.282 0
      vertex 19.7677 4.718 0
    endloop
  endfacet
  facet normal -0 0 -1
    outer loop
      vertex 19.7677 5.282 0
      vertex 17.7 0 0
      vertex 19.7677 19.718 0
    endloop
  endfacet
  facet normal 0 0 -1
    outer loop
      vertex 17.7 33 0
      vertex 19.7677 19.718 0
      vertex 17.7 0 0
    endloop
  endfacet
  facet normal -0 0 -1
    outer loop
      vertex 19.908 4.17172 0
      vertex 17.7 0 0
      vertex 19.7677 4.718 0
    endloop
  endfacet
  facet normal -0 0 -1
    outer loop
      vertex 20.1797 3.67748 0
      vertex 17.7 0 0
      vertex 19.908 4.17172 0
    endloop
  endfacet
  facet normal -0 0 -1
    outer loop
      vertex 20.5658 3.26635 0
      vertex 17.7 0 0
      vertex 20.1797 3.67748 0
    endloop
  endfacet
  facet normal -0 0 -1
    outer loop
      vertex 21.042 2.96414 0
      vertex 17.7 0 0
      vertex 20.5658 3.26635 0
    endloop
  endfacet
  facet normal -0 0 -1
    outer loop
      vertex 21.5784 2.78985 0
      vertex 17.7 0 0
      vertex 21.042 2.96414 0
    endloop
  endfacet
  facet normal 0 0 -1
    outer loop
      vertex 24.1793 5.55955 0
      vertex 26.5315 10 0
      vertex 24.25 5 0
    endloop
  endfacet
  facet normal 0 0 -1
    outer loop
      vertex 23.9717 6.08395 0
      vertex 26.5315 10 0
      vertex 24.1793 5.55955 0
    endloop
  endfacet
  facet normal 0 0 -1
    outer loop
      vertex 23.6402 6.54023 0
      vertex 26.5315 10 0
      vertex 23.9717 6.08395 0
    endloop
  endfacet
  facet normal 0 0 -1
    outer loop
      vertex 23.2056 6.89974 0
      vertex 26.5315 10 0
      vertex 23.6402 6.54023 0
    endloop
  endfacet
  facet normal 0 0 -1
    outer loop
      vertex 22.5631 10 0
      vertex 23.2056 6.89974 0
      vertex 22.6953 7.13988 0
    endloop
  endfacet
  facet normal 0 0 -1
    outer loop
      vertex 23.2056 6.89974 0
      vertex 22.5631 10 0
      vertex 26.5315 10 0
    endloop
  endfacet
  facet normal 0 0 -1
    outer loop
      vertex 21.5784 7.21015 0
      vertex 22.5631 10 0
      vertex 22.1413 7.24556 0
    endloop
  endfacet
  facet normal 0 0 -1
    outer loop
      vertex 22.1413 7.24556 0
      vertex 22.5631 10 0
      vertex 22.6953 7.13988 0
    endloop
  endfacet
  facet normal 0 0 -1
    outer loop
      vertex 26.5315 15.2 0
      vertex 24.25 20 0
      vertex 26.5315 25 0
    endloop
  endfacet
  facet normal 0 0 -1
    outer loop
      vertex 26.5315 15.2 0
      vertex 24.1793 19.4404 0
      vertex 24.25 20 0
    endloop
  endfacet
  facet normal 0 0 -1
    outer loop
      vertex 26.5315 15.2 0
      vertex 23.9717 18.9161 0
      vertex 24.1793 19.4404 0
    endloop
  endfacet
  facet normal 0 0 -1
    outer loop
      vertex 26.5315 15.2 0
      vertex 23.6402 18.4598 0
      vertex 23.9717 18.9161 0
    endloop
  endfacet
  facet normal 0 0 -1
    outer loop
      vertex 26.5315 15.2 0
      vertex 23.2056 18.1003 0
      vertex 23.6402 18.4598 0
    endloop
  endfacet
  facet normal 0 0 -1
    outer loop
      vertex 22.5631 15.2 0
      vertex 23.2056 18.1003 0
      vertex 26.5315 15.2 0
    endloop
  endfacet
  facet normal 0 0 -1
    outer loop
      vertex 23.2056 18.1003 0
      vertex 22.5631 15.2 0
      vertex 22.6953 17.8601 0
    endloop
  endfacet
  facet normal 0 0 -1
    outer loop
      vertex 21.042 7.03586 0
      vertex 22.5631 10 0
      vertex 21.5784 7.21015 0
    endloop
  endfacet
  facet normal 0 0 -1
    outer loop
      vertex 22.5631 15.2 0
      vertex 22.1413 17.7544 0
      vertex 22.6953 17.8601 0
    endloop
  endfacet
  facet normal 0 0 -1
    outer loop
      vertex 20.5658 6.73365 0
      vertex 22.5631 10 0
      vertex 21.042 7.03586 0
    endloop
  endfacet
  facet normal 0 0 -1
    outer loop
      vertex 22.5631 15.2 0
      vertex 21.5784 17.7899 0
      vertex 22.1413 17.7544 0
    endloop
  endfacet
  facet normal 0 0 -1
    outer loop
      vertex 20.5658 18.2663 0
      vertex 22.5631 10 0
      vertex 20.5658 6.73365 0
    endloop
  endfacet
  facet normal 0 0 -1
    outer loop
      vertex 22.5631 15.2 0
      vertex 21.042 17.9641 0
      vertex 21.5784 17.7899 0
    endloop
  endfacet
  facet normal 0 0 -1
    outer loop
      vertex 22.5631 10 0
      vertex 20.5658 18.2663 0
      vertex 22.5631 15.2 0
    endloop
  endfacet
  facet normal 0 0 -1
    outer loop
      vertex 22.5631 15.2 0
      vertex 20.5658 18.2663 0
      vertex 21.042 17.9641 0
    endloop
  endfacet
  facet normal 0 0 -1
    outer loop
      vertex 20.1797 6.32252 0
      vertex 20.5658 18.2663 0
      vertex 20.5658 6.73365 0
    endloop
  endfacet
  facet normal 0 0 -1
    outer loop
      vertex 20.1797 6.32252 0
      vertex 20.1797 18.6775 0
      vertex 20.5658 18.2663 0
    endloop
  endfacet
  facet normal 0 0 -1
    outer loop
      vertex 19.908 5.82828 0
      vertex 20.1797 18.6775 0
      vertex 20.1797 6.32252 0
    endloop
  endfacet
  facet normal 0 0 -1
    outer loop
      vertex 19.908 5.82828 0
      vertex 19.908 19.1717 0
      vertex 20.1797 18.6775 0
    endloop
  endfacet
  facet normal 0 0 -1
    outer loop
      vertex 19.7677 5.282 0
      vertex 19.908 19.1717 0
      vertex 19.908 5.82828 0
    endloop
  endfacet
  facet normal -0 0 -1
    outer loop
      vertex 19.908 19.1717 0
      vertex 19.7677 5.282 0
      vertex 19.7677 19.718 0
    endloop
  endfacet
  facet normal 0 0 -1
    outer loop
      vertex 24.1793 20.5596 0
      vertex 26.5315 25 0
      vertex 24.25 20 0
    endloop
  endfacet
  facet normal 0 0 -1
    outer loop
      vertex 23.9717 21.0839 0
      vertex 26.5315 25 0
      vertex 24.1793 20.5596 0
    endloop
  endfacet
  facet normal 0 0 -1
    outer loop
      vertex 23.6402 21.5402 0
      vertex 26.5315 25 0
      vertex 23.9717 21.0839 0
    endloop
  endfacet
  facet normal 0 0 -1
    outer loop
      vertex 23.2056 21.8997 0
      vertex 26.5315 25 0
      vertex 23.6402 21.5402 0
    endloop
  endfacet
  facet normal 0 0 -1
    outer loop
      vertex 22.5631 25 0
      vertex 23.2056 21.8997 0
      vertex 22.6953 22.1399 0
    endloop
  endfacet
  facet normal 0 0 -1
    outer loop
      vertex 23.2056 21.8997 0
      vertex 22.5631 25 0
      vertex 26.5315 25 0
    endloop
  endfacet
  facet normal 0 0 -1
    outer loop
      vertex 21.5784 22.2101 0
      vertex 22.5631 25 0
      vertex 22.1413 22.2456 0
    endloop
  endfacet
  facet normal 0 0 -1
    outer loop
      vertex 22.1413 22.2456 0
      vertex 22.5631 25 0
      vertex 22.6953 22.1399 0
    endloop
  endfacet
  facet normal 0 0 -1
    outer loop
      vertex 22.5631 30.2 0
      vertex 26.5315 33 0
      vertex 26.5315 30.2 0
    endloop
  endfacet
  facet normal 0 0 -1
    outer loop
      vertex 21.042 22.0359 0
      vertex 22.5631 25 0
      vertex 21.5784 22.2101 0
    endloop
  endfacet
  facet normal 0 0 -1
    outer loop
      vertex 20.5658 21.7337 0
      vertex 22.5631 25 0
      vertex 21.042 22.0359 0
    endloop
  endfacet
  facet normal 0 0 -1
    outer loop
      vertex 17.7 33 0
      vertex 22.5631 25 0
      vertex 20.5658 21.7337 0
    endloop
  endfacet
  facet normal 0 0 -1
    outer loop
      vertex 17.7 33 0
      vertex 20.5658 21.7337 0
      vertex 20.1797 21.3225 0
    endloop
  endfacet
  facet normal 0 0 -1
    outer loop
      vertex 17.7 33 0
      vertex 20.1797 21.3225 0
      vertex 19.908 20.8283 0
    endloop
  endfacet
  facet normal 0 0 -1
    outer loop
      vertex 22.5631 30.2 0
      vertex 17.7 33 0
      vertex 26.5315 33 0
    endloop
  endfacet
  facet normal 0 0 -1
    outer loop
      vertex 22.5631 25 0
      vertex 17.7 33 0
      vertex 22.5631 30.2 0
    endloop
  endfacet
  facet normal 0 0 -1
    outer loop
      vertex 19.7677 20.282 0
      vertex 17.7 33 0
      vertex 19.908 20.8283 0
    endloop
  endfacet
  facet normal 0 0 -1
    outer loop
      vertex 19.7677 19.718 0
      vertex 17.7 33 0
      vertex 19.7677 20.282 0
    endloop
  endfacet
  facet normal -1 0 0
    outer loop
      vertex 0 38 0
      vertex 0 35 4.5
      vertex 0 38 13
    endloop
  endfacet
  facet normal -1 0 0
    outer loop
      vertex 0 38 0
      vertex 0 33 4.5
      vertex 0 35 4.5
    endloop
  endfacet
  facet normal -1 -0 0
    outer loop
      vertex 0 33 4.5
      vertex 0 0 0
      vertex 0 33 8.5
    endloop
  endfacet
  facet normal -1 0 0
    outer loop
      vertex 0 0 0
      vertex 0 33 4.5
      vertex 0 38 0
    endloop
  endfacet
  facet normal -1 0 0
    outer loop
      vertex 0 35 8.5
      vertex 0 38 13
      vertex 0 35 4.5
    endloop
  endfacet
  facet normal -1 0 0
    outer loop
      vertex 0 33 8.5
      vertex 0 38 13
      vertex 0 35 8.5
    endloop
  endfacet
  facet normal -1 0 0
    outer loop
      vertex 0 0 13
      vertex 0 33 8.5
      vertex 0 0 0
    endloop
  endfacet
  facet normal -1 0 0
    outer loop
      vertex 0 33 8.5
      vertex 0 0 13
      vertex 0 38 13
    endloop
  endfacet
  facet normal 0 1 0
    outer loop
      vertex 40 33 13
      vertex 17.7 33 10
      vertex 5 33 13
    endloop
  endfacet
  facet normal 0 1 0
    outer loop
      vertex 29.7505 33 3.92915
      vertex 40 33 13
      vertex 30.7512 33 3.99211
    endloop
  endfacet
  facet normal 0 1 0
    outer loop
      vertex 40 33 13
      vertex 31.7361 33 3.80423
      vertex 30.7512 33 3.99211
    endloop
  endfacet
  facet normal 0 1 0
    outer loop
      vertex 40 33 13
      vertex 32.6433 33 3.37731
      vertex 31.7361 33 3.80423
    endloop
  endfacet
  facet normal 0 1 0
    outer loop
      vertex 40 33 13
      vertex 33.4159 33 2.73819
      vertex 32.6433 33 3.37731
    endloop
  endfacet
  facet normal 0 1 -0
    outer loop
      vertex 40 33 0
      vertex 33.4159 33 2.73819
      vertex 40 33 13
    endloop
  endfacet
  facet normal 0 1 0
    outer loop
      vertex 33.4159 33 2.73819
      vertex 40 33 0
      vertex 34.0052 33 1.92701
    endloop
  endfacet
  facet normal 0 1 0
    outer loop
      vertex 34.0052 33 1.92701
      vertex 40 33 0
      vertex 34.3743 33 0.994759
    endloop
  endfacet
  facet normal 0 1 0
    outer loop
      vertex 34.3743 33 0.994759
      vertex 40 33 0
      vertex 34.5 33 0
    endloop
  endfacet
  facet normal 0 1 -0
    outer loop
      vertex 5.3 33 10
      vertex 5 33 13
      vertex 17.7 33 10
    endloop
  endfacet
  facet normal 0 1 0
    outer loop
      vertex 5.3 33 10
      vertex 5 33 8.5
      vertex 5 33 13
    endloop
  endfacet
  facet normal 0 1 0
    outer loop
      vertex 5.3 33 10
      vertex 5 33 4.5
      vertex 5 33 8.5
    endloop
  endfacet
  facet normal 0 1 -0
    outer loop
      vertex 5.3 33 0
      vertex 5 33 4.5
      vertex 5.3 33 10
    endloop
  endfacet
  facet normal 0 1 0
    outer loop
      vertex 5 33 4.5
      vertex 5.3 33 0
      vertex 5 33 0
    endloop
  endfacet
  facet normal 0 1 0
    outer loop
      vertex 40 33 13
      vertex 29.7505 33 3.92915
      vertex 17.7 33 10
    endloop
  endfacet
  facet normal 0 1 -0
    outer loop
      vertex 28.7969 33 3.61931
      vertex 17.7 33 10
      vertex 29.7505 33 3.92915
    endloop
  endfacet
  facet normal 0 1 -0
    outer loop
      vertex 27.9503 33 3.08205
      vertex 17.7 33 10
      vertex 28.7969 33 3.61931
    endloop
  endfacet
  facet normal 0 1 -0
    outer loop
      vertex 27.2639 33 2.35114
      vertex 17.7 33 10
      vertex 27.9503 33 3.08205
    endloop
  endfacet
  facet normal 0 1 0
    outer loop
      vertex 17.7 33 0
      vertex 27.2639 33 2.35114
      vertex 26.7809 33 1.4725
    endloop
  endfacet
  facet normal 0 1 0
    outer loop
      vertex 17.7 33 0
      vertex 26.7809 33 1.4725
      vertex 26.5315 33 0.501332
    endloop
  endfacet
  facet normal 0 1 0
    outer loop
      vertex 17.7 33 0
      vertex 26.5315 33 0.501332
      vertex 26.5315 33 0
    endloop
  endfacet
  facet normal 0 1 0
    outer loop
      vertex 27.2639 33 2.35114
      vertex 17.7 33 0
      vertex 17.7 33 10
    endloop
  endfacet
  facet normal 0 -1 0
    outer loop
      vertex 40 0 13
      vertex 29.7505 0 3.92915
      vertex 30.7512 0 3.99211
    endloop
  endfacet
  facet normal 0 -1 0
    outer loop
      vertex 17.7 0 10
      vertex 28.7969 0 3.61931
      vertex 29.7505 0 3.92915
    endloop
  endfacet
  facet normal 0 -1 0
    outer loop
      vertex 17.7 0 10
      vertex 27.9503 0 3.08205
      vertex 28.7969 0 3.61931
    endloop
  endfacet
  facet normal 0 -1 0
    outer loop
      vertex 17.7 0 10
      vertex 27.2639 0 2.35114
      vertex 27.9503 0 3.08205
    endloop
  endfacet
  facet normal 0 -1 0
    outer loop
      vertex 17.7 0 0
      vertex 27.2639 0 2.35114
      vertex 17.7 0 10
    endloop
  endfacet
  facet normal 0 -1 0
    outer loop
      vertex 27.2639 0 2.35114
      vertex 17.7 0 0
      vertex 26.7809 0 1.4725
    endloop
  endfacet
  facet normal 0 -1 0
    outer loop
      vertex 26.7809 0 1.4725
      vertex 17.7 0 0
      vertex 26.5315 0 0.501332
    endloop
  endfacet
  facet normal 0 -1 -0
    outer loop
      vertex 26.5315 0 0.501332
      vertex 17.7 0 0
      vertex 26.5315 0 0
    endloop
  endfacet
  facet normal 0 -1 0
    outer loop
      vertex 17.7 0 10
      vertex 0 0 13
      vertex 5.3 0 10
    endloop
  endfacet
  facet normal 0 -1 0
    outer loop
      vertex 0 0 0
      vertex 5.3 0 10
      vertex 0 0 13
    endloop
  endfacet
  facet normal 0 -1 -0
    outer loop
      vertex 5.3 0 10
      vertex 0 0 0
      vertex 5.3 0 0
    endloop
  endfacet
  facet normal 0 -1 0
    outer loop
      vertex 0 0 13
      vertex 17.7 0 10
      vertex 40 0 13
    endloop
  endfacet
  facet normal 0 -1 0
    outer loop
      vertex 29.7505 0 3.92915
      vertex 40 0 13
      vertex 17.7 0 10
    endloop
  endfacet
  facet normal 0 -1 0
    outer loop
      vertex 31.7361 0 3.80423
      vertex 40 0 13
      vertex 30.7512 0 3.99211
    endloop
  endfacet
  facet normal 0 -1 0
    outer loop
      vertex 32.6433 0 3.37731
      vertex 40 0 13
      vertex 31.7361 0 3.80423
    endloop
  endfacet
  facet normal 0 -1 0
    outer loop
      vertex 33.4159 0 2.73819
      vertex 40 0 13
      vertex 32.6433 0 3.37731
    endloop
  endfacet
  facet normal 0 -1 0
    outer loop
      vertex 40 0 0
      vertex 33.4159 0 2.73819
      vertex 34.0052 0 1.92701
    endloop
  endfacet
  facet normal 0 -1 0
    outer loop
      vertex 40 0 0
      vertex 34.0052 0 1.92701
      vertex 34.3743 0 0.994759
    endloop
  endfacet
  facet normal 0 -1 0
    outer loop
      vertex 40 0 0
      vertex 34.3743 0 0.994759
      vertex 34.5 0 0
    endloop
  endfacet
  facet normal 0 -1 0
    outer loop
      vertex 33.4159 0 2.73819
      vertex 40 0 0
      vertex 40 0 13
    endloop
  endfacet
  facet normal 1 0 0
    outer loop
      vertex 5 38 13
      vertex 5 35 8.5
      vertex 5 38 0
    endloop
  endfacet
  facet normal 1 -0 0
    outer loop
      vertex 5 33 13
      vertex 5 35 8.5
      vertex 5 38 13
    endloop
  endfacet
  facet normal 1 0 0
    outer loop
      vertex 5 35 8.5
      vertex 5 33 13
      vertex 5 33 8.5
    endloop
  endfacet
  facet normal 1 -0 0
    outer loop
      vertex 5 35 4.5
      vertex 5 38 0
      vertex 5 35 8.5
    endloop
  endfacet
  facet normal 1 0 0
    outer loop
      vertex 5 33 0
      vertex 5 35 4.5
      vertex 5 33 4.5
    endloop
  endfacet
  facet normal 1 0 0
    outer loop
      vertex 5 35 4.5
      vertex 5 33 0
      vertex 5 38 0
    endloop
  endfacet
  facet normal 0 1 -0
    outer loop
      vertex 5 38 0
      vertex 0 38 13
      vertex 5 38 13
    endloop
  endfacet
  facet normal 0 1 0
    outer loop
      vertex 0 38 13
      vertex 5 38 0
      vertex 0 38 0
    endloop
  endfacet
  facet normal 0.535821 0 -0.844332
    outer loop
      vertex 27.9503 30.2 3.08205
      vertex 28.7969 33 3.61931
      vertex 28.7969 30.2 3.61931
    endloop
  endfacet
  facet normal 0.535821 0 -0.844332
    outer loop
      vertex 28.7969 33 3.61931
      vertex 27.9503 30.2 3.08205
      vertex 27.9503 33 3.08205
    endloop
  endfacet
  facet normal 0.535821 0 -0.844332
    outer loop
      vertex 27.9503 0 3.08205
      vertex 28.7969 10 3.61931
      vertex 28.7969 0 3.61931
    endloop
  endfacet
  facet normal 0.535821 0 -0.844332
    outer loop
      vertex 28.7969 10 3.61931
      vertex 27.9503 0 3.08205
      vertex 27.9503 10 3.08205
    endloop
  endfacet
  facet normal 0.535821 0 -0.844332
    outer loop
      vertex 27.9503 15.2 3.08205
      vertex 28.7969 25 3.61931
      vertex 28.7969 15.2 3.61931
    endloop
  endfacet
  facet normal 0.535821 0 -0.844332
    outer loop
      vertex 28.7969 25 3.61931
      vertex 27.9503 15.2 3.08205
      vertex 27.9503 25 3.08205
    endloop
  endfacet
  facet normal 1 -0 0
    outer loop
      vertex 26.5315 30.2 0.501332
      vertex 26.5315 33 0
      vertex 26.5315 33 0.501332
    endloop
  endfacet
  facet normal 1 0 0
    outer loop
      vertex 26.5315 33 0
      vertex 26.5315 30.2 0.501332
      vertex 26.5315 30.2 0
    endloop
  endfacet
  facet normal 1 -0 0
    outer loop
      vertex 26.5315 0 0.501332
      vertex 26.5315 10 0
      vertex 26.5315 10 0.501332
    endloop
  endfacet
  facet normal 1 0 0
    outer loop
      vertex 26.5315 10 0
      vertex 26.5315 0 0.501332
      vertex 26.5315 0 0
    endloop
  endfacet
  facet normal 1 -0 0
    outer loop
      vertex 26.5315 15.2 0.501332
      vertex 26.5315 25 0
      vertex 26.5315 25 0.501332
    endloop
  endfacet
  facet normal 1 0 0
    outer loop
      vertex 26.5315 25 0
      vertex 26.5315 15.2 0.501332
      vertex 26.5315 15.2 0
    endloop
  endfacet
  facet normal 0.968572 0 -0.248733
    outer loop
      vertex 26.7809 0 1.4725
      vertex 26.5315 10 0.501332
      vertex 26.7809 10 1.4725
    endloop
  endfacet
  facet normal 0.968572 0 -0.248733
    outer loop
      vertex 26.5315 10 0.501332
      vertex 26.7809 0 1.4725
      vertex 26.5315 0 0.501332
    endloop
  endfacet
  facet normal 0.968572 0 -0.248733
    outer loop
      vertex 26.7809 30.2 1.4725
      vertex 26.5315 33 0.501332
      vertex 26.7809 33 1.4725
    endloop
  endfacet
  facet normal 0.968572 0 -0.248733
    outer loop
      vertex 26.5315 33 0.501332
      vertex 26.7809 30.2 1.4725
      vertex 26.5315 30.2 0.501332
    endloop
  endfacet
  facet normal 0.968572 0 -0.248733
    outer loop
      vertex 26.7809 15.2 1.4725
      vertex 26.5315 25 0.501332
      vertex 26.7809 25 1.4725
    endloop
  endfacet
  facet normal 0.968572 0 -0.248733
    outer loop
      vertex 26.5315 25 0.501332
      vertex 26.7809 15.2 1.4725
      vertex 26.5315 15.2 0.501332
    endloop
  endfacet
  facet normal 0.876322 0 -0.481726
    outer loop
      vertex 27.2639 0 2.35114
      vertex 26.7809 10 1.4725
      vertex 27.2639 10 2.35114
    endloop
  endfacet
  facet normal 0.876322 0 -0.481726
    outer loop
      vertex 26.7809 10 1.4725
      vertex 27.2639 0 2.35114
      vertex 26.7809 0 1.4725
    endloop
  endfacet
  facet normal 0.876322 0 -0.481726
    outer loop
      vertex 27.2639 30.2 2.35114
      vertex 26.7809 33 1.4725
      vertex 27.2639 33 2.35114
    endloop
  endfacet
  facet normal 0.876322 0 -0.481726
    outer loop
      vertex 26.7809 33 1.4725
      vertex 27.2639 30.2 2.35114
      vertex 26.7809 30.2 1.4725
    endloop
  endfacet
  facet normal 0.876322 0 -0.481726
    outer loop
      vertex 27.2639 15.2 2.35114
      vertex 26.7809 25 1.4725
      vertex 27.2639 25 2.35114
    endloop
  endfacet
  facet normal 0.876322 0 -0.481726
    outer loop
      vertex 26.7809 25 1.4725
      vertex 27.2639 15.2 2.35114
      vertex 26.7809 15.2 1.4725
    endloop
  endfacet
  facet normal -0.187382 0 -0.982287
    outer loop
      vertex 30.7512 30.2 3.99211
      vertex 31.7361 33 3.80423
      vertex 31.7361 30.2 3.80423
    endloop
  endfacet
  facet normal -0.187382 0 -0.982287
    outer loop
      vertex 31.7361 33 3.80423
      vertex 30.7512 30.2 3.99211
      vertex 30.7512 33 3.99211
    endloop
  endfacet
  facet normal -0.187382 0 -0.982287
    outer loop
      vertex 30.7512 0 3.99211
      vertex 31.7361 10 3.80423
      vertex 31.7361 0 3.80423
    endloop
  endfacet
  facet normal -0.187382 0 -0.982287
    outer loop
      vertex 31.7361 10 3.80423
      vertex 30.7512 0 3.99211
      vertex 30.7512 10 3.99211
    endloop
  endfacet
  facet normal -0.187382 0 -0.982287
    outer loop
      vertex 30.7512 15.2 3.99211
      vertex 31.7361 25 3.80423
      vertex 31.7361 15.2 3.80423
    endloop
  endfacet
  facet normal -0.187382 0 -0.982287
    outer loop
      vertex 31.7361 25 3.80423
      vertex 30.7512 15.2 3.99211
      vertex 30.7512 25 3.99211
    endloop
  endfacet
  facet normal 0.0627918 0 -0.998027
    outer loop
      vertex 29.7505 30.2 3.92915
      vertex 30.7512 33 3.99211
      vertex 30.7512 30.2 3.99211
    endloop
  endfacet
  facet normal 0.0627918 0 -0.998027
    outer loop
      vertex 30.7512 33 3.99211
      vertex 29.7505 30.2 3.92915
      vertex 29.7505 33 3.92915
    endloop
  endfacet
  facet normal 0.0627918 0 -0.998027
    outer loop
      vertex 29.7505 0 3.92915
      vertex 30.7512 10 3.99211
      vertex 30.7512 0 3.99211
    endloop
  endfacet
  facet normal 0.0627918 0 -0.998027
    outer loop
      vertex 30.7512 10 3.99211
      vertex 29.7505 0 3.92915
      vertex 29.7505 10 3.92915
    endloop
  endfacet
  facet normal 0.0627918 0 -0.998027
    outer loop
      vertex 29.7505 15.2 3.92915
      vertex 30.7512 25 3.99211
      vertex 30.7512 15.2 3.99211
    endloop
  endfacet
  facet normal 0.0627918 0 -0.998027
    outer loop
      vertex 30.7512 25 3.99211
      vertex 29.7505 15.2 3.92915
      vertex 29.7505 25 3.92915
    endloop
  endfacet
  facet normal 0.309014 0 -0.951058
    outer loop
      vertex 28.7969 30.2 3.61931
      vertex 29.7505 33 3.92915
      vertex 29.7505 30.2 3.92915
    endloop
  endfacet
  facet normal 0.309014 0 -0.951058
    outer loop
      vertex 29.7505 33 3.92915
      vertex 28.7969 30.2 3.61931
      vertex 28.7969 33 3.61931
    endloop
  endfacet
  facet normal 0.309014 0 -0.951058
    outer loop
      vertex 28.7969 0 3.61931
      vertex 29.7505 10 3.92915
      vertex 29.7505 0 3.92915
    endloop
  endfacet
  facet normal 0.309014 0 -0.951058
    outer loop
      vertex 29.7505 10 3.92915
      vertex 28.7969 0 3.61931
      vertex 28.7969 10 3.61931
    endloop
  endfacet
  facet normal 0.309014 0 -0.951058
    outer loop
      vertex 28.7969 15.2 3.61931
      vertex 29.7505 25 3.92915
      vertex 29.7505 15.2 3.92915
    endloop
  endfacet
  facet normal 0.309014 0 -0.951058
    outer loop
      vertex 29.7505 25 3.92915
      vertex 28.7969 15.2 3.61931
      vertex 28.7969 25 3.61931
    endloop
  endfacet
  facet normal -0.809044 0 -0.587748
    outer loop
      vertex 34.0052 0 1.92701
      vertex 33.4159 10 2.73819
      vertex 34.0052 10 1.92701
    endloop
  endfacet
  facet normal -0.809044 -0 -0.587748
    outer loop
      vertex 33.4159 10 2.73819
      vertex 34.0052 0 1.92701
      vertex 33.4159 0 2.73819
    endloop
  endfacet
  facet normal -0.809044 0 -0.587748
    outer loop
      vertex 34.0052 30.2 1.92701
      vertex 33.4159 33 2.73819
      vertex 34.0052 33 1.92701
    endloop
  endfacet
  facet normal -0.809044 -0 -0.587748
    outer loop
      vertex 33.4159 33 2.73819
      vertex 34.0052 30.2 1.92701
      vertex 33.4159 30.2 2.73819
    endloop
  endfacet
  facet normal -0.809044 0 -0.587748
    outer loop
      vertex 34.0052 15.2 1.92701
      vertex 33.4159 25 2.73819
      vertex 34.0052 25 1.92701
    endloop
  endfacet
  facet normal -0.809044 -0 -0.587748
    outer loop
      vertex 33.4159 25 2.73819
      vertex 34.0052 15.2 1.92701
      vertex 33.4159 15.2 2.73819
    endloop
  endfacet
  facet normal -0.637406 0 -0.770528
    outer loop
      vertex 32.6433 0 3.37731
      vertex 33.4159 10 2.73819
      vertex 33.4159 0 2.73819
    endloop
  endfacet
  facet normal -0.637406 0 -0.770528
    outer loop
      vertex 33.4159 10 2.73819
      vertex 32.6433 0 3.37731
      vertex 32.6433 10 3.37731
    endloop
  endfacet
  facet normal -0.637406 0 -0.770528
    outer loop
      vertex 32.6433 30.2 3.37731
      vertex 33.4159 33 2.73819
      vertex 33.4159 30.2 2.73819
    endloop
  endfacet
  facet normal -0.637406 0 -0.770528
    outer loop
      vertex 33.4159 33 2.73819
      vertex 32.6433 30.2 3.37731
      vertex 32.6433 33 3.37731
    endloop
  endfacet
  facet normal -0.637406 0 -0.770528
    outer loop
      vertex 32.6433 15.2 3.37731
      vertex 33.4159 25 2.73819
      vertex 33.4159 15.2 2.73819
    endloop
  endfacet
  facet normal -0.637406 0 -0.770528
    outer loop
      vertex 33.4159 25 2.73819
      vertex 32.6433 15.2 3.37731
      vertex 32.6433 25 3.37731
    endloop
  endfacet
  facet normal -0.992111 0 -0.125365
    outer loop
      vertex 34.5 30.2 0
      vertex 34.3743 33 0.994759
      vertex 34.5 33 0
    endloop
  endfacet
  facet normal -0.992111 -0 -0.125365
    outer loop
      vertex 34.3743 33 0.994759
      vertex 34.5 30.2 0
      vertex 34.3743 30.2 0.994759
    endloop
  endfacet
  facet normal -0.992111 0 -0.125365
    outer loop
      vertex 34.5 0 0
      vertex 34.3743 10 0.994759
      vertex 34.5 10 0
    endloop
  endfacet
  facet normal -0.992111 -0 -0.125365
    outer loop
      vertex 34.3743 10 0.994759
      vertex 34.5 0 0
      vertex 34.3743 0 0.994759
    endloop
  endfacet
  facet normal -0.992111 0 -0.125365
    outer loop
      vertex 34.5 15.2 0
      vertex 34.3743 25 0.994759
      vertex 34.5 25 0
    endloop
  endfacet
  facet normal -0.992111 -0 -0.125365
    outer loop
      vertex 34.3743 25 0.994759
      vertex 34.5 15.2 0
      vertex 34.3743 15.2 0.994759
    endloop
  endfacet
  facet normal -0.929778 0 -0.368121
    outer loop
      vertex 34.3743 30.2 0.994759
      vertex 34.0052 33 1.92701
      vertex 34.3743 33 0.994759
    endloop
  endfacet
  facet normal -0.929778 -0 -0.368121
    outer loop
      vertex 34.0052 33 1.92701
      vertex 34.3743 30.2 0.994759
      vertex 34.0052 30.2 1.92701
    endloop
  endfacet
  facet normal -0.929778 0 -0.368121
    outer loop
      vertex 34.3743 0 0.994759
      vertex 34.0052 10 1.92701
      vertex 34.3743 10 0.994759
    endloop
  endfacet
  facet normal -0.929778 -0 -0.368121
    outer loop
      vertex 34.0052 10 1.92701
      vertex 34.3743 0 0.994759
      vertex 34.0052 0 1.92701
    endloop
  endfacet
  facet normal -0.929778 0 -0.368121
    outer loop
      vertex 34.3743 15.2 0.994759
      vertex 34.0052 25 1.92701
      vertex 34.3743 25 0.994759
    endloop
  endfacet
  facet normal -0.929778 -0 -0.368121
    outer loop
      vertex 34.0052 25 1.92701
      vertex 34.3743 15.2 0.994759
      vertex 34.0052 15.2 1.92701
    endloop
  endfacet
  facet normal 0.728954 0 -0.684563
    outer loop
      vertex 27.9503 0 3.08205
      vertex 27.2639 10 2.35114
      vertex 27.9503 10 3.08205
    endloop
  endfacet
  facet normal 0.728954 0 -0.684563
    outer loop
      vertex 27.2639 10 2.35114
      vertex 27.9503 0 3.08205
      vertex 27.2639 0 2.35114
    endloop
  endfacet
  facet normal 0.728954 0 -0.684563
    outer loop
      vertex 27.9503 30.2 3.08205
      vertex 27.2639 33 2.35114
      vertex 27.9503 33 3.08205
    endloop
  endfacet
  facet normal 0.728954 0 -0.684563
    outer loop
      vertex 27.2639 33 2.35114
      vertex 27.9503 30.2 3.08205
      vertex 27.2639 30.2 2.35114
    endloop
  endfacet
  facet normal 0.728954 0 -0.684563
    outer loop
      vertex 27.9503 15.2 3.08205
      vertex 27.2639 25 2.35114
      vertex 27.9503 25 3.08205
    endloop
  endfacet
  facet normal 0.728954 0 -0.684563
    outer loop
      vertex 27.2639 25 2.35114
      vertex 27.9503 15.2 3.08205
      vertex 27.2639 15.2 2.35114
    endloop
  endfacet
  facet normal -0.425799 0 -0.904818
    outer loop
      vertex 31.7361 30.2 3.80423
      vertex 32.6433 33 3.37731
      vertex 32.6433 30.2 3.37731
    endloop
  endfacet
  facet normal -0.425799 0 -0.904818
    outer loop
      vertex 32.6433 33 3.37731
      vertex 31.7361 30.2 3.80423
      vertex 31.7361 33 3.80423
    endloop
  endfacet
  facet normal -0.425799 0 -0.904818
    outer loop
      vertex 31.7361 0 3.80423
      vertex 32.6433 10 3.37731
      vertex 32.6433 0 3.37731
    endloop
  endfacet
  facet normal -0.425799 0 -0.904818
    outer loop
      vertex 32.6433 10 3.37731
      vertex 31.7361 0 3.80423
      vertex 31.7361 10 3.80423
    endloop
  endfacet
  facet normal -0.425799 0 -0.904818
    outer loop
      vertex 31.7361 15.2 3.80423
      vertex 32.6433 25 3.37731
      vertex 32.6433 15.2 3.37731
    endloop
  endfacet
  facet normal -0.425799 0 -0.904818
    outer loop
      vertex 32.6433 25 3.37731
      vertex 31.7361 15.2 3.80423
      vertex 31.7361 25 3.80423
    endloop
  endfacet
  facet normal -0.929778 0 -0.368119
    outer loop
      vertex 38.2487 10 1.98952
      vertex 37.5105 15.2 3.85403
      vertex 38.2487 15.2 1.98952
    endloop
  endfacet
  facet normal -0.929778 -0 -0.368119
    outer loop
      vertex 37.5105 15.2 3.85403
      vertex 38.2487 10 1.98952
      vertex 37.5105 10 3.85403
    endloop
  endfacet
  facet normal -0.992117 0 -0.125316
    outer loop
      vertex 38.5 10 0
      vertex 38.2487 15.2 1.98952
      vertex 38.5 15.2 0
    endloop
  endfacet
  facet normal -0.992117 -0 -0.125316
    outer loop
      vertex 38.2487 15.2 1.98952
      vertex 38.5 10 0
      vertex 38.2487 10 1.98952
    endloop
  endfacet
  facet normal -0.808995 0 -0.587816
    outer loop
      vertex 37.5105 10 3.85403
      vertex 36.3317 15.2 5.47638
      vertex 37.5105 15.2 3.85403
    endloop
  endfacet
  facet normal -0.808995 -0 -0.587816
    outer loop
      vertex 36.3317 15.2 5.47638
      vertex 37.5105 10 3.85403
      vertex 36.3317 10 5.47638
    endloop
  endfacet
  facet normal 0.309029 0 -0.951053
    outer loop
      vertex 27.0938 10 7.23862
      vertex 29.0009 15.2 7.8583
      vertex 29.0009 10 7.8583
    endloop
  endfacet
  facet normal 0.309029 0 -0.951053
    outer loop
      vertex 29.0009 15.2 7.8583
      vertex 27.0938 10 7.23862
      vertex 27.0938 15.2 7.23862
    endloop
  endfacet
  facet normal 0.728981 0 -0.684534
    outer loop
      vertex 25.4006 10 6.16411
      vertex 24.0279 15.2 4.70228
      vertex 25.4006 15.2 6.16411
    endloop
  endfacet
  facet normal 0.728981 0 -0.684534
    outer loop
      vertex 24.0279 15.2 4.70228
      vertex 25.4006 10 6.16411
      vertex 24.0279 10 4.70228
    endloop
  endfacet
  facet normal 0.535817 0 -0.844334
    outer loop
      vertex 25.4006 10 6.16411
      vertex 27.0938 15.2 7.23862
      vertex 27.0938 10 7.23862
    endloop
  endfacet
  facet normal 0.535817 0 -0.844334
    outer loop
      vertex 27.0938 15.2 7.23862
      vertex 25.4006 10 6.16411
      vertex 25.4006 15.2 6.16411
    endloop
  endfacet
  facet normal 1 -0 0
    outer loop
      vertex 22.5631 10 1.00267
      vertex 22.5631 15.2 0
      vertex 22.5631 15.2 1.00267
    endloop
  endfacet
  facet normal 1 0 0
    outer loop
      vertex 22.5631 15.2 0
      vertex 22.5631 10 1.00267
      vertex 22.5631 10 0
    endloop
  endfacet
  facet normal 0.0627868 0 -0.998027
    outer loop
      vertex 29.0009 10 7.8583
      vertex 31.0023 15.2 7.98421
      vertex 31.0023 10 7.98421
    endloop
  endfacet
  facet normal 0.0627868 0 -0.998027
    outer loop
      vertex 31.0023 15.2 7.98421
      vertex 29.0009 10 7.8583
      vertex 29.0009 15.2 7.8583
    endloop
  endfacet
  facet normal 0 -1 0
    outer loop
      vertex 29.0009 15.2 7.8583
      vertex 29.7505 15.2 3.92915
      vertex 30.7512 15.2 3.99211
    endloop
  endfacet
  facet normal 0 -1 0
    outer loop
      vertex 25.4006 15.2 6.16411
      vertex 28.7969 15.2 3.61931
      vertex 29.7505 15.2 3.92915
    endloop
  endfacet
  facet normal 0 -1 0
    outer loop
      vertex 25.4006 15.2 6.16411
      vertex 27.9503 15.2 3.08205
      vertex 28.7969 15.2 3.61931
    endloop
  endfacet
  facet normal 0 -1 0
    outer loop
      vertex 27.2639 15.2 2.35114
      vertex 24.0279 15.2 4.70228
      vertex 23.0618 15.2 2.945
    endloop
  endfacet
  facet normal 0 -1 0
    outer loop
      vertex 24.0279 15.2 4.70228
      vertex 27.2639 15.2 2.35114
      vertex 27.9503 15.2 3.08205
    endloop
  endfacet
  facet normal 0 -1 0
    outer loop
      vertex 23.0618 15.2 2.945
      vertex 26.7809 15.2 1.4725
      vertex 27.2639 15.2 2.35114
    endloop
  endfacet
  facet normal 0 -1 0
    outer loop
      vertex 22.5631 15.2 1.00267
      vertex 26.7809 15.2 1.4725
      vertex 23.0618 15.2 2.945
    endloop
  endfacet
  facet normal 0 -1 0
    outer loop
      vertex 22.5631 15.2 1.00267
      vertex 26.5315 15.2 0.501332
      vertex 26.7809 15.2 1.4725
    endloop
  endfacet
  facet normal 0 -1 0
    outer loop
      vertex 22.5631 15.2 0
      vertex 26.5315 15.2 0.501332
      vertex 22.5631 15.2 1.00267
    endloop
  endfacet
  facet normal 0 -1 -0
    outer loop
      vertex 26.5315 15.2 0.501332
      vertex 22.5631 15.2 0
      vertex 26.5315 15.2 0
    endloop
  endfacet
  facet normal 0 -1 0
    outer loop
      vertex 30.7512 15.2 3.99211
      vertex 31.0023 15.2 7.98421
      vertex 29.0009 15.2 7.8583
    endloop
  endfacet
  facet normal 0 -1 0
    outer loop
      vertex 29.7505 15.2 3.92915
      vertex 29.0009 15.2 7.8583
      vertex 27.0938 15.2 7.23862
    endloop
  endfacet
  facet normal 0 -1 -0
    outer loop
      vertex 31.0023 15.2 7.98421
      vertex 30.7512 15.2 3.99211
      vertex 32.9721 15.2 7.60845
    endloop
  endfacet
  facet normal 0 -1 0
    outer loop
      vertex 29.7505 15.2 3.92915
      vertex 27.0938 15.2 7.23862
      vertex 25.4006 15.2 6.16411
    endloop
  endfacet
  facet normal 0 -1 0
    outer loop
      vertex 31.7361 15.2 3.80423
      vertex 32.9721 15.2 7.60845
      vertex 30.7512 15.2 3.99211
    endloop
  endfacet
  facet normal 0 -1 0
    outer loop
      vertex 27.9503 15.2 3.08205
      vertex 25.4006 15.2 6.16411
      vertex 24.0279 15.2 4.70228
    endloop
  endfacet
  facet normal 0 -1 -0
    outer loop
      vertex 32.9721 15.2 7.60845
      vertex 31.7361 15.2 3.80423
      vertex 34.7866 15.2 6.75462
    endloop
  endfacet
  facet normal 0 -1 0
    outer loop
      vertex 32.6433 15.2 3.37731
      vertex 34.7866 15.2 6.75462
      vertex 31.7361 15.2 3.80423
    endloop
  endfacet
  facet normal 0 -1 -0
    outer loop
      vertex 34.7866 15.2 6.75462
      vertex 32.6433 15.2 3.37731
      vertex 36.3317 15.2 5.47638
    endloop
  endfacet
  facet normal 0 -1 0
    outer loop
      vertex 33.4159 15.2 2.73819
      vertex 36.3317 15.2 5.47638
      vertex 32.6433 15.2 3.37731
    endloop
  endfacet
  facet normal 0 -1 -0
    outer loop
      vertex 36.3317 15.2 5.47638
      vertex 33.4159 15.2 2.73819
      vertex 37.5105 15.2 3.85403
    endloop
  endfacet
  facet normal 0 -1 0
    outer loop
      vertex 34.0052 15.2 1.92701
      vertex 37.5105 15.2 3.85403
      vertex 33.4159 15.2 2.73819
    endloop
  endfacet
  facet normal 0 -1 -0
    outer loop
      vertex 37.5105 15.2 3.85403
      vertex 34.0052 15.2 1.92701
      vertex 38.2487 15.2 1.98952
    endloop
  endfacet
  facet normal 0 -1 0
    outer loop
      vertex 34.3743 15.2 0.994759
      vertex 38.2487 15.2 1.98952
      vertex 34.0052 15.2 1.92701
    endloop
  endfacet
  facet normal 0 -1 0
    outer loop
      vertex 34.5 15.2 0
      vertex 38.2487 15.2 1.98952
      vertex 34.3743 15.2 0.994759
    endloop
  endfacet
  facet normal 0 -1 -0
    outer loop
      vertex 38.2487 15.2 1.98952
      vertex 34.5 15.2 0
      vertex 38.5 15.2 0
    endloop
  endfacet
  facet normal -0.425776 0 -0.904829
    outer loop
      vertex 32.9721 10 7.60845
      vertex 34.7866 15.2 6.75462
      vertex 34.7866 10 6.75462
    endloop
  endfacet
  facet normal -0.425776 0 -0.904829
    outer loop
      vertex 34.7866 15.2 6.75462
      vertex 32.9721 10 7.60845
      vertex 32.9721 15.2 7.60845
    endloop
  endfacet
  facet normal 0.968584 0 -0.248687
    outer loop
      vertex 23.0618 10 2.945
      vertex 22.5631 15.2 1.00267
      vertex 23.0618 15.2 2.945
    endloop
  endfacet
  facet normal 0.968584 0 -0.248687
    outer loop
      vertex 22.5631 15.2 1.00267
      vertex 23.0618 10 2.945
      vertex 22.5631 10 1.00267
    endloop
  endfacet
  facet normal -0.187382 0 -0.982287
    outer loop
      vertex 31.0023 10 7.98421
      vertex 32.9721 15.2 7.60845
      vertex 32.9721 10 7.60845
    endloop
  endfacet
  facet normal -0.187382 0 -0.982287
    outer loop
      vertex 32.9721 15.2 7.60845
      vertex 31.0023 10 7.98421
      vertex 31.0023 15.2 7.98421
    endloop
  endfacet
  facet normal -0.637431 0 -0.770508
    outer loop
      vertex 34.7866 10 6.75462
      vertex 36.3317 15.2 5.47638
      vertex 36.3317 10 5.47638
    endloop
  endfacet
  facet normal -0.637431 0 -0.770508
    outer loop
      vertex 36.3317 15.2 5.47638
      vertex 34.7866 10 6.75462
      vertex 34.7866 15.2 6.75462
    endloop
  endfacet
  facet normal 0.876301 0 -0.481764
    outer loop
      vertex 24.0279 10 4.70228
      vertex 23.0618 15.2 2.945
      vertex 24.0279 15.2 4.70228
    endloop
  endfacet
  facet normal 0.876301 0 -0.481764
    outer loop
      vertex 23.0618 15.2 2.945
      vertex 24.0279 10 4.70228
      vertex 23.0618 10 2.945
    endloop
  endfacet
  facet normal 0 1 0
    outer loop
      vertex 30.7512 10 3.99211
      vertex 31.0023 10 7.98421
      vertex 32.9721 10 7.60845
    endloop
  endfacet
  facet normal 0 1 0
    outer loop
      vertex 31.0023 10 7.98421
      vertex 30.7512 10 3.99211
      vertex 29.0009 10 7.8583
    endloop
  endfacet
  facet normal 0 1 0
    outer loop
      vertex 31.7361 10 3.80423
      vertex 32.9721 10 7.60845
      vertex 34.7866 10 6.75462
    endloop
  endfacet
  facet normal 0 1 -0
    outer loop
      vertex 29.7505 10 3.92915
      vertex 29.0009 10 7.8583
      vertex 30.7512 10 3.99211
    endloop
  endfacet
  facet normal 0 1 0
    outer loop
      vertex 32.6433 10 3.37731
      vertex 34.7866 10 6.75462
      vertex 36.3317 10 5.47638
    endloop
  endfacet
  facet normal 0 1 0
    outer loop
      vertex 29.0009 10 7.8583
      vertex 29.7505 10 3.92915
      vertex 27.0938 10 7.23862
    endloop
  endfacet
  facet normal 0 1 -0
    outer loop
      vertex 28.7969 10 3.61931
      vertex 27.0938 10 7.23862
      vertex 29.7505 10 3.92915
    endloop
  endfacet
  facet normal 0 1 0
    outer loop
      vertex 33.4159 10 2.73819
      vertex 36.3317 10 5.47638
      vertex 37.5105 10 3.85403
    endloop
  endfacet
  facet normal 0 1 0
    outer loop
      vertex 32.9721 10 7.60845
      vertex 31.7361 10 3.80423
      vertex 30.7512 10 3.99211
    endloop
  endfacet
  facet normal 0 1 0
    outer loop
      vertex 34.7866 10 6.75462
      vertex 32.6433 10 3.37731
      vertex 31.7361 10 3.80423
    endloop
  endfacet
  facet normal 0 1 0
    outer loop
      vertex 36.3317 10 5.47638
      vertex 33.4159 10 2.73819
      vertex 32.6433 10 3.37731
    endloop
  endfacet
  facet normal 0 1 0
    outer loop
      vertex 34.0052 10 1.92701
      vertex 37.5105 10 3.85403
      vertex 38.2487 10 1.98952
    endloop
  endfacet
  facet normal 0 1 0
    outer loop
      vertex 37.5105 10 3.85403
      vertex 34.0052 10 1.92701
      vertex 33.4159 10 2.73819
    endloop
  endfacet
  facet normal 0 1 0
    outer loop
      vertex 38.2487 10 1.98952
      vertex 34.3743 10 0.994759
      vertex 34.0052 10 1.92701
    endloop
  endfacet
  facet normal 0 1 0
    outer loop
      vertex 38.5 10 0
      vertex 34.3743 10 0.994759
      vertex 38.2487 10 1.98952
    endloop
  endfacet
  facet normal 0 1 0
    outer loop
      vertex 34.3743 10 0.994759
      vertex 38.5 10 0
      vertex 34.5 10 0
    endloop
  endfacet
  facet normal 0 1 0
    outer loop
      vertex 27.0938 10 7.23862
      vertex 28.7969 10 3.61931
      vertex 25.4006 10 6.16411
    endloop
  endfacet
  facet normal 0 1 -0
    outer loop
      vertex 27.9503 10 3.08205
      vertex 25.4006 10 6.16411
      vertex 28.7969 10 3.61931
    endloop
  endfacet
  facet normal 0 1 0
    outer loop
      vertex 25.4006 10 6.16411
      vertex 27.9503 10 3.08205
      vertex 24.0279 10 4.70228
    endloop
  endfacet
  facet normal 0 1 -0
    outer loop
      vertex 27.2639 10 2.35114
      vertex 24.0279 10 4.70228
      vertex 27.9503 10 3.08205
    endloop
  endfacet
  facet normal 0 1 0
    outer loop
      vertex 24.0279 10 4.70228
      vertex 27.2639 10 2.35114
      vertex 23.0618 10 2.945
    endloop
  endfacet
  facet normal 0 1 -0
    outer loop
      vertex 26.7809 10 1.4725
      vertex 23.0618 10 2.945
      vertex 27.2639 10 2.35114
    endloop
  endfacet
  facet normal 0 1 0
    outer loop
      vertex 26.7809 10 1.4725
      vertex 22.5631 10 1.00267
      vertex 23.0618 10 2.945
    endloop
  endfacet
  facet normal 0 1 -0
    outer loop
      vertex 26.5315 10 0.501332
      vertex 22.5631 10 1.00267
      vertex 26.7809 10 1.4725
    endloop
  endfacet
  facet normal 0 1 0
    outer loop
      vertex 22.5631 10 0
      vertex 26.5315 10 0.501332
      vertex 26.5315 10 0
    endloop
  endfacet
  facet normal 0 1 0
    outer loop
      vertex 26.5315 10 0.501332
      vertex 22.5631 10 0
      vertex 22.5631 10 1.00267
    endloop
  endfacet
  facet normal -0.425776 0 -0.904829
    outer loop
      vertex 32.9721 25 7.60845
      vertex 34.7866 30.2 6.75462
      vertex 34.7866 25 6.75462
    endloop
  endfacet
  facet normal -0.425776 0 -0.904829
    outer loop
      vertex 34.7866 30.2 6.75462
      vertex 32.9721 25 7.60845
      vertex 32.9721 30.2 7.60845
    endloop
  endfacet
  facet normal 0.309029 0 -0.951053
    outer loop
      vertex 27.0938 25 7.23862
      vertex 29.0009 30.2 7.8583
      vertex 29.0009 25 7.8583
    endloop
  endfacet
  facet normal 0.309029 0 -0.951053
    outer loop
      vertex 29.0009 30.2 7.8583
      vertex 27.0938 25 7.23862
      vertex 27.0938 30.2 7.23862
    endloop
  endfacet
  facet normal -0.808995 0 -0.587816
    outer loop
      vertex 37.5105 25 3.85403
      vertex 36.3317 30.2 5.47638
      vertex 37.5105 30.2 3.85403
    endloop
  endfacet
  facet normal -0.808995 -0 -0.587816
    outer loop
      vertex 36.3317 30.2 5.47638
      vertex 37.5105 25 3.85403
      vertex 36.3317 25 5.47638
    endloop
  endfacet
  facet normal 0.876301 0 -0.481764
    outer loop
      vertex 24.0279 25 4.70228
      vertex 23.0618 30.2 2.945
      vertex 24.0279 30.2 4.70228
    endloop
  endfacet
  facet normal 0.876301 0 -0.481764
    outer loop
      vertex 23.0618 30.2 2.945
      vertex 24.0279 25 4.70228
      vertex 23.0618 25 2.945
    endloop
  endfacet
  facet normal 0 1 0
    outer loop
      vertex 30.7512 25 3.99211
      vertex 31.0023 25 7.98421
      vertex 32.9721 25 7.60845
    endloop
  endfacet
  facet normal 0 1 0
    outer loop
      vertex 31.0023 25 7.98421
      vertex 30.7512 25 3.99211
      vertex 29.0009 25 7.8583
    endloop
  endfacet
  facet normal 0 1 0
    outer loop
      vertex 31.7361 25 3.80423
      vertex 32.9721 25 7.60845
      vertex 34.7866 25 6.75462
    endloop
  endfacet
  facet normal 0 1 -0
    outer loop
      vertex 29.7505 25 3.92915
      vertex 29.0009 25 7.8583
      vertex 30.7512 25 3.99211
    endloop
  endfacet
  facet normal 0 1 0
    outer loop
      vertex 32.6433 25 3.37731
      vertex 34.7866 25 6.75462
      vertex 36.3317 25 5.47638
    endloop
  endfacet
  facet normal 0 1 0
    outer loop
      vertex 29.0009 25 7.8583
      vertex 29.7505 25 3.92915
      vertex 27.0938 25 7.23862
    endloop
  endfacet
  facet normal 0 1 -0
    outer loop
      vertex 28.7969 25 3.61931
      vertex 27.0938 25 7.23862
      vertex 29.7505 25 3.92915
    endloop
  endfacet
  facet normal 0 1 0
    outer loop
      vertex 33.4159 25 2.73819
      vertex 36.3317 25 5.47638
      vertex 37.5105 25 3.85403
    endloop
  endfacet
  facet normal 0 1 0
    outer loop
      vertex 32.9721 25 7.60845
      vertex 31.7361 25 3.80423
      vertex 30.7512 25 3.99211
    endloop
  endfacet
  facet normal 0 1 0
    outer loop
      vertex 34.7866 25 6.75462
      vertex 32.6433 25 3.37731
      vertex 31.7361 25 3.80423
    endloop
  endfacet
  facet normal 0 1 0
    outer loop
      vertex 36.3317 25 5.47638
      vertex 33.4159 25 2.73819
      vertex 32.6433 25 3.37731
    endloop
  endfacet
  facet normal 0 1 0
    outer loop
      vertex 34.0052 25 1.92701
      vertex 37.5105 25 3.85403
      vertex 38.2487 25 1.98952
    endloop
  endfacet
  facet normal 0 1 0
    outer loop
      vertex 37.5105 25 3.85403
      vertex 34.0052 25 1.92701
      vertex 33.4159 25 2.73819
    endloop
  endfacet
  facet normal 0 1 0
    outer loop
      vertex 38.2487 25 1.98952
      vertex 34.3743 25 0.994759
      vertex 34.0052 25 1.92701
    endloop
  endfacet
  facet normal 0 1 0
    outer loop
      vertex 38.5 25 0
      vertex 34.3743 25 0.994759
      vertex 38.2487 25 1.98952
    endloop
  endfacet
  facet normal 0 1 0
    outer loop
      vertex 34.3743 25 0.994759
      vertex 38.5 25 0
      vertex 34.5 25 0
    endloop
  endfacet
  facet normal 0 1 0
    outer loop
      vertex 27.0938 25 7.23862
      vertex 28.7969 25 3.61931
      vertex 25.4006 25 6.16411
    endloop
  endfacet
  facet normal 0 1 -0
    outer loop
      vertex 27.9503 25 3.08205
      vertex 25.4006 25 6.16411
      vertex 28.7969 25 3.61931
    endloop
  endfacet
  facet normal 0 1 0
    outer loop
      vertex 25.4006 25 6.16411
      vertex 27.9503 25 3.08205
      vertex 24.0279 25 4.70228
    endloop
  endfacet
  facet normal 0 1 -0
    outer loop
      vertex 27.2639 25 2.35114
      vertex 24.0279 25 4.70228
      vertex 27.9503 25 3.08205
    endloop
  endfacet
  facet normal 0 1 0
    outer loop
      vertex 24.0279 25 4.70228
      vertex 27.2639 25 2.35114
      vertex 23.0618 25 2.945
    endloop
  endfacet
  facet normal 0 1 -0
    outer loop
      vertex 26.7809 25 1.4725
      vertex 23.0618 25 2.945
      vertex 27.2639 25 2.35114
    endloop
  endfacet
  facet normal 0 1 0
    outer loop
      vertex 26.7809 25 1.4725
      vertex 22.5631 25 1.00267
      vertex 23.0618 25 2.945
    endloop
  endfacet
  facet normal 0 1 -0
    outer loop
      vertex 26.5315 25 0.501332
      vertex 22.5631 25 1.00267
      vertex 26.7809 25 1.4725
    endloop
  endfacet
  facet normal 0 1 0
    outer loop
      vertex 22.5631 25 0
      vertex 26.5315 25 0.501332
      vertex 26.5315 25 0
    endloop
  endfacet
  facet normal 0 1 0
    outer loop
      vertex 26.5315 25 0.501332
      vertex 22.5631 25 0
      vertex 22.5631 25 1.00267
    endloop
  endfacet
  facet normal 0.728981 0 -0.684534
    outer loop
      vertex 25.4006 25 6.16411
      vertex 24.0279 30.2 4.70228
      vertex 25.4006 30.2 6.16411
    endloop
  endfacet
  facet normal 0.728981 0 -0.684534
    outer loop
      vertex 24.0279 30.2 4.70228
      vertex 25.4006 25 6.16411
      vertex 24.0279 25 4.70228
    endloop
  endfacet
  facet normal 0.0627868 0 -0.998027
    outer loop
      vertex 29.0009 25 7.8583
      vertex 31.0023 30.2 7.98421
      vertex 31.0023 25 7.98421
    endloop
  endfacet
  facet normal 0.0627868 0 -0.998027
    outer loop
      vertex 31.0023 30.2 7.98421
      vertex 29.0009 25 7.8583
      vertex 29.0009 30.2 7.8583
    endloop
  endfacet
  facet normal -0.187382 0 -0.982287
    outer loop
      vertex 31.0023 25 7.98421
      vertex 32.9721 30.2 7.60845
      vertex 32.9721 25 7.60845
    endloop
  endfacet
  facet normal -0.187382 0 -0.982287
    outer loop
      vertex 32.9721 30.2 7.60845
      vertex 31.0023 25 7.98421
      vertex 31.0023 30.2 7.98421
    endloop
  endfacet
  facet normal -0.637431 0 -0.770508
    outer loop
      vertex 34.7866 25 6.75462
      vertex 36.3317 30.2 5.47638
      vertex 36.3317 25 5.47638
    endloop
  endfacet
  facet normal -0.637431 0 -0.770508
    outer loop
      vertex 36.3317 30.2 5.47638
      vertex 34.7866 25 6.75462
      vertex 34.7866 30.2 6.75462
    endloop
  endfacet
  facet normal 0.535817 0 -0.844334
    outer loop
      vertex 25.4006 25 6.16411
      vertex 27.0938 30.2 7.23862
      vertex 27.0938 25 7.23862
    endloop
  endfacet
  facet normal 0.535817 0 -0.844334
    outer loop
      vertex 27.0938 30.2 7.23862
      vertex 25.4006 25 6.16411
      vertex 25.4006 30.2 6.16411
    endloop
  endfacet
  facet normal 1 -0 0
    outer loop
      vertex 22.5631 25 1.00267
      vertex 22.5631 30.2 0
      vertex 22.5631 30.2 1.00267
    endloop
  endfacet
  facet normal 1 0 0
    outer loop
      vertex 22.5631 30.2 0
      vertex 22.5631 25 1.00267
      vertex 22.5631 25 0
    endloop
  endfacet
  facet normal 0.968584 0 -0.248687
    outer loop
      vertex 23.0618 25 2.945
      vertex 22.5631 30.2 1.00267
      vertex 23.0618 30.2 2.945
    endloop
  endfacet
  facet normal 0.968584 0 -0.248687
    outer loop
      vertex 22.5631 30.2 1.00267
      vertex 23.0618 25 2.945
      vertex 22.5631 25 1.00267
    endloop
  endfacet
  facet normal -0.929778 0 -0.368119
    outer loop
      vertex 38.2487 25 1.98952
      vertex 37.5105 30.2 3.85403
      vertex 38.2487 30.2 1.98952
    endloop
  endfacet
  facet normal -0.929778 -0 -0.368119
    outer loop
      vertex 37.5105 30.2 3.85403
      vertex 38.2487 25 1.98952
      vertex 37.5105 25 3.85403
    endloop
  endfacet
  facet normal -0.992117 0 -0.125316
    outer loop
      vertex 38.5 25 0
      vertex 38.2487 30.2 1.98952
      vertex 38.5 30.2 0
    endloop
  endfacet
  facet normal -0.992117 -0 -0.125316
    outer loop
      vertex 38.2487 30.2 1.98952
      vertex 38.5 25 0
      vertex 38.2487 25 1.98952
    endloop
  endfacet
  facet normal 0 -1 0
    outer loop
      vertex 29.0009 30.2 7.8583
      vertex 29.7505 30.2 3.92915
      vertex 30.7512 30.2 3.99211
    endloop
  endfacet
  facet normal 0 -1 0
    outer loop
      vertex 25.4006 30.2 6.16411
      vertex 28.7969 30.2 3.61931
      vertex 29.7505 30.2 3.92915
    endloop
  endfacet
  facet normal 0 -1 0
    outer loop
      vertex 25.4006 30.2 6.16411
      vertex 27.9503 30.2 3.08205
      vertex 28.7969 30.2 3.61931
    endloop
  endfacet
  facet normal 0 -1 0
    outer loop
      vertex 27.2639 30.2 2.35114
      vertex 24.0279 30.2 4.70228
      vertex 23.0618 30.2 2.945
    endloop
  endfacet
  facet normal 0 -1 0
    outer loop
      vertex 24.0279 30.2 4.70228
      vertex 27.2639 30.2 2.35114
      vertex 27.9503 30.2 3.08205
    endloop
  endfacet
  facet normal 0 -1 0
    outer loop
      vertex 23.0618 30.2 2.945
      vertex 26.7809 30.2 1.4725
      vertex 27.2639 30.2 2.35114
    endloop
  endfacet
  facet normal 0 -1 0
    outer loop
      vertex 22.5631 30.2 1.00267
      vertex 26.7809 30.2 1.4725
      vertex 23.0618 30.2 2.945
    endloop
  endfacet
  facet normal 0 -1 0
    outer loop
      vertex 22.5631 30.2 1.00267
      vertex 26.5315 30.2 0.501332
      vertex 26.7809 30.2 1.4725
    endloop
  endfacet
  facet normal 0 -1 0
    outer loop
      vertex 22.5631 30.2 0
      vertex 26.5315 30.2 0.501332
      vertex 22.5631 30.2 1.00267
    endloop
  endfacet
  facet normal 0 -1 -0
    outer loop
      vertex 26.5315 30.2 0.501332
      vertex 22.5631 30.2 0
      vertex 26.5315 30.2 0
    endloop
  endfacet
  facet normal 0 -1 0
    outer loop
      vertex 30.7512 30.2 3.99211
      vertex 31.0023 30.2 7.98421
      vertex 29.0009 30.2 7.8583
    endloop
  endfacet
  facet normal 0 -1 0
    outer loop
      vertex 29.7505 30.2 3.92915
      vertex 29.0009 30.2 7.8583
      vertex 27.0938 30.2 7.23862
    endloop
  endfacet
  facet normal 0 -1 -0
    outer loop
      vertex 31.0023 30.2 7.98421
      vertex 30.7512 30.2 3.99211
      vertex 32.9721 30.2 7.60845
    endloop
  endfacet
  facet normal 0 -1 0
    outer loop
      vertex 29.7505 30.2 3.92915
      vertex 27.0938 30.2 7.23862
      vertex 25.4006 30.2 6.16411
    endloop
  endfacet
  facet normal 0 -1 0
    outer loop
      vertex 31.7361 30.2 3.80423
      vertex 32.9721 30.2 7.60845
      vertex 30.7512 30.2 3.99211
    endloop
  endfacet
  facet normal 0 -1 0
    outer loop
      vertex 27.9503 30.2 3.08205
      vertex 25.4006 30.2 6.16411
      vertex 24.0279 30.2 4.70228
    endloop
  endfacet
  facet normal 0 -1 -0
    outer loop
      vertex 32.9721 30.2 7.60845
      vertex 31.7361 30.2 3.80423
      vertex 34.7866 30.2 6.75462
    endloop
  endfacet
  facet normal 0 -1 0
    outer loop
      vertex 32.6433 30.2 3.37731
      vertex 34.7866 30.2 6.75462
      vertex 31.7361 30.2 3.80423
    endloop
  endfacet
  facet normal 0 -1 -0
    outer loop
      vertex 34.7866 30.2 6.75462
      vertex 32.6433 30.2 3.37731
      vertex 36.3317 30.2 5.47638
    endloop
  endfacet
  facet normal 0 -1 0
    outer loop
      vertex 33.4159 30.2 2.73819
      vertex 36.3317 30.2 5.47638
      vertex 32.6433 30.2 3.37731
    endloop
  endfacet
  facet normal 0 -1 -0
    outer loop
      vertex 36.3317 30.2 5.47638
      vertex 33.4159 30.2 2.73819
      vertex 37.5105 30.2 3.85403
    endloop
  endfacet
  facet normal 0 -1 0
    outer loop
      vertex 34.0052 30.2 1.92701
      vertex 37.5105 30.2 3.85403
      vertex 33.4159 30.2 2.73819
    endloop
  endfacet
  facet normal 0 -1 -0
    outer loop
      vertex 37.5105 30.2 3.85403
      vertex 34.0052 30.2 1.92701
      vertex 38.2487 30.2 1.98952
    endloop
  endfacet
  facet normal 0 -1 0
    outer loop
      vertex 34.3743 30.2 0.994759
      vertex 38.2487 30.2 1.98952
      vertex 34.0052 30.2 1.92701
    endloop
  endfacet
  facet normal 0 -1 0
    outer loop
      vertex 34.5 30.2 0
      vertex 38.2487 30.2 1.98952
      vertex 34.3743 30.2 0.994759
    endloop
  endfacet
  facet normal 0 -1 -0
    outer loop
      vertex 38.2487 30.2 1.98952
      vertex 34.5 30.2 0
      vertex 38.5 30.2 0
    endloop
  endfacet
  facet normal -1 0 0
    outer loop
      vertex 17.7 0 0
      vertex 17.7 33 10
      vertex 17.7 33 0
    endloop
  endfacet
  facet normal -1 -0 0
    outer loop
      vertex 17.7 33 10
      vertex 17.7 0 0
      vertex 17.7 0 10
    endloop
  endfacet
  facet normal 0 0 -1
    outer loop
      vertex 5.3 0 10
      vertex 17.7 33 10
      vertex 17.7 0 10
    endloop
  endfacet
  facet normal -0 0 -1
    outer loop
      vertex 17.7 33 10
      vertex 5.3 0 10
      vertex 5.3 33 10
    endloop
  endfacet
  facet normal 1 -0 0
    outer loop
      vertex 5.3 0 10
      vertex 5.3 33 0
      vertex 5.3 33 10
    endloop
  endfacet
  facet normal 1 0 0
    outer loop
      vertex 5.3 33 0
      vertex 5.3 0 10
      vertex 5.3 0 0
    endloop
  endfacet
  facet normal -0.929791 -0.368087 0
    outer loop
      vertex 24.1793 5.55955 0
      vertex 23.9717 6.08395 13
      vertex 23.9717 6.08395 0
    endloop
  endfacet
  facet normal -0.929791 -0.368087 0
    outer loop
      vertex 23.9717 6.08395 13
      vertex 24.1793 5.55955 0
      vertex 24.1793 5.55955 13
    endloop
  endfacet
  facet normal -0.992112 -0.125355 0
    outer loop
      vertex 24.25 5 0
      vertex 24.1793 5.55955 13
      vertex 24.1793 5.55955 0
    endloop
  endfacet
  facet normal -0.992112 -0.125355 0
    outer loop
      vertex 24.1793 5.55955 13
      vertex 24.25 5 0
      vertex 24.25 5 13
    endloop
  endfacet
  facet normal -0.809023 -0.587777 0
    outer loop
      vertex 23.9717 6.08395 0
      vertex 23.6402 6.54023 13
      vertex 23.6402 6.54023 0
    endloop
  endfacet
  facet normal -0.809023 -0.587777 0
    outer loop
      vertex 23.6402 6.54023 13
      vertex 23.9717 6.08395 0
      vertex 23.9717 6.08395 13
    endloop
  endfacet
  facet normal 0.0627823 -0.998027 0
    outer loop
      vertex 21.5784 7.21015 0
      vertex 22.1413 7.24556 13
      vertex 21.5784 7.21015 13
    endloop
  endfacet
  facet normal 0.0627823 -0.998027 0
    outer loop
      vertex 22.1413 7.24556 13
      vertex 21.5784 7.21015 0
      vertex 22.1413 7.24556 0
    endloop
  endfacet
  facet normal 0.728948 -0.684569 0
    outer loop
      vertex 20.1797 6.32252 13
      vertex 20.5658 6.73365 0
      vertex 20.5658 6.73365 13
    endloop
  endfacet
  facet normal 0.728948 -0.684569 0
    outer loop
      vertex 20.5658 6.73365 0
      vertex 20.1797 6.32252 13
      vertex 20.1797 6.32252 0
    endloop
  endfacet
  facet normal -0.992112 0.125355 0
    outer loop
      vertex 24.1793 4.44045 0
      vertex 24.25 5 13
      vertex 24.25 5 0
    endloop
  endfacet
  facet normal -0.992112 0.125355 0
    outer loop
      vertex 24.25 5 13
      vertex 24.1793 4.44045 0
      vertex 24.1793 4.44045 13
    endloop
  endfacet
  facet normal -0.425795 -0.90482 0
    outer loop
      vertex 22.6953 7.13988 0
      vertex 23.2056 6.89974 13
      vertex 22.6953 7.13988 13
    endloop
  endfacet
  facet normal -0.425795 -0.90482 -0
    outer loop
      vertex 23.2056 6.89974 13
      vertex 22.6953 7.13988 0
      vertex 23.2056 6.89974 0
    endloop
  endfacet
  facet normal 0.535832 -0.844324 0
    outer loop
      vertex 20.5658 6.73365 0
      vertex 21.042 7.03586 13
      vertex 20.5658 6.73365 13
    endloop
  endfacet
  facet normal 0.535832 -0.844324 0
    outer loop
      vertex 21.042 7.03586 13
      vertex 20.5658 6.73365 0
      vertex 21.042 7.03586 0
    endloop
  endfacet
  facet normal -0.809023 0.587777 0
    outer loop
      vertex 23.6402 3.45977 0
      vertex 23.9717 3.91605 13
      vertex 23.9717 3.91605 0
    endloop
  endfacet
  facet normal -0.809023 0.587777 0
    outer loop
      vertex 23.9717 3.91605 13
      vertex 23.6402 3.45977 0
      vertex 23.6402 3.45977 13
    endloop
  endfacet
  facet normal 0.0627823 0.998027 -0
    outer loop
      vertex 22.1413 2.75444 0
      vertex 21.5784 2.78985 13
      vertex 22.1413 2.75444 13
    endloop
  endfacet
  facet normal 0.0627823 0.998027 0
    outer loop
      vertex 21.5784 2.78985 13
      vertex 22.1413 2.75444 0
      vertex 21.5784 2.78985 0
    endloop
  endfacet
  facet normal -0.425795 0.90482 0
    outer loop
      vertex 23.2056 3.10026 0
      vertex 22.6953 2.86012 13
      vertex 23.2056 3.10026 13
    endloop
  endfacet
  facet normal -0.425795 0.90482 0
    outer loop
      vertex 22.6953 2.86012 13
      vertex 23.2056 3.10026 0
      vertex 22.6953 2.86012 0
    endloop
  endfacet
  facet normal -0.6374 -0.770533 0
    outer loop
      vertex 23.2056 6.89974 0
      vertex 23.6402 6.54023 13
      vertex 23.2056 6.89974 13
    endloop
  endfacet
  facet normal -0.6374 -0.770533 -0
    outer loop
      vertex 23.6402 6.54023 13
      vertex 23.2056 6.89974 0
      vertex 23.6402 6.54023 0
    endloop
  endfacet
  facet normal -0.6374 0.770533 0
    outer loop
      vertex 23.6402 3.45977 0
      vertex 23.2056 3.10026 13
      vertex 23.6402 3.45977 13
    endloop
  endfacet
  facet normal -0.6374 0.770533 0
    outer loop
      vertex 23.2056 3.10026 13
      vertex 23.6402 3.45977 0
      vertex 23.2056 3.10026 0
    endloop
  endfacet
  facet normal 0.728948 0.684569 0
    outer loop
      vertex 20.5658 3.26635 13
      vertex 20.1797 3.67748 0
      vertex 20.1797 3.67748 13
    endloop
  endfacet
  facet normal 0.728948 0.684569 0
    outer loop
      vertex 20.1797 3.67748 0
      vertex 20.5658 3.26635 13
      vertex 20.5658 3.26635 0
    endloop
  endfacet
  facet normal 0.309022 -0.951055 0
    outer loop
      vertex 21.042 7.03586 0
      vertex 21.5784 7.21015 13
      vertex 21.042 7.03586 13
    endloop
  endfacet
  facet normal 0.309022 -0.951055 0
    outer loop
      vertex 21.5784 7.21015 13
      vertex 21.042 7.03586 0
      vertex 21.5784 7.21015 0
    endloop
  endfacet
  facet normal 0.876315 -0.481739 0
    outer loop
      vertex 19.908 5.82828 13
      vertex 20.1797 6.32252 0
      vertex 20.1797 6.32252 13
    endloop
  endfacet
  facet normal 0.876315 -0.481739 0
    outer loop
      vertex 20.1797 6.32252 0
      vertex 19.908 5.82828 13
      vertex 19.908 5.82828 0
    endloop
  endfacet
  facet normal 0.309022 0.951055 -0
    outer loop
      vertex 21.5784 2.78985 0
      vertex 21.042 2.96414 13
      vertex 21.5784 2.78985 13
    endloop
  endfacet
  facet normal 0.309022 0.951055 0
    outer loop
      vertex 21.042 2.96414 13
      vertex 21.5784 2.78985 0
      vertex 21.042 2.96414 0
    endloop
  endfacet
  facet normal -0.929791 0.368087 0
    outer loop
      vertex 23.9717 3.91605 0
      vertex 24.1793 4.44045 13
      vertex 24.1793 4.44045 0
    endloop
  endfacet
  facet normal -0.929791 0.368087 0
    outer loop
      vertex 24.1793 4.44045 13
      vertex 23.9717 3.91605 0
      vertex 23.9717 3.91605 13
    endloop
  endfacet
  facet normal -0.187379 0.982288 0
    outer loop
      vertex 22.6953 2.86012 0
      vertex 22.1413 2.75444 13
      vertex 22.6953 2.86012 13
    endloop
  endfacet
  facet normal -0.187379 0.982288 0
    outer loop
      vertex 22.1413 2.75444 13
      vertex 22.6953 2.86012 0
      vertex 22.1413 2.75444 0
    endloop
  endfacet
  facet normal 0.968566 0.248755 0
    outer loop
      vertex 19.908 4.17172 13
      vertex 19.7677 4.718 0
      vertex 19.7677 4.718 13
    endloop
  endfacet
  facet normal 0.968566 0.248755 0
    outer loop
      vertex 19.7677 4.718 0
      vertex 19.908 4.17172 13
      vertex 19.908 4.17172 0
    endloop
  endfacet
  facet normal 1 -0 0
    outer loop
      vertex 19.7677 4.718 13
      vertex 19.7677 5.282 0
      vertex 19.7677 5.282 13
    endloop
  endfacet
  facet normal 1 0 0
    outer loop
      vertex 19.7677 5.282 0
      vertex 19.7677 4.718 13
      vertex 19.7677 4.718 0
    endloop
  endfacet
  facet normal 0.876315 0.481739 0
    outer loop
      vertex 20.1797 3.67748 13
      vertex 19.908 4.17172 0
      vertex 19.908 4.17172 13
    endloop
  endfacet
  facet normal 0.876315 0.481739 0
    outer loop
      vertex 19.908 4.17172 0
      vertex 20.1797 3.67748 13
      vertex 20.1797 3.67748 0
    endloop
  endfacet
  facet normal -0.187379 -0.982288 0
    outer loop
      vertex 22.1413 7.24556 0
      vertex 22.6953 7.13988 13
      vertex 22.1413 7.24556 13
    endloop
  endfacet
  facet normal -0.187379 -0.982288 -0
    outer loop
      vertex 22.6953 7.13988 13
      vertex 22.1413 7.24556 0
      vertex 22.6953 7.13988 0
    endloop
  endfacet
  facet normal 0.535832 0.844324 -0
    outer loop
      vertex 21.042 2.96414 0
      vertex 20.5658 3.26635 13
      vertex 21.042 2.96414 13
    endloop
  endfacet
  facet normal 0.535832 0.844324 0
    outer loop
      vertex 20.5658 3.26635 13
      vertex 21.042 2.96414 0
      vertex 20.5658 3.26635 0
    endloop
  endfacet
  facet normal 0.968566 -0.248755 0
    outer loop
      vertex 19.7677 5.282 13
      vertex 19.908 5.82828 0
      vertex 19.908 5.82828 13
    endloop
  endfacet
  facet normal 0.968566 -0.248755 0
    outer loop
      vertex 19.908 5.82828 0
      vertex 19.7677 5.282 13
      vertex 19.7677 5.282 0
    endloop
  endfacet
  facet normal -0.929767 -0.368147 0
    outer loop
      vertex 24.1793 20.5596 0
      vertex 23.9717 21.0839 13
      vertex 23.9717 21.0839 0
    endloop
  endfacet
  facet normal -0.929767 -0.368147 0
    outer loop
      vertex 23.9717 21.0839 13
      vertex 24.1793 20.5596 0
      vertex 24.1793 20.5596 13
    endloop
  endfacet
  facet normal -0.992113 -0.125344 0
    outer loop
      vertex 24.25 20 0
      vertex 24.1793 20.5596 13
      vertex 24.1793 20.5596 0
    endloop
  endfacet
  facet normal -0.992113 -0.125344 0
    outer loop
      vertex 24.1793 20.5596 13
      vertex 24.25 20 0
      vertex 24.25 20 13
    endloop
  endfacet
  facet normal -0.809035 -0.58776 0
    outer loop
      vertex 23.9717 21.0839 0
      vertex 23.6402 21.5402 13
      vertex 23.6402 21.5402 0
    endloop
  endfacet
  facet normal -0.809035 -0.58776 0
    outer loop
      vertex 23.6402 21.5402 13
      vertex 23.9717 21.0839 0
      vertex 23.9717 21.0839 13
    endloop
  endfacet
  facet normal 0.0629412 -0.998017 0
    outer loop
      vertex 21.5784 22.2101 0
      vertex 22.1413 22.2456 13
      vertex 21.5784 22.2101 13
    endloop
  endfacet
  facet normal 0.0629412 -0.998017 0
    outer loop
      vertex 22.1413 22.2456 13
      vertex 21.5784 22.2101 0
      vertex 22.1413 22.2456 0
    endloop
  endfacet
  facet normal 0.729006 -0.684507 0
    outer loop
      vertex 20.1797 21.3225 13
      vertex 20.5658 21.7337 0
      vertex 20.5658 21.7337 13
    endloop
  endfacet
  facet normal 0.729006 -0.684507 0
    outer loop
      vertex 20.5658 21.7337 0
      vertex 20.1797 21.3225 13
      vertex 20.1797 21.3225 0
    endloop
  endfacet
  facet normal -0.992113 0.125344 0
    outer loop
      vertex 24.1793 19.4404 0
      vertex 24.25 20 13
      vertex 24.25 20 0
    endloop
  endfacet
  facet normal -0.992113 0.125344 0
    outer loop
      vertex 24.25 20 13
      vertex 24.1793 19.4404 0
      vertex 24.1793 19.4404 13
    endloop
  endfacet
  facet normal -0.425882 -0.904779 0
    outer loop
      vertex 22.6953 22.1399 0
      vertex 23.2056 21.8997 13
      vertex 22.6953 22.1399 13
    endloop
  endfacet
  facet normal -0.425882 -0.904779 -0
    outer loop
      vertex 23.2056 21.8997 13
      vertex 22.6953 22.1399 0
      vertex 23.2056 21.8997 0
    endloop
  endfacet
  facet normal 0.53582 -0.844333 0
    outer loop
      vertex 20.5658 21.7337 0
      vertex 21.042 22.0359 13
      vertex 20.5658 21.7337 13
    endloop
  endfacet
  facet normal 0.53582 -0.844333 0
    outer loop
      vertex 21.042 22.0359 13
      vertex 20.5658 21.7337 0
      vertex 21.042 22.0359 0
    endloop
  endfacet
  facet normal -0.809035 0.58776 0
    outer loop
      vertex 23.6402 18.4598 0
      vertex 23.9717 18.9161 13
      vertex 23.9717 18.9161 0
    endloop
  endfacet
  facet normal -0.809035 0.58776 0
    outer loop
      vertex 23.9717 18.9161 13
      vertex 23.6402 18.4598 0
      vertex 23.6402 18.4598 13
    endloop
  endfacet
  facet normal 0.0629412 0.998017 -0
    outer loop
      vertex 22.1413 17.7544 0
      vertex 21.5784 17.7899 13
      vertex 22.1413 17.7544 13
    endloop
  endfacet
  facet normal 0.0629412 0.998017 0
    outer loop
      vertex 21.5784 17.7899 13
      vertex 22.1413 17.7544 0
      vertex 21.5784 17.7899 0
    endloop
  endfacet
  facet normal -0.425882 0.904779 0
    outer loop
      vertex 23.2056 18.1003 0
      vertex 22.6953 17.8601 13
      vertex 23.2056 18.1003 13
    endloop
  endfacet
  facet normal -0.425882 0.904779 0
    outer loop
      vertex 22.6953 17.8601 13
      vertex 23.2056 18.1003 0
      vertex 22.6953 17.8601 0
    endloop
  endfacet
  facet normal -0.63739 -0.770541 0
    outer loop
      vertex 23.2056 21.8997 0
      vertex 23.6402 21.5402 13
      vertex 23.2056 21.8997 13
    endloop
  endfacet
  facet normal -0.63739 -0.770541 -0
    outer loop
      vertex 23.6402 21.5402 13
      vertex 23.2056 21.8997 0
      vertex 23.6402 21.5402 0
    endloop
  endfacet
  facet normal -0.63739 0.770541 0
    outer loop
      vertex 23.6402 18.4598 0
      vertex 23.2056 18.1003 13
      vertex 23.6402 18.4598 13
    endloop
  endfacet
  facet normal -0.63739 0.770541 0
    outer loop
      vertex 23.2056 18.1003 13
      vertex 23.6402 18.4598 0
      vertex 23.2056 18.1003 0
    endloop
  endfacet
  facet normal 0.729006 0.684507 0
    outer loop
      vertex 20.5658 18.2663 13
      vertex 20.1797 18.6775 0
      vertex 20.1797 18.6775 13
    endloop
  endfacet
  facet normal 0.729006 0.684507 0
    outer loop
      vertex 20.1797 18.6775 0
      vertex 20.5658 18.2663 13
      vertex 20.5658 18.2663 0
    endloop
  endfacet
  facet normal 0.308878 -0.951102 0
    outer loop
      vertex 21.042 22.0359 0
      vertex 21.5784 22.2101 13
      vertex 21.042 22.0359 13
    endloop
  endfacet
  facet normal 0.308878 -0.951102 0
    outer loop
      vertex 21.5784 22.2101 13
      vertex 21.042 22.0359 0
      vertex 21.5784 22.2101 0
    endloop
  endfacet
  facet normal 0.876298 -0.481769 0
    outer loop
      vertex 19.908 20.8283 13
      vertex 20.1797 21.3225 0
      vertex 20.1797 21.3225 13
    endloop
  endfacet
  facet normal 0.876298 -0.481769 0
    outer loop
      vertex 20.1797 21.3225 0
      vertex 19.908 20.8283 13
      vertex 19.908 20.8283 0
    endloop
  endfacet
  facet normal 0.308878 0.951102 -0
    outer loop
      vertex 21.5784 17.7899 0
      vertex 21.042 17.9641 13
      vertex 21.5784 17.7899 13
    endloop
  endfacet
  facet normal 0.308878 0.951102 0
    outer loop
      vertex 21.042 17.9641 13
      vertex 21.5784 17.7899 0
      vertex 21.042 17.9641 0
    endloop
  endfacet
  facet normal -0.929767 0.368147 0
    outer loop
      vertex 23.9717 18.9161 0
      vertex 24.1793 19.4404 13
      vertex 24.1793 19.4404 0
    endloop
  endfacet
  facet normal -0.929767 0.368147 0
    outer loop
      vertex 24.1793 19.4404 13
      vertex 23.9717 18.9161 0
      vertex 23.9717 18.9161 13
    endloop
  endfacet
  facet normal -0.187414 0.982281 0
    outer loop
      vertex 22.6953 17.8601 0
      vertex 22.1413 17.7544 13
      vertex 22.6953 17.8601 13
    endloop
  endfacet
  facet normal -0.187414 0.982281 0
    outer loop
      vertex 22.1413 17.7544 13
      vertex 22.6953 17.8601 0
      vertex 22.1413 17.7544 0
    endloop
  endfacet
  facet normal 0.968569 0.248746 0
    outer loop
      vertex 19.908 19.1717 13
      vertex 19.7677 19.718 0
      vertex 19.7677 19.718 13
    endloop
  endfacet
  facet normal 0.968569 0.248746 0
    outer loop
      vertex 19.7677 19.718 0
      vertex 19.908 19.1717 13
      vertex 19.908 19.1717 0
    endloop
  endfacet
  facet normal 1 -0 0
    outer loop
      vertex 19.7677 19.718 13
      vertex 19.7677 20.282 0
      vertex 19.7677 20.282 13
    endloop
  endfacet
  facet normal 1 0 0
    outer loop
      vertex 19.7677 20.282 0
      vertex 19.7677 19.718 13
      vertex 19.7677 19.718 0
    endloop
  endfacet
  facet normal 0.876298 0.481769 0
    outer loop
      vertex 20.1797 18.6775 13
      vertex 19.908 19.1717 0
      vertex 19.908 19.1717 13
    endloop
  endfacet
  facet normal 0.876298 0.481769 0
    outer loop
      vertex 19.908 19.1717 0
      vertex 20.1797 18.6775 13
      vertex 20.1797 18.6775 0
    endloop
  endfacet
  facet normal -0.187414 -0.982281 0
    outer loop
      vertex 22.1413 22.2456 0
      vertex 22.6953 22.1399 13
      vertex 22.1413 22.2456 13
    endloop
  endfacet
  facet normal -0.187414 -0.982281 -0
    outer loop
      vertex 22.6953 22.1399 13
      vertex 22.1413 22.2456 0
      vertex 22.6953 22.1399 0
    endloop
  endfacet
  facet normal 0.53582 0.844333 -0
    outer loop
      vertex 21.042 17.9641 0
      vertex 20.5658 18.2663 13
      vertex 21.042 17.9641 13
    endloop
  endfacet
  facet normal 0.53582 0.844333 0
    outer loop
      vertex 20.5658 18.2663 13
      vertex 21.042 17.9641 0
      vertex 20.5658 18.2663 0
    endloop
  endfacet
  facet normal 0.968569 -0.248746 0
    outer loop
      vertex 19.7677 20.282 13
      vertex 19.908 20.8283 0
      vertex 19.908 20.8283 13
    endloop
  endfacet
  facet normal 0.968569 -0.248746 0
    outer loop
      vertex 19.908 20.8283 0
      vertex 19.7677 20.282 13
      vertex 19.7677 20.282 0
    endloop
  endfacet
  facet normal 0 0 -1
    outer loop
      vertex 0 33 8.5
      vertex 5 35 8.5
      vertex 5 33 8.5
    endloop
  endfacet
  facet normal -0 0 -1
    outer loop
      vertex 5 35 8.5
      vertex 0 33 8.5
      vertex 0 35 8.5
    endloop
  endfacet
  facet normal -0 0 1
    outer loop
      vertex 0 35 4.5
      vertex 5 33 4.5
      vertex 5 35 4.5
    endloop
  endfacet
  facet normal 0 0 1
    outer loop
      vertex 5 33 4.5
      vertex 0 35 4.5
      vertex 0 33 4.5
    endloop
  endfacet
  facet normal 0 -1 0
    outer loop
      vertex 0 35 4.5
      vertex 5 35 8.5
      vertex 0 35 8.5
    endloop
  endfacet
  facet normal 0 -1 -0
    outer loop
      vertex 5 35 8.5
      vertex 0 35 4.5
      vertex 5 35 4.5
    endloop
  endfacet
  facet normal 0 1 -0
    outer loop
      vertex 5 33 4.5
      vertex 0 33 8.5
      vertex 5 33 8.5
    endloop
  endfacet
  facet normal 0 1 0
    outer loop
      vertex 0 33 8.5
      vertex 5 33 4.5
      vertex 0 33 4.5
    endloop
  endfacet
endsolid OpenSCAD_Model
