solid OpenSCAD_Model
  facet normal 0.587785 0.809017 -0
    outer loop
      vertex 2.67652 2.97258 0
      vertex 2 3.4641 1
      vertex 2.67652 2.97258 1
    endloop
  endfacet
  facet normal 0.587785 0.809017 0
    outer loop
      vertex 2 3.4641 1
      vertex 2.67652 2.97258 0
      vertex 2 3.4641 0
    endloop
  endfacet
  facet normal -0.587785 -0.809017 0
    outer loop
      vertex -2.67652 -2.97258 0
      vertex -2 -3.4641 1
      vertex -2.67652 -2.97258 1
    endloop
  endfacet
  facet normal -0.587785 -0.809017 -0
    outer loop
      vertex -2 -3.4641 1
      vertex -2.67652 -2.97258 0
      vertex -2 -3.4641 0
    endloop
  endfacet
  facet normal 0.406743 0.913543 -0
    outer loop
      vertex 2 3.4641 0
      vertex 1.23607 3.80423 1
      vertex 2 3.4641 1
    endloop
  endfacet
  facet normal 0.406743 0.913543 0
    outer loop
      vertex 1.23607 3.80423 1
      vertex 2 3.4641 0
      vertex 1.23607 3.80423 0
    endloop
  endfacet
  facet normal 0.994522 -0.104529 0
    outer loop
      vertex 3.91259 -0.831646 1
      vertex 4 0 0
      vertex 4 0 1
    endloop
  endfacet
  facet normal 0.994522 -0.104529 0
    outer loop
      vertex 4 0 0
      vertex 3.91259 -0.831646 1
      vertex 3.91259 -0.831646 0
    endloop
  endfacet
  facet normal 0.587785 -0.809017 0
    outer loop
      vertex 2 -3.4641 0
      vertex 2.67652 -2.97258 1
      vertex 2 -3.4641 1
    endloop
  endfacet
  facet normal 0.587785 -0.809017 0
    outer loop
      vertex 2.67652 -2.97258 1
      vertex 2 -3.4641 0
      vertex 2.67652 -2.97258 0
    endloop
  endfacet
  facet normal 0.743143 -0.669133 0
    outer loop
      vertex 2.67652 -2.97258 1
      vertex 3.23607 -2.35114 0
      vertex 3.23607 -2.35114 1
    endloop
  endfacet
  facet normal 0.743143 -0.669133 0
    outer loop
      vertex 3.23607 -2.35114 0
      vertex 2.67652 -2.97258 1
      vertex 2.67652 -2.97258 0
    endloop
  endfacet
  facet normal 0.866026 0.499999 0
    outer loop
      vertex 3.65418 1.62695 1
      vertex 3.23607 2.35114 0
      vertex 3.23607 2.35114 1
    endloop
  endfacet
  facet normal 0.866026 0.499999 0
    outer loop
      vertex 3.23607 2.35114 0
      vertex 3.65418 1.62695 1
      vertex 3.65418 1.62695 0
    endloop
  endfacet
  facet normal -0.743143 0.669133 0
    outer loop
      vertex -3.23607 2.35114 0
      vertex -2.67652 2.97258 1
      vertex -2.67652 2.97258 0
    endloop
  endfacet
  facet normal -0.743143 0.669133 0
    outer loop
      vertex -2.67652 2.97258 1
      vertex -3.23607 2.35114 0
      vertex -3.23607 2.35114 1
    endloop
  endfacet
  facet normal 0.743143 0.669133 0
    outer loop
      vertex 3.23607 2.35114 1
      vertex 2.67652 2.97258 0
      vertex 2.67652 2.97258 1
    endloop
  endfacet
  facet normal 0.743143 0.669133 0
    outer loop
      vertex 2.67652 2.97258 0
      vertex 3.23607 2.35114 1
      vertex 3.23607 2.35114 0
    endloop
  endfacet
  facet normal 0.994522 0.104529 0
    outer loop
      vertex 4 0 1
      vertex 3.91259 0.831646 0
      vertex 3.91259 0.831646 1
    endloop
  endfacet
  facet normal 0.994522 0.104529 0
    outer loop
      vertex 3.91259 0.831646 0
      vertex 4 0 1
      vertex 4 0 0
    endloop
  endfacet
  facet normal -0.743143 -0.669133 0
    outer loop
      vertex -2.67652 -2.97258 0
      vertex -3.23607 -2.35114 1
      vertex -3.23607 -2.35114 0
    endloop
  endfacet
  facet normal -0.743143 -0.669133 0
    outer loop
      vertex -3.23607 -2.35114 1
      vertex -2.67652 -2.97258 0
      vertex -2.67652 -2.97258 1
    endloop
  endfacet
  facet normal -0.951056 0.309017 0
    outer loop
      vertex -3.91259 0.831646 0
      vertex -3.65418 1.62695 1
      vertex -3.65418 1.62695 0
    endloop
  endfacet
  facet normal -0.951056 0.309017 0
    outer loop
      vertex -3.65418 1.62695 1
      vertex -3.91259 0.831646 0
      vertex -3.91259 0.831646 1
    endloop
  endfacet
  facet normal -0.207909 0.978148 0
    outer loop
      vertex -0.418114 3.97809 0
      vertex -1.23607 3.80423 1
      vertex -0.418114 3.97809 1
    endloop
  endfacet
  facet normal -0.207909 0.978148 0
    outer loop
      vertex -1.23607 3.80423 1
      vertex -0.418114 3.97809 0
      vertex -1.23607 3.80423 0
    endloop
  endfacet
  facet normal 0.951056 0.309017 0
    outer loop
      vertex 3.91259 0.831646 1
      vertex 3.65418 1.62695 0
      vertex 3.65418 1.62695 1
    endloop
  endfacet
  facet normal 0.951056 0.309017 0
    outer loop
      vertex 3.65418 1.62695 0
      vertex 3.91259 0.831646 1
      vertex 3.91259 0.831646 0
    endloop
  endfacet
  facet normal 0.207909 -0.978148 0
    outer loop
      vertex 0.418114 -3.97809 0
      vertex 1.23607 -3.80423 1
      vertex 0.418114 -3.97809 1
    endloop
  endfacet
  facet normal 0.207909 -0.978148 0
    outer loop
      vertex 1.23607 -3.80423 1
      vertex 0.418114 -3.97809 0
      vertex 1.23607 -3.80423 0
    endloop
  endfacet
  facet normal 0.951056 -0.309017 0
    outer loop
      vertex 3.65418 -1.62695 1
      vertex 3.91259 -0.831646 0
      vertex 3.91259 -0.831646 1
    endloop
  endfacet
  facet normal 0.951056 -0.309017 0
    outer loop
      vertex 3.91259 -0.831646 0
      vertex 3.65418 -1.62695 1
      vertex 3.65418 -1.62695 0
    endloop
  endfacet
  facet normal 0 0 -1
    outer loop
      vertex 2.3 0 0
      vertex 4 0 0
      vertex 3.91259 -0.831646 0
    endloop
  endfacet
  facet normal 0 0 -1
    outer loop
      vertex 2.24974 -0.478196 0
      vertex 3.91259 -0.831646 0
      vertex 3.65418 -1.62695 0
    endloop
  endfacet
  facet normal 0 0 -1
    outer loop
      vertex 4 0 0
      vertex 2.3 0 0
      vertex 3.91259 0.831646 0
    endloop
  endfacet
  facet normal 0 0 -1
    outer loop
      vertex 2.10115 -0.935493 0
      vertex 3.65418 -1.62695 0
      vertex 3.23607 -2.35114 0
    endloop
  endfacet
  facet normal 0 0 -1
    outer loop
      vertex 2.24974 0.478196 0
      vertex 3.91259 0.831646 0
      vertex 2.3 0 0
    endloop
  endfacet
  facet normal 0 0 -1
    outer loop
      vertex 1.86074 -1.35191 0
      vertex 3.23607 -2.35114 0
      vertex 2.67652 -2.97258 0
    endloop
  endfacet
  facet normal -0 0 -1
    outer loop
      vertex 3.91259 0.831646 0
      vertex 2.24974 0.478196 0
      vertex 3.65418 1.62695 0
    endloop
  endfacet
  facet normal 0 0 -1
    outer loop
      vertex 2.10115 0.935493 0
      vertex 3.65418 1.62695 0
      vertex 2.24974 0.478196 0
    endloop
  endfacet
  facet normal 0 0 -1
    outer loop
      vertex 3.91259 -0.831646 0
      vertex 2.24974 -0.478196 0
      vertex 2.3 0 0
    endloop
  endfacet
  facet normal 0 0 -1
    outer loop
      vertex 3.65418 -1.62695 0
      vertex 2.10115 -0.935493 0
      vertex 2.24974 -0.478196 0
    endloop
  endfacet
  facet normal 0 0 -1
    outer loop
      vertex 1.539 -1.70923 0
      vertex 2.67652 -2.97258 0
      vertex 2 -3.4641 0
    endloop
  endfacet
  facet normal 0 0 -1
    outer loop
      vertex 3.23607 -2.35114 0
      vertex 1.86074 -1.35191 0
      vertex 2.10115 -0.935493 0
    endloop
  endfacet
  facet normal 0 0 -1
    outer loop
      vertex 2.67652 -2.97258 0
      vertex 1.539 -1.70923 0
      vertex 1.86074 -1.35191 0
    endloop
  endfacet
  facet normal 0 0 -1
    outer loop
      vertex 1.15 -1.99186 0
      vertex 2 -3.4641 0
      vertex 1.23607 -3.80423 0
    endloop
  endfacet
  facet normal 0 0 -1
    outer loop
      vertex 2 -3.4641 0
      vertex 1.15 -1.99186 0
      vertex 1.539 -1.70923 0
    endloop
  endfacet
  facet normal 0 0 -1
    outer loop
      vertex 1.23607 -3.80423 0
      vertex 0.710738 -2.18743 0
      vertex 1.15 -1.99186 0
    endloop
  endfacet
  facet normal 0 0 -1
    outer loop
      vertex 0.418114 -3.97809 0
      vertex 0.710738 -2.18743 0
      vertex 1.23607 -3.80423 0
    endloop
  endfacet
  facet normal 0 0 -1
    outer loop
      vertex 0.418114 -3.97809 0
      vertex 0.240415 -2.2874 0
      vertex 0.710738 -2.18743 0
    endloop
  endfacet
  facet normal 0 0 -1
    outer loop
      vertex 0.418114 -3.97809 0
      vertex -0.240415 -2.2874 0
      vertex 0.240415 -2.2874 0
    endloop
  endfacet
  facet normal 0 0 -1
    outer loop
      vertex -0.418114 -3.97809 0
      vertex -0.240415 -2.2874 0
      vertex 0.418114 -3.97809 0
    endloop
  endfacet
  facet normal 0 0 -1
    outer loop
      vertex -0.418114 -3.97809 0
      vertex -0.710738 -2.18743 0
      vertex -0.240415 -2.2874 0
    endloop
  endfacet
  facet normal 0 0 -1
    outer loop
      vertex -1.23607 -3.80423 0
      vertex -0.710738 -2.18743 0
      vertex -0.418114 -3.97809 0
    endloop
  endfacet
  facet normal -0 0 -1
    outer loop
      vertex -0.710738 -2.18743 0
      vertex -1.23607 -3.80423 0
      vertex -1.15 -1.99186 0
    endloop
  endfacet
  facet normal 0 0 -1
    outer loop
      vertex -2 -3.4641 0
      vertex -1.15 -1.99186 0
      vertex -1.23607 -3.80423 0
    endloop
  endfacet
  facet normal -0 0 -1
    outer loop
      vertex -1.15 -1.99186 0
      vertex -2 -3.4641 0
      vertex -1.539 -1.70923 0
    endloop
  endfacet
  facet normal 0 0 -1
    outer loop
      vertex -2.67652 -2.97258 0
      vertex -1.539 -1.70923 0
      vertex -2 -3.4641 0
    endloop
  endfacet
  facet normal -0 0 -1
    outer loop
      vertex -1.539 -1.70923 0
      vertex -2.67652 -2.97258 0
      vertex -1.86074 -1.35191 0
    endloop
  endfacet
  facet normal 0 0 -1
    outer loop
      vertex -3.23607 -2.35114 0
      vertex -1.86074 -1.35191 0
      vertex -2.67652 -2.97258 0
    endloop
  endfacet
  facet normal -0 0 -1
    outer loop
      vertex -1.86074 -1.35191 0
      vertex -3.23607 -2.35114 0
      vertex -2.10115 -0.935493 0
    endloop
  endfacet
  facet normal 0 0 -1
    outer loop
      vertex -3.65418 -1.62695 0
      vertex -2.10115 -0.935493 0
      vertex -3.23607 -2.35114 0
    endloop
  endfacet
  facet normal -0 0 -1
    outer loop
      vertex 3.65418 1.62695 0
      vertex 2.10115 0.935493 0
      vertex 3.23607 2.35114 0
    endloop
  endfacet
  facet normal 0 0 -1
    outer loop
      vertex 1.86074 1.35191 0
      vertex 3.23607 2.35114 0
      vertex 2.10115 0.935493 0
    endloop
  endfacet
  facet normal -0 0 -1
    outer loop
      vertex 3.23607 2.35114 0
      vertex 1.86074 1.35191 0
      vertex 2.67652 2.97258 0
    endloop
  endfacet
  facet normal 0 0 -1
    outer loop
      vertex 1.539 1.70923 0
      vertex 2.67652 2.97258 0
      vertex 1.86074 1.35191 0
    endloop
  endfacet
  facet normal -0 0 -1
    outer loop
      vertex 2.67652 2.97258 0
      vertex 1.539 1.70923 0
      vertex 2 3.4641 0
    endloop
  endfacet
  facet normal 0 0 -1
    outer loop
      vertex 1.15 1.99186 0
      vertex 2 3.4641 0
      vertex 1.539 1.70923 0
    endloop
  endfacet
  facet normal -0 0 -1
    outer loop
      vertex 2 3.4641 0
      vertex 1.15 1.99186 0
      vertex 1.23607 3.80423 0
    endloop
  endfacet
  facet normal 0 0 -1
    outer loop
      vertex 0.710738 2.18743 0
      vertex 1.23607 3.80423 0
      vertex 1.15 1.99186 0
    endloop
  endfacet
  facet normal 0 0 -1
    outer loop
      vertex 0.710738 2.18743 0
      vertex 0.418114 3.97809 0
      vertex 1.23607 3.80423 0
    endloop
  endfacet
  facet normal 0 0 -1
    outer loop
      vertex 0.240415 2.2874 0
      vertex 0.418114 3.97809 0
      vertex 0.710738 2.18743 0
    endloop
  endfacet
  facet normal 0 0 -1
    outer loop
      vertex -0.240415 2.2874 0
      vertex 0.418114 3.97809 0
      vertex 0.240415 2.2874 0
    endloop
  endfacet
  facet normal 0 0 -1
    outer loop
      vertex -0.240415 2.2874 0
      vertex -0.418114 3.97809 0
      vertex 0.418114 3.97809 0
    endloop
  endfacet
  facet normal 0 0 -1
    outer loop
      vertex -0.710738 2.18743 0
      vertex -0.418114 3.97809 0
      vertex -0.240415 2.2874 0
    endloop
  endfacet
  facet normal 0 0 -1
    outer loop
      vertex -1.23607 3.80423 0
      vertex -0.710738 2.18743 0
      vertex -1.15 1.99186 0
    endloop
  endfacet
  facet normal 0 0 -1
    outer loop
      vertex -0.710738 2.18743 0
      vertex -1.23607 3.80423 0
      vertex -0.418114 3.97809 0
    endloop
  endfacet
  facet normal 0 0 -1
    outer loop
      vertex -2 3.4641 0
      vertex -1.15 1.99186 0
      vertex -1.539 1.70923 0
    endloop
  endfacet
  facet normal 0 0 -1
    outer loop
      vertex -2.67652 2.97258 0
      vertex -1.539 1.70923 0
      vertex -1.86074 1.35191 0
    endloop
  endfacet
  facet normal 0 0 -1
    outer loop
      vertex -1.15 1.99186 0
      vertex -2 3.4641 0
      vertex -1.23607 3.80423 0
    endloop
  endfacet
  facet normal 0 0 -1
    outer loop
      vertex -3.23607 2.35114 0
      vertex -1.86074 1.35191 0
      vertex -2.10115 0.935493 0
    endloop
  endfacet
  facet normal 0 0 -1
    outer loop
      vertex -3.65418 1.62695 0
      vertex -2.10115 0.935493 0
      vertex -2.24974 0.478196 0
    endloop
  endfacet
  facet normal 0 0 -1
    outer loop
      vertex -3.91259 0.831646 0
      vertex -2.24974 0.478196 0
      vertex -2.3 0 0
    endloop
  endfacet
  facet normal -0 0 -1
    outer loop
      vertex -2.10115 -0.935493 0
      vertex -3.65418 -1.62695 0
      vertex -2.24974 -0.478196 0
    endloop
  endfacet
  facet normal 0 0 -1
    outer loop
      vertex -1.539 1.70923 0
      vertex -2.67652 2.97258 0
      vertex -2 3.4641 0
    endloop
  endfacet
  facet normal 0 0 -1
    outer loop
      vertex -3.91259 -0.831646 0
      vertex -2.24974 -0.478196 0
      vertex -3.65418 -1.62695 0
    endloop
  endfacet
  facet normal 0 0 -1
    outer loop
      vertex -1.86074 1.35191 0
      vertex -3.23607 2.35114 0
      vertex -2.67652 2.97258 0
    endloop
  endfacet
  facet normal -0 0 -1
    outer loop
      vertex -2.24974 -0.478196 0
      vertex -3.91259 -0.831646 0
      vertex -2.3 0 0
    endloop
  endfacet
  facet normal 0 0 -1
    outer loop
      vertex -2.10115 0.935493 0
      vertex -3.65418 1.62695 0
      vertex -3.23607 2.35114 0
    endloop
  endfacet
  facet normal 0 0 -1
    outer loop
      vertex -4 0 0
      vertex -2.3 0 0
      vertex -3.91259 -0.831646 0
    endloop
  endfacet
  facet normal 0 0 -1
    outer loop
      vertex -2.24974 0.478196 0
      vertex -3.91259 0.831646 0
      vertex -3.65418 1.62695 0
    endloop
  endfacet
  facet normal 0 0 -1
    outer loop
      vertex -2.3 0 0
      vertex -4 0 0
      vertex -3.91259 0.831646 0
    endloop
  endfacet
  facet normal 0.406743 -0.913543 0
    outer loop
      vertex 1.23607 -3.80423 0
      vertex 2 -3.4641 1
      vertex 1.23607 -3.80423 1
    endloop
  endfacet
  facet normal 0.406743 -0.913543 0
    outer loop
      vertex 2 -3.4641 1
      vertex 1.23607 -3.80423 0
      vertex 2 -3.4641 0
    endloop
  endfacet
  facet normal -0.866026 -0.499999 0
    outer loop
      vertex -3.23607 -2.35114 0
      vertex -3.65418 -1.62695 1
      vertex -3.65418 -1.62695 0
    endloop
  endfacet
  facet normal -0.866026 -0.499999 0
    outer loop
      vertex -3.65418 -1.62695 1
      vertex -3.23607 -2.35114 0
      vertex -3.23607 -2.35114 1
    endloop
  endfacet
  facet normal -0.406743 0.913543 0
    outer loop
      vertex -1.23607 3.80423 0
      vertex -2 3.4641 1
      vertex -1.23607 3.80423 1
    endloop
  endfacet
  facet normal -0.406743 0.913543 0
    outer loop
      vertex -2 3.4641 1
      vertex -1.23607 3.80423 0
      vertex -2 3.4641 0
    endloop
  endfacet
  facet normal -0.994522 0.104529 0
    outer loop
      vertex -4 0 0
      vertex -3.91259 0.831646 1
      vertex -3.91259 0.831646 0
    endloop
  endfacet
  facet normal -0.994522 0.104529 0
    outer loop
      vertex -3.91259 0.831646 1
      vertex -4 0 0
      vertex -4 0 1
    endloop
  endfacet
  facet normal -0.866026 0.499999 0
    outer loop
      vertex -3.65418 1.62695 0
      vertex -3.23607 2.35114 1
      vertex -3.23607 2.35114 0
    endloop
  endfacet
  facet normal -0.866026 0.499999 0
    outer loop
      vertex -3.23607 2.35114 1
      vertex -3.65418 1.62695 0
      vertex -3.65418 1.62695 1
    endloop
  endfacet
  facet normal 0.866026 -0.499999 0
    outer loop
      vertex 3.23607 -2.35114 1
      vertex 3.65418 -1.62695 0
      vertex 3.65418 -1.62695 1
    endloop
  endfacet
  facet normal 0.866026 -0.499999 0
    outer loop
      vertex 3.65418 -1.62695 0
      vertex 3.23607 -2.35114 1
      vertex 3.23607 -2.35114 0
    endloop
  endfacet
  facet normal -0.406743 -0.913543 0
    outer loop
      vertex -2 -3.4641 0
      vertex -1.23607 -3.80423 1
      vertex -2 -3.4641 1
    endloop
  endfacet
  facet normal -0.406743 -0.913543 -0
    outer loop
      vertex -1.23607 -3.80423 1
      vertex -2 -3.4641 0
      vertex -1.23607 -3.80423 0
    endloop
  endfacet
  facet normal 0 1 -0
    outer loop
      vertex 0.418114 3.97809 0
      vertex -0.418114 3.97809 1
      vertex 0.418114 3.97809 1
    endloop
  endfacet
  facet normal 0 1 0
    outer loop
      vertex -0.418114 3.97809 1
      vertex 0.418114 3.97809 0
      vertex -0.418114 3.97809 0
    endloop
  endfacet
  facet normal 0 -1 0
    outer loop
      vertex -0.418114 -3.97809 0
      vertex 0.418114 -3.97809 1
      vertex -0.418114 -3.97809 1
    endloop
  endfacet
  facet normal 0 -1 -0
    outer loop
      vertex 0.418114 -3.97809 1
      vertex -0.418114 -3.97809 0
      vertex 0.418114 -3.97809 0
    endloop
  endfacet
  facet normal 0.207909 0.978148 -0
    outer loop
      vertex 1.23607 3.80423 0
      vertex 0.418114 3.97809 1
      vertex 1.23607 3.80423 1
    endloop
  endfacet
  facet normal 0.207909 0.978148 0
    outer loop
      vertex 0.418114 3.97809 1
      vertex 1.23607 3.80423 0
      vertex 0.418114 3.97809 0
    endloop
  endfacet
  facet normal -0.951056 -0.309017 0
    outer loop
      vertex -3.65418 -1.62695 0
      vertex -3.91259 -0.831646 1
      vertex -3.91259 -0.831646 0
    endloop
  endfacet
  facet normal -0.951056 -0.309017 0
    outer loop
      vertex -3.91259 -0.831646 1
      vertex -3.65418 -1.62695 0
      vertex -3.65418 -1.62695 1
    endloop
  endfacet
  facet normal -0.587785 0.809017 0
    outer loop
      vertex -2 3.4641 0
      vertex -2.67652 2.97258 1
      vertex -2 3.4641 1
    endloop
  endfacet
  facet normal -0.587785 0.809017 0
    outer loop
      vertex -2.67652 2.97258 1
      vertex -2 3.4641 0
      vertex -2.67652 2.97258 0
    endloop
  endfacet
  facet normal -0.994522 -0.104529 0
    outer loop
      vertex -3.91259 -0.831646 0
      vertex -4 0 1
      vertex -4 0 0
    endloop
  endfacet
  facet normal -0.994522 -0.104529 0
    outer loop
      vertex -4 0 1
      vertex -3.91259 -0.831646 0
      vertex -3.91259 -0.831646 1
    endloop
  endfacet
  facet normal -0.207909 -0.978148 0
    outer loop
      vertex -1.23607 -3.80423 0
      vertex -0.418114 -3.97809 1
      vertex -1.23607 -3.80423 1
    endloop
  endfacet
  facet normal -0.207909 -0.978148 -0
    outer loop
      vertex -0.418114 -3.97809 1
      vertex -1.23607 -3.80423 0
      vertex -0.418114 -3.97809 0
    endloop
  endfacet
  facet normal 0 0 1
    outer loop
      vertex 2.3 0 1
      vertex 4 0 1
      vertex 3.91259 0.831646 1
    endloop
  endfacet
  facet normal 0 0 1
    outer loop
      vertex 2.24974 0.478196 1
      vertex 3.91259 0.831646 1
      vertex 3.65418 1.62695 1
    endloop
  endfacet
  facet normal 0 0 1
    outer loop
      vertex 4 0 1
      vertex 2.3 0 1
      vertex 3.91259 -0.831646 1
    endloop
  endfacet
  facet normal 0 0 1
    outer loop
      vertex 2.10115 0.935493 1
      vertex 3.65418 1.62695 1
      vertex 3.23607 2.35114 1
    endloop
  endfacet
  facet normal -0 0 1
    outer loop
      vertex 2.24974 -0.478196 1
      vertex 3.91259 -0.831646 1
      vertex 2.3 0 1
    endloop
  endfacet
  facet normal 0 0 1
    outer loop
      vertex 1.86074 1.35191 1
      vertex 3.23607 2.35114 1
      vertex 2.67652 2.97258 1
    endloop
  endfacet
  facet normal 0 0 1
    outer loop
      vertex 3.91259 -0.831646 1
      vertex 2.24974 -0.478196 1
      vertex 3.65418 -1.62695 1
    endloop
  endfacet
  facet normal -0 0 1
    outer loop
      vertex 2.10115 -0.935493 1
      vertex 3.65418 -1.62695 1
      vertex 2.24974 -0.478196 1
    endloop
  endfacet
  facet normal 0 0 1
    outer loop
      vertex 3.91259 0.831646 1
      vertex 2.24974 0.478196 1
      vertex 2.3 0 1
    endloop
  endfacet
  facet normal 0 0 1
    outer loop
      vertex 3.65418 1.62695 1
      vertex 2.10115 0.935493 1
      vertex 2.24974 0.478196 1
    endloop
  endfacet
  facet normal 0 0 1
    outer loop
      vertex 1.539 1.70923 1
      vertex 2.67652 2.97258 1
      vertex 2 3.4641 1
    endloop
  endfacet
  facet normal 0 0 1
    outer loop
      vertex 3.23607 2.35114 1
      vertex 1.86074 1.35191 1
      vertex 2.10115 0.935493 1
    endloop
  endfacet
  facet normal 0 0 1
    outer loop
      vertex 2.67652 2.97258 1
      vertex 1.539 1.70923 1
      vertex 1.86074 1.35191 1
    endloop
  endfacet
  facet normal 0 0 1
    outer loop
      vertex 1.15 1.99186 1
      vertex 2 3.4641 1
      vertex 1.23607 3.80423 1
    endloop
  endfacet
  facet normal 0 0 1
    outer loop
      vertex 2 3.4641 1
      vertex 1.15 1.99186 1
      vertex 1.539 1.70923 1
    endloop
  endfacet
  facet normal 0 0 1
    outer loop
      vertex 1.23607 3.80423 1
      vertex 0.710738 2.18743 1
      vertex 1.15 1.99186 1
    endloop
  endfacet
  facet normal 0 0 1
    outer loop
      vertex 0.418114 3.97809 1
      vertex 0.710738 2.18743 1
      vertex 1.23607 3.80423 1
    endloop
  endfacet
  facet normal 0 0 1
    outer loop
      vertex 0.418114 3.97809 1
      vertex 0.240415 2.2874 1
      vertex 0.710738 2.18743 1
    endloop
  endfacet
  facet normal 0 0 1
    outer loop
      vertex 0.418114 3.97809 1
      vertex -0.240415 2.2874 1
      vertex 0.240415 2.2874 1
    endloop
  endfacet
  facet normal -0 0 1
    outer loop
      vertex -0.418114 3.97809 1
      vertex -0.240415 2.2874 1
      vertex 0.418114 3.97809 1
    endloop
  endfacet
  facet normal 0 0 1
    outer loop
      vertex -0.418114 3.97809 1
      vertex -0.710738 2.18743 1
      vertex -0.240415 2.2874 1
    endloop
  endfacet
  facet normal -0 0 1
    outer loop
      vertex -1.23607 3.80423 1
      vertex -0.710738 2.18743 1
      vertex -0.418114 3.97809 1
    endloop
  endfacet
  facet normal 0 0 1
    outer loop
      vertex -0.710738 2.18743 1
      vertex -1.23607 3.80423 1
      vertex -1.15 1.99186 1
    endloop
  endfacet
  facet normal -0 0 1
    outer loop
      vertex -2 3.4641 1
      vertex -1.15 1.99186 1
      vertex -1.23607 3.80423 1
    endloop
  endfacet
  facet normal 0 0 1
    outer loop
      vertex -1.15 1.99186 1
      vertex -2 3.4641 1
      vertex -1.539 1.70923 1
    endloop
  endfacet
  facet normal -0 0 1
    outer loop
      vertex -2.67652 2.97258 1
      vertex -1.539 1.70923 1
      vertex -2 3.4641 1
    endloop
  endfacet
  facet normal 0 0 1
    outer loop
      vertex -1.539 1.70923 1
      vertex -2.67652 2.97258 1
      vertex -1.86074 1.35191 1
    endloop
  endfacet
  facet normal -0 0 1
    outer loop
      vertex -3.23607 2.35114 1
      vertex -1.86074 1.35191 1
      vertex -2.67652 2.97258 1
    endloop
  endfacet
  facet normal 0 0 1
    outer loop
      vertex -1.86074 1.35191 1
      vertex -3.23607 2.35114 1
      vertex -2.10115 0.935493 1
    endloop
  endfacet
  facet normal -0 0 1
    outer loop
      vertex -3.65418 1.62695 1
      vertex -2.10115 0.935493 1
      vertex -3.23607 2.35114 1
    endloop
  endfacet
  facet normal 0 0 1
    outer loop
      vertex 3.65418 -1.62695 1
      vertex 2.10115 -0.935493 1
      vertex 3.23607 -2.35114 1
    endloop
  endfacet
  facet normal -0 0 1
    outer loop
      vertex 1.86074 -1.35191 1
      vertex 3.23607 -2.35114 1
      vertex 2.10115 -0.935493 1
    endloop
  endfacet
  facet normal 0 0 1
    outer loop
      vertex 3.23607 -2.35114 1
      vertex 1.86074 -1.35191 1
      vertex 2.67652 -2.97258 1
    endloop
  endfacet
  facet normal -0 0 1
    outer loop
      vertex 1.539 -1.70923 1
      vertex 2.67652 -2.97258 1
      vertex 1.86074 -1.35191 1
    endloop
  endfacet
  facet normal 0 0 1
    outer loop
      vertex 2.67652 -2.97258 1
      vertex 1.539 -1.70923 1
      vertex 2 -3.4641 1
    endloop
  endfacet
  facet normal -0 0 1
    outer loop
      vertex 1.15 -1.99186 1
      vertex 2 -3.4641 1
      vertex 1.539 -1.70923 1
    endloop
  endfacet
  facet normal 0 0 1
    outer loop
      vertex 2 -3.4641 1
      vertex 1.15 -1.99186 1
      vertex 1.23607 -3.80423 1
    endloop
  endfacet
  facet normal -0 0 1
    outer loop
      vertex 0.710738 -2.18743 1
      vertex 1.23607 -3.80423 1
      vertex 1.15 -1.99186 1
    endloop
  endfacet
  facet normal 0 0 1
    outer loop
      vertex 0.710738 -2.18743 1
      vertex 0.418114 -3.97809 1
      vertex 1.23607 -3.80423 1
    endloop
  endfacet
  facet normal -0 0 1
    outer loop
      vertex 0.240415 -2.2874 1
      vertex 0.418114 -3.97809 1
      vertex 0.710738 -2.18743 1
    endloop
  endfacet
  facet normal -0 0 1
    outer loop
      vertex -0.240415 -2.2874 1
      vertex 0.418114 -3.97809 1
      vertex 0.240415 -2.2874 1
    endloop
  endfacet
  facet normal 0 0 1
    outer loop
      vertex -0.240415 -2.2874 1
      vertex -0.418114 -3.97809 1
      vertex 0.418114 -3.97809 1
    endloop
  endfacet
  facet normal 0 0 1
    outer loop
      vertex -0.710738 -2.18743 1
      vertex -0.418114 -3.97809 1
      vertex -0.240415 -2.2874 1
    endloop
  endfacet
  facet normal 0 0 1
    outer loop
      vertex -1.23607 -3.80423 1
      vertex -0.710738 -2.18743 1
      vertex -1.15 -1.99186 1
    endloop
  endfacet
  facet normal 0 0 1
    outer loop
      vertex -0.710738 -2.18743 1
      vertex -1.23607 -3.80423 1
      vertex -0.418114 -3.97809 1
    endloop
  endfacet
  facet normal 0 0 1
    outer loop
      vertex -2 -3.4641 1
      vertex -1.15 -1.99186 1
      vertex -1.539 -1.70923 1
    endloop
  endfacet
  facet normal 0 0 1
    outer loop
      vertex -2.67652 -2.97258 1
      vertex -1.539 -1.70923 1
      vertex -1.86074 -1.35191 1
    endloop
  endfacet
  facet normal 0 0 1
    outer loop
      vertex -1.15 -1.99186 1
      vertex -2 -3.4641 1
      vertex -1.23607 -3.80423 1
    endloop
  endfacet
  facet normal 0 0 1
    outer loop
      vertex -3.23607 -2.35114 1
      vertex -1.86074 -1.35191 1
      vertex -2.10115 -0.935493 1
    endloop
  endfacet
  facet normal 0 0 1
    outer loop
      vertex -3.65418 -1.62695 1
      vertex -2.10115 -0.935493 1
      vertex -2.24974 -0.478196 1
    endloop
  endfacet
  facet normal 0 0 1
    outer loop
      vertex -3.91259 -0.831646 1
      vertex -2.24974 -0.478196 1
      vertex -2.3 0 1
    endloop
  endfacet
  facet normal 0 0 1
    outer loop
      vertex -2.10115 0.935493 1
      vertex -3.65418 1.62695 1
      vertex -2.24974 0.478196 1
    endloop
  endfacet
  facet normal 0 0 1
    outer loop
      vertex -1.539 -1.70923 1
      vertex -2.67652 -2.97258 1
      vertex -2 -3.4641 1
    endloop
  endfacet
  facet normal -0 0 1
    outer loop
      vertex -3.91259 0.831646 1
      vertex -2.24974 0.478196 1
      vertex -3.65418 1.62695 1
    endloop
  endfacet
  facet normal 0 0 1
    outer loop
      vertex -1.86074 -1.35191 1
      vertex -3.23607 -2.35114 1
      vertex -2.67652 -2.97258 1
    endloop
  endfacet
  facet normal 0 0 1
    outer loop
      vertex -2.24974 0.478196 1
      vertex -3.91259 0.831646 1
      vertex -2.3 0 1
    endloop
  endfacet
  facet normal 0 0 1
    outer loop
      vertex -2.10115 -0.935493 1
      vertex -3.65418 -1.62695 1
      vertex -3.23607 -2.35114 1
    endloop
  endfacet
  facet normal 0 0 1
    outer loop
      vertex -4 0 1
      vertex -2.3 0 1
      vertex -3.91259 0.831646 1
    endloop
  endfacet
  facet normal 0 0 1
    outer loop
      vertex -2.24974 -0.478196 1
      vertex -3.91259 -0.831646 1
      vertex -3.65418 -1.62695 1
    endloop
  endfacet
  facet normal 0 0 1
    outer loop
      vertex -2.3 0 1
      vertex -4 0 1
      vertex -3.91259 -0.831646 1
    endloop
  endfacet
  facet normal -0.951053 -0.309027 0
    outer loop
      vertex 2.24974 0.478196 0
      vertex 2.10115 0.935493 1
      vertex 2.10115 0.935493 0
    endloop
  endfacet
  facet normal -0.951053 -0.309027 0
    outer loop
      vertex 2.10115 0.935493 1
      vertex 2.24974 0.478196 0
      vertex 2.24974 0.478196 1
    endloop
  endfacet
  facet normal -0.994522 -0.104528 0
    outer loop
      vertex 2.3 0 0
      vertex 2.24974 0.478196 1
      vertex 2.24974 0.478196 0
    endloop
  endfacet
  facet normal -0.994522 -0.104528 0
    outer loop
      vertex 2.24974 0.478196 1
      vertex 2.3 0 0
      vertex 2.3 0 1
    endloop
  endfacet
  facet normal -0.866033 -0.499987 0
    outer loop
      vertex 2.10115 0.935493 0
      vertex 1.86074 1.35191 1
      vertex 1.86074 1.35191 0
    endloop
  endfacet
  facet normal -0.866033 -0.499987 0
    outer loop
      vertex 1.86074 1.35191 1
      vertex 2.10115 0.935493 0
      vertex 2.10115 0.935493 1
    endloop
  endfacet
  facet normal -0.587792 0.809012 0
    outer loop
      vertex 1.539 -1.70923 0
      vertex 1.15 -1.99186 1
      vertex 1.539 -1.70923 1
    endloop
  endfacet
  facet normal -0.587792 0.809012 0
    outer loop
      vertex 1.15 -1.99186 1
      vertex 1.539 -1.70923 0
      vertex 1.15 -1.99186 0
    endloop
  endfacet
  facet normal 0.994522 -0.104528 0
    outer loop
      vertex -2.3 0 1
      vertex -2.24974 0.478196 0
      vertex -2.24974 0.478196 1
    endloop
  endfacet
  facet normal 0.994522 -0.104528 0
    outer loop
      vertex -2.24974 0.478196 0
      vertex -2.3 0 1
      vertex -2.3 0 0
    endloop
  endfacet
  facet normal -0.587792 -0.809012 0
    outer loop
      vertex 1.15 1.99186 0
      vertex 1.539 1.70923 1
      vertex 1.15 1.99186 1
    endloop
  endfacet
  facet normal -0.587792 -0.809012 -0
    outer loop
      vertex 1.539 1.70923 1
      vertex 1.15 1.99186 0
      vertex 1.539 1.70923 0
    endloop
  endfacet
  facet normal -0.743137 -0.669139 0
    outer loop
      vertex 1.86074 1.35191 0
      vertex 1.539 1.70923 1
      vertex 1.539 1.70923 0
    endloop
  endfacet
  facet normal -0.743137 -0.669139 0
    outer loop
      vertex 1.539 1.70923 1
      vertex 1.86074 1.35191 0
      vertex 1.86074 1.35191 1
    endloop
  endfacet
  facet normal 0 1 -0
    outer loop
      vertex 0.240415 -2.2874 0
      vertex -0.240415 -2.2874 1
      vertex 0.240415 -2.2874 1
    endloop
  endfacet
  facet normal 0 1 0
    outer loop
      vertex -0.240415 -2.2874 1
      vertex 0.240415 -2.2874 0
      vertex -0.240415 -2.2874 0
    endloop
  endfacet
  facet normal 0.866033 -0.499987 0
    outer loop
      vertex -2.10115 0.935493 1
      vertex -1.86074 1.35191 0
      vertex -1.86074 1.35191 1
    endloop
  endfacet
  facet normal 0.866033 -0.499987 0
    outer loop
      vertex -1.86074 1.35191 0
      vertex -2.10115 0.935493 1
      vertex -2.10115 0.935493 0
    endloop
  endfacet
  facet normal -0.207911 -0.978148 0
    outer loop
      vertex 0.240415 2.2874 0
      vertex 0.710738 2.18743 1
      vertex 0.240415 2.2874 1
    endloop
  endfacet
  facet normal -0.207911 -0.978148 -0
    outer loop
      vertex 0.710738 2.18743 1
      vertex 0.240415 2.2874 0
      vertex 0.710738 2.18743 0
    endloop
  endfacet
  facet normal 0.994522 0.104528 0
    outer loop
      vertex -2.24974 -0.478196 1
      vertex -2.3 0 0
      vertex -2.3 0 1
    endloop
  endfacet
  facet normal 0.994522 0.104528 0
    outer loop
      vertex -2.3 0 0
      vertex -2.24974 -0.478196 1
      vertex -2.24974 -0.478196 0
    endloop
  endfacet
  facet normal 0.587792 0.809012 -0
    outer loop
      vertex -1.15 -1.99186 0
      vertex -1.539 -1.70923 1
      vertex -1.15 -1.99186 1
    endloop
  endfacet
  facet normal 0.587792 0.809012 0
    outer loop
      vertex -1.539 -1.70923 1
      vertex -1.15 -1.99186 0
      vertex -1.539 -1.70923 0
    endloop
  endfacet
  facet normal -0.866033 0.499987 0
    outer loop
      vertex 1.86074 -1.35191 0
      vertex 2.10115 -0.935493 1
      vertex 2.10115 -0.935493 0
    endloop
  endfacet
  facet normal -0.866033 0.499987 0
    outer loop
      vertex 2.10115 -0.935493 1
      vertex 1.86074 -1.35191 0
      vertex 1.86074 -1.35191 1
    endloop
  endfacet
  facet normal -0.743137 0.669139 0
    outer loop
      vertex 1.539 -1.70923 0
      vertex 1.86074 -1.35191 1
      vertex 1.86074 -1.35191 0
    endloop
  endfacet
  facet normal -0.743137 0.669139 0
    outer loop
      vertex 1.86074 -1.35191 1
      vertex 1.539 -1.70923 0
      vertex 1.539 -1.70923 1
    endloop
  endfacet
  facet normal -0.406733 -0.913547 0
    outer loop
      vertex 0.710738 2.18743 0
      vertex 1.15 1.99186 1
      vertex 0.710738 2.18743 1
    endloop
  endfacet
  facet normal -0.406733 -0.913547 -0
    outer loop
      vertex 1.15 1.99186 1
      vertex 0.710738 2.18743 0
      vertex 1.15 1.99186 0
    endloop
  endfacet
  facet normal 0.406733 -0.913547 0
    outer loop
      vertex -1.15 1.99186 0
      vertex -0.710738 2.18743 1
      vertex -1.15 1.99186 1
    endloop
  endfacet
  facet normal 0.406733 -0.913547 0
    outer loop
      vertex -0.710738 2.18743 1
      vertex -1.15 1.99186 0
      vertex -0.710738 2.18743 0
    endloop
  endfacet
  facet normal -0.951053 0.309027 0
    outer loop
      vertex 2.10115 -0.935493 0
      vertex 2.24974 -0.478196 1
      vertex 2.24974 -0.478196 0
    endloop
  endfacet
  facet normal -0.951053 0.309027 0
    outer loop
      vertex 2.24974 -0.478196 1
      vertex 2.10115 -0.935493 0
      vertex 2.10115 -0.935493 1
    endloop
  endfacet
  facet normal -0.994522 0.104528 0
    outer loop
      vertex 2.24974 -0.478196 0
      vertex 2.3 0 1
      vertex 2.3 0 0
    endloop
  endfacet
  facet normal -0.994522 0.104528 0
    outer loop
      vertex 2.3 0 1
      vertex 2.24974 -0.478196 0
      vertex 2.24974 -0.478196 1
    endloop
  endfacet
  facet normal 0 -1 0
    outer loop
      vertex -0.240415 2.2874 0
      vertex 0.240415 2.2874 1
      vertex -0.240415 2.2874 1
    endloop
  endfacet
  facet normal 0 -1 -0
    outer loop
      vertex 0.240415 2.2874 1
      vertex -0.240415 2.2874 0
      vertex 0.240415 2.2874 0
    endloop
  endfacet
  facet normal 0.743137 -0.669139 0
    outer loop
      vertex -1.86074 1.35191 1
      vertex -1.539 1.70923 0
      vertex -1.539 1.70923 1
    endloop
  endfacet
  facet normal 0.743137 -0.669139 0
    outer loop
      vertex -1.539 1.70923 0
      vertex -1.86074 1.35191 1
      vertex -1.86074 1.35191 0
    endloop
  endfacet
  facet normal 0.866033 0.499987 0
    outer loop
      vertex -1.86074 -1.35191 1
      vertex -2.10115 -0.935493 0
      vertex -2.10115 -0.935493 1
    endloop
  endfacet
  facet normal 0.866033 0.499987 0
    outer loop
      vertex -2.10115 -0.935493 0
      vertex -1.86074 -1.35191 1
      vertex -1.86074 -1.35191 0
    endloop
  endfacet
  facet normal 0.743137 0.669139 0
    outer loop
      vertex -1.539 -1.70923 1
      vertex -1.86074 -1.35191 0
      vertex -1.86074 -1.35191 1
    endloop
  endfacet
  facet normal 0.743137 0.669139 0
    outer loop
      vertex -1.86074 -1.35191 0
      vertex -1.539 -1.70923 1
      vertex -1.539 -1.70923 0
    endloop
  endfacet
  facet normal 0.587792 -0.809012 0
    outer loop
      vertex -1.539 1.70923 0
      vertex -1.15 1.99186 1
      vertex -1.539 1.70923 1
    endloop
  endfacet
  facet normal 0.587792 -0.809012 0
    outer loop
      vertex -1.15 1.99186 1
      vertex -1.539 1.70923 0
      vertex -1.15 1.99186 0
    endloop
  endfacet
  facet normal 0.951053 -0.309027 0
    outer loop
      vertex -2.24974 0.478196 1
      vertex -2.10115 0.935493 0
      vertex -2.10115 0.935493 1
    endloop
  endfacet
  facet normal 0.951053 -0.309027 0
    outer loop
      vertex -2.10115 0.935493 0
      vertex -2.24974 0.478196 1
      vertex -2.24974 0.478196 0
    endloop
  endfacet
  facet normal -0.406733 0.913547 0
    outer loop
      vertex 1.15 -1.99186 0
      vertex 0.710738 -2.18743 1
      vertex 1.15 -1.99186 1
    endloop
  endfacet
  facet normal -0.406733 0.913547 0
    outer loop
      vertex 0.710738 -2.18743 1
      vertex 1.15 -1.99186 0
      vertex 0.710738 -2.18743 0
    endloop
  endfacet
  facet normal -0.207911 0.978148 0
    outer loop
      vertex 0.710738 -2.18743 0
      vertex 0.240415 -2.2874 1
      vertex 0.710738 -2.18743 1
    endloop
  endfacet
  facet normal -0.207911 0.978148 0
    outer loop
      vertex 0.240415 -2.2874 1
      vertex 0.710738 -2.18743 0
      vertex 0.240415 -2.2874 0
    endloop
  endfacet
  facet normal 0.207911 0.978148 -0
    outer loop
      vertex -0.240415 -2.2874 0
      vertex -0.710738 -2.18743 1
      vertex -0.240415 -2.2874 1
    endloop
  endfacet
  facet normal 0.207911 0.978148 0
    outer loop
      vertex -0.710738 -2.18743 1
      vertex -0.240415 -2.2874 0
      vertex -0.710738 -2.18743 0
    endloop
  endfacet
  facet normal 0.951053 0.309027 0
    outer loop
      vertex -2.10115 -0.935493 1
      vertex -2.24974 -0.478196 0
      vertex -2.24974 -0.478196 1
    endloop
  endfacet
  facet normal 0.951053 0.309027 0
    outer loop
      vertex -2.24974 -0.478196 0
      vertex -2.10115 -0.935493 1
      vertex -2.10115 -0.935493 0
    endloop
  endfacet
  facet normal 0.207911 -0.978148 0
    outer loop
      vertex -0.710738 2.18743 0
      vertex -0.240415 2.2874 1
      vertex -0.710738 2.18743 1
    endloop
  endfacet
  facet normal 0.207911 -0.978148 0
    outer loop
      vertex -0.240415 2.2874 1
      vertex -0.710738 2.18743 0
      vertex -0.240415 2.2874 0
    endloop
  endfacet
  facet normal 0.406733 0.913547 -0
    outer loop
      vertex -0.710738 -2.18743 0
      vertex -1.15 -1.99186 1
      vertex -0.710738 -2.18743 1
    endloop
  endfacet
  facet normal 0.406733 0.913547 0
    outer loop
      vertex -1.15 -1.99186 1
      vertex -0.710738 -2.18743 0
      vertex -1.15 -1.99186 0
    endloop
  endfacet
endsolid OpenSCAD_Model
