solid OpenSCAD_Model
  facet normal 0.972377 0.233415 0
    outer loop
      vertex 50.4015 43.7515 15
      vertex 50.1085 44.9721 3
      vertex 50.1085 44.9721 15
    endloop
  endfacet
  facet normal 0.972377 0.233415 0
    outer loop
      vertex 50.1085 44.9721 3
      vertex 50.4015 43.7515 15
      vertex 50.4015 43.7515 3
    endloop
  endfacet
  facet normal 0.996917 0.0784629 0
    outer loop
      vertex 50.5 42.5 15
      vertex 50.4015 43.7515 3
      vertex 50.4015 43.7515 15
    endloop
  endfacet
  facet normal 0.996917 0.0784629 0
    outer loop
      vertex 50.4015 43.7515 3
      vertex 50.5 42.5 15
      vertex 50.5 42.5 3
    endloop
  endfacet
  facet normal 0.996917 -0.0784629 0
    outer loop
      vertex 50.4015 41.2485 15
      vertex 50.5 42.5 3
      vertex 50.5 42.5 15
    endloop
  endfacet
  facet normal 0.996917 -0.0784629 0
    outer loop
      vertex 50.5 42.5 3
      vertex 50.4015 41.2485 15
      vertex 50.4015 41.2485 3
    endloop
  endfacet
  facet normal 0 0 -1
    outer loop
      vertex 42.5 34.5 3
      vertex 45.5 35.1102 3
      vertex 45.5 24.5 3
    endloop
  endfacet
  facet normal 0 0 -1
    outer loop
      vertex 45.5 35.1102 3
      vertex 45.0889 40.6191 3
      vertex 45.3512 41.0472 3
    endloop
  endfacet
  facet normal 0 -0 -1
    outer loop
      vertex 43.0006 39.3394 3
      vertex 45.5 35.1102 3
      vertex 42.5 34.5 3
    endloop
  endfacet
  facet normal 0 0 -1
    outer loop
      vertex 45.5 35.1102 3
      vertex 44.7627 40.2373 3
      vertex 45.0889 40.6191 3
    endloop
  endfacet
  facet normal 0 0 -1
    outer loop
      vertex 45.5 35.1102 3
      vertex 44.3809 39.9111 3
      vertex 44.7627 40.2373 3
    endloop
  endfacet
  facet normal 0 0 -1
    outer loop
      vertex 45.5 35.1102 3
      vertex 43.9528 39.6488 3
      vertex 44.3809 39.9111 3
    endloop
  endfacet
  facet normal 0 0 -1
    outer loop
      vertex 45.5 35.1102 3
      vertex 43.4889 39.4566 3
      vertex 43.9528 39.6488 3
    endloop
  endfacet
  facet normal 0 0 -1
    outer loop
      vertex 42.5 34.5 3
      vertex 45.5 24.5 3
      vertex 42.5 24.5 3
    endloop
  endfacet
  facet normal 0 0 -1
    outer loop
      vertex 45.5 35.1102 3
      vertex 43.0006 39.3394 3
      vertex 43.4889 39.4566 3
    endloop
  endfacet
  facet normal 0 0 -1
    outer loop
      vertex 43.0006 39.3394 3
      vertex 42.5 34.5 3
      vertex 42.5 39.3 3
    endloop
  endfacet
  facet normal 0 0 -1
    outer loop
      vertex 45.7 42.5 3
      vertex 50.5 42.5 3
      vertex 50.4015 41.2485 3
    endloop
  endfacet
  facet normal 0 0 -1
    outer loop
      vertex 45.6606 41.9994 3
      vertex 50.4015 41.2485 3
      vertex 50.1085 40.0279 3
    endloop
  endfacet
  facet normal 0 0 -1
    outer loop
      vertex 50.5 42.5 3
      vertex 45.7 42.5 3
      vertex 50.4015 43.7515 3
    endloop
  endfacet
  facet normal 0 0 -1
    outer loop
      vertex 45.5434 41.5111 3
      vertex 50.1085 40.0279 3
      vertex 49.6281 38.8681 3
    endloop
  endfacet
  facet normal 0 0 -1
    outer loop
      vertex 45.6606 43.0006 3
      vertex 50.4015 43.7515 3
      vertex 45.7 42.5 3
    endloop
  endfacet
  facet normal 0 0 -1
    outer loop
      vertex 45.3512 41.0472 3
      vertex 49.6281 38.8681 3
      vertex 48.9721 37.7977 3
    endloop
  endfacet
  facet normal -0 0 -1
    outer loop
      vertex 50.4015 43.7515 3
      vertex 45.6606 43.0006 3
      vertex 50.1085 44.9721 3
    endloop
  endfacet
  facet normal 0 0 -1
    outer loop
      vertex 45.3512 41.0472 3
      vertex 48.9721 37.7977 3
      vertex 48.1569 36.8431 3
    endloop
  endfacet
  facet normal 0 0 -1
    outer loop
      vertex 45.5434 43.4889 3
      vertex 50.1085 44.9721 3
      vertex 45.6606 43.0006 3
    endloop
  endfacet
  facet normal 0 0 -1
    outer loop
      vertex 45.3512 41.0472 3
      vertex 48.1569 36.8431 3
      vertex 47.2023 36.0279 3
    endloop
  endfacet
  facet normal -0 0 -1
    outer loop
      vertex 50.1085 44.9721 3
      vertex 45.5434 43.4889 3
      vertex 49.6281 46.1319 3
    endloop
  endfacet
  facet normal 0 0 -1
    outer loop
      vertex 45.3512 41.0472 3
      vertex 47.2023 36.0279 3
      vertex 46.1319 35.3719 3
    endloop
  endfacet
  facet normal 0 0 -1
    outer loop
      vertex 45.3512 43.9528 3
      vertex 49.6281 46.1319 3
      vertex 45.5434 43.4889 3
    endloop
  endfacet
  facet normal -0 0 -1
    outer loop
      vertex 49.6281 46.1319 3
      vertex 45.3512 43.9528 3
      vertex 48.9721 47.2023 3
    endloop
  endfacet
  facet normal 0 0 -1
    outer loop
      vertex 50.4015 41.2485 3
      vertex 45.6606 41.9994 3
      vertex 45.7 42.5 3
    endloop
  endfacet
  facet normal 0 0 -1
    outer loop
      vertex 50.1085 40.0279 3
      vertex 45.5434 41.5111 3
      vertex 45.6606 41.9994 3
    endloop
  endfacet
  facet normal 0 0 -1
    outer loop
      vertex 45.3512 41.0472 3
      vertex 46.1319 35.3719 3
      vertex 45.5 35.1102 3
    endloop
  endfacet
  facet normal 0 0 -1
    outer loop
      vertex 49.6281 38.8681 3
      vertex 45.3512 41.0472 3
      vertex 45.5434 41.5111 3
    endloop
  endfacet
  facet normal 0 0 -1
    outer loop
      vertex 45.0889 44.3809 3
      vertex 48.9721 47.2023 3
      vertex 45.3512 43.9528 3
    endloop
  endfacet
  facet normal -0 0 -1
    outer loop
      vertex 48.9721 47.2023 3
      vertex 45.0889 44.3809 3
      vertex 48.1569 48.1569 3
    endloop
  endfacet
  facet normal 0 0 -1
    outer loop
      vertex 44.7627 44.7627 3
      vertex 48.1569 48.1569 3
      vertex 45.0889 44.3809 3
    endloop
  endfacet
  facet normal -0 0 -1
    outer loop
      vertex 48.1569 48.1569 3
      vertex 44.7627 44.7627 3
      vertex 47.2023 48.9721 3
    endloop
  endfacet
  facet normal 0 0 -1
    outer loop
      vertex 44.3809 45.0889 3
      vertex 47.2023 48.9721 3
      vertex 44.7627 44.7627 3
    endloop
  endfacet
  facet normal -0 0 -1
    outer loop
      vertex 47.2023 48.9721 3
      vertex 44.3809 45.0889 3
      vertex 46.1319 49.6281 3
    endloop
  endfacet
  facet normal 0 0 -1
    outer loop
      vertex 43.9528 45.3512 3
      vertex 46.1319 49.6281 3
      vertex 44.3809 45.0889 3
    endloop
  endfacet
  facet normal -0 0 -1
    outer loop
      vertex 46.1319 49.6281 3
      vertex 43.9528 45.3512 3
      vertex 45.5 49.8898 3
    endloop
  endfacet
  facet normal 0 0 -1
    outer loop
      vertex 43.4889 45.5434 3
      vertex 45.5 49.8898 3
      vertex 43.9528 45.3512 3
    endloop
  endfacet
  facet normal 0 0 -1
    outer loop
      vertex 43.0006 45.6606 3
      vertex 45.5 49.8898 3
      vertex 43.4889 45.5434 3
    endloop
  endfacet
  facet normal -0 0 -1
    outer loop
      vertex 45.5 49.8898 3
      vertex 43.0006 45.6606 3
      vertex 42.5 50.5 3
    endloop
  endfacet
  facet normal 0 0 -1
    outer loop
      vertex 42.5 50.5 3
      vertex 43.0006 45.6606 3
      vertex 42.5 45.7 3
    endloop
  endfacet
  facet normal 0 0 -1
    outer loop
      vertex 45.5 49.8898 3
      vertex 42.5 50.5 3
      vertex 45.5 60.5 3
    endloop
  endfacet
  facet normal -0 0 -1
    outer loop
      vertex 45.5 60.5 3
      vertex 42.5 50.5 3
      vertex 42.5 60.5 3
    endloop
  endfacet
  facet normal 0.760447 0.649399 0
    outer loop
      vertex 48.9721 47.2023 15
      vertex 48.1569 48.1569 3
      vertex 48.1569 48.1569 15
    endloop
  endfacet
  facet normal 0.760447 0.649399 0
    outer loop
      vertex 48.1569 48.1569 3
      vertex 48.9721 47.2023 15
      vertex 48.9721 47.2023 3
    endloop
  endfacet
  facet normal 0.649399 0.760447 -0
    outer loop
      vertex 48.1569 48.1569 3
      vertex 47.2023 48.9721 15
      vertex 48.1569 48.1569 15
    endloop
  endfacet
  facet normal 0.649399 0.760447 0
    outer loop
      vertex 47.2023 48.9721 15
      vertex 48.1569 48.1569 3
      vertex 47.2023 48.9721 3
    endloop
  endfacet
  facet normal 0.85262 -0.522532 0
    outer loop
      vertex 48.9721 37.7977 15
      vertex 49.6281 38.8681 3
      vertex 49.6281 38.8681 15
    endloop
  endfacet
  facet normal 0.85262 -0.522532 0
    outer loop
      vertex 49.6281 38.8681 3
      vertex 48.9721 37.7977 15
      vertex 48.9721 37.7977 3
    endloop
  endfacet
  facet normal 0.923881 -0.38268 0
    outer loop
      vertex 49.6281 38.8681 15
      vertex 50.1085 40.0279 3
      vertex 50.1085 40.0279 15
    endloop
  endfacet
  facet normal 0.923881 -0.38268 0
    outer loop
      vertex 50.1085 40.0279 3
      vertex 49.6281 38.8681 15
      vertex 49.6281 38.8681 3
    endloop
  endfacet
  facet normal 0.382632 0.923901 -0
    outer loop
      vertex 46.1319 49.6281 3
      vertex 45.5 49.8898 15
      vertex 46.1319 49.6281 15
    endloop
  endfacet
  facet normal 0.382632 0.923901 0
    outer loop
      vertex 45.5 49.8898 15
      vertex 46.1319 49.6281 3
      vertex 45.5 49.8898 3
    endloop
  endfacet
  facet normal -0 0 1
    outer loop
      vertex 42.5 50.5 15
      vertex 45.5 49.8898 15
      vertex 45.5 60.5 15
    endloop
  endfacet
  facet normal 0 0 1
    outer loop
      vertex 45.5 49.8898 15
      vertex 45.0889 44.3809 15
      vertex 45.3512 43.9528 15
    endloop
  endfacet
  facet normal 0 -0 1
    outer loop
      vertex 43.0006 45.6606 15
      vertex 45.5 49.8898 15
      vertex 42.5 50.5 15
    endloop
  endfacet
  facet normal 0 0 1
    outer loop
      vertex 45.5 49.8898 15
      vertex 44.7627 44.7627 15
      vertex 45.0889 44.3809 15
    endloop
  endfacet
  facet normal 0 0 1
    outer loop
      vertex 45.5 49.8898 15
      vertex 44.3809 45.0889 15
      vertex 44.7627 44.7627 15
    endloop
  endfacet
  facet normal 0 0 1
    outer loop
      vertex 45.5 49.8898 15
      vertex 43.9528 45.3512 15
      vertex 44.3809 45.0889 15
    endloop
  endfacet
  facet normal 0 0 1
    outer loop
      vertex 45.5 49.8898 15
      vertex 43.4889 45.5434 15
      vertex 43.9528 45.3512 15
    endloop
  endfacet
  facet normal 0 0 1
    outer loop
      vertex 42.5 50.5 15
      vertex 45.5 60.5 15
      vertex 42.5 60.5 15
    endloop
  endfacet
  facet normal 0 0 1
    outer loop
      vertex 45.5 49.8898 15
      vertex 43.0006 45.6606 15
      vertex 43.4889 45.5434 15
    endloop
  endfacet
  facet normal 0 0 1
    outer loop
      vertex 43.0006 45.6606 15
      vertex 42.5 50.5 15
      vertex 42.5 45.7 15
    endloop
  endfacet
  facet normal 0 0 1
    outer loop
      vertex 45.7 42.5 15
      vertex 50.5 42.5 15
      vertex 50.4015 43.7515 15
    endloop
  endfacet
  facet normal 0 0 1
    outer loop
      vertex 45.6606 43.0006 15
      vertex 50.4015 43.7515 15
      vertex 50.1085 44.9721 15
    endloop
  endfacet
  facet normal 0 0 1
    outer loop
      vertex 50.5 42.5 15
      vertex 45.7 42.5 15
      vertex 50.4015 41.2485 15
    endloop
  endfacet
  facet normal 0 0 1
    outer loop
      vertex 45.5434 43.4889 15
      vertex 50.1085 44.9721 15
      vertex 49.6281 46.1319 15
    endloop
  endfacet
  facet normal -0 0 1
    outer loop
      vertex 45.6606 41.9994 15
      vertex 50.4015 41.2485 15
      vertex 45.7 42.5 15
    endloop
  endfacet
  facet normal 0 0 1
    outer loop
      vertex 45.3512 43.9528 15
      vertex 49.6281 46.1319 15
      vertex 48.9721 47.2023 15
    endloop
  endfacet
  facet normal 0 0 1
    outer loop
      vertex 50.4015 41.2485 15
      vertex 45.6606 41.9994 15
      vertex 50.1085 40.0279 15
    endloop
  endfacet
  facet normal 0 0 1
    outer loop
      vertex 45.3512 43.9528 15
      vertex 48.9721 47.2023 15
      vertex 48.1569 48.1569 15
    endloop
  endfacet
  facet normal -0 0 1
    outer loop
      vertex 45.5434 41.5111 15
      vertex 50.1085 40.0279 15
      vertex 45.6606 41.9994 15
    endloop
  endfacet
  facet normal 0 0 1
    outer loop
      vertex 45.3512 43.9528 15
      vertex 48.1569 48.1569 15
      vertex 47.2023 48.9721 15
    endloop
  endfacet
  facet normal 0 0 1
    outer loop
      vertex 50.1085 40.0279 15
      vertex 45.5434 41.5111 15
      vertex 49.6281 38.8681 15
    endloop
  endfacet
  facet normal 0 0 1
    outer loop
      vertex 45.3512 43.9528 15
      vertex 47.2023 48.9721 15
      vertex 46.1319 49.6281 15
    endloop
  endfacet
  facet normal -0 0 1
    outer loop
      vertex 45.3512 41.0472 15
      vertex 49.6281 38.8681 15
      vertex 45.5434 41.5111 15
    endloop
  endfacet
  facet normal 0 0 1
    outer loop
      vertex 49.6281 38.8681 15
      vertex 45.3512 41.0472 15
      vertex 48.9721 37.7977 15
    endloop
  endfacet
  facet normal 0 0 1
    outer loop
      vertex 50.4015 43.7515 15
      vertex 45.6606 43.0006 15
      vertex 45.7 42.5 15
    endloop
  endfacet
  facet normal 0 0 1
    outer loop
      vertex 50.1085 44.9721 15
      vertex 45.5434 43.4889 15
      vertex 45.6606 43.0006 15
    endloop
  endfacet
  facet normal 0 0 1
    outer loop
      vertex 45.3512 43.9528 15
      vertex 46.1319 49.6281 15
      vertex 45.5 49.8898 15
    endloop
  endfacet
  facet normal 0 0 1
    outer loop
      vertex 49.6281 46.1319 15
      vertex 45.3512 43.9528 15
      vertex 45.5434 43.4889 15
    endloop
  endfacet
  facet normal -0 0 1
    outer loop
      vertex 45.0889 40.6191 15
      vertex 48.9721 37.7977 15
      vertex 45.3512 41.0472 15
    endloop
  endfacet
  facet normal 0 0 1
    outer loop
      vertex 48.9721 37.7977 15
      vertex 45.0889 40.6191 15
      vertex 48.1569 36.8431 15
    endloop
  endfacet
  facet normal -0 0 1
    outer loop
      vertex 44.7627 40.2373 15
      vertex 48.1569 36.8431 15
      vertex 45.0889 40.6191 15
    endloop
  endfacet
  facet normal 0 0 1
    outer loop
      vertex 48.1569 36.8431 15
      vertex 44.7627 40.2373 15
      vertex 47.2023 36.0279 15
    endloop
  endfacet
  facet normal -0 0 1
    outer loop
      vertex 44.3809 39.9111 15
      vertex 47.2023 36.0279 15
      vertex 44.7627 40.2373 15
    endloop
  endfacet
  facet normal 0 0 1
    outer loop
      vertex 47.2023 36.0279 15
      vertex 44.3809 39.9111 15
      vertex 46.1319 35.3719 15
    endloop
  endfacet
  facet normal -0 0 1
    outer loop
      vertex 43.9528 39.6488 15
      vertex 46.1319 35.3719 15
      vertex 44.3809 39.9111 15
    endloop
  endfacet
  facet normal 0 0 1
    outer loop
      vertex 46.1319 35.3719 15
      vertex 43.9528 39.6488 15
      vertex 45.5 35.1102 15
    endloop
  endfacet
  facet normal -0 0 1
    outer loop
      vertex 43.4889 39.4566 15
      vertex 45.5 35.1102 15
      vertex 43.9528 39.6488 15
    endloop
  endfacet
  facet normal -0 0 1
    outer loop
      vertex 43.0006 39.3394 15
      vertex 45.5 35.1102 15
      vertex 43.4889 39.4566 15
    endloop
  endfacet
  facet normal 0 0 1
    outer loop
      vertex 45.5 35.1102 15
      vertex 43.0006 39.3394 15
      vertex 42.5 34.5 15
    endloop
  endfacet
  facet normal 0 0 1
    outer loop
      vertex 42.5 34.5 15
      vertex 43.0006 39.3394 15
      vertex 42.5 39.3 15
    endloop
  endfacet
  facet normal 0 0 1
    outer loop
      vertex 45.5 35.1102 15
      vertex 42.5 34.5 15
      vertex 45.5 24.5 15
    endloop
  endfacet
  facet normal 0 0 1
    outer loop
      vertex 45.5 24.5 15
      vertex 42.5 34.5 15
      vertex 42.5 24.5 15
    endloop
  endfacet
  facet normal 0.522532 0.85262 -0
    outer loop
      vertex 47.2023 48.9721 3
      vertex 46.1319 49.6281 15
      vertex 47.2023 48.9721 15
    endloop
  endfacet
  facet normal 0.522532 0.85262 0
    outer loop
      vertex 46.1319 49.6281 15
      vertex 47.2023 48.9721 3
      vertex 46.1319 49.6281 3
    endloop
  endfacet
  facet normal 0.522532 -0.85262 0
    outer loop
      vertex 46.1319 35.3719 3
      vertex 47.2023 36.0279 15
      vertex 46.1319 35.3719 15
    endloop
  endfacet
  facet normal 0.522532 -0.85262 0
    outer loop
      vertex 47.2023 36.0279 15
      vertex 46.1319 35.3719 3
      vertex 47.2023 36.0279 3
    endloop
  endfacet
  facet normal 0.85262 0.522532 0
    outer loop
      vertex 49.6281 46.1319 15
      vertex 48.9721 47.2023 3
      vertex 48.9721 47.2023 15
    endloop
  endfacet
  facet normal 0.85262 0.522532 0
    outer loop
      vertex 48.9721 47.2023 3
      vertex 49.6281 46.1319 15
      vertex 49.6281 46.1319 3
    endloop
  endfacet
  facet normal 0.972377 -0.233415 0
    outer loop
      vertex 50.1085 40.0279 15
      vertex 50.4015 41.2485 3
      vertex 50.4015 41.2485 15
    endloop
  endfacet
  facet normal 0.972377 -0.233415 0
    outer loop
      vertex 50.4015 41.2485 3
      vertex 50.1085 40.0279 15
      vertex 50.1085 40.0279 3
    endloop
  endfacet
  facet normal 0.760447 -0.649399 0
    outer loop
      vertex 48.1569 36.8431 15
      vertex 48.9721 37.7977 3
      vertex 48.9721 37.7977 15
    endloop
  endfacet
  facet normal 0.760447 -0.649399 0
    outer loop
      vertex 48.9721 37.7977 3
      vertex 48.1569 36.8431 15
      vertex 48.1569 36.8431 3
    endloop
  endfacet
  facet normal 0.649399 -0.760447 0
    outer loop
      vertex 47.2023 36.0279 3
      vertex 48.1569 36.8431 15
      vertex 47.2023 36.0279 15
    endloop
  endfacet
  facet normal 0.649399 -0.760447 0
    outer loop
      vertex 48.1569 36.8431 15
      vertex 47.2023 36.0279 3
      vertex 48.1569 36.8431 3
    endloop
  endfacet
  facet normal 0.382632 -0.923901 0
    outer loop
      vertex 45.5 35.1102 3
      vertex 46.1319 35.3719 15
      vertex 45.5 35.1102 15
    endloop
  endfacet
  facet normal 0.382632 -0.923901 0
    outer loop
      vertex 46.1319 35.3719 15
      vertex 45.5 35.1102 3
      vertex 46.1319 35.3719 3
    endloop
  endfacet
  facet normal 0.923881 0.38268 0
    outer loop
      vertex 50.1085 44.9721 15
      vertex 49.6281 46.1319 3
      vertex 49.6281 46.1319 15
    endloop
  endfacet
  facet normal 0.923881 0.38268 0
    outer loop
      vertex 49.6281 46.1319 3
      vertex 50.1085 44.9721 15
      vertex 50.1085 44.9721 3
    endloop
  endfacet
  facet normal 1 -0 0
    outer loop
      vertex 45.5 57.7101 8.42161
      vertex 45.5 60.5 3
      vertex 45.5 60.5 15
    endloop
  endfacet
  facet normal 1 0 0
    outer loop
      vertex 45.5 60.5 3
      vertex 45.5 57.7101 8.42161
      vertex 45.5 57.7456 7.85872
    endloop
  endfacet
  facet normal 1 0 0
    outer loop
      vertex 45.5 60.5 15
      vertex 45.5 57.5359 8.958
      vertex 45.5 57.7101 8.42161
    endloop
  endfacet
  facet normal 1 0 0
    outer loop
      vertex 45.5 60.5 15
      vertex 45.5 57.2337 9.4342
      vertex 45.5 57.5359 8.958
    endloop
  endfacet
  facet normal 1 0 0
    outer loop
      vertex 45.5 60.5 15
      vertex 45.5 56.8225 9.82029
      vertex 45.5 57.2337 9.4342
    endloop
  endfacet
  facet normal 1 0 0
    outer loop
      vertex 45.5 60.5 15
      vertex 45.5 56.3283 10.092
      vertex 45.5 56.8225 9.82029
    endloop
  endfacet
  facet normal 1 0 0
    outer loop
      vertex 45.5 60.5 15
      vertex 45.5 55.782 10.2323
      vertex 45.5 56.3283 10.092
    endloop
  endfacet
  facet normal 1 0 0
    outer loop
      vertex 45.5 60.5 15
      vertex 45.5 55.218 10.2323
      vertex 45.5 55.782 10.2323
    endloop
  endfacet
  facet normal 1 -0 0
    outer loop
      vertex 45.5 49.8898 15
      vertex 45.5 55.218 10.2323
      vertex 45.5 60.5 15
    endloop
  endfacet
  facet normal 1 0 0
    outer loop
      vertex 45.5 55.218 10.2323
      vertex 45.5 49.8898 15
      vertex 45.5 54.6717 10.092
    endloop
  endfacet
  facet normal 1 0 0
    outer loop
      vertex 45.5 49.8898 3
      vertex 45.5 53.2899 8.42161
      vertex 45.5 49.8898 15
    endloop
  endfacet
  facet normal 1 0 0
    outer loop
      vertex 45.5 53.4641 8.958
      vertex 45.5 49.8898 15
      vertex 45.5 53.2899 8.42161
    endloop
  endfacet
  facet normal 1 0 0
    outer loop
      vertex 45.5 53.7663 9.4342
      vertex 45.5 49.8898 15
      vertex 45.5 53.4641 8.958
    endloop
  endfacet
  facet normal 1 0 0
    outer loop
      vertex 45.5 54.1775 9.82029
      vertex 45.5 49.8898 15
      vertex 45.5 53.7663 9.4342
    endloop
  endfacet
  facet normal 1 0 0
    outer loop
      vertex 45.5 54.6717 10.092
      vertex 45.5 49.8898 15
      vertex 45.5 54.1775 9.82029
    endloop
  endfacet
  facet normal 1 -0 0
    outer loop
      vertex 45.5 57.6399 7.30471
      vertex 45.5 60.5 3
      vertex 45.5 57.7456 7.85872
    endloop
  endfacet
  facet normal 1 -0 0
    outer loop
      vertex 45.5 57.3997 6.79439
      vertex 45.5 60.5 3
      vertex 45.5 57.6399 7.30471
    endloop
  endfacet
  facet normal 1 -0 0
    outer loop
      vertex 45.5 57.0402 6.35982
      vertex 45.5 60.5 3
      vertex 45.5 57.3997 6.79439
    endloop
  endfacet
  facet normal 1 -0 0
    outer loop
      vertex 45.5 56.5839 6.02831
      vertex 45.5 60.5 3
      vertex 45.5 57.0402 6.35982
    endloop
  endfacet
  facet normal 1 -0 0
    outer loop
      vertex 45.5 56.0596 5.82069
      vertex 45.5 60.5 3
      vertex 45.5 56.5839 6.02831
    endloop
  endfacet
  facet normal 1 -0 0
    outer loop
      vertex 45.5 55.5 5.75
      vertex 45.5 60.5 3
      vertex 45.5 56.0596 5.82069
    endloop
  endfacet
  facet normal 1 0 0
    outer loop
      vertex 45.5 49.8898 3
      vertex 45.5 55.5 5.75
      vertex 45.5 54.9404 5.82069
    endloop
  endfacet
  facet normal 1 0 0
    outer loop
      vertex 45.5 49.8898 3
      vertex 45.5 54.9404 5.82069
      vertex 45.5 54.4161 6.02831
    endloop
  endfacet
  facet normal 1 0 0
    outer loop
      vertex 45.5 53.2899 8.42161
      vertex 45.5 49.8898 3
      vertex 45.5 53.2544 7.85872
    endloop
  endfacet
  facet normal 1 0 0
    outer loop
      vertex 45.5 55.5 5.75
      vertex 45.5 49.8898 3
      vertex 45.5 60.5 3
    endloop
  endfacet
  facet normal 1 0 0
    outer loop
      vertex 45.5 53.9598 6.35982
      vertex 45.5 49.8898 3
      vertex 45.5 54.4161 6.02831
    endloop
  endfacet
  facet normal 1 0 0
    outer loop
      vertex 45.5 53.6003 6.79439
      vertex 45.5 49.8898 3
      vertex 45.5 53.9598 6.35982
    endloop
  endfacet
  facet normal 1 0 0
    outer loop
      vertex 45.5 53.3601 7.30471
      vertex 45.5 49.8898 3
      vertex 45.5 53.6003 6.79439
    endloop
  endfacet
  facet normal 1 0 0
    outer loop
      vertex 45.5 53.2544 7.85872
      vertex 45.5 49.8898 3
      vertex 45.5 53.3601 7.30471
    endloop
  endfacet
  facet normal 1 -0 0
    outer loop
      vertex 45.5 31.7101 8.42161
      vertex 45.5 35.1102 3
      vertex 45.5 35.1102 15
    endloop
  endfacet
  facet normal 1 0 0
    outer loop
      vertex 45.5 35.1102 3
      vertex 45.5 31.7101 8.42161
      vertex 45.5 31.7456 7.85872
    endloop
  endfacet
  facet normal 1 0 0
    outer loop
      vertex 45.5 35.1102 15
      vertex 45.5 31.5359 8.958
      vertex 45.5 31.7101 8.42161
    endloop
  endfacet
  facet normal 1 0 0
    outer loop
      vertex 45.5 35.1102 15
      vertex 45.5 31.2337 9.4342
      vertex 45.5 31.5359 8.958
    endloop
  endfacet
  facet normal 1 0 0
    outer loop
      vertex 45.5 35.1102 15
      vertex 45.5 30.8225 9.82029
      vertex 45.5 31.2337 9.4342
    endloop
  endfacet
  facet normal 1 0 0
    outer loop
      vertex 45.5 35.1102 15
      vertex 45.5 30.3283 10.092
      vertex 45.5 30.8225 9.82029
    endloop
  endfacet
  facet normal 1 0 0
    outer loop
      vertex 45.5 35.1102 15
      vertex 45.5 29.782 10.2323
      vertex 45.5 30.3283 10.092
    endloop
  endfacet
  facet normal 1 -0 0
    outer loop
      vertex 45.5 24.5 15
      vertex 45.5 29.782 10.2323
      vertex 45.5 35.1102 15
    endloop
  endfacet
  facet normal 1 0 0
    outer loop
      vertex 45.5 29.782 10.2323
      vertex 45.5 24.5 15
      vertex 45.5 29.218 10.2323
    endloop
  endfacet
  facet normal 1 0 0
    outer loop
      vertex 45.5 29.218 10.2323
      vertex 45.5 24.5 15
      vertex 45.5 28.6717 10.092
    endloop
  endfacet
  facet normal 1 0 0
    outer loop
      vertex 45.5 24.5 3
      vertex 45.5 27.2899 8.42161
      vertex 45.5 24.5 15
    endloop
  endfacet
  facet normal 1 0 0
    outer loop
      vertex 45.5 27.4641 8.958
      vertex 45.5 24.5 15
      vertex 45.5 27.2899 8.42161
    endloop
  endfacet
  facet normal 1 0 0
    outer loop
      vertex 45.5 27.7663 9.4342
      vertex 45.5 24.5 15
      vertex 45.5 27.4641 8.958
    endloop
  endfacet
  facet normal 1 0 0
    outer loop
      vertex 45.5 28.1775 9.82029
      vertex 45.5 24.5 15
      vertex 45.5 27.7663 9.4342
    endloop
  endfacet
  facet normal 1 0 0
    outer loop
      vertex 45.5 28.6717 10.092
      vertex 45.5 24.5 15
      vertex 45.5 28.1775 9.82029
    endloop
  endfacet
  facet normal 1 -0 0
    outer loop
      vertex 45.5 31.6399 7.30471
      vertex 45.5 35.1102 3
      vertex 45.5 31.7456 7.85872
    endloop
  endfacet
  facet normal 1 -0 0
    outer loop
      vertex 45.5 31.3997 6.79439
      vertex 45.5 35.1102 3
      vertex 45.5 31.6399 7.30471
    endloop
  endfacet
  facet normal 1 -0 0
    outer loop
      vertex 45.5 31.0402 6.35982
      vertex 45.5 35.1102 3
      vertex 45.5 31.3997 6.79439
    endloop
  endfacet
  facet normal 1 -0 0
    outer loop
      vertex 45.5 30.5839 6.02831
      vertex 45.5 35.1102 3
      vertex 45.5 31.0402 6.35982
    endloop
  endfacet
  facet normal 1 -0 0
    outer loop
      vertex 45.5 30.0596 5.82069
      vertex 45.5 35.1102 3
      vertex 45.5 30.5839 6.02831
    endloop
  endfacet
  facet normal 1 -0 0
    outer loop
      vertex 45.5 29.5 5.75
      vertex 45.5 35.1102 3
      vertex 45.5 30.0596 5.82069
    endloop
  endfacet
  facet normal 1 0 0
    outer loop
      vertex 45.5 24.5 3
      vertex 45.5 29.5 5.75
      vertex 45.5 28.9404 5.82069
    endloop
  endfacet
  facet normal 1 0 0
    outer loop
      vertex 45.5 24.5 3
      vertex 45.5 28.9404 5.82069
      vertex 45.5 28.4161 6.02831
    endloop
  endfacet
  facet normal 1 0 0
    outer loop
      vertex 45.5 27.2899 8.42161
      vertex 45.5 24.5 3
      vertex 45.5 27.2544 7.85872
    endloop
  endfacet
  facet normal 1 0 0
    outer loop
      vertex 45.5 29.5 5.75
      vertex 45.5 24.5 3
      vertex 45.5 35.1102 3
    endloop
  endfacet
  facet normal 1 0 0
    outer loop
      vertex 45.5 27.9598 6.35982
      vertex 45.5 24.5 3
      vertex 45.5 28.4161 6.02831
    endloop
  endfacet
  facet normal 1 0 0
    outer loop
      vertex 45.5 27.6003 6.79439
      vertex 45.5 24.5 3
      vertex 45.5 27.9598 6.35982
    endloop
  endfacet
  facet normal 1 0 0
    outer loop
      vertex 45.5 27.3601 7.30471
      vertex 45.5 24.5 3
      vertex 45.5 27.6003 6.79439
    endloop
  endfacet
  facet normal 1 0 0
    outer loop
      vertex 45.5 27.2544 7.85872
      vertex 45.5 24.5 3
      vertex 45.5 27.3601 7.30471
    endloop
  endfacet
  facet normal -1 0 0
    outer loop
      vertex 42.5 57.7101 8.42161
      vertex 42.5 60.5 3
      vertex 42.5 57.7456 7.85872
    endloop
  endfacet
  facet normal -1 0 0
    outer loop
      vertex 42.5 60.5 3
      vertex 42.5 57.6399 7.30471
      vertex 42.5 57.7456 7.85872
    endloop
  endfacet
  facet normal -1 0 0
    outer loop
      vertex 42.5 60.5 3
      vertex 42.5 57.3997 6.79439
      vertex 42.5 57.6399 7.30471
    endloop
  endfacet
  facet normal -1 0 0
    outer loop
      vertex 42.5 60.5 3
      vertex 42.5 57.0402 6.35982
      vertex 42.5 57.3997 6.79439
    endloop
  endfacet
  facet normal -1 0 0
    outer loop
      vertex 42.5 60.5 3
      vertex 42.5 56.5839 6.02831
      vertex 42.5 57.0402 6.35982
    endloop
  endfacet
  facet normal -1 0 0
    outer loop
      vertex 42.5 60.5 3
      vertex 42.5 56.0596 5.82069
      vertex 42.5 56.5839 6.02831
    endloop
  endfacet
  facet normal -1 0 0
    outer loop
      vertex 42.5 60.5 3
      vertex 42.5 55.5 5.75
      vertex 42.5 56.0596 5.82069
    endloop
  endfacet
  facet normal -1 0 0
    outer loop
      vertex 42.5 50.5 3
      vertex 42.5 55.5 5.75
      vertex 42.5 60.5 3
    endloop
  endfacet
  facet normal -1 -0 0
    outer loop
      vertex 42.5 55.5 5.75
      vertex 42.5 50.5 3
      vertex 42.5 54.9404 5.82069
    endloop
  endfacet
  facet normal -1 -0 0
    outer loop
      vertex 42.5 53.3601 7.30471
      vertex 42.5 50.5 3
      vertex 42.5 53.2544 7.85872
    endloop
  endfacet
  facet normal -1 -0 0
    outer loop
      vertex 42.5 53.6003 6.79439
      vertex 42.5 50.5 3
      vertex 42.5 53.3601 7.30471
    endloop
  endfacet
  facet normal -1 -0 0
    outer loop
      vertex 42.5 53.9598 6.35982
      vertex 42.5 50.5 3
      vertex 42.5 53.6003 6.79439
    endloop
  endfacet
  facet normal -1 -0 0
    outer loop
      vertex 42.5 54.4161 6.02831
      vertex 42.5 50.5 3
      vertex 42.5 53.9598 6.35982
    endloop
  endfacet
  facet normal -1 -0 0
    outer loop
      vertex 42.5 54.9404 5.82069
      vertex 42.5 50.5 3
      vertex 42.5 54.4161 6.02831
    endloop
  endfacet
  facet normal -1 0 0
    outer loop
      vertex 42.5 60.5 3
      vertex 42.5 57.7101 8.42161
      vertex 42.5 60.5 15
    endloop
  endfacet
  facet normal -1 0 0
    outer loop
      vertex 42.5 57.5359 8.958
      vertex 42.5 60.5 15
      vertex 42.5 57.7101 8.42161
    endloop
  endfacet
  facet normal -1 0 0
    outer loop
      vertex 42.5 57.2337 9.4342
      vertex 42.5 60.5 15
      vertex 42.5 57.5359 8.958
    endloop
  endfacet
  facet normal -1 0 0
    outer loop
      vertex 42.5 56.8225 9.82029
      vertex 42.5 60.5 15
      vertex 42.5 57.2337 9.4342
    endloop
  endfacet
  facet normal -1 0 0
    outer loop
      vertex 42.5 56.3283 10.092
      vertex 42.5 60.5 15
      vertex 42.5 56.8225 9.82029
    endloop
  endfacet
  facet normal -1 0 0
    outer loop
      vertex 42.5 55.782 10.2323
      vertex 42.5 60.5 15
      vertex 42.5 56.3283 10.092
    endloop
  endfacet
  facet normal -1 0 0
    outer loop
      vertex 42.5 55.218 10.2323
      vertex 42.5 60.5 15
      vertex 42.5 55.782 10.2323
    endloop
  endfacet
  facet normal -1 0 0
    outer loop
      vertex 42.5 50.5 15
      vertex 42.5 55.218 10.2323
      vertex 42.5 54.6717 10.092
    endloop
  endfacet
  facet normal -1 0 0
    outer loop
      vertex 42.5 50.5 15
      vertex 42.5 54.6717 10.092
      vertex 42.5 54.1775 9.82029
    endloop
  endfacet
  facet normal -1 0 0
    outer loop
      vertex 42.5 50.5 3
      vertex 42.5 53.2899 8.42161
      vertex 42.5 53.2544 7.85872
    endloop
  endfacet
  facet normal -1 0 0
    outer loop
      vertex 42.5 50.5 15
      vertex 42.5 53.2899 8.42161
      vertex 42.5 50.5 3
    endloop
  endfacet
  facet normal -1 0 0
    outer loop
      vertex 42.5 55.218 10.2323
      vertex 42.5 50.5 15
      vertex 42.5 60.5 15
    endloop
  endfacet
  facet normal -1 0 0
    outer loop
      vertex 42.5 53.7663 9.4342
      vertex 42.5 50.5 15
      vertex 42.5 54.1775 9.82029
    endloop
  endfacet
  facet normal -1 0 0
    outer loop
      vertex 42.5 53.4641 8.958
      vertex 42.5 50.5 15
      vertex 42.5 53.7663 9.4342
    endloop
  endfacet
  facet normal -1 0 0
    outer loop
      vertex 42.5 53.2899 8.42161
      vertex 42.5 50.5 15
      vertex 42.5 53.4641 8.958
    endloop
  endfacet
  facet normal -1 0 0
    outer loop
      vertex 42.5 31.7101 8.42161
      vertex 42.5 34.5 3
      vertex 42.5 31.7456 7.85872
    endloop
  endfacet
  facet normal -1 0 0
    outer loop
      vertex 42.5 34.5 3
      vertex 42.5 31.6399 7.30471
      vertex 42.5 31.7456 7.85872
    endloop
  endfacet
  facet normal -1 0 0
    outer loop
      vertex 42.5 34.5 3
      vertex 42.5 31.3997 6.79439
      vertex 42.5 31.6399 7.30471
    endloop
  endfacet
  facet normal -1 0 0
    outer loop
      vertex 42.5 34.5 3
      vertex 42.5 31.0402 6.35982
      vertex 42.5 31.3997 6.79439
    endloop
  endfacet
  facet normal -1 0 0
    outer loop
      vertex 42.5 34.5 3
      vertex 42.5 30.5839 6.02831
      vertex 42.5 31.0402 6.35982
    endloop
  endfacet
  facet normal -1 0 0
    outer loop
      vertex 42.5 34.5 3
      vertex 42.5 30.0596 5.82069
      vertex 42.5 30.5839 6.02831
    endloop
  endfacet
  facet normal -1 0 0
    outer loop
      vertex 42.5 34.5 3
      vertex 42.5 29.5 5.75
      vertex 42.5 30.0596 5.82069
    endloop
  endfacet
  facet normal -1 0 0
    outer loop
      vertex 42.5 24.5 3
      vertex 42.5 29.5 5.75
      vertex 42.5 34.5 3
    endloop
  endfacet
  facet normal -1 -0 0
    outer loop
      vertex 42.5 29.5 5.75
      vertex 42.5 24.5 3
      vertex 42.5 28.9404 5.82069
    endloop
  endfacet
  facet normal -1 -0 0
    outer loop
      vertex 42.5 27.3601 7.30471
      vertex 42.5 24.5 3
      vertex 42.5 27.2544 7.85872
    endloop
  endfacet
  facet normal -1 -0 0
    outer loop
      vertex 42.5 27.6003 6.79439
      vertex 42.5 24.5 3
      vertex 42.5 27.3601 7.30471
    endloop
  endfacet
  facet normal -1 -0 0
    outer loop
      vertex 42.5 27.9598 6.35982
      vertex 42.5 24.5 3
      vertex 42.5 27.6003 6.79439
    endloop
  endfacet
  facet normal -1 -0 0
    outer loop
      vertex 42.5 28.4161 6.02831
      vertex 42.5 24.5 3
      vertex 42.5 27.9598 6.35982
    endloop
  endfacet
  facet normal -1 -0 0
    outer loop
      vertex 42.5 28.9404 5.82069
      vertex 42.5 24.5 3
      vertex 42.5 28.4161 6.02831
    endloop
  endfacet
  facet normal -1 0 0
    outer loop
      vertex 42.5 34.5 3
      vertex 42.5 31.7101 8.42161
      vertex 42.5 34.5 15
    endloop
  endfacet
  facet normal -1 0 0
    outer loop
      vertex 42.5 31.5359 8.958
      vertex 42.5 34.5 15
      vertex 42.5 31.7101 8.42161
    endloop
  endfacet
  facet normal -1 0 0
    outer loop
      vertex 42.5 31.2337 9.4342
      vertex 42.5 34.5 15
      vertex 42.5 31.5359 8.958
    endloop
  endfacet
  facet normal -1 0 0
    outer loop
      vertex 42.5 30.8225 9.82029
      vertex 42.5 34.5 15
      vertex 42.5 31.2337 9.4342
    endloop
  endfacet
  facet normal -1 0 0
    outer loop
      vertex 42.5 30.3283 10.092
      vertex 42.5 34.5 15
      vertex 42.5 30.8225 9.82029
    endloop
  endfacet
  facet normal -1 0 0
    outer loop
      vertex 42.5 29.782 10.2323
      vertex 42.5 34.5 15
      vertex 42.5 30.3283 10.092
    endloop
  endfacet
  facet normal -1 0 0
    outer loop
      vertex 42.5 29.218 10.2323
      vertex 42.5 34.5 15
      vertex 42.5 29.782 10.2323
    endloop
  endfacet
  facet normal -1 0 0
    outer loop
      vertex 42.5 24.5 15
      vertex 42.5 29.218 10.2323
      vertex 42.5 28.6717 10.092
    endloop
  endfacet
  facet normal -1 0 0
    outer loop
      vertex 42.5 24.5 15
      vertex 42.5 28.6717 10.092
      vertex 42.5 28.1775 9.82029
    endloop
  endfacet
  facet normal -1 0 0
    outer loop
      vertex 42.5 24.5 3
      vertex 42.5 27.2899 8.42161
      vertex 42.5 27.2544 7.85872
    endloop
  endfacet
  facet normal -1 0 0
    outer loop
      vertex 42.5 24.5 15
      vertex 42.5 27.2899 8.42161
      vertex 42.5 24.5 3
    endloop
  endfacet
  facet normal -1 0 0
    outer loop
      vertex 42.5 29.218 10.2323
      vertex 42.5 24.5 15
      vertex 42.5 34.5 15
    endloop
  endfacet
  facet normal -1 0 0
    outer loop
      vertex 42.5 27.7663 9.4342
      vertex 42.5 24.5 15
      vertex 42.5 28.1775 9.82029
    endloop
  endfacet
  facet normal -1 0 0
    outer loop
      vertex 42.5 27.4641 8.958
      vertex 42.5 24.5 15
      vertex 42.5 27.7663 9.4342
    endloop
  endfacet
  facet normal -1 0 0
    outer loop
      vertex 42.5 27.2899 8.42161
      vertex 42.5 24.5 15
      vertex 42.5 27.4641 8.958
    endloop
  endfacet
  facet normal 0 1 -0
    outer loop
      vertex 45.5 60.5 3
      vertex 42.5 60.5 15
      vertex 45.5 60.5 15
    endloop
  endfacet
  facet normal 0 1 0
    outer loop
      vertex 42.5 60.5 15
      vertex 45.5 60.5 3
      vertex 42.5 60.5 3
    endloop
  endfacet
  facet normal 0 -1 0
    outer loop
      vertex 42.5 24.5 3
      vertex 45.5 24.5 15
      vertex 42.5 24.5 15
    endloop
  endfacet
  facet normal 0 -1 -0
    outer loop
      vertex 45.5 24.5 15
      vertex 42.5 24.5 3
      vertex 45.5 24.5 3
    endloop
  endfacet
  facet normal -1 0 0
    outer loop
      vertex 42.5 45.7 3
      vertex 42.5 50.5 15
      vertex 42.5 50.5 3
    endloop
  endfacet
  facet normal -1 -0 0
    outer loop
      vertex 42.5 50.5 15
      vertex 42.5 45.7 3
      vertex 42.5 45.7 15
    endloop
  endfacet
  facet normal -1 0 0
    outer loop
      vertex 42.5 34.5 3
      vertex 42.5 39.3 15
      vertex 42.5 39.3 3
    endloop
  endfacet
  facet normal -1 -0 0
    outer loop
      vertex 42.5 39.3 15
      vertex 42.5 34.5 3
      vertex 42.5 34.5 15
    endloop
  endfacet
  facet normal -0.972384 -0.233388 0
    outer loop
      vertex 45.6606 43.0006 3
      vertex 45.5434 43.4889 15
      vertex 45.5434 43.4889 3
    endloop
  endfacet
  facet normal -0.972384 -0.233388 0
    outer loop
      vertex 45.5434 43.4889 15
      vertex 45.6606 43.0006 3
      vertex 45.6606 43.0006 15
    endloop
  endfacet
  facet normal -0.996917 -0.0784629 0
    outer loop
      vertex 45.7 42.5 3
      vertex 45.6606 43.0006 15
      vertex 45.6606 43.0006 3
    endloop
  endfacet
  facet normal -0.996917 -0.0784629 0
    outer loop
      vertex 45.6606 43.0006 15
      vertex 45.7 42.5 3
      vertex 45.7 42.5 15
    endloop
  endfacet
  facet normal -0.760296 -0.649577 0
    outer loop
      vertex 45.0889 44.3809 3
      vertex 44.7627 44.7627 15
      vertex 44.7627 44.7627 3
    endloop
  endfacet
  facet normal -0.760296 -0.649577 0
    outer loop
      vertex 44.7627 44.7627 15
      vertex 45.0889 44.3809 3
      vertex 45.0889 44.3809 15
    endloop
  endfacet
  facet normal -0.996917 0.0784629 0
    outer loop
      vertex 45.6606 41.9994 3
      vertex 45.7 42.5 15
      vertex 45.7 42.5 3
    endloop
  endfacet
  facet normal -0.996917 0.0784629 0
    outer loop
      vertex 45.7 42.5 15
      vertex 45.6606 41.9994 3
      vertex 45.6606 41.9994 15
    endloop
  endfacet
  facet normal -0.382762 -0.923847 0
    outer loop
      vertex 43.4889 45.5434 3
      vertex 43.9528 45.3512 15
      vertex 43.4889 45.5434 15
    endloop
  endfacet
  facet normal -0.382762 -0.923847 -0
    outer loop
      vertex 43.9528 45.3512 15
      vertex 43.4889 45.5434 3
      vertex 43.9528 45.3512 3
    endloop
  endfacet
  facet normal -0.972384 0.233388 0
    outer loop
      vertex 45.5434 41.5111 3
      vertex 45.6606 41.9994 15
      vertex 45.6606 41.9994 3
    endloop
  endfacet
  facet normal -0.972384 0.233388 0
    outer loop
      vertex 45.6606 41.9994 15
      vertex 45.5434 41.5111 3
      vertex 45.5434 41.5111 15
    endloop
  endfacet
  facet normal -0.233388 0.972384 0
    outer loop
      vertex 43.4889 39.4566 3
      vertex 43.0006 39.3394 15
      vertex 43.4889 39.4566 15
    endloop
  endfacet
  facet normal -0.233388 0.972384 0
    outer loop
      vertex 43.0006 39.3394 15
      vertex 43.4889 39.4566 3
      vertex 43.0006 39.3394 3
    endloop
  endfacet
  facet normal -0.760296 0.649577 0
    outer loop
      vertex 44.7627 40.2373 3
      vertex 45.0889 40.6191 15
      vertex 45.0889 40.6191 3
    endloop
  endfacet
  facet normal -0.760296 0.649577 0
    outer loop
      vertex 45.0889 40.6191 15
      vertex 44.7627 40.2373 3
      vertex 44.7627 40.2373 15
    endloop
  endfacet
  facet normal -0.0784629 -0.996917 0
    outer loop
      vertex 42.5 45.7 3
      vertex 43.0006 45.6606 15
      vertex 42.5 45.7 15
    endloop
  endfacet
  facet normal -0.0784629 -0.996917 -0
    outer loop
      vertex 43.0006 45.6606 15
      vertex 42.5 45.7 3
      vertex 43.0006 45.6606 3
    endloop
  endfacet
  facet normal -0.649577 0.760296 0
    outer loop
      vertex 44.7627 40.2373 3
      vertex 44.3809 39.9111 15
      vertex 44.7627 40.2373 15
    endloop
  endfacet
  facet normal -0.649577 0.760296 0
    outer loop
      vertex 44.3809 39.9111 15
      vertex 44.7627 40.2373 3
      vertex 44.3809 39.9111 3
    endloop
  endfacet
  facet normal -0.233388 -0.972384 0
    outer loop
      vertex 43.0006 45.6606 3
      vertex 43.4889 45.5434 15
      vertex 43.0006 45.6606 15
    endloop
  endfacet
  facet normal -0.233388 -0.972384 -0
    outer loop
      vertex 43.4889 45.5434 15
      vertex 43.0006 45.6606 3
      vertex 43.4889 45.5434 3
    endloop
  endfacet
  facet normal -0.852676 0.522441 0
    outer loop
      vertex 45.0889 40.6191 3
      vertex 45.3512 41.0472 15
      vertex 45.3512 41.0472 3
    endloop
  endfacet
  facet normal -0.852676 0.522441 0
    outer loop
      vertex 45.3512 41.0472 15
      vertex 45.0889 40.6191 3
      vertex 45.0889 40.6191 15
    endloop
  endfacet
  facet normal -0.522441 0.852676 0
    outer loop
      vertex 44.3809 39.9111 3
      vertex 43.9528 39.6488 15
      vertex 44.3809 39.9111 15
    endloop
  endfacet
  facet normal -0.522441 0.852676 0
    outer loop
      vertex 43.9528 39.6488 15
      vertex 44.3809 39.9111 3
      vertex 43.9528 39.6488 3
    endloop
  endfacet
  facet normal -0.649577 -0.760296 0
    outer loop
      vertex 44.3809 45.0889 3
      vertex 44.7627 44.7627 15
      vertex 44.3809 45.0889 15
    endloop
  endfacet
  facet normal -0.649577 -0.760296 -0
    outer loop
      vertex 44.7627 44.7627 15
      vertex 44.3809 45.0889 3
      vertex 44.7627 44.7627 3
    endloop
  endfacet
  facet normal -0.382762 0.923847 0
    outer loop
      vertex 43.9528 39.6488 3
      vertex 43.4889 39.4566 15
      vertex 43.9528 39.6488 15
    endloop
  endfacet
  facet normal -0.382762 0.923847 0
    outer loop
      vertex 43.4889 39.4566 15
      vertex 43.9528 39.6488 3
      vertex 43.4889 39.4566 3
    endloop
  endfacet
  facet normal -0.522441 -0.852676 0
    outer loop
      vertex 43.9528 45.3512 3
      vertex 44.3809 45.0889 15
      vertex 43.9528 45.3512 15
    endloop
  endfacet
  facet normal -0.522441 -0.852676 -0
    outer loop
      vertex 44.3809 45.0889 15
      vertex 43.9528 45.3512 3
      vertex 44.3809 45.0889 3
    endloop
  endfacet
  facet normal -0.852676 -0.522441 0
    outer loop
      vertex 45.3512 43.9528 3
      vertex 45.0889 44.3809 15
      vertex 45.0889 44.3809 3
    endloop
  endfacet
  facet normal -0.852676 -0.522441 0
    outer loop
      vertex 45.0889 44.3809 15
      vertex 45.3512 43.9528 3
      vertex 45.3512 43.9528 15
    endloop
  endfacet
  facet normal -0.923847 0.382762 0
    outer loop
      vertex 45.3512 41.0472 3
      vertex 45.5434 41.5111 15
      vertex 45.5434 41.5111 3
    endloop
  endfacet
  facet normal -0.923847 0.382762 0
    outer loop
      vertex 45.5434 41.5111 15
      vertex 45.3512 41.0472 3
      vertex 45.3512 41.0472 15
    endloop
  endfacet
  facet normal -0.0784629 0.996917 0
    outer loop
      vertex 43.0006 39.3394 3
      vertex 42.5 39.3 15
      vertex 43.0006 39.3394 15
    endloop
  endfacet
  facet normal -0.0784629 0.996917 0
    outer loop
      vertex 42.5 39.3 15
      vertex 43.0006 39.3394 3
      vertex 42.5 39.3 3
    endloop
  endfacet
  facet normal -0.923847 -0.382762 0
    outer loop
      vertex 45.5434 43.4889 3
      vertex 45.3512 43.9528 15
      vertex 45.3512 43.9528 3
    endloop
  endfacet
  facet normal -0.923847 -0.382762 0
    outer loop
      vertex 45.3512 43.9528 15
      vertex 45.5434 43.4889 3
      vertex 45.5434 43.4889 15
    endloop
  endfacet
  facet normal -0 0.587772 0.809027
    outer loop
      vertex 42.5 28.4161 6.02831
      vertex 45.5 27.9598 6.35982
      vertex 45.5 28.4161 6.02831
    endloop
  endfacet
  facet normal 0 0.587772 0.809027
    outer loop
      vertex 45.5 27.9598 6.35982
      vertex 42.5 28.4161 6.02831
      vertex 42.5 27.9598 6.35982
    endloop
  endfacet
  facet normal 0 -0.368178 0.929755
    outer loop
      vertex 42.5 30.5839 6.02831
      vertex 45.5 30.0596 5.82069
      vertex 45.5 30.5839 6.02831
    endloop
  endfacet
  facet normal 0 -0.368178 0.929755
    outer loop
      vertex 45.5 30.0596 5.82069
      vertex 42.5 30.5839 6.02831
      vertex 42.5 30.0596 5.82069
    endloop
  endfacet
  facet normal 0 -0.587772 0.809027
    outer loop
      vertex 42.5 31.0402 6.35982
      vertex 45.5 30.5839 6.02831
      vertex 45.5 31.0402 6.35982
    endloop
  endfacet
  facet normal 0 -0.587772 0.809027
    outer loop
      vertex 45.5 30.5839 6.02831
      vertex 42.5 31.0402 6.35982
      vertex 42.5 30.5839 6.02831
    endloop
  endfacet
  facet normal -0 0.125326 0.992116
    outer loop
      vertex 42.5 29.5 5.75
      vertex 45.5 28.9404 5.82069
      vertex 45.5 29.5 5.75
    endloop
  endfacet
  facet normal 0 0.125326 0.992116
    outer loop
      vertex 45.5 28.9404 5.82069
      vertex 42.5 29.5 5.75
      vertex 42.5 28.9404 5.82069
    endloop
  endfacet
  facet normal 0 -0.684498 -0.729015
    outer loop
      vertex 42.5 30.8225 9.82029
      vertex 45.5 31.2337 9.4342
      vertex 45.5 30.8225 9.82029
    endloop
  endfacet
  facet normal -0 -0.684498 -0.729015
    outer loop
      vertex 45.5 31.2337 9.4342
      vertex 42.5 30.8225 9.82029
      vertex 42.5 31.2337 9.4342
    endloop
  endfacet
  facet normal 0 -0.982282 0.18741
    outer loop
      vertex 42.5 31.6399 7.30471
      vertex 45.5 31.7456 7.85872
      vertex 42.5 31.7456 7.85872
    endloop
  endfacet
  facet normal 0 -0.982282 0.18741
    outer loop
      vertex 45.5 31.7456 7.85872
      vertex 42.5 31.6399 7.30471
      vertex 45.5 31.6399 7.30471
    endloop
  endfacet
  facet normal 0 0.9511 -0.308883
    outer loop
      vertex 45.5 27.2899 8.42161
      vertex 42.5 27.4641 8.958
      vertex 45.5 27.4641 8.958
    endloop
  endfacet
  facet normal 0 0.9511 -0.308883
    outer loop
      vertex 42.5 27.4641 8.958
      vertex 45.5 27.2899 8.42161
      vertex 42.5 27.2899 8.42161
    endloop
  endfacet
  facet normal 0 -0.77052 0.637416
    outer loop
      vertex 42.5 31.0402 6.35982
      vertex 45.5 31.3997 6.79439
      vertex 42.5 31.3997 6.79439
    endloop
  endfacet
  facet normal 0 -0.77052 0.637416
    outer loop
      vertex 45.5 31.3997 6.79439
      vertex 42.5 31.0402 6.35982
      vertex 45.5 31.0402 6.35982
    endloop
  endfacet
  facet normal 0 -0.125326 0.992116
    outer loop
      vertex 42.5 30.0596 5.82069
      vertex 45.5 29.5 5.75
      vertex 45.5 30.0596 5.82069
    endloop
  endfacet
  facet normal 0 -0.125326 0.992116
    outer loop
      vertex 45.5 29.5 5.75
      vertex 42.5 30.0596 5.82069
      vertex 42.5 29.5 5.75
    endloop
  endfacet
  facet normal 0 -0.998017 -0.0629423
    outer loop
      vertex 42.5 31.7456 7.85872
      vertex 45.5 31.7101 8.42161
      vertex 42.5 31.7101 8.42161
    endloop
  endfacet
  facet normal 0 -0.998017 -0.0629423
    outer loop
      vertex 45.5 31.7101 8.42161
      vertex 42.5 31.7456 7.85872
      vertex 45.5 31.7456 7.85872
    endloop
  endfacet
  facet normal 0 0.248746 -0.968569
    outer loop
      vertex 42.5 28.6717 10.092
      vertex 45.5 29.218 10.2323
      vertex 45.5 28.6717 10.092
    endloop
  endfacet
  facet normal 0 0.248746 -0.968569
    outer loop
      vertex 45.5 29.218 10.2323
      vertex 42.5 28.6717 10.092
      vertex 42.5 29.218 10.2323
    endloop
  endfacet
  facet normal 0 0.77052 0.637416
    outer loop
      vertex 45.5 27.9598 6.35982
      vertex 42.5 27.6003 6.79439
      vertex 45.5 27.6003 6.79439
    endloop
  endfacet
  facet normal 0 0.77052 0.637416
    outer loop
      vertex 42.5 27.6003 6.79439
      vertex 45.5 27.9598 6.35982
      vertex 42.5 27.9598 6.35982
    endloop
  endfacet
  facet normal 0 -0.9511 -0.308883
    outer loop
      vertex 42.5 31.7101 8.42161
      vertex 45.5 31.5359 8.958
      vertex 42.5 31.5359 8.958
    endloop
  endfacet
  facet normal 0 -0.9511 -0.308883
    outer loop
      vertex 45.5 31.5359 8.958
      vertex 42.5 31.7101 8.42161
      vertex 45.5 31.7101 8.42161
    endloop
  endfacet
  facet normal 0 0.684498 -0.729015
    outer loop
      vertex 42.5 27.7663 9.4342
      vertex 45.5 28.1775 9.82029
      vertex 45.5 27.7663 9.4342
    endloop
  endfacet
  facet normal 0 0.684498 -0.729015
    outer loop
      vertex 45.5 28.1775 9.82029
      vertex 42.5 27.7663 9.4342
      vertex 42.5 28.1775 9.82029
    endloop
  endfacet
  facet normal 0 0.481783 -0.876291
    outer loop
      vertex 42.5 28.1775 9.82029
      vertex 45.5 28.6717 10.092
      vertex 45.5 28.1775 9.82029
    endloop
  endfacet
  facet normal 0 0.481783 -0.876291
    outer loop
      vertex 45.5 28.6717 10.092
      vertex 42.5 28.1775 9.82029
      vertex 42.5 28.6717 10.092
    endloop
  endfacet
  facet normal 0 0.998017 -0.0629423
    outer loop
      vertex 45.5 27.2544 7.85872
      vertex 42.5 27.2899 8.42161
      vertex 45.5 27.2899 8.42161
    endloop
  endfacet
  facet normal 0 0.998017 -0.0629423
    outer loop
      vertex 42.5 27.2899 8.42161
      vertex 45.5 27.2544 7.85872
      vertex 42.5 27.2544 7.85872
    endloop
  endfacet
  facet normal 0 -0.844333 -0.53582
    outer loop
      vertex 42.5 31.5359 8.958
      vertex 45.5 31.2337 9.4342
      vertex 42.5 31.2337 9.4342
    endloop
  endfacet
  facet normal 0 -0.844333 -0.53582
    outer loop
      vertex 45.5 31.2337 9.4342
      vertex 42.5 31.5359 8.958
      vertex 45.5 31.5359 8.958
    endloop
  endfacet
  facet normal 0 0.904785 0.425869
    outer loop
      vertex 45.5 27.6003 6.79439
      vertex 42.5 27.3601 7.30471
      vertex 45.5 27.3601 7.30471
    endloop
  endfacet
  facet normal 0 0.904785 0.425869
    outer loop
      vertex 42.5 27.3601 7.30471
      vertex 45.5 27.6003 6.79439
      vertex 42.5 27.6003 6.79439
    endloop
  endfacet
  facet normal -0 0.368178 0.929755
    outer loop
      vertex 42.5 28.9404 5.82069
      vertex 45.5 28.4161 6.02831
      vertex 45.5 28.9404 5.82069
    endloop
  endfacet
  facet normal 0 0.368178 0.929755
    outer loop
      vertex 45.5 28.4161 6.02831
      vertex 42.5 28.9404 5.82069
      vertex 42.5 28.4161 6.02831
    endloop
  endfacet
  facet normal 0 0.982282 0.18741
    outer loop
      vertex 45.5 27.3601 7.30471
      vertex 42.5 27.2544 7.85872
      vertex 45.5 27.2544 7.85872
    endloop
  endfacet
  facet normal 0 0.982282 0.18741
    outer loop
      vertex 42.5 27.2544 7.85872
      vertex 45.5 27.3601 7.30471
      vertex 42.5 27.3601 7.30471
    endloop
  endfacet
  facet normal 0 0 -1
    outer loop
      vertex 42.5 29.218 10.2323
      vertex 45.5 29.782 10.2323
      vertex 45.5 29.218 10.2323
    endloop
  endfacet
  facet normal -0 0 -1
    outer loop
      vertex 45.5 29.782 10.2323
      vertex 42.5 29.218 10.2323
      vertex 42.5 29.782 10.2323
    endloop
  endfacet
  facet normal 0 -0.904785 0.425869
    outer loop
      vertex 42.5 31.3997 6.79439
      vertex 45.5 31.6399 7.30471
      vertex 42.5 31.6399 7.30471
    endloop
  endfacet
  facet normal 0 -0.904785 0.425869
    outer loop
      vertex 45.5 31.6399 7.30471
      vertex 42.5 31.3997 6.79439
      vertex 45.5 31.3997 6.79439
    endloop
  endfacet
  facet normal 0 -0.481783 -0.876291
    outer loop
      vertex 42.5 30.3283 10.092
      vertex 45.5 30.8225 9.82029
      vertex 45.5 30.3283 10.092
    endloop
  endfacet
  facet normal -0 -0.481783 -0.876291
    outer loop
      vertex 45.5 30.8225 9.82029
      vertex 42.5 30.3283 10.092
      vertex 42.5 30.8225 9.82029
    endloop
  endfacet
  facet normal 0 0.844333 -0.53582
    outer loop
      vertex 45.5 27.4641 8.958
      vertex 42.5 27.7663 9.4342
      vertex 45.5 27.7663 9.4342
    endloop
  endfacet
  facet normal 0 0.844333 -0.53582
    outer loop
      vertex 42.5 27.7663 9.4342
      vertex 45.5 27.4641 8.958
      vertex 42.5 27.4641 8.958
    endloop
  endfacet
  facet normal 0 -0.248746 -0.968569
    outer loop
      vertex 42.5 29.782 10.2323
      vertex 45.5 30.3283 10.092
      vertex 45.5 29.782 10.2323
    endloop
  endfacet
  facet normal -0 -0.248746 -0.968569
    outer loop
      vertex 45.5 30.3283 10.092
      vertex 42.5 29.782 10.2323
      vertex 42.5 30.3283 10.092
    endloop
  endfacet
  facet normal -0 0.587772 0.809027
    outer loop
      vertex 42.5 54.4161 6.02831
      vertex 45.5 53.9598 6.35982
      vertex 45.5 54.4161 6.02831
    endloop
  endfacet
  facet normal 0 0.587772 0.809027
    outer loop
      vertex 45.5 53.9598 6.35982
      vertex 42.5 54.4161 6.02831
      vertex 42.5 53.9598 6.35982
    endloop
  endfacet
  facet normal 0 -0.368178 0.929755
    outer loop
      vertex 42.5 56.5839 6.02831
      vertex 45.5 56.0596 5.82069
      vertex 45.5 56.5839 6.02831
    endloop
  endfacet
  facet normal 0 -0.368178 0.929755
    outer loop
      vertex 45.5 56.0596 5.82069
      vertex 42.5 56.5839 6.02831
      vertex 42.5 56.0596 5.82069
    endloop
  endfacet
  facet normal 0 -0.587772 0.809027
    outer loop
      vertex 42.5 57.0402 6.35982
      vertex 45.5 56.5839 6.02831
      vertex 45.5 57.0402 6.35982
    endloop
  endfacet
  facet normal 0 -0.587772 0.809027
    outer loop
      vertex 45.5 56.5839 6.02831
      vertex 42.5 57.0402 6.35982
      vertex 42.5 56.5839 6.02831
    endloop
  endfacet
  facet normal -0 0.125326 0.992116
    outer loop
      vertex 42.5 55.5 5.75
      vertex 45.5 54.9404 5.82069
      vertex 45.5 55.5 5.75
    endloop
  endfacet
  facet normal 0 0.125326 0.992116
    outer loop
      vertex 45.5 54.9404 5.82069
      vertex 42.5 55.5 5.75
      vertex 42.5 54.9404 5.82069
    endloop
  endfacet
  facet normal 0 -0.684498 -0.729015
    outer loop
      vertex 42.5 56.8225 9.82029
      vertex 45.5 57.2337 9.4342
      vertex 45.5 56.8225 9.82029
    endloop
  endfacet
  facet normal -0 -0.684498 -0.729015
    outer loop
      vertex 45.5 57.2337 9.4342
      vertex 42.5 56.8225 9.82029
      vertex 42.5 57.2337 9.4342
    endloop
  endfacet
  facet normal 0 -0.982282 0.18741
    outer loop
      vertex 42.5 57.6399 7.30471
      vertex 45.5 57.7456 7.85872
      vertex 42.5 57.7456 7.85872
    endloop
  endfacet
  facet normal 0 -0.982282 0.18741
    outer loop
      vertex 45.5 57.7456 7.85872
      vertex 42.5 57.6399 7.30471
      vertex 45.5 57.6399 7.30471
    endloop
  endfacet
  facet normal 0 0.9511 -0.308883
    outer loop
      vertex 45.5 53.2899 8.42161
      vertex 42.5 53.4641 8.958
      vertex 45.5 53.4641 8.958
    endloop
  endfacet
  facet normal 0 0.9511 -0.308883
    outer loop
      vertex 42.5 53.4641 8.958
      vertex 45.5 53.2899 8.42161
      vertex 42.5 53.2899 8.42161
    endloop
  endfacet
  facet normal 0 -0.77052 0.637416
    outer loop
      vertex 42.5 57.0402 6.35982
      vertex 45.5 57.3997 6.79439
      vertex 42.5 57.3997 6.79439
    endloop
  endfacet
  facet normal 0 -0.77052 0.637416
    outer loop
      vertex 45.5 57.3997 6.79439
      vertex 42.5 57.0402 6.35982
      vertex 45.5 57.0402 6.35982
    endloop
  endfacet
  facet normal 0 -0.125326 0.992116
    outer loop
      vertex 42.5 56.0596 5.82069
      vertex 45.5 55.5 5.75
      vertex 45.5 56.0596 5.82069
    endloop
  endfacet
  facet normal 0 -0.125326 0.992116
    outer loop
      vertex 45.5 55.5 5.75
      vertex 42.5 56.0596 5.82069
      vertex 42.5 55.5 5.75
    endloop
  endfacet
  facet normal 0 -0.998017 -0.0629423
    outer loop
      vertex 42.5 57.7456 7.85872
      vertex 45.5 57.7101 8.42161
      vertex 42.5 57.7101 8.42161
    endloop
  endfacet
  facet normal 0 -0.998017 -0.0629423
    outer loop
      vertex 45.5 57.7101 8.42161
      vertex 42.5 57.7456 7.85872
      vertex 45.5 57.7456 7.85872
    endloop
  endfacet
  facet normal 0 0.248746 -0.968569
    outer loop
      vertex 42.5 54.6717 10.092
      vertex 45.5 55.218 10.2323
      vertex 45.5 54.6717 10.092
    endloop
  endfacet
  facet normal 0 0.248746 -0.968569
    outer loop
      vertex 45.5 55.218 10.2323
      vertex 42.5 54.6717 10.092
      vertex 42.5 55.218 10.2323
    endloop
  endfacet
  facet normal 0 0.77052 0.637416
    outer loop
      vertex 45.5 53.9598 6.35982
      vertex 42.5 53.6003 6.79439
      vertex 45.5 53.6003 6.79439
    endloop
  endfacet
  facet normal 0 0.77052 0.637416
    outer loop
      vertex 42.5 53.6003 6.79439
      vertex 45.5 53.9598 6.35982
      vertex 42.5 53.9598 6.35982
    endloop
  endfacet
  facet normal 0 -0.9511 -0.308883
    outer loop
      vertex 42.5 57.7101 8.42161
      vertex 45.5 57.5359 8.958
      vertex 42.5 57.5359 8.958
    endloop
  endfacet
  facet normal 0 -0.9511 -0.308883
    outer loop
      vertex 45.5 57.5359 8.958
      vertex 42.5 57.7101 8.42161
      vertex 45.5 57.7101 8.42161
    endloop
  endfacet
  facet normal 0 0.684498 -0.729015
    outer loop
      vertex 42.5 53.7663 9.4342
      vertex 45.5 54.1775 9.82029
      vertex 45.5 53.7663 9.4342
    endloop
  endfacet
  facet normal 0 0.684498 -0.729015
    outer loop
      vertex 45.5 54.1775 9.82029
      vertex 42.5 53.7663 9.4342
      vertex 42.5 54.1775 9.82029
    endloop
  endfacet
  facet normal 0 0.481783 -0.876291
    outer loop
      vertex 42.5 54.1775 9.82029
      vertex 45.5 54.6717 10.092
      vertex 45.5 54.1775 9.82029
    endloop
  endfacet
  facet normal 0 0.481783 -0.876291
    outer loop
      vertex 45.5 54.6717 10.092
      vertex 42.5 54.1775 9.82029
      vertex 42.5 54.6717 10.092
    endloop
  endfacet
  facet normal 0 0.998017 -0.0629423
    outer loop
      vertex 45.5 53.2544 7.85872
      vertex 42.5 53.2899 8.42161
      vertex 45.5 53.2899 8.42161
    endloop
  endfacet
  facet normal 0 0.998017 -0.0629423
    outer loop
      vertex 42.5 53.2899 8.42161
      vertex 45.5 53.2544 7.85872
      vertex 42.5 53.2544 7.85872
    endloop
  endfacet
  facet normal 0 -0.844333 -0.53582
    outer loop
      vertex 42.5 57.5359 8.958
      vertex 45.5 57.2337 9.4342
      vertex 42.5 57.2337 9.4342
    endloop
  endfacet
  facet normal 0 -0.844333 -0.53582
    outer loop
      vertex 45.5 57.2337 9.4342
      vertex 42.5 57.5359 8.958
      vertex 45.5 57.5359 8.958
    endloop
  endfacet
  facet normal 0 0.904785 0.425869
    outer loop
      vertex 45.5 53.6003 6.79439
      vertex 42.5 53.3601 7.30471
      vertex 45.5 53.3601 7.30471
    endloop
  endfacet
  facet normal 0 0.904785 0.425869
    outer loop
      vertex 42.5 53.3601 7.30471
      vertex 45.5 53.6003 6.79439
      vertex 42.5 53.6003 6.79439
    endloop
  endfacet
  facet normal -0 0.368178 0.929755
    outer loop
      vertex 42.5 54.9404 5.82069
      vertex 45.5 54.4161 6.02831
      vertex 45.5 54.9404 5.82069
    endloop
  endfacet
  facet normal 0 0.368178 0.929755
    outer loop
      vertex 45.5 54.4161 6.02831
      vertex 42.5 54.9404 5.82069
      vertex 42.5 54.4161 6.02831
    endloop
  endfacet
  facet normal 0 0.982282 0.18741
    outer loop
      vertex 45.5 53.3601 7.30471
      vertex 42.5 53.2544 7.85872
      vertex 45.5 53.2544 7.85872
    endloop
  endfacet
  facet normal 0 0.982282 0.18741
    outer loop
      vertex 42.5 53.2544 7.85872
      vertex 45.5 53.3601 7.30471
      vertex 42.5 53.3601 7.30471
    endloop
  endfacet
  facet normal 0 0 -1
    outer loop
      vertex 42.5 55.218 10.2323
      vertex 45.5 55.782 10.2323
      vertex 45.5 55.218 10.2323
    endloop
  endfacet
  facet normal -0 0 -1
    outer loop
      vertex 45.5 55.782 10.2323
      vertex 42.5 55.218 10.2323
      vertex 42.5 55.782 10.2323
    endloop
  endfacet
  facet normal 0 -0.904785 0.425869
    outer loop
      vertex 42.5 57.3997 6.79439
      vertex 45.5 57.6399 7.30471
      vertex 42.5 57.6399 7.30471
    endloop
  endfacet
  facet normal 0 -0.904785 0.425869
    outer loop
      vertex 45.5 57.6399 7.30471
      vertex 42.5 57.3997 6.79439
      vertex 45.5 57.3997 6.79439
    endloop
  endfacet
  facet normal 0 -0.481783 -0.876291
    outer loop
      vertex 42.5 56.3283 10.092
      vertex 45.5 56.8225 9.82029
      vertex 45.5 56.3283 10.092
    endloop
  endfacet
  facet normal -0 -0.481783 -0.876291
    outer loop
      vertex 45.5 56.8225 9.82029
      vertex 42.5 56.3283 10.092
      vertex 42.5 56.8225 9.82029
    endloop
  endfacet
  facet normal 0 0.844333 -0.53582
    outer loop
      vertex 45.5 53.4641 8.958
      vertex 42.5 53.7663 9.4342
      vertex 45.5 53.7663 9.4342
    endloop
  endfacet
  facet normal 0 0.844333 -0.53582
    outer loop
      vertex 42.5 53.7663 9.4342
      vertex 45.5 53.4641 8.958
      vertex 42.5 53.4641 8.958
    endloop
  endfacet
  facet normal 0 -0.248746 -0.968569
    outer loop
      vertex 42.5 55.782 10.2323
      vertex 45.5 56.3283 10.092
      vertex 45.5 55.782 10.2323
    endloop
  endfacet
  facet normal -0 -0.248746 -0.968569
    outer loop
      vertex 45.5 56.3283 10.092
      vertex 42.5 55.782 10.2323
      vertex 42.5 56.3283 10.092
    endloop
  endfacet
endsolid OpenSCAD_Model
