solid OpenSCAD_Model
  facet normal 1 -0 0
    outer loop
      vertex 9.5 0 3
      vertex 9.5 7 0
      vertex 9.5 7 3
    endloop
  endfacet
  facet normal 1 0 0
    outer loop
      vertex 9.5 7 0
      vertex 9.5 0 3
      vertex 9.5 0 0
    endloop
  endfacet
  facet normal 0 0 1
    outer loop
      vertex 9.5 7 3
      vertex 7.75 3.5 3
      vertex 9.5 0 3
    endloop
  endfacet
  facet normal 0 0 1
    outer loop
      vertex 9.5 7 3
      vertex 7.69502 3.93521 3
      vertex 7.75 3.5 3
    endloop
  endfacet
  facet normal 0 0 1
    outer loop
      vertex 9.5 7 3
      vertex 7.53354 4.34307 3
      vertex 7.69502 3.93521 3
    endloop
  endfacet
  facet normal 0 0 1
    outer loop
      vertex 9.5 7 3
      vertex 7.27569 4.69796 3
      vertex 7.53354 4.34307 3
    endloop
  endfacet
  facet normal 0 0 1
    outer loop
      vertex 9.5 7 3
      vertex 6.9377 4.97757 3
      vertex 7.27569 4.69796 3
    endloop
  endfacet
  facet normal 0 0 1
    outer loop
      vertex 9.5 7 3
      vertex 6.54078 5.16435 3
      vertex 6.9377 4.97757 3
    endloop
  endfacet
  facet normal 0 0 1
    outer loop
      vertex 9.5 7 3
      vertex 6.10988 5.24655 3
      vertex 6.54078 5.16435 3
    endloop
  endfacet
  facet normal 0 0 1
    outer loop
      vertex 9.5 7 3
      vertex 5.67208 5.219 3
      vertex 6.10988 5.24655 3
    endloop
  endfacet
  facet normal -0 0 1
    outer loop
      vertex 0 7 3
      vertex 5.67208 5.219 3
      vertex 9.5 7 3
    endloop
  endfacet
  facet normal 0 0 1
    outer loop
      vertex 4.2638 3.71933 3
      vertex 1 5.3 3
      vertex 4.2638 3.28067 3
    endloop
  endfacet
  facet normal 0 0 1
    outer loop
      vertex 4.37289 4.14422 3
      vertex 1 5.3 3
      vertex 4.2638 3.71933 3
    endloop
  endfacet
  facet normal 0 0 1
    outer loop
      vertex 4.58422 4.52862 3
      vertex 1 5.3 3
      vertex 4.37289 4.14422 3
    endloop
  endfacet
  facet normal 0 0 1
    outer loop
      vertex 4.88451 4.8484 3
      vertex 1 5.3 3
      vertex 4.58422 4.52862 3
    endloop
  endfacet
  facet normal 0 0 1
    outer loop
      vertex 5.25489 5.08345 3
      vertex 1 5.3 3
      vertex 4.88451 4.8484 3
    endloop
  endfacet
  facet normal 0 0 1
    outer loop
      vertex 5.67208 5.219 3
      vertex 0 7 3
      vertex 5.25489 5.08345 3
    endloop
  endfacet
  facet normal 0 0 1
    outer loop
      vertex 5.25489 5.08345 3
      vertex 0 7 3
      vertex 1 5.3 3
    endloop
  endfacet
  facet normal 0 0 1
    outer loop
      vertex 1 5.3 3
      vertex 0 7 3
      vertex 0 5.3 3
    endloop
  endfacet
  facet normal -0 0 1
    outer loop
      vertex 7.69502 3.06479 3
      vertex 9.5 0 3
      vertex 7.75 3.5 3
    endloop
  endfacet
  facet normal -0 0 1
    outer loop
      vertex 7.53354 2.65693 3
      vertex 9.5 0 3
      vertex 7.69502 3.06479 3
    endloop
  endfacet
  facet normal -0 0 1
    outer loop
      vertex 7.27569 2.30204 3
      vertex 9.5 0 3
      vertex 7.53354 2.65693 3
    endloop
  endfacet
  facet normal -0 0 1
    outer loop
      vertex 6.9377 2.02243 3
      vertex 9.5 0 3
      vertex 7.27569 2.30204 3
    endloop
  endfacet
  facet normal -0 0 1
    outer loop
      vertex 6.54078 1.83565 3
      vertex 9.5 0 3
      vertex 6.9377 2.02243 3
    endloop
  endfacet
  facet normal -0 0 1
    outer loop
      vertex 6.10988 1.75345 3
      vertex 9.5 0 3
      vertex 6.54078 1.83565 3
    endloop
  endfacet
  facet normal 0 0 1
    outer loop
      vertex 5.67208 1.781 3
      vertex 9.5 0 3
      vertex 6.10988 1.75345 3
    endloop
  endfacet
  facet normal 0 0 1
    outer loop
      vertex 0 0 3
      vertex 5.67208 1.781 3
      vertex 5.25489 1.91655 3
    endloop
  endfacet
  facet normal 0 0 1
    outer loop
      vertex 1 1.7 3
      vertex 4.2638 3.28067 3
      vertex 1 5.3 3
    endloop
  endfacet
  facet normal 0 0 1
    outer loop
      vertex 4.2638 3.28067 3
      vertex 1 1.7 3
      vertex 4.37289 2.85578 3
    endloop
  endfacet
  facet normal 0 0 1
    outer loop
      vertex 4.37289 2.85578 3
      vertex 1 1.7 3
      vertex 4.58422 2.47138 3
    endloop
  endfacet
  facet normal 0 0 1
    outer loop
      vertex 4.58422 2.47138 3
      vertex 1 1.7 3
      vertex 4.88451 2.1516 3
    endloop
  endfacet
  facet normal 0 0 1
    outer loop
      vertex 1 1.7 3
      vertex 5.25489 1.91655 3
      vertex 4.88451 2.1516 3
    endloop
  endfacet
  facet normal 0 0 1
    outer loop
      vertex 0 0 3
      vertex 5.25489 1.91655 3
      vertex 1 1.7 3
    endloop
  endfacet
  facet normal 0 0 1
    outer loop
      vertex 0 0 3
      vertex 1 1.7 3
      vertex 0 1.7 3
    endloop
  endfacet
  facet normal 0 0 1
    outer loop
      vertex 5.67208 1.781 3
      vertex 0 0 3
      vertex 9.5 0 3
    endloop
  endfacet
  facet normal 0 0 -1
    outer loop
      vertex 9.5 0 0
      vertex 7.75 3.5 0
      vertex 9.5 7 0
    endloop
  endfacet
  facet normal 0 0 -1
    outer loop
      vertex 9.5 0 0
      vertex 7.69502 3.06479 0
      vertex 7.75 3.5 0
    endloop
  endfacet
  facet normal 0 0 -1
    outer loop
      vertex 9.5 0 0
      vertex 7.53354 2.65693 0
      vertex 7.69502 3.06479 0
    endloop
  endfacet
  facet normal 0 0 -1
    outer loop
      vertex 9.5 0 0
      vertex 7.27569 2.30204 0
      vertex 7.53354 2.65693 0
    endloop
  endfacet
  facet normal 0 0 -1
    outer loop
      vertex 9.5 0 0
      vertex 6.9377 2.02243 0
      vertex 7.27569 2.30204 0
    endloop
  endfacet
  facet normal 0 0 -1
    outer loop
      vertex 9.5 0 0
      vertex 6.54078 1.83565 0
      vertex 6.9377 2.02243 0
    endloop
  endfacet
  facet normal 0 0 -1
    outer loop
      vertex 9.5 0 0
      vertex 6.10988 1.75345 0
      vertex 6.54078 1.83565 0
    endloop
  endfacet
  facet normal 0 0 -1
    outer loop
      vertex 9.5 0 0
      vertex 5.67208 1.781 0
      vertex 6.10988 1.75345 0
    endloop
  endfacet
  facet normal 0 0 -1
    outer loop
      vertex 0 0 0
      vertex 5.67208 1.781 0
      vertex 9.5 0 0
    endloop
  endfacet
  facet normal -0 0 -1
    outer loop
      vertex 4.2638 3.28067 0
      vertex 0 0 0
      vertex 4.2638 3.71933 0
    endloop
  endfacet
  facet normal -0 0 -1
    outer loop
      vertex 4.37289 2.85578 0
      vertex 0 0 0
      vertex 4.2638 3.28067 0
    endloop
  endfacet
  facet normal -0 0 -1
    outer loop
      vertex 4.58422 2.47138 0
      vertex 0 0 0
      vertex 4.37289 2.85578 0
    endloop
  endfacet
  facet normal -0 0 -1
    outer loop
      vertex 4.88451 2.1516 0
      vertex 0 0 0
      vertex 4.58422 2.47138 0
    endloop
  endfacet
  facet normal -0 0 -1
    outer loop
      vertex 5.25489 1.91655 0
      vertex 0 0 0
      vertex 4.88451 2.1516 0
    endloop
  endfacet
  facet normal -0 0 -1
    outer loop
      vertex 5.67208 1.781 0
      vertex 0 0 0
      vertex 5.25489 1.91655 0
    endloop
  endfacet
  facet normal 0 0 -1
    outer loop
      vertex 7.69502 3.93521 0
      vertex 9.5 7 0
      vertex 7.75 3.5 0
    endloop
  endfacet
  facet normal 0 0 -1
    outer loop
      vertex 7.53354 4.34307 0
      vertex 9.5 7 0
      vertex 7.69502 3.93521 0
    endloop
  endfacet
  facet normal 0 0 -1
    outer loop
      vertex 7.27569 4.69796 0
      vertex 9.5 7 0
      vertex 7.53354 4.34307 0
    endloop
  endfacet
  facet normal 0 0 -1
    outer loop
      vertex 6.9377 4.97757 0
      vertex 9.5 7 0
      vertex 7.27569 4.69796 0
    endloop
  endfacet
  facet normal 0 0 -1
    outer loop
      vertex 6.54078 5.16435 0
      vertex 9.5 7 0
      vertex 6.9377 4.97757 0
    endloop
  endfacet
  facet normal 0 0 -1
    outer loop
      vertex 6.10988 5.24655 0
      vertex 9.5 7 0
      vertex 6.54078 5.16435 0
    endloop
  endfacet
  facet normal 0 0 -1
    outer loop
      vertex 5.67208 5.219 0
      vertex 9.5 7 0
      vertex 6.10988 5.24655 0
    endloop
  endfacet
  facet normal 0 0 -1
    outer loop
      vertex 0 7 0
      vertex 5.67208 5.219 0
      vertex 5.25489 5.08345 0
    endloop
  endfacet
  facet normal 0 0 -1
    outer loop
      vertex 0 7 0
      vertex 4.2638 3.71933 0
      vertex 0 0 0
    endloop
  endfacet
  facet normal 0 0 -1
    outer loop
      vertex 4.2638 3.71933 0
      vertex 0 7 0
      vertex 4.37289 4.14422 0
    endloop
  endfacet
  facet normal 0 0 -1
    outer loop
      vertex 4.37289 4.14422 0
      vertex 0 7 0
      vertex 4.58422 4.52862 0
    endloop
  endfacet
  facet normal 0 0 -1
    outer loop
      vertex 5.67208 5.219 0
      vertex 0 7 0
      vertex 9.5 7 0
    endloop
  endfacet
  facet normal 0 0 -1
    outer loop
      vertex 4.88451 4.8484 0
      vertex 0 7 0
      vertex 5.25489 5.08345 0
    endloop
  endfacet
  facet normal 0 0 -1
    outer loop
      vertex 4.58422 4.52862 0
      vertex 0 7 0
      vertex 4.88451 4.8484 0
    endloop
  endfacet
  facet normal -1 0 0
    outer loop
      vertex 0 7 0
      vertex 0 5.3 3
      vertex 0 7 3
    endloop
  endfacet
  facet normal -1 0 0
    outer loop
      vertex 0 5.3 3
      vertex 0 1.7 3
      vertex 0 5.3 7
    endloop
  endfacet
  facet normal -1 0 0
    outer loop
      vertex 0 7 0
      vertex 0 1.7 3
      vertex 0 5.3 3
    endloop
  endfacet
  facet normal -1 0 0
    outer loop
      vertex 0 0 0
      vertex 0 1.7 3
      vertex 0 7 0
    endloop
  endfacet
  facet normal -1 -0 0
    outer loop
      vertex 0 1.7 3
      vertex 0 0 0
      vertex 0 0 3
    endloop
  endfacet
  facet normal -1 -0 0
    outer loop
      vertex 0 5.3 7
      vertex 0 1.7 3
      vertex 0 1.7 7
    endloop
  endfacet
  facet normal 0 1 -0
    outer loop
      vertex 9.5 7 0
      vertex 0 7 3
      vertex 9.5 7 3
    endloop
  endfacet
  facet normal 0 1 0
    outer loop
      vertex 0 7 3
      vertex 9.5 7 0
      vertex 0 7 0
    endloop
  endfacet
  facet normal 0 -1 0
    outer loop
      vertex 0 0 0
      vertex 9.5 0 3
      vertex 0 0 3
    endloop
  endfacet
  facet normal 0 -1 -0
    outer loop
      vertex 9.5 0 3
      vertex 0 0 0
      vertex 9.5 0 0
    endloop
  endfacet
  facet normal 0.876303 -0.481761 0
    outer loop
      vertex 4.37289 4.14422 3
      vertex 4.58422 4.52862 0
      vertex 4.58422 4.52862 3
    endloop
  endfacet
  facet normal 0.876303 -0.481761 0
    outer loop
      vertex 4.58422 4.52862 0
      vertex 4.37289 4.14422 3
      vertex 4.37289 4.14422 0
    endloop
  endfacet
  facet normal -0.187384 -0.982287 0
    outer loop
      vertex 6.10988 5.24655 0
      vertex 6.54078 5.16435 3
      vertex 6.10988 5.24655 3
    endloop
  endfacet
  facet normal -0.187384 -0.982287 -0
    outer loop
      vertex 6.54078 5.16435 3
      vertex 6.10988 5.24655 0
      vertex 6.54078 5.16435 0
    endloop
  endfacet
  facet normal -0.929779 -0.368118 0
    outer loop
      vertex 7.69502 3.93521 0
      vertex 7.53354 4.34307 3
      vertex 7.53354 4.34307 0
    endloop
  endfacet
  facet normal -0.929779 -0.368118 0
    outer loop
      vertex 7.53354 4.34307 3
      vertex 7.69502 3.93521 0
      vertex 7.69502 3.93521 3
    endloop
  endfacet
  facet normal -0.425786 0.904824 0
    outer loop
      vertex 6.9377 2.02243 0
      vertex 6.54078 1.83565 3
      vertex 6.9377 2.02243 3
    endloop
  endfacet
  facet normal -0.425786 0.904824 0
    outer loop
      vertex 6.54078 1.83565 3
      vertex 6.9377 2.02243 0
      vertex 6.54078 1.83565 0
    endloop
  endfacet
  facet normal 0.535826 0.844328 -0
    outer loop
      vertex 5.25489 1.91655 0
      vertex 4.88451 2.1516 3
      vertex 5.25489 1.91655 3
    endloop
  endfacet
  facet normal 0.535826 0.844328 0
    outer loop
      vertex 4.88451 2.1516 3
      vertex 5.25489 1.91655 0
      vertex 4.88451 2.1516 0
    endloop
  endfacet
  facet normal -0.637424 0.770513 0
    outer loop
      vertex 7.27569 2.30204 0
      vertex 6.9377 2.02243 3
      vertex 7.27569 2.30204 3
    endloop
  endfacet
  facet normal -0.637424 0.770513 0
    outer loop
      vertex 6.9377 2.02243 3
      vertex 7.27569 2.30204 0
      vertex 6.9377 2.02243 0
    endloop
  endfacet
  facet normal -0.992115 0.125334 0
    outer loop
      vertex 7.69502 3.06479 0
      vertex 7.75 3.5 3
      vertex 7.75 3.5 0
    endloop
  endfacet
  facet normal -0.992115 0.125334 0
    outer loop
      vertex 7.75 3.5 3
      vertex 7.69502 3.06479 0
      vertex 7.69502 3.06479 3
    endloop
  endfacet
  facet normal 0.968585 0.248683 0
    outer loop
      vertex 4.37289 2.85578 3
      vertex 4.2638 3.28067 0
      vertex 4.2638 3.28067 3
    endloop
  endfacet
  facet normal 0.968585 0.248683 0
    outer loop
      vertex 4.2638 3.28067 0
      vertex 4.37289 2.85578 3
      vertex 4.37289 2.85578 0
    endloop
  endfacet
  facet normal -0.809009 0.587796 0
    outer loop
      vertex 7.27569 2.30204 0
      vertex 7.53354 2.65693 3
      vertex 7.53354 2.65693 0
    endloop
  endfacet
  facet normal -0.809009 0.587796 0
    outer loop
      vertex 7.53354 2.65693 3
      vertex 7.27569 2.30204 0
      vertex 7.27569 2.30204 3
    endloop
  endfacet
  facet normal -0.187384 0.982287 0
    outer loop
      vertex 6.54078 1.83565 0
      vertex 6.10988 1.75345 3
      vertex 6.54078 1.83565 3
    endloop
  endfacet
  facet normal -0.187384 0.982287 0
    outer loop
      vertex 6.10988 1.75345 3
      vertex 6.54078 1.83565 0
      vertex 6.10988 1.75345 0
    endloop
  endfacet
  facet normal -0.637424 -0.770513 0
    outer loop
      vertex 6.9377 4.97757 0
      vertex 7.27569 4.69796 3
      vertex 6.9377 4.97757 3
    endloop
  endfacet
  facet normal -0.637424 -0.770513 -0
    outer loop
      vertex 7.27569 4.69796 3
      vertex 6.9377 4.97757 0
      vertex 7.27569 4.69796 0
    endloop
  endfacet
  facet normal -0.992115 -0.125334 0
    outer loop
      vertex 7.75 3.5 0
      vertex 7.69502 3.93521 3
      vertex 7.69502 3.93521 0
    endloop
  endfacet
  facet normal -0.992115 -0.125334 0
    outer loop
      vertex 7.69502 3.93521 3
      vertex 7.75 3.5 0
      vertex 7.75 3.5 3
    endloop
  endfacet
  facet normal -0.809009 -0.587796 0
    outer loop
      vertex 7.53354 4.34307 0
      vertex 7.27569 4.69796 3
      vertex 7.27569 4.69796 0
    endloop
  endfacet
  facet normal -0.809009 -0.587796 0
    outer loop
      vertex 7.27569 4.69796 3
      vertex 7.53354 4.34307 0
      vertex 7.53354 4.34307 3
    endloop
  endfacet
  facet normal 0.062804 -0.998026 0
    outer loop
      vertex 5.67208 5.219 0
      vertex 6.10988 5.24655 3
      vertex 5.67208 5.219 3
    endloop
  endfacet
  facet normal 0.062804 -0.998026 0
    outer loop
      vertex 6.10988 5.24655 3
      vertex 5.67208 5.219 0
      vertex 6.10988 5.24655 0
    endloop
  endfacet
  facet normal 0.728973 -0.684543 0
    outer loop
      vertex 4.58422 4.52862 3
      vertex 4.88451 4.8484 0
      vertex 4.88451 4.8484 3
    endloop
  endfacet
  facet normal 0.728973 -0.684543 0
    outer loop
      vertex 4.88451 4.8484 0
      vertex 4.58422 4.52862 3
      vertex 4.58422 4.52862 0
    endloop
  endfacet
  facet normal 0.062804 0.998026 -0
    outer loop
      vertex 6.10988 1.75345 0
      vertex 5.67208 1.781 3
      vertex 6.10988 1.75345 3
    endloop
  endfacet
  facet normal 0.062804 0.998026 0
    outer loop
      vertex 5.67208 1.781 3
      vertex 6.10988 1.75345 0
      vertex 5.67208 1.781 0
    endloop
  endfacet
  facet normal -0.425786 -0.904824 0
    outer loop
      vertex 6.54078 5.16435 0
      vertex 6.9377 4.97757 3
      vertex 6.54078 5.16435 3
    endloop
  endfacet
  facet normal -0.425786 -0.904824 -0
    outer loop
      vertex 6.9377 4.97757 3
      vertex 6.54078 5.16435 0
      vertex 6.9377 4.97757 0
    endloop
  endfacet
  facet normal -0.929779 0.368118 0
    outer loop
      vertex 7.53354 2.65693 0
      vertex 7.69502 3.06479 3
      vertex 7.69502 3.06479 0
    endloop
  endfacet
  facet normal -0.929779 0.368118 0
    outer loop
      vertex 7.69502 3.06479 3
      vertex 7.53354 2.65693 0
      vertex 7.53354 2.65693 3
    endloop
  endfacet
  facet normal 0.30901 -0.951059 0
    outer loop
      vertex 5.25489 5.08345 0
      vertex 5.67208 5.219 3
      vertex 5.25489 5.08345 3
    endloop
  endfacet
  facet normal 0.30901 -0.951059 0
    outer loop
      vertex 5.67208 5.219 3
      vertex 5.25489 5.08345 0
      vertex 5.67208 5.219 0
    endloop
  endfacet
  facet normal 0.30901 0.951059 -0
    outer loop
      vertex 5.67208 1.781 0
      vertex 5.25489 1.91655 3
      vertex 5.67208 1.781 3
    endloop
  endfacet
  facet normal 0.30901 0.951059 0
    outer loop
      vertex 5.25489 1.91655 3
      vertex 5.67208 1.781 0
      vertex 5.25489 1.91655 0
    endloop
  endfacet
  facet normal 0.535826 -0.844328 0
    outer loop
      vertex 4.88451 4.8484 0
      vertex 5.25489 5.08345 3
      vertex 4.88451 4.8484 3
    endloop
  endfacet
  facet normal 0.535826 -0.844328 0
    outer loop
      vertex 5.25489 5.08345 3
      vertex 4.88451 4.8484 0
      vertex 5.25489 5.08345 0
    endloop
  endfacet
  facet normal 0.968585 -0.248683 0
    outer loop
      vertex 4.2638 3.71933 3
      vertex 4.37289 4.14422 0
      vertex 4.37289 4.14422 3
    endloop
  endfacet
  facet normal 0.968585 -0.248683 0
    outer loop
      vertex 4.37289 4.14422 0
      vertex 4.2638 3.71933 3
      vertex 4.2638 3.71933 0
    endloop
  endfacet
  facet normal 1 -0 0
    outer loop
      vertex 4.2638 3.28067 3
      vertex 4.2638 3.71933 0
      vertex 4.2638 3.71933 3
    endloop
  endfacet
  facet normal 1 0 0
    outer loop
      vertex 4.2638 3.71933 0
      vertex 4.2638 3.28067 3
      vertex 4.2638 3.28067 0
    endloop
  endfacet
  facet normal 0.876303 0.481761 0
    outer loop
      vertex 4.58422 2.47138 3
      vertex 4.37289 2.85578 0
      vertex 4.37289 2.85578 3
    endloop
  endfacet
  facet normal 0.876303 0.481761 0
    outer loop
      vertex 4.37289 2.85578 0
      vertex 4.58422 2.47138 3
      vertex 4.58422 2.47138 0
    endloop
  endfacet
  facet normal 0.728973 0.684543 0
    outer loop
      vertex 4.88451 2.1516 3
      vertex 4.58422 2.47138 0
      vertex 4.58422 2.47138 3
    endloop
  endfacet
  facet normal 0.728973 0.684543 0
    outer loop
      vertex 4.58422 2.47138 0
      vertex 4.88451 2.1516 3
      vertex 4.88451 2.1516 0
    endloop
  endfacet
  facet normal 1 -0 0
    outer loop
      vertex 1 1.7 7
      vertex 1 5.3 3
      vertex 1 5.3 7
    endloop
  endfacet
  facet normal 1 0 0
    outer loop
      vertex 1 5.3 3
      vertex 1 1.7 7
      vertex 1 1.7 3
    endloop
  endfacet
  facet normal -0 0 1
    outer loop
      vertex 0 5.3 7
      vertex 1 1.7 7
      vertex 1 5.3 7
    endloop
  endfacet
  facet normal 0 0 1
    outer loop
      vertex 1 1.7 7
      vertex 0 5.3 7
      vertex 0 1.7 7
    endloop
  endfacet
  facet normal 0 1 -0
    outer loop
      vertex 1 5.3 3
      vertex 0 5.3 7
      vertex 1 5.3 7
    endloop
  endfacet
  facet normal 0 1 0
    outer loop
      vertex 0 5.3 7
      vertex 1 5.3 3
      vertex 0 5.3 3
    endloop
  endfacet
  facet normal 0 -1 0
    outer loop
      vertex 0 1.7 3
      vertex 1 1.7 7
      vertex 0 1.7 7
    endloop
  endfacet
  facet normal 0 -1 -0
    outer loop
      vertex 1 1.7 7
      vertex 0 1.7 3
      vertex 1 1.7 3
    endloop
  endfacet
endsolid OpenSCAD_Model
