solid OpenSCAD_Model
  facet normal 1 -0 0
    outer loop
      vertex 40 19 6
      vertex 40 32 0
      vertex 40 32 6
    endloop
  endfacet
  facet normal 1 -0 0
    outer loop
      vertex 40 13 6
      vertex 40 32 0
      vertex 40 19 6
    endloop
  endfacet
  facet normal 1 0 0
    outer loop
      vertex 40 0 0
      vertex 40 13 6
      vertex 40 0 6
    endloop
  endfacet
  facet normal 1 0 0
    outer loop
      vertex 40 13 6
      vertex 40 0 0
      vertex 40 32 0
    endloop
  endfacet
  facet normal 0 0 1
    outer loop
      vertex 40 32 6
      vertex 35 27 6
      vertex 40 19 6
    endloop
  endfacet
  facet normal -0 0 1
    outer loop
      vertex 5 32 6
      vertex 35 27 6
      vertex 40 32 6
    endloop
  endfacet
  facet normal 0 0 1
    outer loop
      vertex 35 27 6
      vertex 5 32 6
      vertex 5 27 6
    endloop
  endfacet
  facet normal -0 0 1
    outer loop
      vertex 35 22.5 6
      vertex 40 19 6
      vertex 35 27 6
    endloop
  endfacet
  facet normal 0 0 1
    outer loop
      vertex 5 21.5 6
      vertex 35 22.5 6
      vertex 5 22.5 6
    endloop
  endfacet
  facet normal 0 0 1
    outer loop
      vertex 5 19 6
      vertex 35 22.5 6
      vertex 5 21.5 6
    endloop
  endfacet
  facet normal 0 0 1
    outer loop
      vertex 35 22.5 6
      vertex 5 19 6
      vertex 40 19 6
    endloop
  endfacet
  facet normal 0 0 1
    outer loop
      vertex 35 5 6
      vertex 40 13 6
      vertex 35 9.5 6
    endloop
  endfacet
  facet normal -0 0 1
    outer loop
      vertex 5 13 6
      vertex 35 9.5 6
      vertex 40 13 6
    endloop
  endfacet
  facet normal -0 0 1
    outer loop
      vertex 5 10.5 6
      vertex 35 9.5 6
      vertex 5 13 6
    endloop
  endfacet
  facet normal 0 0 1
    outer loop
      vertex 35 9.5 6
      vertex 5 10.5 6
      vertex 5 9.5 6
    endloop
  endfacet
  facet normal 0 0 1
    outer loop
      vertex 40 13 6
      vertex 35 5 6
      vertex 40 0 6
    endloop
  endfacet
  facet normal 0 0 1
    outer loop
      vertex 5 0 6
      vertex 35 5 6
      vertex 5 5 6
    endloop
  endfacet
  facet normal 0 0 1
    outer loop
      vertex 35 5 6
      vertex 5 0 6
      vertex 40 0 6
    endloop
  endfacet
  facet normal 0 0 -1
    outer loop
      vertex 4 16 0
      vertex 35 9.5 0
      vertex 5 9.5 0
    endloop
  endfacet
  facet normal 0 0 -1
    outer loop
      vertex 35 9.5 0
      vertex 4 16 0
      vertex 35 22.5 0
    endloop
  endfacet
  facet normal 0 0 -1
    outer loop
      vertex 35 9.5 0
      vertex 40 0 0
      vertex 35 5 0
    endloop
  endfacet
  facet normal 0 0 -1
    outer loop
      vertex 40 0 0
      vertex 5 5 0
      vertex 35 5 0
    endloop
  endfacet
  facet normal 0 0 -1
    outer loop
      vertex 0.625737 12.0492 0
      vertex 5 9.5 0
      vertex 5 5 0
    endloop
  endfacet
  facet normal -0 0 -1
    outer loop
      vertex 35 22.5 0
      vertex 4 16 0
      vertex 5 22.5 0
    endloop
  endfacet
  facet normal 0 0 -1
    outer loop
      vertex 3.95075 16.6257 0
      vertex 5 22.5 0
      vertex 4 16 0
    endloop
  endfacet
  facet normal 0 0 -1
    outer loop
      vertex 5 9.5 0
      vertex 3.95075 15.3743 0
      vertex 4 16 0
    endloop
  endfacet
  facet normal 0 0 -1
    outer loop
      vertex 5 9.5 0
      vertex 3.80423 14.7639 0
      vertex 3.95075 15.3743 0
    endloop
  endfacet
  facet normal 0 0 -1
    outer loop
      vertex 5 9.5 0
      vertex 3.56403 14.184 0
      vertex 3.80423 14.7639 0
    endloop
  endfacet
  facet normal 0 0 -1
    outer loop
      vertex 5 9.5 0
      vertex 3.23607 13.6489 0
      vertex 3.56403 14.184 0
    endloop
  endfacet
  facet normal 0 0 -1
    outer loop
      vertex 5 9.5 0
      vertex 2.82843 13.1716 0
      vertex 3.23607 13.6489 0
    endloop
  endfacet
  facet normal 0 0 -1
    outer loop
      vertex 5 9.5 0
      vertex 2.35114 12.7639 0
      vertex 2.82843 13.1716 0
    endloop
  endfacet
  facet normal 0 0 -1
    outer loop
      vertex 5 9.5 0
      vertex 1.81596 12.436 0
      vertex 2.35114 12.7639 0
    endloop
  endfacet
  facet normal 0 0 -1
    outer loop
      vertex 5 9.5 0
      vertex 1.23607 12.1958 0
      vertex 1.81596 12.436 0
    endloop
  endfacet
  facet normal 0 0 -1
    outer loop
      vertex 5 9.5 0
      vertex 0.625737 12.0492 0
      vertex 1.23607 12.1958 0
    endloop
  endfacet
  facet normal 0 0 -1
    outer loop
      vertex 0 0 0
      vertex 5 5 0
      vertex 40 0 0
    endloop
  endfacet
  facet normal 0 0 -1
    outer loop
      vertex 0 12 0
      vertex 5 5 0
      vertex 0 0 0
    endloop
  endfacet
  facet normal 0 0 -1
    outer loop
      vertex 5 5 0
      vertex 0 12 0
      vertex 0.625737 12.0492 0
    endloop
  endfacet
  facet normal 0 0 -1
    outer loop
      vertex 40 0 0
      vertex 35 9.5 0
      vertex 40 32 0
    endloop
  endfacet
  facet normal 0 0 -1
    outer loop
      vertex 35 22.5 0
      vertex 40 32 0
      vertex 35 9.5 0
    endloop
  endfacet
  facet normal 0 0 -1
    outer loop
      vertex 35 27 0
      vertex 40 32 0
      vertex 35 22.5 0
    endloop
  endfacet
  facet normal 0 0 -1
    outer loop
      vertex 5 27 0
      vertex 40 32 0
      vertex 35 27 0
    endloop
  endfacet
  facet normal 0 0 -1
    outer loop
      vertex 3.80423 17.2361 0
      vertex 5 22.5 0
      vertex 3.95075 16.6257 0
    endloop
  endfacet
  facet normal 0 0 -1
    outer loop
      vertex 3.56403 17.816 0
      vertex 5 22.5 0
      vertex 3.80423 17.2361 0
    endloop
  endfacet
  facet normal 0 0 -1
    outer loop
      vertex 3.23607 18.3511 0
      vertex 5 22.5 0
      vertex 3.56403 17.816 0
    endloop
  endfacet
  facet normal 0 0 -1
    outer loop
      vertex 2.82843 18.8284 0
      vertex 5 22.5 0
      vertex 3.23607 18.3511 0
    endloop
  endfacet
  facet normal 0 0 -1
    outer loop
      vertex 2.35114 19.2361 0
      vertex 5 22.5 0
      vertex 2.82843 18.8284 0
    endloop
  endfacet
  facet normal 0 0 -1
    outer loop
      vertex 1.81596 19.564 0
      vertex 5 22.5 0
      vertex 2.35114 19.2361 0
    endloop
  endfacet
  facet normal 0 0 -1
    outer loop
      vertex 1.23607 19.8042 0
      vertex 5 22.5 0
      vertex 1.81596 19.564 0
    endloop
  endfacet
  facet normal 0 0 -1
    outer loop
      vertex 0.625737 19.9508 0
      vertex 5 22.5 0
      vertex 1.23607 19.8042 0
    endloop
  endfacet
  facet normal -0 0 -1
    outer loop
      vertex 5 22.5 0
      vertex 0.625737 19.9508 0
      vertex 5 27 0
    endloop
  endfacet
  facet normal 0 0 -1
    outer loop
      vertex 0 20 0
      vertex 5 27 0
      vertex 0.625737 19.9508 0
    endloop
  endfacet
  facet normal 0 0 -1
    outer loop
      vertex 5 27 0
      vertex 0 32 0
      vertex 40 32 0
    endloop
  endfacet
  facet normal 0 0 -1
    outer loop
      vertex 0 32 0
      vertex 5 27 0
      vertex 0 20 0
    endloop
  endfacet
  facet normal -1 0 0
    outer loop
      vertex 0 21.5 18
      vertex 0 26 30
      vertex 0 26 18
    endloop
  endfacet
  facet normal -1 -0 0
    outer loop
      vertex 0 26 30
      vertex 0 21.5 18
      vertex 0 21.5 30
    endloop
  endfacet
  facet normal -1 0 0
    outer loop
      vertex 0 26 18
      vertex 0 32 0
      vertex 0 26 6
    endloop
  endfacet
  facet normal -1 0 0
    outer loop
      vertex 0 20 0
      vertex 0 26 6
      vertex 0 32 0
    endloop
  endfacet
  facet normal -1 0 0
    outer loop
      vertex 0 20 0
      vertex 0 21.5 18
      vertex 0 21.5 6
    endloop
  endfacet
  facet normal -1 0 0
    outer loop
      vertex 0 20 46
      vertex 0 21.5 18
      vertex 0 20 0
    endloop
  endfacet
  facet normal -1 0 0
    outer loop
      vertex 0 21.5 18
      vertex 0 20 46
      vertex 0 21.5 30
    endloop
  endfacet
  facet normal -1 -0 0
    outer loop
      vertex 0 26 6
      vertex 0 20 0
      vertex 0 21.5 6
    endloop
  endfacet
  facet normal -1 0 0
    outer loop
      vertex 0 32 0
      vertex 0 26 18
      vertex 0 32 46
    endloop
  endfacet
  facet normal -1 0 0
    outer loop
      vertex 0 26 30
      vertex 0 32 46
      vertex 0 26 18
    endloop
  endfacet
  facet normal -1 0 0
    outer loop
      vertex 0 26 42
      vertex 0 32 46
      vertex 0 26 30
    endloop
  endfacet
  facet normal -1 0 0
    outer loop
      vertex 0 20 46
      vertex 0 26 42
      vertex 0 21.5 42
    endloop
  endfacet
  facet normal -1 0 0
    outer loop
      vertex 0 26 42
      vertex 0 20 46
      vertex 0 32 46
    endloop
  endfacet
  facet normal -1 0 0
    outer loop
      vertex 0 21.5 30
      vertex 0 20 46
      vertex 0 21.5 42
    endloop
  endfacet
  facet normal -1 0 0
    outer loop
      vertex 0 6 18
      vertex 0 10.5 30
      vertex 0 10.5 18
    endloop
  endfacet
  facet normal -1 -0 0
    outer loop
      vertex 0 10.5 30
      vertex 0 6 18
      vertex 0 6 30
    endloop
  endfacet
  facet normal -1 0 0
    outer loop
      vertex 0 10.5 18
      vertex 0 12 0
      vertex 0 10.5 6
    endloop
  endfacet
  facet normal -1 0 0
    outer loop
      vertex 0 12 0
      vertex 0 6 6
      vertex 0 10.5 6
    endloop
  endfacet
  facet normal -1 0 0
    outer loop
      vertex 0 0 0
      vertex 0 6 18
      vertex 0 6 6
    endloop
  endfacet
  facet normal -1 0 0
    outer loop
      vertex 0 0 46
      vertex 0 6 18
      vertex 0 0 0
    endloop
  endfacet
  facet normal -1 0 0
    outer loop
      vertex 0 6 18
      vertex 0 0 46
      vertex 0 6 30
    endloop
  endfacet
  facet normal -1 0 0
    outer loop
      vertex 0 0 0
      vertex 0 6 6
      vertex 0 12 0
    endloop
  endfacet
  facet normal -1 0 0
    outer loop
      vertex 0 12 0
      vertex 0 10.5 18
      vertex 0 12 46
    endloop
  endfacet
  facet normal -1 0 0
    outer loop
      vertex 0 10.5 30
      vertex 0 12 46
      vertex 0 10.5 18
    endloop
  endfacet
  facet normal -1 0 0
    outer loop
      vertex 0 10.5 42
      vertex 0 12 46
      vertex 0 10.5 30
    endloop
  endfacet
  facet normal -1 0 0
    outer loop
      vertex 0 6 42
      vertex 0 12 46
      vertex 0 10.5 42
    endloop
  endfacet
  facet normal -1 0 0
    outer loop
      vertex 0 6 42
      vertex 0 0 46
      vertex 0 12 46
    endloop
  endfacet
  facet normal -1 0 0
    outer loop
      vertex 0 6 30
      vertex 0 0 46
      vertex 0 6 42
    endloop
  endfacet
  facet normal 0 1 0
    outer loop
      vertex 40 32 6
      vertex 40 32 0
      vertex 5 32 6
    endloop
  endfacet
  facet normal 0 1 -0
    outer loop
      vertex 5 32 6
      vertex 0 32 46
      vertex 5 32 46
    endloop
  endfacet
  facet normal 0 1 0
    outer loop
      vertex 5 32 6
      vertex 0 32 0
      vertex 0 32 46
    endloop
  endfacet
  facet normal 0 1 0
    outer loop
      vertex 0 32 0
      vertex 5 32 6
      vertex 40 32 0
    endloop
  endfacet
  facet normal 0 -1 0
    outer loop
      vertex 0 0 46
      vertex 5 0 6
      vertex 5 0 46
    endloop
  endfacet
  facet normal 0 -1 0
    outer loop
      vertex 0 0 0
      vertex 5 0 6
      vertex 0 0 46
    endloop
  endfacet
  facet normal 0 -1 0
    outer loop
      vertex 40 0 0
      vertex 5 0 6
      vertex 0 0 0
    endloop
  endfacet
  facet normal 0 -1 0
    outer loop
      vertex 5 0 6
      vertex 40 0 0
      vertex 40 0 6
    endloop
  endfacet
  facet normal 0 1 0
    outer loop
      vertex 40 19 6
      vertex 5 19 6
      vertex 5 19 46
    endloop
  endfacet
  facet normal 0 -1 0
    outer loop
      vertex 5 13 46
      vertex 5 13 6
      vertex 40 13 6
    endloop
  endfacet
  facet normal 0.752577 -0 0.658505
    outer loop
      vertex 5 13 46
      vertex 40 19 6
      vertex 5 19 46
    endloop
  endfacet
  facet normal 0.752577 0 0.658505
    outer loop
      vertex 40 19 6
      vertex 5 13 46
      vertex 40 13 6
    endloop
  endfacet
  facet normal 1 -0 0
    outer loop
      vertex 5 21.5 30
      vertex 5 26 18
      vertex 5 26 30
    endloop
  endfacet
  facet normal 1 0 0
    outer loop
      vertex 5 26 18
      vertex 5 21.5 30
      vertex 5 21.5 18
    endloop
  endfacet
  facet normal 1 -0 0
    outer loop
      vertex 5 26 30
      vertex 5 32 6
      vertex 5 32 46
    endloop
  endfacet
  facet normal 1 0 0
    outer loop
      vertex 5 26 30
      vertex 5 32 46
      vertex 5 26 42
    endloop
  endfacet
  facet normal 1 -0 0
    outer loop
      vertex 5 19 46
      vertex 5 26 42
      vertex 5 32 46
    endloop
  endfacet
  facet normal 1 0 0
    outer loop
      vertex 5 19 46
      vertex 5 21.5 30
      vertex 5 21.5 42
    endloop
  endfacet
  facet normal 1 0 0
    outer loop
      vertex 5 19 6
      vertex 5 21.5 30
      vertex 5 19 46
    endloop
  endfacet
  facet normal 1 0 0
    outer loop
      vertex 5 26 42
      vertex 5 19 46
      vertex 5 21.5 42
    endloop
  endfacet
  facet normal 1 0 0
    outer loop
      vertex 5 21.5 30
      vertex 5 19 6
      vertex 5 21.5 18
    endloop
  endfacet
  facet normal 1 0 0
    outer loop
      vertex 5 21.5 18
      vertex 5 19 6
      vertex 5 21.5 6
    endloop
  endfacet
  facet normal 1 0 0
    outer loop
      vertex 5 32 6
      vertex 5 26 30
      vertex 5 26 18
    endloop
  endfacet
  facet normal 1 0 0
    outer loop
      vertex 5 32 6
      vertex 5 26 18
      vertex 5 27 6
    endloop
  endfacet
  facet normal 1 0 0
    outer loop
      vertex 5 27 6
      vertex 5 26 18
      vertex 5 26 6
    endloop
  endfacet
  facet normal 1 -0 0
    outer loop
      vertex 5 6 30
      vertex 5 10.5 18
      vertex 5 10.5 30
    endloop
  endfacet
  facet normal 1 0 0
    outer loop
      vertex 5 10.5 18
      vertex 5 6 30
      vertex 5 6 18
    endloop
  endfacet
  facet normal 1 0 0
    outer loop
      vertex 5 10.5 30
      vertex 5 13 46
      vertex 5 10.5 42
    endloop
  endfacet
  facet normal 1 0 0
    outer loop
      vertex 5 13 46
      vertex 5 6 42
      vertex 5 10.5 42
    endloop
  endfacet
  facet normal 1 0 0
    outer loop
      vertex 5 0 46
      vertex 5 6 30
      vertex 5 6 42
    endloop
  endfacet
  facet normal 1 0 0
    outer loop
      vertex 5 0 6
      vertex 5 6 30
      vertex 5 0 46
    endloop
  endfacet
  facet normal 1 0 0
    outer loop
      vertex 5 6 18
      vertex 5 5 6
      vertex 5 6 6
    endloop
  endfacet
  facet normal 1 -0 0
    outer loop
      vertex 5 0 46
      vertex 5 6 42
      vertex 5 13 46
    endloop
  endfacet
  facet normal 1 0 0
    outer loop
      vertex 5 6 30
      vertex 5 0 6
      vertex 5 6 18
    endloop
  endfacet
  facet normal 1 0 0
    outer loop
      vertex 5 6 18
      vertex 5 0 6
      vertex 5 5 6
    endloop
  endfacet
  facet normal 1 0 0
    outer loop
      vertex 5 13 46
      vertex 5 10.5 30
      vertex 5 13 6
    endloop
  endfacet
  facet normal 1 -0 0
    outer loop
      vertex 5 10.5 18
      vertex 5 13 6
      vertex 5 10.5 30
    endloop
  endfacet
  facet normal 1 0 0
    outer loop
      vertex 5 13 6
      vertex 5 10.5 18
      vertex 5 10.5 6
    endloop
  endfacet
  facet normal -0 0 1
    outer loop
      vertex 1.81596 19.564 46
      vertex 5 19 46
      vertex 5 32 46
    endloop
  endfacet
  facet normal 0 -0 1
    outer loop
      vertex 4 16 46
      vertex 5 19 46
      vertex 3.95075 16.6257 46
    endloop
  endfacet
  facet normal -0 0 1
    outer loop
      vertex 3.95075 15.3743 46
      vertex 5 13 46
      vertex 4 16 46
    endloop
  endfacet
  facet normal 0 0 1
    outer loop
      vertex 5 19 46
      vertex 4 16 46
      vertex 5 13 46
    endloop
  endfacet
  facet normal 0 0 1
    outer loop
      vertex 5 19 46
      vertex 3.80423 17.2361 46
      vertex 3.95075 16.6257 46
    endloop
  endfacet
  facet normal 0 0 1
    outer loop
      vertex 5 19 46
      vertex 3.56403 17.816 46
      vertex 3.80423 17.2361 46
    endloop
  endfacet
  facet normal 0 0 1
    outer loop
      vertex 5 19 46
      vertex 3.23607 18.3511 46
      vertex 3.56403 17.816 46
    endloop
  endfacet
  facet normal 0 0 1
    outer loop
      vertex 5 19 46
      vertex 2.82843 18.8284 46
      vertex 3.23607 18.3511 46
    endloop
  endfacet
  facet normal 0 0 1
    outer loop
      vertex 5 19 46
      vertex 2.35114 19.2361 46
      vertex 2.82843 18.8284 46
    endloop
  endfacet
  facet normal 0 0 1
    outer loop
      vertex 5 19 46
      vertex 1.81596 19.564 46
      vertex 2.35114 19.2361 46
    endloop
  endfacet
  facet normal 0 0 1
    outer loop
      vertex 5 32 46
      vertex 1.23607 19.8042 46
      vertex 1.81596 19.564 46
    endloop
  endfacet
  facet normal -0 0 1
    outer loop
      vertex 0 32 46
      vertex 1.23607 19.8042 46
      vertex 5 32 46
    endloop
  endfacet
  facet normal 0 0 1
    outer loop
      vertex 1.23607 19.8042 46
      vertex 0 32 46
      vertex 0.625737 19.9508 46
    endloop
  endfacet
  facet normal 0 0 1
    outer loop
      vertex 0.625737 19.9508 46
      vertex 0 32 46
      vertex 0 20 46
    endloop
  endfacet
  facet normal -0 0 1
    outer loop
      vertex 3.80423 14.7639 46
      vertex 5 13 46
      vertex 3.95075 15.3743 46
    endloop
  endfacet
  facet normal -0 0 1
    outer loop
      vertex 3.56403 14.184 46
      vertex 5 13 46
      vertex 3.80423 14.7639 46
    endloop
  endfacet
  facet normal -0 0 1
    outer loop
      vertex 3.23607 13.6489 46
      vertex 5 13 46
      vertex 3.56403 14.184 46
    endloop
  endfacet
  facet normal -0 0 1
    outer loop
      vertex 2.82843 13.1716 46
      vertex 5 13 46
      vertex 3.23607 13.6489 46
    endloop
  endfacet
  facet normal 0 0 1
    outer loop
      vertex 2.35114 12.7639 46
      vertex 5 13 46
      vertex 2.82843 13.1716 46
    endloop
  endfacet
  facet normal 0 0 1
    outer loop
      vertex 1.81596 12.436 46
      vertex 5 13 46
      vertex 2.35114 12.7639 46
    endloop
  endfacet
  facet normal 0 0 1
    outer loop
      vertex 5 13 46
      vertex 1.81596 12.436 46
      vertex 5 0 46
    endloop
  endfacet
  facet normal -0 0 1
    outer loop
      vertex 1.23607 12.1958 46
      vertex 5 0 46
      vertex 1.81596 12.436 46
    endloop
  endfacet
  facet normal 0 0 1
    outer loop
      vertex 0 0 46
      vertex 1.23607 12.1958 46
      vertex 0.625737 12.0492 46
    endloop
  endfacet
  facet normal 0 0 1
    outer loop
      vertex 0 0 46
      vertex 0.625737 12.0492 46
      vertex 0 12 46
    endloop
  endfacet
  facet normal 0 0 1
    outer loop
      vertex 1.23607 12.1958 46
      vertex 0 0 46
      vertex 5 0 46
    endloop
  endfacet
  facet normal -1 0 0
    outer loop
      vertex 35 5 0
      vertex 35 9.5 6
      vertex 35 9.5 0
    endloop
  endfacet
  facet normal -1 -0 0
    outer loop
      vertex 35 9.5 6
      vertex 35 5 0
      vertex 35 5 6
    endloop
  endfacet
  facet normal 1 -0 0
    outer loop
      vertex 5 6 6
      vertex 5 9.5 0
      vertex 5 9.5 6
    endloop
  endfacet
  facet normal 1 0 0
    outer loop
      vertex 5 5 0
      vertex 5 6 6
      vertex 5 5 6
    endloop
  endfacet
  facet normal 1 0 0
    outer loop
      vertex 5 6 6
      vertex 5 5 0
      vertex 5 9.5 0
    endloop
  endfacet
  facet normal 0 -1 0
    outer loop
      vertex 5 9.5 0
      vertex 35 9.5 6
      vertex 5 9.5 6
    endloop
  endfacet
  facet normal 0 -1 -0
    outer loop
      vertex 35 9.5 6
      vertex 5 9.5 0
      vertex 35 9.5 0
    endloop
  endfacet
  facet normal 0 1 -0
    outer loop
      vertex 35 5 0
      vertex 5 5 6
      vertex 35 5 6
    endloop
  endfacet
  facet normal 0 1 0
    outer loop
      vertex 5 5 6
      vertex 35 5 0
      vertex 5 5 0
    endloop
  endfacet
  facet normal -1 0 0
    outer loop
      vertex 35 22.5 0
      vertex 35 27 6
      vertex 35 27 0
    endloop
  endfacet
  facet normal -1 -0 0
    outer loop
      vertex 35 27 6
      vertex 35 22.5 0
      vertex 35 22.5 6
    endloop
  endfacet
  facet normal 1 -0 0
    outer loop
      vertex 5 26 6
      vertex 5 27 0
      vertex 5 27 6
    endloop
  endfacet
  facet normal 1 0 0
    outer loop
      vertex 5 22.5 0
      vertex 5 26 6
      vertex 5 22.5 6
    endloop
  endfacet
  facet normal 1 0 0
    outer loop
      vertex 5 26 6
      vertex 5 22.5 0
      vertex 5 27 0
    endloop
  endfacet
  facet normal 0 -1 0
    outer loop
      vertex 5 27 0
      vertex 35 27 6
      vertex 5 27 6
    endloop
  endfacet
  facet normal 0 -1 -0
    outer loop
      vertex 35 27 6
      vertex 5 27 0
      vertex 35 27 0
    endloop
  endfacet
  facet normal 0 1 -0
    outer loop
      vertex 35 22.5 0
      vertex 5 22.5 6
      vertex 35 22.5 6
    endloop
  endfacet
  facet normal 0 1 0
    outer loop
      vertex 5 22.5 6
      vertex 35 22.5 0
      vertex 5 22.5 0
    endloop
  endfacet
  facet normal -0.760416 0.649436 0
    outer loop
      vertex 2.82843 13.1716 0
      vertex 3.23607 13.6489 46
      vertex 3.23607 13.6489 0
    endloop
  endfacet
  facet normal -0.760416 0.649436 0
    outer loop
      vertex 3.23607 13.6489 46
      vertex 2.82843 13.1716 0
      vertex 2.82843 13.1716 46
    endloop
  endfacet
  facet normal -0.382686 0.923879 0
    outer loop
      vertex 1.81596 12.436 0
      vertex 1.23607 12.1958 46
      vertex 1.81596 12.436 46
    endloop
  endfacet
  facet normal -0.382686 0.923879 0
    outer loop
      vertex 1.23607 12.1958 46
      vertex 1.81596 12.436 0
      vertex 1.23607 12.1958 0
    endloop
  endfacet
  facet normal -0.852604 -0.522557 0
    outer loop
      vertex 3.56403 17.816 0
      vertex 3.23607 18.3511 46
      vertex 3.23607 18.3511 0
    endloop
  endfacet
  facet normal -0.852604 -0.522557 0
    outer loop
      vertex 3.23607 18.3511 46
      vertex 3.56403 17.816 0
      vertex 3.56403 17.816 46
    endloop
  endfacet
  facet normal -0.972379 -0.233409 0
    outer loop
      vertex 3.95075 16.6257 0
      vertex 3.80423 17.2361 46
      vertex 3.80423 17.2361 0
    endloop
  endfacet
  facet normal -0.972379 -0.233409 0
    outer loop
      vertex 3.80423 17.2361 46
      vertex 3.95075 16.6257 0
      vertex 3.95075 16.6257 46
    endloop
  endfacet
  facet normal -0.649499 -0.760362 0
    outer loop
      vertex 2.35114 19.2361 0
      vertex 2.82843 18.8284 46
      vertex 2.35114 19.2361 46
    endloop
  endfacet
  facet normal -0.649499 -0.760362 -0
    outer loop
      vertex 2.82843 18.8284 46
      vertex 2.35114 19.2361 0
      vertex 2.82843 18.8284 0
    endloop
  endfacet
  facet normal -0.852604 0.522557 0
    outer loop
      vertex 3.23607 13.6489 0
      vertex 3.56403 14.184 46
      vertex 3.56403 14.184 0
    endloop
  endfacet
  facet normal -0.852604 0.522557 0
    outer loop
      vertex 3.56403 14.184 46
      vertex 3.23607 13.6489 0
      vertex 3.23607 13.6489 46
    endloop
  endfacet
  facet normal -0.233554 0.972344 0
    outer loop
      vertex 1.23607 12.1958 0
      vertex 0.625737 12.0492 46
      vertex 1.23607 12.1958 46
    endloop
  endfacet
  facet normal -0.233554 0.972344 0
    outer loop
      vertex 0.625737 12.0492 46
      vertex 1.23607 12.1958 0
      vertex 0.625737 12.0492 0
    endloop
  endfacet
  facet normal -0.923881 -0.38268 0
    outer loop
      vertex 3.80423 17.2361 0
      vertex 3.56403 17.816 46
      vertex 3.56403 17.816 0
    endloop
  endfacet
  facet normal -0.923881 -0.38268 0
    outer loop
      vertex 3.56403 17.816 46
      vertex 3.80423 17.2361 0
      vertex 3.80423 17.2361 46
    endloop
  endfacet
  facet normal -0.382686 -0.923879 0
    outer loop
      vertex 1.23607 19.8042 0
      vertex 1.81596 19.564 46
      vertex 1.23607 19.8042 46
    endloop
  endfacet
  facet normal -0.382686 -0.923879 -0
    outer loop
      vertex 1.81596 19.564 46
      vertex 1.23607 19.8042 0
      vertex 1.81596 19.564 0
    endloop
  endfacet
  facet normal -0.522431 0.852682 0
    outer loop
      vertex 2.35114 12.7639 0
      vertex 1.81596 12.436 46
      vertex 2.35114 12.7639 46
    endloop
  endfacet
  facet normal -0.522431 0.852682 0
    outer loop
      vertex 1.81596 12.436 46
      vertex 2.35114 12.7639 0
      vertex 1.81596 12.436 0
    endloop
  endfacet
  facet normal -0.996917 -0.0784691 0
    outer loop
      vertex 4 16 0
      vertex 3.95075 16.6257 46
      vertex 3.95075 16.6257 0
    endloop
  endfacet
  facet normal -0.996917 -0.0784691 0
    outer loop
      vertex 3.95075 16.6257 46
      vertex 4 16 0
      vertex 4 16 46
    endloop
  endfacet
  facet normal -0.0783854 -0.996923 0
    outer loop
      vertex 0 20 0
      vertex 0.625737 19.9508 46
      vertex 0 20 46
    endloop
  endfacet
  facet normal -0.0783854 -0.996923 -0
    outer loop
      vertex 0.625737 19.9508 46
      vertex 0 20 0
      vertex 0.625737 19.9508 0
    endloop
  endfacet
  facet normal -0.923881 0.38268 0
    outer loop
      vertex 3.56403 14.184 0
      vertex 3.80423 14.7639 46
      vertex 3.80423 14.7639 0
    endloop
  endfacet
  facet normal -0.923881 0.38268 0
    outer loop
      vertex 3.80423 14.7639 46
      vertex 3.56403 14.184 0
      vertex 3.56403 14.184 46
    endloop
  endfacet
  facet normal -0.760416 -0.649436 0
    outer loop
      vertex 3.23607 18.3511 0
      vertex 2.82843 18.8284 46
      vertex 2.82843 18.8284 0
    endloop
  endfacet
  facet normal -0.760416 -0.649436 0
    outer loop
      vertex 2.82843 18.8284 46
      vertex 3.23607 18.3511 0
      vertex 3.23607 18.3511 46
    endloop
  endfacet
  facet normal -0.522431 -0.852682 0
    outer loop
      vertex 1.81596 19.564 0
      vertex 2.35114 19.2361 46
      vertex 1.81596 19.564 46
    endloop
  endfacet
  facet normal -0.522431 -0.852682 -0
    outer loop
      vertex 2.35114 19.2361 46
      vertex 1.81596 19.564 0
      vertex 2.35114 19.2361 0
    endloop
  endfacet
  facet normal -0.0783854 0.996923 0
    outer loop
      vertex 0.625737 12.0492 0
      vertex 0 12 46
      vertex 0.625737 12.0492 46
    endloop
  endfacet
  facet normal -0.0783854 0.996923 0
    outer loop
      vertex 0 12 46
      vertex 0.625737 12.0492 0
      vertex 0 12 0
    endloop
  endfacet
  facet normal -0.996917 0.0784691 0
    outer loop
      vertex 3.95075 15.3743 0
      vertex 4 16 46
      vertex 4 16 0
    endloop
  endfacet
  facet normal -0.996917 0.0784691 0
    outer loop
      vertex 4 16 46
      vertex 3.95075 15.3743 0
      vertex 3.95075 15.3743 46
    endloop
  endfacet
  facet normal -0.649499 0.760362 0
    outer loop
      vertex 2.82843 13.1716 0
      vertex 2.35114 12.7639 46
      vertex 2.82843 13.1716 46
    endloop
  endfacet
  facet normal -0.649499 0.760362 0
    outer loop
      vertex 2.35114 12.7639 46
      vertex 2.82843 13.1716 0
      vertex 2.35114 12.7639 0
    endloop
  endfacet
  facet normal -0.972379 0.233409 0
    outer loop
      vertex 3.80423 14.7639 0
      vertex 3.95075 15.3743 46
      vertex 3.95075 15.3743 0
    endloop
  endfacet
  facet normal -0.972379 0.233409 0
    outer loop
      vertex 3.95075 15.3743 46
      vertex 3.80423 14.7639 0
      vertex 3.80423 14.7639 46
    endloop
  endfacet
  facet normal -0.233554 -0.972344 0
    outer loop
      vertex 0.625737 19.9508 0
      vertex 1.23607 19.8042 46
      vertex 0.625737 19.9508 46
    endloop
  endfacet
  facet normal -0.233554 -0.972344 -0
    outer loop
      vertex 1.23607 19.8042 46
      vertex 0.625737 19.9508 0
      vertex 1.23607 19.8042 0
    endloop
  endfacet
  facet normal 0 0 -1
    outer loop
      vertex 0 6 18
      vertex 5 10.5 18
      vertex 5 6 18
    endloop
  endfacet
  facet normal -0 0 -1
    outer loop
      vertex 5 10.5 18
      vertex 0 6 18
      vertex 0 10.5 18
    endloop
  endfacet
  facet normal -0 0 1
    outer loop
      vertex 0 10.5 6
      vertex 5 9.5 6
      vertex 5 10.5 6
    endloop
  endfacet
  facet normal 0 0 1
    outer loop
      vertex 0 6 6
      vertex 5 9.5 6
      vertex 0 10.5 6
    endloop
  endfacet
  facet normal 0 0 1
    outer loop
      vertex 5 9.5 6
      vertex 0 6 6
      vertex 5 6 6
    endloop
  endfacet
  facet normal 0 -1 0
    outer loop
      vertex 0 10.5 6
      vertex 5 10.5 18
      vertex 0 10.5 18
    endloop
  endfacet
  facet normal 0 -1 -0
    outer loop
      vertex 5 10.5 18
      vertex 0 10.5 6
      vertex 5 10.5 6
    endloop
  endfacet
  facet normal 0 1 -0
    outer loop
      vertex 5 6 6
      vertex 0 6 18
      vertex 5 6 18
    endloop
  endfacet
  facet normal 0 1 0
    outer loop
      vertex 0 6 18
      vertex 5 6 6
      vertex 0 6 6
    endloop
  endfacet
  facet normal 0 0 -1
    outer loop
      vertex 0 21.5 18
      vertex 5 26 18
      vertex 5 21.5 18
    endloop
  endfacet
  facet normal -0 0 -1
    outer loop
      vertex 5 26 18
      vertex 0 21.5 18
      vertex 0 26 18
    endloop
  endfacet
  facet normal -0 0 1
    outer loop
      vertex 0 26 6
      vertex 5 22.5 6
      vertex 5 26 6
    endloop
  endfacet
  facet normal 0 0 1
    outer loop
      vertex 0 21.5 6
      vertex 5 22.5 6
      vertex 0 26 6
    endloop
  endfacet
  facet normal 0 0 1
    outer loop
      vertex 5 22.5 6
      vertex 0 21.5 6
      vertex 5 21.5 6
    endloop
  endfacet
  facet normal 0 -1 0
    outer loop
      vertex 0 26 6
      vertex 5 26 18
      vertex 0 26 18
    endloop
  endfacet
  facet normal 0 -1 -0
    outer loop
      vertex 5 26 18
      vertex 0 26 6
      vertex 5 26 6
    endloop
  endfacet
  facet normal 0 1 -0
    outer loop
      vertex 5 21.5 6
      vertex 0 21.5 18
      vertex 5 21.5 18
    endloop
  endfacet
  facet normal 0 1 0
    outer loop
      vertex 0 21.5 18
      vertex 5 21.5 6
      vertex 0 21.5 6
    endloop
  endfacet
  facet normal 0 0 -1
    outer loop
      vertex 0 6 42
      vertex 5 10.5 42
      vertex 5 6 42
    endloop
  endfacet
  facet normal -0 0 -1
    outer loop
      vertex 5 10.5 42
      vertex 0 6 42
      vertex 0 10.5 42
    endloop
  endfacet
  facet normal -0 0 1
    outer loop
      vertex 0 10.5 30
      vertex 5 6 30
      vertex 5 10.5 30
    endloop
  endfacet
  facet normal 0 0 1
    outer loop
      vertex 5 6 30
      vertex 0 10.5 30
      vertex 0 6 30
    endloop
  endfacet
  facet normal 0 -1 0
    outer loop
      vertex 0 10.5 30
      vertex 5 10.5 42
      vertex 0 10.5 42
    endloop
  endfacet
  facet normal 0 -1 -0
    outer loop
      vertex 5 10.5 42
      vertex 0 10.5 30
      vertex 5 10.5 30
    endloop
  endfacet
  facet normal 0 1 -0
    outer loop
      vertex 5 6 30
      vertex 0 6 42
      vertex 5 6 42
    endloop
  endfacet
  facet normal 0 1 0
    outer loop
      vertex 0 6 42
      vertex 5 6 30
      vertex 0 6 30
    endloop
  endfacet
  facet normal 0 0 -1
    outer loop
      vertex 0 21.5 42
      vertex 5 26 42
      vertex 5 21.5 42
    endloop
  endfacet
  facet normal -0 0 -1
    outer loop
      vertex 5 26 42
      vertex 0 21.5 42
      vertex 0 26 42
    endloop
  endfacet
  facet normal -0 0 1
    outer loop
      vertex 0 26 30
      vertex 5 21.5 30
      vertex 5 26 30
    endloop
  endfacet
  facet normal 0 0 1
    outer loop
      vertex 5 21.5 30
      vertex 0 26 30
      vertex 0 21.5 30
    endloop
  endfacet
  facet normal 0 -1 0
    outer loop
      vertex 0 26 30
      vertex 5 26 42
      vertex 0 26 42
    endloop
  endfacet
  facet normal 0 -1 -0
    outer loop
      vertex 5 26 42
      vertex 0 26 30
      vertex 5 26 30
    endloop
  endfacet
  facet normal 0 1 -0
    outer loop
      vertex 5 21.5 30
      vertex 0 21.5 42
      vertex 5 21.5 42
    endloop
  endfacet
  facet normal 0 1 0
    outer loop
      vertex 0 21.5 42
      vertex 5 21.5 30
      vertex 0 21.5 30
    endloop
  endfacet
endsolid OpenSCAD_Model
