solid OpenSCAD_Model
  facet normal 1 -0 0
    outer loop
      vertex 45 0 4
      vertex 45 30 0
      vertex 45 30 4
    endloop
  endfacet
  facet normal 1 0 0
    outer loop
      vertex 45 30 0
      vertex 45 0 4
      vertex 45 0 0
    endloop
  endfacet
  facet normal 0 0 1
    outer loop
      vertex 13 2.76333 4
      vertex 12.5784 2.78985 4
      vertex 13 2.75 4
    endloop
  endfacet
  facet normal 0 0 1
    outer loop
      vertex 12.5784 22.7899 4
      vertex 13 22.75 4
      vertex 13 22.7633 4
    endloop
  endfacet
  facet normal 0 0 1
    outer loop
      vertex 13 22.75 4
      vertex 12.5784 22.7899 4
      vertex 13 7.25 4
    endloop
  endfacet
  facet normal 0 0 1
    outer loop
      vertex 12.5784 7.21015 4
      vertex 13 7.25 4
      vertex 12.5784 22.7899 4
    endloop
  endfacet
  facet normal 0 0 1
    outer loop
      vertex 13 7.25 4
      vertex 12.5784 7.21015 4
      vertex 13 7.23667 4
    endloop
  endfacet
  facet normal 0 0 1
    outer loop
      vertex 12.042 22.9641 4
      vertex 12.5784 7.21015 4
      vertex 12.5784 22.7899 4
    endloop
  endfacet
  facet normal 0 0 1
    outer loop
      vertex 12.042 22.9641 4
      vertex 12.042 7.03586 4
      vertex 12.5784 7.21015 4
    endloop
  endfacet
  facet normal 0 0 1
    outer loop
      vertex 11.5658 23.2663 4
      vertex 12.042 7.03586 4
      vertex 12.042 22.9641 4
    endloop
  endfacet
  facet normal 0 0 1
    outer loop
      vertex 11.5658 23.2663 4
      vertex 11.5658 6.73365 4
      vertex 12.042 7.03586 4
    endloop
  endfacet
  facet normal 0 0 1
    outer loop
      vertex 11.1797 23.6775 4
      vertex 11.5658 6.73365 4
      vertex 11.5658 23.2663 4
    endloop
  endfacet
  facet normal 0 0 1
    outer loop
      vertex 11.1797 23.6775 4
      vertex 11.1797 6.32252 4
      vertex 11.5658 6.73365 4
    endloop
  endfacet
  facet normal 0 0 1
    outer loop
      vertex 10.908 24.1717 4
      vertex 11.1797 6.32252 4
      vertex 11.1797 23.6775 4
    endloop
  endfacet
  facet normal 0 0 1
    outer loop
      vertex 10.908 24.1717 4
      vertex 10.908 5.82828 4
      vertex 11.1797 6.32252 4
    endloop
  endfacet
  facet normal 0 0 1
    outer loop
      vertex 8 30 4
      vertex 10.908 24.1717 4
      vertex 10.7677 24.718 4
    endloop
  endfacet
  facet normal 0 0 1
    outer loop
      vertex 10.908 24.1717 4
      vertex 8 30 4
      vertex 10.908 5.82828 4
    endloop
  endfacet
  facet normal -0 0 1
    outer loop
      vertex 13 22.75 4
      vertex 40 7.25 4
      vertex 40 22.75 4
    endloop
  endfacet
  facet normal 0 0 1
    outer loop
      vertex 40 7.25 4
      vertex 13 22.75 4
      vertex 13 7.25 4
    endloop
  endfacet
  facet normal -0 0 1
    outer loop
      vertex 42.1793 5.55955 4
      vertex 45 0 4
      vertex 42.1793 24.4404 4
    endloop
  endfacet
  facet normal 0 0 1
    outer loop
      vertex 45 0 4
      vertex 42.1793 5.55955 4
      vertex 42.25 5 4
    endloop
  endfacet
  facet normal -0 0 1
    outer loop
      vertex 41.9717 23.9161 4
      vertex 42.1793 5.55955 4
      vertex 42.1793 24.4404 4
    endloop
  endfacet
  facet normal 0 0 1
    outer loop
      vertex 41.9717 23.9161 4
      vertex 41.9717 6.08395 4
      vertex 42.1793 5.55955 4
    endloop
  endfacet
  facet normal -0 0 1
    outer loop
      vertex 41.6402 23.4598 4
      vertex 41.9717 6.08395 4
      vertex 41.9717 23.9161 4
    endloop
  endfacet
  facet normal 0 0 1
    outer loop
      vertex 41.6402 23.4598 4
      vertex 41.6402 6.54023 4
      vertex 41.9717 6.08395 4
    endloop
  endfacet
  facet normal -0 0 1
    outer loop
      vertex 41.2056 23.1003 4
      vertex 41.6402 6.54023 4
      vertex 41.6402 23.4598 4
    endloop
  endfacet
  facet normal 0 0 1
    outer loop
      vertex 41.2056 23.1003 4
      vertex 41.2056 6.89974 4
      vertex 41.6402 6.54023 4
    endloop
  endfacet
  facet normal -0 0 1
    outer loop
      vertex 40.6953 22.8601 4
      vertex 41.2056 6.89974 4
      vertex 41.2056 23.1003 4
    endloop
  endfacet
  facet normal 0 0 1
    outer loop
      vertex 40.6953 22.8601 4
      vertex 40.6953 7.13988 4
      vertex 41.2056 6.89974 4
    endloop
  endfacet
  facet normal -0 0 1
    outer loop
      vertex 40.1413 22.7544 4
      vertex 40.6953 7.13988 4
      vertex 40.6953 22.8601 4
    endloop
  endfacet
  facet normal 0 0 1
    outer loop
      vertex 40.1413 22.7544 4
      vertex 40.1413 7.24556 4
      vertex 40.6953 7.13988 4
    endloop
  endfacet
  facet normal 0 0 1
    outer loop
      vertex 40 22.75 4
      vertex 40.1413 22.7544 4
      vertex 40 22.7633 4
    endloop
  endfacet
  facet normal 0 0 1
    outer loop
      vertex 40.1413 22.7544 4
      vertex 40 22.75 4
      vertex 40.1413 7.24556 4
    endloop
  endfacet
  facet normal -0 0 1
    outer loop
      vertex 40 7.25 4
      vertex 40.1413 7.24556 4
      vertex 40 22.75 4
    endloop
  endfacet
  facet normal 0 0 1
    outer loop
      vertex 40.1413 7.24556 4
      vertex 40 7.25 4
      vertex 40 7.23667 4
    endloop
  endfacet
  facet normal 0 0 1
    outer loop
      vertex 42.1793 24.4404 4
      vertex 45 30 4
      vertex 42.25 25 4
    endloop
  endfacet
  facet normal 0 0 1
    outer loop
      vertex 45 30 4
      vertex 42.1793 25.5596 4
      vertex 42.25 25 4
    endloop
  endfacet
  facet normal 0 0 1
    outer loop
      vertex 45 30 4
      vertex 41.9717 26.0839 4
      vertex 42.1793 25.5596 4
    endloop
  endfacet
  facet normal 0 0 1
    outer loop
      vertex 45 30 4
      vertex 41.6402 26.5402 4
      vertex 41.9717 26.0839 4
    endloop
  endfacet
  facet normal 0 0 1
    outer loop
      vertex 45 30 4
      vertex 41.2056 26.8997 4
      vertex 41.6402 26.5402 4
    endloop
  endfacet
  facet normal 0 0 1
    outer loop
      vertex 45 30 4
      vertex 40.6953 27.1399 4
      vertex 41.2056 26.8997 4
    endloop
  endfacet
  facet normal 0 0 1
    outer loop
      vertex 45 30 4
      vertex 40.1413 27.2456 4
      vertex 40.6953 27.1399 4
    endloop
  endfacet
  facet normal 0 0 1
    outer loop
      vertex 45 30 4
      vertex 40 27.25 4
      vertex 40.1413 27.2456 4
    endloop
  endfacet
  facet normal 0 0 1
    outer loop
      vertex 45 30 4
      vertex 13 27.25 4
      vertex 40 27.25 4
    endloop
  endfacet
  facet normal 0 0 1
    outer loop
      vertex 13 27.25 4
      vertex 12.5784 27.2101 4
      vertex 13 27.2367 4
    endloop
  endfacet
  facet normal 0 0 1
    outer loop
      vertex 8 30 4
      vertex 10.7677 24.718 4
      vertex 10.7677 25.282 4
    endloop
  endfacet
  facet normal 0 0 1
    outer loop
      vertex 8 0 4
      vertex 10.908 5.82828 4
      vertex 8 30 4
    endloop
  endfacet
  facet normal 0 0 1
    outer loop
      vertex 10.908 5.82828 4
      vertex 8 0 4
      vertex 10.7677 5.282 4
    endloop
  endfacet
  facet normal 0 0 1
    outer loop
      vertex 10.908 25.8283 4
      vertex 8 30 4
      vertex 10.7677 25.282 4
    endloop
  endfacet
  facet normal 0 0 1
    outer loop
      vertex 11.1797 26.3225 4
      vertex 8 30 4
      vertex 10.908 25.8283 4
    endloop
  endfacet
  facet normal 0 0 1
    outer loop
      vertex 11.5658 26.7337 4
      vertex 8 30 4
      vertex 11.1797 26.3225 4
    endloop
  endfacet
  facet normal 0 0 1
    outer loop
      vertex 12.042 27.0359 4
      vertex 8 30 4
      vertex 11.5658 26.7337 4
    endloop
  endfacet
  facet normal 0 0 1
    outer loop
      vertex 12.5784 27.2101 4
      vertex 8 30 4
      vertex 12.042 27.0359 4
    endloop
  endfacet
  facet normal 0 0 1
    outer loop
      vertex 13 27.25 4
      vertex 8 30 4
      vertex 12.5784 27.2101 4
    endloop
  endfacet
  facet normal -0 0 1
    outer loop
      vertex 8 30 4
      vertex 13 27.25 4
      vertex 45 30 4
    endloop
  endfacet
  facet normal 0 0 1
    outer loop
      vertex 45 30 4
      vertex 42.1793 24.4404 4
      vertex 45 0 4
    endloop
  endfacet
  facet normal -0 0 1
    outer loop
      vertex 42.1793 4.44045 4
      vertex 45 0 4
      vertex 42.25 5 4
    endloop
  endfacet
  facet normal -0 0 1
    outer loop
      vertex 41.9717 3.91605 4
      vertex 45 0 4
      vertex 42.1793 4.44045 4
    endloop
  endfacet
  facet normal -0 0 1
    outer loop
      vertex 41.6402 3.45977 4
      vertex 45 0 4
      vertex 41.9717 3.91605 4
    endloop
  endfacet
  facet normal -0 0 1
    outer loop
      vertex 41.2056 3.10026 4
      vertex 45 0 4
      vertex 41.6402 3.45977 4
    endloop
  endfacet
  facet normal -0 0 1
    outer loop
      vertex 40.6953 2.86012 4
      vertex 45 0 4
      vertex 41.2056 3.10026 4
    endloop
  endfacet
  facet normal -0 0 1
    outer loop
      vertex 40.1413 2.75444 4
      vertex 45 0 4
      vertex 40.6953 2.86012 4
    endloop
  endfacet
  facet normal 0 0 1
    outer loop
      vertex 40 2.75 4
      vertex 40.1413 2.75444 4
      vertex 40 2.76333 4
    endloop
  endfacet
  facet normal 0 0 1
    outer loop
      vertex 40.1413 2.75444 4
      vertex 40 2.75 4
      vertex 45 0 4
    endloop
  endfacet
  facet normal -0 0 1
    outer loop
      vertex 13 2.75 4
      vertex 45 0 4
      vertex 40 2.75 4
    endloop
  endfacet
  facet normal 0 0 1
    outer loop
      vertex 13 2.75 4
      vertex 8 0 4
      vertex 45 0 4
    endloop
  endfacet
  facet normal 0 0 1
    outer loop
      vertex 12.5784 2.78985 4
      vertex 8 0 4
      vertex 13 2.75 4
    endloop
  endfacet
  facet normal 0 0 1
    outer loop
      vertex 12.042 2.96414 4
      vertex 8 0 4
      vertex 12.5784 2.78985 4
    endloop
  endfacet
  facet normal 0 0 1
    outer loop
      vertex 11.5658 3.26635 4
      vertex 8 0 4
      vertex 12.042 2.96414 4
    endloop
  endfacet
  facet normal 0 0 1
    outer loop
      vertex 11.1797 3.67748 4
      vertex 8 0 4
      vertex 11.5658 3.26635 4
    endloop
  endfacet
  facet normal 0 0 1
    outer loop
      vertex 10.908 4.17172 4
      vertex 8 0 4
      vertex 11.1797 3.67748 4
    endloop
  endfacet
  facet normal 0 0 1
    outer loop
      vertex 10.7677 4.718 4
      vertex 8 0 4
      vertex 10.908 4.17172 4
    endloop
  endfacet
  facet normal 0 0 1
    outer loop
      vertex 10.7677 5.282 4
      vertex 8 0 4
      vertex 10.7677 4.718 4
    endloop
  endfacet
  facet normal 0 0 1
    outer loop
      vertex 40.1413 27.2456 4
      vertex 40 27.25 4
      vertex 40 27.2367 4
    endloop
  endfacet
  facet normal -0 0 -1
    outer loop
      vertex 13 27.2367 0
      vertex 12.5784 27.2101 0
      vertex 13 27.25 0
    endloop
  endfacet
  facet normal 0 0 -1
    outer loop
      vertex 12.5784 7.21015 0
      vertex 13 7.25 0
      vertex 13 7.23667 0
    endloop
  endfacet
  facet normal -0 0 -1
    outer loop
      vertex 13 7.25 0
      vertex 12.5784 7.21015 0
      vertex 13 22.75 0
    endloop
  endfacet
  facet normal 0 0 -1
    outer loop
      vertex 12.5784 22.7899 0
      vertex 13 22.75 0
      vertex 12.5784 7.21015 0
    endloop
  endfacet
  facet normal 0 0 -1
    outer loop
      vertex 13 22.75 0
      vertex 12.5784 22.7899 0
      vertex 13 22.7633 0
    endloop
  endfacet
  facet normal 0 0 -1
    outer loop
      vertex 12.042 7.03586 0
      vertex 12.5784 22.7899 0
      vertex 12.5784 7.21015 0
    endloop
  endfacet
  facet normal 0 0 -1
    outer loop
      vertex 12.042 7.03586 0
      vertex 12.042 22.9641 0
      vertex 12.5784 22.7899 0
    endloop
  endfacet
  facet normal 0 0 -1
    outer loop
      vertex 11.5658 6.73365 0
      vertex 12.042 22.9641 0
      vertex 12.042 7.03586 0
    endloop
  endfacet
  facet normal 0 0 -1
    outer loop
      vertex 11.5658 6.73365 0
      vertex 11.5658 23.2663 0
      vertex 12.042 22.9641 0
    endloop
  endfacet
  facet normal 0 0 -1
    outer loop
      vertex 11.1797 6.32252 0
      vertex 11.5658 23.2663 0
      vertex 11.5658 6.73365 0
    endloop
  endfacet
  facet normal 0 0 -1
    outer loop
      vertex 11.1797 6.32252 0
      vertex 11.1797 23.6775 0
      vertex 11.5658 23.2663 0
    endloop
  endfacet
  facet normal 0 0 -1
    outer loop
      vertex 0 0 0
      vertex 11.1797 6.32252 0
      vertex 10.908 5.82828 0
    endloop
  endfacet
  facet normal -0 0 -1
    outer loop
      vertex 11.1797 6.32252 0
      vertex 0 0 0
      vertex 11.1797 23.6775 0
    endloop
  endfacet
  facet normal 0 0 -1
    outer loop
      vertex 0 0 0
      vertex 10.908 5.82828 0
      vertex 10.7677 5.282 0
    endloop
  endfacet
  facet normal 0 0 -1
    outer loop
      vertex 0 30 0
      vertex 11.1797 23.6775 0
      vertex 0 0 0
    endloop
  endfacet
  facet normal 0 0 -1
    outer loop
      vertex 13 7.25 0
      vertex 40 22.75 0
      vertex 40 7.25 0
    endloop
  endfacet
  facet normal -0 0 -1
    outer loop
      vertex 40 22.75 0
      vertex 13 7.25 0
      vertex 13 22.75 0
    endloop
  endfacet
  facet normal 0 0 -1
    outer loop
      vertex 42.1793 24.4404 0
      vertex 45 30 0
      vertex 42.1793 5.55955 0
    endloop
  endfacet
  facet normal 0 0 -1
    outer loop
      vertex 45 30 0
      vertex 42.1793 24.4404 0
      vertex 42.25 25 0
    endloop
  endfacet
  facet normal 0 0 -1
    outer loop
      vertex 41.9717 6.08395 0
      vertex 42.1793 24.4404 0
      vertex 42.1793 5.55955 0
    endloop
  endfacet
  facet normal 0 0 -1
    outer loop
      vertex 41.9717 6.08395 0
      vertex 41.9717 23.9161 0
      vertex 42.1793 24.4404 0
    endloop
  endfacet
  facet normal 0 0 -1
    outer loop
      vertex 41.6402 6.54023 0
      vertex 41.9717 23.9161 0
      vertex 41.9717 6.08395 0
    endloop
  endfacet
  facet normal 0 0 -1
    outer loop
      vertex 41.6402 6.54023 0
      vertex 41.6402 23.4598 0
      vertex 41.9717 23.9161 0
    endloop
  endfacet
  facet normal 0 0 -1
    outer loop
      vertex 41.2056 6.89974 0
      vertex 41.6402 23.4598 0
      vertex 41.6402 6.54023 0
    endloop
  endfacet
  facet normal 0 0 -1
    outer loop
      vertex 41.2056 6.89974 0
      vertex 41.2056 23.1003 0
      vertex 41.6402 23.4598 0
    endloop
  endfacet
  facet normal 0 0 -1
    outer loop
      vertex 40.6953 7.13988 0
      vertex 41.2056 23.1003 0
      vertex 41.2056 6.89974 0
    endloop
  endfacet
  facet normal 0 0 -1
    outer loop
      vertex 40.6953 7.13988 0
      vertex 40.6953 22.8601 0
      vertex 41.2056 23.1003 0
    endloop
  endfacet
  facet normal 0 0 -1
    outer loop
      vertex 40.1413 7.24556 0
      vertex 40.6953 22.8601 0
      vertex 40.6953 7.13988 0
    endloop
  endfacet
  facet normal 0 0 -1
    outer loop
      vertex 40.1413 7.24556 0
      vertex 40.1413 22.7544 0
      vertex 40.6953 22.8601 0
    endloop
  endfacet
  facet normal 0 0 -1
    outer loop
      vertex 40 7.25 0
      vertex 40.1413 7.24556 0
      vertex 40 7.23667 0
    endloop
  endfacet
  facet normal 0 0 -1
    outer loop
      vertex 40.1413 7.24556 0
      vertex 40 7.25 0
      vertex 40.1413 22.7544 0
    endloop
  endfacet
  facet normal 0 0 -1
    outer loop
      vertex 40 22.75 0
      vertex 40.1413 22.7544 0
      vertex 40 7.25 0
    endloop
  endfacet
  facet normal -0 0 -1
    outer loop
      vertex 40.1413 22.7544 0
      vertex 40 22.75 0
      vertex 40 22.7633 0
    endloop
  endfacet
  facet normal 0 0 -1
    outer loop
      vertex 42.1793 5.55955 0
      vertex 45 0 0
      vertex 42.25 5 0
    endloop
  endfacet
  facet normal 0 0 -1
    outer loop
      vertex 45 0 0
      vertex 42.1793 4.44045 0
      vertex 42.25 5 0
    endloop
  endfacet
  facet normal 0 0 -1
    outer loop
      vertex 45 0 0
      vertex 41.9717 3.91605 0
      vertex 42.1793 4.44045 0
    endloop
  endfacet
  facet normal 0 0 -1
    outer loop
      vertex 45 0 0
      vertex 41.6402 3.45977 0
      vertex 41.9717 3.91605 0
    endloop
  endfacet
  facet normal 0 0 -1
    outer loop
      vertex 45 0 0
      vertex 41.2056 3.10026 0
      vertex 41.6402 3.45977 0
    endloop
  endfacet
  facet normal 0 0 -1
    outer loop
      vertex 45 0 0
      vertex 40.6953 2.86012 0
      vertex 41.2056 3.10026 0
    endloop
  endfacet
  facet normal 0 0 -1
    outer loop
      vertex 45 0 0
      vertex 40.1413 2.75444 0
      vertex 40.6953 2.86012 0
    endloop
  endfacet
  facet normal 0 0 -1
    outer loop
      vertex 45 0 0
      vertex 40 2.75 0
      vertex 40.1413 2.75444 0
    endloop
  endfacet
  facet normal 0 0 -1
    outer loop
      vertex 45 0 0
      vertex 13 2.75 0
      vertex 40 2.75 0
    endloop
  endfacet
  facet normal 0 0 -1
    outer loop
      vertex 13 2.75 0
      vertex 12.5784 2.78985 0
      vertex 13 2.76333 0
    endloop
  endfacet
  facet normal 0 0 -1
    outer loop
      vertex 0 0 0
      vertex 10.7677 5.282 0
      vertex 10.7677 4.718 0
    endloop
  endfacet
  facet normal 0 0 -1
    outer loop
      vertex 11.1797 23.6775 0
      vertex 0 30 0
      vertex 10.908 24.1717 0
    endloop
  endfacet
  facet normal 0 0 -1
    outer loop
      vertex 10.908 24.1717 0
      vertex 0 30 0
      vertex 10.7677 24.718 0
    endloop
  endfacet
  facet normal -0 0 -1
    outer loop
      vertex 10.908 4.17172 0
      vertex 0 0 0
      vertex 10.7677 4.718 0
    endloop
  endfacet
  facet normal -0 0 -1
    outer loop
      vertex 11.1797 3.67748 0
      vertex 0 0 0
      vertex 10.908 4.17172 0
    endloop
  endfacet
  facet normal -0 0 -1
    outer loop
      vertex 11.5658 3.26635 0
      vertex 0 0 0
      vertex 11.1797 3.67748 0
    endloop
  endfacet
  facet normal -0 0 -1
    outer loop
      vertex 12.042 2.96414 0
      vertex 0 0 0
      vertex 11.5658 3.26635 0
    endloop
  endfacet
  facet normal -0 0 -1
    outer loop
      vertex 12.5784 2.78985 0
      vertex 0 0 0
      vertex 12.042 2.96414 0
    endloop
  endfacet
  facet normal -0 0 -1
    outer loop
      vertex 13 2.75 0
      vertex 0 0 0
      vertex 12.5784 2.78985 0
    endloop
  endfacet
  facet normal 0 0 -1
    outer loop
      vertex 0 0 0
      vertex 13 2.75 0
      vertex 45 0 0
    endloop
  endfacet
  facet normal 0 0 -1
    outer loop
      vertex 45 0 0
      vertex 42.1793 5.55955 0
      vertex 45 30 0
    endloop
  endfacet
  facet normal 0 0 -1
    outer loop
      vertex 42.1793 25.5596 0
      vertex 45 30 0
      vertex 42.25 25 0
    endloop
  endfacet
  facet normal 0 0 -1
    outer loop
      vertex 41.9717 26.0839 0
      vertex 45 30 0
      vertex 42.1793 25.5596 0
    endloop
  endfacet
  facet normal 0 0 -1
    outer loop
      vertex 41.6402 26.5402 0
      vertex 45 30 0
      vertex 41.9717 26.0839 0
    endloop
  endfacet
  facet normal 0 0 -1
    outer loop
      vertex 41.2056 26.8997 0
      vertex 45 30 0
      vertex 41.6402 26.5402 0
    endloop
  endfacet
  facet normal 0 0 -1
    outer loop
      vertex 40.6953 27.1399 0
      vertex 45 30 0
      vertex 41.2056 26.8997 0
    endloop
  endfacet
  facet normal 0 0 -1
    outer loop
      vertex 40.1413 27.2456 0
      vertex 45 30 0
      vertex 40.6953 27.1399 0
    endloop
  endfacet
  facet normal 0 0 -1
    outer loop
      vertex 40 27.25 0
      vertex 40.1413 27.2456 0
      vertex 40 27.2367 0
    endloop
  endfacet
  facet normal 0 0 -1
    outer loop
      vertex 40.1413 27.2456 0
      vertex 40 27.25 0
      vertex 45 30 0
    endloop
  endfacet
  facet normal 0 0 -1
    outer loop
      vertex 13 27.25 0
      vertex 45 30 0
      vertex 40 27.25 0
    endloop
  endfacet
  facet normal 0 0 -1
    outer loop
      vertex 10.7677 24.718 0
      vertex 0 30 0
      vertex 10.7677 25.282 0
    endloop
  endfacet
  facet normal 0 0 -1
    outer loop
      vertex 13 27.25 0
      vertex 0 30 0
      vertex 45 30 0
    endloop
  endfacet
  facet normal 0 0 -1
    outer loop
      vertex 12.5784 27.2101 0
      vertex 0 30 0
      vertex 13 27.25 0
    endloop
  endfacet
  facet normal 0 0 -1
    outer loop
      vertex 12.042 27.0359 0
      vertex 0 30 0
      vertex 12.5784 27.2101 0
    endloop
  endfacet
  facet normal 0 0 -1
    outer loop
      vertex 11.5658 26.7337 0
      vertex 0 30 0
      vertex 12.042 27.0359 0
    endloop
  endfacet
  facet normal 0 0 -1
    outer loop
      vertex 11.1797 26.3225 0
      vertex 0 30 0
      vertex 11.5658 26.7337 0
    endloop
  endfacet
  facet normal 0 0 -1
    outer loop
      vertex 10.908 25.8283 0
      vertex 0 30 0
      vertex 11.1797 26.3225 0
    endloop
  endfacet
  facet normal 0 0 -1
    outer loop
      vertex 10.7677 25.282 0
      vertex 0 30 0
      vertex 10.908 25.8283 0
    endloop
  endfacet
  facet normal -0 0 -1
    outer loop
      vertex 40.1413 2.75444 0
      vertex 40 2.75 0
      vertex 40 2.76333 0
    endloop
  endfacet
  facet normal -1 0 0
    outer loop
      vertex 0 24.718 27.2323
      vertex 0 25 32
      vertex 0 25.282 27.2323
    endloop
  endfacet
  facet normal -1 0 0
    outer loop
      vertex 0 24.1717 27.092
      vertex 0 25 32
      vertex 0 24.718 27.2323
    endloop
  endfacet
  facet normal -1 0 0
    outer loop
      vertex 0 23.6775 26.8203
      vertex 0 25 32
      vertex 0 24.1717 27.092
    endloop
  endfacet
  facet normal -1 0 0
    outer loop
      vertex 0 23.2663 26.4342
      vertex 0 25 32
      vertex 0 23.6775 26.8203
    endloop
  endfacet
  facet normal -1 0 0
    outer loop
      vertex 0 6.73365 26.4342
      vertex 0 23.2663 26.4342
      vertex 0 22.9641 25.958
    endloop
  endfacet
  facet normal -1 0 0
    outer loop
      vertex 0 7.24556 24.8587
      vertex 0 22.7899 25.4216
      vertex 0 22.7544 24.8587
    endloop
  endfacet
  facet normal -1 0 0
    outer loop
      vertex 0 7.21015 25.4216
      vertex 0 22.7899 25.4216
      vertex 0 7.24556 24.8587
    endloop
  endfacet
  facet normal -1 0 0
    outer loop
      vertex 0 22.7899 25.4216
      vertex 0 7.21015 25.4216
      vertex 0 22.9641 25.958
    endloop
  endfacet
  facet normal -1 0 0
    outer loop
      vertex 0 7.03586 25.958
      vertex 0 22.9641 25.958
      vertex 0 7.21015 25.4216
    endloop
  endfacet
  facet normal -1 0 0
    outer loop
      vertex 0 6.73365 26.4342
      vertex 0 22.9641 25.958
      vertex 0 7.03586 25.958
    endloop
  endfacet
  facet normal -1 0 0
    outer loop
      vertex 0 23.2663 26.4342
      vertex 0 6.73365 26.4342
      vertex 0 25 32
    endloop
  endfacet
  facet normal -1 0 0
    outer loop
      vertex 0 5 32
      vertex 0 6.73365 26.4342
      vertex 0 6.32252 26.8203
    endloop
  endfacet
  facet normal -1 0 0
    outer loop
      vertex 0 5 32
      vertex 0 6.32252 26.8203
      vertex 0 5.82828 27.092
    endloop
  endfacet
  facet normal -1 0 0
    outer loop
      vertex 0 5 32
      vertex 0 5.82828 27.092
      vertex 0 5.282 27.2323
    endloop
  endfacet
  facet normal -1 0 0
    outer loop
      vertex 0 6.73365 26.4342
      vertex 0 5 32
      vertex 0 25 32
    endloop
  endfacet
  facet normal -1 0 0
    outer loop
      vertex 0 4.17172 27.092
      vertex 0 5 32
      vertex 0 4.718 27.2323
    endloop
  endfacet
  facet normal -1 0 0
    outer loop
      vertex 0 4.718 27.2323
      vertex 0 5 32
      vertex 0 5.282 27.2323
    endloop
  endfacet
  facet normal -1 0 0
    outer loop
      vertex 0 30 0
      vertex 0 27.2456 24.8587
      vertex 0 30 45
    endloop
  endfacet
  facet normal -1 0 0
    outer loop
      vertex 0 30 0
      vertex 0 27.1399 24.3047
      vertex 0 27.2456 24.8587
    endloop
  endfacet
  facet normal -1 0 0
    outer loop
      vertex 0 30 0
      vertex 0 26.8997 23.7944
      vertex 0 27.1399 24.3047
    endloop
  endfacet
  facet normal -1 0 0
    outer loop
      vertex 0 30 0
      vertex 0 26.5402 23.3598
      vertex 0 26.8997 23.7944
    endloop
  endfacet
  facet normal -1 0 0
    outer loop
      vertex 0 30 0
      vertex 0 26.0839 23.0283
      vertex 0 26.5402 23.3598
    endloop
  endfacet
  facet normal -1 0 0
    outer loop
      vertex 0 30 0
      vertex 0 25.5596 22.8207
      vertex 0 26.0839 23.0283
    endloop
  endfacet
  facet normal -1 0 0
    outer loop
      vertex 0 30 0
      vertex 0 25 22.75
      vertex 0 25.5596 22.8207
    endloop
  endfacet
  facet normal -1 0 0
    outer loop
      vertex 0 30 0
      vertex 0 24.4404 22.8207
      vertex 0 25 22.75
    endloop
  endfacet
  facet normal -1 0 0
    outer loop
      vertex 0 30 0
      vertex 0 23.9161 23.0283
      vertex 0 24.4404 22.8207
    endloop
  endfacet
  facet normal -1 0 0
    outer loop
      vertex 0 6.08395 23.0283
      vertex 0 23.9161 23.0283
      vertex 0 30 0
    endloop
  endfacet
  facet normal -1 0 0
    outer loop
      vertex 0 23.9161 23.0283
      vertex 0 6.08395 23.0283
      vertex 0 23.4598 23.3598
    endloop
  endfacet
  facet normal -1 0 -0
    outer loop
      vertex 0 6.54023 23.3598
      vertex 0 23.4598 23.3598
      vertex 0 6.08395 23.0283
    endloop
  endfacet
  facet normal -1 0 0
    outer loop
      vertex 0 22.8601 24.3047
      vertex 0 7.24556 24.8587
      vertex 0 22.7544 24.8587
    endloop
  endfacet
  facet normal -1 0 0
    outer loop
      vertex 0 23.4598 23.3598
      vertex 0 6.54023 23.3598
      vertex 0 23.1003 23.7944
    endloop
  endfacet
  facet normal -1 0 0
    outer loop
      vertex 0 22.8601 24.3047
      vertex 0 7.13988 24.3047
      vertex 0 7.24556 24.8587
    endloop
  endfacet
  facet normal -1 -0 0
    outer loop
      vertex 0 22.8601 24.3047
      vertex 0 6.89974 23.7944
      vertex 0 7.13988 24.3047
    endloop
  endfacet
  facet normal -1 0 0
    outer loop
      vertex 0 23.1003 23.7944
      vertex 0 6.89974 23.7944
      vertex 0 22.8601 24.3047
    endloop
  endfacet
  facet normal -1 0 -0
    outer loop
      vertex 0 6.89974 23.7944
      vertex 0 23.1003 23.7944
      vertex 0 6.54023 23.3598
    endloop
  endfacet
  facet normal -1 0 0
    outer loop
      vertex 0 0 0
      vertex 0 6.08395 23.0283
      vertex 0 30 0
    endloop
  endfacet
  facet normal -1 0 0
    outer loop
      vertex 0 6.08395 23.0283
      vertex 0 0 0
      vertex 0 5.55955 22.8207
    endloop
  endfacet
  facet normal -1 0 0
    outer loop
      vertex 0 5.55955 22.8207
      vertex 0 0 0
      vertex 0 5 22.75
    endloop
  endfacet
  facet normal -1 -0 0
    outer loop
      vertex 0 5 22.75
      vertex 0 0 0
      vertex 0 4.44045 22.8207
    endloop
  endfacet
  facet normal -1 -0 0
    outer loop
      vertex 0 4.44045 22.8207
      vertex 0 0 0
      vertex 0 3.91605 23.0283
    endloop
  endfacet
  facet normal -1 -0 0
    outer loop
      vertex 0 2.86012 24.3047
      vertex 0 0 0
      vertex 0 2.75444 24.8587
    endloop
  endfacet
  facet normal -1 -0 0
    outer loop
      vertex 0 3.10026 23.7944
      vertex 0 0 0
      vertex 0 2.86012 24.3047
    endloop
  endfacet
  facet normal -1 -0 0
    outer loop
      vertex 0 3.45977 23.3598
      vertex 0 0 0
      vertex 0 3.10026 23.7944
    endloop
  endfacet
  facet normal -1 -0 0
    outer loop
      vertex 0 3.91605 23.0283
      vertex 0 0 0
      vertex 0 3.45977 23.3598
    endloop
  endfacet
  facet normal -1 0 0
    outer loop
      vertex 0 27.2101 25.4216
      vertex 0 30 45
      vertex 0 27.2456 24.8587
    endloop
  endfacet
  facet normal -1 0 0
    outer loop
      vertex 0 27.0359 25.958
      vertex 0 30 45
      vertex 0 27.2101 25.4216
    endloop
  endfacet
  facet normal -1 0 0
    outer loop
      vertex 0 25 32
      vertex 0 27.0359 25.958
      vertex 0 26.7337 26.4342
    endloop
  endfacet
  facet normal -1 0 0
    outer loop
      vertex 0 25 32
      vertex 0 26.7337 26.4342
      vertex 0 26.3225 26.8203
    endloop
  endfacet
  facet normal -1 0 0
    outer loop
      vertex 0 25 32
      vertex 0 26.3225 26.8203
      vertex 0 25.8283 27.092
    endloop
  endfacet
  facet normal -1 0 0
    outer loop
      vertex 0 25 32
      vertex 0 25.8283 27.092
      vertex 0 25.282 27.2323
    endloop
  endfacet
  facet normal -1 0 0
    outer loop
      vertex 0 27.0359 25.958
      vertex 0 25 32
      vertex 0 30 45
    endloop
  endfacet
  facet normal -1 0 0
    outer loop
      vertex 0 25 40
      vertex 0 30 45
      vertex 0 25 32
    endloop
  endfacet
  facet normal -1 0 0
    outer loop
      vertex 0 5 40
      vertex 0 30 45
      vertex 0 25 40
    endloop
  endfacet
  facet normal -1 0 0
    outer loop
      vertex 0 3.67748 26.8203
      vertex 0 5 32
      vertex 0 4.17172 27.092
    endloop
  endfacet
  facet normal -1 0 0
    outer loop
      vertex 0 3.26635 26.4342
      vertex 0 5 32
      vertex 0 3.67748 26.8203
    endloop
  endfacet
  facet normal -1 0 0
    outer loop
      vertex 0 2.96414 25.958
      vertex 0 5 32
      vertex 0 3.26635 26.4342
    endloop
  endfacet
  facet normal -1 -0 0
    outer loop
      vertex 0 5 32
      vertex 0 2.96414 25.958
      vertex 0 0 45
    endloop
  endfacet
  facet normal -1 0 0
    outer loop
      vertex 0 0 45
      vertex 0 2.96414 25.958
      vertex 0 2.78985 25.4216
    endloop
  endfacet
  facet normal -1 0 0
    outer loop
      vertex 0 0 45
      vertex 0 2.75444 24.8587
      vertex 0 0 0
    endloop
  endfacet
  facet normal -1 0 0
    outer loop
      vertex 0 5 40
      vertex 0 0 45
      vertex 0 30 45
    endloop
  endfacet
  facet normal -1 0 0
    outer loop
      vertex 0 5 32
      vertex 0 0 45
      vertex 0 5 40
    endloop
  endfacet
  facet normal -1 0 0
    outer loop
      vertex 0 2.75444 24.8587
      vertex 0 0 45
      vertex 0 2.78985 25.4216
    endloop
  endfacet
  facet normal 0 1 0
    outer loop
      vertex 45 30 4
      vertex 45 30 0
      vertex 8 30 4
    endloop
  endfacet
  facet normal 0 1 -0
    outer loop
      vertex 8 30 4
      vertex 0 30 45
      vertex 8 30 45
    endloop
  endfacet
  facet normal 0 1 0
    outer loop
      vertex 8 30 4
      vertex 0 30 0
      vertex 0 30 45
    endloop
  endfacet
  facet normal 0 1 0
    outer loop
      vertex 0 30 0
      vertex 8 30 4
      vertex 45 30 0
    endloop
  endfacet
  facet normal 0 -1 0
    outer loop
      vertex 0 0 45
      vertex 8 0 4
      vertex 8 0 45
    endloop
  endfacet
  facet normal 0 -1 0
    outer loop
      vertex 0 0 0
      vertex 8 0 4
      vertex 0 0 45
    endloop
  endfacet
  facet normal 0 -1 0
    outer loop
      vertex 45 0 0
      vertex 8 0 4
      vertex 0 0 0
    endloop
  endfacet
  facet normal 0 -1 0
    outer loop
      vertex 8 0 4
      vertex 45 0 0
      vertex 45 0 4
    endloop
  endfacet
  facet normal 1 0 0
    outer loop
      vertex 8 30 45
      vertex 8 27.2456 24.8587
      vertex 8 30 4
    endloop
  endfacet
  facet normal 1 0 0
    outer loop
      vertex 8 30 45
      vertex 8 27.2101 25.4216
      vertex 8 27.2456 24.8587
    endloop
  endfacet
  facet normal 1 0 0
    outer loop
      vertex 8 30 45
      vertex 8 27.0359 25.958
      vertex 8 27.2101 25.4216
    endloop
  endfacet
  facet normal 1 -0 0
    outer loop
      vertex 8 25 32
      vertex 8 27.0359 25.958
      vertex 8 30 45
    endloop
  endfacet
  facet normal 1 0 0
    outer loop
      vertex 8 27.0359 25.958
      vertex 8 25 32
      vertex 8 26.7337 26.4342
    endloop
  endfacet
  facet normal 1 0 0
    outer loop
      vertex 8 26.7337 26.4342
      vertex 8 25 32
      vertex 8 26.3225 26.8203
    endloop
  endfacet
  facet normal 1 0 0
    outer loop
      vertex 8 26.3225 26.8203
      vertex 8 25 32
      vertex 8 25.8283 27.092
    endloop
  endfacet
  facet normal 1 0 0
    outer loop
      vertex 8 25 32
      vertex 8 30 45
      vertex 8 25 40
    endloop
  endfacet
  facet normal 1 0 0
    outer loop
      vertex 8 30 45
      vertex 8 5 40
      vertex 8 25 40
    endloop
  endfacet
  facet normal 1 0 0
    outer loop
      vertex 8 0 45
      vertex 8 5 32
      vertex 8 5 40
    endloop
  endfacet
  facet normal 1 0 0
    outer loop
      vertex 8 5 32
      vertex 8 4.17172 27.092
      vertex 8 4.718 27.2323
    endloop
  endfacet
  facet normal 1 0 0
    outer loop
      vertex 8 5 32
      vertex 8 3.67748 26.8203
      vertex 8 4.17172 27.092
    endloop
  endfacet
  facet normal 1 0 0
    outer loop
      vertex 8 5 32
      vertex 8 3.26635 26.4342
      vertex 8 3.67748 26.8203
    endloop
  endfacet
  facet normal 1 0 -0
    outer loop
      vertex 8 2.96414 25.958
      vertex 8 5 32
      vertex 8 0 45
    endloop
  endfacet
  facet normal 1 0 0
    outer loop
      vertex 8 5 32
      vertex 8 2.96414 25.958
      vertex 8 3.26635 26.4342
    endloop
  endfacet
  facet normal 1 0 0
    outer loop
      vertex 8 2.78985 25.4216
      vertex 8 0 45
      vertex 8 2.75444 24.8587
    endloop
  endfacet
  facet normal 1 0 0
    outer loop
      vertex 8 2.96414 25.958
      vertex 8 0 45
      vertex 8 2.78985 25.4216
    endloop
  endfacet
  facet normal 1 -0 0
    outer loop
      vertex 8 0 45
      vertex 8 5 40
      vertex 8 30 45
    endloop
  endfacet
  facet normal 1 -0 0
    outer loop
      vertex 8 27.1399 24.3047
      vertex 8 30 4
      vertex 8 27.2456 24.8587
    endloop
  endfacet
  facet normal 1 -0 0
    outer loop
      vertex 8 26.8997 23.7944
      vertex 8 30 4
      vertex 8 27.1399 24.3047
    endloop
  endfacet
  facet normal 1 -0 0
    outer loop
      vertex 8 26.5402 23.3598
      vertex 8 30 4
      vertex 8 26.8997 23.7944
    endloop
  endfacet
  facet normal 1 -0 0
    outer loop
      vertex 8 26.0839 23.0283
      vertex 8 30 4
      vertex 8 26.5402 23.3598
    endloop
  endfacet
  facet normal 1 -0 0
    outer loop
      vertex 8 25.5596 22.8207
      vertex 8 30 4
      vertex 8 26.0839 23.0283
    endloop
  endfacet
  facet normal 1 -0 0
    outer loop
      vertex 8 25 22.75
      vertex 8 30 4
      vertex 8 25.5596 22.8207
    endloop
  endfacet
  facet normal 1 0 0
    outer loop
      vertex 8 24.4404 22.8207
      vertex 8 30 4
      vertex 8 25 22.75
    endloop
  endfacet
  facet normal 1 0 0
    outer loop
      vertex 8 23.9161 23.0283
      vertex 8 30 4
      vertex 8 24.4404 22.8207
    endloop
  endfacet
  facet normal 1 0 0
    outer loop
      vertex 8 6.08395 23.0283
      vertex 8 23.9161 23.0283
      vertex 8 23.4598 23.3598
    endloop
  endfacet
  facet normal 1 0 0
    outer loop
      vertex 8 6.54023 23.3598
      vertex 8 23.4598 23.3598
      vertex 8 23.1003 23.7944
    endloop
  endfacet
  facet normal 1 0 0
    outer loop
      vertex 8 6.89974 23.7944
      vertex 8 23.1003 23.7944
      vertex 8 22.8601 24.3047
    endloop
  endfacet
  facet normal 1 -0 0
    outer loop
      vertex 8 7.24556 24.8587
      vertex 8 22.8601 24.3047
      vertex 8 22.7544 24.8587
    endloop
  endfacet
  facet normal 1 0 0
    outer loop
      vertex 8 7.13988 24.3047
      vertex 8 22.8601 24.3047
      vertex 8 7.24556 24.8587
    endloop
  endfacet
  facet normal 1 0 0
    outer loop
      vertex 8 6.89974 23.7944
      vertex 8 22.8601 24.3047
      vertex 8 7.13988 24.3047
    endloop
  endfacet
  facet normal 1 0 0
    outer loop
      vertex 8 23.1003 23.7944
      vertex 8 6.89974 23.7944
      vertex 8 6.54023 23.3598
    endloop
  endfacet
  facet normal 1 0 0
    outer loop
      vertex 8 23.4598 23.3598
      vertex 8 6.54023 23.3598
      vertex 8 6.08395 23.0283
    endloop
  endfacet
  facet normal 1 0 0
    outer loop
      vertex 8 23.9161 23.0283
      vertex 8 6.08395 23.0283
      vertex 8 30 4
    endloop
  endfacet
  facet normal 1 0 0
    outer loop
      vertex 8 0 4
      vertex 8 6.08395 23.0283
      vertex 8 5.55955 22.8207
    endloop
  endfacet
  facet normal 1 0 0
    outer loop
      vertex 8 0 4
      vertex 8 5.55955 22.8207
      vertex 8 5 22.75
    endloop
  endfacet
  facet normal 1 0 0
    outer loop
      vertex 8 0 4
      vertex 8 5 22.75
      vertex 8 4.44045 22.8207
    endloop
  endfacet
  facet normal 1 0 0
    outer loop
      vertex 8 0 4
      vertex 8 4.44045 22.8207
      vertex 8 3.91605 23.0283
    endloop
  endfacet
  facet normal 1 0 0
    outer loop
      vertex 8 0 4
      vertex 8 3.91605 23.0283
      vertex 8 3.45977 23.3598
    endloop
  endfacet
  facet normal 1 0 0
    outer loop
      vertex 8 6.08395 23.0283
      vertex 8 0 4
      vertex 8 30 4
    endloop
  endfacet
  facet normal 1 0 0
    outer loop
      vertex 8 3.10026 23.7944
      vertex 8 0 4
      vertex 8 3.45977 23.3598
    endloop
  endfacet
  facet normal 1 0 0
    outer loop
      vertex 8 2.86012 24.3047
      vertex 8 0 4
      vertex 8 3.10026 23.7944
    endloop
  endfacet
  facet normal 1 0 0
    outer loop
      vertex 8 2.75444 24.8587
      vertex 8 0 4
      vertex 8 2.86012 24.3047
    endloop
  endfacet
  facet normal 1 0 0
    outer loop
      vertex 8 0 4
      vertex 8 2.75444 24.8587
      vertex 8 0 45
    endloop
  endfacet
  facet normal 1 0 0
    outer loop
      vertex 8 25.8283 27.092
      vertex 8 25 32
      vertex 8 25.282 27.2323
    endloop
  endfacet
  facet normal 1 0 0
    outer loop
      vertex 8 25 32
      vertex 8 24.718 27.2323
      vertex 8 25.282 27.2323
    endloop
  endfacet
  facet normal 1 0 0
    outer loop
      vertex 8 25 32
      vertex 8 24.1717 27.092
      vertex 8 24.718 27.2323
    endloop
  endfacet
  facet normal 1 0 0
    outer loop
      vertex 8 25 32
      vertex 8 23.6775 26.8203
      vertex 8 24.1717 27.092
    endloop
  endfacet
  facet normal 1 0 0
    outer loop
      vertex 8 25 32
      vertex 8 23.2663 26.4342
      vertex 8 23.6775 26.8203
    endloop
  endfacet
  facet normal 1 0 0
    outer loop
      vertex 8 6.73365 26.4342
      vertex 8 23.2663 26.4342
      vertex 8 25 32
    endloop
  endfacet
  facet normal 1 0 0
    outer loop
      vertex 8 22.7899 25.4216
      vertex 8 7.24556 24.8587
      vertex 8 22.7544 24.8587
    endloop
  endfacet
  facet normal 1 0 0
    outer loop
      vertex 8 7.21015 25.4216
      vertex 8 22.7899 25.4216
      vertex 8 22.9641 25.958
    endloop
  endfacet
  facet normal 1 0 0
    outer loop
      vertex 8 23.2663 26.4342
      vertex 8 6.73365 26.4342
      vertex 8 22.9641 25.958
    endloop
  endfacet
  facet normal 1 0 0
    outer loop
      vertex 8 22.7899 25.4216
      vertex 8 7.21015 25.4216
      vertex 8 7.24556 24.8587
    endloop
  endfacet
  facet normal 1 0 0
    outer loop
      vertex 8 22.9641 25.958
      vertex 8 7.03586 25.958
      vertex 8 7.21015 25.4216
    endloop
  endfacet
  facet normal 1 0 0
    outer loop
      vertex 8 22.9641 25.958
      vertex 8 6.73365 26.4342
      vertex 8 7.03586 25.958
    endloop
  endfacet
  facet normal 1 -0 0
    outer loop
      vertex 8 5 32
      vertex 8 6.73365 26.4342
      vertex 8 25 32
    endloop
  endfacet
  facet normal 1 0 0
    outer loop
      vertex 8 6.73365 26.4342
      vertex 8 5 32
      vertex 8 6.32252 26.8203
    endloop
  endfacet
  facet normal 1 0 0
    outer loop
      vertex 8 6.32252 26.8203
      vertex 8 5 32
      vertex 8 5.82828 27.092
    endloop
  endfacet
  facet normal 1 0 0
    outer loop
      vertex 8 5.82828 27.092
      vertex 8 5 32
      vertex 8 5.282 27.2323
    endloop
  endfacet
  facet normal 1 0 0
    outer loop
      vertex 8 5.282 27.2323
      vertex 8 5 32
      vertex 8 4.718 27.2323
    endloop
  endfacet
  facet normal -0 0 1
    outer loop
      vertex 0 30 45
      vertex 8 0 45
      vertex 8 30 45
    endloop
  endfacet
  facet normal 0 0 1
    outer loop
      vertex 8 0 45
      vertex 0 30 45
      vertex 0 0 45
    endloop
  endfacet
  facet normal 0 0 -1
    outer loop
      vertex 0 5 40
      vertex 8 25 40
      vertex 8 5 40
    endloop
  endfacet
  facet normal -0 0 -1
    outer loop
      vertex 8 25 40
      vertex 0 5 40
      vertex 0 25 40
    endloop
  endfacet
  facet normal -0 0 1
    outer loop
      vertex 0 25 32
      vertex 8 5 32
      vertex 8 25 32
    endloop
  endfacet
  facet normal 0 0 1
    outer loop
      vertex 8 5 32
      vertex 0 25 32
      vertex 0 5 32
    endloop
  endfacet
  facet normal 0 -1 0
    outer loop
      vertex 0 25 32
      vertex 8 25 40
      vertex 0 25 40
    endloop
  endfacet
  facet normal 0 -1 -0
    outer loop
      vertex 8 25 40
      vertex 0 25 32
      vertex 8 25 32
    endloop
  endfacet
  facet normal 0 1 -0
    outer loop
      vertex 8 5 32
      vertex 0 5 40
      vertex 8 5 40
    endloop
  endfacet
  facet normal 0 1 0
    outer loop
      vertex 0 5 40
      vertex 8 5 32
      vertex 0 5 32
    endloop
  endfacet
  facet normal -1 0 0
    outer loop
      vertex 40 7.23667 0
      vertex 40 7.25 4
      vertex 40 7.25 0
    endloop
  endfacet
  facet normal -1 -0 0
    outer loop
      vertex 40 7.25 4
      vertex 40 7.23667 0
      vertex 40 7.23667 4
    endloop
  endfacet
  facet normal -1 0 0
    outer loop
      vertex 40 2.75 0
      vertex 40 2.76333 4
      vertex 40 2.76333 0
    endloop
  endfacet
  facet normal -1 -0 0
    outer loop
      vertex 40 2.76333 4
      vertex 40 2.75 0
      vertex 40 2.75 4
    endloop
  endfacet
  facet normal 1 -0 0
    outer loop
      vertex 13 2.75 4
      vertex 13 2.76333 0
      vertex 13 2.76333 4
    endloop
  endfacet
  facet normal 1 0 0
    outer loop
      vertex 13 2.76333 0
      vertex 13 2.75 4
      vertex 13 2.75 0
    endloop
  endfacet
  facet normal 1 -0 0
    outer loop
      vertex 13 7.23667 4
      vertex 13 7.25 0
      vertex 13 7.25 4
    endloop
  endfacet
  facet normal 1 0 0
    outer loop
      vertex 13 7.25 0
      vertex 13 7.23667 4
      vertex 13 7.23667 0
    endloop
  endfacet
  facet normal 0 -1 0
    outer loop
      vertex 13 7.25 0
      vertex 40 7.25 4
      vertex 13 7.25 4
    endloop
  endfacet
  facet normal 0 -1 -0
    outer loop
      vertex 40 7.25 4
      vertex 13 7.25 0
      vertex 40 7.25 0
    endloop
  endfacet
  facet normal 0 1 -0
    outer loop
      vertex 40 2.75 0
      vertex 13 2.75 4
      vertex 40 2.75 4
    endloop
  endfacet
  facet normal 0 1 0
    outer loop
      vertex 13 2.75 4
      vertex 40 2.75 0
      vertex 13 2.75 0
    endloop
  endfacet
  facet normal -1 0 0
    outer loop
      vertex 40 27.2367 0
      vertex 40 27.25 4
      vertex 40 27.25 0
    endloop
  endfacet
  facet normal -1 -0 0
    outer loop
      vertex 40 27.25 4
      vertex 40 27.2367 0
      vertex 40 27.2367 4
    endloop
  endfacet
  facet normal -1 0 0
    outer loop
      vertex 40 22.75 0
      vertex 40 22.7633 4
      vertex 40 22.7633 0
    endloop
  endfacet
  facet normal -1 -0 0
    outer loop
      vertex 40 22.7633 4
      vertex 40 22.75 0
      vertex 40 22.75 4
    endloop
  endfacet
  facet normal 1 -0 0
    outer loop
      vertex 13 22.75 4
      vertex 13 22.7633 0
      vertex 13 22.7633 4
    endloop
  endfacet
  facet normal 1 0 0
    outer loop
      vertex 13 22.7633 0
      vertex 13 22.75 4
      vertex 13 22.75 0
    endloop
  endfacet
  facet normal 1 -0 0
    outer loop
      vertex 13 27.2367 4
      vertex 13 27.25 0
      vertex 13 27.25 4
    endloop
  endfacet
  facet normal 1 0 0
    outer loop
      vertex 13 27.25 0
      vertex 13 27.2367 4
      vertex 13 27.2367 0
    endloop
  endfacet
  facet normal 0 -1 0
    outer loop
      vertex 13 27.25 0
      vertex 40 27.25 4
      vertex 13 27.25 4
    endloop
  endfacet
  facet normal 0 -1 -0
    outer loop
      vertex 40 27.25 4
      vertex 13 27.25 0
      vertex 40 27.25 0
    endloop
  endfacet
  facet normal 0 1 -0
    outer loop
      vertex 40 22.75 0
      vertex 13 22.75 4
      vertex 40 22.75 4
    endloop
  endfacet
  facet normal 0 1 0
    outer loop
      vertex 13 22.75 4
      vertex 40 22.75 0
      vertex 13 22.75 0
    endloop
  endfacet
  facet normal 0.0627791 -0.998027 0
    outer loop
      vertex 12.5784 7.21015 0
      vertex 13 7.23667 4
      vertex 12.5784 7.21015 4
    endloop
  endfacet
  facet normal 0.0627791 -0.998027 0
    outer loop
      vertex 13 7.23667 4
      vertex 12.5784 7.21015 0
      vertex 13 7.23667 0
    endloop
  endfacet
  facet normal 0.728948 -0.684569 0
    outer loop
      vertex 11.1797 6.32252 4
      vertex 11.5658 6.73365 0
      vertex 11.5658 6.73365 4
    endloop
  endfacet
  facet normal 0.728948 -0.684569 0
    outer loop
      vertex 11.5658 6.73365 0
      vertex 11.1797 6.32252 4
      vertex 11.1797 6.32252 0
    endloop
  endfacet
  facet normal 0.535832 -0.844324 0
    outer loop
      vertex 11.5658 6.73365 0
      vertex 12.042 7.03586 4
      vertex 11.5658 6.73365 4
    endloop
  endfacet
  facet normal 0.535832 -0.844324 0
    outer loop
      vertex 12.042 7.03586 4
      vertex 11.5658 6.73365 0
      vertex 12.042 7.03586 0
    endloop
  endfacet
  facet normal 0.0627791 0.998027 -0
    outer loop
      vertex 13 2.76333 0
      vertex 12.5784 2.78985 4
      vertex 13 2.76333 4
    endloop
  endfacet
  facet normal 0.0627791 0.998027 0
    outer loop
      vertex 12.5784 2.78985 4
      vertex 13 2.76333 0
      vertex 12.5784 2.78985 0
    endloop
  endfacet
  facet normal 0.728948 0.684569 0
    outer loop
      vertex 11.5658 3.26635 4
      vertex 11.1797 3.67748 0
      vertex 11.1797 3.67748 4
    endloop
  endfacet
  facet normal 0.728948 0.684569 0
    outer loop
      vertex 11.1797 3.67748 0
      vertex 11.5658 3.26635 4
      vertex 11.5658 3.26635 0
    endloop
  endfacet
  facet normal 0.309022 -0.951055 0
    outer loop
      vertex 12.042 7.03586 0
      vertex 12.5784 7.21015 4
      vertex 12.042 7.03586 4
    endloop
  endfacet
  facet normal 0.309022 -0.951055 0
    outer loop
      vertex 12.5784 7.21015 4
      vertex 12.042 7.03586 0
      vertex 12.5784 7.21015 0
    endloop
  endfacet
  facet normal 0.876315 -0.481739 0
    outer loop
      vertex 10.908 5.82828 4
      vertex 11.1797 6.32252 0
      vertex 11.1797 6.32252 4
    endloop
  endfacet
  facet normal 0.876315 -0.481739 0
    outer loop
      vertex 11.1797 6.32252 0
      vertex 10.908 5.82828 4
      vertex 10.908 5.82828 0
    endloop
  endfacet
  facet normal 0.968566 0.248755 0
    outer loop
      vertex 10.908 4.17172 4
      vertex 10.7677 4.718 0
      vertex 10.7677 4.718 4
    endloop
  endfacet
  facet normal 0.968566 0.248755 0
    outer loop
      vertex 10.7677 4.718 0
      vertex 10.908 4.17172 4
      vertex 10.908 4.17172 0
    endloop
  endfacet
  facet normal 1 -0 0
    outer loop
      vertex 10.7677 4.718 4
      vertex 10.7677 5.282 0
      vertex 10.7677 5.282 4
    endloop
  endfacet
  facet normal 1 0 0
    outer loop
      vertex 10.7677 5.282 0
      vertex 10.7677 4.718 4
      vertex 10.7677 4.718 0
    endloop
  endfacet
  facet normal 0.876315 0.481739 0
    outer loop
      vertex 11.1797 3.67748 4
      vertex 10.908 4.17172 0
      vertex 10.908 4.17172 4
    endloop
  endfacet
  facet normal 0.876315 0.481739 0
    outer loop
      vertex 10.908 4.17172 0
      vertex 11.1797 3.67748 4
      vertex 11.1797 3.67748 0
    endloop
  endfacet
  facet normal 0.968566 -0.248755 0
    outer loop
      vertex 10.7677 5.282 4
      vertex 10.908 5.82828 0
      vertex 10.908 5.82828 4
    endloop
  endfacet
  facet normal 0.968566 -0.248755 0
    outer loop
      vertex 10.908 5.82828 0
      vertex 10.7677 5.282 4
      vertex 10.7677 5.282 0
    endloop
  endfacet
  facet normal 0.535832 0.844324 -0
    outer loop
      vertex 12.042 2.96414 0
      vertex 11.5658 3.26635 4
      vertex 12.042 2.96414 4
    endloop
  endfacet
  facet normal 0.535832 0.844324 0
    outer loop
      vertex 11.5658 3.26635 4
      vertex 12.042 2.96414 0
      vertex 11.5658 3.26635 0
    endloop
  endfacet
  facet normal 0.309022 0.951055 -0
    outer loop
      vertex 12.5784 2.78985 0
      vertex 12.042 2.96414 4
      vertex 12.5784 2.78985 4
    endloop
  endfacet
  facet normal 0.309022 0.951055 0
    outer loop
      vertex 12.042 2.96414 4
      vertex 12.5784 2.78985 0
      vertex 12.042 2.96414 0
    endloop
  endfacet
  facet normal -0.425795 -0.90482 0
    outer loop
      vertex 40.6953 7.13988 0
      vertex 41.2056 6.89974 4
      vertex 40.6953 7.13988 4
    endloop
  endfacet
  facet normal -0.425795 -0.90482 -0
    outer loop
      vertex 41.2056 6.89974 4
      vertex 40.6953 7.13988 0
      vertex 41.2056 6.89974 0
    endloop
  endfacet
  facet normal -0.929791 -0.368087 0
    outer loop
      vertex 42.1793 5.55955 0
      vertex 41.9717 6.08395 4
      vertex 41.9717 6.08395 0
    endloop
  endfacet
  facet normal -0.929791 -0.368087 0
    outer loop
      vertex 41.9717 6.08395 4
      vertex 42.1793 5.55955 0
      vertex 42.1793 5.55955 4
    endloop
  endfacet
  facet normal -0.425795 0.90482 0
    outer loop
      vertex 41.2056 3.10026 0
      vertex 40.6953 2.86012 4
      vertex 41.2056 3.10026 4
    endloop
  endfacet
  facet normal -0.425795 0.90482 0
    outer loop
      vertex 40.6953 2.86012 4
      vertex 41.2056 3.10026 0
      vertex 40.6953 2.86012 0
    endloop
  endfacet
  facet normal -0.6374 0.770533 0
    outer loop
      vertex 41.6402 3.45977 0
      vertex 41.2056 3.10026 4
      vertex 41.6402 3.45977 4
    endloop
  endfacet
  facet normal -0.6374 0.770533 0
    outer loop
      vertex 41.2056 3.10026 4
      vertex 41.6402 3.45977 0
      vertex 41.2056 3.10026 0
    endloop
  endfacet
  facet normal -0.187379 -0.982288 0
    outer loop
      vertex 40.1413 7.24556 0
      vertex 40.6953 7.13988 4
      vertex 40.1413 7.24556 4
    endloop
  endfacet
  facet normal -0.187379 -0.982288 -0
    outer loop
      vertex 40.6953 7.13988 4
      vertex 40.1413 7.24556 0
      vertex 40.6953 7.13988 0
    endloop
  endfacet
  facet normal -0.992112 0.125355 0
    outer loop
      vertex 42.1793 4.44045 0
      vertex 42.25 5 4
      vertex 42.25 5 0
    endloop
  endfacet
  facet normal -0.992112 0.125355 0
    outer loop
      vertex 42.25 5 4
      vertex 42.1793 4.44045 0
      vertex 42.1793 4.44045 4
    endloop
  endfacet
  facet normal -0.809023 0.587777 0
    outer loop
      vertex 41.6402 3.45977 0
      vertex 41.9717 3.91605 4
      vertex 41.9717 3.91605 0
    endloop
  endfacet
  facet normal -0.809023 0.587777 0
    outer loop
      vertex 41.9717 3.91605 4
      vertex 41.6402 3.45977 0
      vertex 41.6402 3.45977 4
    endloop
  endfacet
  facet normal -0.187379 0.982288 0
    outer loop
      vertex 40.6953 2.86012 0
      vertex 40.1413 2.75444 4
      vertex 40.6953 2.86012 4
    endloop
  endfacet
  facet normal -0.187379 0.982288 0
    outer loop
      vertex 40.1413 2.75444 4
      vertex 40.6953 2.86012 0
      vertex 40.1413 2.75444 0
    endloop
  endfacet
  facet normal -0.6374 -0.770533 0
    outer loop
      vertex 41.2056 6.89974 0
      vertex 41.6402 6.54023 4
      vertex 41.2056 6.89974 4
    endloop
  endfacet
  facet normal -0.6374 -0.770533 -0
    outer loop
      vertex 41.6402 6.54023 4
      vertex 41.2056 6.89974 0
      vertex 41.6402 6.54023 0
    endloop
  endfacet
  facet normal -0.992112 -0.125355 0
    outer loop
      vertex 42.25 5 0
      vertex 42.1793 5.55955 4
      vertex 42.1793 5.55955 0
    endloop
  endfacet
  facet normal -0.992112 -0.125355 0
    outer loop
      vertex 42.1793 5.55955 4
      vertex 42.25 5 0
      vertex 42.25 5 4
    endloop
  endfacet
  facet normal 0.0627916 0.998027 -0
    outer loop
      vertex 40.1413 2.75444 0
      vertex 40 2.76333 4
      vertex 40.1413 2.75444 4
    endloop
  endfacet
  facet normal 0.0627916 0.998027 0
    outer loop
      vertex 40 2.76333 4
      vertex 40.1413 2.75444 0
      vertex 40 2.76333 0
    endloop
  endfacet
  facet normal -0.809023 -0.587777 0
    outer loop
      vertex 41.9717 6.08395 0
      vertex 41.6402 6.54023 4
      vertex 41.6402 6.54023 0
    endloop
  endfacet
  facet normal -0.809023 -0.587777 0
    outer loop
      vertex 41.6402 6.54023 4
      vertex 41.9717 6.08395 0
      vertex 41.9717 6.08395 4
    endloop
  endfacet
  facet normal 0.0627916 -0.998027 0
    outer loop
      vertex 40 7.23667 0
      vertex 40.1413 7.24556 4
      vertex 40 7.23667 4
    endloop
  endfacet
  facet normal 0.0627916 -0.998027 0
    outer loop
      vertex 40.1413 7.24556 4
      vertex 40 7.23667 0
      vertex 40.1413 7.24556 0
    endloop
  endfacet
  facet normal -0.929791 0.368087 0
    outer loop
      vertex 41.9717 3.91605 0
      vertex 42.1793 4.44045 4
      vertex 42.1793 4.44045 0
    endloop
  endfacet
  facet normal -0.929791 0.368087 0
    outer loop
      vertex 42.1793 4.44045 4
      vertex 41.9717 3.91605 0
      vertex 41.9717 3.91605 4
    endloop
  endfacet
  facet normal 0.0629678 -0.998016 0
    outer loop
      vertex 12.5784 27.2101 0
      vertex 13 27.2367 4
      vertex 12.5784 27.2101 4
    endloop
  endfacet
  facet normal 0.0629678 -0.998016 0
    outer loop
      vertex 13 27.2367 4
      vertex 12.5784 27.2101 0
      vertex 13 27.2367 0
    endloop
  endfacet
  facet normal 0.729006 -0.684507 0
    outer loop
      vertex 11.1797 26.3225 4
      vertex 11.5658 26.7337 0
      vertex 11.5658 26.7337 4
    endloop
  endfacet
  facet normal 0.729006 -0.684507 0
    outer loop
      vertex 11.5658 26.7337 0
      vertex 11.1797 26.3225 4
      vertex 11.1797 26.3225 0
    endloop
  endfacet
  facet normal 0.53582 -0.844333 0
    outer loop
      vertex 11.5658 26.7337 0
      vertex 12.042 27.0359 4
      vertex 11.5658 26.7337 4
    endloop
  endfacet
  facet normal 0.53582 -0.844333 0
    outer loop
      vertex 12.042 27.0359 4
      vertex 11.5658 26.7337 0
      vertex 12.042 27.0359 0
    endloop
  endfacet
  facet normal 0.0629678 0.998016 -0
    outer loop
      vertex 13 22.7633 0
      vertex 12.5784 22.7899 4
      vertex 13 22.7633 4
    endloop
  endfacet
  facet normal 0.0629678 0.998016 0
    outer loop
      vertex 12.5784 22.7899 4
      vertex 13 22.7633 0
      vertex 12.5784 22.7899 0
    endloop
  endfacet
  facet normal 0.729006 0.684507 0
    outer loop
      vertex 11.5658 23.2663 4
      vertex 11.1797 23.6775 0
      vertex 11.1797 23.6775 4
    endloop
  endfacet
  facet normal 0.729006 0.684507 0
    outer loop
      vertex 11.1797 23.6775 0
      vertex 11.5658 23.2663 4
      vertex 11.5658 23.2663 0
    endloop
  endfacet
  facet normal 0.308878 -0.951102 0
    outer loop
      vertex 12.042 27.0359 0
      vertex 12.5784 27.2101 4
      vertex 12.042 27.0359 4
    endloop
  endfacet
  facet normal 0.308878 -0.951102 0
    outer loop
      vertex 12.5784 27.2101 4
      vertex 12.042 27.0359 0
      vertex 12.5784 27.2101 0
    endloop
  endfacet
  facet normal 0.876298 -0.481769 0
    outer loop
      vertex 10.908 25.8283 4
      vertex 11.1797 26.3225 0
      vertex 11.1797 26.3225 4
    endloop
  endfacet
  facet normal 0.876298 -0.481769 0
    outer loop
      vertex 11.1797 26.3225 0
      vertex 10.908 25.8283 4
      vertex 10.908 25.8283 0
    endloop
  endfacet
  facet normal 0.308878 0.951102 -0
    outer loop
      vertex 12.5784 22.7899 0
      vertex 12.042 22.9641 4
      vertex 12.5784 22.7899 4
    endloop
  endfacet
  facet normal 0.308878 0.951102 0
    outer loop
      vertex 12.042 22.9641 4
      vertex 12.5784 22.7899 0
      vertex 12.042 22.9641 0
    endloop
  endfacet
  facet normal 0.968569 0.248746 0
    outer loop
      vertex 10.908 24.1717 4
      vertex 10.7677 24.718 0
      vertex 10.7677 24.718 4
    endloop
  endfacet
  facet normal 0.968569 0.248746 0
    outer loop
      vertex 10.7677 24.718 0
      vertex 10.908 24.1717 4
      vertex 10.908 24.1717 0
    endloop
  endfacet
  facet normal 1 -0 0
    outer loop
      vertex 10.7677 24.718 4
      vertex 10.7677 25.282 0
      vertex 10.7677 25.282 4
    endloop
  endfacet
  facet normal 1 0 0
    outer loop
      vertex 10.7677 25.282 0
      vertex 10.7677 24.718 4
      vertex 10.7677 24.718 0
    endloop
  endfacet
  facet normal 0.876298 0.481769 0
    outer loop
      vertex 11.1797 23.6775 4
      vertex 10.908 24.1717 0
      vertex 10.908 24.1717 4
    endloop
  endfacet
  facet normal 0.876298 0.481769 0
    outer loop
      vertex 10.908 24.1717 0
      vertex 11.1797 23.6775 4
      vertex 11.1797 23.6775 0
    endloop
  endfacet
  facet normal 0.53582 0.844333 -0
    outer loop
      vertex 12.042 22.9641 0
      vertex 11.5658 23.2663 4
      vertex 12.042 22.9641 4
    endloop
  endfacet
  facet normal 0.53582 0.844333 0
    outer loop
      vertex 11.5658 23.2663 4
      vertex 12.042 22.9641 0
      vertex 11.5658 23.2663 0
    endloop
  endfacet
  facet normal 0.968569 -0.248746 0
    outer loop
      vertex 10.7677 25.282 4
      vertex 10.908 25.8283 0
      vertex 10.908 25.8283 4
    endloop
  endfacet
  facet normal 0.968569 -0.248746 0
    outer loop
      vertex 10.908 25.8283 0
      vertex 10.7677 25.282 4
      vertex 10.7677 25.282 0
    endloop
  endfacet
  facet normal -0.929767 -0.368147 0
    outer loop
      vertex 42.1793 25.5596 0
      vertex 41.9717 26.0839 4
      vertex 41.9717 26.0839 0
    endloop
  endfacet
  facet normal -0.929767 -0.368147 0
    outer loop
      vertex 41.9717 26.0839 4
      vertex 42.1793 25.5596 0
      vertex 42.1793 25.5596 4
    endloop
  endfacet
  facet normal -0.992113 -0.125344 0
    outer loop
      vertex 42.25 25 0
      vertex 42.1793 25.5596 4
      vertex 42.1793 25.5596 0
    endloop
  endfacet
  facet normal -0.992113 -0.125344 0
    outer loop
      vertex 42.1793 25.5596 4
      vertex 42.25 25 0
      vertex 42.25 25 4
    endloop
  endfacet
  facet normal -0.809035 -0.58776 0
    outer loop
      vertex 41.9717 26.0839 0
      vertex 41.6402 26.5402 4
      vertex 41.6402 26.5402 0
    endloop
  endfacet
  facet normal -0.809035 -0.58776 0
    outer loop
      vertex 41.6402 26.5402 4
      vertex 41.9717 26.0839 0
      vertex 41.9717 26.0839 4
    endloop
  endfacet
  facet normal 0.062862 -0.998022 0
    outer loop
      vertex 40 27.2367 0
      vertex 40.1413 27.2456 4
      vertex 40 27.2367 4
    endloop
  endfacet
  facet normal 0.062862 -0.998022 0
    outer loop
      vertex 40.1413 27.2456 4
      vertex 40 27.2367 0
      vertex 40.1413 27.2456 0
    endloop
  endfacet
  facet normal -0.63739 -0.770541 0
    outer loop
      vertex 41.2056 26.8997 0
      vertex 41.6402 26.5402 4
      vertex 41.2056 26.8997 4
    endloop
  endfacet
  facet normal -0.63739 -0.770541 -0
    outer loop
      vertex 41.6402 26.5402 4
      vertex 41.2056 26.8997 0
      vertex 41.6402 26.5402 0
    endloop
  endfacet
  facet normal -0.992113 0.125344 0
    outer loop
      vertex 42.1793 24.4404 0
      vertex 42.25 25 4
      vertex 42.25 25 0
    endloop
  endfacet
  facet normal -0.992113 0.125344 0
    outer loop
      vertex 42.25 25 4
      vertex 42.1793 24.4404 0
      vertex 42.1793 24.4404 4
    endloop
  endfacet
  facet normal -0.425882 -0.904779 0
    outer loop
      vertex 40.6953 27.1399 0
      vertex 41.2056 26.8997 4
      vertex 40.6953 27.1399 4
    endloop
  endfacet
  facet normal -0.425882 -0.904779 -0
    outer loop
      vertex 41.2056 26.8997 4
      vertex 40.6953 27.1399 0
      vertex 41.2056 26.8997 0
    endloop
  endfacet
  facet normal -0.809035 0.58776 0
    outer loop
      vertex 41.6402 23.4598 0
      vertex 41.9717 23.9161 4
      vertex 41.9717 23.9161 0
    endloop
  endfacet
  facet normal -0.809035 0.58776 0
    outer loop
      vertex 41.9717 23.9161 4
      vertex 41.6402 23.4598 0
      vertex 41.6402 23.4598 4
    endloop
  endfacet
  facet normal 0.062862 0.998022 -0
    outer loop
      vertex 40.1413 22.7544 0
      vertex 40 22.7633 4
      vertex 40.1413 22.7544 4
    endloop
  endfacet
  facet normal 0.062862 0.998022 0
    outer loop
      vertex 40 22.7633 4
      vertex 40.1413 22.7544 0
      vertex 40 22.7633 0
    endloop
  endfacet
  facet normal -0.425882 0.904779 0
    outer loop
      vertex 41.2056 23.1003 0
      vertex 40.6953 22.8601 4
      vertex 41.2056 23.1003 4
    endloop
  endfacet
  facet normal -0.425882 0.904779 0
    outer loop
      vertex 40.6953 22.8601 4
      vertex 41.2056 23.1003 0
      vertex 40.6953 22.8601 0
    endloop
  endfacet
  facet normal -0.63739 0.770541 0
    outer loop
      vertex 41.6402 23.4598 0
      vertex 41.2056 23.1003 4
      vertex 41.6402 23.4598 4
    endloop
  endfacet
  facet normal -0.63739 0.770541 0
    outer loop
      vertex 41.2056 23.1003 4
      vertex 41.6402 23.4598 0
      vertex 41.2056 23.1003 0
    endloop
  endfacet
  facet normal -0.929767 0.368147 0
    outer loop
      vertex 41.9717 23.9161 0
      vertex 42.1793 24.4404 4
      vertex 42.1793 24.4404 0
    endloop
  endfacet
  facet normal -0.929767 0.368147 0
    outer loop
      vertex 42.1793 24.4404 4
      vertex 41.9717 23.9161 0
      vertex 41.9717 23.9161 4
    endloop
  endfacet
  facet normal -0.187414 0.982281 0
    outer loop
      vertex 40.6953 22.8601 0
      vertex 40.1413 22.7544 4
      vertex 40.6953 22.8601 4
    endloop
  endfacet
  facet normal -0.187414 0.982281 0
    outer loop
      vertex 40.1413 22.7544 4
      vertex 40.6953 22.8601 0
      vertex 40.1413 22.7544 0
    endloop
  endfacet
  facet normal -0.187414 -0.982281 0
    outer loop
      vertex 40.1413 27.2456 0
      vertex 40.6953 27.1399 4
      vertex 40.1413 27.2456 4
    endloop
  endfacet
  facet normal -0.187414 -0.982281 -0
    outer loop
      vertex 40.6953 27.1399 4
      vertex 40.1413 27.2456 0
      vertex 40.6953 27.1399 0
    endloop
  endfacet
  facet normal -0 0.587777 0.809023
    outer loop
      vertex 0 3.91605 23.0283
      vertex 8 3.45977 23.3598
      vertex 8 3.91605 23.0283
    endloop
  endfacet
  facet normal 0 0.587777 0.809023
    outer loop
      vertex 8 3.45977 23.3598
      vertex 0 3.91605 23.0283
      vertex 0 3.45977 23.3598
    endloop
  endfacet
  facet normal 0 -0.368087 0.929791
    outer loop
      vertex 0 6.08395 23.0283
      vertex 8 5.55955 22.8207
      vertex 8 6.08395 23.0283
    endloop
  endfacet
  facet normal 0 -0.368087 0.929791
    outer loop
      vertex 8 5.55955 22.8207
      vertex 0 6.08395 23.0283
      vertex 0 5.55955 22.8207
    endloop
  endfacet
  facet normal 0 -0.587777 0.809023
    outer loop
      vertex 0 6.54023 23.3598
      vertex 8 6.08395 23.0283
      vertex 8 6.54023 23.3598
    endloop
  endfacet
  facet normal 0 -0.587777 0.809023
    outer loop
      vertex 8 6.08395 23.0283
      vertex 0 6.54023 23.3598
      vertex 0 6.08395 23.0283
    endloop
  endfacet
  facet normal -0 0.125355 0.992112
    outer loop
      vertex 0 5 22.75
      vertex 8 4.44045 22.8207
      vertex 8 5 22.75
    endloop
  endfacet
  facet normal 0 0.125355 0.992112
    outer loop
      vertex 8 4.44045 22.8207
      vertex 0 5 22.75
      vertex 0 4.44045 22.8207
    endloop
  endfacet
  facet normal 0 -0.684569 -0.728948
    outer loop
      vertex 0 6.32252 26.8203
      vertex 8 6.73365 26.4342
      vertex 8 6.32252 26.8203
    endloop
  endfacet
  facet normal -0 -0.684569 -0.728948
    outer loop
      vertex 8 6.73365 26.4342
      vertex 0 6.32252 26.8203
      vertex 0 6.73365 26.4342
    endloop
  endfacet
  facet normal 0 -0.982288 0.187379
    outer loop
      vertex 0 7.13988 24.3047
      vertex 8 7.24556 24.8587
      vertex 0 7.24556 24.8587
    endloop
  endfacet
  facet normal 0 -0.982288 0.187379
    outer loop
      vertex 8 7.24556 24.8587
      vertex 0 7.13988 24.3047
      vertex 8 7.13988 24.3047
    endloop
  endfacet
  facet normal 0 0.951055 -0.309022
    outer loop
      vertex 8 2.78985 25.4216
      vertex 0 2.96414 25.958
      vertex 8 2.96414 25.958
    endloop
  endfacet
  facet normal 0 0.951055 -0.309022
    outer loop
      vertex 0 2.96414 25.958
      vertex 8 2.78985 25.4216
      vertex 0 2.78985 25.4216
    endloop
  endfacet
  facet normal 0 -0.770533 0.6374
    outer loop
      vertex 0 6.54023 23.3598
      vertex 8 6.89974 23.7944
      vertex 0 6.89974 23.7944
    endloop
  endfacet
  facet normal 0 -0.770533 0.6374
    outer loop
      vertex 8 6.89974 23.7944
      vertex 0 6.54023 23.3598
      vertex 8 6.54023 23.3598
    endloop
  endfacet
  facet normal 0 -0.125355 0.992112
    outer loop
      vertex 0 5.55955 22.8207
      vertex 8 5 22.75
      vertex 8 5.55955 22.8207
    endloop
  endfacet
  facet normal 0 -0.125355 0.992112
    outer loop
      vertex 8 5 22.75
      vertex 0 5.55955 22.8207
      vertex 0 5 22.75
    endloop
  endfacet
  facet normal 0 -0.998027 -0.0627823
    outer loop
      vertex 0 7.24556 24.8587
      vertex 8 7.21015 25.4216
      vertex 0 7.21015 25.4216
    endloop
  endfacet
  facet normal 0 -0.998027 -0.0627823
    outer loop
      vertex 8 7.21015 25.4216
      vertex 0 7.24556 24.8587
      vertex 8 7.24556 24.8587
    endloop
  endfacet
  facet normal 0 0.248755 -0.968566
    outer loop
      vertex 0 4.17172 27.092
      vertex 8 4.718 27.2323
      vertex 8 4.17172 27.092
    endloop
  endfacet
  facet normal 0 0.248755 -0.968566
    outer loop
      vertex 8 4.718 27.2323
      vertex 0 4.17172 27.092
      vertex 0 4.718 27.2323
    endloop
  endfacet
  facet normal 0 0.770533 0.6374
    outer loop
      vertex 8 3.45977 23.3598
      vertex 0 3.10026 23.7944
      vertex 8 3.10026 23.7944
    endloop
  endfacet
  facet normal 0 0.770533 0.6374
    outer loop
      vertex 0 3.10026 23.7944
      vertex 8 3.45977 23.3598
      vertex 0 3.45977 23.3598
    endloop
  endfacet
  facet normal 0 -0.951055 -0.309022
    outer loop
      vertex 0 7.21015 25.4216
      vertex 8 7.03586 25.958
      vertex 0 7.03586 25.958
    endloop
  endfacet
  facet normal 0 -0.951055 -0.309022
    outer loop
      vertex 8 7.03586 25.958
      vertex 0 7.21015 25.4216
      vertex 8 7.21015 25.4216
    endloop
  endfacet
  facet normal 0 0.684569 -0.728948
    outer loop
      vertex 0 3.26635 26.4342
      vertex 8 3.67748 26.8203
      vertex 8 3.26635 26.4342
    endloop
  endfacet
  facet normal 0 0.684569 -0.728948
    outer loop
      vertex 8 3.67748 26.8203
      vertex 0 3.26635 26.4342
      vertex 0 3.67748 26.8203
    endloop
  endfacet
  facet normal 0 0.481739 -0.876315
    outer loop
      vertex 0 3.67748 26.8203
      vertex 8 4.17172 27.092
      vertex 8 3.67748 26.8203
    endloop
  endfacet
  facet normal 0 0.481739 -0.876315
    outer loop
      vertex 8 4.17172 27.092
      vertex 0 3.67748 26.8203
      vertex 0 4.17172 27.092
    endloop
  endfacet
  facet normal 0 0.998027 -0.0627823
    outer loop
      vertex 8 2.75444 24.8587
      vertex 0 2.78985 25.4216
      vertex 8 2.78985 25.4216
    endloop
  endfacet
  facet normal 0 0.998027 -0.0627823
    outer loop
      vertex 0 2.78985 25.4216
      vertex 8 2.75444 24.8587
      vertex 0 2.75444 24.8587
    endloop
  endfacet
  facet normal 0 -0.844324 -0.535832
    outer loop
      vertex 0 7.03586 25.958
      vertex 8 6.73365 26.4342
      vertex 0 6.73365 26.4342
    endloop
  endfacet
  facet normal 0 -0.844324 -0.535832
    outer loop
      vertex 8 6.73365 26.4342
      vertex 0 7.03586 25.958
      vertex 8 7.03586 25.958
    endloop
  endfacet
  facet normal 0 0.90482 0.425795
    outer loop
      vertex 8 3.10026 23.7944
      vertex 0 2.86012 24.3047
      vertex 8 2.86012 24.3047
    endloop
  endfacet
  facet normal 0 0.90482 0.425795
    outer loop
      vertex 0 2.86012 24.3047
      vertex 8 3.10026 23.7944
      vertex 0 3.10026 23.7944
    endloop
  endfacet
  facet normal -0 0.368087 0.929791
    outer loop
      vertex 0 4.44045 22.8207
      vertex 8 3.91605 23.0283
      vertex 8 4.44045 22.8207
    endloop
  endfacet
  facet normal 0 0.368087 0.929791
    outer loop
      vertex 8 3.91605 23.0283
      vertex 0 4.44045 22.8207
      vertex 0 3.91605 23.0283
    endloop
  endfacet
  facet normal 0 0.982288 0.187379
    outer loop
      vertex 8 2.86012 24.3047
      vertex 0 2.75444 24.8587
      vertex 8 2.75444 24.8587
    endloop
  endfacet
  facet normal 0 0.982288 0.187379
    outer loop
      vertex 0 2.75444 24.8587
      vertex 8 2.86012 24.3047
      vertex 0 2.86012 24.3047
    endloop
  endfacet
  facet normal 0 0 -1
    outer loop
      vertex 0 4.718 27.2323
      vertex 8 5.282 27.2323
      vertex 8 4.718 27.2323
    endloop
  endfacet
  facet normal -0 0 -1
    outer loop
      vertex 8 5.282 27.2323
      vertex 0 4.718 27.2323
      vertex 0 5.282 27.2323
    endloop
  endfacet
  facet normal 0 -0.90482 0.425795
    outer loop
      vertex 0 6.89974 23.7944
      vertex 8 7.13988 24.3047
      vertex 0 7.13988 24.3047
    endloop
  endfacet
  facet normal 0 -0.90482 0.425795
    outer loop
      vertex 8 7.13988 24.3047
      vertex 0 6.89974 23.7944
      vertex 8 6.89974 23.7944
    endloop
  endfacet
  facet normal 0 -0.481739 -0.876315
    outer loop
      vertex 0 5.82828 27.092
      vertex 8 6.32252 26.8203
      vertex 8 5.82828 27.092
    endloop
  endfacet
  facet normal -0 -0.481739 -0.876315
    outer loop
      vertex 8 6.32252 26.8203
      vertex 0 5.82828 27.092
      vertex 0 6.32252 26.8203
    endloop
  endfacet
  facet normal 0 0.844324 -0.535832
    outer loop
      vertex 8 2.96414 25.958
      vertex 0 3.26635 26.4342
      vertex 8 3.26635 26.4342
    endloop
  endfacet
  facet normal 0 0.844324 -0.535832
    outer loop
      vertex 0 3.26635 26.4342
      vertex 8 2.96414 25.958
      vertex 0 2.96414 25.958
    endloop
  endfacet
  facet normal 0 -0.248755 -0.968566
    outer loop
      vertex 0 5.282 27.2323
      vertex 8 5.82828 27.092
      vertex 8 5.282 27.2323
    endloop
  endfacet
  facet normal -0 -0.248755 -0.968566
    outer loop
      vertex 8 5.82828 27.092
      vertex 0 5.282 27.2323
      vertex 0 5.82828 27.092
    endloop
  endfacet
  facet normal 0 -0.904779 0.425882
    outer loop
      vertex 0 26.8997 23.7944
      vertex 8 27.1399 24.3047
      vertex 0 27.1399 24.3047
    endloop
  endfacet
  facet normal 0 -0.904779 0.425882
    outer loop
      vertex 8 27.1399 24.3047
      vertex 0 26.8997 23.7944
      vertex 8 26.8997 23.7944
    endloop
  endfacet
  facet normal 0 0 -1
    outer loop
      vertex 0 24.718 27.2323
      vertex 8 25.282 27.2323
      vertex 8 24.718 27.2323
    endloop
  endfacet
  facet normal -0 0 -1
    outer loop
      vertex 8 25.282 27.2323
      vertex 0 24.718 27.2323
      vertex 0 25.282 27.2323
    endloop
  endfacet
  facet normal -0 0.58776 0.809035
    outer loop
      vertex 0 23.9161 23.0283
      vertex 8 23.4598 23.3598
      vertex 8 23.9161 23.0283
    endloop
  endfacet
  facet normal 0 0.58776 0.809035
    outer loop
      vertex 8 23.4598 23.3598
      vertex 0 23.9161 23.0283
      vertex 0 23.4598 23.3598
    endloop
  endfacet
  facet normal 0 0.904779 0.425882
    outer loop
      vertex 8 23.1003 23.7944
      vertex 0 22.8601 24.3047
      vertex 8 22.8601 24.3047
    endloop
  endfacet
  facet normal 0 0.904779 0.425882
    outer loop
      vertex 0 22.8601 24.3047
      vertex 8 23.1003 23.7944
      vertex 0 23.1003 23.7944
    endloop
  endfacet
  facet normal 0 -0.368147 0.929767
    outer loop
      vertex 0 26.0839 23.0283
      vertex 8 25.5596 22.8207
      vertex 8 26.0839 23.0283
    endloop
  endfacet
  facet normal 0 -0.368147 0.929767
    outer loop
      vertex 8 25.5596 22.8207
      vertex 0 26.0839 23.0283
      vertex 0 25.5596 22.8207
    endloop
  endfacet
  facet normal 0 0.770541 0.63739
    outer loop
      vertex 8 23.4598 23.3598
      vertex 0 23.1003 23.7944
      vertex 8 23.1003 23.7944
    endloop
  endfacet
  facet normal 0 0.770541 0.63739
    outer loop
      vertex 0 23.1003 23.7944
      vertex 8 23.4598 23.3598
      vertex 0 23.4598 23.3598
    endloop
  endfacet
  facet normal -0 0.125344 0.992113
    outer loop
      vertex 0 25 22.75
      vertex 8 24.4404 22.8207
      vertex 8 25 22.75
    endloop
  endfacet
  facet normal 0 0.125344 0.992113
    outer loop
      vertex 8 24.4404 22.8207
      vertex 0 25 22.75
      vertex 0 24.4404 22.8207
    endloop
  endfacet
  facet normal 0 -0.982281 0.187414
    outer loop
      vertex 0 27.1399 24.3047
      vertex 8 27.2456 24.8587
      vertex 0 27.2456 24.8587
    endloop
  endfacet
  facet normal 0 -0.982281 0.187414
    outer loop
      vertex 8 27.2456 24.8587
      vertex 0 27.1399 24.3047
      vertex 8 27.1399 24.3047
    endloop
  endfacet
  facet normal 0 0.982281 0.187414
    outer loop
      vertex 8 22.8601 24.3047
      vertex 0 22.7544 24.8587
      vertex 8 22.7544 24.8587
    endloop
  endfacet
  facet normal 0 0.982281 0.187414
    outer loop
      vertex 0 22.7544 24.8587
      vertex 8 22.8601 24.3047
      vertex 0 22.8601 24.3047
    endloop
  endfacet
  facet normal 0 -0.951102 -0.308878
    outer loop
      vertex 0 27.2101 25.4216
      vertex 8 27.0359 25.958
      vertex 0 27.0359 25.958
    endloop
  endfacet
  facet normal 0 -0.951102 -0.308878
    outer loop
      vertex 8 27.0359 25.958
      vertex 0 27.2101 25.4216
      vertex 8 27.2101 25.4216
    endloop
  endfacet
  facet normal 0 0.481769 -0.876298
    outer loop
      vertex 0 23.6775 26.8203
      vertex 8 24.1717 27.092
      vertex 8 23.6775 26.8203
    endloop
  endfacet
  facet normal 0 0.481769 -0.876298
    outer loop
      vertex 8 24.1717 27.092
      vertex 0 23.6775 26.8203
      vertex 0 24.1717 27.092
    endloop
  endfacet
  facet normal 0 -0.770541 0.63739
    outer loop
      vertex 0 26.5402 23.3598
      vertex 8 26.8997 23.7944
      vertex 0 26.8997 23.7944
    endloop
  endfacet
  facet normal 0 -0.770541 0.63739
    outer loop
      vertex 8 26.8997 23.7944
      vertex 0 26.5402 23.3598
      vertex 8 26.5402 23.3598
    endloop
  endfacet
  facet normal 0 0.998017 -0.0629412
    outer loop
      vertex 8 22.7544 24.8587
      vertex 0 22.7899 25.4216
      vertex 8 22.7899 25.4216
    endloop
  endfacet
  facet normal 0 0.998017 -0.0629412
    outer loop
      vertex 0 22.7899 25.4216
      vertex 8 22.7544 24.8587
      vertex 0 22.7544 24.8587
    endloop
  endfacet
  facet normal 0 -0.58776 0.809035
    outer loop
      vertex 0 26.5402 23.3598
      vertex 8 26.0839 23.0283
      vertex 8 26.5402 23.3598
    endloop
  endfacet
  facet normal 0 -0.58776 0.809035
    outer loop
      vertex 8 26.0839 23.0283
      vertex 0 26.5402 23.3598
      vertex 0 26.0839 23.0283
    endloop
  endfacet
  facet normal 0 -0.998017 -0.0629412
    outer loop
      vertex 0 27.2456 24.8587
      vertex 8 27.2101 25.4216
      vertex 0 27.2101 25.4216
    endloop
  endfacet
  facet normal 0 -0.998017 -0.0629412
    outer loop
      vertex 8 27.2101 25.4216
      vertex 0 27.2456 24.8587
      vertex 8 27.2456 24.8587
    endloop
  endfacet
  facet normal 0 -0.125344 0.992113
    outer loop
      vertex 0 25.5596 22.8207
      vertex 8 25 22.75
      vertex 8 25.5596 22.8207
    endloop
  endfacet
  facet normal 0 -0.125344 0.992113
    outer loop
      vertex 8 25 22.75
      vertex 0 25.5596 22.8207
      vertex 0 25 22.75
    endloop
  endfacet
  facet normal 0 -0.844333 -0.53582
    outer loop
      vertex 0 27.0359 25.958
      vertex 8 26.7337 26.4342
      vertex 0 26.7337 26.4342
    endloop
  endfacet
  facet normal 0 -0.844333 -0.53582
    outer loop
      vertex 8 26.7337 26.4342
      vertex 0 27.0359 25.958
      vertex 8 27.0359 25.958
    endloop
  endfacet
  facet normal 0 -0.481769 -0.876298
    outer loop
      vertex 0 25.8283 27.092
      vertex 8 26.3225 26.8203
      vertex 8 25.8283 27.092
    endloop
  endfacet
  facet normal -0 -0.481769 -0.876298
    outer loop
      vertex 8 26.3225 26.8203
      vertex 0 25.8283 27.092
      vertex 0 26.3225 26.8203
    endloop
  endfacet
  facet normal 0 0.248746 -0.968569
    outer loop
      vertex 0 24.1717 27.092
      vertex 8 24.718 27.2323
      vertex 8 24.1717 27.092
    endloop
  endfacet
  facet normal 0 0.248746 -0.968569
    outer loop
      vertex 8 24.718 27.2323
      vertex 0 24.1717 27.092
      vertex 0 24.718 27.2323
    endloop
  endfacet
  facet normal 0 -0.248746 -0.968569
    outer loop
      vertex 0 25.282 27.2323
      vertex 8 25.8283 27.092
      vertex 8 25.282 27.2323
    endloop
  endfacet
  facet normal -0 -0.248746 -0.968569
    outer loop
      vertex 8 25.8283 27.092
      vertex 0 25.282 27.2323
      vertex 0 25.8283 27.092
    endloop
  endfacet
  facet normal 0 0.844333 -0.53582
    outer loop
      vertex 8 22.9641 25.958
      vertex 0 23.2663 26.4342
      vertex 8 23.2663 26.4342
    endloop
  endfacet
  facet normal 0 0.844333 -0.53582
    outer loop
      vertex 0 23.2663 26.4342
      vertex 8 22.9641 25.958
      vertex 0 22.9641 25.958
    endloop
  endfacet
  facet normal 0 0.684507 -0.729006
    outer loop
      vertex 0 23.2663 26.4342
      vertex 8 23.6775 26.8203
      vertex 8 23.2663 26.4342
    endloop
  endfacet
  facet normal 0 0.684507 -0.729006
    outer loop
      vertex 8 23.6775 26.8203
      vertex 0 23.2663 26.4342
      vertex 0 23.6775 26.8203
    endloop
  endfacet
  facet normal 0 -0.684507 -0.729006
    outer loop
      vertex 0 26.3225 26.8203
      vertex 8 26.7337 26.4342
      vertex 8 26.3225 26.8203
    endloop
  endfacet
  facet normal -0 -0.684507 -0.729006
    outer loop
      vertex 8 26.7337 26.4342
      vertex 0 26.3225 26.8203
      vertex 0 26.7337 26.4342
    endloop
  endfacet
  facet normal -0 0.368147 0.929767
    outer loop
      vertex 0 24.4404 22.8207
      vertex 8 23.9161 23.0283
      vertex 8 24.4404 22.8207
    endloop
  endfacet
  facet normal 0 0.368147 0.929767
    outer loop
      vertex 8 23.9161 23.0283
      vertex 0 24.4404 22.8207
      vertex 0 23.9161 23.0283
    endloop
  endfacet
  facet normal 0 0.951102 -0.308878
    outer loop
      vertex 8 22.7899 25.4216
      vertex 0 22.9641 25.958
      vertex 8 22.9641 25.958
    endloop
  endfacet
  facet normal 0 0.951102 -0.308878
    outer loop
      vertex 0 22.9641 25.958
      vertex 8 22.7899 25.4216
      vertex 0 22.7899 25.4216
    endloop
  endfacet
endsolid OpenSCAD_Model
